<?xml version="1.0" encoding="UTF-8"?><svg xmlns="http://www.w3.org/2000/svg" viewBox="0 0 63.44 60.36"><defs><style>.d{fill:#1d1d1b;}</style></defs><g id="a"/><g id="b"><g id="c"><g><g><path class="d" d="M28.11,59.6c-.32,.13,.07,.62,.07,.75,.51-.46-.18-.88-.07-.75Z"/><path class="d" d="M29.16,56l.23,.11c-.17-.16-.35-.32-.52-.46l.29,.35Z"/><path class="d" d="M29.51,54.33c-1.07,0,.08,.6-.34,.82h-.25c.28,.09,.54,.2,.81,.32-.05-.42-.54-.95-.22-1.14Z"/><path class="d" d="M31.9,53.68c-.42,.03-.34-.22-.14,.2,.05-.02,.07-.02,.11-.03,0-.04,0-.09,.04-.17Z"/><path class="d" d="M31.86,53.85c.01,.19,.36-.1,0,0h0Z"/><path class="d" d="M31.67,53.05l.36,.24c.25-.03,.31-.24,.49-.15-.19-.24-.44-.2-.85-.09Z"/><path class="d" d="M30.9,52.82l.15,.12c.1-.02,.14-.05-.15-.12Z"/><path class="d" d="M31.37,53.18l-.32-.25c-.17,.03-.52,.01,.11,.11-.32-.03-.01,.03,.21,.14Z"/><path class="d" d="M31.2,53.31c-.24,.11-.39,.25-.75,.02,.13,.41,.88,.41,.75-.02Z"/><path class="d" d="M28.42,54.12l-.33,.11,.34,.17c-.16-.09,.32-.25-.01-.28Z"/><path class="d" d="M32.24,51.74c-.23-.01-.61,.07-.9,.09l.26,.15c.16-.08,.3-.22,.63-.24Z"/><path class="d" d="M31.34,51.82l-.39-.22c-.04,.2,.14,.23,.39,.22Z"/><path class="d" d="M29.71,52.75c.27,.13,.54,.26,.8,.4-.27-.16-.54-.33-.81-.47v.07Z"/><polygon class="d" points="32.25 50.88 32.79 50.99 31.98 50.79 32.25 50.88"/><path class="d" d="M32.14,50.33c.44,.07,.73-.16,1.01-.07-.08-.15-.46-.26-.81-.36,.19,.11,.15,.24-.2,.43Z"/><path class="d" d="M31.84,49.74c.11,.05,.3,.11,.5,.16-.1-.06-.25-.11-.5-.16Z"/><path class="d" d="M31.06,51.23c.14-.02,.5-.06,.65-.19l-.64,.1v.09Z"/><path class="d" d="M31.04,51.15h.02l.03-.19-.05,.19Z"/><path class="d" d="M31.05,51.26v-.02c-.06,0-.08,.01,0,.02Z"/><path class="d" d="M30.3,52.19c-.36-.13-.74-.39-1.29-.14,.44,.09,.75-.06,1.29,.14Z"/><path class="d" d="M30.25,51.38l-.14,.23c.17,0,.42-.05,.59,.01l-.45-.24Z"/><polygon class="d" points="30.05 51.27 30.25 51.38 30.31 51.29 30.05 51.27"/><path class="d" d="M31.26,50.15c-.28-.08-.31-.19-.36-.3-.12,.13-.18,.26-.17,.39,.2,0,.57,.05,.54-.09Z"/><path class="d" d="M31.1,50.64l-.04-.02c-.05,.02-.07,.03,.04,.02Z"/><path class="d" d="M30.84,48.7l-.12,.03h.11v-.03Z"/><path class="d" d="M30.61,50.26c-.12,.1,.04,.15,.24,.2-.07-.07-.11-.14-.12-.23-.09,0-.15,0-.12,.03Z"/><path class="d" d="M31.53,49.43c-.13,.06-.24,.12-.34,.18,.2-.06,.51-.18,.34-.18Z"/><path class="d" d="M31.24,50.58s.02,0,.03,.01c.14-.04,.07-.03-.03-.01Z"/><path class="d" d="M31.24,50.58c-.09-.05-.25-.08-.4-.11,.05,.06,.12,.11,.22,.15,.04-.01,.11-.03,.18-.04Z"/><path class="d" d="M26.71,48.62c.59-.02,1.16,.18,.53,.42,.46,.17,2.4-.07,3.48-.32-.26,.01-.5,.02-.86-.16-.32,.09-.73,.51-1.28,.37-.32-.26,.2-.24,.5-.39-.73,.16-1.1-.28-2.18-.15l.4,.22c-.17,.02-.44-.05-.59,.02Z"/><path class="d" d="M30.69,49.14l.08,.08c.1-.11,.33-.19,.79-.35-.3-.13-.52-.15-.72-.14l-.06,.44-.09-.02Z"/><path class="d" d="M30.79,49.62c-.65-.04-.93-.23-1.63-.06,.06,.25,.55,.15,.84,.29-.18-.41,.37,.1,.72-.22,.11,.08,.15,.15,.18,.22,.07-.08,.17-.16,.28-.24h-.05c-.08,.04-.13,.05-.08,.02,0,0-.01,0-.01,0-.09,0-.17,0-.24,0,.13-.13,.17-.03,.24,0h.1l-.38-.4c-.08,.09-.06,.2,.02,.4Z"/><path class="d" d="M27.62,51.82c.06-.01,.1-.01,.15-.01-.08-.03-.13-.04-.15,.01Z"/><path class="d" d="M28.01,51.65c.09,.03,.35,.05,.28,.15-.19,.09-.31,0-.52,0,.17,.06,.47,.2,.78,.02l-.09-.03c.22-.17,1.02-.4,1.11-.37-.58,.06-.99,.11-1.56,.23Z"/><path class="d" d="M29.24,50.65l-.33-.34-.55,.2,.34-.02c-.12,.2,.29,.14,.55,.16Z"/><polygon class="d" points="31.16 48.64 31.84 48.65 30.87 48.51 31.16 48.64"/><polygon class="d" points="31.05 48.21 31.64 48.19 31.28 48.09 31.05 48.21"/><path class="d" d="M22.67,24.01l-.17-.09c.05,.04,.11,.07,.17,.09Z"/><path class="d" d="M22.67,24.72h.29c-.16-.02-.28-.03-.29,0Z"/><path class="d" d="M30.68,37.56c.55-.17,1.4-.37,.73-.32l-.65,.07c.12,.1,.05,.18-.09,.25Z"/><path class="d" d="M26.43,30.38c-.06,.02-.13,.03-.2,.05,.22,.02,.43,.04,.63,.06-.13-.04-.28-.08-.43-.12Z"/><path class="d" d="M23.74,30.42l.41-.21c-.14,.05-.28,.12-.41,.21Z"/><path class="d" d="M21.74,20.19l-.67-.07c.02,.18,.34,.08,.67,.07Z"/><path class="d" d="M30.7,43.92c.25-.13,.36-.23,.39-.32-.37,.16-.93,.29-.39,.32Z"/><path class="d" d="M29.58,23.89c-.12-.05-.26-.07-.4-.06,.11,.06,.24,.08,.4,.06Z"/><path class="d" d="M31.08,43.23c-.06,.02-.1,.05-.15,.07,.11,.09,.2,.18,.16,.3,.28-.12,.45-.25,0-.37Z"/><path class="d" d="M20.95,6.29s.04-.03,.07-.04c-.09,0-.09,.02-.07,.04Z"/><path class="d" d="M26.81,1.22s.06,.1,.08,.16c.04-.04,.03-.09-.08-.16Z"/><path class="d" d="M31.25,46.62c.04,.06,.07,0,0,0h0Z"/><path class="d" d="M28.69,47.07c-.07-.02-.17-.03-.32-.02,.16,0,.26,0,.32,.02Z"/><path class="d" d="M27.01,42.38h0c-.13,.02-.1,.02,0,0Z"/><path class="d" d="M30.95,46.72c.08-.03,.15-.05,.19-.08-.05,.01-.11,.04-.19,.08Z"/><path class="d" d="M31.26,46.7s-.04,.04-.06,.06c.11,0,.18,0,.06-.06Z"/><path class="d" d="M31.21,46.54s-.02,.07-.06,.1c.04-.01,.08-.02,.1-.02-.01-.02-.02-.04-.04-.08Z"/><path class="d" d="M23.5,13.52l.06-.03c-.28-.07-.23-.03-.06,.03Z"/><path class="d" d="M23.82,35.45h0Z"/><path class="d" d="M23.32,35.14c.82,.1,.72,.19,.55,.3l1.87-.2-2.42-.1Z"/><path class="d" d="M22.38,22.32l-.57,.27c-.98-.22-.66-.44-1.47-.17,2.04-.09,.26,.88,2.3,.79l-.42,.18s-.1-.04-.09-.09c-.96,.35,1.48,.13,1.22,.53-.15,.14-.44,.25-.68,.18l.52,.27c-.03,.09-.39,.09-.36,0l.19,.44h-.06c.32,.05,.82,.17,1.04,.23-.29,.13-.22-.05-.47,0l.51,.22c-.52,.13-1.04-.05-.98-.23-2.02,.35,.52,.18-.63,.75l-.27-.22c-1.15,.22-.72,.38-1.42,.69,.37-.08,1.78-.64,2.31-.39-.15,.09-.22,.19,.2,.32-.72,.04-.54,.18-.49,.35l-.96,.04c.29,.18,.77,.14,1.21,.23-.08,.22-.82,.31-1.45,.39-.13,.36,1.18-.3,1.38,.1-.35,.31,.05,.49,.64,.81-.32,.22-.59,0-.86,.08l.77,.14s-.25,.04-.37,.04c.3,.14,.96-.04,1.23,.19,1.06,0-1.52,.57-.3,.8-.27,.09-.59,0-.96,.04,.81,.37,.59,.32,1.67,.6l-.61,.32c.71-.25,1.57-.02,2.29,.17,.34-.09,.64-.17,.79-.22l.53,.34c-.15,.05-.49,.03-.89,0l.23,.06c-.35,.15-.9,.11-1.44,.04,.19-.05,.39-.11,.58-.17-.59-.06-1.24-.11-1.8-.06,.11,.02,.21,.06,.27,.11-.16-.02-.3-.02-.4,0-.1,.02,.11,.05,.36,.09l-1.06,.14h.43l-.64,.52c1.09,.29,2.69,.51,3.16,1.04-.79-.1-1.28,.04-2.21,.08,.97-.2-.44-.41-.26-.7-.1,.16-.54,.15-.7,.12l.92,.46c-.76,.03-.56,.14-.87,.29,1.49-.18,1.02,.33,1.49,.51-.5,.04-1.02,.02-.91-.24-1.11,.34,1.78,.27,.84,.59-.02-.06,.06-.1-.2-.11,.46,.12,.12,.49-.32,.43v-.06c-.17,.42,.04,1.25,1.32,1.25-.16,.01-1.54,.02-1.8,0l4.32,.52c-1.1-.01-3.69,.36-4.33,.05-.15,.1-.33,.23,.07,.42,.15-.07,1.57-.24,1.68-.15-1.21,.31-.64,.2-1.67,.56,.23-.11,1.95-.08,1.9,.08-.26-.01-1.69,.09-1.88,.04l1.7,.31c-.31-.08-1.43,.05-1.9,.16,.33-.06-.02,.34,.16,.44l.38-.18c-.23,.45,2.39,.33,2.32,.78-.35-.04-2.15-.04-2.35,.19,.87,.07,4.17,.28,4.85,.65l-.49,.09,.57,.28c-1.31-.14-4.06-.56-5.13-.8-.38,.18-.58,.07-.52,.31-.46,.11-.71-.11-.74-.18l-.28,.58c1.01-.06,1.03,.4,1.87,.35l-1.07-.58c1-.07,2.87,.25,2.71,.67-.4,.12-1.8-.01-2.13,0,.35,.04,.68,.36,.43,.41l-.54-.15c-.37,.24,1.35,.32,.4,.63-.06,.1-1.29,.32-.69,.32,1.14-.19,4.7-.34,5.57-.26-.08,.04-1.08,.54-1.65,.66-.9,.18-2.16-.17-2.93-.01,.28,0,.62,.07,.73,.11-.23,.11-.85-.02-.72,.2,1.02,0-.07,.44,.87,.08,.3,.2-.2,.23-.15,.48,.66-.1,2.25,.16,2.55,.37-.26,0-.6,.05-.75,.08-.08,.44-.54,.68-.54,1.08-.25,.04-.54,.24-.98,.17,.18,.05,.53,.1,.56,.23-.88,.25-.14-.27-1.2-.07,.59,0,.83,.31,1.2,.48,.92-.07,.17-.41-.2-.58,1.26-.02,2.6,.27,3.19,.69,.32,.34-.82,.16-.64,.21-.22,.64,2.22,.52,1.31,1.07-.81,.22-1.6,.02-2.19,.07-.31-.27,.51-.43,.48-.61l-.38,.23c-.27-.09-.47-.27-.24-.37-.72,.18-.13,1.07-.8,1.56,.27,.09,.56,.24,.88,.16l-.12-.15c.65-.13,.91,.26,1.21,.08,.46,.17,1.18,.34,.83,.63l-.92,.1c.27-.02,.54-.21,.26-.27,.41,.09-1.22,.49-.01,.56l.62-.24c.47,.18,1.46,.36,1.19,.64,.9-.17-.11-.06,.94-.3-1.31,.23,.02-.64-1.36-.31,1.22-.25,.51-.33,1.55-.59-.3,.02-.58,.09-.43-.08l-.27-.02h-.01s-.06,0-.01,0c-.13,.04-.29,.07-.46,.1-.7-.06-.68-.31-1.04-.44,.14-.13,.35,.05,.67-.02l-.54-.18c.67-.02,1.12-.35,1.51-.04l.03-.28c.38-.17,.53-.4,.24-.53,.14-.13-.75-.33-.22-.22l-.42-.43h.17c.08-.44-1.13-.88,.08-1.39-.17-.14-.38-.29-.2-.53l.58-.06c-.21-.18,.57-.57-.04-.64,1.56-.24,.32-.91,.59-1.25h-.76c.04-.22-.19-.42-.5-.69l-.67,.04c-.56-.22,.46-.63,.37-1.01,.26,.02,.19,.11,.04,.19,1.5-.51-1.14-.91-.05-1.36-.25-.09-.17-.17,0-.25,0,0,.01,.02,.04,.02,0-.01,0-.03,0-.04,.11-.05,.25-.1,.35-.16-.16,.05-.29,.1-.36,.13-.02-.08-.11-.19-.28-.3l.72-.08s0-.02-.02-.03c.26-.13-.35-.08-.89,0-.12-.05-.27-.1-.44-.14,1.16-.14-.41-.29,.83-.47-.61-.05-.48-.57-1.76-.57,.17-.01,.24-.05,.26,.01,.14-.14,.28-.27-.09-.37l.91-.1-1.25-.22c.55-.2,.87-.29,1.59-.15-1.11-.36-.43-.32-1.52-.61h.59c-.03-.14-.83-.3-.35-.4,1.11-.34,.09-1.39,1.1-2.16-1.74,.23,.77-.37-.59-.33,.41-.06,.64-.18,1-.08-.42-.34,.63-.58-.53-.78,.41-.06,.61,.05,.85,0-.09-.02-.37-.1-.12-.15,.24-.05,.35,.04,.53,.08-.09-.37-1.36-.34-2.56-.3,.56-.22,.47-.31-.32-.4,.39-.09,.79-.22,.94,0,.05-.13,.53-.83-.43-.79,.24-.05,.06-.19-.05-.21,.04-.3,.13-.33,.02-.61l-.15,.09c-1.16-.05-.27-.23-.42-.45h.12c.81-.58-.41-.21,.51-.78l-.72,.07c-1.55,.03,.89-.51,.28-.79l-.4,.13c-.54-.14,2.08-.58,2.26-.76,.13-.04,.22,.05,.32,.09,.89-.49-.94,0-1.18-.32,.5-.09,1.3,0,1.38-.22,.4-.13-1.68-.55-.73-.9-.39,.09-.77,.18-1.08,.04-.15-.22,1.44-.71,.2-.85,.11-.04,.21-.05,.3-.06-.33-.16-.56-.55-1.24-.62,2.47-.31-1.27-1.03,1.01-1.17l-.16-.54h.23c.13-.36-.43-.45-.98-.54,.15-.09,.37-.05,.49-.05,.43-.54,.33-.59-.84-.94l.74-.09c-.44-.09,1.11-.82,.21-1.26,.08,0,.23,0,.34,.03-.91-.5,1.96-1.51-.76-1.52l-.69-.32c-.17,.5-1.18,.02-1.61,.25-.17-.18,.78-.55,.93-.33l-.13,.05c1.41-.02,.45-.64,1.41-.7-.15-.94,.56-1.94,.53-2.84l-1.08,.2,.03-.32c.25-.1,.84-.19,.82,.04,.61-.17-.55-.33-.79-.31,.4-.48,1.29,.05,1.3-.08l-.1-.17-.12,.05c-.46-.11-.93-.07-.9-.35,.2-.19,.67-.15,.7-.22,.08,0,.11-.03,.02-.11l.05-.4-.85,.24c-.44-.13,0-.37-.95-.1,1.48-.41,.4-1.51,.84-1.72-.65-.18-.67-.42-.63-.72-.17,.09-1.13,.24-1.04-.02,2.01-.13,.82-.56,2.23-.94-.93,.3-.32-.7-1.64-.25,.14-.23,.75-.1,1.2-.32-.83-.42,.37-1.19,.02-1.79-.26,.02-.65,.18-1.06,.1l1.26-.51c-.15-.11-1.52,.09-.65-.26-.22,.06-.54,.16-.64,.08,1.1-1.43-1.4-2.35,.77-4-.47,.26-.54,.15-.59,.02-.11,.11-.64,.11-.99,.18l.89-.7c-.99,.08-.17-.55-1.11-.44l.2,.14c-1.14-.02-2.4,.75-3.82,.96,1.3,.02-1.75,.94,.11,1.02-.28,.13-.47,0-.79,.1,.62,0,.77,.1,.53,.36h-.15c.25,.6-.3,.96-.61,1.71l.7-.16c-.07,.16-.29,.23-.45,.32,1.09,.02,0-.43,1.2-.45-1.4,.41,.13,1.07-1.47,1.43,.02,.23,.81-.18,.83,.05l-.43,.12,.58-.02c-.07,.17-.61,.32-.99,.37,.04-.04-.12-.09-.16-.12-.49,.27,.25,.53,.09,.62l.24-.26c.5,.58,.01,1.42,.98,1.92l.33-.09c.67,.4-.32,.42,.02,.9h-.08c.34,.06,.53,.18,.5,.32-.4-.09-.73,.33-1.18,.21,.72,.44,.55,.19,1.82,.4l-.54,.14c.51,.06,.78,.04,.95,.29-.5-.16-.83,.25-1.48,.08-1.16,.67,1.3,.68-.44,1.11,1.56,.1,.8-.56,1.15-.45,.49-.17,1.17,.09,1.03,.28-.02,.18-1.93,.49-1.86,.92,0-.04-.11-.04-.11-.08-.38,.2,.56,.27-.06,.53,.94,.03-.03,.26,1.16,.19l-.31-.38c.33,.2,1.73,.29,1.1,.72-.24,0-.57-.09-.75-.15-.34,.14,.25,.19-.1,.34-1.19,.07-.3-.46-1.23-.62-.49,.16,.9,.38-.39,.38,1.65,.03-.17,.45,1.11,.63l-.71,.04c.12,.04,.46,.1,.45,.19l-.93-.08c.8,.17-.65,.52-.2,.71-.06-.48,.85-.18,1.35-.43,1,.51-1.83,.5-1.43,1.13-.11-.08,.4-.37,.74-.26-.14,.14-.39,.33-.76,.44,.18,.43,.72-.13,1.18,.02-.85,.22,.37,.19,.66,.36l-.72,.06c-.42,.54,1.51,.01,.99,.51l-1.02-.11,.28,.22h-.82c.63,.22,.48,.32,.27,.58,.5-.1,1.31-.07,1.35,.16-.42,.18-.69-.03-.57,.27-.46-.04-1.03-.07-.37-.26-.24,0-.46-.04-.69-.03-.48,.2-.08,.42-.07,.53,.02-.05,.06-.1,.16-.14l1.03,.38c-.27,.09-.49,.05-.7,0,.08,.09,.42,.13,.49,.26-.59,0-1.19,.06-1.48-.11l.68,.39c-.25,.05-.68,.27-.9,.23-.33,.26,1.18,.51,.75,.86,.11,0,.23,.04,.31,.1-.11,.31-.82,.62,.01,.93l-1.04,.27c.26,.26,1.31-.36,1.74,.08,.36,.31-.89,.18-1.18,.32,.54,.13,1.64,.35,.8,.71-.2-.09-.05-.18-.14-.27Zm.67,3.44c-.16-.06-.63-.17-.21-.24,.83,.03,.44,.11,.21,.24Zm2.02,5.21c-.24-.04-.13-.12,.14-.22,.06,.06,.04,.13-.14,.22Zm5.58,14.69h-.04c.28-.16,.17-.11,.04,0Zm-.31,.32c.1,.03,.2,.03,.3,.02-.18-.02-.2-.09-.14-.18-.19,.02-.32,.07-.16,.16Zm-2.08-33.9l-.18,.08c-.22-.12-.03-.1,.18-.08Z"/><path class="d" d="M24.05,30.42c.12-.03,.26-.04,.39-.05-.12-.02-.26-.01-.39,.05Z"/><path class="d" d="M21.86,20.2s0,0,0-.01h0Z"/><path class="d" d="M24.12,41.22c.1-.07,.23-.11,.37-.13-.18,0-.33,.04-.37,.13Z"/><path class="d" d="M31.61,47.39l-.2-.18c.04,.08-.12,.13-.23,.18,.17-.01,.41-.06,.43,0Z"/><path class="d" d="M27.25,49.39c.09,.02,.01,.06,.1,.09l.34-.03c-.03-.12-.31-.2-.44-.06Z"/><path class="d" d="M29.22,47.71c-.61,.05-.39,.16-.27,.29,0,0,0-.02,0-.02,.85-.01,.56-.14,.27-.27Z"/><path class="d" d="M28.97,48.04s.05,.08,.02,.13c.34,0,.07-.06-.02-.13Z"/><path class="d" d="M30.74,46.38c-.16,.07,.78,.04,.53,.08,.78,.08-.94-.46-.53-.08Z"/><polygon class="d" points="27.22 47.95 27.97 47.85 27.36 47.81 27.22 47.95"/><path class="d" d="M27.72,46.82l-.2,.23c.13,0,.2,.02,.26,.05,.02-.14,.16-.29-.06-.27Z"/><path class="d" d="M27.78,47.1c-.01,.07,0,.14,.13,.17,0-.04-.04-.12-.13-.17Z"/><polygon class="d" points="26.98 47.65 27.13 47.58 27.18 47.42 26.98 47.65"/><path class="d" d="M27.84,44.41l-.22-.24c-.26-.02-.41,.05-.31,.14,.18,.06,.28,.15,.53,.11Z"/><path class="d" d="M25.79,45.17c.16-.07,.32-.07,.57-.11h-.93l.36,.11Z"/><path class="d" d="M25.57,44.47c-.26-.02-.75-.34-.68-.04,.26,.02,.47,.26,.68,.04Z"/><polygon class="d" points="26.66 40.76 26.68 40.82 28.2 40.77 26.66 40.76"/><path class="d" d="M22.89,37.67c-.35,.3,.94,.03,.5,.31,.36,.05,.36-.23,.68-.17-.39-.16-.18-.26-1.18-.14Z"/><path class="d" d="M24.07,37.8c.06,.03,.14,.05,.24,.08-.1-.05-.17-.07-.24-.08Z"/><polygon class="d" points="27.5 .38 27.78 .14 27.3 .35 27.5 .38"/><path class="d" d="M26.32,.22l.95-.22-.89,.05c.05,.03,.15,.1-.06,.18Z"/><path class="d" d="M21.12,26.38h.23c.25-.04,.27-.09,.3-.17l-.54,.17Z"/><polygon class="d" points="21.71 23.83 21.69 23.88 22.56 23.74 21.71 23.83"/><path class="d" d="M20.46,21.8c-.03,.09,.17,.18,.14,.26-.17-.18,.96-.36-.14-.26Z"/></g><g><path class="d" d="M61.9,14.31c-.08,.04-.05,.02-.06,.03,.13-.06,.06-.03,.06-.03Z"/><path class="d" d="M60.66,13.48l-.14-.22c.09,.19,.18,.39,.24,.59-.02-.13-.06-.25-.11-.37Z"/><path class="d" d="M59.73,13.94c.54,.94,.34-.34,.66-.08l.14,.2-.34-.8c-.09,.21-.17,.88-.47,.68Z"/><path class="d" d="M58.3,12.01c.18,.38,0,.38,.18,.07l-.06-.09s-.05,.03-.11,.02Z"/><path class="d" d="M58.41,12c.1-.07-.19-.3,0,0h0Z"/><path class="d" d="M57.96,12.41l.04-.41c-.11-.22-.27-.23-.28-.41-.09,.25,.01,.47,.24,.82Z"/><path class="d" d="M58.05,13.21l.04-.18c-.05-.09-.08-.12-.04,.18Z"/><path class="d" d="M58.16,12.65l-.07,.38c.08,.16,.19,.48,.05-.14,.09,.31,.03,0,.03-.23Z"/><path class="d" d="M58.31,12.77c.17,.19,.34,.28,.3,.69,.27-.25-.05-.94-.3-.69Z"/><path class="d" d="M60.1,14.98l.25,.23-.03-.38c.02,.19-.36-.16-.22,.14Z"/><path class="d" d="M56.75,12.21c.05,.22,.23,.57,.33,.84l.05-.29c-.11-.13-.27-.23-.38-.55Z"/><path class="d" d="M57.08,13.05l-.09,.43c.19,0,.17-.19,.09-.43Z"/><polygon class="d" points="58.39 14.35 58.44 13.46 58.33 14.38 58.39 14.35"/><polygon class="d" points="56.01 12.39 55.98 11.85 55.99 12.68 56.01 12.39"/><path class="d" d="M55.53,12.62c-.03-.44-.3-.69-.28-.97-.12,.11-.14,.5-.16,.86,.07-.21,.2-.19,.44,.11Z"/><path class="d" d="M55.02,13.03c.03-.12,.05-.31,.06-.52-.04,.11-.06,.27-.06,.52Z"/><path class="d" d="M56.62,13.47c-.05-.13-.18-.47-.33-.58l.25,.6h.08Z"/><path class="d" d="M56.55,13.51v-.02c-.1,.01-.16,.01-.19,.01h.19Z"/><path class="d" d="M56.64,13.47h-.02c.02,.06,.03,.08,.02,0Z"/><path class="d" d="M57.7,13.96c0,.38-.15,.82,.25,1.27-.04-.45-.27-.7-.25-1.27Z"/><path class="d" d="M56.96,14.21l.26,.08c-.05-.16-.16-.39-.15-.57l-.11,.5Z"/><polygon class="d" points="56.91 14.44 56.96 14.21 56.86 14.19 56.91 14.44"/><path class="d" d="M55.54,13.51c-.02,.29-.12,.34-.23,.42,.16,.09,.3,.12,.43,.09-.03-.2-.07-.56-.2-.51Z"/><path class="d" d="M56.05,13.57v.04s.03,.06,0-.04Z"/><path class="d" d="M54.15,14.21l.05,.11-.02-.11h-.02Z"/><path class="d" d="M55.79,14.13c.13,.1,.14-.07,.15-.28-.05,.08-.12,.14-.2,.17,.01,.09,.03,.15,.05,.11Z"/><path class="d" d="M54.78,13.4c.08,.12,.16,.21,.25,.3-.1-.19-.27-.47-.25-.3Z"/><path class="d" d="M55.96,13.44s0-.02,0-.03c-.07-.13-.04-.06,0,.03Z"/><path class="d" d="M55.96,13.44c-.02,.1-.02,.26-.02,.41,.04-.06,.08-.14,.1-.25-.02-.04-.05-.1-.08-.16Z"/><path class="d" d="M54.7,18.3c-.11-.58,.03-1.18,.4-.61,.12-.49-.47-2.35-.91-3.37,.05,.25,.11,.49-.04,.88,.15,.3,.67,.62,.6,1.19-.23,.37-.29-.15-.51-.42,.29,.69-.15,1.14,.16,2.19l.19-.43c.04,.16,0,.45,.11,.58Z"/><path class="d" d="M54.63,14.28l.07-.09c-.13-.08-.26-.29-.5-.71-.08,.32-.07,.54-.03,.73l.47-.02v.09Z"/><path class="d" d="M55.1,14.08c.08,.65-.07,.97,.23,1.61,.26-.11,.06-.57,.15-.88-.39,.26,.04-.38-.36-.66,.06-.13,.12-.18,.19-.22-.1-.06-.19-.13-.29-.23l.02,.04h0c.04,.08,.06,.13,.02,.09,0,0,0,.02,0,.02,.02,.09,.03,.17,.04,.24-.16-.1-.06-.16-.04-.24l-.02-.09h0l-.34,.44c.11,.07,.22,.02,.4-.1Z"/><path class="d" d="M58.12,16.63c-.03-.05-.04-.1-.06-.14,0,.08,0,.14,.06,.14Z"/><path class="d" d="M57.83,16.31c0-.1-.04-.35,.08-.32,.14,.16,.09,.3,.15,.5,.02-.18,.08-.51-.2-.75v.09c-.24-.16-.69-.87-.68-.97,.21,.54,.37,.93,.64,1.44Z"/><path class="d" d="M56.47,15.37l-.28,.4,.33,.49-.09-.32c.24,.07,.09-.32,.05-.57Z"/><polygon class="d" points="54.03 13.9 53.93 13.23 53.94 14.21 54.03 13.9"/><polygon class="d" points="53.58 14.09 53.47 13.51 53.43 13.88 53.58 14.09"/><path class="d" d="M27.6,26.8l-.06,.19c.04-.06,.06-.13,.06-.19Z"/><path class="d" d="M28.39,26.62l-.06-.29c0,.17,.02,.28,.06,.29Z"/><path class="d" d="M41.72,16.29c-.25-.52-.56-1.35-.44-.69l.15,.64c.1-.13,.19-.07,.29,.05Z"/><path class="d" d="M34.02,21.63l.09,.18-.04-.63-.06,.45Z"/><path class="d" d="M34.53,24.28l-.31-.36c.08,.13,.18,.25,.31,.36Z"/><path class="d" d="M23.56,28.67l.07,.67c.19-.06,.01-.36-.07-.67Z"/><path class="d" d="M48.74,15.31c-.18-.22-.31-.31-.41-.32,.23,.34,.47,.86,.41,.32Z"/><path class="d" d="M26.1,20.05c-.04,.13-.03,.27,0,.41,.04-.13,.05-.26,0-.41Z"/><path class="d" d="M47.93,15.05c.04,.06,.07,.09,.1,.14,.08-.13,.17-.23,.3-.21-.17-.25-.34-.4-.4,.07Z"/><path class="d" d="M8.49,33.45s-.04-.03-.06-.06c.03,.08,.05,.08,.06,.06Z"/><path class="d" d="M1.46,29.46c.03-.06,.1-.09,.16-.13-.05-.02-.1,0-.16,.13Z"/><path class="d" d="M51.62,14.22c.09-.06,0-.07,0,0h0Z"/><path class="d" d="M52.64,16.64c0,.08,0,.17,.02,.32-.02-.16-.03-.26-.02-.32Z"/><path class="d" d="M47.59,19.23h0c.05,.12,.04,.1,0,0Z"/><path class="d" d="M51.84,14.48c-.05-.07-.11-.13-.17-.16,.03,.05,.08,.1,.17,.16Z"/><path class="d" d="M51.75,14.18s.07,.03,.1,.04c0-.11-.03-.17-.1-.04Z"/><path class="d" d="M51.49,14.28c.06-.02,.12,0,.18,.03-.03-.04-.04-.07-.04-.1-.03,.02-.07,.04-.13,.06Z"/><path class="d" d="M15.8,28.76l-.04-.05c-.01,.29,.02,.23,.04,.05Z"/><path class="d" d="M39.99,23.39s0-.02,0-.03l-.02-.02v.05Z"/><path class="d" d="M39.69,23.93c.04-.83,.15-.74,.29-.59l-.4-1.84,.11,2.43Z"/><path class="d" d="M25.79,27.49l.41,.49c-.04,1.01-.35,.76,.11,1.48-.52-1.97,.92-.48,.41-2.45l.28,.37c-.05,0-.03,.11-.08,.11,.59,.85-.15-1.49,.35-1.32,.19,.11,.37,.37,.33,.63l.19-.58c.11,.01,.17,.36,.07,.35l.46-.29v.06c0-.33,.03-.85,.06-1.07,.2,.25,0,.23,.09,.46l.15-.55c.25,.48,.15,1.04-.06,1.01,.78,1.9,.1-.56,.96,.45l-.2,.32c.46,1.07,.56,.61,1.04,1.24-.16-.35-1.05-1.6-.88-2.17,.12,.13,.25,.17,.31-.27,.18,.7,.3,.49,.49,.39l.23,.93c.14-.32,0-.79,.02-1.24,.26,.03,.5,.74,.71,1.33,.42,.05-.56-1.09-.15-1.38,.41,.27,.54-.16,.78-.81,.3,.26,.1,.58,.25,.82v-.79c.06,0,.11,.24,.13,.35,.1-.33-.22-.93-.02-1.25-.18-1.04,.91,1.36,.95,.12,.15,.25,.1,.58,.21,.94,.26-.87,.25-.65,.37-1.77l.46,.54c-.4-.64-.31-1.54-.21-2.29-.16-.32-.31-.6-.39-.73l.3-.6c.09,.14,.12,.47,.15,.88l.02-.24c.23,.31,.28,.87,.3,1.41-.09-.17-.19-.36-.29-.54,.03,.59,.09,1.24,.24,1.78,0-.11,.03-.22,.07-.28,.01,.16,.03,.3,.06,.39,.04,.09,.03-.12,.04-.38l.34,1.02-.08-.42,.69,.52c.14-1.14,.11-2.76,.63-3.34,.02,.8,.26,1.26,.46,2.16-.39-.92-.38,.52-.74,.4,.19,.06,.25,.5,.25,.66l.36-1c.16,.74,.25,.53,.47,.8-.28-.87-.14-1.08,.02-1.22,.06-.08,.16-.13,.22-.33,.11,.49,.11,1.01-.06,.93,.37,1.08-.01-1.79,.44-.9-.07,.02-.11-.05-.1,.21,.08-.47,.53-.18,.51,.27l-.07,.02c.48,.1,1.4-.2,1.28-1.48,.03,.16,.17,1.53,.18,1.79l.19-4.37c.09,1.09,.76,3.63,.46,4.3,.13,.14,.3,.3,.48-.12-.1-.14-.42-1.54-.34-1.65,.47,1.16,.29,.62,.8,1.59-.15-.22-.28-1.93-.09-1.91,.01,.26,.27,1.68,.23,1.86l.2-1.74c-.07,.32,.19,1.42,.37,1.87-.1-.32,.39-.03,.49-.21l-.25-.36c.55,.17,.14-2.42,.66-2.41,0,.35,.18,2.14,.46,2.31-.01-.87-.12-4.19,.22-4.91l.16,.47,.25-.61c0,1.32-.18,4.11-.34,5.22,.25,.36,.14,.57,.42,.48,.17,.44-.05,.72-.13,.76l.71,.19c-.19-.99,.35-1.08,.2-1.91l-.56,1.15c-.18-.99-.03-2.89,.47-2.79,.18,.38,.19,1.79,.25,2.12,0-.35,.34-.73,.42-.49l-.11,.56c.32,.33,.22-1.39,.68-.49,.12,.05,.53,1.23,.46,.64-.36-1.11-.97-4.61-.99-5.49,.05,.07,.74,.99,.96,1.53,.33,.86,.08,2.17,.36,2.91-.04-.27,0-.62,.03-.74,.15,.21,.09,.85,.32,.69-.13-1.02,.52,0-.03-.87,.19-.33,.29,.16,.57,.07-.2-.64-.12-2.26,.07-2.59,.03,.26,.14,.58,.19,.73,.51,0,.85,.42,1.31,.34,.09,.24,.36,.49,.34,.94,.03-.19,.03-.54,.17-.59,.43,.82-.29,.19,.11,1.2-.09-.59,.22-.87,.36-1.28-.23-.89-.5-.09-.64,.31-.22-1.25-.11-2.61,.26-3.28,.32-.38,.31,.77,.34,.58,.75,.08,.19-2.28,.94-1.5,.39,.75,.32,1.57,.48,2.13-.25,.36-.57-.41-.77-.34l.33,.33c-.05,.28-.22,.52-.37,.31,.33,.68,1.23-.09,1.91,.45,.04-.29,.16-.59,.01-.9l-.15,.15c-.29-.6,.15-.95-.13-1.2,.14-.49,.25-1.25,.65-.96l.25,.89c-.06-.26-.32-.49-.36-.2,.05-.43,.76,1.11,.65-.1l-.36-.57c.13-.5,.21-1.51,.55-1.29-.32-.86-.04,.12-.47-.88,.45,1.25-.73,.1-.16,1.4-.46-1.16-.47-.44-.95-1.41,.07,.29,.21,.55-.05,.45,0,.09,0,.2,0,.27l-.02-.02,.02,.03s0,.06,0,.01c.08,.12,.16,.27,.21,.43,.02,.71-.36,.76-.42,1.14-.17-.11,0-.35-.15-.65l-.09,.57c-.15-.66-.59-1.02-.34-1.48l-.3,.03c-.25-.34-.52-.44-.61-.13-.17-.12-.22,.8-.19,.26l-.39,.5-.04-.16c-.48,0-.76,1.28-1.51,.17-.13,.2-.26,.43-.55,.29l-.15-.57c-.17,.24-.71-.47-.69,.14-.48-1.51-1.04-.17-1.44-.39l.11,.75c-.25,0-.45,.25-.71,.6l.13,.66c-.18,.59-.76-.36-1.17-.23-.01-.26,.11-.21,.21-.07-.74-1.42-.89,1.26-1.52,.24-.08,.26-.17,.19-.28,.03,.01,0,.02-.02,.02-.04-.01,0-.03,0-.05,0-.07-.11-.14-.23-.21-.33,.07,.15,.14,.28,.19,.34-.09,.03-.21,.13-.31,.32l-.16-.71s-.02,.01-.03,.02c-.17-.24-.05,.35,.1,.88-.05,.13-.09,.28-.11,.46-.28-1.14-.28,.44-.61-.77,0,.61-.59,.55-.47,1.82-.03-.16-.08-.24-.01-.26-.17-.12-.34-.24-.41,.13l-.2-.9-.14,1.27c-.28-.52-.41-.83-.32-1.56-.31,1.15-.32,.46-.56,1.59l-.07-.59c-.14,.04-.25,.86-.41,.39-.21-.46-.53-.51-.92-.48-.41,.03-.77,.1-1.41,0-.16-.04-.3-.12-.46-.24,.55,1.67-.55-.67-.28,.65-.14-.39-.31-.59-.26-.97-.32,.49-.77-.49-.79,.69-.14-.39-.05-.61-.15-.84-.01,.09-.05,.38-.15,.15-.1-.23-.02-.35,0-.54-.41,.17-.15,1.42,.09,2.59-.34-.5-.43-.4-.4,.4-.17-.36-.39-.73-.16-.93-.16-.02-1.03-.34-.82,.6-.1-.22-.22-.02-.23,.1-.34,.02-.39-.05-.69,.11l.13,.13c.15,1.15-.21,.32-.43,.52l-.02-.12c-.8-.66-.16,.45-.98-.32l.21,.69c.33,1.51-.75-.75-.94-.09l.23,.37c-.05,.56-1.05-1.9-1.28-2.04-.07-.12,.01-.23,.04-.34-.72-.75,.17,.93-.14,1.24-.2-.47-.24-1.27-.51-1.3-.23-.37-.3,1.78-.88,.93,.18,.36,.35,.72,.26,1.05-.22,.2-1.09-1.24-1,.02-.06-.09-.1-.19-.13-.28-.12,.36-.51,.69-.45,1.37-.85-2.35-.91,1.5-1.52-.7l-.58,.29-.05-.23c-.43-.03-.42,.53-.4,1.1-.13-.12-.13-.35-.15-.47-.7-.28-.73-.17-.88,1.07l-.26-.7c0,.45-1.16-.87-1.47,.13-.02-.08-.05-.22-.04-.34-.37,1.02-2.12-1.5-1.54,1.15l-.21,.77c.59,.03,.28,1.14,.63,1.5-.16,.22-.78-.61-.57-.82l.08,.12c-.33-1.38-.81-.27-1.09-1.18-1.02,.41-2.29,0-3.3,.29l.47,1-.36,.06c-.17-.21-.4-.77-.14-.81-.33-.54-.24,.63-.16,.86-.62-.25-.24-1.27-.39-1.25l-.17,.15,.09,.11c-.01,.48,.13,.93-.18,.98-.26-.14-.32-.6-.41-.62-.03-.07-.06-.1-.12,.01l-.46,.07,.47,.75c-.04,.47-.42,.1,.11,.95-.8-1.32-1.78,.07-2.12-.3-.04,.69-.3,.78-.65,.84,.14,.14,.54,1.03,.22,1.02-.63-1.91-.82-.62-1.58-1.88,.55,.81-.7,.53,.12,1.67-.29-.06-.29-.69-.64-1.06-.26,.95-1.41,.03-1.99,.55,.09,.25,.36,.57,.37,.99l-.87-1.06c-.08,.18,.48,1.45-.13,.72,.12,.19,.31,.47,.25,.59-1.85-.6-2.23,2.14-4.59,.6,.4,.37,.31,.48,.18,.56,.14,.07,.28,.59,.46,.9l-.99-.62c.34,.94-.56,.35-.19,1.23l.1-.24c.28,1.11,1.44,2.07,2.04,3.37-.31-1.27,1.48,1.37,1.09-.47,.22,.22,.12,.45,.32,.73-.17-.6-.1-.78,.26-.64l.04,.15c.59-.44,1.13-.02,2.02,.02l-.35-.62c.2,.01,.32,.2,.47,.33-.26-1.07-.47,.15-.79-1.01,.8,1.22,1.14-.47,1.94,.97,.25-.1-.4-.72-.15-.82l.24,.38-.17-.55c.2,.02,.5,.49,.65,.84-.06-.02-.07,.14-.1,.19,.41,.39,.51-.42,.65-.29l-.34-.15c.51-.67,1.55-.46,1.86-1.56l-.17-.29c.27-.78,.54,.18,.99-.3v.08c0-.35,.09-.57,.25-.59,0,.42,.54,.61,.51,1.09,.31-.83,.08-.59,0-1.9l.28,.49c-.05-.52-.14-.77,.09-1.01-.06,.53,.48,.73,.44,1.41,1.01,.93,.44-1.47,1.32,.1-.26-1.55-.8-.62-.76-.98-.3-.43-.17-1.16,.07-1.08,.2-.04,.99,1.73,1.45,1.54-.05,.01-.01,.12-.06,.13,.31,.3,.17-.62,.6-.1-.19-.92,.3-.05-.06-1.18l-.34,.41c.14-.38-.08-1.77,.55-1.28,.05,.24,.03,.58,0,.77,.23,.29,.15-.3,.39,0,.35,1.14-.44,.43-.41,1.37,.29,.43,.21-.98,.5,.28-.35-1.61,.53,.03,.44-1.26l.21,.68c.01-.12,.01-.48,.11-.49l.13,.93c0-.84,.72,.48,.83,0-.51,.19-.39-.77-.78-1.19,.34-1.12,.96,1.64,1.57,1.08-.07,.13-.5-.29-.45-.65,.18,.09,.45,.29,.65,.62,.43-.3-.3-.67-.23-1.15,.43,.77,.12-.41,.25-.75l.22,.69c.69,.26-.32-1.49,.35-1.11l.1,1.02,.18-.33,.2,.8c.09-.67,.23-.55,.57-.41-.22-.47-.36-1.26-.12-1.36,.29,.36,.11,.69,.43,.48,.06,.46,.14,1.03-.21,.44,.06,.23,.06,.46,.11,.68,.33,.42,.48-.03,.6-.08-.06-.01-.12-.03-.18-.12l.2-1.11c.16,.24,.16,.46,.16,.69,.08-.11,.05-.45,.18-.55,.13,.57,.32,1.15,.19,1.48l.28-.77c.11,.23,.45,.6,.45,.82,.36,.25,.32-1.29,.8-.95-.01-.11,0-.23,.04-.33,.37,.03,.86,.63,1.03-.25l.51,.95c.24-.32-.67-1.19-.27-1.72,.27-.43,.38,.83,.59,1.07,.03-.56,.05-1.69,.62-.96-.06,.22-.18,.1-.27,.2Zm3.69-1.49c-.04,.17-.06,.66-.23,.26-.13-.82,.04-.46,.23-.26Zm5.44-3.16c0,.25-.11,.15-.28-.09,.06-.07,.14-.07,.28,.09Zm15.71-7.83v.04c-.22-.24-.14-.15,0-.04Zm.41,.24c.02-.11,0-.2-.04-.3,.01,.18-.06,.21-.16,.18,.06,.18,.13,.3,.2,.12ZM13.11,24.54l.13,.15c-.08,.25-.1,.06-.13-.15Z"/><path class="d" d="M34.48,23.97c-.05-.11-.09-.24-.12-.37,0,.13,.03,.26,.12,.37Z"/><path class="d" d="M23.55,28.54s0,0-.01,0l.03,.13v-.12Z"/><path class="d" d="M46.64,22.28c-.09-.09-.15-.21-.2-.34,.02,.18,.08,.32,.2,.34Z"/><path class="d" d="M52.59,13.68l-.18,.23c.1-.06,.17,.09,.24,.19-.04-.16-.13-.39-.07-.42Z"/><path class="d" d="M55.49,17.62c.01-.09,.07-.03,.08-.12l-.09-.32c-.13,.05-.17,.34,0,.45Z"/><path class="d" d="M53.3,15.99c.15,.59,.24,.36,.37,.21,0,0-.02,.01-.03,0-.14-.84-.24-.53-.35-.22Z"/><path class="d" d="M53.71,16.18s.09-.06,.14-.05c-.06-.34-.07-.06-.14,.05Z"/><path class="d" d="M51.39,14.77c.1,.14-.11-.77-.02-.54-.07-.78-.3,1.02,.02,.54Z"/><polygon class="d" points="53.86 17.92 53.64 17.2 53.68 17.81 53.86 17.92"/><path class="d" d="M52.5,17.64l.29,.15c-.03-.12-.01-.2,.02-.27-.16,0-.36-.1-.31,.11Z"/><path class="d" d="M52.81,17.53c.08,0,.16-.03,.18-.16-.04,.02-.13,.06-.18,.16Z"/><polygon class="d" points="53.56 18.22 53.45 18.08 53.26 18.06 53.56 18.22"/><path class="d" d="M49.76,18.03l-.24,.26c.02,.26,.12,.4,.21,.28,.03-.19,.12-.31,.03-.54Z"/><path class="d" d="M50.98,19.9c-.1-.14-.14-.3-.23-.54l.17,.92,.06-.38Z"/><path class="d" d="M50.2,20.26c.02,.26-.27,.8,.07,.68-.02-.26,.22-.52-.07-.68Z"/><polygon class="d" points="45.79 19.83 45.86 19.81 45.6 18.3 45.79 19.83"/><path class="d" d="M42.65,24.03c.39,.31-.06-.94,.31-.54,.02-.37-.3-.33-.27-.65-.14,.41-.28,.21-.04,1.19Z"/><path class="d" d="M42.68,22.84c.02-.06,.05-.14,.07-.25-.04,.1-.06,.18-.07,.25Z"/><polygon class="d" points=".36 29.08 .02 28.9 .38 29.29 .36 29.08"/><path class="d" d="M.49,30.28l-.49-.84,.28,.84c.03-.06,.07-.18,.21,0Z"/><path class="d" d="M30.54,27.75l-.04-.23c-.1-.24-.15-.24-.25-.26l.3,.49Z"/><polygon class="d" points="27.6 27.79 27.65 27.79 27.33 26.97 27.6 27.79"/><path class="d" d="M25.6,29.51c.1,0,.16-.21,.26-.2-.16,.21-.59-.85-.26,.2Z"/></g><g><path class="d" d="M6.15,40.38c.02-.18-.59-.02-.7-.02,.19,.29,.86-.02,.7,.02Z"/><path class="d" d="M8.39,42.08l-.23,.12c.24-.03,.47-.07,.69-.13-.15,.01-.31,.01-.46,.01Z"/><path class="d" d="M12.31,42.77c-.56-.62-.39-.04-.47,.16l-.3,.76-2.2-.82c-.09-.04-.17-.1-.17-.22l.12-.22c-.23,.18-.47,.34-.72,.5,.16,.09,.37,.14,.57,.18l2.81,.55,.07-.48c.04-.26,.08-.51,.28-.42Z"/><path class="d" d="M14.2,44.25c-.28-.31-.1-.37-.2-.01l.09,.07s.05-.04,.12-.05Z"/><path class="d" d="M14.09,44.31c-.09,.1,.28,.23,0,0h0Z"/><path class="d" d="M14.42,43.76l.09,.4c.18,.17,.34,.13,.4,.3,.01-.27-.17-.44-.49-.7Z"/><path class="d" d="M14.06,43.05l.03,.18c.08,.07,.11,.09-.03-.18Z"/><path class="d" d="M14.15,43.6l-.06-.37c-.13-.12-.34-.39,0,.15-.18-.26-.02,0,.05,.23Z"/><path class="d" d="M13.97,43.53c-.22-.13-.4-.17-.49-.57-.16,.3,.33,.88,.49,.57Z"/><path class="d" d="M11.7,41.84l-.28-.18,.13,.35c-.06-.17,.35,.1,.15-.17Z"/><path class="d" d="M15.58,43.54c-.14-.18-.43-.44-.62-.65l.07,.28c.15,.08,.33,.12,.55,.37Z"/><path class="d" d="M14.96,42.88l-.11-.42c-.16,.07-.06,.23,.11,.42Z"/><polygon class="d" points="13.35 42.09 13.62 42.92 13.39 42.05 13.35 42.09"/><polygon class="d" points="16.15 43.11 16.41 43.58 16.03 42.85 16.15 43.11"/><path class="d" d="M16.44,42.73c.23,.38,.56,.49,.68,.75,.05-.14-.12-.5-.26-.82,.05,.21-.07,.25-.41,.07Z"/><path class="d" d="M16.65,42.19c.03,.11,.11,.29,.2,.48-.02-.11-.08-.26-.2-.48Z"/><path class="d" d="M15.16,42.36c.1,.1,.35,.36,.53,.41l-.47-.45-.06,.04Z"/><path class="d" d="M15.21,42.31h.02l.14-.06-.16,.06Z"/><path class="d" d="M15.15,42.37h.02c-.05-.05-.06-.07-.02,0Z"/><path class="d" d="M14.07,42.25c-.14-.35-.22-.78-.72-1.07,.22,.39,.51,.55,.72,1.07Z"/><path class="d" d="M14.57,41.81h-.24c.11,.13,.29,.3,.37,.47l-.13-.47Z"/><polygon class="d" points="14.51 41.59 14.57 41.81 14.66 41.8 14.51 41.59"/><path class="d" d="M16.01,41.95c-.12-.27-.07-.34-.02-.44-.17-.02-.29,0-.37,.07,.12,.16,.32,.47,.39,.37Z"/><path class="d" d="M15.58,42.08v-.04c-.05-.03-.07-.04,0,.04Z"/><path class="d" d="M16.73,40.85l-.09-.08,.07,.08h.02Z"/><path class="d" d="M15.52,41.5c-.14-.04-.08,.11,.02,.29,0-.09,.03-.16,.08-.21-.05-.07-.09-.12-.09-.08Z"/><path class="d" d="M16.67,41.77c-.12-.07-.23-.12-.34-.17,.17,.12,.44,.3,.34,.17Z"/><path class="d" d="M15.71,42.16v.03c.12,.09,.07,.04,0-.03Z"/><path class="d" d="M15.71,42.16c-.03-.1-.11-.24-.17-.37,0,.07,0,.15,.04,.25,.04,.03,.09,.08,.14,.12Z"/><path class="d" d="M14.17,37.62c.39,.45,.62,.99,.06,.63,.17,.44,1.56,1.82,2.42,2.52-.17-.2-.33-.37-.43-.76-.27-.19-.81-.29-1.06-.79-.03-.39,.28,.02,.58,.18-.57-.48-.51-1-1.29-1.76l.11,.42c-.12-.12-.25-.37-.39-.45Z"/><path class="d" d="M16.34,40.97v.11c.13,.02,.33,.15,.73,.42-.1-.3-.23-.48-.36-.64l-.33,.19-.04-.08Z"/><path class="d" d="M16.08,41.3c-.38-.52-.43-.85-.98-1.3-.14,.18,.24,.51,.33,.8,.17-.36,.16,.34,.6,.44,.02,.13,0,.2-.04,.26,.1,.02,.21,.05,.34,.1l-.03-.02h0c-.07-.06-.1-.09-.06-.07,0,0,0-.01,0-.01l-.15-.19c.17,.03,.12,.11,.15,.19l.06,.07h0l.04-.5c-.12-.01-.18,.06-.26,.23Z"/><path class="d" d="M12.62,39.98s.07,.07,.1,.11c-.03-.08-.06-.12-.1-.11Z"/><path class="d" d="M12.98,40.2c.04,.09,.18,.3,.08,.3-.18-.11-.2-.24-.33-.4,.07,.16,.16,.47,.48,.61l-.04-.08c.25,.08,.91,.59,.94,.67-.4-.42-.7-.72-1.13-1.1Z"/><path class="d" d="M14.41,40.64l.02-.43-.48-.33,.22,.25c-.21,0,.08,.3,.24,.51Z"/><polygon class="d" points="16.98 41.06 17.41 41.59 16.89 40.76 16.98 41.06"/><polygon class="d" points="17.21 40.73 17.6 41.18 17.44 40.85 17.21 40.73"/><path class="d" d="M26.52,20.39l-.06-.18c0,.06,.03,.12,.06,.18Z"/><path class="d" d="M26.05,20.78l.19,.22c-.09-.13-.17-.23-.19-.22Z"/><path class="d" d="M23.68,33.92c.49,.28,1.23,.75,.72,.32l-.51-.41c.03,.14-.07,.14-.21,.09Z"/><path class="d" d="M24.96,26.73l-.17-.11c.14,.17,.27,.34,.4,.49-.07-.12-.15-.24-.23-.38Z"/><path class="d" d="M23.06,24.82l.42,.17c-.13-.07-.27-.13-.42-.17Z"/><path class="d" d="M28.45,17.62l-.39-.54c-.11,.11,.17,.3,.39,.54Z"/><path class="d" d="M19.89,37.77c.26,.1,.4,.11,.47,.08-.36-.16-.84-.48-.47-.08Z"/><path class="d" d="M31.18,25.49c-.05-.12-.12-.23-.22-.33,.04,.12,.11,.22,.22,.33Z"/><path class="d" d="M20.57,37.62c-.06-.03-.1-.04-.15-.06,.02,.13,.03,.25-.07,.29,.27,.12,.47,.16,.22-.23Z"/><path class="d" d="M37.56,9.76s.04,.02,.07,.04c-.06-.07-.07-.06-.07-.04Z"/><path class="d" d="M44.56,12.18c0,.05-.04,.09-.07,.13,.05,.02,.08-.02,.07-.13Z"/><path class="d" d="M18.56,39.85c-.03,.09,.04,.06,0,0h0Z"/><path class="d" d="M16.48,38.28c-.04-.06-.09-.14-.2-.25,.1,.12,.17,.2,.2,.25Z"/><path class="d" d="M18.17,34.26h0c-.11-.07-.09-.06,0,0Z"/><path class="d" d="M18.26,39.72c.08,.04,.15,.06,.21,.06-.05-.02-.11-.05-.21-.06Z"/><path class="d" d="M18.49,39.93s-.07,0-.1,0c.07,.09,.12,.13,.1,0Z"/><path class="d" d="M18.61,39.74s-.08,.05-.14,.05c.04,.02,.07,.04,.09,.06,.01-.02,.03-.06,.06-.11Z"/><path class="d" d="M34.08,15.44l.05,.03c-.13-.25-.12-.19-.05-.03Z"/><path class="d" d="M20.01,27.89l.02,.03h.02l-.04-.03Z"/><path class="d" d="M19.84,27.35c.52,.63,.4,.62,.21,.57l1.46,1.19-1.67-1.75Z"/><path class="d" d="M27.45,19.26l-.55-.28c-.5-.85-.14-.74-.85-1.2,1.4,1.48-.42,.68,.98,2.16l-.39-.22s-.04-.1,0-.11c-.87-.52,.89,1.18,.45,1.2-.19-.03-.46-.19-.57-.42l.17,.53c-.08,.02-.32-.24-.23-.27l-.17,.38-.04-.04c.18,.27,.44,.71,.54,.9-.28-.14-.12-.19-.31-.35l.19,.5c-.43-.32-.66-.8-.5-.85-1.57-1.31,.23,.49-.92-.06l-.03-.32c-.9-.74-.73-.33-1.4-.68,.3,.23,1.61,.98,1.79,1.5-.16-.06-.27-.06-.07,.32-.51-.52-.47-.3-.56-.17l-.67-.69c.07,.31,.43,.65,.66,1.03-.2,.06-.75-.45-1.22-.86-.33,.11,.99,.7,.86,1.09-.44-.08-.29,.33-.1,.95-.36-.11-.4-.43-.64-.58l.43,.65s-.2-.16-.28-.25c.12,.3,.68,.68,.72,1.01,.72,.77-1.4-.77-.72,.25-.24-.14-.4-.43-.68-.67,.32,.8,.2,.62,.77,1.55l-.63-.26c.65,.37,1.11,1.12,1.48,1.74,.3,.19,.55,.36,.68,.44l.16,.58c-.14-.08-.36-.33-.62-.64l.13,.2c-.33-.16-.7-.58-1.04-1.01l.51,.32c-.37-.46-.79-.95-1.21-1.33,.07,.09,.11,.19,.12,.25-.1-.12-.2-.23-.27-.29-.08-.06,.05,.11,.19,.31l-.83-.68,.3,.3-.78-.15c.58,.96,1.57,2.22,1.58,2.86-.5-.62-.93-.88-1.61-1.52,.81,.57-.06-.55,.26-.6-.16,.02-.47-.3-.56-.43l.36,.93c-.55-.52-.48-.32-.79-.44,1.17,.95,.52,.92,.74,1.36-.38-.33-.73-.71-.5-.79-1-.58,1.1,1.42,.23,.94,.03-.05,.1-.02-.07-.2,.25,.39-.22,.38-.5,.03l.03-.05c-.37,.14-.72,.78,.19,1.68-.12-.11-1.11-1.06-1.29-1.25l2.78,3.33c-.78-.77-2.86-2.36-3.13-2.99-.17-.04-.38-.09-.2,.3,.15,.06,1.27,.95,1.3,1.08-1.05-.66-.58-.33-1.53-.83,.23,.09,1.45,1.31,1.32,1.37-.18-.19-1.27-1.12-1.37-1.28l1.03,1.37c-.17-.26-1.05-.97-1.46-1.23,.27,.2-.21,.19-.15,.37l.39,.16c-.44,.11,1.52,1.86,1.2,2.08-.23-.27-1.52-1.52-1.8-1.52,.58,.64,2.83,3.07,3.1,3.76l-.41-.28,.25,.57c-.85-.99-2.59-3.15-3.22-4.04-.38-.16-.46-.36-.56-.18-.39-.26-.45-.55-.42-.62l-.55,.16c.76,.66,.5,.95,1.14,1.5l-.42-1.09c.76,.66,1.92,2.15,1.55,2.28-.36-.2-1.29-1.25-1.54-1.48,.23,.27,.27,.69,.07,.54l-.3-.47c-.41-.12,.78,1.13-.09,.65-.1,.02-1.12-.7-.69-.29,.93,.68,3.58,3.07,4.16,3.72-.08-.03-1.1-.43-1.58-.75-.75-.52-1.45-1.6-2.09-2.05,.2,.19,.4,.47,.46,.57-.23-.1-.6-.6-.63-.39,.73,.72-.31,.21,.58,.65,.09,.33-.28,0-.39,.18,.53,.4,1.52,1.67,1.61,2-.18-.19-.46-.39-.58-.48-.32,.2-.79,.03-1.03,.26-.2-.15-.53-.24-.8-.59,.1,.16,.32,.43,.26,.52-.78-.47,.06-.26-.81-.89,.42,.42,.41,.76,.57,1.13,.69,.61,.36-.13,.2-.49,.91,.87,1.69,1.98,1.86,2.65,.02,.43-.67-.48-.58-.32-.54,.23,1.25,1.88,.28,1.57-.7-.44-1.14-1.13-1.58-1.51-.05-.38,.61,.11,.7-.03l-.41-.13c-.14-.24-.17-.49,.05-.39-.62-.41-.73,.55-1.5,.35,.14,.24,.24,.53,.51,.72v-.17c.56,.38,.47,.82,.8,.92,.19,.45,.54,1.11,.11,1.02l-.67-.63c.19,.19,.5,.28,.35,.03,.2,.37-1.14-.63-.39,.32l.57,.34c.19,.46,.69,1.33,.32,1.27,.7,.59-.03-.11,.82,.55-1.01-.86,.47-.37-.65-1.22,.97,.78,.57,.18,1.46,.78-.22-.21-.46-.36-.22-.39-.06-.07-.12-.17-.16-.22h0s-.03-.06-.01-.02c-.13-.06-.26-.15-.39-.26-.42-.57-.18-.76-.36-1.09,.18,.02,.21,.28,.48,.47l-.27-.49c.48,.47,1.01,.58,1.09,1.05l.19-.15c.37,.17,.61,.13,.5-.15,.18,.02-.33-.73-.02-.29l-.03-.56,.12,.12c.33-.21-.27-1.32,.9-.79-.04-.21-.1-.44,.18-.46l.45,.37c-.04-.26,.76,.05,.36-.42,1.26,.94,.78-.33,1.17-.35l-.55-.52c.16-.11,.13-.39,.06-.77l-.51-.44c-.27-.52,.7-.06,.87-.35,.18,.19,.07,.2-.08,.14,1.39,.74-.28-1.34,.77-.85-.12-.23-.02-.22,.15-.15,0,0,0,.02,.01,.04,.01,0,.02,0,.03-.02,.11,.05,.24,.11,.35,.15-.15-.08-.27-.15-.34-.17,.03-.06,.04-.19-.02-.37l.57,.45s0-.02,0-.03c.26,.11-.2-.29-.64-.61-.06-.12-.13-.25-.24-.39,.92,.72-.12-.45,.88,.3-.41-.45-.01-.67-.93-1.56,.13,.11,.2,.14,.18,.19,.18,.02,.36,.03,.16-.28l.71,.58-.76-1c.51,.27,.79,.44,1.22,1.02-.58-.98-.12-.48-.72-1.42l.43,.41c.05-.09-.43-.75-.02-.47,.99,.58,.89-.75,2.07-.48-1.37-1.1,.76,.33-.22-.61,.33,.25,.55,.35,.75,.67-.09-.5,.79,.12,.09-.81,.33,.26,.4,.46,.6,.61-.05-.08-.2-.31,0-.17,.2,.15,.22,.27,.32,.43,.16-.27-.75-1.16-1.61-2,.52,.27,.51,.16,.02-.46,.32,.23,.68,.44,.65,.68,.12-.04,.87-.08,.18-.75,.2,.14,.16-.06,.1-.16,.21-.14,.28-.09,.38-.32l-.16-.06c-.76-.87-.05-.32-.01-.56l.08,.09c.9,.28-.15-.42,.83-.05l-.53-.49c-1.06-1.12,.91,.37,.67-.22l-.35-.23c-.27-.48,1.76,1.23,2,1.27,.12,.07,.12,.19,.16,.29,.91,.4-.63-.7-.58-1.05,.39,.33,.86,.97,1.06,.91,.35,.23-.77-1.54,.1-1.02-.31-.24-.63-.48-.74-.78,.04-.23,1.42,.7,.68-.31,.09,.06,.17,.13,.24,.2-.11-.33-.02-.71-.42-1.25,1.84,1.68-.17-1.5,1.43,.14l.25-.4,.15,.18c.32-.09,.01-.56-.3-1.02,.16,.07,.27,.25,.35,.34,.63,.04,.6-.06,.06-1.13l.54,.51c-.23-.38,1.26,.41,.96-.5,.06,.06,.15,.17,.2,.27-.26-.95,2.25,.71,.5-1.36l-.24-.7c-.44,.13-.77-.89-1.2-1.1,0-.22,.86,.31,.82,.54l-.12-.08c.93,1.07,.71,.02,1.37,.72,.53-.6,1.63-.56,2.21-1.03l-.82-.74,.23-.13c.23,.14,.66,.56,.49,.65,.5,.38-.13-.59-.29-.77,.57,.07,.78,1.02,.88,.97l.05-.16-.11-.07c-.22-.41-.54-.76-.34-.87,.25,.06,.52,.44,.59,.43,.05,.06,.09,.07,.08-.04l.3-.16-.69-.54c-.19-.41,.25-.18-.53-.79,1.2,.95,1.26-.44,1.68-.19-.29-.6-.13-.73,.1-.84-.17-.09-.86-.77-.63-.83,1.32,1.52,.88,.37,2,1.3-.77-.59,.28-.59-.83-1.42,.24,0,.52,.54,.94,.79-.22-.86,1.03-.27,1.23-.82-.17-.2-.51-.43-.7-.8l1.1,.77c-.01-.17-.97-1.18-.21-.64-.17-.14-.43-.36-.43-.47,1.62,.24,.81-2.22,3.21-1.16-.45-.28-.42-.38-.35-.47-.13-.04-.44-.48-.69-.73l.99,.43c-.61-.78,.3-.37-.31-1.1v.22c-.61-.95-1.86-1.65-2.81-2.73,.71,1.08-1.68-1.01-.69,.56-.25-.16-.27-.38-.52-.6,.35,.51,.37,.68,.04,.61l-.09-.13c-.29,.48-.87,.2-1.59,.32l.52,.49c-.16,.02-.33-.12-.5-.21,.62,.89,.31-.21,1.02,.76-1.11-.94-.69,.62-1.89-.5-.15,.13,.6,.56,.45,.69l-.34-.29,.35,.45c-.16,.02-.59-.34-.85-.61,.05,.01,0-.14,0-.19-.48-.27-.23,.46-.39,.38l.33,.07c-.12,.68-1.01,.72-.77,1.74l.26,.22c.13,.73-.49-.05-.62,.47l-.04-.07c.16,.3,.19,.51,.08,.57-.19-.36-.68-.41-.87-.83,.14,.79,.2,.53,.84,1.64l-.43-.36c.27,.43,.45,.63,.39,.89-.2-.47-.69-.52-.97-1.12-1.18-.56,.34,1.37-1.04,.22,.9,1.27,.88,.34,1.02,.67,.42,.3,.66,.96,.45,.95-.13,.08-1.54-1.26-1.79-.98,.03-.02-.05-.11-.01-.13-.37-.19,.17,.57-.4,.23,.57,.74-.2,.11,.6,.99l.06-.44c.07,.36,.9,1.49,.2,1.22-.15-.19-.29-.48-.37-.66-.31-.19,.03,.29-.29,.1-.8-.88,.13-.47-.35-1.28-.42-.29,.3,.9-.51-.11,1.02,1.29-.41,.1,.26,1.18l-.48-.53c.05,.11,.22,.41,.15,.45l-.54-.76c.39,.71-.76-.23-.61,.22,.29-.3,.66,.56,1.15,.81,.29,1.04-1.5-1.15-1.68-.51-.01-.13,.51,.11,.65,.43-.18-.03-.47-.13-.78-.35-.17,.37,.55,.49,.73,.92-.69-.54,.11,.38,.18,.7l-.5-.52c-.64-.04,.96,1.17,.29,1.03l-.58-.84,.03,.33-.54-.62c.26,.59,.1,.52-.21,.51,.39,.33,.89,.97,.77,1.11-.39-.22-.42-.55-.55-.29-.27-.37-.61-.82-.07-.42-.15-.18-.27-.37-.42-.55-.44-.26-.34,.16-.4,.23,.05,0,.11,0,.19,.05l.41,.99c-.23-.15-.35-.34-.46-.53,0,.11,.19,.39,.15,.51-.39-.44-.81-.88-.88-1.19l.18,.73c-.2-.17-.63-.37-.74-.56-.39-.11,.42,1.17-.1,1.03,.07,.09,.12,.19,.14,.29-.28,.08-.95-.28-.61,.51l-.86-.64c0,.34,1.1,.79,1.08,1.35,.03,.44-.7-.57-.98-.72,.27,.48,.84,1.42,.06,.98-.08-.2,.08-.14,.09-.25Zm-1.83,2.37c-.06-.15-.31-.56,.02-.28,.53,.64,.22,.39-.02,.28Zm-1.97,4.47c-.15-.19-.01-.16,.24-.03,0,.08-.06,.11-.24,.03Zm-4.86,12.69l-.02-.03c.29,.1,.18,.06,.02,.03Zm-.42-.03c.05,.09,.12,.16,.2,.22-.12-.14-.08-.2,0-.21-.15-.12-.26-.19-.21-.01Zm19.67-20.37l-.17-.1c-.06-.23,.05-.07,.17,.1Z"/><path class="d" d="M23.28,25.05c.1,.07,.2,.16,.3,.25-.07-.1-.17-.2-.3-.25Z"/><path class="d" d="M28.52,17.72s0,0,.01,0l-.08-.1,.07,.1Z"/><path class="d" d="M16.79,31.55c.11,.03,.23,.1,.34,.18-.13-.12-.25-.21-.34-.18Z"/><path class="d" d="M18.16,40.69v-.26c-.04,.09-.17,0-.28-.06,.12,.12,.31,.27,.28,.32Z"/><path class="d" d="M14,38.43c.04,.08-.03,.04,0,.13l.23,.25c.06-.09-.06-.34-.24-.37Z"/><path class="d" d="M16.39,39.05c-.43-.43-.37-.21-.38-.04,0,0,0-.02,.02-.01,.55,.65,.46,.35,.36,.06Z"/><path class="d" d="M16,39.04s-.03,.08-.07,.09c.22,.26,.08,.02,.07-.09Z"/><path class="d" d="M18.4,39.3c-.15-.07,.52,.58,.32,.43,.5,.6-.37-.95-.32-.43Z"/><polygon class="d" points="14.94 37.66 15.49 38.18 15.12 37.69 14.94 37.66"/><path class="d" d="M16,37.41l-.28-.02c.09,.09,.12,.16,.14,.22,.1-.06,.3-.05,.14-.2Z"/><path class="d" d="M15.86,37.61c-.05,.03-.08,.08-.02,.2,.02-.03,.05-.1,.02-.2Z"/><polygon class="d" points="14.98 37.32 15.12 37.39 15.26 37.34 14.98 37.32"/><path class="d" d="M17.56,36.06v-.3c-.18-.19-.33-.26-.31-.14,.09,.16,.11,.28,.31,.44Z"/><path class="d" d="M15.65,35.06c.15,.07,.27,.19,.47,.34l-.66-.66,.19,.32Z"/><path class="d" d="M15.91,34.49c-.17-.2-.33-.72-.46-.5,.17,.19,.18,.49,.46,.5Z"/><polygon class="d" points="18.89 33.05 18.86 33.09 19.99 34.12 18.89 33.05"/><path class="d" d="M18.01,28.57c-.43-.06,.66,.67,.18,.53,.23,.28,.4,.12,.59,.37-.18-.36,.03-.28-.77-.9Z"/><path class="d" d="M18.78,29.47c.03,.06,.07,.12,.12,.21-.04-.1-.08-.16-.12-.21Z"/><polygon class="d" points="45.53 12.39 45.86 12.52 45.44 12.21 45.53 12.39"/><path class="d" d="M44.98,11.35l.69,.69-.53-.71c0,.06,.01,.17-.16,.02Z"/><path class="d" d="M23.92,20.53l.16,.18c.2,.16,.24,.15,.32,.13l-.47-.3Z"/><polygon class="d" points="26 19.57 25.96 19.58 26.62 20.16 26 19.57"/><path class="d" d="M26.53,17.53c-.08,.02,0,.22-.09,.25,0-.22,.86,.52,.09-.25Z"/></g><g><path class="d" d="M61.47,42.55c.03,.12,.5-.29,.6-.35-.24-.07-.73,.46-.6,.35Z"/><polygon class="d" points="59.21 42.15 59.41 41.99 58.79 42.27 59.21 42.15"/><path class="d" d="M58.08,41.11c-.59,.9,.52,.23,.48,.7l-.13,.21,.68-.54c-.35-.14-1.04,.02-1.02-.36Z"/><path class="d" d="M58.9,38.79c-.22,.36-.37,.16,.08,.23,.01-.05,.03-.07,.04-.11-.03-.02-.07-.05-.11-.12Z"/><path class="d" d="M59.02,38.91c.15,.09,.13-.34,0,0h0Z"/><path class="d" d="M58.26,38.62l.4-.16c.11-.22-.01-.39,.16-.49-.31,.02-.41,.25-.56,.65Z"/><path class="d" d="M57.63,39.12l.18-.06c.05-.09,.04-.14-.18,.06Z"/><path class="d" d="M58.2,38.94l-.39,.12c-.08,.16-.29,.44,.16-.03-.21,.24,.01,.03,.23-.09Z"/><path class="d" d="M58.21,39.15c-.05,.26-.02,.47-.41,.63,.41,.13,.83-.49,.41-.63Z"/><path class="d" d="M57.31,41.91l-.09,.33,.33-.19c-.16,.09-.03-.41-.24-.15Z"/><path class="d" d="M57.51,37.39c-.14,.18-.29,.54-.45,.78l.28-.13c.03-.17-.01-.38,.17-.66Z"/><path class="d" d="M57.06,38.17l-.41,.19c.14,.15,.28,.02,.41-.19Z"/><polygon class="d" points="56.89 40.05 57.68 39.63 56.82 40.02 56.89 40.05"/><polygon class="d" points="56.8 36.86 57.2 36.5 56.56 37.03 56.8 36.86"/><path class="d" d="M56.27,36.62c.32-.31,.3-.69,.53-.86-.17-.02-.49,.22-.77,.44,.21-.09,.29,.02,.24,.42Z"/><path class="d" d="M55.6,36.51c.11-.05,.26-.18,.43-.3-.11,.05-.24,.13-.43,.3Z"/><path class="d" d="M56.4,38.05c.06-.12,.24-.44,.22-.64l-.29,.58,.07,.06Z"/><path class="d" d="M56.32,38.01v-.02c-.06-.06-.11-.11-.13-.14l.13,.15Z"/><path class="d" d="M56.41,38.06l-.02-.02c-.03,.06-.04,.08,.02,.02Z"/><path class="d" d="M56.75,39.24c-.32,.21-.76,.37-.86,.97,.33-.3,.39-.64,.86-.97Z"/><path class="d" d="M56.05,38.79l.11,.26c.09-.14,.2-.37,.35-.48l-.46,.22Z"/><polygon class="d" points="55.84 38.89 56.05 38.79 56.01 38.69 55.84 38.89"/><path class="d" d="M55.6,37.23c-.24,.18-.34,.14-.47,.11,.04,.18,.12,.31,.23,.38,.13-.16,.37-.43,.24-.49Z"/><path class="d" d="M55.92,37.65l-.04,.02c-.02,.05-.02,.07,.04-.02Z"/><path class="d" d="M54.13,36.69l-.05,.11,.06-.09-.02-.02Z"/><path class="d" d="M55.31,37.83c.01,.16,.15,.06,.31-.07-.1,.01-.19,0-.26-.04-.06,.07-.09,.12-.05,.11Z"/><path class="d" d="M55.15,36.58c-.03,.14-.04,.27-.05,.39,.07-.2,.15-.52,.05-.39Z"/><path class="d" d="M55.95,37.5s.02-.01,.03-.02c.05-.13,.01-.07-.03,.02Z"/><path class="d" d="M55.95,37.5c-.09,.05-.22,.16-.33,.25,.08,0,.16-.03,.26-.08,.01-.04,.04-.11,.07-.17Z"/><path class="d" d="M51.63,39.97c.33-.49,.84-.82,.68-.17,.42-.26,1.35-1.98,1.78-3.01-.14,.22-.27,.42-.65,.6-.11,.32,0,.9-.44,1.26-.41,.1-.09-.3-.04-.65-.3,.69-.89,.71-1.42,1.67l.42-.19c-.09,.15-.31,.32-.33,.49Z"/><path class="d" d="M54.41,37.08h.12c-.03-.16,.03-.4,.16-.86-.29,.16-.43,.33-.54,.49l.34,.31-.07,.06Z"/><path class="d" d="M54.88,37.28c-.41,.5-.75,.62-1.01,1.28,.25,.11,.45-.35,.74-.5-.46-.11,.3-.23,.23-.71,.13-.04,.22-.03,.29-.01-.02-.11-.04-.23-.03-.37v.04h-.02c-.03,.09-.05,.13-.04,.08,0,0-.01,0-.01,0-.05,.07-.1,.14-.15,.19-.03-.18,.07-.15,.15-.19l.06-.08h0l-.56,.05c.03,.13,.14,.17,.35,.22Z"/><path class="d" d="M54.9,41.2c.02-.05,.05-.09,.08-.13-.07,.05-.11,.09-.08,.13Z"/><path class="d" d="M54.98,40.78c.08-.06,.25-.25,.29-.14-.04,.21-.18,.25-.3,.43,.15-.11,.45-.26,.47-.62l-.08,.05c-.02-.28,.26-1.08,.33-1.13-.29,.51-.49,.88-.72,1.41Z"/><path class="d" d="M54.84,39.17l-.48,.06-.15,.57,.18-.29c.1,.22,.29-.14,.46-.35Z"/><polygon class="d" points="54.27 36.39 54.67 35.84 53.98 36.55 54.27 36.39"/><polygon class="d" points="53.83 36.21 54.16 35.72 53.87 35.96 53.83 36.21"/><path class="d" d="M28.07,28.49l-.17,.09c.07-.02,.12-.05,.17-.09Z"/><path class="d" d="M28.68,28.9l.17-.24c-.11,.12-.19,.21-.17,.24Z"/><path class="d" d="M44.36,30.08c.17-.55,.49-1.37,.14-.79l-.31,.57c.15-.04,.18,.06,.17,.22Z"/><path class="d" d="M35.72,29.23l-.07,.19c.15-.17,.29-.33,.42-.47-.11,.09-.23,.18-.35,.28Z"/><path class="d" d="M34.2,31.46l.05-.46c-.04,.15-.06,.3-.05,.46Z"/><path class="d" d="M24.24,27.02l-.44,.51c.16,.09,.26-.24,.44-.51Z"/><path class="d" d="M49.85,33.87c.03-.29,0-.43-.06-.51-.07,.4-.28,.94,.06,.51Z"/><path class="d" d="M31.91,22.74c-.12,.07-.21,.17-.28,.29,.11-.06,.21-.15,.28-.29Z"/><path class="d" d="M49.47,33.15c-.02,.07-.02,.11-.03,.17,.14-.04,.27-.05,.35,.05,.06-.3,.04-.52-.32-.21Z"/><path class="d" d="M11.7,19.07s0-.05,0-.08c-.05,.08-.03,.09,0,.08Z"/><path class="d" d="M12.29,11.51s.07,.02,.09,.03c.03-.04,0-.05-.09-.03Z"/><path class="d" d="M52.47,35c.1,.01,.05-.05,0,0h0Z"/><path class="d" d="M51.45,37.41c-.06,.05-.12,.12-.2,.25,.09-.13,.16-.2,.2-.25Z"/><path class="d" d="M46.41,35.98h0c-.05,.12-.04,.09,0,0Z"/><path class="d" d="M52.42,35.33c.01-.09,.02-.16,0-.23-.01,.05-.02,.12,0,.23Z"/><path class="d" d="M52.57,35.06s.02,.07,.03,.1c.07-.08,.1-.15-.03-.1Z"/><path class="d" d="M52.34,34.96s.07,.07,.09,.14c0-.05,.02-.08,.04-.1-.03,0-.07-.02-.13-.04Z"/><path class="d" d="M19.39,21.59v-.06c-.21,.18-.15,.17,0,.06Z"/><path class="d" d="M38.59,34.42l.03-.02v-.03l-.03,.05Z"/><path class="d" d="M38.04,34.64c.56-.61,.58-.48,.58-.27l.9-1.65-1.48,1.92Z"/><path class="d" d="M26.46,27.74l-.09,.63c-.74,.68-.75,.29-.98,1.11,1.07-1.73,.91,.3,1.98-1.43l-.08,.45s-.1,.06-.12,.02c-.24,.99,.96-1.14,1.15-.69,.04,.21-.03,.51-.24,.67l.53-.27c.06,.08-.15,.37-.2,.29l.49,.11-.03,.05c.22-.24,.61-.58,.79-.72-.05,.31-.16,.15-.27,.38l.48-.28c-.19,.5-.64,.83-.75,.67-.86,1.86,.45-.32,.27,.96l-.34,.09c-.48,1.06-.1,.81-.25,1.56,.15-.35,.5-1.83,1-2.11-.01,.17,.03,.29,.38,.02-.38,.61-.16,.54,.02,.61l-.52,.81c.32-.12,.57-.55,.9-.85,.15,.2-.21,.86-.5,1.42,.23,.33,.42-1.15,.88-1.07,.07,.47,.46,.26,1.07-.04,0,.39-.34,.48-.42,.75l.57-.55s-.11,.23-.18,.33c.29-.17,.52-.81,.87-.89,.62-.86-.38,1.58,.52,.73-.08,.27-.34,.48-.52,.81,.78-.44,.61-.29,1.47-1l-.08,.69c.2-.73,.88-1.3,1.46-1.77,.12-.34,.22-.63,.26-.78l.61-.23c-.04,.16-.25,.42-.52,.72l.18-.16c-.07,.38-.42,.81-.79,1.21,.06-.19,.13-.38,.19-.58-.39,.44-.81,.94-1.09,1.43,.08-.08,.17-.14,.25-.15-.11,.12-.19,.23-.23,.32-.04,.09,.1-.07,.29-.24l-.49,.95,.24-.35,.08,.84c.88-.72,1.99-1.89,2.72-1.96-.54,.59-.71,1.07-1.2,1.85,.39-.92-.6,.12-.75-.21,.08,.17-.19,.53-.3,.64l.93-.47c-.41,.64-.21,.54-.25,.88,.71-1.33,.87-.64,1.3-.91-.26,.44-.57,.84-.74,.6-.35,1.11,1.26-1.29,.99-.33-.06-.02-.05-.11-.21,.1,.37-.3,.49,.2,.19,.53l-.06-.03c.27,.38,1.11,.71,1.84-.34-.08,.14-.87,1.27-1.03,1.48l2.94-3.22c-.64,.89-1.81,3.24-2.45,3.57,0,.19,.01,.41,.4,.2,.02-.17,.7-1.43,.83-1.47-.43,1.17-.19,.65-.48,1.7,.04-.25,1.05-1.64,1.17-1.51-.16,.2-.9,1.44-1.04,1.56l1.25-1.2c-.25,.2-.78,1.2-.96,1.65,.14-.3,.28,.22,.47,.14l.06-.42c.26,.47,1.66-1.75,2.01-1.43-.24,.26-1.27,1.73-1.19,2.04,.56-.67,2.64-3.24,3.35-3.58l-.2,.46,.57-.3c-.87,.98-2.81,2.99-3.64,3.72-.06,.42-.27,.52-.03,.62-.17,.44-.5,.51-.58,.5l.35,.58c.52-.86,.94-.6,1.37-1.32l-1.12,.52c.52-.86,1.87-2.2,2.14-1.82-.13,.4-1.04,1.46-1.22,1.75,.24-.26,.7-.33,.6-.11l-.45,.35c0,.45,1.05-.91,.77,.05,.05,.11-.46,1.25-.12,.76,.49-1.05,2.41-4.05,2.97-4.72-.01,.08-.16,1.21-.37,1.75-.36,.84-1.38,1.66-1.69,2.39,.16-.23,.42-.46,.51-.53-.04,.25-.5,.69-.25,.71,.59-.83,.34,.32,.56-.66,.35-.12,.08,.3,.32,.41,.29-.6,1.43-1.75,1.78-1.87-.15,.21-.3,.52-.36,.66,.33,.33,.28,.85,.63,1.1-.1,.23-.1,.59-.42,.91,.15-.12,.39-.37,.51-.32-.28,.87-.32-.05-.75,.94,.34-.48,.74-.49,1.1-.7,.47-.79-.26-.39-.62-.18,.7-1.05,1.71-1.97,2.42-2.2,.47-.06-.33,.76-.18,.65,.43,.56,1.72-1.5,1.67-.44-.28,.78-.9,1.33-1.19,1.84-.41,.09-.08-.67-.26-.76l-.02,.45c-.23,.17-.5,.23-.46-.02-.26,.7,.85,.75,.91,1.59,.23-.18,.51-.32,.63-.64h-.2c.23-.62,.75-.58,.74-.95,.43-.27,1.01-.74,1.07-.27l-.45,.81c.14-.23,.13-.57-.09-.38,.33-.28-.28,1.3,.49,.36l.16-.65c.43-.27,1.18-.95,1.25-.56,.38-.83-.11,.05,.3-.95-.57,1.2-.55-.41-1.07,.9,.5-1.14,0-.62,.36-1.64-.16,.26-.24,.53-.34,.29-.06,.07-.14,.15-.18,.2v0s-.05,.04-.01,.01c-.03,.14-.08,.3-.16,.45-.47,.53-.75,.32-1.05,.55-.03-.19,.24-.26,.36-.57l-.44,.35c.36-.57,.35-1.11,.81-1.28l-.2-.17c.09-.39-.01-.65-.3-.5-.03-.2-.71,.42-.31,.05l-.61,.09,.09-.14c-.33-.33-1.39,.41-1.15-.89-.22,.06-.47,.14-.57-.16l.28-.51c-.28,.06-.17-.81-.57-.35,.69-1.43-.61-.81-.74-1.23l-.43,.63c-.17-.17-.48-.11-.89-.01l-.35,.57c-.51,.33-.28-.75-.65-.91,.16-.2,.21-.09,.19,.08,.42-1.53-1.44,.39-1.21-.78-.22,.15-.24,.04-.22-.15,0,0,.02,0,.04-.02,0-.01-.02-.02-.03-.03,.02-.12,.05-.26,.07-.38-.05,.16-.09,.3-.09,.37-.08-.03-.23-.03-.42,.05l.34-.64s-.02,0-.04,0c.04-.29-.27,.24-.5,.73-.12,.07-.24,.16-.37,.28,.54-1.04-.48,.16,.07-.96-.4,.47-.77,.05-1.5,1.1,.09-.14,.1-.23,.16-.2-.04-.2-.08-.39-.37-.15l.44-.81-.91,.89c.15-.57,.26-.88,.78-1.39-.95,.69-.52,.16-1.4,.87l.33-.49c-.12-.05-.73,.51-.53,.05,.35-1.11-1.15-.91-1.24-2.2-.8,1.56,.12-.85-.63,.28,.18-.37,.22-.63,.51-.87-.54,.14-.14-.86-.98-.03,.18-.38,.39-.47,.49-.7-.07,.06-.29,.24-.2,0,.1-.23,.23-.26,.38-.39-.37-.15-1.08,.91-1.74,1.91,.13-.59,0-.57-.53,.02,.15-.37,.27-.78,.55-.77-.09-.12-.41-.93-.93-.13,.09-.23-.13-.16-.21-.09-.23-.21-.21-.3-.51-.38v.18c-.73,.92-.36,.09-.64,.07l.07-.1c-.03-1-.42,.21-.38-.89l-.36,.63c-.86,1.28,.07-1.03-.52-.7l-.12,.41c-.43,.36,.7-2.04,.66-2.3,.04-.13,.17-.15,.26-.21,.1-1.02-.55,.77-.96,.77,.22-.46,.76-1.05,.61-1.25,.12-.41-1.46,1.04-1.22,.04-.15,.37-.29,.74-.58,.91-.28-.01,.2-1.61-.64-.68,.03-.11,.07-.2,.12-.29-.33,.17-.8,.13-1.25,.65,1.13-2.22-1.63,.43-.45-1.53l-.56-.19,.13-.19c-.24-.32-.64,.09-1.03,.49,0-.18,.17-.33,.23-.43-.23-.67-.33-.62-1.3,.14l.33-.67c-.32,.31-.09-1.4-.98-.92,.05-.07,.13-.19,.22-.26-.95,.46-.21-2.5-1.74-.26l-.67,.38c.33,.43-.65,.98-.69,1.47-.25,.04-.04-.96,.24-.96l-.03,.14c.78-1.18-.3-.75,.19-1.57-.9-.44-1.35-1.59-2.12-2.11l-.46,1-.25-.22c.05-.26,.33-.8,.51-.65,.21-.6-.6,.26-.72,.46-.17-.61,.79-1.02,.69-1.11l-.2-.02-.03,.13c-.36,.31-.61,.72-.82,.53-.04-.28,.26-.63,.23-.7,.04-.07,.04-.11-.08-.08l-.3-.29-.3,.83c-.37,.28-.31-.23-.64,.71,.53-1.44-1.03-1.24-.93-1.73-.54,.41-.75,.28-.97,.05-.03,.19-.49,1.05-.66,.81,1.12-1.67,.03-1,.6-2.34-.34,.92-.76-.19-1.22,1.13-.1-.25,.38-.65,.49-1.14-.8,.42-.83-1.1-1.56-1.21-.14,.23-.23,.63-.55,.91l.33-1.32c-.17,.05-.85,1.27-.6,.36-.08,.21-.2,.53-.31,.56-.24-.87-.86-.92-1.37-1.12-.49-.17-.94-.61-.18-1.58-.35,.38-.41,.39-.46,.35-.07,.11-.5,.42-.77,.65,.18-.29,.39-.59,.6-.85-.86,.5-.21-.23-1.04,.18l.19,.03c-.51,.2-1.05,.54-1.57,.96-.52,.42-1.04,.93-1.66,1.3,.62-.19,.34,.22,.17,.68-.18,.44-.17,.95,.68,.53-.12,.29-.41,.24-.6,.52,.56-.32,.76-.29,.81,.13l-.13,.09c.77,.48,.69,1.15,1.26,2.01l.32-.64c.11,.18,.03,.4,0,.59,.75-.8-.42-.33,.38-1.23-.55,1.38,1.07,.67,.39,2.17,.23,.14,.34-.76,.56-.62l-.16,.42,.34-.47c.1,.17-.1,.69-.27,1.02-.01-.06-.15,.04-.2,.04-.06,.56,.61,.13,.58,.31l-.07-.35c.8-.04,1.03,.78,2.13,.41l.13-.31c.76-.26,.16,.53,.79,.58l-.06,.06c.27-.23,.48-.29,.6-.18-.32,.26-.16,.79-.55,1.07,.82-.28,.51-.31,1.46-1.19l-.21,.52c.36-.37,.51-.59,.82-.57-.44,.29-.28,.82-.82,1.23-.11,1.35,1.38-.61,.71,1.06,1.01-1.19,0-.99,.29-1.2,.15-.5,.77-.88,.85-.65,.14,.12-.72,1.86-.3,2.07-.04-.03-.1,.07-.14,.04-.05,.43,.57-.29,.43,.37,.57-.74,.22,.19,.84-.82l-.51,.02c.37-.15,1.26-1.23,1.27-.45-.15,.19-.41,.4-.57,.52-.07,.36,.31-.09,.24,.28-.63,1.01-.58-.04-1.26,.61-.14,.5,.86-.49,.1,.55,.98-1.32,.3,.41,1.2-.51l-.37,.61c.1-.07,.36-.31,.43-.25l-.61,.72c.62-.55,.09,.84,.51,.6-.46-.24,.33-.8,.4-1.36,1.03-.51-.61,1.8,.18,1.86-.13,.04-.1-.55,.19-.76,.04,.19,.06,.52-.05,.89,.48,.11,.3-.67,.69-.95-.29,.83,.38-.19,.69-.33l-.36,.63c.23,.67,.87-1.24,1.01-.51l-.68,.77,.35-.1-.46,.69c.54-.39,.54-.21,.65,.12,.2-.47,.69-1.12,.9-1.02-.07,.45-.42,.55-.08,.63-.29,.35-.65,.81-.44,.16-.13,.2-.29,.36-.42,.55-.1,.52,.32,.32,.43,.37-.03-.05-.06-.11-.03-.21l.92-.63c-.07,.27-.23,.43-.39,.59,.12-.02,.35-.27,.51-.25-.33,.49-.62,1.02-.94,1.16l.73-.33c-.1,.24-.15,.73-.31,.88,.05,.43,1.11-.67,1.18-.11,.07-.09,.16-.17,.26-.2,.21,.28,.08,1.04,.82,.53l-.35,1.02c.37-.06,.43-1.29,1.05-1.39,.47-.11-.35,.84-.39,1.16,.42-.37,1.23-1.15,1.06-.25-.19,.12-.18-.06-.31-.04Zm3.32,1.47c-.14,.09-.5,.42-.32,.03,.51-.66,.35-.29,.32-.03Zm5.67,1.49c-.17,.18-.18,.03-.11-.25,.09-.01,.14,.05,.11,.25Zm15.88,4.25l-.03,.02c.03-.32,.01-.2,.03-.02Zm.07,.43c.08-.07,.14-.15,.18-.24-.12,.14-.18,.11-.22,.03-.09,.17-.13,.3,.04,.22ZM20.94,16.85l-.04,.2c-.23,.11-.1-.03,.04-.2Z"/><path class="d" d="M34.38,31.2c.05-.11,.11-.23,.18-.35-.09,.09-.16,.21-.18,.35Z"/><path class="d" d="M24.32,26.92s0,0,0-.01l-.08,.11,.08-.09Z"/><path class="d" d="M43.75,37.64c0-.12,.04-.26,.1-.38-.1,.15-.16,.29-.1,.38Z"/><path class="d" d="M53.45,35.25l-.27,.05c.1,.02,.05,.18,.03,.3,.09-.15,.19-.37,.25-.35Z"/><path class="d" d="M52.6,40.01c.07-.06,.06,.03,.13-.03l.17-.29c-.12-.05-.35,.13-.31,.32Z"/><path class="d" d="M52.33,37.38c-.31,.52-.09,.42,.09,.4,0,0-.02,0-.02-.01,.49-.7,.21-.54-.07-.39Z"/><path class="d" d="M52.46,37.79c.05,0,.1,.01,.12,.06,.2-.28,0-.09-.12-.06Z"/><path class="d" d="M51.94,35.26c-.03,.17,.46-.63,.36-.4,.49-.61-.88,.54-.36,.4Z"/><polygon class="d" points="51.35 39.14 51.71 38.48 51.32 38.95 51.35 39.14"/><path class="d" d="M50.67,38.05l.08,.3c.07-.11,.13-.15,.19-.18-.11-.1-.16-.31-.28-.12Z"/><path class="d" d="M50.94,38.17c.06,.05,.13,.08,.23,0-.04-.02-.13-.04-.23,0Z"/><polygon class="d" points="50.96 39.16 50.98 38.99 50.87 38.85 50.96 39.16"/><path class="d" d="M48.65,36.51l-.34,.03c-.17,.2-.2,.37-.06,.34,.15-.11,.29-.14,.39-.37Z"/><path class="d" d="M48.14,38.66c.03-.17,.12-.31,.23-.54l-.53,.77,.3-.23Z"/><path class="d" d="M47.4,38.41c-.17,.2-.72,.41-.42,.54,.16-.2,.5-.23,.42-.54Z"/><polygon class="d" points="44.82 35.29 44.88 35.31 45.71 34.03 44.82 35.29"/><path class="d" d="M39.97,36.51c.06,.47,.57-.76,.55-.22,.25-.27,.01-.43,.24-.66-.36,.22-.32-.01-.79,.88Z"/><path class="d" d="M40.77,35.63c.06-.03,.12-.08,.2-.15-.1,.05-.16,.1-.2,.15Z"/><path class="d" d="M12.8,10.78c.08-.07,.16-.15,.25-.22l-.43,.29,.18-.07Z"/><path class="d" d="M11.74,11.16l.86-.45-.81,.33s.14,0-.05,.12Z"/><path class="d" d="M29.19,31.16l.14-.19c.11-.23,.08-.27,.02-.35l-.16,.55Z"/><polygon class="d" points="27.37 29.17 27.4 29.21 27.78 28.42 27.37 29.17"/><path class="d" d="M24.92,29.02c.06,.08,.25-.04,.31,.04-.25,.04,.23-1-.31-.04Z"/></g></g></g></g></svg>