<?xml version="1.0" encoding="UTF-8"?><svg xmlns="http://www.w3.org/2000/svg" viewBox="0 0 42.73 39.16"><g id="a"/><g id="b"><g id="c"><g><path d="M4.47,3.32c-.19-.04-.12,.38-.15,.46,.32-.1,.14-.57,.15-.46Z"/><polygon points="7.62 2.31 7.57 2.49 8.02 2.05 7.62 2.31"/><path d="M10.55,2.22c-.3-.7-1.06,.16-1.59-.08l-.09-.16-.22,.58c.63-.11,1.44-.52,1.89-.34Z"/><path d="M12.17,3.7c-.11-.27,.33-.25-.36-.07,.04,.03,.05,.05,.07,.07,.06,0,.15,0,.3,0Z"/><path d="M11.87,3.7c-.3,.03,.21,.23,0,0h0Z"/><path d="M13.28,3.48l-.39,.26c.09,.16,.45,.18,.32,.31,.4-.15,.31-.31,.07-.57Z"/><path d="M13.64,2.95l-.2,.11c.04,.07,.09,.09,.2-.11Z"/><path d="M13,3.3l.43-.24c-.06-.11-.08-.34-.2,.09,.03-.21-.05,0-.23,.15Z"/><path d="M12.75,3.2c-.23-.15-.53-.23-.13-.5-.77,.13-.63,.63,.13,.5Z"/><path d="M10.67,1.48l-.31-.2-.25,.25c.13-.12,.59,.17,.56-.05Z"/><path d="M15.77,3.77c.02-.15-.14-.4-.18-.59l-.29,.18c.15,.1,.44,.19,.47,.41Z"/><path d="M15.59,3.18l.43-.27c-.39-.02-.46,.11-.43,.27Z"/><polygon points="13.68 2.15 12.97 2.73 13.82 2.14 13.68 2.15"/><polygon points="17.43 3.76 17.19 4.11 17.62 3.57 17.43 3.76"/><path d="M18.52,3.69c-.18,.29,.25,.49,.06,.67,.29-.05,.54-.3,.77-.52-.24,.12-.49,.08-.83-.15Z"/><path d="M19.74,3.52c-.12,.07-.25,.19-.39,.32,.13-.07,.26-.16,.39-.32Z"/><path d="M16.77,2.96c.04,.09,.1,.33,.35,.43l-.18-.42c-.05,0-.11,0-.17,0Z"/><path d="M16.94,2.95h0l.37,.03s-.16-.01-.38-.03Z"/><path d="M16.73,2.96h.04s-.03-.05-.04,0Z"/><path d="M14.85,2.5c.25-.25,.79-.52,.25-.87-.18,.3,.13,.5-.25,.87Z"/><path d="M16.5,2.43l-.47-.09c.01,.11,.1,.28-.02,.4l.49-.31Z"/><polygon points="16.73 2.29 16.5 2.43 16.68 2.46 16.73 2.29"/><path d="M18.96,3.11c.2-.18,.42-.2,.66-.22-.26-.09-.53-.14-.79-.14-.04,.13-.15,.37,.13,.36Z"/><path d="M17.98,2.99l.04-.02s-.05-.05-.04,.02Z"/><path d="M22.02,2.96l-.03-.08v.07h.03Z"/><path d="M18.78,2.67c-.2-.08-.32,.02-.43,.16,.15-.04,.31-.07,.48-.08,.02-.06,.02-.1-.04-.08Z"/><path d="M20.41,3.33c-.1-.09-.21-.17-.33-.24,.1,.14,.29,.36,.33,.24Z"/><path d="M18.09,3.08s-.02,.01-.03,.02c.07,.09,.06,.05,.03-.02Z"/><path d="M18.09,3.08c.1-.06,.18-.17,.26-.26-.12,.03-.23,.08-.33,.14,.02,.03,.05,.08,.07,.12Z"/><path d="M22.93,.27c-.06,.39-.62,.73-1.06,.28-.47,.27-.22,1.59,.12,2.34,.02-.17,.03-.33,.5-.54-.14-.22-.99-.56-.58-.9,.62-.17,.49,.17,.78,.39-.22-.51,.82-.67,.75-1.4l-.56,.22c0-.11,.21-.28,.06-.39Z"/><path d="M21.13,2.81l-.19,.04c.21,.08,.36,.24,.62,.56,.31-.18,.39-.32,.41-.45-.3-.04-.61-.07-.91-.1l.07-.06Z"/><path d="M20.11,2.82c.15-.43,.61-.59,.35-1.07-.56,.01-.4,.35-.73,.53,.89-.1-.26,.24,.38,.49-.18,.07-.33,.09-.48,.11,.16,.05,.31,.12,.45,.2l-.02-.03h0c-.04-.06-.05-.09,0-.06,0,0,.01,0,.02,0,0-.06,.02-.11,.04-.16,.25,.1,.04,.11-.04,.16,0,.02-.01,.04-.01,.06h0l.89-.2c-.18-.07-.42-.06-.84-.03Z"/><path d="M15.57,.69s.03,.07,.03,.1c.06-.05,.08-.09-.03-.1Z"/><path d="M15.95,.94c-.06,.06-.12,.24-.33,.2-.19-.12,0-.21-.02-.35-.13,.12-.45,.32-.03,.52l.06-.06c.37,.14,.85,.67,.79,.73-.11-.39-.21-.66-.47-1.04Z"/><path d="M18.08,1.75l.75-.21-.38-.37,.02,.22c-.43-.09-.34,.19-.39,.36Z"/><polygon points="22.1 3.18 21.98 3.63 22.43 3.01 22.1 3.18"/><polygon points="23.04 3.19 22.98 3.58 23.25 3.36 23.04 3.19"/><path d="M23.48,35.46l-.21,.14c.1-.05,.17-.09,.21-.14Z"/><path d="M24.98,35.36l.03-.2c-.06,.11-.09,.19-.03,.2Z"/><path d="M36.8,11.11c-.44,.21-1.08,.39-.65,.47l.44,.02c-.02-.23,.08-.38,.2-.49Z"/><path d="M35.94,28.07l.15-.07c-.13-.1-.26-.2-.37-.29l.22,.36Z"/><path d="M37.65,28.67l-.39,.43c.12-.09,.25-.22,.39-.43Z"/><path d="M14.95,37.06l-.17,.48c.38-.07,.17-.26,.17-.48Z"/><path d="M32.89,4.26c.23,.21,.42,.32,.59,.37-.25-.3-.44-.72-.59-.37Z"/><path d="M23.62,30.82c-.13,.09-.18,.19-.16,.28,.13-.09,.2-.18,.16-.28Z"/><path d="M34.19,4.78c-.03-.05-.07-.08-.11-.13-.19,.03-.39,.05-.61-.02,.19,.22,.41,.39,.71,.15Z"/><path d="M.18,14.8s.03-.05,.06-.07c-.06-.01-.06,.02-.06,.07Z"/><path d="M5.5,6.12c0,.09-.02,.22-.04,.34,.04-.06,.06-.16,.04-.34Z"/><path d="M26.77,3.79c-.2,0-.04,.04,0,0h0Z"/><path d="M26.04,1.95s.09-.1,.11-.2c-.03,.1-.07,.16-.11,.2Z"/><path d="M36.81,2.73h.02c-.03-.09-.02-.08-.02,0Z"/><path d="M26.5,3.55c.07,.06,.14,.12,.23,.16-.04-.04-.11-.09-.23-.16Z"/><path d="M26.51,3.76l-.16-.07c-.03,.07-.02,.12,.16,.07Z"/><path d="M27.05,3.81c-.13-.01-.22-.05-.32-.09,.03,.03,.05,.06,.03,.07l.28,.02Z"/><path d="M1.47,32.27s.02-.03,.04-.05c-.19-.21-.16-.11-.04,.05Z"/><path d="M39.79,17.43s-.01-.02-.02-.03l-.02,.03h.04Z"/><path d="M39.95,18.23c-.46-.42-.36-.59-.2-.81h-1.28l1.48,.81Z"/><path d="M19.68,36.02l.56,.32c-.55,.71-1.02,.55-.47,1.03-.1-1.36,1.99-.38,1.91-1.73l.38,.25c-.1,0-.11,.08-.21,.08,.74,.57,.39-1.03,1.28-.93,.31,.07,.55,.24,.36,.43l.63-.41c.18,.01,.15,.25-.02,.24,.29-.06,.58-.12,.91-.18v.04c.12-.22,.43-.57,.58-.71,.27,.18-.12,.15-.05,.32l.55-.35c.25,.34-.22,.7-.6,.67,.58,1.33,.44-.36,1.65,.38l-.55,.2c.39,.75,.81,.46,1.49,.9-.19-.24-1.35-1.14-.72-1.51,.18,.1,.43,.13,.77-.17,.03,.48,.37,.35,.81,.28l.02,.64c.47-.23,.4-.54,.65-.86,.55,0,.72,.48,.91,.87,.93-.05-.73-.69,.31-.98,.77,.12,1.29-.25,2.08-.89,.61,.03,.03,.41,.28,.52,.11-.22,.22-.45,.32-.67,.12-.03,.14,.13,.15,.21,.33-.36-.2-.58,.33-1.04-.08-.37,.33-.24,.84-.32,.25-.03,.56-.09,.79-.25,.22-.16,.39-.4,.4-.7,.3-.06,.22,.34,.46,.45,.25-.72,.29-1.03,.33-1.3,0-.29,0-.58-.19-1.13,.21-.19,.42-.4,.61-.61-.6,.41-.96-.43-1.33-1.02-.26,.12-.49,.22-.6,.28-.05-.29-.12-.57-.19-.86,.12-.08,.33,.03,.56,.21-.04-.06-.08-.13-.13-.18,.28-.26,.62-.06,.94,.22-.14,.09-.29,.17-.44,.24,.35,.28,.72,.58,1.1,.61-.06-.08-.1-.2-.11-.33,.09,.08,.18,.13,.25,.12,.07-.02-.05-.14-.18-.32l.74-.09-.27-.1,.6-1.11c-.61-.91-1.63-1.66-1.72-2.95,.47,.39,.83,.2,1.44,.33-.7,.2,.15,.92-.05,1.53,.11-.32,.39-.22,.48-.12l-.46-1.16c.5,.1,.41-.17,.66-.36-.51-.01-.65-.18-.66-.51-.02-.32,.07-.7-.03-.96,.34,.04,.65,.22,.45,.77,.87-.47-.98-1.05-.23-1.53-.02,.14-.09,.2,.07,.29-.22-.38,.17-1.12,.42-.88l-.02,.14c.31-.89,.59-2.8-.21-3.1,.11,.01,.98,.32,1.14,.41l-2.47-2.18c.69,.28,2.51,.06,2.76,.9,.15-.18,.33-.49,.16-.92-.13,.09-1.11,.13-1.13-.08,.91-.34,.49-.25,1.33-.72-.2,.16-1.26-.35-1.12-.69,.15,.1,1.1,.28,1.18,.43l-.84-1.15c.13,.27,.9,.3,1.27,.2-.24,.03,.23-.74,.2-1l-.36,.3c.44-.94-1.24-1.4-.93-2.36,.2,.17,1.31,.66,1.58,.18-.49-.38-2.43-1.69-2.73-2.56l.35-.1-.28-.67c.83,.44,2.41,1.99,2.93,2.84,.34-.34,.4-.02,.51-.62,.35-.15,.39,.43,.36,.61,.18-.45,.33-.93,.49-1.41-.67-.05-.5-1.26-1.07-1.26,.16,.55,.32,1.13,.44,1.69-.67-.08-1.69-1.21-1.5-2.15,.29-.24,1.18,.29,1.4,.3-.21-.17-.37-1.05-.22-1.16l.36,.49c.14-.31-.09-.6-.27-.86-.17-.28-.34-.52-.08-1.04,.01-.29,.59-1.21,.19-1.14-.55,.84-2.88,1.37-3.46,1.41,.01-.03,.17-.27,.26-.58,.13-.32,.17-.7,.25-.91,.14-.32,.48-.46,.86-.52,.38-.08,.79-.09,.87-.4-.16,.08-.51,0-.63-.03-.08-.33,.55-.28,0-.72-.55,.38-1.03-.9-.64,.2-.29-.14-.42-.23-.53-.38-.11-.14-.25-.34-.55-.47-.05,.47-1.17,1.07-1.64,1.12,.09-.15,.07-.4,.06-.52-.91-.38-1.36-.82-2.27-1.02-.05-.18-.46-.46-.21-.71-.16,.09-.32,.3-.61,.26-.45-.68,.66,.03,.36-.74-.11,.38-.85,.4-1.29,.58,.03,.63,.91,.26,1.37,.11-.17,.83-1.01,1.56-1.99,1.81-.77,.1-.24-.59-.39-.49-1.39-.33-1.37,1.31-2.48,.56-.41-.59,.1-1.06,.04-1.46,.64-.13,.91,.45,1.33,.48l-.48-.31c.22-.15,.65-.24,.85-.06-.33-.54-2.41-.37-3.42-.97-.22,.15-.59,.29-.46,.52l.36-.02c.25,.47-.74,.5-.34,.76-.51,.24-1.07,.63-1.67,.31l-.05-.62c0,.18,.38,.41,.58,.25-.29,.23-.89-.94-1.28-.18l.4,.47c-.49,.25-1.11,.84-1.65,.61,.2,.62,.14-.06,.47,.68-.26-.92,1.41,.18,.96-.8,.31,.86,.67,.42,1.09,1.19,.01-.2-.13-.41,.31-.25,.03-.06,.09-.12,.13-.16l.03,.02-.02-.03s.03-.03,0,0c-.1-.1-.17-.22-.19-.34,.29-.43,1.04-.31,1.37-.5,.29,.14-.16,.21-.02,.45,.16-.1,.31-.2,.46-.3-.02,.45,.71,.84-.04,1.01l.63,.1c.34,.29,.82,.45,1.15,.3,.27,.13,.78-.41,.49-.09l.97-.16v.11c.88,.18,1.99-.46,2.8,.55,.31-.05,.63-.12,1.05,.13l-.02,.4c.18-.02,.38,.16,.57,.28,.17,.13,.32,.23,.46,.06,.02,1.15,.55,.51,.53,.81l.44-.27c.04,.15,.23,.2,.46,.41l.44-.09c.19,.09,.16,.39,.03,.68-.1,.29-.31,.63-.31,.97-.16-.07-.11-.23,0-.35-.52,.35-.41,.81-.28,1.3,.14,.49,.27,1.02-.18,1.35,.11,.25,.01,.39-.13,.51,0-.02,0-.04,0-.06-.01,.02-.02,.05-.03,.08-.1,.07-.21,.15-.31,.23,.13-.06,.24-.12,.29-.18-.03,.16-.04,.42,0,.7l-.49-.02s0,.04,0,.06c-.24,.19,.17,.25,.55,.22,.04,.14,.1,.28,.19,.4-.81-.01,.06,.72-.81,.77,.34,.28-.08,1.38,.7,1.74-.11-.02-.18,.04-.15-.1-.17,.27-.35,.54-.18,.88h-.63c.21,.31,.44,.58,.66,.83-.45,.31-.69,.42-1.08-.04,.52,1.04,.11,.79,.66,1.7l-.38-.11c-.04,.28,.38,.82,.03,.93-.43,.23-.62,.99-.82,1.87-.1,.44-.21,.91-.35,1.36-.15,.47-.32,.83-.59,1.32,1.2-.15-.65,.76,.24,.96-.29,.06-.47,.28-.67-.02,.16,.91-.58,1.23,.12,1.87-.29,.06-.38-.21-.55-.15,.05,.07,.21,.27,.04,.34-.17,.06-.22-.14-.32-.28-.05,.78,.78,.96,1.56,1.14-.43,.34-.41,.52,.04,.91-.28,.08-.59,.22-.59-.24-.05,.1-.18,.41-.31,.71-.11,.3-.16,.47,.03,.65,.03,.03,.06,.05,.09,.07-.18-.03-.19,.19-.16,.28-.31,.32-.36,.3-.68,.6h.16c.3,.76-.26,.4-.59,.67l-.02-.08c-1.14-.14-.33,.44-1.51,.12l.17,.45c.12,1.03-1.08-.38-1.64,.08l.27,.24c-.33,.4-1.16-1.27-1.5-1.38-.08-.08,.11-.15,.21-.23-.96-.53-.06,.64-.75,.83-.15-.33,.11-.87-.36-.9-.23-.25-1.33,1.17-2.06,.54,.16,.25,.33,.51-.02,.72-.49,.11-1.57-.91-2.01-.03-.07-.06-.11-.13-.12-.19-.38,.25-1.26,.49-1.46,.96-.56-1.61-2.4,1.08-2.58-.43l-1.23,.24v-.16c-.8,0-1.03,.41-1.26,.81-.2-.08-.08-.24-.08-.32-1.21-.13-1.33-.05-2.17,.87l-.19-.47c-.21,.33-1.84-.46-2.87,.37,0-.06,0-.16,.08-.25-.58,.42-1.43,.28-2.15,.28-.33-.02-.78,.06-1,.22-.25,.16-.36,.44-.33,.9l-.64,.69c1.05-.21,.1,.79,.62,.93-.41,.26-1.12-.21-.72-.43l.09,.07c-.13-.93-1.04-.04-1.02-.73-.57,.16-1.21-.03-1.45-.55-.28-.58-.15-1.18-.17-1.64-.24,.06-.48,.13-.72,.21v-.55c.18-.19,.57-.26,.57,.22,.4-.25-.38-.81-.54-.82,.24-1.08,.87,.37,.87,.05l-.08-.44-.08,.11c-.16-.17-.32-.28-.44-.41-.12-.11-.2-.26-.21-.56,.11-.39,.43-.23,.45-.38,.05,0,.07-.05,0-.23v-.87l-.55,.39c-.31-.36-.03-.82-.65-.37,.96-.66,.17-3.26,.49-3.64-.44-.52-.44-1.06-.4-1.72-.12,.17-.77,.28-.69-.3,1.34,.19,.57-1.05,1.54-1.5-.65,.4-.14-1.61-1.05-.98,.12-.47,.5-.02,.83-.37-.49-1.14,.42-2.45,.35-3.83-.17-.04-.46,.18-.7-.14l.94-.66c-.06-.28-.99-.34-.33-.78-.15,.06-.39,.14-.42-.05,.57-1.37,.48-2.83,.52-4.22,.03-1.39,.19-2.82,1.21-3.94-.39,.28-.39,.05-.36-.22-.11,.16-.43-.08-.67-.1,.29-.32,.58-.63,.88-.88-.3-.18-.23-.44-.16-.68,.07-.24,.16-.41-.11-.6v.31c-.28-.32-.71-.37-1.21-.32-.48,.06-1.02,.21-1.47,.03,.31,.42-.09,.71-.45,1.09-.36,.38-.67,.84-.14,1.41-.22,.18-.28-.23-.51-.15,.37,.31,.41,.6,.16,1.11l-.09-.07c-.08,1.51-.53,2.11-.93,3.74l.48-.09c-.09,.35-.24,.41-.37,.57,.69,.46,.11-.98,.88-.56-1,.4-.2,2.48-1.32,2.65-.05,.52,.56-.11,.5,.43l-.31,.12,.37,.18c-.1,.35-.48,.5-.74,.5,.04-.09-.05-.26-.06-.35-.4,.44,0,1.35-.12,1.5l.22-.52c.15,1.53-.33,3.37,.25,4.84l.23-.11c.4,1.11-.26,.89-.07,2.11l-.05-.04c.22,.24,.34,.57,.32,.9-.27-.3-.5,.59-.8,.19,.47,1.2,.36,.59,1.21,1.36l-.36,.19c.35,.26,.52,.27,.64,.87-.34-.48-.55,.41-.99-.13-.76,1.32,.91,1.84-.24,2.5,1.06,.52,.5-1.13,.74-.82,.32-.29,.79,.43,.72,.83,0,.4-1.27,.77-1.17,1.8,0-.1-.08-.1-.09-.2-.23,.39,.42,.74,.03,1.2,.64,.16,0,.53,.79,.57-.07-.31-.15-.55-.24-.85,.25,.46,1.18,.84,.78,1.83-.17-.07-.39-.37-.52-.53-.22,.25,.18,.55-.03,.93-.2,0-.32-.09-.39-.25-.07-.17-.11-.41-.12-.56-.04-.36-.05-.75-.36-.98-.32,.22,.62,1-.25,.75,.55,.19,.53,.41,.49,.89-.03,.43-.07,.98,.43,1.32l-.46,.1c.1,.14,.39,.38,.46,.66-.23-.07-.47-.16-.71-.27,.36,.32,.36,.75,.42,1.21,.04,.46,.14,.94,.5,1.19-.52-.72-.4-.92-.25-1,.18-.09,.41-.1,.42-.51,.72,.73,.62,1.09,.6,1.7,0,.24,.04,.47,.2,.73,.15,.27,.46,.54,1,.7-.37-.05-.95-.83-.39-.75,.32,.32,.8,.68,1,.99,.82,.13,.79-.03,.66-.19-.13-.17-.34-.37,.02-.47,.34,.64,.81-.15,1.42-.38l-.04,.49c.87,.06,.99-.26,1.05-.51,.07-.27,.1-.5,.82-.52-.14,.27-.31,.55-.5,.84,.26-.14,.52-.26,.77-.4,0,.19-.02,.39-.03,.58,.19-.16,.43-.32,.5-.39,.1-.08,.19-.13,.28-.17,.19-.07,.39-.07,.68-.09-.24-.28-.21-.86,.23-1.02,.38,.18,0,.48,.55,.24-.05,.33-.05,.72-.46,.39,.02,.16-.04,.33-.02,.49,.44,.2,.72-.15,1-.23-.1,0-.21,.01-.29-.04l.8-.9c.2,.14,.11,.31,.02,.48,.18-.1,.27-.35,.55-.46,.01,.4,.12,.79-.24,1.07l.82-.64c.1,.15,.57,.35,.49,.52,.55,.12,1.11-1.01,1.87-.83,.02-.08,.08-.17,.22-.25,.67-.03,1.33,.36,2.03-.3l.55,.63c.6-.25-.73-.79,.26-1.2,.71-.32,.35,.56,.64,.72,.31-.4,.87-1.2,1.62-.71-.21,.16-.4,.08-.6,.15Zm7.69-.99c-.15,.11-.45,.44-.58,.16,.16-.56,.3-.3,.58-.16Zm9.67-8c.14,.14,.04,.31-.17,.49-.02-.16,.02-.32,.17-.49ZM29.2,3.72l.02-.02c.32,.23,.21,.14-.02,.02Zm-.69-.29c-.08,.06-.08,.13-.06,.2,.06-.12,.23-.1,.41-.05-.04-.13-.12-.23-.34-.15ZM4.56,29.83l-.11,.15c-.16-.3-.03-.22,.11-.15Z"/><path d="M37.45,28.59c-.09,.03-.18,.03-.27,.02,.07,.08,.16,.11,.27-.02Z"/><path d="M14.98,36.97s-.02,0-.02,0c0,.03,0,.06,0,.09l.03-.09Z"/><path d="M40.7,3.05c.08,.22,.08,.36,.05,.47,.1-.06,.13-.19-.05-.47Z"/><path d="M24.72,3.75l.44-.08c-.21,0-.27-.11-.37-.2,0,.11,.06,.28-.07,.28Z"/><path d="M21.09,.5c-.07,.06-.14,0-.21,.06v.22c.29,0,.5-.18,.21-.28Z"/><path d="M24.48,2.11c0-.41-.29-.3-.61-.25,.02,0,.04,0,.05,0-.14,.56,.2,.39,.55,.24Z"/><path d="M23.8,1.87c-.1,.01-.2,.01-.29-.01-.05,.22,.11,.06,.29,.01Z"/><path d="M27.53,3.57c-.15-.13-.18,.5-.25,.32-.25,.49,1.17-.47,.25-.32Z"/><polygon points="24.35 .75 24.42 1.26 24.64 .88 24.35 .75"/><path d="M26.8,1.42l-.48-.21c0,.08-.07,.12-.16,.15,.31,.06,.63,.21,.64,.06Z"/><path d="M26.16,1.36c-.16-.03-.31-.04-.41,.03,.09,0,.28,.01,.41-.03Z"/><polygon points="25.06 .67 25.2 .8 25.55 .87 25.06 .67"/><path d="M32.22,2.22l.57-.06c.08-.16-.05-.29-.26-.25-.15,.1-.36,.14-.3,.31Z"/><path d="M30.73,.64c.14,.12,.13,.23,.2,.41l.09-.61-.29,.21Z"/><path d="M32.38,.71c.08-.16,.89-.37,.17-.44-.08,.16-.67,.22-.17,.44Z"/><path d="M39.85,4.88l-.07-.13-.9,.5c.32-.13,.65-.25,.97-.36Z"/><path d="M41.68,12.96c.42-.6-.56-.32-.11-.85-.19-.22-.37,.43-.53,.22,.14,.46-.06,.63,.64,.63Z"/><path d="M41.04,12.33c-.02-.07-.05-.16-.1-.24,.03,.13,.06,.2,.1,.24Z"/><path d="M6.35,5.06c.1-.08,.2-.11,.29-.16-.12,0-.25,0-.38,.02l.09,.14Z"/><path d="M5.86,4.28c.2,.09,.4,.18,.59,.27-.15-.13-.3-.26-.45-.41,0,.06,0,.18-.14,.14Z"/><path d="M28.69,36.27l.02-.16c-.09-.16-.19-.17-.41-.18l.38,.34Z"/><polygon points="23.02 36.15 23.12 36.16 22.88 35.59 23.02 36.15"/><path d="M18.41,37.46c.19,0,.4-.16,.59-.16-.4,.16-.74-.56-.59,.16Z"/></g></g></g></svg>