<?xml version="1.0" encoding="UTF-8"?><svg xmlns="http://www.w3.org/2000/svg" viewBox="0 0 30.8 32.93"><g id="a"/><g id="b"><g id="c"><g><path d="M.41,28.93c.07-.18-.35-.21-.41-.25,.02,.37,.53,.25,.41,.25Z"/><polygon points="4.11 30.34 4.25 30.44 3.95 30.11 4.11 30.34"/><path d="M4.57,29.55c-.66-.28-.07,.34-.37,.36l-.15-.06,.46,.35c.02-.22-.18-.63,.06-.65Z"/><path d="M6.15,29.91c-.25-.12-.15-.21-.13,.05l.07,.02s.02-.04,.06-.07Z"/><path d="M6.09,29.98c-.03,.09,.23,.06,0,0h0Z"/><path d="M6.17,29.52l.15,.23c.15,.06,.24-.02,.32,.08-.05-.18-.21-.24-.47-.31Z"/><path d="M5.78,29.16l.06,.11c.06,.03,.09,.02-.06-.11Z"/><path d="M5.96,29.5l-.12-.23c-.11-.04-.31-.16,.04,.1-.18-.12-.02,0,.08,.14Z"/><path d="M5.83,29.51c-.17-.02-.3,.01-.45-.22-.04,.26,.41,.48,.45,.22Z"/><path d="M3.96,29.14l-.23-.02,.17,.19c-.08-.1,.26-.06,.06-.17Z"/><path d="M6.88,29.05c-.13-.09-.37-.17-.54-.27l.1,.17c.11,.01,.24-.01,.44,.1Z"/><path d="M6.35,28.78l-.15-.25c-.09,.09,0,.17,.15,.25Z"/><polygon points="5.11 28.73 5.47 29.21 5.12 28.69 5.11 28.73"/><polygon points="7.18 28.61 7.44 28.86 7.05 28.47 7.18 28.61"/><path d="M7.31,28.29c.22,.2,.46,.19,.58,.34,0-.11-.17-.31-.32-.49,.07,.13,0,.18-.26,.15Z"/><path d="M7.35,27.86c.04,.07,.12,.17,.21,.28-.04-.07-.1-.16-.21-.28Z"/><path d="M6.38,28.37c.08,.04,.3,.15,.43,.13l-.39-.18-.03,.04Z"/><path d="M6.4,28.32h.01l.08-.08-.09,.08Z"/><path d="M6.37,28.38h0s-.05-.03,0,0Z"/><path d="M5.63,28.62c-.16-.19-.29-.47-.69-.52,.22,.2,.45,.23,.69,.52Z"/><path d="M5.88,28.16l-.16,.08c.1,.06,.25,.12,.33,.21l-.17-.29Z"/><polygon points="5.8 28.03 5.88 28.16 5.94 28.13 5.8 28.03"/><path d="M6.88,27.86c-.12-.15-.1-.22-.09-.3-.12,.03-.2,.08-.24,.15,.11,.08,.29,.24,.33,.15Z"/><path d="M6.62,28.06v-.02s-.06-.01,0,.02Z"/><path d="M7.21,26.9l-.07-.03,.06,.04h.01Z"/><path d="M6.48,27.68c-.1,.01-.03,.1,.06,.2-.01-.06,0-.12,.02-.17-.05-.04-.08-.06-.08-.03Z"/><path d="M7.3,27.57c-.09-.02-.18-.03-.26-.03,.13,.04,.34,.1,.26,.03Z"/><path d="M6.72,28.08v.02c.1,.03,.06,0,0-.02Z"/><path d="M6.72,28.08c-.04-.06-.11-.14-.18-.21,0,.05,.03,.1,.07,.16l.11,.04Z"/><path d="M5.03,25.23c.33,.22,.54,.56,.1,.46,.17,.28,1.32,.9,2,1.19-.14-.1-.28-.18-.39-.43-.21-.07-.61,0-.84-.3-.06-.27,.21-.06,.43-.03-.46-.2-.47-.6-1.1-.95l.12,.28c-.1-.06-.21-.21-.33-.22Z"/><path d="M6.95,27.09v.08c.1-.02,.26,.02,.57,.11-.11-.19-.22-.28-.33-.36l-.2,.22-.04-.05Z"/><path d="M6.83,27.39c-.34-.27-.42-.49-.86-.66-.07,.17,.24,.3,.34,.49,.06-.3,.16,.2,.48,.15,.03,.09,.03,.14,.02,.19,.07-.02,.15-.02,.24-.02h-.03c-.05-.03-.08-.04-.05-.04,0,0,0,0,0,0-.05-.04-.09-.07-.13-.1,.12-.02,.1,.05,.13,.1l.05,.04h0l-.05-.37c-.08,.02-.11,.09-.14,.23Z"/><path d="M4.23,27.49s.06,.03,.09,.04c-.04-.04-.06-.07-.09-.04Z"/><path d="M4.51,27.52s.18,.15,.1,.19c-.14-.02-.18-.11-.3-.18,.08,.09,.19,.28,.44,.28l-.04-.05c.19-.02,.73,.13,.77,.18-.35-.17-.6-.29-.97-.42Z"/><path d="M5.58,27.39l-.05-.32-.38-.09,.19,.11c-.15,.07,.1,.19,.24,.3Z"/><polygon points="7.41 27 7.77 27.27 7.31 26.81 7.41 27"/><polygon points="7.53 26.71 7.85 26.93 7.7 26.74 7.53 26.71"/><path d="M14.77,9.75l-.03-.13s.01,.09,.03,.13Z"/><path d="M14.37,10.11l.13,.14c-.06-.09-.11-.15-.13-.14Z"/><path d="M11.84,20.53c.36,.15,.88,.41,.52,.15l-.36-.24c.02,.1-.05,.12-.16,.1Z"/><path d="M13.16,14.84l-.12-.06c.1,.12,.18,.22,.27,.33l-.15-.26Z"/><path d="M11.86,13.6l.3,.08c-.09-.04-.19-.07-.3-.08Z"/><path d="M16.53,7.38l-.24-.38c-.1,.09,.1,.22,.24,.38Z"/><path d="M9.15,24.01c.19,.02,.29,0,.34-.03-.26-.06-.62-.2-.34,.03Z"/><path d="M17.91,13.12c-.03-.08-.08-.16-.15-.23,.02,.08,.06,.16,.15,.23Z"/><path d="M9.63,23.77s-.07-.01-.11-.02c.02,.09,.03,.18-.03,.23,.2,.04,.34,.04,.14-.21Z"/><path d="M25,.94s.03,.01,.05,.03c-.03-.05-.04-.05-.05-.03Z"/><path d="M29.9,2.98s-.05,.06-.08,.09c.03,.01,.06,0,.08-.09Z"/><path d="M8.36,25.78c-.01,.07,.03,.03,0,0h0Z"/><path d="M6.76,25.1s-.08-.08-.16-.14c.08,.06,.13,.11,.16,.14Z"/><path d="M7.8,21.67h0c-.08-.04-.07-.03,0,0Z"/><path d="M8.14,25.76c.06,0,.11,.01,.15,0-.04,0-.08,0-.15,0Z"/><path d="M8.32,25.86l-.07,.02c.06,.05,.1,.07,.07-.02Z"/><path d="M8.39,25.69s-.05,.05-.1,.06c.03,0,.05,.01,.07,.03,0-.02,.01-.05,.03-.09Z"/><path d="M21.19,5.27l.04,.02c-.06-.18-.07-.14-.04-.02Z"/><path d="M9.37,16.37v.02h.03l-.03-.02Z"/><path d="M9.27,15.98c.35,.42,.26,.42,.13,.42l1.02,.72-1.15-1.14Z"/><path d="M15.58,8.76l-.4-.15c-.3-.61-.04-.56-.54-.83,.94,.98-.39,.58,.56,1.56l-.28-.12s-.02-.07,.01-.09c-.62-.3,.58,.81,.24,.88-.14,0-.33-.09-.4-.25l.08,.39c-.06,.03-.22-.15-.16-.18l-.16,.32-.03-.03c.12,.18,.28,.49,.35,.63-.2-.07-.07-.13-.21-.23l.11,.36c-.31-.19-.45-.54-.32-.6-1.1-.81,.14,.35-.69,.08v-.25c-.64-.45-.53-.15-1.02-.33,.22,.14,1.16,.54,1.26,.92-.11-.03-.2,0-.08,.26-.35-.33-.34-.17-.41-.05l-.46-.44c.03,.23,.28,.45,.43,.71-.16,.08-.54-.24-.88-.49-.25,.12,.71,.41,.58,.72-.33,0-.24,.28-.13,.73-.27-.04-.27-.28-.44-.37l.29,.44s-.14-.1-.19-.15c.07,.22,.47,.44,.48,.69,.49,.51-1-.42-.55,.28-.17-.08-.28-.28-.47-.43,.19,.57,.11,.45,.48,1.1l-.45-.12c.46,.2,.76,.72,1,1.16,.21,.11,.39,.21,.49,.25l.08,.43c-.1-.04-.25-.21-.42-.42l.08,.14c-.24-.08-.49-.36-.71-.65,.12,.06,.24,.12,.36,.19-.25-.31-.53-.64-.82-.87,.04,.06,.07,.13,.07,.18-.07-.08-.13-.15-.18-.19-.06-.04,.03,.08,.12,.22l-.58-.42,.2,.2-.58-.02c.37,.66,1.03,1.52,1,2.01-.34-.41-.64-.57-1.11-.97,.57,.34-.01-.42,.23-.5-.13,.04-.33-.17-.39-.26l.21,.68c-.38-.33-.34-.18-.56-.24,.81,.59,.33,.65,.47,.96-.26-.21-.5-.46-.32-.55-.71-.32,.73,.96,.11,.7,.02-.04,.08-.03-.04-.15,.16,.27-.19,.32-.37,.09l.02-.04c-.28,.16-.6,.71,.04,1.28-.09-.07-.77-.68-.89-.8l1.89,2.21c-.54-.49-2.01-1.44-2.18-1.89-.13,0-.28-.01-.17,.27,.11,.03,.9,.56,.91,.66-.75-.36-.42-.17-1.1-.42,.17,.04,1.02,.82,.92,.88-.12-.12-.89-.69-.96-.8l.7,.92c-.12-.18-.74-.6-1.03-.74,.19,.11-.17,.19-.13,.32l.28,.06c-.34,.15,1.05,1.22,.81,1.44-.16-.17-1.07-.95-1.29-.9,.41,.41,1.99,1.95,2.18,2.43l-.29-.16,.17,.4c-.62-.63-1.84-2.03-2.27-2.63-.28-.06-.33-.21-.42-.05-.29-.14-.31-.36-.29-.42l-.42,.22c.55,.39,.34,.67,.8,1l-.28-.8c.54,.39,1.36,1.37,1.09,1.54-.26-.1-.92-.76-1.11-.89,.16,.17,.18,.5,.03,.42l-.21-.32c-.3-.01,.55,.75-.08,.53-.08,.03-.82-.34-.51-.1,.69,.36,2.61,1.75,3.03,2.16-.06-.01-.8-.15-1.16-.31-.55-.26-1.06-.98-1.53-1.21,.15,.11,.29,.3,.33,.36-.17-.03-.44-.36-.47-.18,.54,.42-.24,.23,.42,.4,.07,.24-.21,.05-.3,.21,.39,.21,1.12,1.01,1.19,1.24-.14-.11-.34-.21-.43-.26-.23,.22-.58,.18-.75,.42-.15-.07-.4-.07-.6-.29,.07,.1,.24,.27,.2,.35-.58-.19,.04-.22-.62-.51,.32,.24,.31,.51,.44,.75,.53,.32,.27-.18,.14-.43,.69,.48,1.29,1.17,1.44,1.64,.04,.32-.51-.22-.43-.12-.38,.29,1,1.15,.28,1.11-.53-.18-.89-.59-1.23-.78-.06-.28,.46-.06,.51-.18h-.3c-.11-.16-.15-.35,.02-.32-.47-.17-.52,.58-1.08,.63,.12,.15,.21,.35,.42,.42v-.13c.42,.15,.38,.51,.63,.5,.17,.29,.48,.69,.16,.73l-.53-.3c.15,.09,.38,.09,.26-.06,.18,.22-.87-.19-.25,.33l.44,.11c.18,.29,.62,.8,.36,.85,.55,.26-.03-.07,.63,.2-.8-.39,.29-.37-.59-.72,.76,.34,.42,0,1.1,.24-.17-.11-.36-.16-.19-.23-.05-.04-.1-.09-.13-.13h0s-.03-.03,0,0c-.09-.02-.2-.05-.3-.1-.35-.32-.2-.52-.35-.72,.13-.02,.17,.16,.38,.24l-.23-.3c.38,.24,.75,.21,.85,.54l.12-.15c.27,.05,.44-.02,.34-.21,.13-.02-.28-.47-.04-.2l-.06-.4,.09,.06c.22-.21-.26-.93,.6-.74-.04-.15-.09-.31,.11-.38l.34,.2c-.04-.18,.53-.09,.24-.37,.93,.5,.55-.36,.84-.44l-.4-.31c.12-.11,.09-.31,.04-.59l-.37-.26c-.2-.35,.51-.16,.63-.4,.13,.12,.05,.14-.06,.12,.99,.36-.19-.98,.57-.76-.09-.16,0-.16,.11-.13,0,0,0,.02,0,.03,0,0,.02-.01,.02-.02,.08,.02,.17,.05,.25,.07-.1-.04-.19-.08-.24-.08,.03-.05,.03-.15,0-.28l.4,.27s0-.01,0-.02c.19,.05-.14-.19-.45-.38-.04-.08-.09-.17-.16-.26,.65,.43-.07-.33,.63,.11-.28-.29,.01-.51-.63-1.07,.09,.07,.14,.08,.12,.12,.13-.01,.26-.02,.13-.24l.5,.35-.52-.67c.37,.14,.57,.23,.86,.62-.39-.68-.07-.35-.47-1l.3,.26c.04-.08-.28-.52,.01-.36,.71,.32,.71-.69,1.57-.63-.95-.68,.55,.16-.13-.44,.23,.16,.39,.2,.52,.42-.04-.38,.58,0,.12-.64,.23,.16,.27,.31,.41,.39-.03-.05-.13-.22,.01-.13,.14,.09,.15,.18,.21,.29,.14-.23-.49-.8-1.08-1.34,.37,.15,.38,.06,.05-.36,.23,.14,.48,.26,.45,.44,.09-.04,.66-.17,.19-.6,.14,.09,.12-.07,.08-.13,.17-.13,.22-.11,.31-.3l-.12-.03c-.52-.58-.01-.24,.03-.43l.06,.06c.66,.09-.09-.3,.64-.15l-.37-.31c-.74-.72,.67,.17,.53-.26l-.25-.13c-.18-.33,1.25,.71,1.43,.72,.08,.04,.08,.13,.1,.2,.65,.19-.43-.46-.38-.73,.28,.2,.59,.63,.74,.56,.25,.13-.49-1.08,.12-.79-.22-.15-.44-.29-.51-.51,.04-.19,1.02,.37,.53-.31,.07,.04,.12,.08,.17,.12-.06-.24,.04-.53-.23-.9,1.26,1.09-.02-1.12,1.06-.04l.21-.33,.1,.12c.24-.1,.05-.42-.14-.75,.11,.03,.18,.17,.23,.23,.48-.03,.46-.09,.15-.85l.36,.34c-.14-.27,.91,.21,.77-.45,.04,.04,.1,.12,.12,.19-.1-.7,1.61,.37,.51-1.06l-.1-.5c-.35,.12-.48-.62-.79-.75,.03-.17,.63,.18,.56,.35l-.08-.05c.58,.74,.54-.03,.96,.46,.48-.47,1.29-.52,1.8-.87l-.52-.52,.2-.1c.15,.1,.42,.39,.28,.47,.33,.27-.02-.43-.12-.56,.42,.04,.45,.73,.53,.69l.06-.12-.08-.05c-.11-.29-.3-.55-.14-.64,.18,.04,.33,.31,.38,.31,.03,.04,.06,.05,.07-.03l.25-.12-.45-.38c-.08-.3,.22-.14-.29-.57,.78,.67,1.02-.37,1.31-.18-.12-.43,.02-.53,.22-.61-.11-.06-.53-.56-.34-.61,.75,1.11,.62,.27,1.31,.95-.48-.44,.31-.43-.39-1.04,.18,0,.3,.4,.58,.59-.02-.64,.82-.19,1.08-.57-.09-.15-.31-.33-.38-.59l.69,.59c.02-.12-.51-.88-.03-.47-.1-.11-.26-.27-.24-.35,.6,.11,.86-.28,1.18-.6,.33-.3,.72-.52,1.51-.07-.28-.23-.23-.3-.16-.36-.09-.04-.23-.37-.36-.57l.65,.37c-.28-.6,.31-.24,.02-.81l-.04,.16c-.25-.72-1.04-1.31-1.51-2.14,.29,.82-1.06-.82-.68,.37-.16-.13-.11-.29-.26-.46,.15,.39,.12,.51-.12,.44l-.04-.1c-.35,.34-.75,.09-1.34,.17l.29,.37c-.13,.01-.23-.1-.34-.17,.29,.67,.29-.15,.63,.58-.66-.72-.67,.44-1.37-.41-.15,.1,.35,.42,.2,.52l-.21-.22,.18,.34c-.13,.01-.39-.26-.54-.46,.04,0,.03-.1,.04-.14-.32-.2-.29,.34-.4,.28l.25,.05c-.25,.5-.96,.53-.98,1.3l.16,.16c-.04,.55-.37-.03-.57,.36l-.02-.05c.07,.23,.05,.38-.05,.42-.08-.27-.46-.29-.53-.6-.04,.59,.06,.39,.36,1.2l-.27-.26c.14,.32,.24,.46,.14,.65-.07-.35-.45-.37-.56-.81-.82-.38,.03,1.02-.85,.21,.49,.92,.63,.22,.68,.46,.28,.21,.36,.7,.19,.7-.11,.06-.99-.89-1.24-.66,.03-.02-.02-.08,0-.1-.26-.13,.04,.43-.35,.19,.33,.53-.18,.1,.31,.72l.12-.33c0,.27,.46,1.08-.04,.91-.09-.14-.15-.35-.18-.48-.21-.13-.02,.22-.24,.09-.49-.62,.17-.36-.07-.94-.28-.2,.09,.66-.38-.06,.59,.92-.34,.1,.02,.88l-.29-.37c.02,.08,.11,.3,.05,.33l-.31-.55c.2,.52-.56-.12-.51,.21,.27-.25,.43,.38,.77,.54,.08,.78-1-.78-1.23-.27,0-.1,.38,.05,.44,.28-.14-.01-.35-.07-.56-.21-.19,.29,.36,.33,.44,.65-.47-.36,.03,.29,.04,.52l-.32-.36c-.49,.02,.59,.82,.09,.76l-.34-.59-.02,.25-.34-.43c.12,.43,0,.39-.24,.4,.26,.22,.57,.67,.45,.79-.28-.14-.26-.38-.39-.17-.16-.26-.38-.58,0-.32-.1-.12-.16-.26-.26-.38-.31-.16-.28,.16-.34,.22,.04,0,.08-.02,.14,.02l.2,.73c-.16-.1-.23-.23-.29-.37-.02,.09,.1,.28,.05,.38-.25-.31-.53-.6-.54-.84l.05,.55c-.13-.11-.44-.23-.51-.36-.29-.04,.19,.86-.2,.81,.04,.06,.07,.13,.08,.21-.23,.09-.71-.12-.53,.46l-.6-.4c-.04,.26,.76,.49,.7,.93-.02,.34-.48-.36-.68-.44,.16,.34,.51,1.01-.05,.76-.04-.15,.08-.12,.09-.2Zm-1.6,2.07c-.04-.11-.2-.4,.03-.23,.36,.42,.14,.27-.03,.23Zm-1.77,3.68c-.1-.13,0-.12,.18-.05,0,.06-.05,.09-.18,.05Zm-3.79,10.46l-.02-.02c.22,.02,.13,0,.02,.02Zm-.29,.07c.04,.06,.1,.09,.16,.12-.09-.08-.07-.13-.01-.16-.11-.06-.2-.08-.15,.03ZM23.8,7.34l-.11-.07c-.01-.17,.05-.05,.11,.07Z"/><path d="M12.01,13.75c.07,.04,.14,.1,.21,.16-.05-.07-.12-.13-.21-.16Z"/><polygon points="16.57 7.45 16.58 7.45 16.53 7.38 16.57 7.45"/><path d="M6.8,19.82c.08,0,.17,.03,.26,.07-.09-.07-.19-.11-.26-.07Z"/><path d="M8.18,26.46l-.03-.19c-.02,.07-.12,.03-.2,.02,.1,.06,.25,.13,.23,.17Z"/><path d="M4.99,25.89s-.02,.04,.02,.09l.19,.11c.03-.08-.08-.23-.21-.21Z"/><path d="M6.76,25.7c-.35-.21-.28-.06-.27,.06,0,0,0-.01,0-.01,.46,.33,.36,.14,.26-.05Z"/><path d="M6.49,25.79s0,.07-.04,.08c.18,.13,.06,0,.04-.08Z"/><path d="M8.2,25.42c-.11-.02,.42,.31,.26,.24,.4,.33-.35-.61-.26-.24Z"/><polygon points="5.6 25.04 6.04 25.28 5.73 25.01 5.6 25.04"/><path d="M6.34,24.57l-.2,.06c.07,.04,.1,.09,.12,.13,.07-.07,.21-.11,.09-.19Z"/><path d="M6.26,24.76s-.05,.09,0,.15c.01-.03,.03-.09,0-.15Z"/><polygon points="5.59 24.77 5.7 24.79 5.8 24.71 5.59 24.77"/><path d="M7.39,23.19l-.02-.23c-.13-.11-.24-.13-.23-.04,.07,.1,.09,.19,.24,.27Z"/><path d="M5.96,22.85c.11,.02,.21,.08,.36,.15l-.51-.35,.15,.2Z"/><path d="M6.14,22.34c-.13-.11-.26-.5-.36-.29,.13,.11,.15,.34,.36,.29Z"/><polygon points="8.33 20.6 8.31 20.64 9.14 21.24 8.33 20.6"/><path d="M7.83,17.23c-.33,.02,.47,.42,.1,.39,.16,.19,.29,.03,.43,.19-.12-.26,.03-.22-.53-.59Z"/><path d="M8.36,17.81s.04,.09,.08,.15c-.03-.07-.05-.11-.08-.15Z"/><polygon points="30.58 3.2 30.8 3.32 30.56 3.07 30.58 3.2"/><path d="M30.41,2.42l.36,.54-.23-.55s-.03,.12-.12,0Z"/><path d="M12.77,10.22l.11,.11c.14,.1,.17,.08,.23,.05l-.34-.17Z"/><polygon points="14.44 9.18 14.41 9.2 14.87 9.56 14.44 9.18"/><path d="M15.04,7.52c-.06,.03-.03,.18-.09,.21,.03-.18,.61,.31,.09-.21Z"/></g></g></g></svg>