<?xml version="1.0" encoding="UTF-8"?><svg xmlns="http://www.w3.org/2000/svg" viewBox="0 0 30.1 20.93"><defs><style>.d{fill:#1d1d1b;}</style></defs><g id="a"/><g id="b"><g id="c"><g><g><path class="d" d="M27.47,17.61h-.06c.13,.02,.06,0,.06,0Z"/><path class="d" d="M28.22,17.99h0l.11,.13c-.04-.06-.13-.16-.1-.13Z"/><path class="d" d="M28.12,17.93c.21,.67,.04-.13,.11,.1l.08,.14-.14-.25v.02s-.07-.2-.03-.05c.02,.08,0,.13-.03,.04Z"/><path class="d" d="M27.88,16.6s0-.04,0,0c0,.02,0-.04,0,0l.02,.22v-.04l-.02-.19Z"/><path class="d" d="M27.9,16.8c.03,.2-.02-.13,0,0h0Z"/><path class="d" d="M27.85,16.58l.03-.24c0-.17-.01-.21,0-.32-.01,.13-.03,.3-.02,.57Z"/><path class="d" d="M27.79,17.1l.03-.1c0-.07,0-.09-.03,.1Z"/><path class="d" d="M27.87,16.78l-.05,.22c0,.12,0,.35,.02-.08-.01,.21,0,0,.02-.14Z"/><path class="d" d="M27.88,16.89c0,.15,.03,.25,.01,.5,.06-.1,0-.6-.01-.5Z"/><path class="d" d="M28.27,18.65l.1,.19-.02-.24c.01,.12-.13-.16-.08,.05Z"/><path class="d" d="M27.67,16.19c-.03,.15-.06,.4-.09,.59,.03-.05,.05-.11,.07-.16,0-.1-.03-.21,.01-.43Z"/><path class="d" d="M27.58,16.78l-.12,.24c.06,.04,.1-.07,.12-.24Z"/><path class="d" d="M27.73,17.89c.05-.18,.09-.36,.13-.54-.04,.18-.09,.36-.15,.55h.02Z"/><polygon class="d" points="27.43 16.11 27.56 15.78 27.35 16.28 27.43 16.11"/><path class="d" d="M27.23,16.12c.12-.27,.1-.49,.18-.65-.06,.03-.18,.26-.29,.46,.08-.1,.12-.06,.11,.19Z"/><path class="d" d="M26.95,16.22c.05-.06,.11-.17,.17-.29-.04,.06-.1,.14-.17,.29Z"/><path class="d" d="M27.35,16.92c.02-.09,.06-.32,.04-.44l-.07,.42h.03Z"/><path class="d" d="M27.32,16.92h0s-.05-.05-.06-.06l.06,.06Z"/><path class="d" d="M27.36,16.93h0s0,.05,0,0Z"/><path class="d" d="M27.58,17.49c-.07,.23-.23,.47-.18,.84,.08-.28,.06-.5,.18-.84Z"/><path class="d" d="M27.27,17.45l.07,.11c.02-.11,.04-.28,.08-.39l-.15,.27Z"/><polygon class="d" points="27.2 17.58 27.27 17.45 27.25 17.41 27.2 17.58"/><path class="d" d="M26.98,16.65c-.1,.16-.15,.16-.21,.18,.03,.1,.07,.16,.13,.18,.05-.13,.14-.35,.08-.35Z"/><path class="d" d="M27.13,16.82l-.02,.02s0,.05,.02-.02Z"/><path class="d" d="M26.26,16.64l-.02,.08,.03-.07h0Z"/><path class="d" d="M26.88,17.08c.02,.09,.07,0,.13-.12-.04,.03-.08,.05-.12,.04-.02,.06-.03,.09-.01,.08Z"/><path class="d" d="M26.75,16.36c0,.09,0,.17,0,.25,.02-.14,.05-.35,0-.25Z"/><path class="d" d="M27.14,16.73v-.02c.02-.09,.01-.05,0,.02Z"/><path class="d" d="M27.14,16.73c-.04,.05-.08,.15-.12,.24,.03-.03,.07-.06,.1-.12l.02-.12Z"/><path class="d" d="M25.05,19.11c.16-.36,.43-.65,.39-.2,.22-.23,.61-1.48,.79-2.19-.07,.16-.12,.31-.32,.48-.05,.22,.05,.57-.17,.86-.22,.13-.07-.18-.06-.4-.12,.48-.46,.59-.71,1.27l.24-.18c-.04,.11-.16,.25-.16,.36Z"/><path class="d" d="M26.41,16.82l.06-.03c-.02-.08,0-.24,.05-.55-.13,.16-.2,.29-.26,.41l.18,.13-.03,.05Z"/><path class="d" d="M26.65,16.86c-.17,.4-.34,.53-.43,.99,.14,.02,.21-.31,.34-.46-.23,.04,.13-.21,.07-.49,.06-.06,.1-.07,.14-.08-.02-.06-.03-.13-.03-.22v.03h0c0,.06-.02,.09-.02,.06h0l-.06,.16c-.03-.1,.03-.11,.06-.15l.02-.06h0l-.27,.15c.02,.07,.08,.08,.18,.07Z"/><path class="d" d="M27.12,19.22s0-.07,.01-.1c-.02,.05-.04,.08-.01,.1Z"/><path class="d" d="M27.08,18.95c.03-.06,.08-.22,.12-.17,.02,.14-.04,.2-.06,.34,.06-.1,.17-.28,.11-.51l-.03,.05c-.06-.17-.05-.71-.02-.77-.06,.38-.1,.66-.11,1.04Z"/><path class="d" d="M26.77,18.01c-.08,.05-.15,.1-.23,.15l-.02,.39,.06-.22c.08,.11,.13-.16,.19-.32Z"/><polygon class="d" points="26.32 16.43 26.5 16.02 26.17 16.57 26.32 16.43"/><polygon class="d" points="26.09 16.39 26.25 16.03 26.1 16.23 26.09 16.39"/><path class="d" d="M10.86,12.48l-.12,.05s.08-.03,.12-.05Z"/><path class="d" d="M11.2,12.76l.12-.15c-.08,.07-.13,.13-.12,.15Z"/><path class="d" d="M20.68,13.41c.13-.36,.36-.89,.13-.51l-.21,.38c.09-.03,.11,.03,.09,.13Z"/><path class="d" d="M15.5,13.02l-.05,.12,.29-.3-.23,.18Z"/><path class="d" d="M14.42,14.45l.07-.3c-.03,.09-.06,.19-.07,.3Z"/><path class="d" d="M8.63,11.41l-.32,.31c.09,.06,.18-.14,.32-.31Z"/><path class="d" d="M23.78,15.43c.02-.18,0-.27-.03-.32-.05,.26-.17,.62,.03,.32Z"/><path class="d" d="M13.72,8.87c-.08,.04-.14,.1-.2,.18,.07-.04,.14-.09,.2-.18Z"/><path class="d" d="M23.57,15.02l-.02,.11c.08-.04,.16-.06,.2,0,.03-.19,.03-.33-.18-.1Z"/><path class="d" d="M1.85,6.07v-.05s-.02,.06,0,.05Z"/><path class="d" d="M1.66,.97s.1,.01,.16,.03c-.02-.04-.06-.05-.16-.03Z"/><path class="d" d="M25.3,15.83c.06,0,.03-.04,0,0h0Z"/><path class="d" d="M24.8,17.49s-.07,.09-.11,.18c.05-.09,.08-.15,.11-.18Z"/><path class="d" d="M21.74,17.08h0c-.03,.08-.02,.06,0,0Z"/><path class="d" d="M25.29,16.04c0-.06,0-.11,0-.14,0,.03,0,.08,0,.14Z"/><path class="d" d="M25.37,15.85l.02,.06c.04-.06,.05-.11-.02-.06Z"/><path class="d" d="M25.23,15.82s.04,.04,.05,.08c0-.03,.01-.05,.02-.07-.02,0-.04,0-.07,0Z"/><path class="d" d="M6.27,7.77v-.04c-.14,.11-.1,.1,0,.04Z"/><path class="d" d="M16.95,16.35h.02v-.03l-.02,.03Z"/><path class="d" d="M16.6,16.5c.38-.4,.38-.31,.37-.18l.64-1.08-1.01,1.26Z"/><path class="d" d="M9.93,11.95l-.11,.4c-.52,.41-.49,.16-.71,.68,.82-1.08,.54,.22,1.36-.86l-.09,.29s-.07,.04-.08,0c-.23,.63,.69-.71,.77-.41,0,.13-.06,.33-.2,.42l.35-.16c.03,.05-.12,.24-.15,.18l.29,.08-.03,.03c.16-.15,.43-.36,.55-.45-.06,.2-.11,.09-.2,.24l.32-.17c-.16,.32-.46,.52-.52,.42-.68,1.18,.31-.2,.1,.63l-.22,.05c-.38,.68-.12,.52-.26,1.01,.11-.23,.44-1.18,.78-1.35-.02,.11,0,.19,.24,.02-.28,.39-.14,.35-.03,.39l-.38,.51c.21-.08,.39-.35,.62-.54,.07,.13-.19,.55-.41,.91,.12,.21,.34-.73,.62-.68,0,.3,.26,.17,.66-.02-.03,.25-.25,.3-.32,.48l.39-.35s-.08,.15-.13,.21c.19-.11,.38-.51,.6-.57,.44-.55-.35,1.02,.26,.47-.07,.17-.25,.31-.38,.52,.51-.28,.4-.18,.98-.64l-.1,.45c.17-.47,.64-.83,1.02-1.13,.1-.22,.18-.4,.22-.5l.39-.15c-.04,.1-.18,.27-.37,.46l.12-.1c-.07,.24-.32,.52-.57,.78,.05-.12,.11-.24,.16-.37-.27,.28-.56,.6-.77,.92,.05-.05,.12-.09,.16-.1-.07,.08-.14,.15-.17,.21-.03,.06,.07-.04,.19-.15l-.37,.61,.17-.22v.54c.58-.46,1.34-1.22,1.79-1.27-.37,.38-.5,.69-.86,1.2,.3-.59-.38,.08-.45-.14,.04,.11-.15,.34-.23,.41l.6-.31c-.3,.41-.16,.35-.21,.57,.52-.86,.58-.41,.86-.59-.18,.28-.41,.55-.49,.39-.28,.72,.85-.84,.63-.21-.04-.02-.02-.07-.13,.06,.24-.19,.29,.13,.08,.34l-.04-.02c.14,.24,.65,.45,1.15-.23-.06,.09-.6,.83-.71,.96l1.98-2.12c-.44,.58-1.28,2.12-1.69,2.34,0,.12-.01,.26,.24,.12,.02-.11,.5-.94,.59-.96-.32,.76-.15,.42-.37,1.11,.03-.17,.73-1.08,.79-1-.11,.13-.62,.95-.71,1.03l.83-.8c-.16,.14-.53,.79-.66,1.09,.1-.2,.17,.14,.29,.08l.05-.28c.14,.3,1.1-1.17,1.29-.97-.15,.18-.85,1.16-.8,1.35,.37-.45,1.74-2.17,2.18-2.42l-.14,.3,.35-.22c-.56,.68-1.81,2.04-2.35,2.53-.05,.28-.19,.34-.04,.4-.12,.29-.33,.35-.38,.34l.21,.37c.35-.58,.6-.42,.89-.9l-.71,.37c.35-.57,1.22-1.48,1.37-1.25-.09,.26-.68,.99-.79,1.18,.15-.18,.45-.24,.38-.09l-.28,.25c0,.29,.67-.63,.48,0,.03,.07-.3,.83-.08,.5,.32-.71,1.55-2.74,1.9-3.19-.01,.05-.13,.78-.26,1.14-.23,.57-.87,1.15-1.07,1.63,.1-.16,.26-.32,.32-.37-.03,.17-.32,.47-.16,.47,.37-.57,.21,.19,.35-.46,.22-.1,.05,.19,.2,.25,.18-.4,.89-1.22,1.09-1.32-.09,.15-.18,.36-.22,.45,.2,.19,.17,.53,.39,.66-.06,.16-.05,.39-.24,.62,.09-.09,.23-.27,.31-.25-.15,.59-.2,0-.44,.67,.2-.34,.45-.38,.66-.54,.26-.55-.17-.23-.39-.07,.41-.74,1.01-1.41,1.42-1.63,.28-.09-.18,.52-.09,.43,.27,.31,.97-1.15,.96-.47-.14,.53-.48,.95-.64,1.31-.24,.11-.07-.42-.18-.45v.29c-.12,.13-.29,.2-.27,.03-.13,.48,.54,.39,.62,.92,.13-.14,.29-.27,.35-.48l-.12,.03c.11-.43,.42-.46,.4-.7,.25-.22,.57-.6,.62-.3l-.23,.57c.07-.16,.05-.38-.07-.23,.18-.21-.1,.87,.3,.17l.07-.44c.24-.23,.63-.77,.68-.54,.18-.58-.06,.05,.13-.64-.28,.84-.31-.18-.56,.72,.25-.79-.02-.39,.16-1.08-.08,.18-.12,.37-.19,.23l-.1,.15v0s-.03,.03,0,0c-.01,.09-.04,.2-.08,.3-.25,.39-.43,.29-.59,.48-.02-.12,.13-.19,.19-.41l-.25,.28c.19-.41,.16-.76,.43-.91l-.13-.09c.03-.27-.03-.41-.18-.28-.02-.12-.39,.35-.17,.07l-.35,.13,.05-.1c-.18-.16-.8,.41-.65-.44-.13,.06-.27,.13-.33-.05l.17-.35c-.16,.06-.08-.49-.32-.17,.43-.96-.33-.46-.39-.72l-.27,.43c-.1-.09-.28-.03-.52,.05l-.23,.39c-.32,.24-.14-.46-.35-.54,.1-.14,.13-.07,.11,.04,.32-1-.87,.32-.68-.44-.14,.1-.15,.03-.12-.08,0,0,.01,0,.03-.01,0,0,0-.01-.02-.02l.06-.25c-.04,.11-.07,.19-.07,.24-.04-.02-.13-.01-.25,.05l.24-.42s-.01,0-.02,0c.04-.19-.17,.16-.34,.48-.07,.05-.15,.11-.24,.19,.38-.68-.3,.12,.09-.62-.26,.31-.46,.06-.96,.75,.06-.09,.07-.15,.11-.13-.01-.12-.02-.25-.22-.09l.31-.53-.6,.59c.12-.37,.21-.57,.55-.91-.61,.46-.32,.11-.9,.59l.23-.32c-.07-.03-.47,.34-.32,.04,.28-.72-.64-.56-.6-1.39-.6,1.01,.13-.54-.4,.19,.14-.24,.18-.4,.37-.56-.34,.1-.02-.55-.59-.01,.14-.24,.27-.3,.35-.45-.05,.04-.2,.16-.12,0,.08-.15,.16-.17,.26-.25-.21-.09-.72,.59-1.19,1.23,.12-.38,.04-.36-.33,.01,.12-.24,.22-.5,.39-.49-.04-.08-.18-.59-.55-.08,.07-.15-.06-.1-.12-.06-.12-.14-.1-.19-.28-.25l-.02,.11c-.51,.59-.22,.05-.39,.05l.05-.06c.06-.64-.27,.13-.16-.57l-.27,.4c-.63,.82,.12-.66-.26-.45l-.11,.26c-.29,.23,.59-1.3,.58-1.47,.03-.09,.11-.1,.18-.13,.14-.65-.4,.49-.64,.49,.17-.3,.54-.67,.47-.8,.11-.26-.96,.66-.73,.03-.12,.23-.24,.47-.43,.57-.17,0,.27-1.02-.32-.44,.03-.07,.06-.13,.1-.18-.21,.11-.49,.07-.81,.4,.9-1.39-1.03,.25-.12-.98l-.32-.13,.1-.12c-.11-.21-.39,.04-.67,.29,.02-.11,.14-.21,.19-.27-.07-.43-.13-.4-.8,.05l.27-.41c-.23,.19,.1-.9-.5-.61,.04-.04,.1-.12,.16-.16-.63,.26,.15-1.6-1.03-.23l-.45,.22c.16,.29-.5,.6-.58,.92-.16,.02,.08-.62,.25-.61l-.04,.09c.6-.73-.1-.49,.29-1-.5-.31-.65-1.07-1.07-1.43l-.38,.63-.13-.15c.06-.17,.28-.5,.38-.4,.19-.38-.39,.14-.49,.27-.04-.4,.59-.63,.53-.69l-.12-.02-.03,.08c-.25,.19-.44,.44-.55,.31,0-.18,.22-.4,.21-.44,.03-.04,.03-.07-.04-.05l-.16-.19-.26,.52c-.25,.17-.17-.16-.46,.44,.46-.91-.52-.82-.42-1.14-.37,.25-.48,.16-.61,.01-.03,.12-.39,.67-.47,.51,.82-1.06,.1-.64,.55-1.51-.27,.59-.47-.13-.84,.71-.05-.17,.28-.42,.38-.73-.56,.24-.39-.68-.83-.76-.1,.14-.2,.4-.41,.57l.31-.85c-.12,.03-.62,.81-.41,.22-.06,.14-.16,.34-.24,.36-.1-.57-.54-.65-.95-.79-.42-.15-.73-.35-.92-1.31,0,.37-.1,.36-.22,.33,.04,.1-.17,.4-.25,.63-.06-.26-.1-.52-.25-.79-.31,.59-.54-.07-.71,.56l.15-.11c-.28,.72-.1,1.66-.37,2.59,.14-.4,.1-.09,.07,.19-.03,.27-.07,.5,.27,0-.05,.19-.16,.27-.24,.48,.21-.36,.31-.41,.33-.19l-.06,.08c.34,.06,.28,.5,.47,.93l.22-.42c.04,.1-.02,.24-.05,.36,.46-.56-.19-.17,.3-.79-.4,.88,.54,.35,.01,1.32,.11,.08,.26-.48,.38-.4l-.13,.27,.24-.3c.04,.1-.12,.44-.26,.65,0-.04-.09,.02-.12,.03-.09,.36,.34,.08,.31,.2v-.23c.46-.02,.63,.57,1.29,.29l.1-.2c.48-.17,.05,.34,.42,.36l-.04,.04c.18-.14,.32-.19,.37-.11-.22,.17-.17,.5-.42,.68,.52-.18,.33-.19,.98-.75l-.18,.33c.25-.23,.36-.37,.55-.35-.29,.18-.25,.52-.61,.77-.2,.85,.89-.37,.32,.68,.73-.74,.1-.63,.3-.76,.14-.31,.55-.55,.58-.4,.07,.08-.62,1.17-.39,1.31-.02-.02-.07,.04-.09,.02-.07,.27,.37-.17,.22,.25,.42-.46,.11,.12,.59-.5h-.31c.24-.08,.89-.75,.82-.25-.11,.12-.29,.25-.4,.31-.08,.23,.2-.05,.11,.19-.48,.63-.35-.04-.83,.36-.14,.31,.57-.29,0,.35,.73-.81,.13,.27,.78-.29l-.29,.38c.07-.04,.25-.19,.29-.15l-.44,.44c.43-.33-.04,.54,.24,.4-.25-.17,.28-.5,.39-.85,.68-.29-.56,1.13-.1,1.19-.08,.02,0-.35,.2-.48,0,.13-.02,.33-.13,.56,.28,.08,.26-.42,.52-.58-.27,.52,.25-.11,.46-.19l-.29,.39c.07,.44,.66-.76,.67-.29l-.49,.47,.22-.05-.35,.42c.37-.23,.35-.12,.38,.1,.17-.29,.54-.69,.66-.62-.09,.29-.32,.34-.12,.4-.22,.22-.48,.49-.28,.08-.11,.11-.21,.22-.32,.34-.11,.33,.16,.21,.22,.25-.01-.03-.02-.07,0-.14l.63-.37c-.07,.17-.19,.27-.3,.36,.08,0,.24-.16,.34-.14-.25,.3-.49,.63-.69,.71l.48-.19c-.09,.15-.17,.46-.28,.55-.02,.28,.75-.39,.73-.03,.05-.05,.11-.1,.18-.12,.1,.18-.05,.67,.45,.37l-.32,.64c.24-.02,.39-.81,.78-.85,.3-.06-.29,.53-.35,.73,.29-.22,.87-.7,.68-.12-.13,.07-.11-.04-.19-.04Zm1.94,1.03c-.09,.06-.35,.26-.2,.01,.36-.42,.24-.18,.2-.01Zm3.37,.98c-.12,.11-.11,.02-.05-.16,.06,0,.08,.03,.05,.16Zm9.39,1.96v.02c0-.21-.01-.13,0-.02Zm.06,.27c.05-.05,.08-.11,.1-.18-.07,.1-.11,.09-.13,.04-.05,.12-.06,.21,.03,.13ZM7.69,4.79l-.04,.12c-.15,.06-.06-.03,.04-.12Z"/><path class="d" d="M14.54,14.29c.04-.07,.09-.15,.14-.22-.06,.06-.11,.13-.14,.22Z"/><polygon class="d" points="8.69 11.35 8.69 11.34 8.63 11.41 8.69 11.35"/><path class="d" d="M20.09,18.31c0-.08,.03-.17,.06-.25-.06,.1-.1,.19-.06,.25Z"/><path class="d" d="M25.86,15.85l-.15,.07c.06,0,.03,.1,.02,.18,.04-.1,.09-.26,.13-.25Z"/><path class="d" d="M25.64,18.99s.04,0,.08-.04l.07-.21c-.08-.01-.19,.14-.15,.25Z"/><path class="d" d="M25.3,17.36c-.16,.37-.03,.28,.07,.24,0,0-.01,0-.01,0,.25-.51,.1-.37-.06-.24Z"/><path class="d" d="M25.4,17.6s.06,0,.07,.02c.1-.21,0-.05-.07-.02Z"/><path class="d" d="M25.01,16.06c-.01,.11,.25-.46,.2-.3,.27-.44-.5,.45-.2,.3Z"/><polygon class="d" points="24.83 18.61 25 18.14 24.79 18.49 24.83 18.61"/><path class="d" d="M24.36,17.99l.06,.18c.03-.08,.07-.11,.11-.14-.07-.05-.11-.18-.17-.05Z"/><path class="d" d="M24.53,18.04s.08,.04,.13-.03c-.02,0-.08-.01-.13,.03Z"/><polygon class="d" points="24.59 18.67 24.6 18.56 24.52 18.48 24.59 18.67"/><path class="d" d="M23.09,17.23l-.2,.05c-.1,.14-.11,.26-.03,.22,.09-.09,.17-.12,.23-.28Z"/><path class="d" d="M22.85,18.66c.01-.11,.06-.21,.12-.37l-.29,.55,.18-.18Z"/><path class="d" d="M22.38,18.57c-.1,.14-.44,.32-.24,.39,.1-.14,.3-.19,.24-.39Z"/><polygon class="d" points="20.77 16.73 20.81 16.74 21.33 15.87 20.77 16.73"/><path class="d" d="M17.73,17.69c.02,.31,.38-.5,.35-.16,.17-.18,.02-.28,.17-.43-.23,.15-.2,0-.52,.59Z"/><path class="d" d="M18.25,17.1s.08-.05,.13-.1c-.06,.04-.1,.07-.13,.1Z"/><path class="d" d="M1.07,.24c-.05-.08-.1-.16-.15-.24l.06,.35,.09-.12Z"/><path class="d" d="M.61,.95l.06-.65-.17,.6s.11-.09,.12,.05Z"/><path class="d" d="M11.36,14.23l.1-.12c.08-.15,.07-.17,.04-.23l-.14,.35Z"/><polygon class="d" points="10.36 12.9 10.38 12.93 10.68 12.43 10.36 12.9"/><path class="d" d="M8.85,12.72c.03,.05,.16-.02,.19,.04-.16,.02,.24-.63-.19-.04Z"/></g><g><path class="d" d="M6.15,17.5c.06,.02-.04-.38-.05-.46-.08,.11,.08,.56,.05,.46Z"/><polygon class="d" points="5.55 18.63 5.52 18.47 5.53 18.9 5.55 18.63"/><path class="d" d="M4.91,18.83c.26,.67,.18-.18,.37,.03l.07,.15-.12-.56c-.11,.13-.18,.55-.32,.39Z"/><path class="d" d="M4.24,17.42c.08,.27,.02,.24,.06,.07l-.03-.07s-.02,0-.04,0Z"/><path class="d" d="M4.28,17.42s-.08-.22,0,0h0Z"/><path class="d" d="M4.45,18.54l-.16-.86c.05,.19,.18,1.01,.13,.71,.12,.59,.09,.43,.03,.16Z"/><path class="d" d="M4.54,19.02l-.04-.26,.04,.26Z"/><path class="d" d="M4.35,17.98l.09,.5,.06,.27c-.02-.07,0,0-.06-.25,0,.02,0,.02-.01-.05l-.08-.47Z"/><path class="d" d="M4.34,17.88c.04,.15,.08,.24,.11,.49,0-.05,0-.2-.04-.32-.04-.12-.08-.21-.07-.16Z"/><path class="d" d="M5.1,19.54l.12,.18-.02-.25c0,.12-.18-.15-.11,.07Z"/><path class="d" d="M4.51,20.12h0s-.01,0-.02,.02c.01-.02,.03-.02,.03-.02Z"/><path class="d" d="M4.5,20.12s0,0,.01,0c.03-.02,.06-.04,.09-.05-.04,.02-.08,.04-.1,.05h0Z"/><path class="d" d="M4.55,19.11c-.01-.16-.04-.31-.07-.46-.05-.17-.04-.2-.05-.31v.14l.07,.26c.03,.18,.06,.36,.06,.55v-.18Z"/><path class="d" d="M5.69,20.03h-.17l-.1-.02c.09,.03,.35,.02,.53,.04l-.26-.02Z"/><path class="d" d="M7.19,20.28c-.34-.06,.47,.09,.11,.02,.1,.02,.23,.05,.4,.08l.18,.04-.07-.02c-.09-.03-.21-.06-.32-.09,.06,.02,.08,.03,.06,.03h-.07l-.3-.06Z"/><path class="d" d="M7.19,20.2c.07,.03,.19,.07,.31,.1-.07-.02-.16-.05-.31-.1Z"/><path class="d" d="M5.07,20s.09-.01,.3,0h-.3Z"/><path class="d" d="M5.22,19.99h0c.16,0,.26,.03,.32,.03-.05,0-.14-.03-.33-.03Z"/><path class="d" d="M5.04,20h0Z"/><path class="d" d="M4.54,20.03s-.05,.12-.05,.11c.02-.02-.02,.03,.02-.02,.03-.05,0,.03,.03-.08Z"/><path class="d" d="M4.85,20.03c-.13,.02-.15,0-.23,.04,0,0,.04-.01-.01,0,.09-.04,.11-.02,.25-.04Z"/><path class="d" d="M5.05,20c-.07,0-.13,.02-.2,.03l.15-.02h.05Z"/><path class="d" d="M6.8,20.16c-.18-.06-.19-.08-.21-.11-.09,0-.14,.02-.14,.04,.13,.03,.36,.09,.35,.07Z"/><path class="d" d="M6.43,20.11h0Z"/><path class="d" d="M6.7,19.72l-.07-.02,.07,.03h0Z"/><path class="d" d="M6.36,20.07c-.08,0,0,.05,.14,.06-.05,0-.06-.04-.06-.05-.06-.02-.1-.02-.08-.01Z"/><path class="d" d="M7.03,20.07c-.09-.01-.17-.02-.24-.02,.13,.02,.35,.06,.24,.02Z"/><path class="d" d="M6.58,20.14h-.04c.09,0,.07,0,.04,0Z"/><path class="d" d="M6.58,20.14c.23,.04-.01,0-.07,0h.06s.04,0,.02,0l-.1-.02,.09,.02Z"/><path class="d" d="M4.2,18.58c.36,.17,.66,.4,.22,.35,.24,.2,1.5,.53,2.2,.77-.16-.06-.31-.11-.51-.25-.21-.07-.53-.05-.84-.22-.15-.17,.17-.03,.38,0-.47-.14-.61-.41-1.27-.7l.18,.22c-.11-.04-.25-.16-.36-.16Z"/><path class="d" d="M6.54,19.79l.04,.04c.08-.01,.23,.01,.54,.08-.17-.1-.31-.14-.43-.2-.03,0-.06,.06-.09,.1l-.05-.03Z"/><path class="d" d="M6.54,19.97c-.41-.14-.55-.28-1.02-.37,0,.11,.32,.18,.49,.28-.06-.16,.21,.11,.48,.08,.06,.05,.08,.07,.09,.09h.17c-.05-.01-.09-.02-.05-.02h0c-.06-.02-.11-.04-.15-.06,.1-.01,.11,.03,.15,.05l.06,.02h0l-.18-.2c-.07,.01-.07,.05-.04,.13Z"/><path class="d" d="M4.39,20.21l.08-.06s-.08,.05-.08,.06Z"/><path class="d" d="M4.6,20.08l-.05,.02s-.05,.03-.04,.02c-.03,.02,.04-.03-.04,.03,.08-.06,0,0,.04-.03h0s.13-.09,.18-.08c.07-.01,.11,0,.1,0-.04,0-.09,0-.19,.03Z"/><path class="d" d="M5.45,19.96c-.07-.03-.13-.08-.19-.14h-.38l.22,.03c-.09,.04,.18,.07,.35,.11Z"/><path class="d" d="M6.9,19.79l.42,.17c-.2-.08-.39-.17-.59-.26l.16,.09Z"/><polygon class="d" points="6.88 19.7 7.24 19.86 7.03 19.75 6.88 19.7"/><path class="d" d="M11.63,7.95l-.04-.12s.02,.08,.04,.12Z"/><path class="d" d="M11.35,8.19l.13,.15c-.06-.09-.11-.15-.13-.15Z"/><path class="d" d="M9.84,16.44c.3,.23,.74,.6,.44,.28l-.3-.31c.01,.09-.05,.08-.13,.03Z"/><path class="d" d="M10.83,11.93l-.11-.08c.09,.12,.18,.23,.26,.33-.05-.08-.1-.16-.15-.25Z"/><path class="d" d="M9.6,10.62l.27,.13c-.08-.05-.17-.1-.27-.13Z"/><path class="d" d="M12.73,6.23l-.27-.36c-.06,.07,.12,.2,.27,.36Z"/><path class="d" d="M7.64,18.39c.16,.07,.24,.09,.28,.08-.22-.12-.54-.33-.28-.08Z"/><path class="d" d="M14.75,11.35c-.03-.08-.09-.15-.15-.22,.03,.08,.07,.15,.15,.22Z"/><path class="d" d="M8.02,18.35l-.09-.05c.02,.08,.04,.15,0,.16,.17,.09,.29,.13,.1-.11Z"/><path class="d" d="M17.96,1.41l.05,.02s-.05-.04-.05-.02Z"/><path class="d" d="M22.62,2.78s-.02,.06-.03,.09c.03,0,.05-.01,.03-.09Z"/><path class="d" d="M7.27,19.4s.04,.03,0,0h0Z"/><path class="d" d="M5.74,18.6s-.09-.07-.17-.13c.09,.06,.14,.1,.17,.13Z"/><path class="d" d="M6.39,16.16h0c-.07-.05-.06-.04,0,0Z"/><path class="d" d="M7.08,19.33c.05,.02,.09,.03,.13,.04-.03-.01-.07-.03-.13-.04Z"/><path class="d" d="M7.26,19.44h-.05c.06,.04,.1,.06,.05,0Z"/><path class="d" d="M7.27,19.36s-.03,.02-.06,.01c.03,.01,.05,.02,.06,.03,0-.01,0-.03,0-.05Z"/><path class="d" d="M16.16,4.96l.04,.02c-.09-.16-.09-.13-.04-.02Z"/><path class="d" d="M7.74,12.28v.02h.03l-.03-.02Z"/><path class="d" d="M7.63,11.93c.32,.44,.24,.42,.13,.37l.88,.89-1.01-1.26Z"/><path class="d" d="M12.17,7.25l-.36-.2c-.35-.56-.12-.47-.58-.79,.94,.98-.23,.42,.7,1.4l-.26-.15s-.03-.07,0-.07c-.56-.36,.61,.78,.33,.78-.12-.03-.29-.13-.37-.28l.13,.35c-.05,.01-.21-.16-.16-.18l-.09,.24-.03-.03c.13,.18,.3,.46,.37,.59-.18-.1-.08-.12-.21-.23l.14,.33c-.28-.21-.45-.53-.35-.56-1.03-.89,.16,.32-.58-.06l-.03-.21c-.6-.5-.47-.23-.9-.48,.2,.16,1.04,.67,1.18,1.01-.1-.05-.17-.04-.03,.2-.34-.34-.31-.21-.36-.12l-.44-.46c.06,.2,.29,.43,.45,.68-.12,.03-.49-.3-.8-.58-.2,.05,.64,.48,.58,.72-.28-.07-.17,.19-.03,.59-.23-.08-.26-.29-.42-.4l.29,.43s-.13-.11-.18-.17c.08,.2,.44,.46,.48,.67,.47,.53-.9-.56-.45,.12-.15-.1-.26-.29-.44-.46,.22,.52,.14,.4,.51,1.02l-.4-.2c.41,.27,.72,.77,.96,1.18,.19,.14,.36,.26,.44,.31l.11,.38c-.09-.06-.23-.23-.4-.44l.08,.13c-.21-.12-.45-.41-.67-.7,.1,.07,.22,.15,.33,.23-.24-.31-.51-.65-.78-.91,.04,.06,.07,.12,.08,.17-.07-.08-.13-.16-.17-.2-.05-.04,.03,.07,.13,.21l-.53-.48,.19,.21-.49-.14c.38,.64,1.01,1.5,1.02,1.9-.32-.42-.59-.62-1.03-1.06,.52,.41-.04-.35,.16-.36-.1,0-.3-.22-.36-.3l.23,.61c-.35-.36-.31-.23-.5-.33,.74,.67,.33,.61,.47,.9-.24-.23-.47-.49-.32-.53-.63-.43,.7,.96,.15,.61,.02-.03,.07,0-.05-.13,.16,.26-.14,.22-.31-.01l.02-.03c-.22,.05-.42,.39,.13,1.04-.07-.08-.68-.77-.79-.9,.57,.77,1.12,1.56,1.67,2.35-.47-.56-1.73-1.77-1.88-2.18-.11-.04-.23-.1-.13,.16,.09,.06,.77,.73,.78,.81-.64-.52-.36-.26-.93-.68,.14,.08,.87,.97,.78,1-.1-.14-.76-.84-.82-.95l.6,.97c-.1-.18-.63-.72-.87-.92,.16,.15-.14,.1-.11,.22l.24,.14c-.28,.02,.88,1.33,.68,1.44-.13-.19-.9-1.11-1.08-1.14,.34,.47,1.67,2.22,1.82,2.68l-.25-.22,.14,.38c-.51-.7-1.53-2.24-1.89-2.87-.24-.14-.28-.27-.35-.16-.24-.2-.26-.4-.24-.44l-.36,.06c.46,.49,.28,.66,.66,1.06l-.22-.74c.46,.49,1.13,1.54,.9,1.6-.22-.16-.77-.91-.93-1.08,.13,.19,.14,.47,.02,.36l-.17-.33c-.26-.1,.46,.79-.09,.42-.07,0-.7-.53-.44-.23,.59,.5,2.21,2.23,2.57,2.69-.05-.03-.68-.37-.98-.6-.47-.38-.9-1.12-1.3-1.45,.12,.14,.25,.33,.28,.4-.15-.08-.38-.43-.4-.29,.46,.5-.21,.12,.36,.45,.05,.22-.18-.02-.26,.1,.34,.29,.97,1.15,1.03,1.36-.12-.13-.29-.27-.38-.33-.2,.11-.5-.01-.66,.14-.13-.1-.35-.16-.54-.39,.07,.11,.22,.28,.18,.34-.52-.3,.03-.18-.55-.58,.28,.28,.28,.5,.4,.74,.48,.38,.23-.08,.12-.32,.62,.57,1.16,1.29,1.33,1.69,.05,.25-.46-.31-.38-.21-.31,.14,.98,1.13,.37,.92-.48-.26-.85-.65-1.17-.87-.08-.24,.4,.05,.44-.03l-.27-.07c-.11-.14-.16-.3,0-.24-.44-.24-.41,.36-.92,.31,.12,.14,.24,.31,.43,.4l-.02-.11c.39,.19,.42,.45,.64,.49,.2,.25,.56,.58,.29,.55l-.54-.3c.15,.09,.36,.12,.22,0,.2,.18-.82-.25-.15,.2l.41,.14c.23,.23,.77,.59,.56,.57,.56,.24-.05-.05,.6,.23-.8-.37,.11-.13-.73-.52,.73,.37,.35,.09,.99,.4-.17-.11-.34-.19-.22-.19l-.14-.11h0s-.03-.03,0,0c-.08-.04-.18-.08-.28-.14-.37-.28-.29-.38-.46-.56,.11,.01,.18,.15,.37,.25l-.25-.27c.37,.25,.68,.34,.83,.58l.07-.07c.24,.11,.35,.11,.24-.05,.11,.02-.3-.41-.06-.15l-.11-.31,.09,.07c.15-.09-.31-.77,.43-.38-.04-.12-.09-.27,.07-.25l.29,.26c-.04-.15,.44,.1,.18-.21,.8,.68,.44-.11,.68-.08l-.34-.37c.1-.05,.07-.22,.02-.46l-.31-.32c-.16-.35,.43,.03,.54-.12,.11,.14,.04,.13-.05,.08,.84,.6-.15-.86,.5-.45-.07-.16,0-.14,.1-.08,0,0,0,.01,0,.03,0,0,.01,0,.02-.01l.21,.13c-.09-.07-.16-.12-.2-.14,.02-.03,.03-.11,0-.24l.34,.34s0,0,0-.02c.16,.09-.12-.2-.38-.45-.03-.08-.07-.17-.14-.27,.55,.55-.06-.3,.54,.28-.24-.33,.02-.43-.52-1.08,.08,.08,.12,.11,.1,.14,.11,.03,.23,.05,.11-.17l.43,.44-.44-.71c.32,.22,.49,.35,.74,.76-.33-.68-.05-.33-.4-.98l.26,.3c.04-.06-.25-.51,0-.31,.31,.22,.48,.1,.64-.04,.16-.13,.33-.28,.7-.16-.87-.78,.49,.25-.14-.4,.21,.18,.35,.26,.48,.47-.06-.32,.5,.11,.06-.52,.21,.18,.26,.32,.38,.42-.03-.05-.13-.21,0-.11,.13,.1,.14,.18,.21,.29,.1-.17-.48-.78-1.03-1.36,.33,.2,.33,.13,.01-.29,.21,.16,.44,.32,.42,.47,.07-.02,.56-.01,.11-.47,.13,.1,.1-.03,.06-.1,.13-.08,.18-.05,.24-.19l-.1-.05c-.5-.59-.03-.21-.01-.36l.05,.06c.58,.21-.1-.27,.53,0l-.35-.33c-.7-.75,.6,.27,.43-.12l-.23-.16c-.19-.31,1.15,.84,1.3,.87,.08,.05,.08,.12,.11,.19,.58,.28-.42-.47-.4-.69,.26,.22,.57,.64,.7,.61,.23,.16-.54-1.01,.03-.66-.21-.16-.41-.33-.49-.52,.02-.15,.92,.48,.42-.18,.06,.04,.11,.09,.16,.13-.08-.22-.04-.46-.31-.82,1.22,1.13-.16-.97,.91,.12l.14-.25,.1,.12c.2-.05-.01-.36-.23-.66,.1,.05,.18,.17,.23,.23,.4,.04,.38-.03,0-.72l.36,.34c-.16-.25,.81,.29,.59-.3,.04,.04,.1,.11,.14,.18-.2-.62,1.46,.49,.26-.87l-.18-.45c-.27,.07-.53-.58-.81-.72,0-.14,.56,.21,.54,.36l-.08-.05c.63,.7,.45,.02,.9,.48,.31-.37,1.01-.34,1.37-.64l-.56-.48,.14-.08c.15,.09,.45,.36,.35,.42,.34,.25-.11-.38-.22-.49,.37,.05,.55,.66,.61,.62l.03-.1-.08-.05c-.16-.26-.38-.49-.26-.56,.16,.04,.35,.28,.4,.28,.04,.04,.06,.05,.05-.02l.19-.1-.47-.35c-.14-.26,.15-.11-.38-.5,.82,.61,.78-.28,1.06-.13-.22-.38-.13-.47,.02-.54-.11-.06-.6-.49-.45-.53,.93,.96,.59,.23,1.36,.82-.53-.37,.14-.38-.62-.9,.15,0,.37,.34,.65,.5-.2-.55,.64-.19,.74-.55-.13-.12-.36-.27-.5-.5l.76,.47c-.02-.11-.7-.73-.18-.4-.12-.09-.3-.22-.31-.29,1.07,.11,.35-1.42,1.98-.84-.31-.16-.3-.23-.27-.28-.09-.02-.32-.29-.51-.44l.68,.23c-.46-.47,.16-.25-.3-.69l.03,.14c-.49-.58-1.35-.97-2.06-1.62,.56,.65-1.16-.59-.38,.37-.18-.1-.21-.23-.39-.36,.27,.31,.3,.41,.08,.38l-.07-.08c-.14,.31-.53,.14-.97,.22l.37,.3c-.1,.01-.22-.07-.33-.13,.47,.55,.18-.13,.71,.46-.78-.57-.38,.4-1.24-.29-.08,.08,.43,.35,.34,.43l-.24-.18,.26,.28c-.1,.01-.4-.21-.58-.38,.03,0-.02-.09-.02-.12-.32-.16-.11,.29-.21,.24l.21,.04c-.02,.43-.58,.45-.35,1.09l.18,.14c.13,.46-.31-.03-.36,.29l-.03-.04c.12,.19,.16,.32,.09,.36-.14-.23-.45-.26-.6-.53,.14,.5,.16,.33,.64,1.04l-.29-.23c.2,.28,.32,.4,.3,.57-.15-.3-.46-.33-.68-.71-.77-.37,.3,.87-.64,.13,.65,.81,.58,.23,.68,.43,.28,.19,.48,.61,.34,.6-.08,.05-1.05-.81-1.19-.64,.02-.01-.04-.07-.02-.08-.25-.12,.14,.37-.24,.14,.4,.48-.12,.07,.43,.64v-.27c.08,.23,.66,.96,.21,.78-.1-.12-.21-.31-.27-.42-.21-.12,.03,.19-.18,.06-.55-.57,.05-.3-.29-.81-.28-.19,.24,.57-.32-.08,.71,.83-.25,.06,.23,.75l-.33-.34c.04,.07,.16,.26,.12,.29l-.38-.49c.29,.46-.49-.16-.37,.13,.16-.18,.44,.36,.76,.53,.24,.66-1-.75-1.08-.35-.01-.08,.32,.08,.43,.29-.12-.02-.3-.09-.51-.24-.09,.23,.37,.32,.51,.59-.46-.35,.09,.24,.15,.45l-.34-.34c-.4-.04,.66,.76,.23,.66l-.4-.54,.04,.21-.37-.41c.19,.38,.09,.34-.11,.32,.26,.22,.6,.63,.53,.72-.26-.15-.29-.36-.36-.19-.19-.24-.42-.54-.06-.27-.1-.12-.19-.24-.29-.36-.29-.18-.2,.09-.24,.14,.03,0,.07,0,.12,.04l.3,.64c-.15-.1-.24-.23-.31-.35,0,.07,.14,.25,.11,.33-.26-.29-.55-.58-.61-.78l.15,.47c-.13-.11-.41-.25-.49-.38-.25-.08,.32,.76-.01,.65,.05,.06,.09,.12,.1,.19-.17,.05-.61-.2-.36,.31l-.57-.43c0,.21,.72,.53,.74,.89,.04,.28-.47-.38-.64-.48,.19,.31,.59,.93,.08,.63-.06-.13,.05-.08,.04-.16Zm-1.06,1.47c-.05-.1-.22-.37,0-.18,.36,.42,.15,.25,0,.18Zm-1.13,2.73c-.09-.13,0-.1,.15,0,0,.05-.03,.06-.15,0Zm-2.83,7.43l-.02-.02c.18,.07,.11,.04,.02,.02Zm-.24-.03s.1,.09,.16,.13c-.09-.08-.08-.11-.04-.11-.11-.07-.18-.11-.12-.02ZM18.83,6.88l-.11-.07c-.05-.15,.03-.05,.11,.07Z"/><path class="d" d="M9.75,10.77c.06,.05,.13,.11,.19,.18-.05-.07-.11-.13-.19-.18Z"/><polygon class="d" points="12.78 6.3 12.79 6.3 12.73 6.23 12.78 6.3"/><path class="d" d="M5.53,14.33c.07,.03,.15,.08,.22,.13-.08-.09-.16-.15-.22-.13Z"/><path class="d" d="M7.32,19.74l-.09-.1s-.08-.01-.16-.04c.1,.05,.24,.13,.25,.14Z"/><path class="d" d="M4.35,19.09c.05,.03,0,.03,.05,.06l.21,.07c0-.06-.15-.16-.26-.13Z"/><path class="d" d="M5.89,19.01c-.36-.19-.26-.08-.22,0,0,0,0,0,0,0,.5,.27,.36,.14,.22,0Z"/><path class="d" d="M5.67,19.03s0,.04-.01,.05c.2,.1,.05,0,.01-.05Z"/><path class="d" d="M7.05,19.13c-.1-.04,.42,.31,.27,.23,.4,.32-.41-.49-.27-.23Z"/><polygon class="d" points="4.68 18.43 5.14 18.64 4.8 18.42 4.68 18.43"/><path class="d" d="M5.28,18.14l-.18,.02c.07,.04,.11,.08,.13,.12,.05-.05,.17-.05,.05-.13Z"/><path class="d" d="M5.23,18.28s-.04,.06,.02,.12c0-.02,.01-.06-.02-.12Z"/><polygon class="d" points="4.63 18.22 4.73 18.24 4.8 18.18 4.63 18.22"/><path class="d" d="M6.07,17.27l-.03-.19c-.12-.12-.22-.17-.2-.09,.07,.1,.09,.18,.23,.27Z"/><path class="d" d="M4.78,16.68c.1,.04,.19,.11,.33,.2l-.48-.4,.14,.2Z"/><path class="d" d="M4.92,16.28c-.12-.12-.24-.47-.33-.32,.12,.12,.14,.32,.33,.32Z"/><polygon class="d" points="6.85 15.43 6.83 15.46 7.54 16.2 6.85 15.43"/><path class="d" d="M6.47,12.49c-.27-.08,.39,.49,.09,.36,.13,.2,.25,.11,.36,.29-.1-.25,.03-.17-.45-.65Z"/><path class="d" d="M6.91,13.14s.04,.09,.07,.15c-.02-.06-.05-.11-.07-.15Z"/><polygon class="d" points="23.27 2.88 23.49 2.94 23.19 2.76 23.27 2.88"/><path class="d" d="M22.82,2.24l.5,.41-.4-.43s.02,.1-.1,.02Z"/><path class="d" d="M10.01,7.97l.1,.12c.13,.11,.15,.1,.2,.09l-.31-.21Z"/><polygon class="d" points="11.28 7.42 11.25 7.42 11.69 7.81 11.28 7.42"/><path class="d" d="M11.53,6.12s0,.14-.04,.16c0-.14,.56,.36,.04-.16Z"/></g></g></g></g></svg>