<?xml version="1.0" encoding="UTF-8"?><svg xmlns="http://www.w3.org/2000/svg" viewBox="0 0 229.67 87.41"><g id="a"/><g id="b"><g id="c"><g><path d="M133.35,.38c.63,.05,.87,.03,.96-.07,.1-.09,.05-.23,.16-.24-1.22-.18-1.39,.06-1.38,.15,.02,.12,.27,.21,.25,.16Z"/><polygon points="141.32 5.2 141.07 5.33 142.95 5.22 141.32 5.2"/><path d="M152.75,7.24c-.95-.91-4.16-.66-6.15-1.27l-.31-.22-1.02,.4c2.49,.34,5.77,.55,7.47,1.08Z"/><path d="M158.51,9.95c-.32-.35,1.36,.03-1.39-.37,.13,.06,.17,.08,.24,.12,.25,.04,.58,.11,1.15,.25Z"/><path d="M157.36,9.7c-1.2-.22,.74,.38,0,0h0Z"/><path d="M162.9,10.7l-1.62-.1c.29,.23,1.68,.57,1.14,.57,1.64,.22,1.34-.02,.48-.48Z"/><path d="M164.5,10.52l-.84-.07c.13,.1,.34,.17,.84,.07Z"/><path d="M161.89,10.29l1.77,.16c-.2-.16-.18-.39-.81-.09,.19-.18-.2-.05-.96-.06Z"/><path d="M160.93,9.97c-.85-.34-1.97-.67-.34-.58-3.03-.53-2.69,.05,.34,.58Z"/><path d="M153.47,6.63l-1.15-.43-1.07,.04c.54-.02,2.25,.63,2.22,.39Z"/><path d="M172.54,13.31c.13-.12-.43-.52-.5-.74l-1.19-.11c.57,.24,1.67,.61,1.69,.85Z"/><path d="M172.05,12.57l1.79,.17c-1.53-.41-1.84-.36-1.79-.17Z"/><polygon points="164.95 9.81 161.98 9.72 165.5 9.92 164.95 9.81"/><polygon points="179.09 15 178.03 15.08 179.89 15.03 179.09 15"/><path d="M183.43,16.12c-.79,.08,.85,.74,.04,.71,1.19,.28,2.26,.32,3.22,.36-.99-.15-2.01-.48-3.26-1.07Z"/><path d="M188.29,17.32c-.5-.07-1.02-.09-1.6-.12,.52,.08,1.05,.13,1.6,.12Z"/><path d="M176.74,13.56c.11,.12,.31,.42,1.24,.77l-.57-.59c-.21-.05-.44-.12-.68-.18Z"/><path d="M177.4,13.72l.02,.02c.73,.2,1.23,.35,1.45,.41-.19-.05-.63-.18-1.47-.43Z"/><path d="M176.57,13.51l.17,.05c-.05-.06-.09-.08-.17-.05Z"/><path d="M169.4,11.22c1.07,0,3.25,.26,1.28-.58-.8,.11,.33,.59-1.28,.58Z"/><path d="M175.86,12.78l-1.81-.56c0,.12,.3,.36-.23,.35l2.04,.21Z"/><polygon points="176.79 12.88 175.86 12.78 176.53 12.99 176.79 12.88"/><path d="M185.31,16.04c.83,.04,1.7,.27,2.67,.53-1.01-.38-2.07-.73-3.09-1.02-.18,.09-.69,.19,.42,.49Z"/><path d="M181.48,14.85l.18,.02c-.1-.06-.18-.1-.18-.02Z"/><path d="M197.34,19.55l-.12-.13s-.04,.04-.06,.06l.18,.07Z"/><path d="M184.73,15.42c-.76-.3-1.25-.32-1.74-.32,.6,.12,1.22,.26,1.89,.45,.08-.04,.1-.08-.15-.13Z"/><path d="M190.98,17.91c-.37-.21-.81-.42-1.27-.63,.35,.25,1.09,.69,1.27,.63Z"/><path d="M181.89,15.06h-.12c.23,.15,.21,.09,.12,0Z"/><path d="M181.89,15.06c.42,.05,.76,.04,1.1,.03-.48-.1-.94-.18-1.34-.22,.09,.06,.17,.13,.23,.19Z"/><path d="M201.1,18.01c-.28,.31-2.4-.1-4.01-1.1-1.83-.3-1.09,1.3,.13,2.51,.11-.14,.17-.31,1.98,.11-.52-.44-3.71-1.85-2.11-1.67,2.4,.62,1.86,.82,2.91,1.42-.78-.83,3.18,.46,2.95-.4-.71-.2-1.41-.38-2.12-.56,0-.12,.8,0,.28-.32Z"/><path d="M193.9,18.26l-.74-.19c.8,.33,1.35,.67,2.32,1.33,1.26,.22,1.55,.18,1.67,.08-1.17-.43-2.34-.85-3.53-1.25l.27,.02Z"/><path d="M189.89,17.06c.69-.24,2.51,.12,1.57-.65-2.16-.63-1.61-.11-2.95-.32,3.51,.93-1.07-.07,1.37,.91-.7-.13-1.32-.29-1.91-.44,.61,.23,1.19,.47,1.74,.72l-.07-.05h-.01c-.13-.1-.17-.15-.01-.07,.01,0,.06,0,.07,.01,.04-.05,.12-.08,.2-.11,.97,.39,.13,.15-.2,.11-.02,.02-.05,.03-.06,.05h.01l3.52,.85c-.71-.29-1.63-.57-3.27-1.01Z"/><path d="M172.8,10.2c.1,.06,.09,.09,.09,.13,.24,0,.34,0-.09-.13Z"/><path d="M174.2,10.81c-.27,0-.53,.11-1.36-.14-.7-.3,.05-.2,.05-.35-.53-.01-1.84-.13-.31,.46h.26c1.4,.49,3.09,1.48,2.83,1.48-.32-.48-.62-.85-1.48-1.45Z"/><path d="M182.22,13.77l2.98,.61-1.39-.77,.02,.24c-1.64-.54-1.36-.18-1.61-.07Z"/><polygon points="197.6 19.87 197.07 20.17 198.91 20.15 197.6 19.87"/><polygon points="201.24 21.18 200.97 21.49 202 21.65 201.24 21.18"/><path d="M60.4,79.03l-.9-.08c.42,.06,.69,.08,.9,.08Z"/><path d="M66.7,80.48l.2-.16c-.32,.04-.46,.09-.2,.16Z"/><path d="M185.31,77.1c-1.33,0-2.84-.21-2.58,.18l.49,.33c.84-.3,1.51-.44,2.1-.5Z"/><path d="M119.84,85.08l.38,.15c.32-.14,.62-.26,.9-.38-.38,.07-.82,.15-1.27,.23Z"/><path d="M118.84,86.83l-1.71-.35c.38,.11,.93,.23,1.71,.35Z"/><path d="M25.83,69.36l-1.18-.05c1.55,.7,.96,.19,1.18,.05Z"/><path d="M225.86,46.11c-.06,.49-.25,.9-.34,1.29-.11,.39-.19,.74-.25,1.07,.41-1.09,1.01-2.02,.59-2.36Z"/><path d="M63.9,75.09c-.55-.05-.8-.01-.81,.09,.57,.05,.9,.04,.81-.09Z"/><path d="M224.41,51.15c.11-.14,.21-.29,.3-.44,.12-.71,.32-1.41,.55-2.24-.17,.4-.42,.81-.56,1.26-.16,.44-.21,.93-.3,1.42Z"/><path d="M78.03,1.34c.09,.02,.21,.03,.29,.06,.03-.06-.1-.06-.29-.06Z"/><path d="M114.13,11.91c-.36-.08-.92-.25-1.46-.41,.25,.11,.69,.24,1.46,.41Z"/><path d="M214.79,28.3c-.68-.42-.13-.03,0,0h0Z"/><path d="M212.37,24.76c.18,.05,.32,.06,.39-.02-.11,.06-.25,.06-.39,.02Z"/><path d="M222.48,59.24l-.05,.05c.23-.13,.19-.11,.05-.05Z"/><path d="M213.91,27.48c.22,.21,.48,.44,.78,.67-.12-.12-.35-.32-.78-.67Z"/><path d="M213.93,27.74c-.22-.17-.39-.3-.56-.41-.13,.01-.06,.08,.56,.41Z"/><path d="M215.7,28.92c-.37-.26-.69-.53-1.02-.77,.11,.11,.15,.17,.11,.16,.2,.12,.46,.31,.91,.62Z"/><path d="M12.07,20.5c.05-.03,.11-.06,.17-.09,.57-.68,.28-.42-.17,.09Z"/><path d="M164.76,85.58l.09-.03h-.13l.03,.03Z"/><path d="M161.77,86.24c1.24-.66,1.97-.69,2.96-.69l-1.14-1.13c-.6,.62-1.21,1.22-1.82,1.82Z"/><path d="M45.17,75.59l1.98,.91c-2.67-.02-4.44-.72-2.62,.32,.64-1.19,8.14,1.87,8.74,.59l1.31,.59c-.39-.1-.47-.04-.85-.14,2.52,1.24,2.19-.51,5.57,.44,1.17,.37,1.95,.74,1.11,.72l2.72,.27c.76,.2,.52,.39-.24,.19l4.06,.81-.04,.03c.63-.08,2.02-.11,2.69-.1,.99,.42-.55,.03-.32,.25,.78,.06,1.55,.13,2.33,.17,.85,.53-1.1,.49-2.65,.08,1.83,1.8,1.94,.08,6.36,1.78l-2.18-.27c1.23,1.04,2.97,1.1,5.32,2.01-.54-.35-4.66-2.09-2.12-1.96,.68,.23,1.59,.44,2.97,.42-.07,.47,1.25,.62,2.89,.84l-.22,.61c1.8,.11,1.71-.24,2.8-.35,1.96,.39,2.3,.91,2.7,1.4,3.15,.56-2.07-1.1,1.69-.68,2.59,.64,4.49,.58,7.68,.59,1.82,.42-.37,.35,.27,.61l1.69-.33c.4,.06,.25,.2,.18,.27,1.4-.05,.18-.62,2.36-.56,.65-.65,4.35,1.46,7.11,.85,.65,.23-.35,.37-.17,.63,3.73-.25,3.19-.14,6.26-.67l2.56,.57c-1.87-.58,.58-1.01,2.71-1.41-.66-.26-1.22-.49-1.6-.6l3.38-.21c.4,.12,.06,.33-.51,.57,.23-.05,.45-.09,.62-.13,1.2,.29,.56,.63-.32,.95-.4-.15-.81-.3-1.2-.44-.85,.35-1.65,.75-1.49,1.13,.22-.06,.65-.11,1.12-.13-.22,.1-.37,.18-.27,.25,.11,.07,.47-.06,1.03-.2l.74,.74,.2-.28c1.47,.21,2.95,.38,4.43,.57,3.2-.65,5.96-1.67,10.97-2.02-1.24,.53-.26,.86-.32,1.48-1.38-.65-3.9,.33-6.51,.15,1.36,.08,1.06,.37,.71,.47,1.56-.18,3.11-.39,4.66-.6-.1,.51,.99,.37,2.21,.57-.93-.97,3.46-.75,5.34-1.1,.13,.33-.32,.69-2.63,.66,2.58,.7,3.26-1.26,5.78-.72-.56,.03-.87,0-1.09,.17,1.3-.34,4.53-.25,3.79,.07l-.56,.04c3.75-.02,11.41-.74,11.88-1.68,.05,.11-.39,1.07-.6,1.26,2.14-1.16,4.25-2.35,6.32-3.56-.5,.79,1.98,2.25-1.07,3.03,.9,0,2.03-.01,3.87-.53-.62-.02-1.65-.84-.84-1.02,2.38,.49,1.63,.23,4.54,.46-.93-.01-.11-1.3,1.32-1.5-.19,.21,.31,1.1-.19,1.3l3.34-1.76c-.84,.36,.03,.98,.88,1.12-.41-.15,3.08-.61,3.99-.97-.52,.04-1.04,.07-1.56,.09,4.03-.76,3.55-2.45,7.42-3.46-.4,.34-.76,1.72,1.26,1.26,.37-.42,1.17-1.39,2.25-2.44,1.07-1.11,2.44-2.22,3.98-3.08l.74,.06c.79-.44,1.58-.87,2.34-1.36-.58,.75-1.82,1.93-3.2,3.18-1.39,1.2-2.94,2.43-4.1,3.16,1.55-.21,.53,.24,2.71-.54,.88,.02-1.04,.86-1.68,1.1,1.72-.54,3.46-1.03,5.16-1.65-.23-.27,.67-.8,1.57-1.32,.89-.55,1.79-1.1,1.58-1.31-1.68,1.02-3.42,1.91-5.16,2.83-.22-.27,.4-1.02,1.51-1.86,1.12-.82,2.69-1.8,4.43-2.5,.99-.14-.16,1.38,0,1.55,.38-.37,3.08-1.94,3.47-1.94l-1.3,1.03c2.04-.7,2.71-2.3,5.23-2.98,.79-.38,2.72-.57,2.65-1-1.64,.1-3.04-1.83-2.55-2.8,.14-.06,1.19-.47,2.32-.92,1.12-.47,2.36-.95,2.85-1.1,.75-.17,.53,.43,.27,1.05-.26,.61-.58,1.21,.08,1.09-.05-.17,.47-.83,.7-1.08,.84-.41,.02,.69,1.61-.56-.13-.74,3.25-2.5,.4-1.04,.71-.69,1.14-.98,1.61-1.29,.46-.33,.97-.68,1.82-1.46-.83,.17,.51-2.48,1.57-4.04,.06,.2,.51,.02,.72-.07,.32-.37,.65-.71,.93-1.05l.79-1c.26-.32,.5-.62,.74-.92,.21-.32,.42-.63,.63-.94,.41-.62,.85-1.23,1.17-1.96,.33-.72,.77-1.44,1-2.36,.26-.27,.99-1.99,1.04-1.16,.06-.56-.14-1.13,.05-2.28,.96-2.21-.34,2.64,.64,1.02-.19-.11-.17-.91-.17-1.88-.12-.98-.11-2.14-.33-2.96-.22,.28-.31,1.22-.25,2.33,0,.28,.05,.56,.04,.85-.01,.29-.03,.57-.04,.85-.01,.57-.03,1.1-.04,1.53-.41-.09-.71-.9-.9-2.09-.04-.59-.29-1.3-.4-2.06-.09-.38-.08-.78-.22-1.19-.12-.41-.23-.84-.33-1.28-.13-.7-.18-1.13-.22-1.38-.02-.26,.03-.35,.1-.38,.14-.05,.36,.19,.24-.04-.28-1.34-.72-2.23-1.14-2.88-.39-.66-.84-1.05-1.2-1.43-.79-.74-1.41-1.36-2.59-3.25-.76-1.71,.76-.77,.79-1.32,1.78,1.75,2.03,3.2,2.81,4.62-.22-.64-.51-1.26-.81-1.88,.58,.55,1.54,1.93,1.73,2.83-.07-.82-1.14-3.05-2.93-5.2-.86-1.1-1.92-2.14-2.93-3.14-1.04-.96-2.04-1.85-2.88-2.6-.74-.33-1.97-.94-1.56-.4,.4,.24,.78,.5,1.18,.75,.77,1.09-2.46-1.03-1.16,.15-1.69-.81-3.66-1.48-5.81-2.92l-.14-.77c-.03,.19,1.33,1.12,2.04,1.33-1.04-.33-3.13-2.65-4.57-2.43,.49,.38,.97,.79,1.45,1.19-1.79-.57-4.11-.93-6.15-1.98,.72,.97,.52,.13,1.72,1.43-.47-.68,.87-.1,2.09,.48,1.22,.57,2.31,1.15,1.52,.22,1.11,1.47,2.4,1.63,3.87,3.31,.05-.21-.44-.73,1.1,.34,.1,0,.31,.03,.44,.07l.1,.08-.07-.08c.08,.02,.09,.02-.03-.03-.33-.32-.58-.59-.65-.77,1.07,.07,3.54,1.79,4.46,2.25,.82,.77-.51-.11-.16,.44,.47,.21,.94,.44,1.39,.68-.15,.43,1.64,2.5-.41,.98,.58,.5,1.11,1.04,1.64,1.57,.77,1.12,1.77,2.56,2.54,3.34,.49,.89,1.72,1.98,1,1.37,.31,.47,.62,.95,.86,1.46,.29,.49,.5,1.01,.72,1.53l-.1,.06c.22,.8,.48,1.6,.6,2.45,.08,.43,.17,.85,.25,1.29,.09,.43,.05,.88,.08,1.32,0,.45,.05,.9,0,1.35-.07,.45-.15,.91-.25,1.36-.05,.23-.09,.46-.15,.68l-.28,.66c-.19,.44-.41,.87-.64,1.29-.17,.54-.36,1.09-.6,1.73-.22,.65-.7,1.3-1.21,2.12-.18,.04-.34,.08-.52,.11-.41,.63-1.07,1.52-1.81,2.25-.72,.74-1.32,1.42-1.43,1.78-.48,.11-1.06,.48-1.68,1.01-.66,.49-1.37,1.13-2.12,1.81-1.52,1.31-3.18,2.72-4.39,3.41l.2,.48c-1.61,1.04-3.11,2.15-5.12,3.5l.35,.32c-1.66,1.35-4.9,2.26-7.92,3.59,.14-.25,.92-.54,1.51-.68-1.01,.16-1.97,.49-2.9,.91-.94,.4-1.87,.85-2.78,1.33-1.83,.91-3.65,1.83-5.49,1.99-.81,.42-1.44,.57-2.08,.63,.08-.02,.15-.05,.21-.08-.09,.02-.22,.06-.36,.09-.4,.03-.82,.05-1.27,.1,.39,0,.76,0,1.08-.05-.66,.19-1.66,.52-2.63,.91l-.54-.36-.23,.07c-1.02,.07-.73,.41-.12,.64-.49,.2-.93,.4-1.26,.6-.97-.55-2.59,.87-3.87,.29-.59,.57-5.04,1.29-5.45,2.2-.05-.1-.36-.11,.19-.2-1.16,.08-2.32,.19-3.31,.57l-.58-.54-2.4,1.16c-1.58-.18-2.23-.33-.78-.97-3.57,1.15-2.93,.62-5.99,1.64l.12-.41c-1.11,.13-2.87,.79-3.57,.52-1.28-.27-4.39-.09-7.99,.07-3.6,.14-7.71,.25-10.94-.06,1.27,1.16-3.01-.5-3.25,.41-.38-.27-1.28-.42-.23-.67-3.29,.26-4.94-.45-7.22,.26-.37-.29,.71-.39,.38-.56-.26,.05-1.05,.21-1.39,.04-.33-.17,.49-.22,1.01-.33-3.35-.04-3.72,.81-3.99,1.59-1.7-.45-2.55-.43-3.8,.04-.58-.28-1.56-.6,.54-.61-1.18-.06-7.16-.77-7.32-.14-.36-.19-1.64-.17-1.95-.12-2.64-.23-2.86-.3-5.45-.48l.71,.17c-1.09,.67-2.17,0-4.26-.14l.07-.07c-4.71-1.08-2.1,.08-6.72-1.14l.2,.51c-.28,.48-1.31,.2-2.61-.2-1.3-.42-2.86-.96-4.25-.96l.94,.41c-1.55,.15-3.93-2.03-5.39-2.39-.31-.14,.53-.06,.99-.05-3.77-1.24-.61,.56-3.52,.19-.47-.43,.83-.72-1.09-1.14-.91-.42-5.82,.02-8.33-1.18,.52,.38,1.05,.77-.33,.66-2.06-.36-5.29-2.19-7.35-1.82-.25-.13-.33-.22-.33-.28-1.62-.14-5.18-.79-6.22-.57-1.09-1.91-9.89-1.46-9.48-2.98-1.59-.39-3.18-.76-4.75-1.19l.17-.12c-2.98-.93-4.11-.97-5.28-.93-.66-.32-.11-.29-.03-.35-2.12-.85-3.25-1.36-4.38-1.66-1.09-.36-2.16-.55-4.07-.93l-.16-.62c-.51-.1-1.97-.89-3.71-1.98-.86-.56-1.86-1.09-2.82-1.7-.96-.61-1.99-1.15-2.98-1.63,.07-.03,.18-.04,.52,.08-1.09-.57-2.18-1.36-3.24-2.21-.98-.94-1.98-1.86-2.81-2.8-.81-.96-1.61-1.78-2.3-2.43-.67-.67-1.32-1.1-1.96-1.16-.76-.75-1.53-1.53-2.23-2.35,1.11,1.77,.91,1.74,.44,1.49-.45-.25-1.12-.77-.72,.03-.58-.64-.97-1.7-1.17-2.3-.18-.61-.09-.82,.48,.03l.09,.32c.3,.04,.3-.23,.14-.66-.18-.42-.44-1.03-.7-1.65l-.4-.92c-.11-.3-.18-.6-.25-.85-.13-.5-.16-.85,0-.87-.58-1.87-.86-3.81-.72-5.71,.17-1.9,.69-3.73,1.48-5.45,1.61-3.44,4.22-6.34,7.02-8.89-.39,0-.76,.04-1.14,.07,.64-.62,1.36-1.18,2.04-1.78,.68-.3,1.07-.18-.38,1.05,.99-.37,2.26-2.3,2.22-2.47,3.23-1.99-.68,1.55,.28,.88l1.22-.97-.33,.14c.84-.99,.76-1.32,2.74-2.57,1.34-.65,.88-.01,1.39-.29,.03,.05,.2-.04,.77-.44,1-.55,2-1.1,3.02-1.6l-1.49,.13c1.22-.97,2.89-1.49,1.17-1.32,1.28-.1,4.19-1.45,7.09-2.59,2.88-1.17,5.72-2.14,6.45-2.2,1.92-1.05,4-1.53,6.6-2.05-.67,.03-1.2-.52,1.06-.95-.55,1.44,4.23-.24,6.21,.39-1.73-.4,6.38-1.08,3.7-1.61,1.9-.16,.18,.48,1.65,.59,4.44-1.03,9.94-.62,15.5-.84,.09-.18-.85-.43,.35-.71l2.95,.92c1.1-.06,1.04-1.04,3.04-.33-.28-.16-.7-.41,.05-.43,5.47,.62,11.03,1.06,16.6,1.87,5.56,.8,11.1,2.14,16.16,4.53-1.34-.76-.37-.5,.73-.18-.69-.29,.14-.41,.07-.68,1.43,.64,2.83,1.36,4.21,2.09,.51-.17,1.7,.21,2.82,.63,1.12,.44,2.19,.86,2.54,.66l-1.41-.44c2.11,.03-1.97-2.57-1.4-3.33-1.2,.03-2.49-.75-3.98-1.56-1.5-.74-3.22-1.49-5.15-1.44-.73-.41,.75-.1,.39-.44-1.01,.13-2.13-.05-4.11-.75l.25-.04c-1.43-.36-2.66-.64-3.8-.9-1.14-.27-2.18-.55-3.24-.84-1.07-.25-2.16-.51-3.39-.8-.62-.14-1.27-.29-1.97-.45-.71-.13-1.46-.26-2.28-.41l.42,.53c-1.4-.25-1.68-.44-2.33-.64-1.7,.5,3.96,.56,2.38,1.15-1.74-1.28-9.93-1.14-11.14-2.19-2.19-.12,.61,.58-1.57,.46l-.57-.33-.57,.35c-1.43-.12-2.15-.47-2.2-.73,.35,.03,1-.06,1.37-.07-1.86-.36-5.27,.02-5.91-.04,.7,.03,1.41,.11,2.11,.18-5.98,.24-13.33,.34-18.98,1.73l.46,.16c-4.29,1.04-3.53,.21-8.26,1.29l.16-.08c-.91,.38-2.15,.75-3.44,1.03,1.14-.53-2.35,.01-.85-.63-2.29,.74-2.84,.97-3.19,1.21-.34,.24-.49,.44-1.89,1.28l-.81-.15c-.94,.63-.97,.82-3.22,1.69,1.76-.97-1.64-.01,.32-1.16-2.55,.46-4.26,1.36-5.62,2.11-1.37,.75-2.41,1.35-3.72,1.33-.83,.98,.22,.61,1.35,.13,1.14-.48,2.36-1.07,1.8-.71,1.13-.12-1.45,1.46-2.91,2.08-.73,.34-1.49,.35-2.52,.54-1.04,.18-2.35,.53-4.12,1.61,.35-.21,.34-.29,.69-.5-.73,.29-1.33,.77-1.98,1.25-.64,.5-1.31,1.01-2.22,1.37-.5,1.14-2.04,1.43-1.78,2.27,.96-.82,1.94-1.63,2.96-2.37-1.66,1.4-2.73,3.25-5.61,5.26,.1-.3,.74-1.15,1.21-1.72-.92,.52-1.42,1.41-2.33,2.01-.08-.2,.08-.51,.38-.9,.32-.37,.8-.81,1.33-1.29,1.07-.94,2.38-1.96,3.15-2.87-1.14,.36-3.13,3.16-2.75,1.76-.32,.94-1.1,1.62-2.03,2.36-.45,.39-.93,.8-1.38,1.28-.45,.49-.85,1.07-1.18,1.74l-.23-.45c-.27,.38-.68,1.28-1.21,1.93l.48-1.59c-.55,1.1-1.34,1.91-2.09,2.81-.4,.43-.76,.88-1.08,1.38-.32,.49-.65,.98-.82,1.57,1.14-2.21,1.46-2.33,1.56-2.18,.13,.18,.08,.63,.79-.11-1.28,2.64-1.78,3.32-2.53,4.05-.6,.78-1.61,1.63-1.97,5.21-.04-1.01,.97-3.46,.84-1.97-.22,.63-.39,1.38-.55,2.08-.09,.35-.18,.68-.25,.98-.06,.3-.12,.57-.18,.78,0,1.19,.08,1.73,.18,1.9,.07,.18,.12,0,.17-.26,.1-.52,.3-1.36,.44-.39-.43,1.59,.42,2.23,1.07,4.04l-.46,.14c.25,1.26,.58,1.92,.78,2.31,.21,.39,.39,.48,.56,.55,.36,.14,.6,.25,1.45,2.28-.53-.41-.96-.91-1.45-1.38,.39,.69,.77,1.38,1.24,2l-.73-.15c1.65,2.02,2.02,2.68,3.42,4.73-.1-.65,.88-.3,2.28,1.29,.82,1.22-.91-.26,1.28,1.83-.68-.27-1.54-.52-2.1-1.81-.21,0-.67-.32-.88-.33,.2,.36,.45,.74,.75,1.1,.32,.35,.66,.69,1.01,1.02,.7,.64,1.35,1.24,1.76,1.62-.29-.32-.64-.7-.78-.93,1.17,.93,2.51,1.63,3.75,2.41,.42,.58-.09,.35-.6,.11,.36,.27,.69,.46,1.07,.67,.39,.19,.82,.42,1.36,.78-.5,.11-.7,.53-2.3-.48,1.2,.77,2.47,1.42,3.68,2.12,.12,.32,1.59,1.52,1.04,1.37,.95,.69,2.26,1.33,3.7,1.84,.71,.27,1.45,.55,2.16,.87,.72,.31,1.44,.61,2.1,1,.18,0,.49,.06,1.11,.28,2.57,1.22,4.78,2.57,8.13,3.15l1.59,1.25c2.55,.63-2.18-1.61,2.05-.56,3.01,.66,.93,.9,1.91,1.39,1.58,.1,4.31,.08,6.89,1.32-.93-.09-1.62-.38-2.47-.55Zm31.1,6.68c-.63,0-1.9,.04-2.29-.32,.8-.41,1.28-.03,2.29,.32Zm48.2,3.89c-.46,.15-1.17,.05-1.96-.15,.58-.03,1.24,0,1.96,.15Zm96.98-52.53s.04,.02,.06,.03c.65,1.07,.43,.69-.06-.03Zm-1.65-2.05c-.24-.14-.27-.07-.24,.05,.22,.04,.67,.44,1.09,.96-.04-.22-.19-.55-.85-1.01ZM21.23,18l-.52,.17c.96-.76,.74-.47,.52-.17Z"/><path d="M118.97,86.63c-.17-.09-.22-.18-.25-.27-.25,.07-.26,.16,.25,.27Z"/><path d="M26.04,69.36l-.09-.05c-.06,0-.1,.02-.13,.04h.22Z"/><path d="M215.13,68.31c-.53,.3-.85,.42-1.09,.46,.04,.12,.33,.06,1.09-.46Z"/><path d="M207.51,24.37l1.62,.68c-.76-.36-.99-.59-1.34-.85-.01,.12,.21,.41-.28,.18Z"/><path d="M194.12,15.92c-.27-.03-.54-.17-.81-.19v.24c1.08,.33,1.89,.41,.81-.05Z"/><path d="M206.72,22.21c.04-.43-1.04-.77-2.23-1.2,.07,.03,.14,.05,.21,.09-.56,.37,.74,.73,2.02,1.12Z"/><path d="M204.22,20.91c-.37-.13-.73-.28-1.08-.44-.22,.15,.42,.22,1.08,.44Z"/><path d="M217.08,29.57c-.38-.43-.6,.19-.75-.14-.81,0,3.33,1.86,.75,.14Z"/><polygon points="206.34 20.58 206.55 21.22 207.37 21.15 206.34 20.58"/><path d="M215.01,25.62l-1.65-1.19c-.02,.09-.26,0-.56-.12,1.07,.64,2.17,1.45,2.21,1.31Z"/><path d="M212.81,24.31c-.56-.33-1.1-.63-1.46-.73,.32,.15,.97,.52,1.46,.73Z"/><path d="M208.93,21.62l.49,.36c.42,.23,.85,.45,1.26,.69-.58-.36-1.17-.7-1.76-1.05Z"/><path d="M227.58,42.29c.12,.71,.31,1.42,.37,2.15,.08,.11,.15,.01,.2-.21,.03-.23-.02-.58-.1-.99-.18-.51-.35-1.31-.47-.95Z"/><path d="M226.67,35.46c.2,.6,.12,.69,.14,1.07l.59-.21-.73-.86Z"/><path d="M229.04,41.81c.2,.18,.91,3.38,.5,.36-.16-.23-.73-2.52-.5-.36Z"/><polygon points="211.28 68.85 211.75 68.53 211.13 67.72 211.28 68.85"/><path d="M184.7,82.65c2.66-.48,.45-.78,2.88-1.13,.54-.4-1.98,.29-1.41-.08-1.49,.68-2.36,.74-1.47,1.21Z"/><path d="M186.17,81.44c.24-.11,.49-.23,.75-.37-.43,.19-.63,.29-.75,.37Z"/><polygon points="119.69 14.45 121.16 15.26 120.29 14.55 119.69 14.45"/><path d="M122.94,14.93l.12,.75,1.16-.17c-.36-.11-1.06-.33-1.27-.57Z"/><path d="M80.72,84.41l.16-.13c-.23-.21-.63-.3-1.41-.47l1.26,.6Z"/><polygon points="58.18 79.18 58.56 79.28 57.97 78.55 58.18 79.18"/><path d="M39.05,75.2c.77,.24,1.72,.38,2.49,.62-1.72-.38-2.49-1.38-2.49-.62Z"/></g></g></g></svg>