<?xml version="1.0" encoding="UTF-8"?><svg xmlns="http://www.w3.org/2000/svg" viewBox="0 0 53.53 30.33"><g id="a"/><g id="b"><g id="c"><g><g><path d="M51.44,8.89c-.17-.12-.26-.19-.55-.39-.14-.09-.22-.13-.29-.13-.14,0-.19,.14-.29,.06,.21,.28,.45,.48,.61,.58,.16,.1,.28,.15,.38,.18,.21,.06,.25,0,.27-.05,.05-.1-.13-.31-.13-.25Z"/><polygon points="52.16 5.52 52.18 5.35 51.99 5.76 52.16 5.52"/><path d="M50.98,5.47c.08,.72,.43-.09,.63,.17l.03,.16,.11-.57c-.25,.09-.6,.46-.77,.24Z"/><path d="M50.45,3.9c.02,.28-.15,.23,.14,.09l-.02-.07s-.06,0-.12-.02Z"/><path d="M50.56,3.92c.12-.01-.07-.24,0,0h0Z"/><path d="M50,4.05l.17-.24c-.02-.17-.16-.21-.1-.33-.17,.13-.15,.29-.08,.56Z"/><path d="M49.81,4.56l.09-.1c0-.07-.03-.09-.09,.1Z"/><path d="M50.09,4.25l-.19,.21c.02,.12,0,.35,.09-.08-.03,.21,.02,0,.1-.14Z"/><path d="M50.18,4.36c.08,.16,.19,.26,.01,.5,.31-.08,.3-.58-.01-.5Z"/><path d="M50.89,6.21l.11,.22,.12-.23c-.06,.12-.23-.21-.23,.02Z"/><path d="M49.04,3.6c-.02,.15,.02,.41,.01,.6l.13-.16c-.05-.11-.16-.21-.15-.44Z"/><path d="M49.05,4.2l-.2,.24c.16,.04,.2-.08,.2-.24Z"/><polygon points="49.72 5.35 50.06 4.82 49.67 5.35 49.72 5.35"/><polygon points="48.37 3.52 48.5 3.18 48.27 3.69 48.37 3.52"/><path d="M47.92,3.53c.1-.28-.05-.5,.05-.67-.13,.04-.26,.28-.37,.49,.11-.11,.21-.07,.33,.18Z"/><path d="M47.4,3.66c.06-.06,.12-.18,.19-.31-.06,.06-.12,.15-.19,.31Z"/><path d="M48.56,4.34c0-.09,0-.33-.1-.44l.03,.43h.07Z"/><path d="M48.49,4.35h0l-.15-.05,.15,.05Z"/><path d="M48.57,4.35h-.02s0,.05,.02,0Z"/><path d="M49.28,4.92c-.12,.23-.37,.47-.18,.85,.1-.28,0-.5,.18-.85Z"/><path d="M48.61,4.89l.18,.11c0-.11-.01-.28,.05-.39l-.23,.28Z"/><polygon points="48.5 5.01 48.61 4.89 48.54 4.84 48.5 5.01"/><path d="M47.68,4.09c-.1,.18-.19,.18-.3,.2,.1,.1,.21,.15,.31,.16,.03-.13,.1-.37-.02-.36Z"/><path d="M48.07,4.26l-.02,.02s.02,.05,.02-.02Z"/><path d="M46.38,4.17v.08l.02-.07h-.02Z"/><path d="M47.7,4.54c.07,.09,.13,0,.19-.13-.07,.04-.13,.06-.2,.05-.01,.06-.02,.1,0,.08Z"/><path d="M47.1,3.83c.03,.09,.07,.17,.11,.25-.03-.14-.09-.36-.11-.25Z"/><path d="M48.03,4.16v-.02c0-.09,0-.05,0,.02Z"/><path d="M48.03,4.16c-.05,.06-.09,.16-.13,.25,.05-.03,.1-.07,.15-.13,0-.03-.01-.08-.02-.12Z"/><path d="M45.73,6.85c.07-.39,.33-.72,.47-.28,.22-.27,.26-1.58,.19-2.32-.03,.17-.05,.33-.27,.54,.04,.22,.36,.56,.15,.89-.28,.17-.19-.17-.29-.39,.04,.5-.42,.67-.46,1.4l.26-.22c-.01,.11-.12,.28-.07,.39Z"/><path d="M46.74,4.34l.08-.04c-.08-.08-.12-.24-.2-.56-.15,.17-.2,.32-.22,.45l.37,.1-.03,.06Z"/><path d="M47.17,4.33c-.11,.42-.32,.58-.26,1.06,.23,0,.2-.34,.36-.51-.38,.06,.13-.23-.11-.5,.08-.06,.15-.08,.21-.09-.06-.06-.12-.13-.17-.22v.03h0c0,.06,.01,.09,0,.06,0,0,0,0,0,0,0,.06-.02,.11-.04,.16-.1-.1,0-.11,.04-.16v-.06h.01l-.39,.19c.07,.07,.17,.07,.35,.04Z"/><path d="M48.82,6.67s0-.07,0-.1c-.03,.05-.04,.09,0,.1Z"/><path d="M48.69,6.4c.03-.06,.07-.23,.16-.18,.07,.14-.02,.21-.03,.35,.06-.11,.21-.29,.06-.51l-.03,.06c-.14-.16-.28-.71-.25-.77,0,.39,.02,.67,.09,1.06Z"/><path d="M47.9,5.48l-.33,.18,.12,.39,.02-.22c.17,.11,.16-.17,.2-.34Z"/><polygon points="46.37 3.96 46.47 3.51 46.21 4.12 46.37 3.96"/><polygon points="45.97 3.96 46.04 3.57 45.9 3.79 45.97 3.96"/><path d="M22.44,5.69l-.1,.1s.08-.07,.1-.1Z"/><path d="M23.11,5.77l.03-.19c-.04,.1-.06,.18-.03,.19Z"/><path d="M36.08,2.37c-.07-.39-.13-.98-.19-.54l-.03,.43c.11-.06,.17,0,.22,.1Z"/><path d="M28.79,3.93l.03,.14c.05-.14,.09-.28,.14-.4l-.16,.27Z"/><path d="M28.5,5.7l-.14-.3c.03,.1,.08,.2,.14,.3Z"/><path d="M18.74,5.87l-.14,.43c.17,0,.11-.22,.14-.43Z"/><path d="M41.86,3.5c-.09-.19-.17-.27-.24-.31,.1,.27,.15,.66,.24,.31Z"/><path d="M23.05,1.12c-.06,.07-.09,.16-.1,.26,.06-.07,.1-.15,.1-.26Z"/><path d="M41.29,3.14s.03,.07,.04,.11c.1-.06,.19-.1,.29-.06-.07-.2-.17-.33-.33-.06Z"/><path d="M5.47,4.82s-.02-.03-.03-.05c0,.06,0,.06,.03,.05Z"/><path d="M1.44,.51s.12-.04,.19-.06c-.04-.02-.1-.02-.19,.06Z"/><path d="M44.4,3.55c.09-.02,.02-.05,0,0h0Z"/><path d="M44.56,5.31s-.05,.1-.06,.2c.02-.1,.04-.17,.06-.2Z"/><path d="M39.98,5.65h0c.01,.09,0,.07,0,0Z"/><path d="M44.5,3.76c-.02-.06-.05-.11-.09-.14,.01,.04,.04,.08,.09,.14Z"/><path d="M44.51,3.55l.07,.05c.02-.07,.02-.12-.07-.05Z"/><path d="M44.28,3.55s.09,.03,.13,.06c-.01-.03-.02-.06,0-.07-.03,0-.06,0-.12,0Z"/><path d="M12.69,3.96l-.02-.04c-.1,.18-.06,.15,.02,.04Z"/><polygon points="33.1 6.44 33.11 6.43 33.1 6.41 33.1 6.44"/><path d="M32.74,6.72c.21-.51,.28-.44,.36-.31l.09-1.25-.45,1.56Z"/><path d="M20.82,5.69l.19,.41c-.31,.62-.49,.38-.32,.95,.13-1.35,.86-.07,1-1.42l.12,.3s-.05,.06-.09,.05c.23,.67,.28-.96,.63-.74,.12,.11,.19,.32,.09,.47l.31-.31c.08,.03,.04,.27-.04,.23l.44-.08v.04c.07-.21,.24-.53,.31-.66,.09,.2-.07,.14-.05,.31l.26-.31c.07,.36-.15,.68-.31,.62,.12,1.37,.22-.33,.64,.5l-.24,.15c.09,.78,.28,.51,.5,1.01-.04-.25-.42-1.25-.13-1.56,.07,.11,.16,.16,.32-.1-.04,.48,.11,.37,.28,.36l-.06,.64c.2-.17,.21-.5,.34-.78,.2,.08,.21,.58,.22,1,.32,.13-.17-.81,.23-.9,.26,.26,.47,.02,.82-.34,.18,.23-.06,.39,0,.58l.21-.5s.01,.17,0,.25c.15-.19,.06-.64,.29-.79,.12-.7,.36,1.07,.7,.29,.05,.19-.07,.39-.07,.64,.42-.49,.35-.35,.72-1.03l.22,.45c-.14-.5,.16-1.04,.43-1.48-.04-.24-.08-.45-.11-.55l.39-.3c.03,.11-.03,.32-.12,.58l.08-.15c.1,.25,0,.61-.13,.95l-.08-.41c-.13,.38-.25,.8-.27,1.17,.03-.07,.08-.13,.13-.16-.03,.1-.06,.19-.05,.26,0,.07,.06-.07,.13-.22v.72l.05-.28,.39,.49c.4-.68,.81-1.69,1.37-1.91-.2,.5-.14,.84-.23,1.46-.05-.67-.43,.22-.67,.06,.13,.08,.06,.37,.01,.47l.54-.53c-.08,.5,.05,.39,.15,.61,.04-1.01,.44-.61,.67-.89-.03,.33-.13,.67-.35,.56,.15,.78,.49-1.12,.66-.45-.06,0-.08-.05-.13,.11,.18-.28,.47,0,.35,.28h-.06c.36,.17,1.15,.18,1.34-.65-.01,.11-.21,1.01-.26,1.17l1.13-2.72c-.17,.71-.22,2.47-.6,2.82,.07,.12,.17,.26,.4,.03-.04-.11,.01-1.07,.11-1.12,.1,.84,.09,.46,.26,1.19-.07-.17,.22-1.28,.36-1.22-.05,.17-.17,1.12-.24,1.23l.55-1.05c-.12,.18-.17,.94-.14,1.26,0-.22,.31,.07,.43-.02l-.11-.28c.38,.24,.67-1.49,1.07-1.36-.09,.22-.36,1.39-.18,1.56,.19-.55,.9-2.66,1.34-3.03v.34l.36-.32c-.32,.82-1.12,2.53-1.51,3.19,.11,.28-.02,.39,.21,.4,.03,.32-.21,.44-.28,.45l.5,.29c.09-.67,.53-.59,.6-1.15l-.7,.58c.09-.67,.67-1.82,1.03-1.64,.05,.28-.28,1.17-.31,1.39,.09-.22,.44-.37,.44-.2l-.22,.33c.17,.29,.5-.82,.64-.14,.08,.06,.11,.9,.2,.51-.01-.78,.37-3.12,.57-3.67,.02,.06,.34,.8,.37,1.19,.04,.62-.47,1.37-.43,1.9,.04-.18,.16-.39,.2-.45,.07,.17-.14,.55,.08,.51,.15-.67,.4,.13,.2-.55,.23-.16,.19,.17,.42,.19,0-.45,.47-1.44,.7-1.6-.04,.17-.04,.4-.03,.5,.39,.13,.56,.47,.93,.54,0,.17,.16,.4,.03,.67,.07-.11,.16-.33,.28-.33,.13,.62-.28,.05-.22,.77,.08-.39,.39-.49,.6-.71,.05-.61-.36-.18-.57,.04,.14-.83,.58-1.65,1.03-1.98,.34-.16,.05,.56,.12,.45,.56,.24,.73-1.37,1.12-.69,.11,.56-.16,1.06-.17,1.45-.29,.16-.34-.4-.51-.41l.17,.29c-.11,.16-.3,.27-.37,.1,.09,.51,.98,.25,1.37,.76,.11-.17,.27-.33,.24-.55l-.15,.05c-.07-.45,.36-.55,.21-.78,.24-.27,.52-.71,.75-.43l-.04,.61c.02-.18-.12-.39-.23-.21,.15-.25,.3,.88,.53,.1l-.13-.45c.24-.28,.56-.89,.77-.67-.03-.61-.06,.06-.14-.66,.03,.89-.59-.12-.49,.83-.06-.84-.25-.39-.37-1.11-.02,.2,.02,.39-.16,.27-.02,.06-.05,.13-.07,.17v0s-.02,.03,0,0c.03,.09,.06,.21,.06,.32-.17,.44-.48,.38-.62,.6-.1-.11,.08-.22,.05-.44l-.21,.33c.05-.45-.2-.78,.12-1l-.25-.06c-.11-.27-.29-.4-.45-.24-.1-.11-.38,.44-.22,.11l-.44,.21v-.11c-.36-.12-.91,.6-1.22-.27-.15,.09-.31,.2-.51,.04l.02-.39c-.19,.1-.44-.47-.58-.08,0-1.06-.78-.37-1.04-.6l-.1,.5c-.2-.06-.42,.04-.71,.2l-.06,.44c-.28,.32-.51-.41-.87-.43,.05-.16,.13-.1,.18,0-.24-1.07-1,.57-1.26-.22-.12,.14-.18,.08-.23-.04,0,0,.02,0,.03-.02,0,0-.02-.01-.04-.01-.03-.08-.06-.18-.09-.26,.02,.11,.04,.21,.07,.26-.07,0-.19,.03-.32,.12l.03-.48s-.02,0-.03,0c-.08-.19-.12,.21-.13,.58-.07,.07-.13,.15-.19,.26,.04-.78-.33,.21-.31-.63-.14,.39-.6,.21-.79,1.04,.01-.11,0-.17,.05-.16-.11-.12-.21-.23-.36-.01l.05-.61-.4,.77c-.1-.39-.13-.62,.1-1.06-.5,.65-.36,.22-.8,.88l.08-.39c-.12,0-.39,.49-.41,.16-.15-.79-1.29-.3-1.88-1.08-.02,1.17-.25-.56-.39,.33,0-.28-.08-.45,.06-.67-.38,.22-.48-.5-.81,.23,0-.28,.12-.39,.11-.56-.04,.06-.14,.23-.16,.06-.02-.17,.08-.22,.15-.34-.37,0-.5,.85-.61,1.63-.14-.4-.24-.35-.42,.15-.03-.27-.11-.55,.12-.62-.12-.06-.73-.46-.8,.18-.02-.16-.17-.06-.21,0-.28-.06-.3-.12-.58-.09l.07,.11c-.17,.76-.24,.15-.47,.22v-.08c-.45-.6-.22,.25-.67-.42v.48c-.13,1.03-.4-.64-.72-.27l.08,.28c-.18,.34-.33-1.43-.48-1.57-.03-.09,.06-.14,.12-.2-.36-.64-.1,.62-.42,.75-.03-.34,.14-.85-.06-.93-.08-.28-.68,1.05-.91,.38,.04,.27,.08,.53-.07,.71-.23,.08-.51-1.03-.77-.22-.02-.07-.03-.14-.02-.21-.18,.2-.57,.31-.7,.75-.03-1.66-1.1,.72-.98-.8l-.52,.04,.03-.15c-.32-.13-.46,.23-.61,.59-.07-.11,0-.25,.01-.33-.46-.34-.51-.28-.97,.45v-.5c-.14,.28-.64-.83-1.16-.28,0-.06,.03-.15,.07-.22-.57,.54-1.18-1.46-1.5,.33l-.38,.42c.44,.17-.12,.78,.05,1.09-.18,.09-.42-.57-.2-.65l.03,.09c.14-.93-.54-.37-.49-1.01-.9-.01-1.74-.58-2.58-.67l.06,.74-.29-.06c-.07-.17-.07-.58,.14-.54-.09-.42-.37,.33-.38,.49-.39-.32,.2-.84,.08-.87l-.17,.05,.03,.09c-.15,.29-.18,.61-.43,.56-.15-.15-.06-.45-.12-.49,0-.05-.02-.08-.1-.03l-.37-.08,.12,.58c-.18,.28-.35-.05-.21,.61-.2-1.02-1.36-.42-1.5-.74-.25,.41-.47,.4-.75,.33,.07,.12,.08,.77-.15,.69,.13-1.34-.42-.6-.59-1.57,.16,.64-.7,.14-.45,1.05-.2-.11,0-.5-.14-.82-.52,.5-1.01-.36-1.58-.22-.02,.18,.06,.45-.07,.7l-.26-.89c-.12,.08-.16,1.01-.34,.39,.02,.15,.06,.37-.03,.43-.56-.46-1.18-.32-1.82-.24-.65,.08-1.26,.08-2.07-.63,.24,.31,.11,.36-.03,.39,.1,.07,.05,.43,.1,.67-.21-.2-.45-.38-.69-.56,.03,.67-.65,.19-.55,.83l.15-.16c-.02,.78,.73,1.53,.87,2.48,0-.44,.21-.15,.38,.09,.18,.24,.35,.45,.45-.17,.09,.19-.03,.31,.03,.53,.04-.41,.14-.51,.34-.34l-.02,.1c.53-.13,.78,.28,1.39,.56l-.03-.47c.13,.07,.16,.22,.22,.34,.18-.71-.38-.05-.22-.84,.15,.96,.99,.05,1.07,1.16,.22,.02-.04-.55,.18-.53l.04,.3,.08-.38c.14,.07,.2,.45,.19,.7-.03-.03-.11,.06-.15,.08,.17,.36,.55-.09,.61,.03l-.21-.19c.64-.24,1.46,.17,2.03-.42l-.04-.22c.46-.4,.35,.25,.85,.08l-.02,.05c.11-.22,.24-.33,.38-.3-.13,.26,.22,.52,.04,.8,.5-.43,.25-.34,.61-1.16l.06,.37c.12-.33,.14-.51,.39-.59-.22,.31,.13,.57-.11,.98,.48,.83,.8-.79,.98,.41,.28-1.01-.42-.59-.28-.8-.1-.34,.23-.76,.39-.65,.16,.03,.22,1.32,.63,1.33-.04,0-.05,.07-.09,.06,.14,.27,.32-.34,.49,.1,.14-.61,.24,.05,.32-.74l-.39,.16c.23-.2,.48-1.11,.81-.64-.04,.16-.15,.36-.23,.48,.09,.24,.21-.14,.3,.1-.07,.79-.47,.15-.73,.74,.09,.34,.47-.55,.3,.3,.23-1.08,.4,.16,.73-.66l-.05,.47c.05-.07,.15-.29,.23-.27l-.18,.61c.26-.51,.41,.48,.64,.21-.46-.01-.07-.58-.24-.93,.6-.6,.25,1.26,.89,1.07-.09,.06-.3-.3-.16-.52,.11,.11,.26,.3,.32,.55,.42-.07-.03-.49,.16-.77,.11,.59,.22-.22,.42-.4l-.03,.48c.46,.34,.19-1,.6-.59l-.23,.66,.23-.16-.08,.54c.27-.39,.34-.28,.57-.11-.03-.34,.09-.87,.3-.87,.12,.3-.11,.45,.19,.4-.09,.3-.19,.67-.29,.22-.02,.16-.09,.3-.11,.45,.13,.34,.38,.1,.49,.1-.04-.02-.09-.05-.11-.12l.48-.64c.06,.19,0,.33-.07,.47,.09-.05,.17-.26,.3-.3-.06,.39-.08,.79-.28,.96l.44-.41c.02,.17,.18,.48,.11,.62,.21,.25,.62-.72,.9-.39,.02-.07,.06-.15,.13-.2,.28,.11,.5,.61,.88,.1l.14,.72c.28-.14-.19-.9,.27-1.13,.33-.2,.07,.61,.17,.81,.18-.34,.51-1.04,.75-.45-.11,.12-.17,.02-.27,.06Zm3.31-.06c-.07,.1-.22,.4-.25,.11,.11-.55,.15-.28,.25-.11Zm5.04-.73c-.06,.15-.13,.07-.19-.12,.06-.03,.13,0,.19,.12Zm14.25-1.11v.02c-.12-.21-.08-.13,0-.02Zm.25,.25c.04-.06,.05-.13,.05-.2-.04,.12-.1,.12-.17,.07,0,.13,.02,.22,.13,.13ZM11.92,.67l.05,.13c-.14,.13-.09,0-.05-.13Z"/><path d="M28.54,5.5c0-.08,0-.17,0-.26-.03,.08-.04,.17,0,.26Z"/><path d="M18.77,5.79s0,0,0,0l-.02,.09,.03-.08Z"/><path d="M38.49,7.32c-.05-.08-.07-.17-.07-.27-.02,.12-.01,.22,.07,.27Z"/><path d="M45.3,3.46l-.2,.1c.09-.01,.11,.1,.14,.18,.01-.11,0-.28,.06-.28Z"/><path d="M46.52,6.63c.03-.06,.06,0,.09-.06l.02-.22c-.12,0-.22,.17-.11,.28Z"/><path d="M45.25,5.07c-.04,.4,.09,.28,.23,.23,0,0-.02,0-.02,0,.11-.56-.05-.39-.21-.22Z"/><path d="M45.52,5.28s.08-.02,.12,0c.05-.22-.04-.05-.12,0Z"/><path d="M44.07,3.83c.05,.11,.12-.51,.13-.34,.15-.5-.5,.56-.13,.34Z"/><polygon points="45.18 6.41 45.2 5.9 45.07 6.29 45.18 6.41"/><path d="M44.19,5.9l.19,.17c0-.08,.04-.13,.08-.16-.13-.04-.25-.16-.27,0Z"/><path d="M44.46,5.9c.07,.02,.13,.02,.18-.06-.04,0-.12,0-.18,.06Z"/><polygon points="44.87 6.52 44.82 6.41 44.68 6.35 44.87 6.52"/><path d="M41.96,5.45l-.25,.1c-.05,.17,0,.28,.09,.23,.07-.11,.17-.16,.16-.33Z"/><path d="M42.43,6.92c-.05-.11-.03-.22-.04-.39l-.11,.61,.15-.22Z"/><path d="M41.74,6.95c-.05,.17-.41,.43-.12,.44,.05-.16,.3-.27,.12-.44Z"/><polygon points="38.43 5.58 38.49 5.58 38.66 4.58 38.43 5.58"/><path d="M35,7.46c.23,.29,.17-.61,.36-.27,.1-.23-.16-.28-.06-.47-.2,.22-.27,.07-.3,.74Z"/><path d="M35.3,6.72s.07-.08,.11-.14c-.06,.05-.09,.1-.11,.14Z"/><path d="M.5,.14c-.1-.05-.19-.1-.3-.14,.09,.09,.17,.19,.25,.29l.05-.15Z"/><path d="M.25,.99L0,.39,.05,.99s.12-.13,.21,0Z"/><path d="M24.52,6.97l.03-.15c-.01-.17-.05-.19-.14-.22l.11,.37Z"/><polygon points="22.17 6.31 22.21 6.32 22.18 5.73 22.17 6.31"/><path d="M20.12,6.9c.08,.03,.18-.09,.26-.06-.19,.09-.23-.67-.26,.06Z"/></g><g><path d="M36.3,17.57c-.13-.09-.23,.32-.29,.38,.31,.02,.31-.49,.29-.38Z"/><path d="M37.17,15.79h.03c-.1,.04-.22,.09-.37,.14,.15-.05,.23-.08,.34-.14Z"/><path d="M37.19,14.21c.1,.71,.21-.13,.33,.12l.03,.16v-.58c-.11,.1-.26,.49-.36,.29Z"/><path d="M36.81,12.69c.03,.28-.06,.24,.08,.08l-.02-.07s-.03,0-.06-.01Z"/><path d="M36.87,12.7c.06-.02-.05-.23,0,0h0Z"/><path d="M36.59,12.87l.07-.25c-.02-.16-.1-.2-.07-.32-.08,.14-.05,.3,0,.57Z"/><path d="M36.53,13.39l.04-.11c0-.07-.02-.09-.04,.11Z"/><path d="M36.65,13.06l-.08,.22c.02,.11,.03,.35,.04-.08,0,.21,.01,0,.04-.14Z"/><path d="M36.71,13.17c.05,.15,.12,.25,.04,.5,.15-.1,.11-.6-.04-.5Z"/><path d="M37.2,14.95l.07,.21,.04-.24c-.02,.12-.13-.19-.12,.04Z"/><path d="M36.08,12.52c0,.15,.04,.4,.05,.6l.06-.18c-.03-.1-.09-.2-.1-.42Z"/><path d="M36.13,13.12l-.08,.26c.08,.03,.09-.1,.08-.26Z"/><polygon points="36.55 14.19 36.68 13.63 36.52 14.19 36.55 14.19"/><polygon points="35.74 12.5 35.79 12.15 35.7 12.68 35.74 12.5"/><path d="M35.52,12.57c.03-.29-.06-.49-.02-.67-.06,.05-.11,.3-.15,.53,.05-.13,.1-.09,.17,.14Z"/><path d="M35.27,12.75c.02-.07,.05-.2,.08-.33-.03,.07-.05,.16-.08,.33Z"/><path d="M35.89,13.31c0-.09-.03-.33-.08-.43l.04,.43h.04Z"/><path d="M35.85,13.31h0s-.07-.03-.08-.04l.08,.04Z"/><path d="M35.9,13.31h0s0,.05,0,0Z"/><path d="M36.29,13.81c-.05,.24-.15,.5-.03,.86,.03-.29-.04-.5,.03-.86Z"/><path d="M35.95,13.84l.1,.1c0-.11-.03-.28,0-.4l-.1,.3Z"/><polygon points="35.91 13.98 35.95 13.84 35.92 13.81 35.91 13.98"/><path d="M35.43,13.15c-.04,.19-.09,.2-.14,.23,.06,.08,.11,.13,.17,.13,0-.13,.03-.38-.03-.36Z"/><path d="M35.64,13.27v.02s0,.05,0-.02Z"/><path d="M34.78,13.38v0h0Z"/><path d="M35.47,13.59c.04,.08,.07-.02,.09-.16-.03,.04-.06,.07-.1,.08,0,.06,0,.1,.01,.08Z"/><path d="M35.13,12.95c.02,.09,.05,.17,.07,.24-.02-.14-.06-.35-.07-.24Z"/><path d="M35.61,13.17v-.02c0-.09,0-.05,0,.02Z"/><path d="M35.61,13.17c-.02,.06-.04,.17-.05,.26,.02-.03,.05-.08,.07-.14l-.02-.12Z"/><path d="M34.61,16.12c.01-.4,.13-.76,.23-.34,.1-.3,.04-1.6-.04-2.33,0,.17,0,.33-.1,.57,.03,.22,.21,.51,.13,.86-.13,.2-.11-.14-.17-.35,.05,.49-.17,.72-.15,1.44l.12-.25c0,.11-.04,.29-.01,.4Z"/><path d="M34.98,13.5l.04-.05c-.04-.07-.08-.23-.13-.54-.07,.19-.08,.34-.09,.47l.19,.06v.06Z"/><path d="M35.19,13.45c-.03,.43-.13,.61-.07,1.08,.12-.03,.08-.36,.15-.55-.19,.11,.05-.24-.08-.48,.04-.07,.07-.1,.1-.11-.03-.05-.07-.12-.1-.2v.03h0c0,.06,.01,.09,0,.06h0v.17c-.06-.09-.02-.11,0-.16v-.06h0l-.19,.23c.04,.06,.09,.05,.18,0Z"/><path d="M36.18,15.6s0-.07,0-.1c-.01,.05-.02,.09,0,.1Z"/><path d="M36.09,15.34c.01-.06,.02-.23,.07-.19,.04,.13,0,.21,.01,.35,.03-.12,.09-.31,0-.52v.06c-.09-.14-.2-.68-.19-.74,.03,.39,.06,.66,.12,1.04Z"/><path d="M35.63,14.51l-.16,.21,.09,.37v-.22c.09,.09,.06-.19,.07-.36Z"/><polygon points="34.77 13.17 34.79 12.71 34.7 13.35 34.77 13.17"/><polygon points="34.57 13.22 34.58 12.82 34.52 13.06 34.57 13.22"/><path d="M22.51,17.44l-.05,.11s.04-.07,.05-.11Z"/><path d="M22.85,17.48v-.19c0,.11-.01,.19,0,.19Z"/><path d="M29.51,13.02c-.04-.37-.08-.95-.1-.51v.43c.04-.07,.08-.02,.1,.07Z"/><path d="M25.75,15.33v.13l.09-.41-.09,.28Z"/><path d="M25.57,17.12l-.07-.29c.01,.1,.04,.19,.07,.29Z"/><path d="M20.63,17.87l-.06,.44c.09,0,.05-.22,.06-.44Z"/><path d="M32.47,13.32c-.05-.17-.09-.25-.13-.27,.06,.25,.1,.63,.13,.27Z"/><path d="M22.76,12.84c-.03,.08-.05,.17-.05,.26,.03-.07,.05-.16,.05-.26Z"/><path d="M32.17,13.04l.03,.1c.05-.07,.09-.13,.14-.1-.04-.19-.1-.3-.17,0Z"/><path d="M13.33,16.99v-.05c-.02,.06-.01,.06,0,.05Z"/><path d="M12.32,14.2l.08,.03,.1-1.98s.03,0,.05,0c0-.02-.01-.03-.04-.02l-.11,2-.08-.03Z"/><path d="M33.75,13.02s0-.05,0,0h0Z"/><path d="M33.93,14.74s-.02,.11-.02,.21c0-.1,.01-.17,.02-.21Z"/><path d="M31.59,15.72h0c0,.08,0,.07,0,0Z"/><path d="M33.81,13.21c-.01-.05-.03-.1-.05-.13,0,.03,.02,.08,.05,.13Z"/><path d="M33.81,13.01l.04,.04c0-.07,0-.12-.04-.04Z"/><path d="M33.69,13.04s.05,.01,.07,.05c0-.03-.01-.05,0-.07-.01,0-.03,.01-.06,.02Z"/><path d="M17.4,16.27v-.04c-.06,.18-.04,.15,0,.04Z"/><path d="M28,17.43v0Z"/><path d="M27.81,17.74c.11-.53,.14-.46,.19-.35l.04-1.25-.23,1.6Z"/><path d="M21.69,17.55l.11,.39c-.14,.64-.24,.42-.14,.97,.04-1.36,.43-.13,.47-1.49l.07,.29s-.03,.07-.05,.05c.13,.65,.12-.98,.3-.78,.06,.11,.1,.3,.05,.46l.15-.33s.02,.26-.02,.24l.22-.1v.04c.03-.21,.11-.54,.15-.68,.05,.2-.03,.14-.02,.31l.13-.32c.04,.35-.07,.69-.15,.64,.07,1.36,.11-.34,.32,.46l-.12,.17c.04,.77,.14,.5,.24,.98-.02-.25-.2-1.22-.06-1.55,.03,.1,.08,.15,.16-.12-.02,.48,.05,.37,.14,.34l-.03,.64c.1-.18,.1-.51,.17-.79,.1,.07,.09,.56,.09,.98,.15,.11-.07-.8,.13-.91,.12,.25,.22,0,.41-.38,.08,.23-.04,.39-.02,.57l.12-.5s0,.17,0,.25c.09-.19,.05-.64,.18-.8,.08-.7,.16,1.04,.36,.26,.02,.18-.04,.39-.05,.64,.23-.51,.19-.37,.4-1.06l.11,.43c-.07-.49,.1-1.04,.25-1.5l-.05-.54,.21-.33c.01,.11-.02,.32-.07,.59l.04-.15c.05,.24-.01,.61-.09,.96-.01-.13-.02-.26-.04-.4-.07,.38-.15,.81-.16,1.18,.02-.07,.04-.13,.07-.17-.02,.1-.03,.2-.03,.26,0,.07,.03-.07,.07-.23v.71l.02-.28,.2,.46c.22-.7,.45-1.75,.74-2.02-.11,.52-.08,.85-.13,1.47-.02-.66-.23,.26-.36,.12,.07,.07,.03,.37,0,.47l.29-.58c-.04,.5,.02,.38,.07,.6,.03-1,.24-.65,.36-.95-.02,.34-.07,.68-.19,.59,.08,.76,.27-1.16,.35-.51-.03,0-.04-.05-.07,.12,.09-.29,.25-.04,.18,.25h-.03c.19,.14,.61,.06,.7-.79-.01,.11-.11,1.02-.13,1.19l.58-2.83c-.09,.73-.1,2.47-.3,2.87,.04,.11,.09,.23,.21-.02-.02-.11,0-1.06,.05-1.12,.06,.82,.05,.44,.15,1.14-.04-.16,.1-1.3,.18-1.26-.02,.17-.08,1.13-.12,1.24l.28-1.11c-.06,.2-.08,.95-.06,1.27,0-.22,.17,.03,.22-.07l-.06-.27c.21,.19,.33-1.56,.54-1.49-.04,.23-.17,1.42-.07,1.57,.09-.57,.42-2.75,.64-3.18v.33l.18-.36c-.15,.86-.53,2.66-.72,3.36,.06,.27,0,.39,.12,.37,.02,.31-.1,.46-.14,.48l.27,.22c.03-.67,.27-.66,.29-1.22l-.36,.67c.03-.67,.31-1.89,.5-1.76,.03,.27-.12,1.19-.13,1.42,.04-.23,.22-.43,.23-.26l-.11,.35c.1,.26,.24-.88,.34-.23,.04,.05,.09,.87,.12,.48-.03-.77,.11-3.14,.2-3.71,.01,.05,.19,.75,.22,1.13,.04,.61-.2,1.42-.17,1.94,.01-.18,.07-.41,.09-.48,.04,.16-.05,.57,.06,.49,.06-.68,.21,.07,.08-.57,.12-.19,.1,.15,.23,.12-.01-.44,.19-1.49,.31-1.68-.02,.17,0,.4,0,.5,.21,.07,.31,.39,.5,.4,.01,.17,.1,.37,.04,.66,.03-.12,.07-.35,.13-.36,.09,.59-.14,.09-.08,.8,.03-.4,.18-.54,.28-.78,0-.61-.2-.13-.3,.12,.04-.84,.23-1.72,.45-2.1,.17-.2,.05,.55,.08,.43,.3,.16,.31-1.46,.54-.85,.08,.54-.03,1.07-.02,1.46-.14,.2-.19-.35-.28-.33l.1,.26c-.05,.18-.14,.31-.19,.15,.07,.49,.52,.11,.74,.56,.05-.18,.12-.36,.1-.58l-.08,.07c-.06-.44,.16-.6,.07-.8,.11-.3,.23-.78,.36-.53v.61c.01-.18-.07-.37-.11-.18,.06-.27,.2,.83,.28,.03l-.09-.43c.1-.31,.23-.95,.35-.76-.05-.61-.03,.07-.1-.64,.06,.88-.31-.04-.2,.89-.07-.82-.15-.35-.24-1.05,0,.2,.03,.39-.07,.29l-.03,.18v0s0,.04,0,0c.02,.09,.04,.2,.04,.31-.06,.46-.22,.45-.29,.68-.06-.1,.03-.23,0-.45l-.09,.36c0-.45-.14-.75,.01-1.01l-.13-.02c-.07-.25-.17-.36-.24-.17-.06-.1-.17,.49-.1,.14l-.21,.27v-.11c-.19-.07-.44,.72-.63-.1-.07,.11-.15,.25-.25,.11v-.39c-.1,.13-.24-.4-.3,0-.03-1.05-.4-.25-.54-.45l-.04,.51c-.1-.04-.21,.1-.36,.3l-.02,.45c-.14,.36-.27-.34-.45-.3,.02-.17,.07-.12,.09-.02-.14-1.03-.5,.7-.64-.05-.06,.16-.09,.1-.12-.01,0,0,0,0,.01-.02,0,0-.01,0-.02,0l-.05-.24c.01,.11,.03,.2,.04,.24-.04,0-.1,.06-.16,.17v-.48s0,0,0,.01c-.04-.18-.06,.22-.06,.59-.03,.08-.07,.17-.1,.28,.01-.78-.17,.25-.16-.58-.07,.4-.3,.28-.4,1.13,0-.11,0-.16,.02-.17-.06-.1-.11-.2-.18,.03l.02-.61-.2,.81c-.05-.38-.07-.6,.05-1.06-.25,.71-.18,.26-.41,.96l.04-.39c-.06,.01-.2,.53-.21,.2-.08-.76-.66-.16-.96-.88-.02,1.17-.12-.53-.21,.37,0-.28-.04-.44,.04-.67-.2,.26-.23-.46-.42,.29,0-.28,.07-.4,.06-.56-.02,.06-.07,.23-.08,.07,0-.17,.04-.23,.08-.35-.19,.03-.27,.88-.34,1.67-.06-.38-.11-.33-.22,.18-.01-.26-.05-.54,.07-.62-.06-.04-.36-.41-.41,.23,0-.16-.09-.05-.11,.02-.14-.05-.15-.11-.29-.06l.03,.11c-.11,.77-.13,.16-.25,.25v-.08c-.22-.57-.12,.26-.34-.39l-.02,.48c-.09,1.03-.2-.62-.37-.23l.04,.28c-.1,.35-.16-1.41-.25-1.55-.01-.09,.04-.14,.07-.21-.2-.62-.06,.63-.23,.77-.02-.34,.08-.86-.03-.93-.05-.28-.36,1.09-.49,.43,.03,.26,.05,.52-.03,.72-.12,.09-.29-.99-.41-.17-.01-.07-.02-.14-.02-.21-.09,.21-.3,.35-.36,.79-.05-1.66-.56,.8-.53-.73l-.27,.08v-.16c-.16-.1-.23,.26-.29,.63-.04-.1,0-.25,0-.33-.24-.31-.27-.25-.49,.51l-.02-.5c-.06,.29-.35-.78-.6-.21,0-.06,0-.15,.03-.22-.28,.58-.62-1.38-.75,.42l-.19,.44c.23,.14-.05,.78,.04,1.08-.09,.1-.23-.55-.11-.64l.02,.09c.06-.94-.28-.34-.26-.98-.45,.03-.87-.5-1.28-.56v.73l-.13-.05c-.03-.17-.02-.57,.08-.54-.03-.42-.19,.34-.2,.5-.19-.31,.12-.85,.06-.87l-.09,.05v.09c-.07,.29-.09,.61-.21,.57-.07-.15-.01-.45-.04-.48,0-.05,0-.08-.05-.02l-.17-.07,.03,.58c-.1,.28-.17-.04-.13,.62-.06-1.01-.65-.41-.7-.73-.15,.41-.26,.39-.39,.33,.02,.12-.02,.77-.14,.68,.19-1.33-.15-.6-.13-1.57,0,.64-.34,.12-.33,1.03-.08-.12,.06-.5,.03-.82-.3,.48-.44-.41-.73-.28-.03,.17-.04,.45-.14,.69l.02-.89c-.07,.07-.24,.99-.22,.37-.02,.15-.04,.37-.08,.42-.19-.47-.48-.36-.76-.35-.29,.02-.55-.09-.54-.92-.04,.34-.1,.36-.15,.36,0,.09-.14,.41-.21,.64v-.17l.06,1.51c-.22-.06-.3-.16-.24-.09,.03,.04,.02,0,.22,.37,.13,.23,.25,.47,.38,.72,.05,.09,.03,.06,.03,.06h0v-.02s.05-.03,.08-.05c.17-.09,.41-.29,.21-.55-.04,.09-.1,.18-.15,.26-.06-.41-.45-.64-.71-1-.26-.36-.5-.76-.73-1.18,.06,.26-.08,.3-.33,.42-.25,.11-.56,.27-.75,.44l.98,1.93c.02,.2,.09,.28,.33-.16-.01,.2-.13,.28-.18,.5,.18-.37,.27-.44,.33-.22l-.04,.09c.36,.01,.4,.43,.73,.79l.08-.47c.07,.08,.05,.23,.06,.36,.26-.68-.22-.1,.05-.85-.11,.97,.56,.15,.41,1.23,.13,.03,.07-.54,.2-.51l-.02,.3,.11-.37c.07,.08,.04,.45,0,.7-.02-.03-.07,.06-.1,.07,.05,.36,.33-.06,.35,.06l-.09-.2c.39-.21,.76,.24,1.17-.32v-.22c.3-.38,.17,.27,.47,.11l-.02,.05c.08-.21,.16-.32,.23-.28-.1,.25,.08,.52-.04,.8,.31-.41,.17-.33,.42-1.15v.37c.1-.33,.12-.5,.26-.59-.14,.31,.04,.57-.12,.98,.22,.83,.48-.78,.52,.41,.2-1.02-.2-.58-.11-.8-.03-.34,.16-.76,.24-.65,.08,.03,.06,1.32,.29,1.31-.02,0-.03,.07-.05,.07,.07,.27,.19-.34,.27,.09,.09-.62,.13,.04,.19-.75l-.21,.17c.13-.2,.28-1.12,.45-.66-.02,.16-.09,.37-.13,.48,.04,.24,.11-.15,.16,.09-.05,.79-.26,.16-.41,.76,.04,.34,.27-.56,.16,.29,.14-1.09,.22,.15,.41-.68l-.03,.47c.03-.07,.09-.3,.13-.28l-.11,.61c.14-.52,.22,.47,.35,.19-.25,0-.04-.57-.13-.92,.33-.62,.13,1.25,.48,1.03-.05,.07-.16-.29-.09-.51,.06,.1,.14,.28,.17,.53,.23-.09-.02-.49,.08-.78,.06,.58,.12-.23,.22-.41v.48c.24,.32,.08-1,.3-.62l-.11,.67,.12-.17-.04,.55c.14-.4,.18-.3,.3-.14-.02-.34,.03-.88,.14-.89,.07,.29-.05,.46,.11,.39-.04,.3-.09,.68-.15,.23l-.05,.46c.08,.33,.21,.08,.26,.08-.02-.02-.05-.04-.06-.11l.24-.67c.03,.18,0,.33-.03,.47,.05-.05,.08-.27,.15-.31-.02,.39-.02,.8-.12,.98l.22-.43c.01,.17,.11,.47,.08,.61,.12,.23,.31-.76,.46-.45,0-.08,.03-.15,.06-.2,.15,.09,.27,.57,.45,.04l.09,.7c.14-.16-.12-.89,.11-1.15,.16-.22,.05,.6,.11,.8,.08-.35,.23-1.07,.37-.5-.05,.13-.09,.03-.13,.08Zm1.65-.27c-.04,.1-.11,.41-.12,.12,.06-.55,.07-.29,.12-.12Zm2.58-1c-.04,.16-.07,.08-.1-.11,.03-.04,.07-.02,.1,.11Zm7.34-2.88v.02c-.07-.19-.05-.12,0-.02Zm.14,.21c.02-.07,.02-.13,.01-.2-.01,.12-.05,.13-.08,.09,0,.13,.02,.21,.07,.11Zm-16.31-.6l.02,.13c-.07,.13-.05,.01-.02-.13Z"/><path d="M25.59,16.91c0-.08,0-.17,0-.26-.02,.08-.03,.17,0,.26Z"/><polygon points="20.64 17.79 20.64 17.79 20.63 17.87 20.64 17.79"/><path d="M30.86,17.58c-.03-.07-.04-.16-.05-.25,0,.12,0,.22,.05,.25Z"/><path d="M34.2,12.81l-.1,.12s.06,.08,.08,.16c0-.11-.01-.28,.01-.28Z"/><path d="M35,15.8c.01-.06,.03,0,.04-.07v-.22c-.06,.01-.11,.19-.04,.29Z"/><path d="M34.26,14.41c0,.41,.06,.27,.13,.2,0,0,0,0-.01,0,.03-.57-.05-.38-.12-.2Z"/><path d="M34.41,14.59s.04-.03,.06,0c.01-.23-.02-.05-.06,0Z"/><path d="M33.6,13.34c.03,.11,.03-.52,.05-.35,.05-.52-.23,.62-.05,.35Z"/><polygon points="34.3 15.75 34.28 15.25 34.24 15.65 34.3 15.75"/><path d="M33.77,15.37l.11,.14c0-.08,.02-.13,.03-.17-.07-.02-.14-.12-.14,.03Z"/><path d="M33.9,15.34s.07,0,.09-.08c-.02,0-.06,.02-.09,.08Z"/><polygon points="34.14 15.9 34.11 15.79 34.04 15.75 34.14 15.9"/><path d="M32.6,15.23l-.12,.14c-.02,.17,0,.28,.06,.21,.03-.12,.08-.18,.07-.35Z"/><path d="M32.91,16.62c-.03-.1-.03-.22-.04-.38l-.03,.62,.07-.24Z"/><path d="M32.55,16.75c-.02,.17-.2,.49-.04,.45,.02-.17,.15-.31,.04-.45Z"/><polygon points="30.78 15.87 30.81 15.86 30.87 14.85 30.78 15.87"/><path d="M29.02,18.19c.12,.25,.08-.62,.19-.31,.05-.24-.09-.26-.04-.46-.1,.25-.14,.1-.15,.77Z"/><path d="M29.17,17.42s.03-.09,.06-.15c-.03,.06-.04,.11-.06,.15Z"/><path d="M13.32,15.96c.14,0,.34-.04,.53-.1-.17-.01-.33-.04-.47-.09-.03,.07-.04,.12-.06,.19Z"/><path d="M13.51,14.87c.18,.13,.36,.24,.55,.36-.1-.19-.2-.37-.32-.54-.02,.08-.07,.23-.23,.18Z"/><path d="M23.53,18.6v-.16c0-.17-.01-.18-.05-.21l.05,.37Z"/><polygon points="22.39 18.08 22.41 18.09 22.38 17.5 22.39 18.08"/><path d="M21.37,18.81s.09-.1,.13-.08c-.09,.1-.13-.65-.13,.08Z"/></g><g><path d="M28.62,26.54l.03,.03c-.07-.05-.03-.03-.03-.03Z"/><path d="M28.14,25.51v-.03l-.02-.03v.05l.07,.2c-.01-.06-.06-.21-.04-.18Z"/><path d="M28.04,25.46c.14,.7,.04-.12,.09,.12l.04,.16-.13-.56c.04,.09,.07,.47,0,.28Z"/><path d="M27.76,23.94c.04,.28,.03,.24,.02,.08v-.07s-.01,0-.02-.02Z"/><path d="M27.76,23.96s-.03-.23,0,0h0Z"/><path d="M27.73,24.12v-.25c-.03-.16-.05-.2-.06-.32,0,.14,.02,.3,.06,.57Z"/><path d="M27.77,24.64v-.11c0-.07-.01-.09,0,.11Z"/><path d="M27.77,24.31v.22c.02,.11,.04,.34,0-.08,.02,.21,0,0,0-.14Z"/><path d="M27.79,24.42c.03,.15,.06,.25,.07,.5,.03-.1-.04-.6-.07-.5Z"/><path d="M28.15,26.19l.06,.2-.02-.24c.01,.12-.07-.18-.04,.04Z"/><path d="M27.59,23.76l.05,.6v-.17c-.01-.1-.04-.2-.05-.42Z"/><path d="M27.64,24.36v.26s.01-.09,0-.26Z"/><polygon points="27.85 25.43 27.83 24.88 27.84 25.44 27.85 25.43"/><polygon points="27.49 23.75 27.48 23.4 27.48 23.93 27.49 23.75"/><path d="M27.42,23.81c-.01-.29-.02-.49-.03-.67-.02,.05-.03,.3-.03,.53,.01-.13,.03-.09,.06,.14Z"/><path d="M27.34,24l.02-.33-.02,.33Z"/><path d="M27.57,24.55c0-.09-.03-.33-.05-.43l.03,.43h.01Z"/><path d="M27.56,24.56h0s-.02-.03-.03-.04l.03,.04Z"/><path d="M27.57,24.55h0s0,.05,0,0Z"/><path d="M27.74,25.05c0,.24-.02,.5,.05,.86,0-.29-.05-.5-.05-.86Z"/><path d="M27.62,25.08l.04,.1c0-.11-.03-.28-.02-.4l-.02,.3Z"/><polygon points="27.61 25.22 27.62 25.08 27.61 25.05 27.61 25.22"/><path d="M27.41,24.4c0,.19-.03,.2-.04,.23,.02,.08,.05,.13,.07,.13,0-.13,0-.38-.02-.36Z"/><path d="M27.49,24.51v.02s0,.05,0-.02Z"/><path d="M27.18,24.63v0h0Z"/><path d="M27.44,24.84c.02,.08,.02-.02,.03-.16,0,.04-.02,.07-.03,.08,0,.06,0,.1,0,.08Z"/><path d="M27.3,24.2l.03,.23c-.01-.14-.03-.35-.03-.23Z"/><path d="M27.48,24.42v-.02c0-.09,0-.05,0,.02Z"/><path d="M27.48,24.42v.26s0-.08,0-.14v-.12Z"/><path d="M27.14,27.37c0-.4,.05-.76,.1-.34,.04-.3-.01-1.6-.05-2.33,0,.17,0,.33-.03,.57,.01,.22,.09,.5,.06,.86-.05,.21-.05-.14-.07-.35,.03,.49-.07,.72-.05,1.44l.05-.26c0,.11-.02,.29,0,.4Z"/><path d="M27.26,24.75v-.05c0-.07-.02-.23-.04-.54-.02,.19-.02,.34-.02,.47l.07,.05v.06Z"/><path d="M27.33,24.69c0,.43-.03,.62,0,1.08,.05-.03,.02-.36,.05-.55-.07,.11,.01-.24-.04-.48,.01-.07,.02-.1,.03-.11-.01-.05-.03-.12-.04-.2v.03h0c0,.06,0,.09,0,.06h0v.17c-.02-.09,0-.11,0-.16v-.06h0l-.06,.23c.02,.06,.03,.05,.07,0Z"/><path d="M27.81,26.84v-.1c-.01,.05-.01,.09,0,.1Z"/><path d="M27.76,26.58c0-.06,0-.23,.02-.19,.03,.13,.01,.21,.03,.35,0-.11,.02-.31-.03-.52v.06c-.04-.15-.12-.68-.11-.74,.03,.39,.06,.66,.1,1.04Z"/><path d="M27.53,25.75l-.05,.21,.05,.37v-.22c.03,.09,0-.19,0-.36Z"/><polygon points="27.17 24.42 27.18 23.96 27.15 24.6 27.17 24.42"/><polygon points="27.1 24.47 27.1 24.07 27.08 24.31 27.1 24.47"/><path d="M21.56,28.91l-.04,.11s.03-.07,.04-.11Z"/><path d="M21.72,28.96l.03-.19c-.02,.11-.04,.18-.03,.19Z"/><path d="M25.05,24.42c0-.37,.02-.94-.01-.5l-.03,.43c.03-.08,.04-.03,.04,.07Z"/><path d="M23.28,26.84v.13l.06-.41-.06,.28Z"/><path d="M23.04,28.62v-.28c-.01,.1,0,.19,0,.28Z"/><path d="M20.63,29.23l-.1,.43s.06-.22,.1-.43Z"/><path d="M26.26,24.61c-.02-.17-.03-.24-.05-.26,.02,.25,.02,.62,.05,.26Z"/><path d="M22.29,24.36c-.02,.08-.04,.16-.05,.26,.02-.07,.04-.15,.05-.26Z"/><path d="M26.15,24.35v.1c.03-.07,.05-.13,.07-.1-.01-.19-.03-.3-.07,0Z"/><path d="M17.45,28.18v-.05c-.01,.06,0,.06,0,.05Z"/><path d="M18.26,23.83s0-.03,0-.03c.02-.03,.02-.02,0,.03Z"/><path d="M26.78,24.28s0-.05,0,0h0Z"/><path d="M26.84,26v0Z"/><path d="M25.82,27.03h0c0,.08,0,.07,0,0Z"/><path d="M26.81,24.48c0-.05-.01-.1-.02-.13,0,.03,0,.08,.02,.13Z"/><path d="M26.81,24.27v.04c.02-.07,.02-.12,0-.04Z"/><path d="M26.76,24.3s.02,.01,.03,.05v-.07s-.01,.02-.03,.02Z"/><path d="M19.46,27.47v-.04c-.05,.17-.04,.15,0,.04Z"/><path d="M24.14,28.86v0Z"/><path d="M24.03,29.17c.08-.53,.09-.47,.11-.35l.1-1.25-.2,1.6Z"/><path d="M21.17,28.98v.39c-.17,.62-.18,.4-.21,.95,.21-1.34,.23-.11,.43-1.45v.29s-.03,.06-.04,.05c-.03,.65,.19-.96,.25-.76,.01,.11,0,.31-.04,.46l.11-.32s-.02,.26-.04,.23l.12-.09v.04c.04-.21,.12-.53,.15-.67,0,.2-.03,.14-.05,.31l.1-.32c-.03,.35-.12,.68-.15,.63-.14,1.35,.09-.33,.1,.47l-.08,.16c-.07,.77,0,.5,0,.98,.02-.25,.04-1.22,.15-1.54,0,.1,.02,.16,.09-.11-.07,.48-.02,.37,.03,.34l-.09,.63c.07-.18,.11-.5,.17-.78,.04,.07-.02,.56-.06,.98,.06,.11,.05-.79,.16-.9,.03,.25,.11,0,.24-.37,.02,.22-.06,.39-.07,.57l.1-.5s-.01,.17-.03,.25c.06-.19,.08-.63,.16-.8,.1-.7-.02,1.04,.14,.25,0,.18-.06,.39-.08,.63,.15-.51,.12-.37,.28-1.06v.42c.02-.48,.15-1.04,.25-1.5l.02-.53,.12-.33c0,.11-.04,.32-.08,.59l.03-.15c0,.24-.06,.6-.12,.96l.02-.4c-.06,.38-.13,.81-.17,1.18,.01-.07,.03-.13,.05-.17l-.04,.26c0,.07,.02-.07,.05-.23l-.06,.71,.04-.28,.05,.46c.16-.7,.34-1.75,.49-2.03-.09,.52-.1,.85-.17,1.46,.04-.66-.12,.27-.17,.13,.02,.07-.02,.36-.04,.47l.18-.58c-.06,.5-.02,.38-.01,.59,.09-1,.16-.65,.23-.95-.03,.33-.08,.68-.13,.59-.02,.76,.2-1.16,.2-.52-.01,0-.02-.05-.04,.12,.06-.29,.11-.05,.07,.24h-.01c.08,.13,.27,.04,.37-.8-.01,.11-.12,1.02-.13,1.19l.43-2.83c-.08,.73-.19,2.46-.31,2.87,.01,.11,.03,.23,.1-.02,0-.1,.06-1.05,.09-1.12-.02,.82,0,.44,0,1.13,0-.16,.12-1.3,.15-1.26-.02,.17-.1,1.13-.12,1.24l.19-1.11c-.04,.2-.09,.95-.1,1.27,.01-.22,.07,.03,.11-.08v-.26c.07,.18,.22-1.57,.31-1.5-.03,.23-.15,1.42-.11,1.57,.07-.57,.32-2.75,.44-3.19v.33l.08-.37c-.1,.86-.36,2.67-.48,3.37,.02,.26-.02,.39,.04,.36,0,.31-.07,.46-.09,.48l.12,.21c.05-.67,.15-.67,.19-1.22l-.19,.68c.05-.67,.23-1.9,.31-1.77,0,.27-.11,1.19-.12,1.42,.03-.23,.12-.43,.12-.27l-.06,.36c.03,.26,.15-.88,.16-.24,.02,.04,0,.87,.04,.47,.02-.77,.17-3.14,.23-3.71,0,.05,.05,.74,.05,1.12,0,.6-.14,1.43-.15,1.94,.01-.18,.05-.41,.06-.48,.01,.16-.05,.57,0,.49,.05-.68,.09,.06,.06-.57,.06-.19,.04,.14,.1,.12,0-.44,.14-1.49,.19-1.69-.01,.17-.02,.4-.02,.5,.09,.07,.12,.38,.21,.39,0,.17,.03,.37,0,.66,.02-.12,.04-.35,.07-.37,.03,.59-.07,.09-.06,.8,.02-.4,.1-.54,.15-.79,.01-.61-.08-.12-.13,.12,.04-.84,.15-1.72,.25-2.11,.08-.21,0,.55,.02,.43,.13,.15,.16-1.47,.24-.86,.03,.54-.03,1.07-.03,1.46-.06,.2-.08-.34-.12-.32l.04,.26c-.02,.18-.07,.31-.08,.16,.02,.48,.22,.1,.32,.55,.02-.18,.06-.37,.05-.58l-.03,.07c-.02-.43,.07-.6,.04-.8,.05-.3,.1-.78,.15-.54v.61c0-.18-.03-.37-.05-.18,.03-.27,.08,.83,.12,.03l-.04-.42c.04-.31,.09-.96,.14-.77-.02-.61-.01,.07-.04-.64,.03,.88-.12-.04-.08,.89-.03-.82-.06-.35-.09-1.05,0,.2,.01,.39-.03,.29v.19s-.01,.04-.01,0c0,.09,.01,.2,.02,.31-.03,.46-.09,.45-.12,.69-.02-.1,.02-.23,0-.45l-.04,.36c0-.45-.05-.75,.02-1.01l-.05-.02c-.02-.25-.06-.35-.09-.17-.02-.1-.08,.5-.04,.14l-.09,.27v-.11c-.07-.06-.2,.74-.25-.08-.03,.11-.07,.25-.11,.12v-.39c-.03,.13-.07-.39-.11,0,.02-1.05-.15-.24-.21-.43l-.04,.51s-.09,.11-.16,.31l-.03,.45c-.07,.36-.1-.33-.18-.29,.02-.17,.03-.12,.04-.02-.01-1.02-.24,.72-.27-.02-.03,.16-.04,.1-.05,0,0,0,0,0,0-.02,0,0,0,0,0,0v0s-.05,.06-.08,.17l.03-.48h0c0-.17-.04,.24-.06,.6-.02,.08-.04,.17-.06,.29,.05-.78-.08,.26-.04-.57-.05,.4-.14,.29-.23,1.14,0-.11,0-.16,.02-.17-.02-.1-.03-.2-.08,.04l.05-.61-.13,.81c0-.38,0-.59,.09-1.06-.15,.71-.09,.27-.23,.97l.04-.39s-.12,.54-.1,.21c.02-.75-.27-.13-.34-.84-.1,1.16,0-.53-.12,.37,.02-.27,.02-.43,.07-.67-.1,.26-.06-.45-.2,.3,.02-.28,.06-.4,.07-.56-.01,.06-.05,.24-.04,.07,.01-.16,.04-.23,.06-.35-.08,.04-.19,.88-.28,1.67,0-.38-.02-.33-.11,.19,.02-.26,.03-.53,.09-.62-.02-.04-.12-.4-.2,.24,.01-.16-.03-.05-.05,.02-.06-.04-.05-.1-.12-.05v.11c-.12,.76-.07,.16-.13,.25v-.08c-.03-.57-.07,.26-.1-.39l-.06,.48c-.14,1.02-.02-.62-.13-.23v.27c-.1,.35,.08-1.4,.06-1.54,0-.09,.03-.14,.05-.21,0-.61-.1,.62-.18,.76,.03-.34,.13-.85,.1-.92,.02-.27-.28,1.07-.25,.42-.02,.26-.05,.52-.1,.71-.06,.09,.01-.99-.15-.19l.02-.2c-.07,.2-.17,.33-.25,.77,.21-1.64-.35,.76-.12-.75l-.12,.06,.03-.15c-.05-.11-.14,.25-.22,.6,0-.11,.03-.24,.05-.32-.05-.32-.07-.26-.28,.48l.07-.49c-.07,.28-.02-.79-.22-.24,.01-.06,.03-.15,.05-.22-.21,.55-.03-1.4-.38,.37l-.15,.42c.07,.16-.15,.77-.17,1.07-.06,.1,0-.55,.06-.64v.09c.18-.92-.07-.35,.05-.98-.2,.01-.28-.54-.44-.61l-.12,.72-.05-.05c.02-.17,.09-.57,.13-.53,.06-.41-.14,.33-.17,.48-.02-.31,.2-.83,.18-.85l-.05,.05v.09c-.1,.29-.16,.6-.21,.55,0-.15,.08-.45,.07-.48,.01-.05,.01-.08-.01-.02l-.06-.08-.09,.57c-.09,.27-.07-.04-.17,.6,.16-1-.21-.42-.17-.73-.14,.4-.19,.38-.23,.32-.01,.12-.15,.75-.19,.66,.33-1.3,.04-.59,.24-1.53-.12,.63-.17,.12-.34,1.01-.01-.12,.12-.49,.17-.8-.23,.48-.11-.38-.26-.24-.05,.17-.11,.43-.2,.68l.19-.86c-.04,.08-.31,.97-.17,.37-.04,.14-.09,.36-.12,.41,.03-.44-.13-.3-.24-.26-.11,.05-.21-.01,.14-.73-.17,.3-.17,.33-.17,.35-.04,.07-.2,.39-.31,.6,.1-.2,.21-.39,.33-.57-.33,.58-.05,.02-.41,.54l.08-.08c-.45,.59-.89,1.41-1.4,2.22,.27-.33,.14-.04,.08,.23-.07,.27-.06,.53,.25,0-.06,.19-.15,.27-.24,.48,.21-.36,.27-.42,.27-.22l-.05,.09c.24,0,.14,.38,.26,.72l.14-.45c.02,.08-.02,.22-.04,.34,.28-.66-.1-.08,.2-.81-.26,.93,.25,.1-.04,1.15,.06,.02,.14-.53,.2-.5l-.07,.29,.12-.36c.02,.07-.07,.43-.14,.67,0-.03-.05,.06-.06,.08-.05,.35,.17-.07,.16,.04v-.19c.23-.22,.32,.21,.61-.34l.04-.22c.21-.37,.03,.26,.19,.1l-.02,.05c.08-.21,.13-.31,.16-.28-.09,.25-.06,.51-.17,.78,.22-.4,.14-.33,.4-1.12l-.07,.37c.1-.32,.14-.49,.22-.57-.12,.3-.09,.56-.23,.96-.05,.82,.36-.76,.16,.41,.27-.99,.02-.58,.09-.79,.05-.33,.21-.74,.22-.63,.03,.03-.21,1.3-.11,1.3,0,0-.03,.07-.03,.06-.02,.26,.14-.33,.1,.09,.15-.6,.05,.05,.22-.73l-.13,.16c.09-.19,.32-1.09,.32-.63-.04,.16-.1,.36-.14,.47-.02,.23,.08-.14,.05,.1-.16,.78-.14,.15-.32,.73-.04,.33,.22-.54,.02,.29,.26-1.06,.07,.15,.3-.65l-.1,.46c.03-.07,.09-.29,.11-.27l-.15,.6c.16-.5,.02,.47,.12,.2-.11,0,.08-.57,.1-.92,.25-.6-.16,1.24,.04,1.04-.03,.06-.02-.29,.05-.5,.01,.1,.01,.29-.01,.54,.12-.08,.07-.48,.17-.76-.07,.57,.09-.22,.17-.4l-.09,.47c.06,.33,.21-.98,.24-.6l-.16,.65,.08-.16-.11,.54c.13-.39,.13-.28,.16-.12,.05-.34,.16-.86,.21-.87-.02,.29-.1,.45-.02,.39-.07,.29-.15,.66-.1,.22l-.1,.45c-.02,.33,.08,.09,.11,.09,0-.02-.01-.05,0-.12l.22-.64c-.01,.18-.05,.32-.09,.46,.03-.05,.08-.26,.12-.3-.07,.39-.14,.78-.21,.96l.17-.41c-.02,.17-.03,.47-.06,.61,.02,.24,.26-.73,.28-.42,.02-.07,.04-.15,.06-.2,.05,.1,.04,.58,.2,.06l-.06,.7c.09-.15,.08-.88,.22-1.13,.11-.21-.07,.6-.07,.79,.09-.34,.26-1.05,.24-.47-.04,.13-.04,.02-.07,.07Zm.81-.2c-.03,.1-.1,.4-.07,.12,.09-.55,.07-.28,.07-.12Zm1.3-1.01c-.03,.16-.04,.08-.03-.11,.02-.04,.03-.02,.03,.11Zm3.31-3.11v.02c-.02-.19-.02-.11,0-.02Zm.05,.21c0-.07,0-.13,0-.2,0,.12-.02,.13-.04,.1,0,.13,0,.21,.03,.11Zm-6.73-.63v.13c-.07,.13-.04,0,0-.13Z"/><path d="M23.07,28.41l.02-.26c-.02,.08-.03,.17-.02,.26Z"/><polygon points="20.65 29.15 20.65 29.14 20.63 29.23 20.65 29.15"/><path d="M25.43,28.92c-.01-.07-.01-.16-.01-.25,0,.12,0,.22,.01,.25Z"/><path d="M26.96,24.06l-.04,.13s.02,.08,.03,.16c0-.11,0-.28,0-.28Z"/><path d="M27.31,27.05c0-.06,.01,0,.02-.07v-.22s-.05,.2-.02,.29Z"/><path d="M26.98,25.67c0,.41,.03,.27,.05,.19,0,0,0,0,0,0,0-.57-.02-.38-.05-.19Z"/><path d="M27.04,25.85s.02-.03,.03-.01c0-.23-.01-.05-.03,.01Z"/><path d="M26.72,24.61c.01,.1,.02-.52,.02-.35,.03-.52-.1,.62-.02,.35Z"/><polygon points="27 27 26.99 26.5 26.97 26.91 27 27"/><path d="M26.77,26.63l.04,.14c0-.08,0-.13,.01-.17-.03-.02-.06-.12-.06,.03Z"/><path d="M26.83,26.6s.03,0,.04-.08c0,0-.03,.02-.04,.08Z"/><polygon points="26.94 27.15 26.92 27.05 26.89 27.01 26.94 27.15"/><path d="M26.27,26.52l-.06,.14c-.01,.17,0,.28,.02,.21,.02-.12,.04-.18,.04-.35Z"/><path d="M26.38,27.9c-.01-.1,0-.22-.01-.38l-.02,.62,.03-.24Z"/><path d="M26.22,28.04c-.01,.17-.1,.49-.03,.45,.01-.17,.07-.31,.03-.45Z"/><polygon points="25.46 27.21 25.47 27.2 25.54 26.19 25.46 27.21"/><path d="M24.56,29.59c.04,.25,.07-.62,.1-.32,.04-.24-.03-.25,0-.46-.06,.25-.07,.1-.11,.77Z"/><path d="M24.67,28.81l.03-.15-.03,.15Z"/><polygon points="18.58 23.39 18.68 23.2 18.5 23.49 18.58 23.39"/><path d="M18.12,23.99l.37-.53-.35,.47s.06-.06-.02,.06Z"/><path d="M21.92,30.09l.02-.15c.02-.17,0-.18,0-.21l-.02,.37Z"/><polygon points="21.42 29.53 21.43 29.54 21.5 28.96 21.42 29.53"/><path d="M20.83,30.2s.06-.1,.08-.07c-.06,.1,.03-.65-.08,.07Z"/></g></g></g></g></svg>