<?xml version="1.0" encoding="UTF-8"?><svg xmlns="http://www.w3.org/2000/svg" viewBox="0 0 235.89 361.25"><g id="a"/><g id="b"><g id="c"><g><g><path d="M173.1,308.26c.57-.6,.05-.64,.07-.78-.82,1.08,.03,.83-.07,.78Z"/><path d="M163.09,317.29l.15-.26c-.54,.43-1.13,.77-1.71,1.16,.52-.3,1.05-.58,1.56-.9Z"/><path d="M150.49,320.23c1.34,.63,4.75-.65,7.02-.96l.41,.07,.87-.8c-2.63,.86-6.26,1.74-8.3,1.7Z"/><path d="M143.34,319.12c.45,.26-1.53,.3,1.66,.02-.16-.02-.21-.04-.3-.06-.28,.02-.68,.03-1.36,.04Z"/><path d="M144.69,319.08c1.39-.09-.92-.19,0,0h0Z"/><path d="M138.18,319.47l1.86-.3c-.4-.15-2.06-.14-1.44-.28-1.9,.19-1.51,.34-.41,.58Z"/><path d="M136.43,320.03l.96-.13c-.17-.06-.43-.08-.96,.13Z"/><path d="M139.43,319.62l-2.04,.28c.27,.11,.31,.34,.94-.11-.16,.21,.24,0,1.1-.17Z"/><path d="M140.6,319.7c1.05,.12,2.41,.17,.54,.48,3.55-.23,3.01-.7-.54-.48Z"/><path d="M149.88,321.04l1.4,.07c.39-.12,.78-.23,1.17-.37-.58,.2-2.68,.08-2.57,.3Z"/><path d="M126.58,319.33c-.11,.15,.63,.4,.77,.59l1.37-.19c-.71-.09-2.05-.18-2.14-.4Z"/><path d="M127.35,319.92l-2.06,.27c1.84,.02,2.17-.11,2.06-.27Z"/><polygon points="136.12 320.84 139.49 320.19 135.47 320.86 136.12 320.84"/><polygon points="118.74 319.31 119.91 318.97 117.83 319.48 118.74 319.31"/><path d="M113.54,319.3c.87-.27-1.17-.52-.26-.68-1.41,.02-2.62,.25-3.71,.43,1.15-.08,2.38-.02,3.97,.25Z"/><path d="M107.74,319.31c.58-.05,1.18-.15,1.83-.26-.61,.05-1.22,.12-1.83,.26Z"/><path d="M121.79,320.13c-.16-.09-.46-.34-1.62-.44l.81,.43c.25,0,.53,0,.81,.01Z"/><path d="M121.01,320.14h-.03c-.88-.03-1.49-.04-1.75-.05,.22,0,.76,.02,1.78,.05Z"/><path d="M122,320.14h-.2c.08,.04,.12,.05,.2,0Z"/><path d="M130.71,320.57c-1.21,.26-3.73,.56-1.28,.88,.86-.31-.54-.49,1.28-.88Z"/><path d="M123,320.67l2.19,.09c-.04-.11-.44-.27,.16-.4l-2.35,.31Z"/><polygon points="121.93 320.81 123 320.67 122.19 320.64 121.93 320.81"/><path d="M111.46,319.84c-.95,.17-1.98,.14-3.14,.13,1.25,.12,2.53,.23,3.76,.24,.18-.13,.72-.36-.62-.37Z"/><path d="M116.1,320.05l-.21,.02c.13,.04,.23,.05,.21-.02Z"/><path d="M96.87,319.38c.06,.03,.12,.06,.18,.09,.02-.02,.03-.05,.05-.07l-.23-.02Z"/><path d="M112.29,320.29c.94,.1,1.5,0,2.04-.11-.7,.03-1.45,.04-2.25,.03-.08,.06-.09,.1,.21,.08Z"/><path d="M104.54,319.39c.48,.12,1.03,.21,1.61,.3-.47-.15-1.44-.4-1.61-.3Z"/><path d="M115.57,319.95l.14-.02c-.31-.1-.27-.05-.14,.02Z"/><path d="M115.57,319.95c-.48,.05-.87,.15-1.25,.24,.57-.02,1.1-.06,1.56-.11-.12-.03-.23-.08-.31-.12Z"/><path d="M93.19,321.86c.2-.37,2.7-.57,4.81,0,2.12-.15,.82-1.55-.95-2.4-.08,.17-.09,.33-2.26,.41,.74,.27,4.75,.84,2.91,1.07-2.88,0-2.33-.3-3.71-.61,1.14,.6-3.69,.4-3.14,1.18l2.53-.03c.04,.12-.89,.22-.2,.38Z"/><path d="M101.15,319.76h.89c-1.01-.13-1.72-.31-3.03-.71-1.48,.09-1.8,.22-1.91,.34,1.45,.12,2.9,.24,4.35,.32l-.31,.04Z"/><path d="M106.01,319.95c-.71,.42-2.85,.48-1.57,1.01,2.61,.09,1.84-.29,3.41-.42-4.21-.04,1.22-.2-1.81-.55,.83-.04,1.57-.04,2.27-.03-.75-.08-1.48-.17-2.16-.27l.09,.03h.02c.18,.07,.24,.1,.03,.06-.01,0-.07,0-.09,0-.03,.06-.11,.11-.2,.16-1.21-.13-.19-.12,.2-.16,.01-.02,.05-.04,.05-.06h-.02c-1.41,.03-2.81,.02-4.21,.03,.89,.1,2,.16,3.98,.19Z"/><path d="M127.18,322.41c-.13-.04-.13-.07-.14-.1-.27,.05-.38,.09,.14,.1Z"/><path d="M125.44,322.16c.31-.06,.56-.24,1.56-.2,.87,.12,0,.21,.04,.35,.6-.12,2.11-.33,.21-.52l-.3,.06c-1.71-.14-3.89-.66-3.6-.72,.5,.38,.94,.66,2.07,1.03Z"/><path d="M115.58,321.28l-3.52,.14,1.78,.41-.09-.23c2,.13,1.57-.16,1.82-.32Z"/><polygon points="96.49 319.14 96.98 318.71 94.92 319.22 96.49 319.14"/><polygon points="91.95 318.84 92.15 318.46 90.94 318.59 91.95 318.84"/><path d="M93.77,162.7l.89-.56c-.43,.25-.7,.42-.89,.56Z"/><path d="M87,166.02l-.08,.26c.26-.25,.35-.39,.08-.26Z"/><path d="M5.41,267.01c.16-1.47,.66-3.08,.21-2.87l-.4,.47c.17,.99,.16,1.75,.19,2.41Z"/><path d="M36.3,201.12c-.14,.06-.28,.13-.42,.19-.18,.36-.34,.69-.49,.99,.27-.36,.57-.77,.91-1.18Z"/><path d="M35.95,199.06l1.72-1.08c-.41,.22-.96,.56-1.72,1.08Z"/><path d="M130.88,145.06l.93-.9c-1.73,.77-.88,.64-.93,.9Z"/><path d="M46.46,310.39c-1.14-.59-2.06-1.01-2.88-1.33,1.34,.75,2.38,1.53,2.88,1.33Z"/><path d="M93.14,168.13c.53-.35,.74-.55,.68-.63-.55,.35-.84,.59-.68,.63Z"/><path d="M40.2,307.69c.19,.12,.38,.23,.58,.35,.89,.28,1.76,.59,2.8,1.03-.98-.58-2.11-1.19-3.38-1.38Z"/><path d="M231.26,50.68c.02-.1,.04-.23,.07-.32-.06-.03-.07,.11-.07,.32Z"/><path d="M221.47,9.36c.29,.33,.73,.9,1.14,1.43-.18-.28-.52-.71-1.14-1.43Z"/><path d="M73.85,316.47c.95,.12,.16-.02,0,0h0Z"/><path d="M78.23,318.86c-.21,.02-.37,.06-.41,.16,.09-.09,.24-.14,.41-.16Z"/><path d="M30.49,305.76l-.07-.04c.21,.22,.17,.18,.07,.04Z"/><path d="M75.25,316.89c-.35-.11-.75-.22-1.19-.32,.19,.06,.55,.16,1.19,.32Z"/><path d="M75.08,316.65c.32,.07,.58,.12,.82,.17,.13-.05,.03-.11-.82-.17Z"/><path d="M72.52,316.28c.54,.08,1.05,.18,1.53,.29-.18-.06-.26-.09-.2-.1-.28-.04-.67-.09-1.33-.18Z"/><path d="M192.32,114.6l.19-.09c.69-.71,.36-.44-.19,.09Z"/><path d="M4.02,241.77l-.02,.11,.06-.13-.05,.02Z"/><path d="M5.03,238.29c-.05,.81-.17,1.41-.34,1.93-.16,.53-.37,1-.62,1.52l1.57-.68c-.24-.92-.41-1.84-.61-2.78Z"/><path d="M110.01,154.88l-2.39,.68c2.42-1.83,4.47-2.53,2.14-2.06,.25,1.37-8.62,4.15-8.34,5.54l-1.59,.43c.43-.19,.46-.29,.88-.47-3.13,.76-1.7,1.89-5.44,3.48-1.32,.53-2.29,.78-1.5,.22l-2.69,1.69c-.83,.39-.74,.07,.09-.31l-4.26,2.25v-.05c-.5,.5-1.74,1.5-2.36,1.97-1.18,.38,.48-.41,.12-.42l-2.22,1.52c-1.12,.2,.67-1.15,2.34-1.93-2.84-.06-1.82,1.3-6.95,3.13l2.15-1.34c-1.8,.08-3.42,1.25-6.16,2.21,.71-.13,5.62-1.65,3.22,.01-.77,.29-1.74,.76-2.98,1.76-.24-.41-1.53,.42-3.19,1.39l-.2-.62c-1.71,1.19-1.41,1.39-2.32,2.24-2.03,1.1-2.69,.93-3.37,.84-3.24,1.79,2.61-.62-1.1,1.71-2.76,1.39-4.47,2.75-7.36,5.05-1.92,1,.1-.54-.64-.26l-1.31,1.48c-.4,.25-.36,.03-.34-.07-1.23,1.06,.24,.6-1.76,2.15-.08,.48-1.29,1.01-2.75,1.72-1.45,.71-3.13,1.67-4.17,2.9-.73,.32,.07-.54-.27-.59-3.11,3.03-2.74,2.51-5.05,5.27-.87,.52-1.74,1.03-2.59,1.57,1.99-1.05,.2,1.21-1.37,3.14,.75-.33,1.38-.6,1.78-.81-.92,.92-1.84,1.85-2.72,2.81-.42,.23-.27-.19,.03-.82-.16,.22-.31,.43-.43,.59-1.2,.75-.91,0-.4-.94,.44-.22,.88-.43,1.31-.64,.48-.93,.9-1.83,.5-1.99-.15,.22-.48,.59-.87,.96,.13-.24,.19-.42,.06-.39-.15,.03-.37,.41-.74,.96l-1.14,.06,.03,.36-2.08,1.56-2.03,1.62c-2.19,3.09-3.71,6.09-7.27,10.68,.54-1.44-.44-.79-.86-1.26,1.52-.8,2.8-3.61,5.03-5.71-1.17,1.08-1.14,.63-.92,.27-1.11,1.46-2.2,2.93-3.25,4.42-.3-.43-1.04,.63-2.13,1.58,.74-.08,.18,.77-.64,1.94-.81,1.18-1.99,2.58-2.5,3.58-.35-.09-.34-.75,1.42-2.81-2.48,1.88-1.39,3.78-3.63,5.75,.37-.55,.63-.8,.64-1.11-.68,1.4-2.91,4.44-2.68,3.53l.36-.55c-.65,.89-1.39,2.06-2.13,3.33-.78,1.25-1.49,2.63-2.12,3.93-.65,1.28-1.14,2.52-1.45,3.48-.32,.96-.46,1.64-.33,1.88-.13,0-.69-.94-.73-1.26-.15,1.38-.16,2.8-.23,4.17-.05,1.37,.02,2.76,.03,4.1-.46-.89-3.01,1.1-2.17-2.51-.23,.48-.48,1.02-.74,1.72-.23,.7-.44,1.57-.63,2.68,.31-.67,1.52-1.42,1.31-.47-1.55,2.35-.91,1.66-2.36,4.77,.39-1.03,1.23,.38,.94,2.02-.12-.29-1.14-.04-1.15-.68,.07,.74,.13,1.46,.21,2.19l.34,2.16c-.09-1.06-.93-.29-1.35,.65,.12-.21,.04,.71-.01,1.84-.03,.56-.07,1.18-.1,1.72,0,.55,.02,1.02,.06,1.31,.08-.61,.12-1.22,.26-1.82-.08,2.42,.33,3.61,.86,4.75,.25,.57,.51,1.13,.72,1.84,.25,.7,.48,1.55,.64,2.7-.29-.51-1.66-1.17-1.36,1.26,.43,.49,1.29,1.57,2.39,2.91,1.06,1.35,2.28,2.95,3.23,4.7v.83l.77,1.33,.86,1.28c-.84-.64-2.2-2.01-3.56-3.64-.63-.83-1.32-1.7-1.88-2.57-.54-.87-1.04-1.71-1.43-2.42,.25,1.82-.25,.59,.55,3.22,.03,.5-.24,.2-.48-.36-.24-.55-.51-1.34-.63-1.73,.5,2.09,1.13,4.16,1.92,6.18,.26-.26,.88,.81,1.54,1.86,.69,1.03,1.37,2.06,1.56,1.81-1.26-1.92-2.45-3.91-3.44-6.02,.53-.46,3.08,3.06,5.16,6.86,.33,1.1-1.46-.13-1.62,.05,.25,.2,.88,1.06,1.46,1.93,.6,.85,1.19,1.68,1.23,1.9l-1.36-1.39c.59,1.11,1.33,1.85,2.1,2.63,.81,.75,1.53,1.61,2.26,2.95,.32,.41,.65,1.14,.96,1.75,.31,.62,.64,1.08,.84,1.02-.61-1.75,1.06-3.56,2.15-3.13,.1,.14,.84,1.21,1.63,2.36,.84,1.12,1.73,2.35,2.03,2.87,.42,.75-.29,.64-1,.45-.71-.19-1.44-.43-1.1,.25,.17-.09,.99,.39,1.34,.57,.71,.81-.72,.14,1.11,1.6,.69-.22,3.69,2.96,1.21,.26,1.92,1.22,1.79,1.63,4,3.11-.22-.42,.48-.39,1.47-.11,1.01,.24,2.32,.69,3.3,1.2-.2,.08,.11,.52,.27,.73,3.91,2.35,6.01,3.67,9.95,5.35,.3,.3,2.14,1.27,1.22,1.21,.62,.13,1.24,.09,2.48,.53,2.21,1.43-2.81-.93-1.22,.41,.15-.16,1,0,2.05,.27,1.05,.25,2.31,.52,3.25,.7-.19-.38-1.21-.74-2.42-1.04-1.2-.34-2.59-.66-3.52-.86,.31-.81,3.64-.42,7.96,.44,3.43,.74,1.32,.93,1.94,.98,3.15,.99,4.63,.91,5.93,.92,1.3,0,2.44,.03,5.05,.88,2.01,.98-.12,1.07,.27,1.55-1.43-.2-2.49-.51-3.43-.83-.93-.34-1.75-.67-2.7-.9l2.27,.82c-.93-.04-2.83-.37-3.81-.77,.84,.43,3.54,1.2,6.69,1.85,3.14,.72,6.71,1.36,9.2,2.02,.93-.04,2.51,.02,1.81-.31l-1.61-.18c-1.4-.66,3.1-.12,1.11-.64,1.09,.02,2.26,0,3.51,.07,1.26,.06,2.62,.16,4.11,.49l.49,.68c-.04-.19-1.93-.62-2.8-.55,1.29-.11,4.53,1.45,6.01,.78l-2.07-.66c2.2-.07,4.92-.39,7.58,.03-1.16-.72-.63,.03-2.46-.88,1.55,1.06-6.82-.78-4.29,.43-1.85-1.05-3.32-.79-5.76-1.81,.05,.2,.84,.53-1.37,.08-.11,.04-.36,.08-.51,.1l-.15-.04,.12,.04c-.1,.01-.11,.02,.04,.02,.52,.17,.93,.34,1.09,.48-1.17,.28-4.72-.27-5.96-.26-1.3-.34,.59-.13-.09-.47l-1.85,.03c-.1-.48-3.35-1.38-.21-1.07-.92-.18-1.85-.34-2.78-.54-1.58-.6-3.79-1.16-5.21-1.28-1.27-.41-3.38-.32-2.17-.38-1.45-.27-2.92-.5-4.36-.83v-.12c-4.21-1.17-8.85-1.79-13.1-4.47-.7-.21-1.38-.48-2.18-.8-.79-.33-1.69-.72-2.73-1.35l-.24-.56c-1.74-.68-4.64-3.03-5.5-3.13-.57-.96-2.38-2.22-4.29-3.61-.95-.7-1.96-1.4-2.81-2.12-.88-.7-1.66-1.37-2.2-1.96l-.44,.29c-.4-.39-.8-.76-1.2-1.14-.39-.39-.79-.78-1.2-1.18-.86-.78-1.68-1.67-2.66-2.65l-.24,.41c-1.81-1.64-3.48-5.09-5.23-8.38,.25,.16,.67,1,.93,1.63-.71-2.17-1.83-4.19-2.92-6.24-1-2.07-1.95-4.18-2.01-6.25-.36-.95-.51-1.68-.48-2.4,.01,.09,.04,.17,.06,.24-.01-.1-.03-.25-.06-.41,.01-.45,.03-.92,.03-1.42-.04,.43-.07,.84-.06,1.2-.12-.77-.38-1.92-.56-3.07l.44-.53c-.01-.09-.02-.17-.04-.26,.08-1.13-.31-.9-.61-.27-.15-.58-.23-1.11-.36-1.53,.38-.48,.3-1.24,.22-2.05-.02-.81-.04-1.67,.4-2.28-.22-.4-.12-1.87-.1-3.33,.05-1.46,.15-2.91-.23-3.3,.12-.02,.23-.35,.13,.28,.31-1.29,.76-2.54,.78-3.76,.24-.13,.5-.26,.74-.38l.02-3.01c.94-1.56,1.39-2.15,1.25-.37,.35-2.08,.57-2.93,.82-3.66,.25-.74,.41-1.42,.84-3.21l.28,.32c.55-1.15,.93-3.27,1.62-3.79,.52-.55,1.18-1.61,2.01-2.96,.89-1.32,1.82-3,3.01-4.69,1.12-1.73,2.44-3.5,3.75-5.21,1.38-1.66,2.72-3.27,4.08-4.54-1.82,.33,2.62-2.28,2.18-3.06,.5-.13,1.31-.78,.67,.26,.59-.74,1.14-1.35,1.66-1.89,.53-.53,1.04-.97,1.5-1.41,.93-.87,1.69-1.69,2.39-2.85,.5-.1-.31,.85,.09,.7,.18-.25,.7-1,1.1-1.15,.39-.14-.24,.55-.59,1.04,2.74-2.69,2.51-3.53,2.17-4.33,1.72-1.04,2.41-1.72,3.17-3.03,.69-.25,1.74-.77-.04,.86,1.04-.88,6.64-4.96,6.39-5.52,.44-.13,1.54-1.11,1.78-1.39,2.47-1.8,2.73-1.9,5.14-3.69l-.74,.39c.53-1.31,1.95-1.57,3.9-3.01v.1c4.93-2.59,1.83-1.57,6.79-3.98l-.51-.25c-.12-1.16,4.44-2.06,6.99-3.99l-1.13,.35c1.32-1.2,4.9-1.24,6.48-1.98,.37-.11-.45,.42-.88,.74,4.26-1.72,.2-.85,3.1-2.63,.71,0-.29,1.14,1.74,.1,1.11-.32,5.32-4.12,8.4-4.98-.73,.09-1.46,.17-.14-.73,2.12-1.2,6.29-2.08,7.89-3.79,.31-.07,.44-.06,.48,0,1.57-1.01,5.27-2.96,6.09-3.84,2.25,.74,10.11-5.65,10.73-4.24l5.16-2.47-.07,.2c3.37-1.43,4.39-2.31,5.41-3.17,.81-.25,.31,.13,.28,.23,4.98-1.92,5.45-2.19,9.23-4.71l.63,.26c.99-.76,7.38-2.42,11.94-5.11-.02,.07-.08,.2-.44,.44,5.15-2.94,13.47-4.67,14.64-7.26l3.32-2.11c-4.6,2.1,.33-1.03-1.67-.39,1.74-.96,4.84-1.78,2.7-.61l-.38,.09c-.38,1.25,5.76-2.51,5.92-1.9,8.82-4.61,17.53-9.03,25.31-14.33h-1.31c.9-.6,1.83-1.18,2.71-1.82,.79-.36,1.27-.2-.65,1.13,1.25-.37,2.99-2.57,2.95-2.73,1.93-1.23,1.69-.82,1.13-.15-.57,.65-1.5,1.48-.92,1.08,.51-.39,1.02-.77,1.51-1.18l-.39,.19c1.05-1.18,.98-1.5,3.22-3.2,1.47-1.01,.99-.22,1.55-.65,.03,.04,.23-.09,.85-.66,1.1-.84,2.14-1.76,3.2-2.65l-1.63,.65c1.2-1.42,2.95-2.53,1.08-1.77,.7-.26,1.77-1.04,2.99-2.08,1.25-1.01,2.59-2.36,3.9-3.68,1.3-1.33,2.49-2.73,3.49-3.82,.94-1.13,1.67-1.98,2.01-2.26,.68-1.11,1.34-2.22,2.12-3.31,.8-1.09,1.59-2.27,2.5-3.55-.54,.58-1.33,.6,.24-1.59,.61,1.56,3.11-3.89,4.91-5.45-.77,.72,.18-.98,.84-2.67,.69-1.67,1.29-3.21,.22-2,1.01-2.03,.54,.09,1.47-1.4,.37-1.32,.83-2.67,1.37-4.06,.46-1.41,.92-2.88,1.43-4.38,.91-3.03,1.77-6.29,2.02-9.67-.16-.12-.57,.96-.65-.49,.47-1.14,.8-2.3,1.14-3.48-.05-1.35-.91-1.26-.3-3.68-.14,.35-.34,.85-.43-.03,.39-6.59-.91-13.36-3.13-19.72-2.23-6.39-5.33-12.4-8.61-18.33,.39,.84,.38,1.03,.21,.85-.17-.19-.56-.71-1-1.24,.48,.76-.36,.24-.45,.52l-1.44-2.41-.73-1.21c-.25-.4-.53-.77-.8-1.16-.59-.16-1.6-1.27-2.57-2.34-.99-1.05-2.03-1.97-2.45-1.96l1.35,1.14c-1.11-.55-.81,.32-.37,1.35,.4,1.08,.9,2.36,.44,2.55,1.15,.67,2.1,2.08,2.98,3.76,.47,.82,.97,1.67,1.57,2.47,.57,.83,1.19,1.64,2.03,2.34,.34,.87-.69-.48-.6,.05,.91,.64,1.74,1.64,2.68,3.8l-.22-.18c.82,1.42,1.53,2.64,2.01,3.86,.51,1.2,1.01,2.29,1.4,3.45,.36,1.16,.73,2.35,1.15,3.69,.39,1.34,.68,2.87,1.14,4.63l.31-.64c.4,1.53,.23,1.91,.28,2.65,.53,.81,.32-.28,.12-1.39-.25-1.1-.57-2.21,.05-1.52-.04,.29-.03,.67,.03,1.12,.04,.46,.09,.99,.18,1.57,.15,1.16,.47,2.5,.65,3.84,.15,1.34,.29,2.67,.34,3.74,.05,1.08-.13,1.92-.37,2.28,.09,2.41,.52-.73,.61,1.69l-.27,.65,.41,.61c-.1,1.6-.53,2.38-.78,2.43,.05-.38-.02-1.09-.03-1.5-.22,1.02-.25,2.45-.24,3.72-.04,1.27-.13,2.37-.22,2.72l.47-2.28c-.15,1.64-.3,3.37-.55,5.13-.38,1.74-.67,3.55-1.14,5.3-.25,.87-.5,1.75-.75,2.61-.24,.87-.45,1.74-.77,2.56-.6,1.65-1.05,3.31-1.59,4.83l.41-.35c-.86,2.31-1.28,3.22-1.87,4.09-.29,.44-.59,.89-.96,1.54-.37,.65-.83,1.48-1.49,2.66l.06-.2c-.39,1.03-.99,2.37-1.87,3.57,.55-1.27-1.87,1.84-1.1,.2-1.29,2.34-1.68,2.88-1.82,3.32-.16,.43-.13,.7-.88,2.38l-.81,.4c-.53,1.13-.42,1.36-2.15,3.48,1.27-1.87-1.59,.91-.23-1.22-1.11,.92-1.98,1.8-2.7,2.62-.73,.82-1.36,1.55-1.91,2.22-1.08,1.36-2.03,2.34-3.38,2.8-1.21,2.55,4-2.97,3.06-1.82,.55-.32,.31,.21-.25,.96-.58,.73-1.48,1.69-2.18,2.27-.67,.63-1.49,.89-2.55,1.39-1.06,.5-2.36,1.23-4.15,2.67,.36-.28,.33-.36,.69-.65-.75,.44-1.34,1.04-1.99,1.65-.66,.6-1.38,1.2-2.35,1.68-.56,1.23-2.22,1.61-2.03,2.44,1.12-.86,2.2-1.78,3.28-2.68-1.77,1.62-3.04,3.73-6.57,5.61,.16-.31,1.03-1.13,1.61-1.71-1.07,.49-1.75,1.39-2.87,1.87-.08-.43,.96-1.18,2.23-2.08,1.25-.93,2.76-1.98,3.6-3-1.17,.48-3.59,3.3-3.04,1.86-.43,.99-1.38,1.61-2.49,2.28-1.11,.67-2.35,1.41-3.45,2.59l-.09-.51c-.37,.33-1.11,1.07-1.88,1.56l1.05-1.41c-1.83,1.82-4.36,2.19-6.28,3.68,4.33-2.63,1.27-.1,3.28-.92-2.5,1.92-3.46,2.08-4.5,2.28-1.04,.2-2.18,.38-5.18,2.19,.79-.52,3.24-1.5,2.06-.58-1.21,.57-2.84,1.28-3.68,1.44-4.04,2.3,.86,.09-.74,1.29-1.67,.25-1.9,1.29-3.63,2.4l-.24-.42c-4.86,2.16-.79,1.54-5.23,3.38l1.51-1.51-2.15,1.28,.22-.72c-2.25,1.56-3.06,1.85-5.52,2.86,.71,.04,.07,.94-2.06,1.97-1.58,.43,.62-.8-2.38,.68,.56-.6,1.15-1.28,2.65-1.51,.07-.21,.54-.59,.61-.8-1.7,.46-3.97,1.78-5.06,2.3,.43-.18,.94-.39,1.23-.45l-4.12,2.64c-.77,.15-.28-.23,.21-.61-.87,.46-1.4,.94-2.7,1.58,.18-.51-.07-.84,1.71-1.86l-4.03,2.31c-.35-.03-2.36,.54-1.87,.17-2.43,.84-5.44,3.26-8.68,4.36-.13,.14-.43,.35-1.07,.7-2.96,1.22-5.76,1.94-9.01,4l-2.26,.26c-2.64,1.38,3.02-.41-1.37,1.89-3.09,1.66-1.44,0-2.64,.34-1.44,1.05-3.89,2.97-7.06,3.81,.91-.57,1.72-.83,2.6-1.29Zm-32.88,16.53c.58-.43,1.69-1.38,2.29-1.37-.46,.87-1.14,.94-2.29,1.37Zm-45.48,32.64c.27-.49,.94-.98,1.75-1.46-.47,.48-1.06,.96-1.75,1.46Zm31.77,110.89h-.08c-1.49-.5-.96-.31,.08,0Zm3.14,.86c.33,0,.32-.08,.2-.17-.25,.08-.97-.04-1.77-.26,.2,.17,.59,.36,1.57,.42ZM202.57,110.9l-.58,.31c1.05-1.03,.81-.68,.58-.31Z"/><path d="M35.97,199.31c.21-.07,.31-.04,.4,0,.16-.24,.11-.32-.4,0Z"/><path d="M130.71,145.22l.1-.04c.04-.05,.06-.09,.07-.12l-.17,.17Z"/><path d="M18.6,299.49c-.49-.5-.69-.86-.82-1.09-.1,.05,.04,.37,.82,1.09Z"/><path d="M83.73,317.61c-.7-.03-1.39-.07-2.08-.12,1,.11,1.35,.25,1.84,.38-.03-.12-.41-.32,.24-.26Z"/><path d="M101.62,322.09c.31-.04,.65,.03,.96-.02l-.07-.23c-1.31-.05-2.24,.08-.89,.25Z"/><path d="M85.48,319.41c.12,.42,1.45,.43,2.92,.51-.09,0-.17-.01-.26-.02,.49-.52-1.09-.5-2.66-.48Z"/><path d="M88.73,319.94c.45,.02,.92,.05,1.35,.11,.19-.21-.54-.1-1.35-.11Z"/><path d="M70.67,316.29c.66,.23,.51-.43,.87-.2,.85-.37-4.64-.22-.87,.2Z"/><polygon points="86.52 320.87 86.05 320.32 85.18 320.63 86.52 320.87"/><path d="M75.01,319.03c.77,.16,1.54,.35,2.31,.49-.02-.09,.28-.1,.65-.09-1.44-.19-2.99-.56-2.96-.4Z"/><path d="M77.97,319.43c.75,.11,1.46,.19,1.89,.17-.41-.05-1.28-.15-1.89-.17Z"/><path d="M83.3,320.67l-.68-.18-1.65-.25c.77,.15,1.55,.3,2.33,.43Z"/><path d="M50.32,313.59c-.84-.17-1.67-.39-2.5-.61-.3,.08,.33,.4,1.27,.62,.62,.07,1.56,.25,1.23-.01Z"/><path d="M57.5,316.91c-.66-.27-.67-.39-1.02-.64l-.23,.58,1.24,.06Z"/><path d="M50.16,315.12c-.3,.12-3.76-.59-.59,.31,.3-.09,2.84,.47,.59-.31Z"/><path d="M16.84,295.46c.15,.16,.3,.32,.47,.46l.65-.79-1.12,.32Z"/><path d="M0,265.23c.01,1.62,.19,1.79,.37,1.93,.17,.13,.33,.22,.39,1.68,.35,.7-.1-2.37,.22-1.64-.46-1.88-.37-2.91-.97-1.97Z"/><path d="M.97,267.2c.09,.3,.18,.61,.3,.95-.15-.54-.23-.79-.3-.95Z"/><path d="M217.07,3.37c-.41-.54-.87-1.05-1.3-1.57l.7,1.15c.2,.14,.41,.27,.6,.42Z"/><path d="M213.76,1.21l.1-.8-1.27-.41c.35,.29,1.02,.86,1.17,1.21Z"/><path d="M71.68,172.9l-.06,.21c.35,0,.76-.21,1.59-.64l-1.53,.43Z"/><polygon points="95.72 161.04 95.3 161.23 96.33 161.39 95.72 161.04"/><path d="M115.7,150.88c-.84,.36-1.76,.92-2.6,1.28,1.76-.93,3.13-.72,2.6-1.28Z"/></g><g><path d="M152.64,356.99c.42-.06,.19-.44,.24-.53-.72,.27-.18,.63-.24,.53Z"/><polygon points="150.41 358.77 150.51 358.63 150.38 358.71 150.76 361.25 150.85 360.79 150.69 361.18 150.34 358.8 150.41 358.77"/><path d="M153.25,359.18c-.68-.37-.9,.82-1.51,1.01l-.18-.06,.16,.61c.47-.54,1-1.4,1.52-1.56Z"/><path d="M155.58,359.39c-.25-.17,.17-.41-.38,.16,.05,0,.07,0,.1,.01,.05-.04,.13-.1,.28-.18Z"/><path d="M155.3,359.57c-.27,.22,.32,.06,0,0h0Z"/><path d="M156.52,358.53l-.24,.46c.17,.08,.53-.11,.47,.07,.31-.37,.14-.45-.23-.53Z"/><path d="M156.6,357.86l-.14,.22c.07,.03,.14,.02,.14-.22Z"/><path d="M156.16,358.54l.3-.46c-.12-.06-.25-.25-.15,.2-.08-.2-.05,.03-.15,.27Z"/><path d="M155.86,358.61c-.3,.01-.63,.13-.39-.34-.66,.59-.27,.92,.39,.34Z"/><path d="M152.94,358.48l-.41,.05-.1,.38c.05-.19,.65-.26,.5-.43Z"/><path d="M159.12,357.31c-.05-.15-.34-.26-.47-.41l-.2,.33c.2,0,.53-.1,.67,.08Z"/><path d="M158.65,356.9l.3-.49c-.41,.21-.41,.36-.3,.49Z"/><polygon points="156.23 357.15 155.83 358.07 156.36 357.05 156.23 357.15"/><polygon points="160.81 356.34 160.74 356.79 160.92 356.07 160.81 356.34"/><path d="M161.91,355.65c-.05,.36,.5,.29,.39,.55,.28-.22,.42-.58,.55-.91-.2,.25-.48,.37-.94,.35Z"/><path d="M163.1,354.79c-.09,.13-.17,.31-.25,.51,.1-.13,.19-.29,.25-.51Z"/><path d="M159.75,356.03c.08,.06,.27,.23,.57,.17l-.39-.27-.18,.1Z"/><path d="M159.91,355.93h.01c.19-.09,.33-.16,.39-.19-.05,.02-.17,.08-.4,.19Z"/><path d="M159.7,356.05l.04-.02s-.06-.03-.04,.02Z"/><path d="M157.58,356.75c.13-.36,.54-.92-.18-.9-.03,.36,.38,.35,.18,.9Z"/><path d="M159.22,355.72l-.52,.2c.07,.09,.24,.18,.17,.36l.35-.56Z"/><polygon points="159.38 355.47 159.22 355.72 159.41 355.65 159.38 355.47"/><path d="M162.08,354.89c.12-.28,.34-.41,.59-.58-.32,.08-.63,.19-.9,.34,.03,.14,.03,.42,.31,.24Z"/><path d="M161,355.35l.03-.05s-.07-.01-.03,.05Z"/><polygon points="165.23 352.95 165.16 352.9 165.18 352.97 165.23 352.95"/><path d="M161.68,354.6c-.25,.04-.32,.2-.37,.39,.13-.12,.28-.24,.46-.34-.01-.06-.03-.1-.08-.04Z"/><path d="M163.71,354.23c-.15-.02-.31-.02-.47-.01,.17,.06,.49,.13,.47,.01Z"/><path d="M161.17,355.37s-.01,.02-.02,.03c.11,.04,.08,0,.02-.03Z"/><path d="M161.17,355.37c.08-.11,.11-.25,.15-.38-.11,.1-.2,.2-.27,.32,.04,.01,.09,.04,.13,.06Z"/><path d="M164.77,350.1c.14,.37-.26,.98-.94,.86-.34,.51,.58,1.5,1.32,1.94-.06-.16-.14-.3,.24-.76-.27-.11-1.32,.11-1.07-.42,.56-.52,.6-.15,1.01-.13-.5-.3,.51-1.06,.04-1.64l-.46,.52c-.06-.09,.06-.36-.14-.37Z"/><path d="M164.21,353.35l-.18,.15c.26-.06,.5,0,.94,.12,.24-.34,.24-.51,.21-.64l-1.01,.46,.04-.09Z"/><path d="M163.15,353.97c-.05-.46,.34-.88-.17-1.14-.57,.34-.24,.54-.5,.89,.89-.6-.16,.36,.64,.21-.15,.16-.3,.27-.45,.37,.19-.04,.39-.08,.58-.09h-.04v-.02c-.07-.03-.1-.05-.04-.04,0,0,.01-.01,.02-.02-.02-.06-.03-.11-.03-.17,.31-.07,.1,.08,.03,.17,0,.02,0,.04,.02,.06h0l.83-.71c-.23,.05-.47,.2-.89,.48Z"/><path d="M157.4,354.75s.06,.04,.08,.07c.03-.08,.04-.13-.08-.07Z"/><path d="M157.92,354.75c-.04,.09,0,.27-.24,.37-.25,0-.11-.18-.19-.29-.07,.18-.29,.55,.22,.47l.03-.09c.45-.1,1.2,.09,1.17,.17-.31-.27-.54-.45-.99-.63Z"/><path d="M160.51,354.21l.68-.62-.58-.1,.13,.18c-.49,.17-.26,.36-.23,.54Z"/><polygon points="165.42 353.09 165.53 353.55 165.69 352.75 165.42 353.09"/><polygon points="166.43 352.52 166.57 352.89 166.74 352.54 166.43 352.52"/><path d="M198.17,305.32l-.21-.16c.08,.08,.15,.13,.21,.16Z"/><path d="M198.99,306.9l.2-.05c-.14-.03-.22-.02-.2,.05Z"/><path d="M191.97,338.33c.54,.05,1.26,.22,.95-.1l-.37-.27c-.18,.23-.38,.33-.58,.36Z"/><path d="M202.47,321.06l-.17,.06c.1,.14,.2,.26,.29,.38-.04-.13-.08-.28-.12-.44Z"/><path d="M200.83,320.25l.38-.36c-.12,.07-.25,.19-.38,.36Z"/><path d="M191.84,297.76l-.52,.09c.31,.33,.34,.03,.52-.09Z"/><path d="M177.12,347.05c.38,0,.65-.06,.87-.15-.48-.04-.94-.22-.87,.15Z"/><path d="M202.56,303.75c-.15-.12-.26-.14-.35-.09,.15,.12,.27,.17,.35,.09Z"/><path d="M178.86,346.46c-.07-.01-.13,0-.21,0-.19,.18-.38,.34-.66,.45,.35,.03,.71-.02,.87-.44Z"/><path d="M160.72,277.73s-.04-.06-.05-.09c-.04,.04,0,.07,.05,.09Z"/><path d="M156.63,269.27s-.02,.05-.05,.11c.04,0,.08-.06,.05-.11Z"/><path d="M170.71,350.6c-.21,.13-.01,.06,0,0h0Z"/><path d="M168.87,349.59c.03-.07,.03-.14,0-.23,.03,.1,.03,.18,0,.23Z"/><path d="M179.82,342.9h.02c-.11-.05-.09-.04-.02,0Z"/><path d="M170.29,350.59c.11,0,.22,0,.34-.02-.06,0-.17,0-.34,.02Z"/><path d="M170.42,350.75l-.21,.06c0,.08,.05,.11,.21-.06Z"/><path d="M171.01,350.43c-.12,.07-.25,.11-.38,.14,.06,0,.09,.02,.08,.04l.3-.17Z"/><path d="M179.64,285.89s-.02-.04-.03-.06c-.3,.04-.19,.07,.03,.06Z"/><path d="M193.92,330.68s0,.02,0,.03h.04l-.03-.03Z"/><path d="M194.27,329.85c.16,.64-.05,.73-.33,.85l1.1,.68c-.25-.51-.5-1.02-.77-1.52Z"/><path d="M195.7,301.81l.04,.7c-.94-.19-1.06-.72-1.18,.04,.57-.38,.93,.06,1.3,.49,.36,.44,.67,.9,1.26,.56l-.03,.48c-.05-.1-.13-.07-.17-.17-.15,.97,1.14-.06,1.49,.88,.07,.35,0,.65-.24,.53l.65,.5c.08,.2-.15,.27-.23,.07l.64,.95h-.04c.28,.05,.7,.26,.91,.37-.06,.35-.19-.08-.31,.06l.55,.45c-.22,.37-.74,.03-.86-.39-1.02,1.08,.51,.35,.27,1.79l-.39-.47c-.57,.62-.12,.92-.43,1.66,.1-.11,.3-.49,.53-.81,.23-.31,.48-.54,.76-.29-.04,.22-.02,.46,.34,.72-.46,.15-.25,.44-.09,.85l-.63,.14c.31,.39,.63,.27,.97,.47,.02,.53-.44,.73-.83,.92,.04,.8,.68-.7,.97,.23-.06,.36,0,.64,.13,.94,.11,.3,.27,.61,.48,1.01-.2,.49-.39-.07-.57,.11l.53,.41c0,.11-.17,.07-.25,.06,.21,.36,.64,.02,.84,.61,.37,.09,.06,.39-.22,.74-.29,.35-.56,.74-.2,1.16-.2,.15-.38-.14-.63-.12,.23,.51,.28,.74,.33,.94,.07,.21,.16,.39,.4,.88l-.58,.57c.59-.37,.98,.42,1.26,1.18,.28-.11,.51-.22,.63-.31,.04,.37,.03,.73,0,1.08-.15,.08-.31-.1-.5-.34,.02,.08,.05,.16,.07,.22-.36,.25-.63-.06-.87-.41,.17-.06,.34-.13,.51-.19-.27-.35-.65-.7-1.01-.77,.05,.08,.09,.21,.08,.35-.07-.09-.16-.16-.23-.15-.07,0,.02,.14,.12,.34l-.75-.05,.25,.14-.87,.92c.37,1.07,.91,2.27,.43,3.71-.25-.58-.69-.5-1.21-.84,.77,0,.28-1.1,.75-1.66-.24,.3-.46,.09-.51-.04l-.09,1.42c-.42-.28-.46,.05-.82,.22,.99,.3,.05,1.17,.02,1.79-.29-.16-.51-.46-.1-.96-.99,.18,.47,1.43-.47,1.65,.09-.13,.18-.18,.08-.32,.02,.48-.7,1.08-.81,.73l.09-.13c-.35,.39-.88,.99-1.21,1.61-.36,.6-.59,1.19-.33,1.54-.09-.07-.66-.8-.75-.96,.3,1.11,.53,2.24,.72,3.38-.4-.64-2.07-1.43-1.74-2.33-.25,.1-.55,.23-.75,.79,.19-.04,1.04,.46,.92,.67-1.02-.13-.64,0-1.69,.03,.3-.06,.86,.98,.52,1.24-.07-.17-.78-.82-.74-1.01,0,.5,0,1.02-.03,1.52,.07-.32-.58-.75-.96-.85,.22,.1-.69,.54-.83,.8l.5-.07c-.98,.6,.08,1.95-.89,2.63-.02-.27-.58-1.36-1.13-1.12,.13,.61,.65,2.95,0,3.93l-.36-.16-.48,.76c-.03-1,.1-3.3,.27-4.31-.5,.04-.32-.25-.83,.15-.36-.12,.02-.59,.16-.71-.45,.23-.88,.47-1.33,.69,.43,.52-.58,1.19-.23,1.63,.33-.5,.66-.99,.98-1.49,.45,.52,.28,2.11-.7,2.62-.38-.07-.48-1.12-.62-1.29,.02,.28-.63,.92-.8,.83l.2-.55c-.64,.1-.36,1.28-1.31,1.11-.24,.09-1.08-.37-.92,0,.74,.46,2.03,2.45,2.09,3.08-.11,0-1.54,.06-1.98-.13-.66-.32-.17-1.55-.73-1.83,.08,.17,0,.48-.05,.59-.31,0-.19-.55-.65-.19,.25,.64-1.05,.52,.05,.63-.4,.44-.59,.17-1.15,.52,.4,.29,.19,1.6-.22,2.04-.05-.17-.27-.31-.37-.37-1.06,.5-1.76,.51-2.73,1-.16-.1-.72-.04-.66-.41-.08,.18-.11,.45-.4,.61-.84-.23,.62-.42-.14-.83,.14,.37-.52,.88-.84,1.31,.41,.48,1.04-.39,1.35-.83,.38,.75,.04,1.92-.81,2.78-.72,.59-.6-.31-.68-.14-1.59,.63-.65,1.96-2.19,2.04-.74-.24-.49-.95-.78-1.24,.57-.51,1.17-.19,1.6-.43l-.66,.04c.13-.26,.51-.6,.82-.58-.63-.23-2.62,1.18-3.99,1.36-.13,.26-.41,.61-.14,.72l.34-.25c.53,.22-.44,.88,.12,.83-.36,.52-.71,1.22-1.52,1.35l-.4-.48c.09,.15,.62,.1,.73-.16-.17,.39-1.44-.21-1.4,.67l.68,.14c-.36,.52-.69,1.41-1.38,1.55,.55,.4,.11-.13,.86,.28-.78-.6,1.59-.75,.57-1.28,.82,.51,.93-.08,1.83,.26-.11-.17-.38-.24,.18-.41,0-.06,.02-.16,.04-.22h0s0-.06-.01-.01c-.16-.02-.31-.06-.4-.15,.05-.54,.89-.94,1.06-1.29,.35-.07-.03,.27,.24,.38l.26-.53c.24,.38,1.15,.27,.54,.86l.67-.3c.5,.04,1.08-.14,1.32-.47,.35-.07,.57-.83,.45-.38l.91-.76,.06,.1c1.05-.46,1.77-1.71,3.3-1.59,.29-.28,.58-.59,1.22-.77l.29,.29c.38-.34,1.51-.36,1.51-.82,.98,.67,2.25-.98,3.11-1.26l-.22-.46c.54-.29,.97-.71,1.52-1.27l-.27-.36c.36-.66,1.59-.6,2.44-1.21,.04,.18-.21,.29-.42,.31,1.6,.17,1.76-2.06,3.09-2.11,.14-.29,.33-.37,.55-.4-.02,.02-.03,.04-.04,.06,.03-.01,.06-.04,.1-.07,.15-.01,.3-.02,.46-.05-.16-.01-.3-.02-.41,0,.17-.14,.4-.38,.59-.67l.4,.3,.05-.06c.36-.05,.06-.33-.29-.52,.08-.16,.14-.32,.16-.49,.69,.44,.49-.74,1.28-.32-.08-.44,1.05-1.29,.6-2.05,.08,.08,.19,.05,.06,.17,.33-.17,.66-.34,.74-.73l.53,.34-.02-1.14c.6-.07,.9-.06,.89,.61,.3-1.32,.48-.85,.6-2.06l.26,.3c.23-.27,.2-1.03,.59-.97,.53-.06,1.19-.78,1.87-1.67,.34-.45,.7-.93,1.08-1.39,.36-.47,.74-.91,1.16-1.25-.61-.13-.37-.26-.07-.43,.28-.18,.63-.4,.25-.65,.3,.03,.57-.15,.62,.26,.13-.53,.42-.82,.63-1.12,.19-.31,.31-.63,.11-1.13,.3,0,.28,.38,.47,.35-.02-.11-.08-.42,.11-.46,.19-.04,.15,.24,.19,.45,.4-1.08-.35-1.49-1.07-1.84,.56-.36,.64-.64,.22-1.18,.29-.1,.64-.34,.56,.35,.13-.34,.96-2.18,.34-2.34,.2-.08,.16-.51,.09-.62,.13-.83,.19-.9,.22-1.74l-.13,.22c-.76-.38-.05-.68-.18-1.35l.08,.02c.5-1.53-.29-.63,.28-2.18l-.47,.13c-.98-.02,.4-1.36-.13-2.18l-.22,.36c-.21-.2,.08-.58,.42-1,.34-.42,.67-.86,.67-1.12,.06-.13,.19,.13,.3,.26,.21-1.42-.66,0-1.07-.87,.27-.27,.89-.03,.76-.68,.07-.19-.29-.59-.72-1-.42-.42-.82-.89-.69-1.42-.16,.28-.33,.56-.68,.24-.3-.57,.1-2.05-.91-2.2,.02-.11,.07-.17,.12-.2-.21-.17-.48-.49-.77-.77-.3-.26-.62-.48-.89-.49,.58-.63-.02-1.18-.58-1.66-.58-.47-1.17-.83-.54-1.28l-.98-1.17,.15-.06c-.53-.83-1.05-.85-1.54-.87-.06-.24,.15-.2,.22-.24-.67-1.29-.83-1.35-2.19-1.7l.28-.43c-.21-.02-.42-.52-.74-1.1-.34-.56-.8-1.2-1.49-1.47,.05-.03,.14-.08,.26-.05-1.49-.66-1.77-3.57-3.41-2.59l-1.05-.33c.89,.96-.66,.46-.46,1.04-.45-.25-.63-1.28-.1-.94v.13c.81-.57-.99-1.31-.55-1.77-.51-.4-.96-.83-1.45-1.27-.51-.46-1.01-.9-1.52-1.33-1.02-.84-2.05-1.6-3.13-2.21l-.1,.78-.73-.44c-.12-.26,0-.65,.53-.33-.09-.52-1.07-.17-1.15-.03-.92-.81,.8-.55,.49-.73l-.47-.18,.06,.13c-.49,.08-.67,.35-1.3,0-.34-.34-.01-.51-.16-.62,.02-.05-.02-.09-.24-.14l-.93-.52,.13,.7c-.54,.05-.88-.45-.72,.34-.21-1.23-3.39-1.99-3.65-2.45-.77,.11-1.34-.16-2.04-.54,.13,.19-.04,.83-.62,.47,.79-1.11-.88-1.06-.96-2.16,.16,.79-1.79-.69-1.5,.45-.46-.35,.19-.46-.05-.94-1.43-.13-2.46-1.62-3.94-2.27-.11,.14,0,.51-.44,.56l-.28-1.19c-.31-.09-.79,.72-.95-.11-.01,.17-.03,.42-.24,.36-1.08-1.19-2.42-1.95-3.6-2.93-1.16-.94-2.15-2.23-2-3.68l-.13,2.07,.11-.02c-.08,0-.14-.01-.18-.02l.13-1.99c-.05,.08-.1,.1-.15,.07l-.12,1.84s.02-.12,.06-.18c-.13,.04-.35-.26-.55-.39,.17-.04,.33-.06,.43,.02,.02,.01,.04,.03,.06,.06,.02,.04-.04-.07,0-.02,.01,.02,.02,.05,.02,.07,.03,.08,.06,.19,.06,.19-.09-.32,.07-.37,.4-.37,.32,0,.74-.02,.81-.34l-.48,.12c.59-.75-.79-1.66-.83-2.6-.31,.37-.8,.28-1.49,.44-.68,.16-1.36,.57-1.6,1.09l-.46,1.01,.36,.54c.14,.2,.35,.38,.67,.48-.05,.34-.38-.07-.51,.17,.5,.11,.77,.37,.99,1.06h-.13c.6,.78,.99,1.33,1.38,1.95,.41,.6,.82,1.24,1.55,2.03l.18-.46c.31,.33,.29,.51,.38,.73,.85-.24-.95-.83-.08-1.14-.09,.55,.52,1.07,1.12,1.52,.59,.47,1.18,.89,1.04,1.46,.57,.37,.13-.56,.7-.2v.35l.34-.23c.33,.29,.33,.71,.22,.94-.08-.08-.3-.09-.41-.14,.31,.6,1.45,.73,1.56,.92l-.46-.48c1.71,.69,3.48,2.04,5.28,2.25l-.02-.26c1.35,.2,.83,.68,2.21,1.12l-.07,.03c.35-.08,.75-.02,1.09,.17-.44,.09,.4,.75-.15,.81,1.46,.19,.78-.02,1.97-.39l.04,.43c.43-.17,.52-.32,1.21-.11-.66,.05,.17,.7-.59,.81,1,1.36,2.34,.18,2.44,1.54,1.05-.64-.91-1.06-.47-1.1-.15-.44,.83-.46,1.21-.17,.42,.22,.16,1.53,1.22,2.02-.1-.06-.14,.01-.25-.04,.28,.43,.92,.06,1.21,.68,.55-.42,.6,.35,1.04-.31l-1.04-.33c.63,.09,1.58-.47,2.25,.41-.15,.1-.51,.15-.74,.15,.15,.34,.57,.13,.72,.49-.45,.65-1.22-.46-2.08-.22,.12,.44,1.35,.05,.66,.66,.92-.74,.93,.65,2,.31l-.28,.39c.14,0,.48-.08,.66,.05l-.66,.33c.8-.14,.77,.99,1.39,1.06-1.01-.64,.09-.63-.17-1.2,1.63,.29,.09,1.5,1.47,2.24-.19-.08-.47-.71-.06-.69,.19,.26,.38,.65,.37,.95,.96,.68,.17-.49,.74-.4-.06,.7,.59,.19,1.11,.38l-.31,.37c.83,1.1,.93-.55,1.6,.54l-.82,.17,.59,.28-.46,.33c.78,.14,.87,.36,1.27,.92,.11-.35,.65-.6,1.1-.21,.1,.49-.47,.19,.19,.71-.34,.09-.75,.23-.72-.34-.13,.09-.34,.1-.48,.19,.1,.53,.75,.79,.97,.99-.07-.09-.16-.21-.16-.3l1.34,.34c.02,.26-.2,.26-.4,.27,.21,.13,.5,.08,.78,.3-.34,.22-.6,.52-1.1,.31,.38,.15,.75,.32,1.12,.48-.06,.18,.09,.75-.12,.74,.28,.6,1.65,.55,1.99,1.38,.08-.02,.2,0,.36,.09,.47,.64,.59,1.45,1.57,1.82l-.2,.85c.59,.45,.22-1.11,1.21-.35,.73,.52-.26,.62-.22,.97,.52,.11,1.54,.27,1.55,1.24-.26-.13-.3-.35-.48-.51Zm4.52,7.4c-.15-.12-.58-.31-.36-.52,.59-.03,.41,.21,.36,.52Zm.87,12.77c-.1-.18,.05-.33,.31-.47-.03,.16-.12,.33-.31,.47Zm-28.1,27.07s0-.02,0-.03c.45-.01,.29-.01,0,.03Zm-.85,.18c-.05,.1-.01,.16,.05,.2,0-.14,.17-.23,.37-.29-.11-.09-.25-.12-.42,.09Zm6.61-67.44l.09,.19c-.4-.04-.25-.11-.09-.19Z"/><path d="M201.02,320.35c.09-.02,.18,0,.27,.01-.06-.09-.15-.12-.27-.01Z"/><path d="M191.93,297.74v-.02s-.07,.02-.1,.04l.1-.02Z"/><path d="M181.81,339.63c.18-.02,.31,0,.41,.05-.05-.11-.17-.15-.41-.05Z"/><path d="M168.51,351.93l.42-.35c-.22,.14-.35,.08-.5,.07,.06,.1,.23,.2,.08,.28Z"/><path d="M163.01,351.38c-.04,.09-.15,.08-.19,.17l.12,.19c.29-.17,.41-.44,.06-.36Z"/><path d="M167.35,350.72c-.22-.34-.46-.07-.76,.17,.02-.01,.04-.02,.06-.03,.16,.56,.43,.21,.7-.14Z"/><path d="M166.52,350.93c-.09,.07-.2,.13-.31,.17,.06,.22,.15-.02,.31-.17Z"/><path d="M171.29,349.94c-.21-.02,.13,.52-.04,.41,.05,.55,.8-1.09,.04-.41Z"/><polygon points="166.48 349.66 166.82 350.04 166.83 349.59 166.48 349.66"/><path d="M169.31,348.66l-.6,.14c.05,.07,0,.15-.07,.22,.34-.15,.75-.24,.67-.37Z"/><path d="M168.64,349.03c-.18,.08-.34,.17-.4,.29,.09-.05,.29-.17,.4-.29Z"/><polygon points="167.15 349.15 167.36 349.17 167.75 349.01 167.15 349.15"/><path d="M175.18,345.88l.53-.42c-.02-.18-.22-.2-.41-.03-.09,.18-.28,.35-.11,.45Z"/><path d="M172.79,345.54c.21,.01,.27,.11,.43,.21l-.26-.57-.17,.35Z"/><path d="M174.44,344.56c-.02-.18,.63-.87-.1-.46,.02,.18-.51,.6,.1,.46Z"/><polygon points="183.53 340.6 183.39 340.69 183.93 341.56 183.53 340.6"/><path d="M189.29,333.84c-.74,.26,.24,.61-.48,.77,0,.3,.59-.14,.57,.14,.21-.48,.48-.51-.09-.91Z"/><path d="M189.38,334.75c-.03,.08-.07,.16-.09,.26,.07-.13,.09-.21,.09-.26Z"/><path d="M157.05,269.81c.15,.07,.33,.14,.53,.21-.12-.11-.26-.23-.36-.34l-.17,.13Z"/><path d="M158.11,269.04l.2,.64c.12-.21,.23-.42,.33-.63-.14,.04-.42,.13-.53-.01Z"/><path d="M199.32,310.78h.16c.14-.12,.13-.22,.09-.42l-.25,.42Z"/><polygon points="197.34 305.14 197.39 305.23 197.79 304.76 197.34 305.14"/><path d="M193.71,301.29c.12,.18,.39,.29,.49,.48-.35-.31,.03-.98-.49-.48Z"/></g></g></g></g></svg>