<?xml version="1.0" encoding="UTF-8"?><svg xmlns="http://www.w3.org/2000/svg" viewBox="0 0 104.9 104.79"><g id="a"/><g id="b"><g id="c"><g><g><path d="M79.98,75.75s.02,.02,.02,.02c-.03-.04-.02-.02-.02-.02Z"/><polygon points="78.68 75.33 78.77 75.18 78.32 75.46 78.68 75.33"/><path d="M76.6,74.38c-.13,.75,.82,.3,1.09,.69v.18l.39-.46c-.47-.09-1.25-.06-1.48-.41Z"/><path d="M76.26,72.42c-.08,.28-.35,.07,.21,.23,0-.04,0-.06,0-.09-.05-.02-.1-.06-.2-.14Z"/><path d="M76.46,72.55c.22,.11-.02-.28,0,0h0Z"/><path d="M75.39,72.09l.41-.03c.03-.17-.2-.37-.04-.41-.36-.07-.39,.11-.37,.44Z"/><path d="M74.85,72.36h.2c.01-.07-.01-.11-.2,0Z"/><path d="M75.48,72.38h-.43c-.02,.11-.14,.31,.19,.01-.14,.16,.03,.03,.24-.01Z"/><path d="M75.6,72.58c.08,.23,.23,.44-.18,.47,.6,.25,.77-.24,.18-.47Z"/><path d="M76.14,74.97l.13,.31,.31-.11c-.16,.06-.35-.41-.44-.2Z"/><path d="M73.86,70.64c-.1,.11-.14,.4-.22,.57h.31c-.05-.16-.2-.38-.08-.57Z"/><path d="M73.63,71.21h-.46c.26,.22,.38,.15,.46,0Z"/><polygon points="74.37 73 75.18 72.87 74.26 72.94 74.37 73"/><polygon points="72.7 69.8 73.08 69.64 72.46 69.85 72.7 69.8"/><path d="M71.89,69.28c.3-.14,.12-.52,.36-.57-.24-.11-.57-.04-.86,.02,.25,.03,.41,.18,.5,.55Z"/><path d="M70.92,68.79c.13,0,.29-.02,.47-.06-.13-.01-.28,0-.47,.06Z"/><path d="M72.69,70.78c.03-.09,.12-.32,0-.53l-.13,.43,.12,.09Z"/><path d="M72.57,70.7h0c-.13-.12-.21-.19-.25-.22l.25,.22Z"/><path d="M72.72,70.8l-.03-.02s-.01,.06,.03,.02Z"/><path d="M73.75,72.13c-.32,.07-.85,.02-.68,.58,.3-.15,.2-.47,.68-.58Z"/><path d="M72.56,71.34l.28,.31c.06-.1,.09-.27,.25-.31h-.53Z"/><polygon points="72.32 71.34 72.56 71.34 72.46 71.23 72.32 71.34"/><path d="M71.24,69.53c-.25,.05-.42-.06-.61-.16,.13,.21,.3,.39,.49,.52,.11-.09,.33-.22,.12-.36Z"/><path d="M71.86,70.13h-.05s0,.06,.05,0Z"/><path d="M68.93,68.06l-.02,.08,.05-.05-.03-.03Z"/><path d="M71.1,69.97c.09,.17,.24,.15,.4,.1-.13-.04-.26-.1-.38-.19-.05,.04-.07,.07-.02,.09Z"/><path d="M70.33,68.59c.02,.13,.05,.25,.1,.37,.01-.16,0-.44-.1-.37Z"/><path d="M71.84,70s.02,0,.03,0c0-.11-.01-.07-.03,0Z"/><path d="M71.84,70c-.11,0-.23,.04-.34,.07,.11,.04,.21,.06,.32,.06,0-.04,.01-.09,.02-.13Z"/><path d="M66.72,69.81c.27-.29,.87-.29,.93,.29,.5,.01,1.09-1.18,1.26-1.97-.12,.13-.21,.26-.68,.19-.02,.26,.4,.95-.09,1.03-.55-.17-.26-.38-.34-.71-.13,.53-.99,.14-1.34,.78l.53,.1c-.06,.09-.31,.13-.27,.29Z"/><path d="M69.49,68.65l.16,.06c-.11-.17-.12-.38-.13-.78-.34-.02-.47,.06-.57,.16l.61,.55h-.08Z"/><path d="M70.25,69.16c-.36,.27-.79,.17-.88,.69,.41,.27,.49-.08,.84-.05-.69-.39,.32-.06,.02-.59,.17,.03,.29,.1,.41,.17-.08-.13-.15-.26-.2-.4v.03h0c0,.07-.02,.1-.03,.05,0,0-.02,0-.02,0-.04,.04-.08,.08-.13,.11-.13-.21,.04-.11,.13-.11l.05-.05h0l-.77-.29c.1,.15,.27,.26,.59,.45Z"/><path d="M72.2,73.24s.02-.07,.04-.1c-.07,.01-.11,.03-.04,.1Z"/><path d="M72.08,72.84c.08-.02,.22-.13,.35,.01,.06,.2-.12,.17-.19,.29,.16-.03,.5-.03,.33-.4l-.08,.02c-.18-.3-.21-.98-.13-1-.15,.37-.24,.64-.28,1.08Z"/><path d="M71.06,71.08l-.66-.22,.05,.5,.12-.19c.25,.29,.35,.02,.49-.09Z"/><polygon points="69 67.84 69.35 67.54 68.66 67.81 69 67.84"/><polygon points="68.3 67.36 68.57 67.07 68.24 67.12 68.3 67.36"/><path d="M29.15,37.67l-.22-.06c.09,.04,.16,.06,.22,.06Z"/><path d="M30.13,38.71l.16-.11c-.12,.03-.2,.06-.16,.11Z"/><path d="M52.33,53.53c.04-.46,.2-1.1-.08-.75l-.23,.38c.2,.08,.28,.22,.31,.37Z"/><path d="M40.01,45.33l-.03,.15c.15-.06,.3-.11,.43-.16-.12,0-.26,0-.4,0Z"/><path d="M38.61,46.47l-.07-.46c0,.13,.01,.28,.07,.46Z"/><path d="M23.4,32.38l-.48,.14c.25,.26,.3,0,.48-.14Z"/><path d="M61.44,61.87c-.07-.29-.18-.47-.29-.6,.06,.38,0,.82,.29,.6Z"/><path d="M32.83,34.85c-.14-.03-.24,0-.31,.06,.14,.04,.25,.03,.31-.06Z"/><path d="M60.62,60.81c0,.06,.02,.11,.03,.16,.18,.06,.36,.14,.5,.3-.04-.28-.15-.53-.53-.46Z"/><path d="M4.72,11.05s0-.05,0-.08c-.05,.03-.03,.06,0,.08Z"/><path d="M3.26,1.89c.06,.05,.13,.15,.21,.25,0-.06-.07-.14-.21-.25Z"/><path d="M65.74,65.05c.16,.09,.05-.02,0,0h0Z"/><path d="M65.34,66.94c-.06,.01-.12,.04-.19,.12,.08-.07,.14-.11,.19-.12Z"/><path d="M57.46,61.63h-.01c-.02,.09-.01,.07,.01,0Z"/><path d="M65.83,65.38c-.02-.08-.05-.17-.1-.25,0,.05,.04,.13,.1,.25Z"/><path d="M65.93,65.2c.04,.05,.07,.09,.1,.13,.06-.04,.08-.09-.1-.13Z"/><path d="M65.53,64.91c.08,.06,.15,.14,.2,.22,0-.05,0-.07,.01-.08l-.21-.14Z"/><path d="M15.56,21.75s0-.03,0-.06c-.26-.02-.18,.02,0,.06Z"/><path d="M45.76,53.54s.02,0,.03,0v-.03l-.03,.03Z"/><path d="M45.05,53.31c.58-.2,.65-.04,.73,.19l.7-1.06-1.43,.87Z"/><path d="M26.67,35.31l.04,.61c-.85,.04-.98-.41-1.07,.29,1.02-.9,1.36,1.21,2.38,.31v.42c-.04-.07-.11-.03-.16-.1-.05,.88,1.01-.37,1.41,.32,.11,.26,.1,.54-.14,.52l.66,.19c.1,.14-.1,.28-.2,.14l.72,.58-.03,.02c.24-.06,.68-.08,.89-.07,.02,.3-.18,.02-.26,.18l.59,.13c-.11,.39-.64,.34-.85,.05-.64,1.29,.54,.06,.69,1.34l-.46-.22c-.33,.76,.13,.83,.17,1.55,.09-.27,.1-1.62,.73-1.47,.04,.18,.14,.36,.55,.38-.34,.34-.05,.46,.22,.7l-.47,.43c.41,.15,.62-.1,.98-.14,.26,.35-.02,.77-.25,1.13,.42,.57,.22-.9,.89-.4,.24,.58,.71,.69,1.47,.91,.13,.44-.33,.23-.35,.46l.61-.11c.05,.07-.08,.16-.14,.21,.35,.07,.47-.44,.93-.22,.59-.41-.03,1.42,.95,1.27-.02,.23-.33,.23-.47,.44,.94,.2,.76,.22,1.73,.18l.11,.7c.04-.63,.82-.67,1.48-.68,.06-.27,.11-.5,.12-.63l.77,.27c0,.14-.22,.24-.49,.35,.07,0,.14,0,.2-.01,.02,.35-.33,.52-.72,.64l.09-.47c-.4,.15-.83,.34-1.06,.63,.09-.02,.2,0,.29,.05-.11,.04-.2,.09-.22,.15-.03,.07,.13,.02,.33-.01l-.38,.63,.23-.17,.38,1c1-.03,2.17-.36,3.16,.19-.56,.19-.64,.57-1.08,1.01,.24-.68-.81-.4-1.12-.89,.17,.26-.09,.42-.21,.44l1.15,.28c-.37,.35-.11,.42-.06,.76,.55-.86,1.01,.05,1.52,.11-.22,.26-.52,.44-.83,.03-.12,.93,1.34-.35,1.29,.5-.09-.08-.11-.16-.26-.07,.41-.01,.76,.64,.44,.74l-.09-.08c.51,.65,1.8,1.73,2.48,1.2-.07,.09-.78,.67-.94,.76l3.03-1.07c-.6,.44-1.43,2.05-2.21,1.88,.07,.21,.16,.46,.64,.56-.03-.17,.48-1,.66-.92-.2,.94-.05,.55-.07,1.48-.04-.25,.91-.93,1.11-.69-.15,.09-.76,.84-.92,.85l1.34-.28c-.28,.01-.68,.67-.77,1.02,.09-.22,.48,.48,.71,.54l-.07-.42c.53,.73,1.72-.56,2.32,.08-.24,.1-1.16,.87-.93,1.28,.54-.28,2.55-1.42,3.42-1.22l-.11,.34,.69,.13c-.86,.39-2.86,1.03-3.76,1.16,.07,.42-.2,.35,.19,.66-.08,.35-.52,.16-.64,.07l.72,.93c.42-.53,1.11,.1,1.45-.34l-1.4-.34c.42-.53,1.83-.91,2.35-.27-.03,.34-.92,.78-1.06,.96,.24-.1,.87,.2,.82,.37l-.5,.03c.17,.5,1.15-.16,1.13,.69,.11,.16-.16,1.02,.13,.75,.28-.78,1.83-2.58,2.37-2.87,.01,.08,.24,1.2,.15,1.63-.17,.66-1.31,.75-1.45,1.32,.13-.13,.41-.18,.51-.19,.04,.25-.44,.37-.06,.6,.51-.46,.62,.63,.54-.29,.44,.14,.24,.4,.63,.71,.17-.43,1.33-.82,1.77-.69-.13,.11-.21,.35-.25,.45,.6,.62,.75,1.15,1.36,1.69-.05,.17,.11,.58-.21,.69,.17-.01,.4-.12,.6,.03-.02,.76-.48-.29-.67,.48,.28-.28,.85,0,1.28,.05,.32-.54-.54-.62-.98-.67,.55-.64,1.6-.9,2.49-.65,.64,.28-.14,.6,.03,.59,.86,.93,1.77-.43,2.16,.7-.03,.68-.67,.83-.85,1.19-.55-.2-.42-.8-.71-1.02l.18,.49c-.25,.02-.61-.11-.66-.35-.05,.59,1.56,1.44,2.02,2.4,.25-.03,.59,.02,.62-.24l-.28-.14c.06-.51,.82-.09,.66-.5,.51,.03,1.17-.06,1.46,.5l-.3,.54c.1-.15-.06-.52-.3-.48,.36-.06,.16,1.21,.87,.74l-.05-.58c.51,.02,1.31-.18,1.59,.29,.2-.62-.13-.02,.03-.8-.31,.88-.99-.84-1.18,.2,.23-.87-.28-.68-.21-1.52-.12,.17-.11,.41-.38,.06-.05,.03-.14,.06-.19,.08v0s-.05,.02,0,.01c.02,.13,.02,.27-.03,.37-.46,.23-.97-.22-1.3-.18-.13-.24,.23-.11,.26-.37l-.49,.06c.26-.37-.04-1,.59-.82l-.4-.36c-.08-.39-.35-.75-.67-.78-.13-.24-.81-.03-.41-.16l-.82-.33,.07-.09c-.59-.59-1.79-.55-1.97-1.79-.29-.1-.59-.19-.86-.59l.19-.35c-.36-.13-.55-1.01-.94-.81,.4-1.04-1.15-1.33-1.5-1.89l-.36,.36c-.3-.31-.71-.48-1.25-.7l-.28,.35c-.59-.04-.68-1.04-1.25-1.51,.15-.09,.26,.07,.29,.23,.03-1.34-1.87-.72-1.96-1.8-.26-.02-.33-.16-.35-.33,.01,.01,.03,.02,.05,.02-.01-.02-.03-.04-.06-.06-.01-.12-.02-.24-.04-.36-.01,.14-.02,.26,0,.33-.12-.1-.33-.22-.57-.29l.26-.42s-.03-.02-.05-.03c-.04-.28-.29,.04-.45,.39-.14-.02-.28-.02-.42,0,.4-.69-.62-.22-.23-1-.39,.19-1.05-.57-1.72-.03,.07-.09,.06-.17,.15-.09-.12-.25-.24-.49-.57-.47l.34-.52-.97,.21c0-.5,.06-.76,.63-.87-1.09-.03-.67-.26-1.66-.21l.3-.26c-.19-.16-.84-.05-.72-.39,.12-.92-1.91-1.97-2.44-3.46-.61,1.03-.11-.83-.78-.23,.13-.26,.1-.5,.43-.52-.71-.31-.47-1.07-1.36-.87,.13-.26,.39-.18,.45-.35-.08,0-.33,.01-.27-.16,.06-.17,.24-.09,.4-.1-.56-.48-1.21,.07-1.8,.6,0-.53-.17-.63-.73-.44,.09-.28,.13-.62,.52-.37-.16-.21-.86-1.38-1.33-.95,.06-.17-.22-.29-.32-.28-.39-.44-.38-.51-.83-.87l.04,.19c-.7,.39-.46-.21-.85-.47l.07-.05c-.36-1.14-.51-.13-.8-1.32l-.3,.38c-.8,.66-.22-1.08-.93-1.23l-.04,.35c-.48,.01,.34-1.64,.2-1.97,.01-.11,.18-.02,.3,0-.18-1.04-.53,.36-1.08,0,.16-.32,.72-.5,.46-.85,.04-.35-1.67-.12-1.62-1-.09,.28-.19,.55-.54,.48-.39-.26-.17-1.58-1.04-1.3,0-.09,.04-.16,.09-.2-.4-.1-1.05-.57-1.52-.41,.96-1.39-2.1-1.01-1-2.07l-.81-.72,.13-.09c-.41-.57-.84-.49-1.27-.41-.04-.19,.15-.2,.21-.25-.48-.94-.59-.97-1.73-1.05l.3-.41c-.37,.03-.44-1.59-1.54-1.91,.05-.03,.13-.08,.24-.07-1.19-.41-.83-2.88-2.42-1.94l-.83-.23c.55,.79-.67,.43-.62,.92-.33-.2-.26-1.08,.12-.81l-.02,.11c.8-.52-.56-1.09-.08-1.51-1.31-1.34-2.16-3.03-3.31-4.35l-.4,.64-.38-.48c.02-.23,.28-.54,.55-.2,.15-.45-.75-.31-.87-.21-.35-.83,.86-.33,.69-.53l-.28-.23v.12c-.42-.01-.68,.18-1-.23-.11-.34,.22-.43,.15-.54,.04-.03,.03-.08-.12-.16l-.47-.61-.22,.61c-.44-.06-.46-.56-.71,.14,.4-1.06-1.64-2.39-1.62-2.83-.63-.08-.94-.44-1.28-.91,0,.19-.43,.68-.7,.25,1.13-.74-.17-1.08,.3-2.02-.25,.69-1.05-.98-1.37,.04-.19-.39,.36-.35,.4-.79-1.04-.42-1.17-1.89-2.08-2.72-.15,.1-.22,.43-.59,.39l.27-1.06c-.22-.13-.93,.47-.74-.26-.08,.14-.19,.36-.34,.26-.83-2.39-3.66-3.45-3.69-6.33-.1,.45-.25,.3-.4,.1,.02,.18-.36,.24-.54,.4,0-.4,0-.8,0-1.19-.66,.2-.58-.85-1.16-.62l.25,.21c-.87,.01-1.12,1.35-1.96,1.82,.97-.03-.32,1.83,1.16,1.82-.06,.26-.34,.05-.47,.26,.46-.06,.67,.09,.79,.57l-.11,.02c.85,1,.86,1.68,1.55,3l.31-.38c.14,.29,.07,.43,.07,.62,.79-.16-.51-.71,.31-.95-.5,.92,1.35,1.73,.68,2.63,.3,.38,.34-.45,.63-.08l-.15,.29,.37-.15c.15,.28-.04,.64-.22,.81-.03-.08-.19-.12-.26-.17,0,.54,.82,.81,.83,.99l-.15-.47c1.04,.83,1.78,2.3,3.05,2.86l.11-.22c.94,.46,.32,.74,1.15,1.41h-.07c.31,.02,.58,.16,.75,.39-.37-.03-.05,.71-.5,.64,1.02,.49,.6,.16,1.68,.13l-.17,.36c.41-.05,.55-.15,.97,.18-.52-.11-.2,.62-.84,.54,.12,1.37,1.7,.68,1.15,1.85,1.1-.31-.21-1.09,.14-1.03,.09-.4,.85-.2,1,.13,.22,.28-.58,1.32,.03,1.97-.06-.07-.12-.02-.17-.09,.03,.42,.7,.24,.66,.83,.61-.25,.33,.42,.96-.07l-.68-.48c.46,.2,1.44-.1,1.61,.76-.16,.06-.47,.04-.66,0-.02,.32,.4,.21,.38,.54-.63,.49-.79-.61-1.57-.57-.09,.4,1.05,.31,.25,.7,1.05-.47,.49,.74,1.51,.62l-.38,.29c.12,.02,.42,.01,.53,.15l-.67,.18c.71,0,.29,1,.82,1.15-.67-.71,.27-.55,.25-1.09,1.28,.45-.45,1.35,.64,2.19-.17-.09-.25-.7,.1-.64,.1,.26,.2,.63,.12,.91,.68,.59,.26-.43,.74-.35-.22,.62,.47,.16,.87,.32l-.35,.33c.47,.96,.92-.49,1.27,.44l-.75,.17,.45,.23-.47,.3c.65,.1,.69,.29,.92,.77,.17-.32,.68-.55,1-.23,0,.42-.45,.19,.04,.61-.32,.1-.7,.25-.57-.26-.13,.09-.32,.1-.45,.19-.01,.47,.51,.66,.68,.82-.05-.08-.1-.17-.09-.26l1.12,.21c-.03,.23-.22,.25-.4,.26,.17,.1,.42,.04,.64,.21-.33,.22-.62,.51-1.02,.35l.92,.34c-.08,.16-.03,.65-.21,.67,.17,.51,1.38,.35,1.6,1.02,.08-.03,.18-.03,.31,.03,.36,.5,.38,1.22,1.27,1.37l-.22,.78c.51,.3,.25-1.01,1.1-.52,.62,.32-.26,.59-.24,.9,.49,0,1.4-.09,1.42,.74-.24-.05-.27-.24-.44-.34Zm5.1,4.76c-.17-.02-.58,0-.45-.27,.5-.28,.4,0,.45,.27Zm8.32,6.64c-.18,.04-.24-.12-.24-.37,.12,.06,.21,.17,.24,.37Zm23.87,17.37h-.03c-.11-.33-.07-.2,.03,0Zm.34,.56c.09-.01,.13-.07,.15-.13-.11,.07-.22-.02-.32-.14-.05,.12-.04,.24,.17,.28ZM16.65,18.11v.17c-.3-.11-.15-.14,0-.17Z"/><path d="M38.77,46.34c.03-.08,.09-.16,.14-.23-.09,.02-.16,.09-.14,.23Z"/><path d="M23.49,32.36v-.02s-.07,.03-.09,.04l.09-.03Z"/><path d="M54.33,61.4c-.05-.14-.04-.25-.02-.35-.08,.08-.11,.2,.02,.35Z"/><path d="M67.33,66.07l-.38-.15c.16,.1,.15,.23,.17,.35,.06-.09,.11-.27,.21-.2Z"/><path d="M68.18,70.54c.08-.01,.1,.07,.18,.06l.12-.19c-.21-.14-.45-.1-.31,.13Z"/><path d="M66.61,67.55c-.23,.34,.05,.38,.31,.5-.01,0-.03-.02-.04-.03,.42-.39,.07-.43-.28-.47Z"/><path d="M66.99,68.07c.08,.04,.15,.08,.21,.15,.17-.16-.05-.1-.21-.15Z"/><path d="M65.07,64.93c.03,.16,.39-.35,.35-.17,.44-.3-1.07-.08-.35,.17Z"/><polygon points="65.95 68.73 66.19 68.28 65.81 68.49 65.95 68.73"/><path d="M64.47,67.06l.26,.39c.05-.07,.12-.07,.2-.06-.2-.19-.37-.45-.46-.33Z"/><path d="M64.93,67.39c.1,.1,.22,.18,.33,.16-.06-.04-.2-.14-.33-.16Z"/><polygon points="65.38 68.47 65.34 68.3 65.12 68.07 65.38 68.47"/><path d="M60.87,63.89l-.46-.21c-.15,.1-.12,.26,.06,.33,.17-.01,.35,.05,.4-.12Z"/><path d="M61.1,65.9c-.03-.17,.03-.26,.08-.43l-.41,.46,.33-.03Z"/><path d="M59.92,65.08c-.15,.1-.86-.09-.37,.29,.15-.1,.61,.11,.37-.29Z"/><polygon points="54.91 59.62 55.01 59.7 55.68 58.93 54.91 59.62"/><path d="M48.47,57.03c.26,.57,.53-.37,.71,.21,.26-.08-.15-.47,.1-.53-.43-.05-.47-.28-.8,.32Z"/><path d="M49.28,56.71c.07,0,.15,.01,.24,0-.12-.02-.19-.02-.24,0Z"/><path d="M3.05,.54c0-.13,0-.26,.02-.39-.07,.11-.13,.23-.19,.35l.17,.03Z"/><path d="M2.08,.37l.54-.37-.61,.1c.06,.05,.18,.15,.08,.27Z"/><path d="M31.57,41.73l.13-.09c.08-.16,.03-.23-.08-.37l-.05,.46Z"/><polygon points="28.36 37.78 28.41 37.85 28.72 37.32 28.36 37.78"/><path d="M24.86,35.25c.1,.14,.34,.2,.44,.34-.34-.2,.05-.88-.44-.34Z"/></g><g><path d="M64.72,96.86c.19,.07,.2-.35,.24-.42-.37,.03-.24,.53-.24,.42Z"/><path d="M62.94,97.73l.04-.17c-.05,.13-.12,.26-.2,.38,.06-.07,.11-.14,.15-.22Z"/><path d="M64.12,100.09c-.35-.65-.45,.25-.75,.11l-.1-.14,.11,.57c.22-.19,.46-.69,.74-.55Z"/><path d="M65.17,101.41c-.1-.26,.09-.26-.17-.06l.04,.06s.06-.02,.13,0Z"/><path d="M65.05,101.41c-.12,.04,.14,.21,0,0h0Z"/><path d="M65.6,101.14l-.12,.28c.07,.15,.21,.16,.18,.29,.14-.17,.08-.32-.06-.57Z"/><path d="M65.69,100.6s-.05,.08-.08,.12c.03,.07,.05,.08,.08-.12Z"/><path d="M65.46,100.97l.15-.26c-.04-.11-.09-.34-.08,.1-.02-.21-.02,0-.08,.16Z"/><path d="M65.33,100.89c-.13-.13-.28-.2-.15-.48-.33,.17-.16,.64,.15,.48Z"/><path d="M63.98,99.36l-.21-.16-.06,.27c.03-.13,.34,.1,.27-.11Z"/><path d="M66.74,101.37c0-.15-.09-.4-.12-.59-.04,.06-.08,.12-.12,.19,.08,.09,.22,.19,.25,.41Z"/><path d="M66.62,100.78l.19-.27c-.19-.02-.22,.11-.19,.27Z"/><path d="M65.6,99.81c-.09,.19-.17,.4-.25,.6,.1-.21,.2-.42,.32-.62l-.07,.02Z"/><polygon points="67.51 101.35 67.4 101.71 67.59 101.17 67.51 101.35"/><path d="M68.03,101.29c-.09,.29,.12,.49,.02,.67,.14-.05,.26-.31,.38-.53-.12,.12-.24,.09-.4-.15Z"/><path d="M68.63,101.12c-.06,.07-.13,.19-.2,.32,.07-.06,.13-.16,.2-.32Z"/><path d="M67.17,100.56c.02,.09,.06,.33,.18,.42l-.1-.42h-.08Z"/><path d="M67.25,100.55h0l.18,.03s-.08-.01-.18-.03Z"/><path d="M67.15,100.56h.02s-.02-.05-.02,0Z"/><path d="M66.21,100.12c.09-.25,.35-.54,.05-.87-.06,.3,.1,.49-.05,.87Z"/><path d="M67.02,100.04l-.24-.08c.01,.11,.06,.27,.01,.4l.23-.31Z"/><polygon points="67.12 99.89 67.02 100.04 67.11 100.07 67.12 99.89"/><path d="M68.25,100.71c.1-.19,.21-.2,.34-.22-.13-.09-.27-.14-.4-.14-.02,.13-.08,.38,.06,.36Z"/><path d="M67.76,100.59l.02-.02s-.02-.05-.02,.02Z"/><path d="M69.83,100.56v-.08l-.02,.07h.02Z"/><path d="M68.17,100.27c-.1-.08-.16,.02-.22,.15,.07-.04,.15-.07,.24-.07,0-.06,.01-.1-.02-.08Z"/><path d="M68.98,100.93c-.05-.09-.1-.17-.16-.24,.05,.14,.14,.35,.16,.24Z"/><path d="M67.82,100.68s0,.01-.01,.02c.03,.09,.03,.05,.01-.02Z"/><path d="M67.82,100.68c.05-.06,.09-.17,.13-.26-.06,.03-.12,.08-.16,.14,.01,.03,.03,.08,.03,.12Z"/><path d="M70.47,97.86c-.06,.39-.38,.73-.6,.29-.27,.27-.2,1.59-.06,2.33,.02-.17,.03-.33,.29-.54-.06-.22-.5-.55-.26-.89,.35-.17,.26,.16,.4,.39-.09-.5,.49-.68,.49-1.41l-.32,.23c0-.11,.13-.28,.06-.39Z"/><path d="M69.37,100.4l-.1,.04c.1,.07,.17,.23,.29,.56,.17-.18,.22-.32,.24-.45l-.47-.09,.04-.06Z"/><path d="M68.84,100.43c.09-.43,.34-.6,.22-1.07-.3,.02-.22,.35-.4,.53,.47-.09-.14,.23,.18,.49-.09,.07-.17,.09-.25,.1,.08,.06,.16,.12,.23,.21v-.03h-.01c-.02-.06-.02-.09,0-.06,0,0,0,0,0,0,0-.06,.02-.11,.03-.16,.13,.09,.02,.11-.03,.16v.06h0l.46-.21c-.09-.06-.22-.06-.43-.02Z"/><path d="M66.43,98.3s.02,.07,.02,.1c.03-.05,.04-.09-.02-.1Z"/><path d="M66.65,98.55c-.03,.06-.05,.24-.17,.2-.11-.12-.02-.21-.03-.35-.06,.12-.22,.32,.02,.52l.03-.06c.21,.14,.48,.66,.45,.72-.08-.38-.14-.66-.3-1.03Z"/><path d="M67.81,99.35l.4-.21-.2-.37v.22c-.22-.09-.17,.19-.19,.36Z"/><polygon points="69.86 100.78 69.77 101.23 70.04 100.6 69.86 100.78"/><polygon points="70.36 100.77 70.3 101.16 70.45 100.93 70.36 100.77"/><path d="M98.45,97.68l-.03-.13s.01,.09,.03,.13Z"/><path d="M98.04,98.04l.11,.16c-.05-.1-.09-.17-.11-.16Z"/><path d="M83.17,103.28c.1,.4,.19,1,.26,.56l.03-.44c-.14,.05-.23-.02-.29-.13Z"/><path d="M92.73,101.84l-.06-.13-.11,.42c.05-.09,.11-.19,.17-.29Z"/><path d="M92.79,100.05l.23,.27c-.05-.1-.13-.19-.23-.27Z"/><path d="M99.41,94.35l-.41-.19c-.03,.17,.2,.14,.41,.19Z"/><path d="M75.61,101.47c.11,.2,.21,.29,.31,.33-.13-.28-.19-.68-.31-.33Z"/><path d="M101.55,101.09c.02-.13-.02-.22-.09-.29-.02,.12,0,.23,.09,.29Z"/><path d="M76.35,101.9s-.04-.08-.06-.12c-.12,.05-.24,.08-.37,.03,.09,.21,.22,.35,.43,.09Z"/><path d="M98.01,78.08s.02-.03,.04-.05c-.06,.01-.06,.03-.04,.05Z"/><path d="M101.01,72.07s.06,.12,.08,.19c.02-.04,0-.1-.08-.19Z"/><path d="M72.35,101.22c-.11,.01-.02,.04,0,0h0Z"/><path d="M72.08,99.44s.06-.1,.08-.2c-.02,.1-.05,.17-.08,.2Z"/><path d="M78.04,99.51h0c-.01-.09-.01-.07,0,0Z"/><path d="M72.22,101c.03,.06,.07,.11,.12,.15-.02-.04-.05-.08-.12-.15Z"/><path d="M72.21,101.21l-.09-.06c-.02,.07-.02,.12,.09,.06Z"/><path d="M72.51,101.22c-.06,0-.12-.03-.17-.07,.02,.03,.02,.06,.01,.07,.03,0,.08,0,.15,0Z"/><path d="M100.91,86.91l.04-.03c-.19-.09-.16-.04-.04,.03Z"/><path d="M86.97,99.43s-.01,.01-.02,.02v.02l.02-.04Z"/><path d="M87.41,99.17c-.25,.51-.34,.43-.45,.29l-.08,1.25,.52-1.55Z"/><path d="M99.11,96.42h-.43c-.48-.49-.23-.51-.79-.6,.61,.29,.58,.49,.52,.64-.06,.16-.1,.33,.45,.71l-.31-.06s-.03-.07,0-.09c-.66-.21,.7,.71,.33,.88-.16,.02-.36-.06-.43-.22,.03,.13,.05,.27,.08,.41-.07,.04-.22-.15-.16-.18-.05,.12-.12,.22-.2,.32l-.02-.03c.1,.19,.2,.54,.23,.69-.2-.09-.04-.15-.17-.27,.01,.14,.01,.27,0,.4-.28-.25-.3-.61-.17-.67-.92-.98,.04,.38-.71-.07l.06-.24c-.49-.61-.4-.31-.84-.65,.16,.22,.94,.88,.91,1.29-.12-.06-.22-.07-.24,.24-.21-.44-.28-.27-.42-.17l-.24-.59c-.08,.25,.05,.54,.05,.84-.23,.01-.43-.44-.61-.82-.33,0,.47,.68,.14,.92-.34-.13-.46,.14-.72,.61-.25-.16-.05-.39-.16-.55-.02,.18-.04,.37-.07,.54-.05,0-.07-.16-.07-.24-.12,.22,.12,.63-.11,.84,.03,.7-.68-.91-.9-.1-.1-.17,0-.39-.06-.64-.38,.56-.33,.42-.66,1.15l-.35-.41c.26,.47-.01,1.05-.29,1.53,.1,.23,.18,.43,.24,.52l-.47,.36c-.06-.1-.01-.32,.06-.59l-.08,.16c-.17-.24-.08-.6,.03-.96l.17,.39c.1-.39,.19-.83,.15-1.2-.03,.07-.08,.14-.14,.18,.03-.11,.04-.2,.03-.26-.02-.07-.06,.08-.12,.24l-.11-.71-.02,.28-.55-.45c-.4,.72-.81,1.76-1.52,2.01,.21-.51,.1-.85,.15-1.47,.14,.66,.52-.25,.84-.1-.17-.08-.12-.37-.07-.47l-.62,.56c.05-.51-.1-.39-.24-.6,.04,1.01-.5,.63-.78,.91,.02-.34,.11-.67,.4-.56-.25-.78-.54,1.13-.8,.46,.07,0,.11,.05,.16-.11-.2,.29-.6,0-.47-.29h.07c-.47-.17-1.48-.2-1.69,.62,.01-.11,.22-1,.28-1.17-.43,.89-.89,1.8-1.36,2.68,.2-.71,.21-2.47,.68-2.81-.1-.12-.22-.27-.51-.06,.06,.12,.01,1.08-.11,1.12-.16-.86-.13-.47-.37-1.21,.09,.18-.25,1.28-.44,1.21,.06-.16,.2-1.11,.29-1.22l-.69,1.01c.16-.18,.2-.93,.16-1.26,0,.23-.4-.1-.55-.02l.15,.3c-.49-.27-.85,1.44-1.37,1.27,.11-.21,.46-1.36,.22-1.56-.24,.54-1.14,2.59-1.71,2.92l-.02-.34-.45,.28c.42-.79,1.45-2.43,1.94-3.05-.14-.3,.03-.39-.28-.43-.04-.32,.26-.42,.35-.42l-.65-.35c-.11,.66-.68,.54-.77,1.09l.91-.51c-.11,.66-.85,1.77-1.32,1.54-.07-.29,.36-1.15,.4-1.37-.12,.21-.57,.32-.58,.15l.29-.3c-.22-.31-.65,.77-.84,.06-.1-.07-.15-.92-.26-.54,.02,.79-.48,3.11-.73,3.65-.03-.06-.44-.85-.49-1.25-.06-.63,.6-1.33,.56-1.87-.05,.18-.2,.37-.26,.44-.09-.18,.18-.54-.1-.52-.2,.65-.52-.18-.25,.53-.3,.13-.24-.2-.55-.24,0,.45-.6,1.4-.9,1.53,.05-.17,.04-.4,.04-.51-.51-.18-.73-.54-1.22-.66-.01-.17-.21-.42-.04-.68-.1,.1-.21,.31-.37,.3-.18-.64,.36-.02,.28-.76-.1,.38-.51,.45-.78,.65-.06,.61,.48,.22,.75,.02-.18,.83-.74,1.61-1.32,1.89-.45,.12-.07-.57-.16-.47-.74-.29-.93,1.32-1.44,.6-.15-.57,.18-1.05,.19-1.45,.37-.14,.45,.43,.68,.45l-.23-.3c.14-.16,.39-.24,.48-.07-.12-.52-1.28-.34-1.81-.87-.14,.16-.35,.32-.3,.54l.2-.05c.1,.45-.45,.54-.24,.77-.3,.26-.64,.7-.95,.4l.02-.62c-.02,.18,.18,.4,.3,.23-.18,.24-.43-.9-.69-.12l.19,.45c-.29,.27-.67,.88-.94,.66,.07,.62,.08-.06,.21,.67-.08-.9,.75,.13,.58-.83,.11,.84,.33,.4,.52,1.13,.02-.2-.04-.4,.19-.26,.02-.06,.06-.13,.08-.17v0s.02-.03,0,0c-.05-.1-.08-.21-.08-.32,.2-.44,.6-.37,.78-.58,.14,.12-.1,.22-.05,.45l.27-.32c-.05,.45,.28,.81-.12,1l.32,.08c.14,.28,.38,.42,.58,.27,.13,.12,.48-.41,.28-.09l.56-.17-.02,.11c.48,.15,1.19-.51,1.59,.4,.19-.07,.4-.17,.66,.02l-.03,.39c.25-.09,.57,.52,.75,.15,0,1.07,1.01,.46,1.36,.73l.13-.49c.26,.09,.55,0,.93-.11l.08-.44c.37-.29,.67,.48,1.14,.54-.07,.16-.18,.09-.23-.03,.33,1.11,1.31-.46,1.66,.37,.16-.13,.24-.06,.3,.07-.01,0-.02,0-.04,.02,.01,0,.03,.01,.05,.02,.04,.09,.08,.19,.12,.27-.03-.12-.06-.22-.1-.27,.1,.01,.26-.01,.42-.09l-.04,.48s.02,0,.04,0c.11,.2,.16-.2,.16-.57,.09-.06,.17-.14,.25-.24-.04,.78,.43-.18,.42,.66,.18-.38,.79-.15,1.02-.98-.02,.11,.02,.17-.06,.16,.14,.12,.29,.25,.47,.04l-.04,.61,.5-.75c.15,.41,.2,.64-.09,1.06,.64-.62,.47-.2,1.02-.84l-.08,.39c.16,.01,.49-.47,.54-.14,.25,.8,1.74,.34,2.62,1.1-.1-1.17,.41,.55,.5-.35,.04,.28,.17,.44,0,.67,.5-.24,.73,.47,1.09-.29,.05,.28-.11,.4-.06,.57,.04-.06,.16-.24,.21-.07,.05,.16-.08,.23-.16,.35,.53-.04,.57-.89,.6-1.69,.25,.38,.39,.31,.55-.22,.09,.26,.26,.52-.05,.63,.17,.04,1.11,.33,1.07-.32,.07,.16,.25,.02,.29-.06,.4,0,.44,.06,.82-.07l-.12-.08c.03-.79,.29-.22,.58-.37v.08c.83,.42,.24-.32,1.09,.13l-.16-.45c-.21-1,.77,.43,1.06-.1l-.23-.21c.07-.41,1.09,1.12,1.39,1.11,.09,.06-.02,.17-.07,.26,.86,.28-.16-.62,.22-.95,.23,.27,.25,.83,.59,.74,.3,.19,.39-1.45,1.14-1.18-.25-.15-.47-.31-.39-.6,.2-.28,1.45,.12,1.1-.74,.08,.02,.14,.05,.19,.09,.02-.18,.12-.41,.17-.64,.04-.24,.03-.48-.1-.68,.73,.4,.85-.09,.84-.53,.01-.44-.05-.83,.63-.5l.26-.78,.14,.08c.28-.45-.02-.75-.31-1.02,.14-.08,.24,.05,.32,.08,.5-.6,.46-.73-.15-1.45l.5,.04c-.25-.2,.96-.89,.46-1.65,.05,.01,.15,.04,.21,.1-.49-.79,1.51-1.79-.3-2.12-.15-.17-.28-.33-.44-.49-.15,.62-.78-.1-1.08,.15-.11-.23,.54-.61,.63-.32l-.09,.05c.94,.11,.32-.77,.96-.77-.08-1.23,.33-2.46,.24-3.61l-.71,.22v-.4c.15-.12,.54-.21,.55,.08,.39-.2-.41-.43-.56-.42,.22-.59,.87,.1,.87-.07l-.08-.22-.08,.06c-.32-.15-.63-.12-.65-.46,.11-.23,.43-.17,.45-.26,.05,0,.07-.04,0-.13v-.51l-.55,.29c-.31-.17-.04-.47-.65-.14,.95-.49,.05-1.87,.31-2.13-.47-.22-.52-.52-.54-.89-.1,.11-.73,.3-.71-.03,1.34-.15,.46-.69,1.34-1.14-.58,.36-.35-.86-1.16-.31,.05-.28,.49-.12,.75-.39-.65-.51,.02-1.45-.33-2.18-.17,.03-.41,.22-.7,.12l.76-.61c-.12-.13-1.02,.1-.49-.32-.13,.07-.34,.19-.42,.1,.47-1.7-1.45-2.86-.26-4.74-.28,.28-.35,.16-.4,0-.05,.12-.42,.1-.65,.18l.49-.78c-.67,.04-.2-.65-.83-.57l.16,.17c-.79-.09-1.53,.75-2.47,.94,.9,.1-1.03,1.09,.28,1.29-.16,.16-.32-.02-.52,.1,.43,.02,.55,.15,.44,.47h-.11c.29,.74-.01,1.18-.06,2.11l.44-.18c-.01,.2-.15,.28-.24,.39,.75,.04-.09-.53,.72-.53-.87,.48,.31,1.31-.71,1.74,.06,.29,.51-.21,.58,.07l-.27,.15,.39-.02c-.02,.2-.35,.38-.6,.45,.02-.05-.1-.11-.13-.15-.28,.32,.28,.65,.19,.76l.11-.31c.46,.71,.3,1.74,1.05,2.36l.21-.1c.53,.49-.14,.51,.18,1.1h-.06c.24,.07,.39,.22,.4,.39-.29-.11-.44,.4-.76,.25,.56,.53,.4,.24,1.3,.49l-.35,.16c.36,.08,.53,.06,.69,.36-.36-.2-.52,.3-.99,.09-.68,.8,.98,.84-.14,1.34,1.06,.14,.47-.66,.71-.53,.31-.2,.8,.12,.73,.35,.01,.22-1.24,.57-1.14,1.09,0-.05-.08-.05-.08-.1-.23,.23,.41,.34,.02,.64,.63,.05,0,.32,.8,.26l-.24-.46c.24,.24,1.19,.39,.81,.91-.16-.02-.39-.13-.52-.21-.21,.16,.19,.24-.04,.4-.79,.05-.25-.57-.88-.79-.31,.18,.64,.48-.23,.44,1.11,.08-.07,.53,.79,.79l-.47,.03c.08,.05,.32,.14,.31,.25l-.63-.12c.55,.23-.4,.59-.1,.83-.06-.56,.56-.18,.89-.45,.69,.66-1.2,.51-.92,1.26-.07-.1,.26-.41,.49-.26-.08,.16-.26,.36-.51,.46,.12,.5,.48-.1,.79,.1-.57,.2,.25,.24,.44,.47l-.48,.02c-.3,.59,1.01,.13,.64,.68l-.67-.22,.18,.27-.55-.05c.41,.29,.31,.39,.14,.67,.34-.06,.87,.06,.88,.32-.29,.17-.46-.12-.4,.25-.3-.1-.68-.2-.23-.34-.16-.02-.3-.09-.46-.11-.34,.17-.08,.46-.09,.58,.02-.05,.05-.1,.12-.13l.63,.55c-.19,.07-.33,0-.46-.08,.04,.11,.26,.2,.29,.36-.39-.08-.79-.11-.96-.33,.13,.17,.27,.34,.39,.51-.17,.01-.5,.18-.63,.1-.25,.21,.68,.72,.31,.99,.07,.03,.14,.08,.18,.16-.14,.3-.69,.4-.25,.89l-.73-.04c.07,.29,.93,.03,1.03,.54,.1,.39-.6-.1-.82-.06,.28,.24,.82,.81,.19,.81-.07-.14,.04-.16,.03-.26Zm-1.64,2.26c0-.12-.07-.45,.11-.22,.23,.51,.04,.31-.11,.22Zm-5.38,2.24c.06-.16,.15-.08,.26,.11-.08,.04-.16,.02-.26-.11Zm-18.49,.11v-.02c.16,.22,.11,.13,0,.02Zm-.33-.27c-.05,.06-.06,.13-.05,.2,.05-.12,.13-.11,.22-.06,0-.13-.04-.22-.17-.14Zm30.68-15.51l-.11,.1c-.16-.15-.03-.12,.11-.1Z"/><path d="M92.78,100.25c.02,.08,.03,.17,.04,.26,.03-.08,.02-.18-.04-.26Z"/><path d="M99.48,94.39s0,0,0,0c-.03-.01-.06-.02-.08-.03l.08,.04Z"/><path d="M79.98,98c.06,.09,.09,.18,.1,.28,.03-.11,.02-.22-.1-.28Z"/><path d="M71.22,101.28l.25-.1c-.11,.01-.14-.1-.19-.18,0,.11,.01,.28-.06,.28Z"/><path d="M69.45,98.1c-.04,.06-.08,0-.12,.06v.22c.15,0,.27-.18,.12-.29Z"/><path d="M71.21,99.66c.03-.41-.14-.29-.31-.23,.01,0,.02,0,.03,0-.11,.56,.08,.39,.28,.23Z"/><path d="M70.85,99.44c-.05,.01-.11,.02-.16,0-.04,.22,.06,.05,.16,0Z"/><path d="M72.76,100.95c-.06-.12-.13,.5-.15,.33-.17,.49,.62-.53,.15-.33Z"/><polygon points="71.23 98.32 71.23 98.82 71.38 98.43 71.23 98.32"/><path d="M72.54,98.87l-.25-.18c0,.08-.05,.13-.1,.16,.17,.04,.34,.17,.35,.02Z"/><path d="M72.19,98.85c-.09-.02-.17-.02-.23,.05,.05,0,.15,0,.23-.05Z"/><polygon points="71.63 98.21 71.7 98.33 71.89 98.39 71.63 98.21"/><path d="M75.46,99.49l.33-.08c.07-.16,0-.28-.12-.24-.1,.1-.22,.14-.21,.32Z"/><path d="M74.82,97.97c.06,.12,.05,.23,.06,.4l.13-.61-.19,.21Z"/><path d="M75.73,98c.06-.16,.54-.39,.15-.43-.06,.16-.4,.24-.15,.43Z"/><polygon points="80.06 99.76 79.99 99.75 79.77 100.75 80.06 99.76"/><path d="M84.51,98.26c-.29-.31-.21,.6-.46,.23-.13,.22,.2,.3,.08,.48,.26-.2,.34-.04,.38-.72Z"/><path d="M84.13,98.97s-.09,.07-.14,.13c.07-.05,.11-.09,.14-.13Z"/><polygon points="101.34 71.13 101.5 70.86 101.2 71.08 101.34 71.13"/><path d="M100.51,70.88l.62-.2h-.6s.12,.13-.02,.2Z"/><path d="M96.48,97.7l.05,.15c.09,.14,.13,.14,.21,.13l-.26-.28Z"/><polygon points="98.08 97.14 98.05 97.15 98.54 97.48 98.08 97.14"/><path d="M98.16,95.44c-.05,.05,.06,.19,0,.23-.04-.16,.69,0,0-.23Z"/></g></g></g></g></svg>