<?xml version="1.0" encoding="UTF-8"?><svg xmlns="http://www.w3.org/2000/svg" viewBox="0 0 50.97 32.72"><defs><style>.d{fill:#1d1d1b;}</style></defs><g id="a"/><g id="b"><g id="c"><g><g><path class="d" d="M37.73,12.96c.06,.04,.04-.38,.05-.46-.09,.09-.04,.57-.05,.46Z"/><polygon class="d" points="36.8 13.88 36.82 13.71 36.68 14.12 36.8 13.88"/><path class="d" d="M35.95,13.84c.07,.72,.31-.1,.46,.15l.02,.16,.07-.57c-.19,.08-.43,.46-.56,.25Z"/><path class="d" d="M35.51,12.28c.02,.28-.1,.24,.11,.09l-.02-.07s-.04,0-.09-.02Z"/><path class="d" d="M35.6,12.3c.09-.02-.06-.24,0,0h0Z"/><path class="d" d="M35.18,12.45l.12-.24c-.02-.16-.13-.21-.09-.32-.12,.13-.1,.3-.03,.57Z"/><path class="d" d="M35.06,12.96l.06-.1c0-.07-.03-.09-.06,.1Z"/><path class="d" d="M35.26,12.64l-.13,.22c.02,.12,.01,.35,.06-.08-.01,.21,.02,0,.07-.14Z"/><path class="d" d="M35.33,12.76c.06,.16,.15,.26,.03,.5,.23-.09,.2-.59-.03-.5Z"/><path class="d" d="M35.9,14.58l.09,.21,.08-.24c-.04,.12-.17-.2-.17,.02Z"/><path class="d" d="M34.45,12.05c0,.15,.03,.41,.04,.6l.09-.17c-.04-.11-.13-.2-.13-.43Z"/><path class="d" d="M34.49,12.65l-.13,.26c.12,.03,.14-.09,.13-.26Z"/><polygon class="d" points="35.03 13.76 35.25 13.22 34.99 13.76 35.03 13.76"/><polygon class="d" points="33.95 12.02 34.03 11.67 33.89 12.19 33.95 12.02"/><path class="d" d="M33.62,12.07c.06-.29-.07-.5,0-.67-.09,.05-.17,.3-.24,.52,.08-.12,.15-.09,.25,.15Z"/><path class="d" d="M33.24,12.24c.04-.07,.08-.19,.12-.32-.04,.07-.08,.16-.12,.32Z"/><path class="d" d="M34.13,12.83c0-.09-.02-.33-.1-.44l.05,.43h.05Z"/><path class="d" d="M34.08,12.83h0l-.11-.04,.11,.04Z"/><path class="d" d="M34.14,12.83h-.01s0,.05,.01,0Z"/><path class="d" d="M34.69,13.36c-.08,.24-.24,.49-.09,.86,.06-.29-.03-.5,.09-.86Z"/><path class="d" d="M34.2,13.37l.14,.1c0-.11-.02-.28,.02-.4l-.15,.29Z"/><polygon class="d" points="34.13 13.5 34.2 13.37 34.15 13.33 34.13 13.5"/><path class="d" d="M33.47,12.65c-.06,.18-.13,.2-.2,.22,.08,.09,.16,.13,.24,.14,.01-.13,.05-.37-.03-.36Z"/><path class="d" d="M33.77,12.77v.02s0,.05,0-.02Z"/><path class="d" d="M32.54,12.84v0h0Z"/><path class="d" d="M33.52,13.09c.06,.08,.1-.02,.13-.15-.05,.04-.09,.07-.14,.07,0,.06,0,.1,.01,.08Z"/><path class="d" d="M33.04,12.43c.03,.09,.06,.17,.1,.24-.03-.14-.09-.35-.1-.24Z"/><path class="d" d="M33.74,12.68v-.02c0-.09,0-.05,0,.02Z"/><path class="d" d="M33.74,12.68c-.03,.06-.06,.17-.08,.26,.04-.03,.07-.08,.1-.14l-.02-.12Z"/><path class="d" d="M32.26,15.58c.02-.4,.18-.76,.31-.33,.14-.29,.08-1.6-.03-2.33,0,.17-.01,.33-.15,.56,.04,.22,.3,.52,.17,.87-.19,.2-.15-.15-.23-.36,.07,.5-.25,.71-.22,1.44l.17-.25c0,.11-.06,.29-.02,.4Z"/><path class="d" d="M32.81,12.97l.06-.05c-.06-.07-.11-.23-.19-.54-.1,.19-.12,.34-.13,.47l.28,.06-.02,.06Z"/><path class="d" d="M33.12,12.93c-.05,.43-.19,.61-.12,1.08,.17-.02,.12-.36,.23-.54-.27,.1,.08-.24-.11-.49,.05-.07,.1-.09,.15-.11-.05-.05-.09-.12-.14-.2v.03h0c.01,.06,.01,.09,0,.06,0,0,0,0,0,0v.16c-.09-.09-.03-.11,0-.16v-.06h0l-.27,.22c.06,.06,.13,.05,.25,0Z"/><path class="d" d="M34.44,15.14s0-.07,0-.1c-.02,.05-.03,.09,0,.1Z"/><path class="d" d="M34.33,14.87c.02-.06,.04-.23,.1-.18,.05,.13,0,.21,0,.35,.04-.11,.14-.3,.02-.52l-.02,.06c-.11-.15-.24-.69-.22-.75,.03,.39,.05,.67,.12,1.05Z"/><path class="d" d="M33.72,14.01l-.23,.2,.11,.38v-.22c.12,.09,.1-.18,.12-.36Z"/><polygon class="d" points="32.52 12.63 32.56 12.17 32.41 12.81 32.52 12.63"/><polygon class="d" points="32.23 12.67 32.24 12.28 32.16 12.51 32.23 12.67"/><path class="d" d="M15.66,17.06l-.07,.11s.05-.07,.07-.11Z"/><path class="d" d="M16.13,17.09v-.19c0,.11-.02,.19,0,.19Z"/><path class="d" d="M25.09,12.48c-.08-.37-.17-.95-.17-.5v.43c.08-.08,.13-.03,.17,.07Z"/><path class="d" d="M20.08,14.9l.02,.13,.09-.41-.11,.28Z"/><path class="d" d="M19.92,16.7l-.11-.28c.02,.1,.06,.19,.11,.28Z"/><path class="d" d="M13.04,17.5l-.08,.44c.12,0,.07-.22,.08-.44Z"/><path class="d" d="M29.25,12.73c-.08-.17-.14-.25-.2-.27,.09,.25,.16,.63,.2,.27Z"/><path class="d" d="M15.9,12.46c-.04,.08-.06,.17-.06,.26,.04-.07,.07-.16,.06-.26Z"/><path class="d" d="M28.81,12.46l.04,.1c.06-.07,.12-.13,.2-.1-.07-.19-.15-.3-.24,0Z"/><path class="d" d="M3.22,16.5s-.01-.03-.01-.05c-.01,.06,0,.06,.01,.05Z"/><path class="d" d="M1.43,11.64s.07,0,.11,0c-.01-.03-.04-.04-.11,0Z"/><path class="d" d="M31.06,12.44c.06-.03,.01-.05,0,0h0Z"/><path class="d" d="M31.32,14.17s-.03,.11-.03,.21c0-.1,.02-.17,.03-.21Z"/><path class="d" d="M28.12,15.14h0c.02,.08,.01,.07,0,0Z"/><path class="d" d="M31.15,12.64c-.02-.05-.05-.1-.08-.13,.01,.03,.03,.08,.08,.13Z"/><path class="d" d="M31.14,12.44l.05,.04c0-.07,0-.12-.05-.04Z"/><path class="d" d="M30.98,12.46s.07,.02,.1,.05c-.01-.03-.02-.05-.01-.07-.02,0-.04,.01-.09,.02Z"/><path class="d" d="M8.61,15.87v-.04c-.08,.18-.05,.15,0,.04Z"/><path class="d" d="M23.3,16.93v0Z"/><path class="d" d="M23.06,17.24c.12-.54,.17-.47,.24-.35l-.02-1.25-.22,1.6Z"/><path class="d" d="M14.52,17.17l.15,.39c-.19,.64-.33,.42-.19,.97,.04-1.36,.61-.13,.64-1.49l.1,.29s-.03,.07-.06,.05c.19,.65,.16-.98,.41-.78,.09,.1,.15,.3,.09,.46l.2-.33c.06,.03,.04,.26-.02,.24l.3-.1v.04c.04-.21,.15-.54,.2-.68,.07,.2-.04,.14-.02,.31l.17-.33c.06,.35-.08,.69-.2,.64,.14,1.36,.14-.34,.47,.46l-.16,.17c.09,.77,.21,.49,.38,.98-.04-.25-.33-1.22-.15-1.55,.05,.1,.12,.15,.22-.12,0,.48,.09,.36,.21,.34l-.02,.64c.13-.18,.13-.51,.21-.79,.14,.07,.16,.56,.18,.98,.22,.11-.14-.8,.14-.91,.18,.25,.32,0,.56-.38,.13,.22-.04,.39,0,.57l.13-.51s.01,.17,0,.25c.11-.19,.03-.64,.19-.81,.07-.7,.28,1.04,.5,.25,.04,.18-.04,.39-.04,.64,.29-.51,.24-.37,.5-1.07l.17,.43c-.12-.48,.09-1.05,.27-1.51-.04-.23-.07-.44-.09-.54l.27-.33c.02,.11-.01,.32-.07,.59l.05-.15c.08,.24,.01,.61-.07,.96l-.07-.4c-.08,.39-.16,.81-.17,1.19,.02-.07,.05-.14,.09-.17-.02,.1-.04,.2-.03,.26,0,.07,.04-.07,.09-.23l.02,.71,.03-.28,.31,.46c.27-.71,.52-1.76,.91-2.04-.12,.52-.06,.85-.09,1.47-.07-.66-.3,.27-.49,.13,.1,.07,.06,.37,.03,.47l.37-.58c-.03,.51,.05,.38,.14,.59-.02-1,.29-.66,.44-.96,0,.34-.06,.68-.22,.59,.15,.76,.3-1.17,.45-.52-.04,0-.06-.05-.09,.12,.11-.3,.34-.05,.27,.24h-.04c.27,.13,.84,.04,.92-.81,0,.11-.08,1.02-.1,1.19l.61-2.84c-.07,.73,.02,2.47-.23,2.88,.06,.11,.14,.23,.29-.02-.04-.11-.07-1.06,0-1.12,.13,.82,.1,.44,.28,1.14-.06-.16,.06-1.3,.16-1.26-.02,.17-.04,1.13-.08,1.25l.31-1.11c-.07,.2-.05,.95,0,1.27-.02-.22,.23,.03,.3-.08l-.1-.26c.29,.18,.36-1.57,.65-1.5-.04,.23-.14,1.43,0,1.57,.09-.57,.41-2.76,.68-3.19l.04,.33,.21-.37c-.15,.86-.57,2.67-.79,3.38,.1,.26,.02,.39,.19,.36,.05,.31-.11,.46-.16,.48l.38,.21c0-.67,.32-.66,.33-1.22l-.45,.68c0-.67,.31-1.9,.58-1.77,.06,.27-.09,1.19-.1,1.42,.04-.23,.28-.43,.3-.27l-.13,.36c.15,.26,.28-.88,.44-.23,.06,.05,.16,.87,.19,.47-.08-.77-.02-3.14,.07-3.72,.02,.05,.31,.74,.37,1.13,.09,.6-.2,1.43-.13,1.95,0-.18,.08-.41,.1-.48,.06,.16-.05,.57,.1,.49,.05-.68,.29,.07,.09-.57,.15-.19,.15,.15,.31,.12-.04-.44,.2-1.49,.34-1.68-.01,.17,.01,.4,.02,.5,.29,.07,.44,.39,.71,.4,.02,.17,.15,.37,.08,.66,.04-.12,.08-.35,.17-.36,.15,.59-.19,.09-.09,.8,.02-.4,.23-.54,.36-.78-.02-.61-.27-.13-.4,.12,.02-.84,.26-1.72,.55-2.1,.23-.2,.08,.55,.13,.43,.42,.16,.4-1.46,.73-.84,.13,.54-.02,1.07,0,1.46-.19,.2-.27-.35-.4-.33l.15,.26c-.06,.18-.19,.31-.25,.15,.1,.49,.71,.12,1.03,.57,.06-.18,.17-.36,.12-.58l-.1,.07c-.08-.44,.21-.59,.08-.8,.15-.3,.31-.77,.5-.52l.02,.61c0-.18-.12-.37-.18-.18,.09-.27,.28,.84,.39,.04l-.13-.43c.15-.3,.33-.95,.5-.75-.07-.61-.04,.07-.15-.64,.09,.88-.44-.05-.29,.88-.11-.83-.21-.36-.36-1.06,0,.2,.05,.39-.09,.28,0,.06-.02,.13-.04,.18v0s0,.04,0,0c.03,.09,.06,.2,.07,.31-.08,.46-.31,.44-.39,.68-.08-.1,.04-.23,0-.45l-.12,.36c0-.45-.21-.75,0-1.01l-.18-.03c-.1-.26-.24-.36-.34-.17-.08-.1-.23,.49-.15,.14l-.29,.27v-.11c-.28-.07-.6,.72-.9-.1-.1,.11-.2,.25-.35,.11l-.02-.39c-.13,.13-.35-.4-.42,0-.1-1.05-.58-.25-.79-.44l-.02,.51c-.15-.03-.29,.11-.48,.3v.45c-.17,.36-.4-.33-.65-.29,.02-.17,.08-.12,.13-.02-.26-1.02-.65,.72-.9-.03-.07,.16-.12,.1-.16-.01,0,0,.01,0,.02-.02,0,0-.02,0-.03,0l-.08-.24c.02,.11,.05,.2,.07,.24-.05,0-.13,.06-.21,.17v-.48s-.03,0-.03,.01c-.07-.18-.07,.23-.04,.59-.04,.08-.08,.17-.11,.29-.03-.78-.21,.25-.26-.58-.07,.4-.4,.29-.47,1.14,0-.11-.02-.16,.02-.17-.08-.1-.16-.2-.25,.04v-.61l-.23,.82c-.1-.38-.14-.59,0-1.06-.3,.71-.23,.27-.5,.98l.03-.4c-.08,.01-.24,.54-.28,.21-.15-.76-.92-.13-1.36-.85,.04,1.17-.2-.53-.26,.37-.01-.28-.07-.43,.01-.67-.26,.26-.34-.45-.55,.31-.01-.28,.07-.4,.06-.57-.02,.06-.09,.24-.11,.07-.02-.16,.05-.23,.09-.35-.25,.04-.32,.89-.38,1.68-.11-.38-.17-.33-.29,.19-.03-.26-.09-.54,.07-.63-.08-.04-.51-.4-.56,.24-.02-.16-.12-.05-.15,.02-.2-.05-.21-.1-.41-.05l.05,.11c-.11,.77-.17,.16-.33,.25v-.08c-.34-.57-.16,.26-.49-.39v.48c-.06,1.03-.29-.62-.51-.23l.07,.28c-.12,.35-.28-1.41-.39-1.54-.02-.09,.04-.14,.08-.21-.29-.62-.05,.63-.28,.77-.03-.34,.07-.86-.08-.93-.07-.28-.45,1.09-.64,.44,.04,.26,.08,.52-.02,.72-.16,.09-.41-.99-.56-.17-.02-.07-.03-.14-.03-.2-.12,.21-.39,.35-.47,.79-.09-1.66-.75,.8-.73-.73l-.37,.08v-.16c-.22-.1-.31,.26-.39,.63-.05-.1-.01-.25,0-.33-.34-.31-.37-.25-.66,.51l-.02-.5c-.08,.29-.48-.78-.82-.21,0-.06,.01-.15,.04-.22-.38,.58-.86-1.39-1.03,.41l-.25,.44c.32,.15-.06,.78,.06,1.08-.13,.1-.31-.55-.16-.64l.02,.09c.08-.94-.39-.34-.36-.98-.63,.03-1.21-.51-1.78-.58l.03,.73-.2-.05c-.04-.17-.04-.57,.1-.54-.06-.42-.26,.34-.27,.5-.26-.31,.15-.85,.07-.87l-.12,.05,.02,.09c-.11,.29-.13,.61-.3,.56-.1-.15-.03-.45-.07-.48,0-.05,0-.08-.06-.02l-.25-.08,.06,.58c-.13,.28-.24-.04-.16,.62-.11-1.01-.92-.43-1-.75-.19,.41-.35,.39-.53,.32,.04,.12,0,.77-.16,.68,.19-1.33-.25-.61-.27-1.59,.05,.65-.48,.11-.4,1.03-.12-.12,.05-.5-.02-.82-.39,.48-.66-.43-1.07-.31-.03,.17,0,.45-.13,.69l-.07-.9c-.09,.07-.23,.99-.27,.37,0,.15-.01,.38-.07,.42-.59-.97-1.74,.38-2.08-1.37,0,.36-.06,.37-.14,.36,.03,.09-.11,.42-.17,.65l-.13-.73c-.24,.62-.34-.05-.56,.55l.13-.08c-.35,.68-.28,1.64-.57,2.56,.39-.77,.11,1.34,.7,.24,.01,.2-.13,.29-.15,.51,.17-.38,.28-.44,.39-.23l-.04,.09c.47,0,.57,.45,1.02,.82l.06-.47c.1,.08,.09,.23,.12,.36,.26-.68-.3-.1-.03-.85-.04,.97,.75,.15,.66,1.25,.17,.04,.04-.55,.21-.51v.3l.1-.37c.1,.08,.09,.45,.06,.7-.02-.03-.09,.06-.12,.08,.09,.37,.42-.06,.46,.06l-.13-.2c.5-.21,1.01,.27,1.52-.29v-.23c.37-.37,.23,.27,.62,.12l-.02,.05c.1-.21,.2-.31,.3-.28-.12,.25,.12,.52-.02,.8,.4-.41,.21-.33,.52-1.14l.02,.37c.11-.33,.13-.5,.32-.58-.17,.31,.07,.57-.13,.98,.32,.84,.62-.77,.72,.42,.24-1.01-.29-.59-.18-.8-.06-.34,.2-.76,.31-.65,.12,.03,.12,1.32,.43,1.32-.03,0-.04,.07-.07,.06,.1,.27,.24-.34,.36,.09,.11-.62,.18,.05,.24-.74l-.29,.17c.17-.2,.36-1.11,.6-.66-.03,.16-.11,.37-.17,.48,.06,.24,.15-.15,.22,.09-.06,.79-.34,.16-.55,.75,.07,.34,.35-.56,.22,.3,.17-1.08,.3,.15,.54-.67l-.03,.47c.04-.07,.11-.29,.17-.28l-.13,.61c.19-.52,.31,.47,.48,.19-.34,0-.05-.57-.18-.93,.43-.62,.19,1.25,.67,1.04-.07,.07-.23-.29-.12-.51,.08,.1,.2,.29,.24,.54,.31-.09-.03-.49,.11-.78,.09,.58,.16-.23,.29-.41v.48c.33,.32,.11-1,.41-.62l-.15,.67,.17-.17-.05,.55c.19-.4,.24-.3,.41-.14-.03-.34,.04-.87,.19-.89,.1,.29-.07,.46,.15,.39-.05,.3-.11,.68-.2,.23-.01,.16-.05,.3-.07,.46,.11,.33,.28,.08,.36,.08-.03-.02-.07-.05-.08-.11l.33-.66c.05,.18,0,.33-.04,.47,.06-.05,.11-.27,.21-.31-.03,.39-.03,.8-.17,.98l.31-.43c.02,.17,.15,.47,.11,.61,.16,.23,.41-.76,.63-.45,.01-.08,.04-.15,.08-.2,.2,.09,.38,.57,.63,.04l.13,.7c.19-.16-.18-.89,.14-1.15,.23-.22,.08,.6,.16,.8,.11-.35,.31-1.07,.51-.5-.07,.13-.12,.03-.19,.08Zm2.32-.28c-.05,.1-.14,.41-.17,.13,.06-.55,.1-.29,.17-.13Zm3.54-1.05c-.04,.16-.09,.08-.14-.11,.04-.04,.09-.02,.14,.11Zm10-3.03v.02c-.1-.19-.07-.12,0-.02Zm.2,.22c.02-.07,.02-.13,.02-.2-.02,.12-.06,.13-.12,.09,.01,.13,.04,.21,.1,.11Zm-22.46-.44l.03,.13c-.1,.13-.07,0-.03-.13Z"/><path class="d" d="M19.94,16.49c0-.08,0-.17,0-.26-.02,.08-.03,.17,0,.26Z"/><polygon class="d" points="13.06 17.41 13.05 17.41 13.04 17.5 13.06 17.41"/><path class="d" d="M27.22,17.01c-.04-.07-.06-.16-.08-.25,0,.12,.01,.22,.08,.25Z"/><path class="d" d="M31.7,12.25l-.14,.12c.07-.02,.09,.08,.12,.16,0-.11-.02-.28,.02-.28Z"/><path class="d" d="M32.81,15.27c.02-.06,.04,0,.06-.06v-.22c-.09,.01-.15,.19-.06,.29Z"/><path class="d" d="M31.79,13.85c0,.41,.09,.27,.18,.2,0,0-.01,0-.02,0,.04-.57-.06-.38-.17-.2Z"/><path class="d" d="M32,14.04s.06-.03,.09,0c.02-.23-.03-.05-.09,0Z"/><path class="d" d="M30.85,12.77c.04,.11,.04-.52,.06-.35,.06-.51-.31,.61-.06,.35Z"/><polygon class="d" points="31.84 15.19 31.82 14.69 31.76 15.09 31.84 15.19"/><path class="d" d="M31.11,14.8l.15,.14c0-.08,.02-.13,.04-.17-.09-.02-.19-.12-.19,.03Z"/><path class="d" d="M31.3,14.78s.09,0,.12-.08c-.03,0-.08,.02-.12,.08Z"/><polygon class="d" points="31.63 15.34 31.59 15.23 31.49 15.19 31.63 15.34"/><path class="d" d="M29.5,14.65l-.17,.14c-.02,.17,.02,.28,.08,.21,.04-.12,.11-.18,.08-.35Z"/><path class="d" d="M29.96,16.04c-.04-.11-.04-.22-.06-.38l-.02,.62,.08-.24Z"/><path class="d" d="M29.47,16.17c-.02,.17-.25,.49-.04,.45,.02-.17,.19-.31,.04-.45Z"/><polygon class="d" points="27.02 15.3 27.06 15.29 27.09 14.28 27.02 15.3"/><path class="d" d="M24.75,17.66c.19,.25,.07-.63,.24-.32,.05-.24-.14-.25-.08-.46-.13,.25-.18,.1-.16,.78Z"/><path class="d" d="M24.9,16.89s.04-.09,.07-.15c-.04,.06-.05,.11-.07,.15Z"/><polygon class="d" points="1.18 11 1.14 10.77 1.11 11.11 1.18 11"/><path class="d" d="M.75,11.66l.17-.63-.24,.54s.1-.06,.07,.09Z"/><path class="d" d="M17.15,18.2v-.16c0-.17-.03-.18-.09-.21l.09,.37Z"/><polygon class="d" points="15.5 17.69 15.52 17.71 15.48 17.12 15.5 17.69"/><path class="d" d="M14.07,18.43c.06,.02,.13-.11,.19-.08-.13,.1-.2-.65-.19,.08Z"/></g><g><path class="d" d="M37.08,32.32c-.07,0,.19,.33,.23,.4,.03-.14-.29-.49-.23-.4Z"/><polygon class="d" points="37.38 30.92 37.47 31.07 37.35 30.64 37.38 30.92"/><path class="d" d="M38.19,30.33c-.5-.51-.22,.31-.52,.21l-.12-.11,.28,.51c.12-.2,.12-.68,.36-.61Z"/><path class="d" d="M39.55,31.23c-.2-.2-.05-.26-.15,0l.06,.04s.04-.03,.09-.05Z"/><path class="d" d="M39.46,31.28c-.07,.08,.2,.14,0,0h0Z"/><path class="d" d="M39.76,30.85l.04,.28c.12,.11,.25,.06,.28,.19,.03-.2-.09-.31-.32-.47Z"/><path class="d" d="M39.54,30.36v.13c.06,.05,.09,.05,0-.13Z"/><path class="d" d="M39.56,30.76v-.27c-.1-.08-.24-.26-.02,.11-.12-.17-.02,0,.02,.16Z"/><path class="d" d="M39.43,30.72c-.16-.07-.3-.09-.34-.37-.15,.24,.18,.62,.34,.37Z"/><path class="d" d="M37.79,29.71l-.21-.1,.07,.24c-.04-.12,.28,.03,.14-.14Z"/><path class="d" d="M40.69,30.59c-.09-.12-.29-.29-.42-.43l.03,.2c.11,.05,.25,.06,.39,.23Z"/><path class="d" d="M40.27,30.16l-.04-.3c-.13,.06-.07,.17,.04,.3Z"/><polygon class="d" points="39.08 29.72 39.21 30.31 39.11 29.68 39.08 29.72"/><polygon class="d" points="41.17 30.23 41.32 30.56 41.11 30.05 41.17 30.23"/><path class="d" d="M41.44,29.93c.13,.27,.38,.32,.44,.51,.05-.11-.03-.36-.11-.59,.01,.15-.08,.19-.33,.08Z"/><path class="d" d="M41.67,29.5c.01,.08,.05,.21,.1,.34,0-.08-.03-.19-.1-.34Z"/><path class="d" d="M40.48,29.75c.07,.06,.24,.24,.37,.26l-.32-.29-.05,.03Z"/><path class="d" d="M40.52,29.71h.01l.12-.06-.13,.06Z"/><path class="d" d="M40.47,29.76h.01s-.04-.05-.01,0Z"/><path class="d" d="M39.64,29.77c-.08-.24-.09-.56-.46-.73,.13,.27,.34,.37,.46,.73Z"/><path class="d" d="M40.08,29.39l-.19,.03c.07,.09,.2,.2,.24,.32l-.05-.34Z"/><polygon class="d" points="40.05 29.24 40.08 29.39 40.15 29.38 40.05 29.24"/><path class="d" d="M41.19,29.38c-.06-.19-.01-.25,.04-.33-.13,0-.23,.02-.3,.08,.08,.11,.2,.32,.27,.25Z"/><path class="d" d="M40.84,29.51v-.03s-.05-.03,0,.03Z"/><path class="d" d="M41.9,28.48l-.06-.05,.05,.06h.02Z"/><path class="d" d="M40.87,29.08c-.11-.02-.07,.09-.02,.22,.01-.07,.04-.12,.08-.17-.03-.05-.06-.08-.06-.05Z"/><path class="d" d="M41.73,29.19c-.09-.04-.17-.08-.25-.1,.12,.08,.31,.19,.25,.1Z"/><path class="d" d="M40.94,29.56v.02c.08,.06,.05,.02,0-.02Z"/><path class="d" d="M40.94,29.56c-.01-.07-.05-.17-.09-.26-.01,.05-.01,.11,0,.19,.03,.02,.06,.05,.09,.08Z"/><path class="d" d="M40.31,26.23c.25,.31,.35,.7-.04,.48,.08,.33,1,1.25,1.58,1.71-.11-.13-.21-.26-.24-.54-.19-.13-.6-.15-.73-.51,.03-.29,.22,0,.44,.08-.39-.32-.27-.72-.78-1.24l.03,.31c-.08-.08-.14-.26-.25-.31Z"/><path class="d" d="M41.58,28.61l-.02,.08c.1,0,.25,.09,.53,.25-.04-.22-.12-.35-.2-.45l-.29,.18-.02-.06Z"/><path class="d" d="M41.33,28.88c-.24-.36-.23-.61-.61-.9-.13,.15,.13,.36,.15,.58,.18-.28,.08,.24,.42,.28,0,.1-.03,.15-.06,.2,.08,0,.16,.02,.25,.05l-.02-.02h0s-.07-.06-.04-.04c0,0,0-.01,0-.01l-.09-.13c.13,0,.08,.08,.09,.13l.04,.05h0l.1-.38c-.09,0-.15,.06-.23,.19Z"/><path class="d" d="M38.73,28.21s.05,.05,.07,.07c-.02-.05-.03-.09-.07-.07Z"/><path class="d" d="M39,28.33c.02,.06,.11,.21,.03,.22-.13-.06-.13-.16-.22-.27,.04,.12,.07,.34,.31,.42l-.02-.06c.19,.04,.65,.36,.67,.42-.27-.28-.47-.48-.77-.72Z"/><path class="d" d="M40.09,28.53l.07-.33-.34-.2,.15,.17c-.17,.03,.03,.22,.12,.36Z"/><polygon class="d" points="42.07 28.62 42.34 28.99 42.04 28.4 42.07 28.62"/><polygon class="d" points="42.3 28.35 42.55 28.66 42.46 28.41 42.3 28.35"/><path class="d" d="M45.49,11.55l-.12,.02s.08,0,.12-.02Z"/><path class="d" d="M45.63,11.85l.18-.07c-.1,.03-.18,.06-.18,.07Z"/><path class="d" d="M48.21,21.76c.38,.1,.94,.29,.56,.06l-.39-.2c.02,.11-.06,.14-.17,.14Z"/><path class="d" d="M48.17,15.24h-.14l.4,.15-.26-.15Z"/><path class="d" d="M46.4,14.9l.3-.08c-.1,.01-.2,.04-.3,.08Z"/><path class="d" d="M43.8,10.3l-.34,.3c.08,.06,.19-.14,.34-.3Z"/><path class="d" d="M44.82,25.74c.19,.05,.3,.04,.37,0-.27-.08-.6-.27-.37,0Z"/><path class="d" d="M49.64,9.53c-.1-.02-.19,0-.28,.05,.1,.02,.19,.01,.28-.05Z"/><path class="d" d="M45.39,25.53s-.07-.02-.11-.03c0,.1,0,.2-.09,.24,.2,.06,.35,.07,.2-.21Z"/><path class="d" d="M35.2,5.91s0-.03,0-.06c-.02,.06,0,.06,0,.06Z"/><path class="d" d="M33.26,.89s.09,0,.14,0c-.02-.03-.06-.04-.14,0Z"/><path class="d" d="M43.48,27.54c-.04,.07,.02,.04,0,0h0Z"/><path class="d" d="M42.06,26.52s-.05-.1-.12-.18c.07,.08,.1,.14,.12,.18Z"/><path class="d" d="M43.89,23.16h0c-.08-.04-.06-.04,0,0Z"/><path class="d" d="M43.26,27.47c.06,.02,.11,.03,.16,.03-.03-.01-.08-.02-.16-.03Z"/><path class="d" d="M43.41,27.61h-.08c.04,.07,.08,.1,.08,0Z"/><path class="d" d="M43.54,27.45s-.07,.05-.12,.05c.03,.01,.05,.03,.06,.04,.01-.02,.03-.05,.06-.09Z"/><path class="d" d="M40.79,6.72v-.04c-.13,.14-.09,.12,0,.04Z"/><polygon class="d" points="45.28 17.89 45.29 17.9 45.31 17.9 45.28 17.89"/><path class="d" d="M45.09,17.55c.45,.32,.35,.34,.22,.35l1.15,.5-1.37-.86Z"/><path class="d" d="M44.9,10.92l-.23,.34c-.58,.3-.46,.1-.82,.53,1.05-.85,.35,.2,1.47-.58l-.2,.23s-.07,.02-.06,0c-.48,.47,.86-.46,.81-.17-.05,.12-.2,.25-.37,.29l.37-.03c0,.05-.22,.15-.22,.1,.07,.05,.15,.09,.2,.15h-.04c.2-.05,.53-.11,.67-.12-.16,.13-.14,.02-.3,.1h.35c-.31,.17-.67,.19-.65,.11-1.23,.58,.35-.02-.32,.43l-.2-.03c-.72,.3-.41,.22-.86,.46,.26-.1,1.1-.49,1.47-.5-.08,.05-.12,.11,.16,.14-.47,.11-.34,.16-.3,.26l-.63,.12c.2,.06,.51-.01,.81,0-.04,.13-.53,.23-.94,.32-.07,.19,.76-.24,.92-.04-.23,.19,.09,.25,.46,.44-.22,.13-.39,0-.57,.05l.51,.08s-.17,.02-.25,.02c.2,.08,.64-.02,.81,.13,.7,.05-1.03,.3-.23,.49-.18,.03-.39-.04-.64-.04,.53,.27,.38,.22,1.05,.51l-.45,.13c.5-.07,1.04,.16,1.47,.42,.24-.02,.45-.04,.55-.06l.29,.35c-.11,.02-.32-.05-.58-.14l.14,.08c-.25,.06-.6-.06-.95-.19l.4-.03c-.37-.13-.79-.25-1.16-.29,.07,.03,.13,.07,.16,.11-.1-.03-.19-.06-.26-.06-.07,0,.07,.04,.22,.11l-.71-.06,.28,.06-.48,.21c.69,.35,1.61,.82,1.78,1.31-.47-.25-.81-.26-1.4-.45,.66,.09-.19-.35,0-.48-.1,.08-.38-.02-.47-.07,.16,.15,.32,.3,.48,.47-.48-.15-.39-.04-.61-.02,.98,.23,.57,.44,.82,.67-.32-.1-.63-.25-.51-.38-.77-.08,1.05,.62,.38,.58,0-.04,.07-.05-.09-.12,.24,.2-.08,.34-.33,.18v-.04c-.21,.21-.33,.76,.42,1.18l-1.06-.57c.8,.56,1.57,1.15,2.32,1.76-.63-.38-2.25-1.04-2.5-1.43-.13,.01-.27,.02-.11,.26,.11,.01,.99,.4,1.01,.49-.8-.23-.45-.1-1.15-.25,.17,.02,1.13,.65,1.04,.73-.14-.1-.98-.56-1.07-.65l.84,.81c-.14-.17-.81-.5-1.11-.61,.2,.09-.12,.19-.08,.31l.29,.04c-.31,.16,1.16,1.11,.92,1.35-.17-.16-1.14-.87-1.34-.82,.44,.37,2.1,1.83,2.28,2.37l-.3-.14,.16,.42c-.59-.64-1.86-2.04-2.34-2.59-.28-.05-.34-.19-.41-.04-.29-.13-.33-.34-.32-.39l-.37,.2c.56,.38,.37,.64,.82,.96-.09-.25-.2-.51-.31-.76,.56,.37,1.41,1.33,1.12,1.5-.26-.1-.92-.76-1.1-.89,.16,.17,.18,.48,.03,.4l-.21-.31c-.3-.03,.54,.75-.08,.51-.08,.03-.8-.39-.49-.13,.66,.4,2.53,1.86,2.93,2.29-.06,0-.82-.15-1.16-.33-.53-.3-.99-1.06-1.45-1.31,.14,.12,.28,.32,.31,.38-.17-.05-.42-.39-.46-.22,.5,.46-.26,.2,.39,.43,.04,.24-.22,.03-.31,.19,.37,.24,1.02,1.11,1.05,1.37-.12-.12-.32-.25-.4-.3-.27,.2-.6,.14-.82,.35-.14-.09-.39-.13-.56-.37,.06,.11,.2,.3,.14,.38-.55-.28,.08-.21-.53-.6,.28,.28,.23,.55,.31,.82,.47,.4,.3-.14,.21-.4,.61,.58,1.08,1.36,1.13,1.88-.04,.34-.47-.3-.41-.18-.45,.24,.74,1.36,0,1.21-.49-.27-.75-.77-1.04-1.02,.01-.29,.48,.03,.56-.1l-.3-.06c-.08-.17-.07-.37,.09-.32-.42-.24-.66,.5-1.23,.43,.08,.18,.12,.39,.3,.51l.04-.14c.38,.24,.24,.59,.49,.64,.09,.33,.28,.81-.06,.79l-.44-.43c.12,.13,.35,.17,.28-.01,.11,.27-.81-.38-.36,.28l.4,.21c.08,.34,.36,.96,.08,.95,.47,.39-.01-.08,.57,.35-.68-.58,.42-.32-.35-.88,.66,.51,.43,.09,1.05,.47-.14-.14-.31-.24-.12-.28-.03-.05-.07-.12-.09-.16h0s-.02-.04,0-.01c-.09-.04-.19-.09-.27-.17-.25-.4-.04-.58-.14-.82,.14,0,.13,.2,.32,.32l-.15-.36c.32,.32,.71,.35,.72,.71l.18-.14c.27,.09,.47,.04,.42-.17,.15,0-.16-.54,.02-.23l.05-.45,.08,.08c.29-.21-.04-1.02,.82-.74,0-.16-.02-.34,.2-.4l.31,.23c0-.2,.59-.08,.34-.4,.89,.56,.67-.41,.98-.5l-.38-.33c.14-.13,.14-.36,.12-.67l-.36-.27c-.17-.38,.56-.2,.72-.47,.12,.12,.04,.16-.08,.14,1.06,.31-.14-1.08,.66-.93-.09-.16,0-.18,.12-.17,0,0,0,.02,0,.03,0,0,.02-.01,.02-.03,.09,.01,.18,.03,.27,.03-.11-.03-.21-.05-.26-.05,.03-.06,.04-.17,0-.32l.43,.23s0-.02,0-.03c.2,.01-.15-.19-.48-.34-.04-.08-.09-.17-.17-.26,.7,.35-.08-.35,.67,0-.31-.27-.01-.59-.73-1.06,.1,.05,.16,.05,.14,.1,.14-.04,.27-.09,.11-.29l.56,.25-.61-.59c.4,.05,.62,.1,.97,.44-.47-.63-.1-.37-.63-.96l.35,.18c.03-.11-.39-.48-.06-.4,.79,.08,.58-1,1.39-1.41-1.15-.21,.59-.14-.27-.41,.28,.04,.45,0,.65,.16-.17-.39,.58-.38-.13-.79,.28,.02,.38,.16,.55,.16-.05-.04-.22-.16-.05-.16,.17,0,.22,.1,.33,.18,.02-.38-.82-.56-1.6-.72,.4-.09,.36-.2-.14-.38,.27-.02,.55-.08,.61,.14,.06-.1,.49-.67-.15-.73,.17-.02,.05-.16-.02-.19,.04-.25,.1-.28,.04-.53l-.1,.07c-.77-.11-.17-.2-.26-.4h.08c.55-.48-.25-.17,.35-.67l-.47,.07c-1.03,.06,.54-.45,.11-.68l-.26,.13c-.37-.07,1.32-.63,1.41-.84,.08-.05,.15,.03,.22,.06,.52-.56-.63,.07-.82-.2,.32-.13,.85-.12,.87-.35,.13-.08-.19-.19-.48-.32-.29-.13-.53-.26-.28-.53-.22,.16-.44,.31-.68,.24-.15-.16,.66-1.02-.19-.82,.05-.06,.1-.1,.16-.13-.28-.05-.6-.32-1.02-.16,.66-.52,.34-.65,.02-.69-.32-.05-.63-.06-.04-.54l-.39-.34,.12-.09c-.14-.31-.5-.12-.83,.06,.02-.12,.16-.19,.22-.24-.11-.53-.21-.53-.97-.21l.29-.4c-.25,.17-.01-1-.72-.81,.04-.04,.1-.11,.17-.15-.71,.17-.21-1.8-1.33-.39l-.49,.21c.25,.33-.46,.64-.48,.98-.17,0-.04-.66,.17-.65l-.02,.09c.55-.77-.24-.52,.09-1.07-.69-.35-1.12-1.15-1.77-1.5l-.24,.7-.21-.15c.01-.18,.16-.56,.31-.45,.09-.42-.42,.19-.49,.34-.2-.41,.48-.72,.39-.78h-.16v.08c-.24,.23-.37,.51-.55,.39-.06-.19,.12-.44,.08-.49,.02-.05,.01-.08-.07-.05l-.27-.18-.11,.58c-.24,.21-.26-.14-.38,.52,.2-1.02-.93-.76-.94-1.1-.33,.32-.5,.25-.7,.13,.01,.13-.18,.75-.33,.61,.52-1.24-.15-.67,.01-1.63-.07,.65-.6-.04-.67,.89-.12-.16,.15-.48,.13-.82-.54,.37-.74-.59-1.27-.57-.06,.17-.06,.45-.23,.67v-.92c-.12,.06-.37,.95-.37,.31-.02,.15-.04,.37-.12,.41-.71-1.1-2.06,.17-2.64-1.62,.05,.36-.04,.38-.14,.36,.05,.09-.1,.42-.14,.66l-.26-.73c-.21,.63-.44-.05-.61,.56l.15-.08c-.32,.7-.11,1.67-.34,2.6,.36-.79,.19,1.33,.75,.21,.02,.21-.12,.29-.14,.51,.17-.38,.28-.44,.4-.23l-.04,.09c.49,0,.59,.46,1.03,.85l.08-.47c.09,.09,.08,.24,.1,.37,.31-.66-.3-.12,.02-.86-.1,.97,.78,.23,.58,1.31,.17,.05,.1-.54,.27-.49l-.04,.3,.15-.35c.09,.09,.04,.46-.02,.71-.02-.04-.1,.05-.13,.06,.04,.38,.43,0,.45,.12l-.11-.22c.54-.13,.97,.42,1.59-.01l.04-.22c.47-.27,.19,.33,.61,.27l-.03,.05c.15-.18,.28-.26,.38-.2-.18,.21,0,.54-.22,.77,.51-.29,.29-.26,.82-.95l-.08,.37c.2-.28,.27-.44,.49-.46-.26,.24-.09,.57-.41,.9,.07,.9,.86-.54,.59,.62,.56-.88-.11-.66,.07-.82,.04-.34,.43-.66,.51-.51,.11,.07-.3,1.3,0,1.41-.03-.02-.06,.05-.09,.04,0,.29,.36-.23,.32,.22,.33-.53,.16,.11,.51-.6l-.35,.05c.23-.12,.77-.91,.84-.37-.09,.14-.25,.29-.35,.37-.03,.25,.21-.07,.18,.18-.36,.7-.39,0-.81,.48-.06,.34,.54-.39,.11,.36,.58-.94,.21,.26,.76-.4l-.22,.42c.06-.05,.22-.22,.27-.19l-.37,.5c.38-.4,.09,.55,.36,.37-.31-.13,.19-.54,.22-.92,.67-.37-.33,1.2,.16,1.22-.08,.03-.07-.36,.12-.51,.03,.13,.04,.35-.03,.59,.31,.06,.2-.45,.45-.64-.19,.56,.25-.13,.46-.22l-.24,.42c.15,.44,.59-.82,.68-.34l-.46,.51,.23-.07-.31,.45c.36-.26,.35-.13,.41,.09,.15-.31,.49-.73,.63-.65-.07,.3-.3,.35-.08,.41-.21,.22-.46,.51-.29,.09l-.3,.35c-.09,.33,.18,.21,.25,.25-.01-.03-.03-.07,0-.14l.64-.38c-.06,.18-.18,.27-.29,.37,.08,0,.25-.17,.34-.15-.25,.31-.47,.63-.68,.72l.47-.19c-.09,.15-.17,.46-.29,.55-.03,.27,.75-.38,.72-.02,.06-.05,.12-.1,.19-.11,.08,.19-.15,.64,.37,.4l-.41,.58c.23,0,.51-.73,.9-.73,.31-.02-.38,.46-.48,.64,.3-.18,.96-.52,.62-.03-.14,.04-.08-.06-.15-.06Zm1.09,1.29c-.11,0-.43,.04-.17-.07,.54-.14,.3-.02,.17,.07Zm1.21,3.23c-.15-.06-.07-.1,.12-.13,.03,.05,0,.1-.12,.13Zm-3.39,11.25v-.02c.21,.05,.12,.03,0,.02Zm-.33,.02c.03,.07,.08,.11,.13,.15-.07-.1-.04-.15,.03-.16-.1-.08-.18-.12-.16,0Zm-2.07-23.26v.14c-.16,.08-.08-.02,0-.14Z"/><path class="d" d="M46.61,14.94c.08,0,.17,0,.26,.02-.08-.03-.17-.04-.26-.02Z"/><polygon class="d" points="43.86 10.24 43.86 10.23 43.8 10.3 43.86 10.24"/><path class="d" d="M43.07,21.22c.08,0,.17,.05,.25,.09-.09-.08-.18-.12-.25-.09Z"/><path class="d" d="M43.05,28.23l.04-.2c-.04,.07-.13,0-.22-.02,.08,.08,.21,.18,.18,.22Z"/><path class="d" d="M40.06,26.88c.02,.06-.03,.04-.01,.1l.15,.17c.06-.07,0-.26-.14-.26Z"/><path class="d" d="M41.87,27.13c-.28-.29-.26-.13-.29,0,0,0,0-.01,.01-.01,.35,.45,.32,.23,.28,.01Z"/><path class="d" d="M41.57,27.16s-.03,.07-.07,.07c.14,.18,.06,0,.07-.07Z"/><path class="d" d="M43.43,27.13c-.11-.04,.33,.4,.19,.3,.31,.42-.16-.7-.19-.3Z"/><polygon class="d" points="40.92 26.19 41.28 26.54 41.06 26.2 40.92 26.19"/><path class="d" d="M41.8,25.89l-.22,.02c.06,.06,.08,.11,.08,.16,.09-.06,.24-.07,.14-.17Z"/><path class="d" d="M41.66,26.07s-.08,.08-.05,.16c.02-.02,.05-.08,.05-.16Z"/><polygon class="d" points="40.99 25.92 41.1 25.97 41.22 25.92 40.99 25.92"/><path class="d" d="M43.21,24.66l.03-.24c-.11-.13-.22-.17-.22-.07,.05,.12,.05,.21,.19,.31Z"/><path class="d" d="M41.84,24.09c.11,.04,.19,.12,.32,.21l-.43-.45,.11,.23Z"/><path class="d" d="M42.11,23.61c-.11-.13-.17-.53-.3-.34,.11,.13,.08,.36,.3,.34Z"/><polygon class="d" points="44.55 22.09 44.53 22.13 45.32 22.78 44.55 22.09"/><path class="d" d="M43.96,18.79c-.31,.03,.5,.38,.15,.36,.17,.17,.29,.02,.44,.17-.14-.24,.01-.21-.58-.53Z"/><path class="d" d="M44.54,19.32s.05,.08,.09,.14c-.03-.06-.06-.1-.09-.14Z"/><polygon class="d" points="32.84 .24 32.74 0 32.76 .36 32.84 .24"/><path class="d" d="M32.41,.92l.1-.64-.21,.56s.11-.06,.11,.09Z"/><path class="d" d="M44.77,12.76l.15-.03c.16-.05,.17-.07,.19-.12l-.35,.15Z"/><polygon class="d" points="44.89 11.78 44.89 11.8 45.37 11.47 44.89 11.78"/><path class="d" d="M43.76,11.52s.14-.01,.14,.04c-.12,.01,.38-.55-.14-.04Z"/></g></g></g></g></svg>