<?xml version="1.0" encoding="UTF-8"?><svg xmlns="http://www.w3.org/2000/svg" viewBox="0 0 54.7 39.14"><defs><style>.d{fill:#1d1d1b;}</style></defs><g id="a"/><g id="b"><g id="c"><g><g><path class="d" d="M6.73,3.04s.07-.38,.09-.45c-.09,.08-.1,.56-.09,.45Z"/><polygon class="d" points="6.01 3.9 6.05 3.73 5.91 4.13 6.01 3.9"/><path class="d" d="M5.71,3.8c-.26,.67,.14-.06,.1,.19l-.04,.16,.18-.55c-.07,.08-.29,.4-.25,.2Z"/><path class="d" d="M7.64,6.57c-.24-.13-.16-.2-.12,.02l.07,.03s.02-.03,.05-.05Z"/><path class="d" d="M7.59,6.62c-.02,.07,.22,.09,0,0h0Z"/><path class="d" d="M7.59,6.33c.06,.05,.12,.11,.18,.17,.15,.08,.19,.08,.28,.16l-.08-.07-.16-.12s-.02-.02-.07-.05l-.15-.1Z"/><path class="d" d="M7.18,6.01l.08,.07c.06,.04,.07,.06-.08-.07Z"/><path class="d" d="M7.42,6.24c-.05-.06-.11-.11-.16-.16-.1-.06-.29-.2,.05,.06-.17-.12,0,0,.1,.1Z"/><path class="d" d="M7.31,6.21c-.15-.06-.27-.05-.42-.26-.01,.19,.43,.44,.42,.26Z"/><path class="d" d="M5.38,4.46l-.04,.21,.14-.2c-.07,.1,0-.21-.09,0Z"/><path class="d" d="M6.84,5.9l-.11-.16-.15-.2,.26,.35Z"/><path class="d" d="M6.73,5.75l.31,.44-.31-.44Z"/><path class="d" d="M6.55,5.53l.4,.39c-.13-.14-.26-.27-.39-.4h0Z"/><polygon class="d" points="7.58 6.89 7.72 7.21 7.51 6.72 7.58 6.89"/><path class="d" d="M3.4,4.46c-.06,0,.08,0,.02,0,.08,0,.15-.01,.22-.01-.07,0-.13,0-.24,.01Z"/><path class="d" d="M3.73,4.44h0Z"/><path class="d" d="M7.11,6.23c.05,.08,.18,.28,.25,.36l-.23-.36h-.02Z"/><path class="d" d="M7.13,6.21h.06s-.03,0-.06,0Z"/><path class="d" d="M7.11,6.23h0s-.03-.05,0,0Z"/><path class="d" d="M6.47,5.42l.09,.11c-.09-.11-.18-.24-.31-.36l.25,.3-.04-.04Z"/><path class="d" d="M6.82,5.78s-.06-.04-.09-.06l.22,.33c-.05-.08-.1-.17-.13-.27Z"/><polygon class="d" points="6.77 5.65 6.82 5.78 6.85 5.8 6.77 5.65"/><path class="d" d="M3.53,4.45c.16-.01,.2,0,.22,0,.09,0,.13-.01,.13-.02l-.35,.02Z"/><path class="d" d="M3.63,4.42h.02s.05-.01-.02,0Z"/><polygon class="d" points="4.13 4.49 4.13 4.49 4.13 4.49 4.13 4.49"/><path class="d" d="M3.95,4.42c.08-.01-.02-.02-.16,0,.04,0,.08,.01,.08,.01,.06,0,.1,0,.08,0Z"/><path class="d" d="M3.88,4.45h0Z"/><path class="d" d="M3.54,4.44h-.02c-.09,.02-.05,0,.02,0Z"/><path class="d" d="M3.54,4.44l.26-.02s-.08,0-.14,0l-.12,.02Z"/><path class="d" d="M6.32,5.34c-.36-.17-.68-.37-.24-.36-.13-.09-.52-.18-.97-.27-.22-.05-.46-.1-.68-.15l-.32-.08h.02s.15,.05,.24,.08c.2,.08,.5,.08,.84,.2,.17,.14-.16,.03-.36-.02,.48,.13,.63,.36,1.29,.66-.06-.08-.12-.15-.18-.22,.11,.04,.25,.15,.37,.15Z"/><path class="d" d="M4.01,4.47h.06l.05,.02s-.08-.02-.12-.03h0Z"/><path class="d" d="M3.82,4.45c.42,.02,.6,.07,1.07,.1-.02-.06-.36-.06-.54-.09,.11,.05-.24-.01-.48,0h-.11s.05,0,.06,0h0s-.01,0,0,0h.01c.06,0,0,0,0,0h0c.08,0,.11,0,.18,.02-.04,0-.07,0-.17-.02Z"/><path class="d" d="M5.73,4.39s.05,.05,.06,.08c-.02-.05-.04-.08-.06-.08Z"/><path class="d" d="M5.95,4.56c.02,.06,.11,.21,.06,.19-.1-.09-.12-.17-.21-.28,.04,.11,.13,.29,.3,.42l-.03-.05c.13,.08,.48,.51,.5,.56-.22-.32-.37-.55-.62-.84Z"/><path class="d" d="M4.86,4.26c.07,.02,.15,.05,.22,.08,.12-.03,.25-.06,.37-.09l-.22,.03c.08-.08-.19-.03-.37-.01Z"/><polygon class="d" points="4.14 4.5 4.13 4.49 4.17 4.5 4.14 4.5"/><polygon class="d" points="4.2 4.52 4.2 4.52 4.22 4.52 4.2 4.52"/><path class="d" d="M2.99,2.24l.04-.17c-.03,.07-.04,.12-.04,.17Z"/><path class="d" d="M2.05,3.4l.16,.12c-.06-.12-.12-.19-.16-.12Z"/><path class="d" d="M7.2,5.28c-.08-.14-.16-.31-.15-.29l.02,.05c.05,.1,.09,.18,.13,.24Z"/><path class="d" d="M6.65,5.54l.08,.1c-.05-.14-.11-.27-.16-.39,.03,.09,.06,.18,.08,.28Z"/><path class="d" d="M7.38,7.18c-.11-.05-.22-.11-.32-.17,.08,.07,.18,.13,.32,.17Z"/><path class="d" d="M7.07,6.45c.07,.14,.13,.29,.19,.44,.2-.21-.05-.27-.19-.44Z"/><path class="d" d="M6.38,5.63s.04,0,.06,0c-.03,0-.05,0-.06,0Z"/><path class="d" d="M5.04,4.81l.07,.07s-.08-.07-.07-.07Z"/><path class="d" d="M6.52,5.63h-.08s0,0,.08,0Z"/><path class="d" d="M6.26,5.61s-.05,0-.07-.02c.02,.05,.05,.04,.07,.02Z"/><path class="d" d="M4.02,4.33s-.03,.03-.03,.03c0,.03,0,.03,.03-.03Z"/><path class="d" d="M3.99,4.31s0,0,0,0h0Z"/><path class="d" d="M4.84,5.15s.07,.08,.14,.16l-.14-.16Z"/><path class="d" d="M4.47,5.05h0c-.09-.01-.07,0,0,0Z"/><path class="d" d="M4.03,4.35l-.03-.04,.03,.04Z"/><path class="d" d="M4.02,4.34l.02,.03s0,0-.02-.03Z"/><path class="d" d="M3.96,4.26l.04,.05h0l-.03-.05Z"/><path class="d" d="M2.76,2.66h.04c-.1-.15-.1-.11-.04,0Z"/><path class="d" d="M8.75,1.85s-.02,0-.03,0v.03l.03-.03Z"/><path class="d" d="M9.4,2.27c-.63-.03-.57-.11-.67-.4-.26,.33-.55,.63-.88,.9,.48-.24,1-.41,1.55-.5Z"/><path class="d" d="M4.58,1.31l-.31-.31c.04-.68,.31-.53-.05-1,.17,.66,.01,.73-.21,.86-.21,.12-.42,.24-.16,.87l-.28-.18c.05-.01,.02-.09,.08-.1-.63-.4,.24,.96-.23,1.05-.18,0-.44-.03-.43-.26-.06,.2-.11,.4-.14,.59-.12,.1-.27-.09-.15-.18-.07,.09-.18,.27-.25,.4-.08,.14-.15,.3-.21,.5l-.03-.02c.12,.25,.34,.66,.48,.83-.22,.24-.13-.15-.3-.11,.08,.22,.18,.42,.31,.57-.31,.29-.76-.17-.61-.7-.72,.23-.65,.51-.47,.74,.09,.13,.2,.27,.28,.46,.07,.16,.11,.41,.07,.77-.14-.13-.28-.33-.4-.52-.59,.7-.06,1.16-.03,1.9,.04-.14,.08-.57,.22-.95,.14-.37,.4-.58,.68-.44,0,.19,.08,.39,.44,.38-.35,.33-.1,.44,.12,.58l-.43,.48c.37,.07,.53-.23,.82-.38,.19,.2-.02,.64-.15,1.05,.37,.32,.11-.84,.62-.71,.19,.36,.54,.22,.96-.07,.15,.26-.13,.37-.1,.57,.11-.15,.21-.3,.3-.45,.04,.02,0,.17-.03,.25,.19-.17,.14-.62,.38-.76,.08-.34,.13-.08,.26,.18,.12,.26,.34,.48,.46,.08,.09,.18,0,.39,.03,.64,.41-.57,.38-.42,.54-1.19,.12,.11,.26,.21,.41,.3-.38-.37-.29-1.01-.41-1.48-.14-.18-.25-.36-.31-.44,0-.12-.03-.25-.06-.35,.06,.08,.18,.27,.29,.51l-.06-.14c.18,.17,.38,.48,.5,.82-.1-.09-.19-.19-.28-.29,.14,.37,.25,.79,.42,1.12,0-.08,0-.15,.04-.21,.03,.11,.06,.2,.1,.25,.04,.05,.02-.1,0-.27,.14,.19,.29,.38,.45,.56l-.13-.25c.25,.03,.5,0,.78-.04-.14-.88-.88-1.7-1.06-2.06,.45,.27,.78,.35,1.36,.57-.33-.05-.31,.06-.24,.23,.06,.17,.14,.42-.01,.52,.15-.1,.38,.09,.44,.19-.03-.3-.11-.58-.22-.82,.45,.22,.4,.05,.65-.03-.97-.25-.51-.58-.78-.81,.33,.06,.67,.16,.52,.39,.82-.13-1.08-.56-.41-.66,0,.05-.05,.07,.11,.11-.27-.16-.02-.39,.27-.31v.05c.07-.16,.1-.4-.06-.72-.08-.14-.19-.26-.33-.32-.14-.07-.35-.11-.55-.04,.1-.05,.99-.27,1.18-.27-.53-.08-1.05-.04-1.51,.11-.23,.08-.44,.17-.65,.31-.1,.07-.2,.14-.28,.23-.08,.08-.02,.02-.03,.03,0,0,0,0,0,0l.25-.29c.18-.21,.36-.44,.54-.67,.35-.45,.71-.89,1.16-.71-.07-.23-.28-.62-.83-.61,.12,.16-.27,1.08-.41,1.05,.05-.43-.01-.56-.06-.68-.07-.12-.12-.23-.41-.63,.1,.09,.04,.42-.05,.7-.09,.29-.16,.57-.23,.56,.03-.17-.02-1.13,.08-1.25-.23,.37-.37,.77-.43,1.15,.07-.21-.15-.95-.33-1.23,.1,.2-.42,.09-.51,.25,.1,.06,.19,.12,.28,.18-.58,.02,.25,1.62,0,1.67-.1-.21-.64-1.28-.89-1.3,.12,.27,.42,.9,.75,1.5,.32,.6,.68,1.15,.79,1.36l-.24-.23c.06,.12,.12,.23,.18,.34-.28-.33-.69-.86-1.03-1.44-.35-.57-.59-1.17-.69-1.54-.27-.13-.26-.29-.43-.13-.26-.19-.18-.45-.12-.51-.21,.06-.41,.13-.59,.21,.46,.49,.15,.78,.57,1.16-.04-.28-.06-.57-.07-.88,.42,.52,1.02,1.64,.78,1.72-.24-.13-.83-.87-.99-1.02,.13,.2,.11,.54-.03,.45l-.18-.35c-.33,0,.48,.79-.15,.58-.07,.03-.85-.29-.53-.05,.72,.3,2.65,1.69,3.1,2.04-.04-.03-.72-.26-1.08-.38-.57-.2-1.18-.83-1.67-1.02,.16,.1,.32,.27,.38,.33-.17,0-.49-.3-.49-.1,.6,.33-.2,.29,.48,.33,.11,.22-.2,.09-.25,.28,.42,.12,1.36,.67,1.53,.79-.17-.05-.39-.09-.49-.1-.13,.2-.43,.31-.46,.58-.16,.02-.35,.17-.65,.12,.12,.05,.36,.07,.38,.16-.57,.26-.11-.22-.8,0,.4,0,.56,.23,.84,.3,.58-.16,.08-.28-.18-.42,.85-.02,1.73,.08,2.13,.02,.22,0-.51,.19-.39,.16-.03,.08,.12,.07,.29,0l-1.39-.58c-.07-.4-.3-.94-.07-.6,.29,.46,.49,.95,.68,1.29-.04,.25-.33-.23-.39-.18l.19,.2c.03,.15,0,.28-.06,.26l.1,.04s.02-.03,.04-.05c-.04,.02-.07,.05-.09,.07l-.04-.02c.26,.24,.51-.19,.95-.03-.06-.18-.12-.37-.29-.52v.11c-.32-.31-.29-.55-.47-.66-.13-.29-.45-.64-.25-.5l.47,.39c-.14-.11-.3-.2-.19-.06-.19-.18,.73,.42,.12-.1-.12-.07-.25-.14-.37-.22-.06-.05-.13-.12-.21-.18-.06-.05-.22-.16-.17-.12,.02,.01,.01,0,.01,0h0s-.07-.05-.03-.02c-.04-.03-.05-.04-.11-.1,0,0,.02,.02-.03-.03h-.01v-.02h0s0,0,0,0l.03,.03h0l.05,.05,.07,.09c.04,.05,.07,.09,.09,.13,.05,.07,.06,.13,.12,.23-.07-.07-.13-.19-.26-.36,.06,.1,.13,.21,.18,.31l-.32-.48-.12-.2c-.04-.07-.08-.14-.04-.07-.03-.04-.07-.11-.07-.12l-.09-.17c-.04-.09-.02-.06,.01,.03-.04-.09,.16,.47,.04,.14l.02,.08,2.66,1.57h-.01s-.09,.04-.03,.02c.05-.01,.08,0,.13,0,.06,0,.13,0,.22,.02h.02s.28,.06,.3,.08c.07,.02,.48,.19,.54,.25l-.44-.26s-.07-.09-.21-.25l-.36-.27c-.25-.28,.35,.08,.35,.01,.12,.13,.07,.1,0,.04,.39,.32,.27,.19,.16,0-.12-.2-.22-.42,0-.14-.08-.14-.04-.11,.02-.01v.02h.02l.06,.11s.05,.1,.02,.05c.03,.05-.03-.05-.04-.07l-.05-.08-.08-.16,.05,.11h0v-.04l-.02-.03-.04-.09h0v.03l-.04-.1-.1-.28c.04,.09,.07,.16,.08,.19l-.03-.05-.05-.12c-.03-.09-.06-.18-.08-.25-.03-.14-.13-.55-.07-.63,0,0,0-.04,0,.02,.02-.13,0-.12,.02-.19v-.03c.05-.07,.02-.01,.01,0-.02,.02-.03,.01-.01,0-.02,.02,0-.01-.04,.02-.04,.03-.07,.05-.1,.07-.06,.03-.11,.06-.24,.08h.01s-.03,0-.1,.02c-.04,.01-.15,.04-.12,.04,.09-.01,.14,0-.02,.02-.19,.03-.29,.04-.34,.03-.05,.02-.07,.08-.08,.12,0,.05-.03,.08-.08,.1-.03,.01-.07,0-.11,0-.01,0-.08-.02-.05-.01,.04,.01,.08,.03,.1,.04-.09-.03,.18,.07,.16,.06l-.1-.04c.06,.02,.12,.06,.13,.07,.03,.02,.05,.03,.01,0,.06,.03,.11,.06,.14,.09,.01,0,.03,.02,.05,.04,0,0-.01-.01,0,0,0,0,.01,.01,0,0,0,0,0,0,0,0h0s-.01-.02,.01,.02l.08,.12-.11-.17v-.02s.07,.15,.16,.38c-.11-.21-.26-.57-.18-.4-.02-.03-.03-.07-.06-.15-.01-.03-.02-.09-.02-.08l.05,.31c-.03-.16-.03-.04-.03,.03-.05-.04-.05-.09-.11-.03v.11c-.06,.76-.07,.17-.14,.25v-.08c0-.57-.13,.24-.07-.4l-.15,.46c-.17,.49-.18,.33-.13,.09,.04-.24,.15-.52,.03-.37l-.11,.25c-.1,.14,.02-.19,.25-.53,.18-.27,.08-.12,.06-.1l-.08,.1s.03-.05,.06-.08c-.26,.31-.02,.05-.24,.27-.04,.04,.05-.05-.09,.09-.05,.03-.14,.12-.28,.18-.1,.06-.2,.06-.2,.06,0,0,0,0,0,0,0,0,0,0,.01,0,.03,0,.06,.02,.08,.04,.12,.05,.16,.12,.27,.21l.03,.03c.07,.07,.16,.19,.3,.37,.1,.14,.02,.04-.01-.03-.04-.07-.07-.15-.13-.25,.44,.71,.3,.54,.31,.31-.02-.23,0-.48,.23,.25l.13-.11L3.74,3.13h0l-.15-.04c-.11,.01,.23,.14,.55,.33-.1-.03-.23-.1-.3-.13-.32-.07-.2-.13,.36,.4l-.38-.32s.14,.16,.1,.13h0s-.03-.06-.04-.18v-.25s0-.04,0-.02l-.02,.29c-.02,.14-.05,.3-.11,.43,.12,.16-.13,.78-.1,1.08-.13,.09-.12-.57-.01-.65v.09c.17-.83-.06-.45,.02-.84l1.03,1.6,.14,.02c0-.25,.57-.27,.7-.37l-.62-.38s.06-.04,.09-.06c.15,.08,.48,.32,.42,.34,.35,.23-.23-.27-.34-.38,.3,.09,.64,.56,.68,.54l-.02-.06-.07-.05c-.21-.21-.45-.42-.37-.46,.14,.07,.34,.29,.37,.3,.04,.04,.06,.05,.03,0,.03,0,.06-.01,.1,0l-.42-.4c-.16-.24,.11-.05-.37-.5,.72,.69,.58,.03,.78,.28-.13-.41-.04-.43,.04-.41-.05-.11-.28-.72-.15-.68,.31,1.2,.3,.63,.43,1.3L3.89,1.81l-.18-.03c.63,.08,.13,.13,1.02,.32-.12,.02-.48-.13-.79-.2,.24,.11,.14,.13,.02,.07-.06-.03,0,0,.04,.02,.04,.02,.07,.05,.11,.08,.07,.05,.15,.11,.22,.19,0,0-.04-.04,.02,.02,.04,.04,.09,.1,.13,.16,.04,.06,.05,.04,.1,.17,0-.02-.02-.05,0,0,.08,.12,.07,.3,.07,.29,0,.03,0-.03,.02-.04,.04-.08,.06-.07,.15-.18,.08-.07,.17-.12,.31-.21,.06-.04,.13-.06,.2-.09,.08-.03,.03-.02,.06-.04,.04-.02,.18-.14,.47-.21l-2.01,.52c.04,.14,.04,.23,.07,.44l.02,.28,.03,.37-.04-.53c0-.06,0-.05,0,.01,0,.09,.05,.56,.06,1.11l-.02-.67c.04,.22,.11,.44,.2,.66,.03-.66,.41-.04,.42-.68l-.11,.12c.1-.75-.22-1.66-.17-2.62-.06,.39-.13,.15-.22-.1-.13-.24-.17-.55-.66-.13l-1.77,1.51,.62,.19c.06,.02,.14,.04,.25,.05-.18,.1-.32-.01-.53,.06,.42,.03,.52,.1,.38,.33h-.1c.13,.29,.11,.5,.16,.84,.02,.16,.02,.33,.11,.56,.08,.22,.19,.47,.48,.75,.06-.15,.12-.3,.19-.44,.18,.21,.16,.37,.26,.54,.33-.25,.11-.34-.04-.46-.15-.12-.27-.26,.07-.49-.2,.47,.28,.79,.79,.87,.52,.11,.95,.02,1.23,.5,.43-.14-.28-.48,.11-.61l.22,.23-.09-.39c.21-.04,.52,.2,.67,.4-.07,.01-.12,.16-.18,.21,.55,.11,.69-.66,.82-.63-.11,.03-.25,.07-.37,.1,.28-.42,.55-.74,.75-1.11,.18-.35,.27-.74,.06-1.1l-.23-.02c-.2-.32-.01-.33,.12-.44l.52-.44L5.62,.56c-.08-.05-.18-.07-.33,.03v-.06c-.04,.23-.12,.38-.24,.38,.04-.29-.37-.42-.3-.74-.3,.58-.13,.42-.04,1.28l-.21-.31c.07,.34,.14,.5,.03,.67-.02-.35-.39-.43-.43-.89-.4-.24-.47,.04-.48,.25-.02,.21-.03,.35-.48-.04,.49,.92,.65,.22,.7,.46,.26,.23,.33,.7,.2,.69-.09,.05-1.02-.87-1.28-.58,.03-.02-.02-.08,0-.1-.29-.08,.08,.43-.35,.28,.42,.46-.17,.15,.44,.66,.01-.12,.03-.23,.05-.35,.03,.28,.69,.94,.18,.88-.12-.11-.25-.29-.31-.4-.24-.07,.04,.22-.21,.15-.65-.46,.07-.41-.28-.94-.33-.12,.22,.66-.41,.07,.8,.75-.34,.25,.23,.91l-.4-.25c.04,.08,.2,.26,.15,.32l-.47-.42c.36,.43-.62,.18-.45,.52,.18-.44,.56,.14,.95,.12,.39,.7-1.27-.24-1.28,.51-.04-.12,.38-.24,.54-.04-.13,.08-.35,.19-.61,.21-.02,.47,.49,.05,.73,.3-.6,.01,.19,.26,.34,.44l-.48-.07s-.05,.07-.06,.1l-.5,1.52,2.03,.86c.31,.13,.32-.96,.6-.55-.1,.21-.21,.41-.32,.61l.27-.12-.15,.53c.36-.35,.4-.24,.7-.06-.05-.34,.08-.87,.29-.89,.17,.28-.08,.47,.27,.37-.05,.31-.14,.7-.32,.25-.01,.16-.08,.3-.11,.46,.21,.34,.56,.05,.72,.02-.06,0-.14-.03-.18-.09,.18-.24,.34-.5,.46-.76,.13,.15,.11,.31,.07,.47,.11-.08,.13-.32,.28-.42,.09,.38,.25,.76,0,1.03,.19-.21,.35-.42,.49-.64,.1,.14,.53,.26,.51,.43,.24,0,.37-.3,.46-.6,.1-.3,.15-.58,.41-.64-.04-.07-.06-.15-.04-.26,.32-.23,.95-.32,.67-.95,.25,.03,.49,.06,.74,.07-.02-.37-.93-.07-.98-.64-.11-.38,.61,.08,.83,.03l-.22-.22L4.82,1.09c-.06,.37-.12,.73-.44,.36,.04-.15,.13-.07,.19-.14ZM2.43,6.07c-.08-.03-.22-.07-.32-.13-.1-.08-.15-.2-.04-.3,.58-.03,.38,.16,.36,.43Zm5.05,.02c.07,.15-.05,.15-.22,.04,.02-.07,.08-.09,.22-.04Zm-3.6-1.86v.02c-.08-.16-.05-.1,0-.02Zm.12,.17l-.1-.17c.06,.11,.06,.12,.04,.09,.06,.11,.11,.18,.06,.08Zm1.54,0l-.1-.08c-.07-.12,0-.03,.1,.08Z"/><path class="d" d="M7.3,6.99c-.06-.06-.1-.14-.14-.22,0,.08,.05,.17,.14,.22Z"/><path class="d" d="M7.04,6.37h-.01s.03,.06,.05,.08l-.04-.08Z"/><path class="d" d="M3.05,3.5c.09-.02,.18,0,.27,.03-.1-.06-.2-.09-.27-.03Z"/><path class="d" d="M4.19,4.51l-.03-.03,.03,.02s0,0,0,0Z"/><path class="d" d="M6.13,4.8c-.06-.02,0-.03-.06-.06l-.22-.03c0,.06,.18,.14,.28,.08Z"/><path class="d" d="M4.68,4.83c.34,.22,.25,.12,.19,.06,0,0,0,0,0,0-.5-.28-.33-.18-.19-.06Z"/><path class="d" d="M4.86,4.87s-.02-.03,0-.03c-.2-.1-.05-.01,0,.03Z"/><path class="d" d="M3.9,4.19l.02,.03s-.11-.16-.02-.03Z"/><polygon class="d" points="5.83 5.51 5.39 5.26 5.71 5.51 5.83 5.51"/><path class="d" d="M5.2,5.68c.06,.01,.11,.02,.17,.03-.06-.06-.09-.1-.1-.14-.05,.03-.17,0-.07,.11Z"/><path class="d" d="M5.27,5.57s.04-.04,0-.11c0,.02-.02,.05,0,.11Z"/><polygon class="d" points="5.86 5.74 5.75 5.7 5.67 5.74 5.86 5.74"/><path class="d" d="M4.97,6.01c-.06-.02-.12-.04-.17-.07-.17,.02-.27,.08-.19,.1,.13,0,.2,.02,.36-.04Z"/><path class="d" d="M5.02,7.26c-.08-.08-.12-.18-.2-.33l.21,.58v-.25Z"/><path class="d" d="M3.51,6.43c-.17,.04-.57-.19-.45,.08,.17-.01,.37,.14,.45-.08Z"/><polygon class="d" points="4.66 4.13 4.64 4.17 5.51 4.7 4.66 4.13"/><path class="d" d="M4.95,.67c-.42-.06,.22,.59-.18,.46,.06,.24,.32,.11,.36,.33,.03-.31,.2-.22-.18-.79Z"/><path class="d" d="M5.13,1.46s0,.1,0,.18c.01-.08,0-.13,0-.18Z"/><polygon class="d" points="4.41 4.89 4.59 5.09 4.47 4.76 4.41 4.89"/><path class="d" d="M4.68,4.12l.08,.64,.04-.6s-.09,.1-.12-.04Z"/><path class="d" d="M2.09,7.69l.13-.1c.07-.17,.03-.21-.07-.36l-.05,.46Z"/><path class="d" d="M2.9,1.52l-.07,.03c.15,.14,.29,.27,.43,.42l-.36-.45Z"/><path class="d" d="M8.97,5.08c.06-.1-.02-.26,.04-.36,.02,.27-.73,.14-.04,.36Z"/></g><g><path class="d" d="M47.68,2.41s.02-.38,.03-.46c-.07,.09-.02,.57-.03,.46Z"/><polygon class="d" points="46.93 3.36 46.95 3.19 46.83 3.61 46.93 3.36"/><path class="d" d="M46.22,3.36c.06,.71,.26-.12,.39,.14l.02,.16,.06-.57c-.15,.09-.36,.47-.47,.27Z"/><path class="d" d="M45.87,1.81c.02,.28-.09,.24,.09,.09v-.07s-.05,0-.09-.02Z"/><path class="d" d="M45.94,1.83c.07-.02-.04-.23,0,0h0Z"/><path class="d" d="M45.59,1.97l.1-.24c-.02-.16-.1-.21-.07-.32-.1,.13-.09,.3-.04,.57Z"/><path class="d" d="M45.48,2.49l.05-.1c0-.07-.02-.09-.05,.1Z"/><path class="d" d="M45.65,2.17l-.11,.22c.01,.12,0,.35,.05-.08-.01,.21,.01,0,.06-.14Z"/><path class="d" d="M45.71,2.28c.05,.16,.12,.26,.02,.5,.19-.09,.17-.59-.02-.5Z"/><path class="d" d="M46.17,4.09l.07,.21,.07-.24c-.03,.12-.14-.19-.14,.03Z"/><path class="d" d="M45,1.58c-.01,.15,.02,.41,.02,.6l.08-.17c-.03-.11-.1-.2-.1-.43Z"/><path class="d" d="M45.02,2.18l-.12,.26c.1,.03,.12-.09,.12-.26Z"/><polygon class="d" points="45.44 3.28 45.64 2.74 45.41 3.29 45.44 3.28"/><polygon class="d" points="44.59 1.55 44.67 1.2 44.53 1.72 44.59 1.55"/><path class="d" d="M44.31,1.6c.06-.29-.04-.49,.02-.67-.08,.05-.15,.3-.22,.52,.07-.12,.13-.09,.2,.15Z"/><path class="d" d="M44,1.77c.03-.07,.07-.19,.11-.32-.04,.07-.07,.16-.11,.32Z"/><path class="d" d="M44.71,2.36c0-.09-.01-.33-.07-.44l.02,.43h.04Z"/><path class="d" d="M44.67,2.36h0l-.09-.04,.09,.04Z"/><path class="d" d="M44.72,2.36h-.01s0,.05,.01,0Z"/><path class="d" d="M45.17,2.89c-.07,.24-.22,.49-.1,.86,.06-.29-.01-.5,.1-.86Z"/><path class="d" d="M44.76,2.89l.11,.1c0-.11-.01-.28,.02-.4l-.14,.29Z"/><polygon class="d" points="44.69 3.03 44.76 2.89 44.71 2.86 44.69 3.03"/><path class="d" d="M44.18,2.18c-.06,.18-.12,.2-.18,.22,.06,.09,.13,.14,.19,.14,.02-.13,.06-.37-.01-.36Z"/><path class="d" d="M44.41,2.3v.02s0,.05,0-.02Z"/><path class="d" d="M43.38,2.35v0h0Z"/><path class="d" d="M44.2,2.62c.05,.08,.08-.02,.12-.15-.04,.04-.08,.07-.12,.07,0,.06-.01,.1,0,.08Z"/><path class="d" d="M43.82,1.95c.02,.09,.05,.17,.07,.24-.02-.14-.06-.35-.07-.24Z"/><path class="d" d="M44.39,2.21v-.02c0-.09,0-.05,0,.02Z"/><path class="d" d="M44.39,2.21c-.03,.06-.05,.17-.08,.26,.03-.03,.06-.08,.09-.14v-.12Z"/><path class="d" d="M43.02,5.08c.04-.39,.19-.75,.29-.32,.13-.29,.14-1.59,.09-2.33-.01,.17-.02,.33-.16,.56,.03,.22,.23,.52,.11,.87-.17,.19-.12-.15-.18-.36,.03,.5-.25,.7-.26,1.43l.16-.25c0,.11-.07,.29-.04,.39Z"/><path class="d" d="M43.61,2.49l.05-.05c-.05-.07-.08-.23-.13-.55-.09,.19-.12,.33-.13,.46l.23,.07-.02,.06Z"/><path class="d" d="M43.87,2.45c-.06,.43-.19,.6-.14,1.07,.14-.02,.12-.35,.21-.53-.23,.09,.08-.24-.07-.49,.05-.07,.09-.09,.13-.11-.04-.05-.07-.12-.11-.2v.03h0c0,.06,0,.09,0,.06h0l-.02,.17c-.06-.09,0-.11,.02-.16v-.06h0l-.24,.21c.04,.06,.1,.05,.21,.01Z"/><path class="d" d="M44.91,4.66s0-.07,0-.1c-.02,.05-.02,.09,0,.1Z"/><path class="d" d="M44.83,4.4c.02-.06,.04-.23,.09-.18,.04,.13,0,.21-.01,.35,.04-.11,.13-.3,.03-.52l-.02,.06c-.09-.15-.18-.69-.16-.75,.01,.39,.02,.67,.07,1.05Z"/><path class="d" d="M44.33,3.54l-.2,.2,.08,.38v-.22c.11,.09,.1-.18,.12-.36Z"/><polygon class="d" points="43.38 2.14 43.43 1.69 43.28 2.32 43.38 2.14"/><polygon class="d" points="43.13 2.18 43.17 1.78 43.09 2.02 43.13 2.18"/><path class="d" d="M28.57,5.49l-.07,.11s.05-.07,.07-.11Z"/><path class="d" d="M28.97,5.56l.03-.19c-.03,.1-.05,.18-.03,.19Z"/><path class="d" d="M37.1,1.63c-.04-.38-.06-.96-.1-.51l-.03,.43c.07-.07,.1-.02,.13,.08Z"/><path class="d" d="M32.58,3.68v.13l.11-.4-.11,.27Z"/><path class="d" d="M32.3,5.45l-.07-.29c.01,.1,.04,.2,.07,.29Z"/><path class="d" d="M26.32,5.72l-.11,.43c.1,0,.08-.22,.11-.43Z"/><path class="d" d="M40.62,2.13c-.05-.17-.1-.25-.15-.28,.06,.26,.09,.63,.15,.28Z"/><path class="d" d="M29.24,.93c-.04,.07-.07,.16-.08,.26,.04-.07,.07-.15,.08-.26Z"/><path class="d" d="M40.27,1.84l.03,.1c.06-.07,.11-.12,.17-.09-.04-.19-.1-.31-.2-.02Z"/><path class="d" d="M18.49,5.02l-.02-.05c0,.06,0,.06,.02,.05Z"/><path class="d" d="M15.9,.76s.06-.03,.1-.04c-.02-.03-.05-.02-.1,.04Z"/><path class="d" d="M42.17,1.92c.05-.02,.01-.05,0,0h0Z"/><path class="d" d="M42.28,3.65s-.03,.11-.04,.21c.01-.1,.02-.17,.04-.21Z"/><path class="d" d="M39.47,4.47h0c0,.08,0,.07,0,0Z"/><path class="d" d="M42.23,2.12c-.02-.05-.03-.1-.06-.13,0,.03,.02,.08,.06,.13Z"/><path class="d" d="M42.23,1.92l.04,.04c.01-.07,.01-.12-.04-.04Z"/><path class="d" d="M42.09,1.94s.06,.02,.08,.05c0-.03-.01-.05,0-.07-.02,0-.04,.01-.07,.02Z"/><path class="d" d="M22.74,3.93v-.04c-.07,.18-.05,.15,0,.04Z"/><path class="d" d="M35.17,5.93v0Z"/><path class="d" d="M34.94,6.23c.15-.53,.19-.45,.23-.33l.09-1.25-.32,1.58Z"/><path class="d" d="M27.58,5.51l.09,.4c-.23,.62-.32,.39-.25,.95,.16-1.35,.52-.08,.69-1.43l.06,.29s-.04,.06-.06,.05c.1,.67,.23-.96,.43-.75,.06,.11,.1,.31,.03,.47l.21-.32s0,.26-.04,.23l.27-.08v.04c.05-.21,.18-.53,.23-.66,.04,.2-.05,.14-.05,.31l.18-.31c.02,.36-.14,.68-.23,.62-.02,1.36,.16-.33,.36,.49l-.16,.16c0,.78,.14,.51,.23,1.01,0-.25-.17-1.24,.03-1.56,.03,.11,.08,.16,.2-.1-.06,.48,.04,.37,.15,.36l-.08,.63c.13-.17,.16-.49,.26-.77,.12,.08,.08,.57,.06,.99,.19,.12-.04-.81,.21-.9,.14,.26,.28,.02,.53-.34,.09,.23-.07,.39-.05,.57l.16-.49s0,.17-.02,.25c.11-.19,.08-.63,.24-.79,.12-.69,.15,1.05,.42,.28,.02,.19-.07,.39-.09,.63,.3-.49,.25-.35,.52-1.03l.11,.44c-.06-.49,.16-1.04,.35-1.48l-.04-.54,.26-.31c.01,.11-.04,.32-.1,.58l.06-.15c.05,.24-.04,.61-.14,.95l-.03-.4c-.1,.38-.2,.8-.24,1.17,.02-.07,.06-.13,.09-.16-.03,.1-.05,.2-.05,.26,0,.07,.04-.07,.09-.23l-.04,.71,.05-.28,.22,.48c.29-.69,.59-1.71,.95-1.97-.14,.51-.12,.85-.21,1.46,0-.66-.28,.25-.43,.09,.08,.08,.02,.37-.01,.47l.37-.56c-.07,.5,.01,.38,.06,.6,.07-1,.3-.63,.46-.92-.03,.33-.11,.67-.24,.57,.07,.77,.35-1.14,.43-.49-.04,0-.05-.05-.08,.12,.12-.29,.29-.03,.21,.26h-.04c.22,.15,.72,.1,.86-.74-.02,.11-.17,1.01-.19,1.18l.77-2.79c-.13,.72-.2,2.46-.44,2.85,.04,.11,.1,.24,.25,0-.03-.11,.03-1.06,.09-1.12,.04,.83,.05,.44,.14,1.15-.04-.16,.17-1.29,.25-1.24-.04,.17-.13,1.12-.18,1.24l.36-1.09c-.08,.19-.13,.94-.11,1.27,0-.22,.19,.04,.27-.06l-.07-.27c.24,.2,.44-1.54,.69-1.45-.06,.23-.25,1.41-.13,1.57,.13-.56,.59-2.72,.86-3.13v.33l.22-.35c-.21,.85-.72,2.62-.97,3.31,.07,.27-.02,.39,.13,.38,.01,.31-.13,.46-.18,.47l.31,.24c.06-.67,.33-.64,.39-1.2l-.44,.65c.06-.67,.43-1.87,.65-1.72,.03,.27-.18,1.18-.2,1.41,.06-.23,.28-.41,.28-.25l-.14,.35c.1,.27,.32-.86,.41-.21,.05,.05,.07,.88,.12,.48,0-.77,.24-3.13,.36-3.7,.01,.05,.2,.76,.22,1.14,.02,.61-.29,1.41-.27,1.93,.02-.18,.1-.4,.13-.47,.04,.16-.09,.56,.05,.49,.09-.68,.25,.08,.12-.57,.14-.18,.12,.15,.26,.14,0-.44,.29-1.48,.43-1.66-.03,.17-.02,.4-.02,.5,.24,.09,.35,.41,.58,.44,0,.17,.1,.38,.02,.66,.05-.12,.1-.34,.17-.35,.08,.6-.17,.08-.13,.79,.05-.39,.24-.53,.37-.76,.03-.61-.23-.14-.35,.1,.08-.84,.35-1.7,.62-2.07,.21-.19,.03,.55,.08,.43,.35,.18,.44-1.44,.68-.81,.07,.55-.09,1.07-.09,1.45-.18,.19-.21-.36-.32-.35l.11,.27c-.07,.17-.18,.3-.23,.14,.06,.49,.6,.15,.85,.62,.06-.18,.17-.35,.14-.57l-.09,.07c-.05-.44,.21-.58,.12-.79,.14-.29,.31-.76,.46-.51l-.02,.61c0-.18-.08-.37-.14-.19,.09-.27,.19,.84,.33,.05l-.08-.43c.14-.3,.33-.94,.46-.74-.02-.61-.04,.07-.09-.65,.03,.89-.36-.06-.29,.87-.04-.83-.16-.36-.24-1.07-.01,.2,.02,.39-.09,.28l-.04,.18v0s-.01,.04,0,0c.02,.09,.04,.2,.04,.31-.1,.46-.29,.43-.38,.66-.06-.1,.05-.23,.03-.45l-.13,.35c.03-.45-.13-.76,.06-1.01l-.15-.03c-.07-.26-.18-.37-.28-.19-.06-.1-.23,.48-.13,.13l-.26,.26v-.11c-.22-.08-.55,.7-.74-.14-.09,.11-.19,.23-.31,.09v-.39c-.1,.12-.25-.42-.34-.02,0-1.05-.47-.28-.63-.48l-.06,.5c-.12-.04-.26,.09-.43,.27l-.04,.45c-.18,.35-.31-.35-.53-.33,.03-.17,.08-.12,.11-.01-.14-1.04-.62,.67-.77-.09-.08,.16-.11,.09-.14-.02,0,0,.01,0,.02-.02,0,0-.01,0-.02,0l-.05-.25c.01,.11,.02,.2,.04,.25-.05,0-.12,.05-.2,.15l.03-.48s-.01,0-.02,.01c-.04-.18-.08,.22-.09,.58-.04,.07-.08,.17-.12,.28,.04-.78-.2,.24-.18-.59-.09,.4-.37,.26-.51,1.1,.01-.11,0-.16,.03-.17-.06-.11-.12-.21-.22,.02l.04-.61-.26,.8c-.05-.38-.07-.6,.09-1.06-.32,.69-.22,.25-.51,.93l.06-.39c-.07,0-.25,.52-.26,.19-.07-.77-.78-.2-1.1-.95-.07,1.17-.13-.54-.25,.35,.01-.28-.03-.44,.07-.67-.24,.24-.26-.47-.5,.26,.01-.28,.1-.4,.09-.56-.02,.06-.1,.23-.1,.06,0-.17,.06-.23,.11-.34-.22,.02-.35,.86-.46,1.65-.06-.39-.12-.34-.27,.17,0-.26-.03-.54,.11-.62-.07-.05-.41-.44-.5,.2,0-.16-.1-.06-.13,.01-.16-.06-.17-.12-.34-.08l.03,.11c-.16,.76-.16,.15-.3,.23v-.08c-.23-.59-.15,.25-.38-.42l-.04,.48c-.15,1.02-.19-.64-.42-.27l.03,.28c-.14,.34-.1-1.43-.18-1.56-.01-.09,.05-.14,.09-.2-.18-.63-.11,.62-.31,.74,0-.34,.15-.85,.03-.93-.03-.28-.49,1.05-.59,.38,0,.26,.02,.53-.09,.71-.14,.08-.25-1.02-.47-.22,0-.07,0-.14,0-.21-.13,.2-.37,.31-.48,.75,.08-1.66-.72,.73-.56-.79l-.32,.05,.02-.15c-.19-.12-.3,.24-.41,.6-.04-.11,.01-.25,.02-.33-.27-.33-.3-.27-.62,.46l.02-.5c-.09,.28-.36-.81-.7-.27,0-.06,.02-.15,.05-.22-.38,.55-.68-1.44-.94,.35l-.25,.43c.27,.16-.1,.78-.01,1.09-.12,.1-.24-.56-.1-.65v.09c.14-.93-.31-.36-.25-1-.56,0-1.06-.56-1.59-.62l.02,.73-.18-.05c-.04-.17-.03-.57,.09-.54-.05-.42-.24,.34-.25,.5-.24-.31,.14-.85,.06-.87l-.11,.05,.02,.09c-.1,.29-.12,.61-.28,.57-.09-.15-.03-.45-.07-.48,0-.05,0-.08-.06-.02l-.23-.07,.07,.58c-.11,.28-.21-.04-.13,.62-.11-1.02-.84-.4-.93-.71-.15,.42-.29,.41-.47,.36,.04,.12,.05,.77-.09,.69,.08-1.34-.26-.59-.38-1.55,.1,.64-.43,.15-.27,1.06-.12-.11,0-.5-.1-.82-.3,.51-.67-.34-1.04-.15,0,.18,.06,.44-.01,.71l-.21-.87c-.07,.09-.05,1.02-.19,.41,.02,.15,.06,.37,0,.43-.77-.85-1.44,.75-2.3-.8,.13,.33,.06,.37-.01,.39,.06,.08,.03,.43,.06,.67l-.36-.64c0,.66-.33,.07-.31,.7l.09-.12c-.06,.75,.33,1.64,.39,2.6,.07-.86,.46,1.23,.59,0,.06,.19-.02,.31,.02,.53,.03-.41,.09-.5,.23-.33v.1c.34-.12,.52,.26,.92,.52l-.05-.47c.09,.06,.11,.21,.16,.33,.07-.72-.24-.03-.19-.83,.15,.96,.61,0,.72,1.09,.13,0-.05-.55,.08-.54l.04,.3,.02-.38c.09,.06,.14,.43,.15,.68-.02-.03-.06,.07-.08,.09,.12,.35,.31-.13,.35-.01l-.13-.18c.35-.29,.79,.09,1.14-.5l-.03-.22c.27-.41,.21,.25,.51,.06v.05c.05-.22,.13-.33,.21-.31-.08,.26,.13,.51,.03,.8,.3-.44,.15-.35,.36-1.17l.04,.37c.07-.33,.08-.51,.24-.61-.13,.32,.08,.57-.07,.98,.28,.81,.49-.8,.59,.39,.18-1.02-.25-.58-.16-.8-.06-.34,.15-.76,.24-.65,.1,.03,.12,1.32,.37,1.31-.02,0-.03,.07-.05,.07,.08,.27,.2-.35,.29,.08,.09-.62,.15,.04,.2-.75l-.24,.17c.14-.2,.31-1.12,.5-.66-.03,.16-.1,.37-.15,.48,.05,.24,.13-.15,.18,.09-.06,.79-.29,.16-.46,.76,.05,.34,.29-.56,.18,.29,.16-1.08,.24,.15,.45-.67l-.04,.47c.03-.07,.1-.29,.15-.28l-.12,.61c.17-.52,.23,.47,.38,.2-.27,0-.03-.58-.12-.93,.38-.61,.12,1.25,.51,1.05-.06,.06-.17-.3-.08-.51,.07,.1,.15,.29,.17,.54,.26-.08,0-.49,.12-.77,.04,.58,.14-.23,.26-.4l-.03,.48c.26,.33,.15-1,.38-.6l-.16,.66,.15-.16-.07,.55c.18-.4,.21-.29,.34-.12,0-.34,.09-.87,.22-.88,.06,.29-.09,.45,.1,.4-.07,.3-.14,.67-.18,.22l-.09,.45c.07,.34,.23,.09,.29,.09-.02-.02-.05-.05-.06-.12l.32-.64c.03,.18-.02,.33-.06,.47,.06-.05,.11-.26,.19-.3-.05,.39-.09,.79-.21,.97l.29-.41c0,.17,.09,.48,.04,.62,.12,.24,.41-.73,.56-.41,.02-.07,.04-.15,.09-.2,.16,.1,.27,.6,.52,.08l.04,.71c.17-.14-.07-.9,.22-1.13,.21-.21,0,.6,.05,.8,.13-.34,.37-1.04,.48-.45-.07,.13-.11,.02-.16,.06Zm2.01-.09c-.05,.1-.16,.4-.16,.11,.11-.54,.11-.28,.16-.11Zm3.17-.78c-.05,.15-.08,.07-.11-.12,.04-.03,.08-.01,.11,.12Zm8.81-2.38v.02c-.07-.2-.05-.12,0-.02Zm.16,.22c.02-.07,.03-.13,.03-.2-.02,.12-.06,.13-.11,.09,0,.13,.02,.22,.08,.11ZM22.32,.66l.03,.13c-.09,.14-.06,.01-.03-.13Z"/><path class="d" d="M32.33,5.25c0-.08,0-.17,.02-.26-.03,.08-.04,.17-.02,.26Z"/><polygon class="d" points="26.34 5.64 26.33 5.63 26.32 5.72 26.34 5.64"/><path class="d" d="M38.54,6.28c-.03-.07-.04-.16-.05-.26-.01,.12,0,.22,.05,.26Z"/><path class="d" d="M42.72,1.74l-.12,.12c.06-.02,.07,.09,.09,.16,0-.11,0-.28,.03-.28Z"/><path class="d" d="M43.5,4.79c.02-.06,.04,0,.06-.06v-.22c-.06,0-.13,.19-.06,.29Z"/><path class="d" d="M42.7,3.35c-.02,.41,.06,.27,.15,.2,0,0,0,0-.01,0,.06-.56-.03-.38-.13-.2Z"/><path class="d" d="M42.87,3.54s.05-.03,.07,0c.02-.23-.03-.05-.07,0Z"/><path class="d" d="M41.97,2.24c.03,.11,.07-.52,.07-.35,.08-.51-.3,.6-.07,.35Z"/><polygon class="d" points="42.67 4.68 42.68 4.18 42.6 4.58 42.67 4.68"/><path class="d" d="M42.06,4.27l.12,.15c0-.08,.02-.13,.05-.17-.08-.02-.16-.13-.17,.02Z"/><path class="d" d="M42.23,4.25s.08,0,.11-.08c-.02,0-.07,.02-.11,.08Z"/><polygon class="d" points="42.48 4.82 42.45 4.72 42.37 4.67 42.48 4.82"/><path class="d" d="M40.69,4.05l-.15,.13c-.03,.17,0,.28,.06,.21,.04-.12,.1-.18,.1-.34Z"/><path class="d" d="M40.99,5.46c-.03-.11-.02-.22-.03-.39l-.06,.62,.09-.23Z"/><path class="d" d="M40.56,5.56c-.03,.17-.25,.47-.07,.45,.03-.17,.19-.3,.07-.45Z"/><polygon class="d" points="38.51 4.56 38.55 4.56 38.65 3.55 38.51 4.56"/><path class="d" d="M36.35,6.77c.14,.26,.11-.62,.23-.3,.07-.23-.09-.26-.03-.46-.13,.24-.17,.09-.2,.76Z"/><path class="d" d="M36.55,6.01s.04-.08,.07-.15c-.04,.06-.06,.11-.07,.15Z"/><polygon class="d" points="15.44 .25 15.31 .04 15.41 .38 15.44 .25"/><path class="d" d="M15.29,1.02l-.09-.64V.96s.05-.09,.09,.05Z"/><path class="d" d="M29.74,6.75l.03-.15c0-.17-.02-.19-.07-.22l.04,.37Z"/><polygon class="d" points="28.36 6.11 28.39 6.12 28.4 5.53 28.36 6.11"/><path class="d" d="M27.09,6.72s.12-.1,.16-.07c-.12,.09-.1-.66-.16,.07Z"/></g><g><path class="d" d="M7.96,16.17s0-.38,0-.46c-.02,.09,0,.57,0,.46Z"/><path class="d" d="M7.56,17.09l.04-.17c-.04,.13-.09,.27-.14,.4l.1-.23Z"/><path class="d" d="M7.24,16.99c-.23,.67,.15-.06,.12,.19l-.03,.16,.17-.55c-.07,.08-.29,.4-.26,.2Z"/><path class="d" d="M7.6,16.1s-.03,.05,.03-.05h0l-.02,.05Z"/><path class="d" d="M7.62,16.06s-.01,.03,0,0h0Z"/><path class="d" d="M7.51,16.23l.03-.04s-.03,.05-.02,.03c-.04,.05-.03,.04,0,.01Z"/><path class="d" d="M7.48,16.27v0Z"/><path class="d" d="M7.53,16.2l-.04,.05s0,0,.02-.02c0,0,0,0,.02-.03Z"/><path class="d" d="M7.55,16.17c.05-.08-.03,.06-.17,.26,.04-.03,.12-.16,.18-.27,.04-.08,.04-.06,.02-.04l-.04,.06Z"/><path class="d" d="M6.93,17.66l-.03,.21,.13-.21c-.07,.1-.01-.21-.1,0Z"/><path class="d" d="M7.38,16.38h0Z"/><path class="d" d="M7.38,16.38h0Z"/><path class="d" d="M7.04,16.81c.13-.13,.25-.27,.36-.42-.11,.15-.24,.29-.37,.42h.01Z"/><polygon class="d" points="7.38 16.38 7.37 16.39 7.39 16.37 7.38 16.38"/><path class="d" d="M7.46,16.35s.02,0,0,0l.09-.03-.1,.03Z"/><path class="d" d="M7.61,16.3h0Z"/><polygon class="d" points="7.37 16.39 7.37 16.39 7.37 16.39 7.37 16.39"/><path class="d" d="M7.37,16.39h0Z"/><path class="d" d="M7.37,16.39h0Z"/><path class="d" d="M7.26,16.49c-.17,.17-.41,.3-.64,.57,.23-.19,.37-.34,.64-.57Z"/><path class="d" d="M7.22,16.48l-.07,.07,.22-.16-.14,.1Z"/><polygon class="d" points="7.11 16.55 7.22 16.48 7.25 16.46 7.11 16.55"/><path class="d" d="M7.5,16.33l.09-.03-.1,.03s-.01,0,.01,0Z"/><path class="d" d="M7.41,16.37h0Z"/><path class="d" d="M4.01,18.79l.05-.06-.05,.05h0Z"/><path class="d" d="M7.44,16.35s-.03,.01,0,0c.03-.01,0,0,0,0l.04-.02s-.08,.03-.04,.01Z"/><path class="d" d="M3.69,19.09l.14-.19c-.08,.11-.2,.28-.14,.19Z"/><path class="d" d="M7.41,16.36h0s0,0,0,0Z"/><path class="d" d="M7.41,16.36h0Z"/><path class="d" d="M6.08,16.99c-.31,.25-.64,.43-.42,.06-.28,.14-1.09,1.17-1.6,1.69,.12-.12,.23-.24,.43-.37,.16-.15,.27-.44,.56-.66,.22-.08-.04,.16-.17,.32,.33-.37,.62-.38,1.17-.85l-.28,.07c.08-.08,.25-.16,.3-.26Z"/><path class="d" d="M4.06,18.68l-.04,.03c-.03,.06-.13,.19-.34,.42l.33-.34v-.07l.05-.04Z"/><path class="d" d="M3.98,18.68c.26-.35,.41-.46,.67-.84-.04-.01-.1,.05-.17,.14l2.25-1.48,.33-.06s-.02,0-.02,0l-2.74,1.8s-.03,.06-.08,.12l2.96-1.95,.3-.07-3.43,2.26-.03,.05-.03,.03,3.59-2.37c.05-.01,.04,0,.01,0h.05l-3.78,2.55-.02,.04,.02-.02h0s.05-.08,.03-.05h0l.1-.14c-.04,.08-.07,.09-.1,.13l-.04,.05h0c.05-.05,.11-.1,.17-.16,.03-.05,0-.05-.04-.03Z"/><path class="d" d="M5.87,17.61s.05-.05,.07-.07c-.05,.02-.08,.04-.07,.07Z"/><path class="d" d="M6.03,17.39c.06-.03,.2-.12,.18-.07-.08,.11-.16,.13-.27,.22,.11-.05,.28-.14,.41-.32l-.05,.03c.07-.14,.49-.48,.55-.51-.32,.23-.54,.39-.82,.65Z"/><path class="d" d="M6.6,16.72c-.07,0-.15,0-.22,0-.11,.05-.22,.11-.33,.18l.21-.08c-.06,.09,.19-.03,.35-.1Z"/><polygon class="d" points="3.86 18.95 3.69 19.12 4 18.82 3.86 18.95"/><path class="d" d="M3.91,18.92l-.07,.06,.05-.04s-.04,.03,.02-.02Z"/><path class="d" d="M2.53,16.68v-.15c-.02,.06-.01,.11,0,.15Z"/><path class="d" d="M1.98,17.27l.15,.13c-.07-.1-.12-.16-.15-.13Z"/><path class="d" d="M6.69,19.6v0Z"/><path class="d" d="M5.56,20.09l.09,.1-.19-.37c.03,.08,.07,.17,.1,.27Z"/><path class="d" d="M6.43,21.67c-.1-.05-.21-.1-.3-.15,.08,.07,.18,.12,.3,.15Z"/><path class="d" d="M6.23,14.8c.08-.14,.16-.28,.25-.42-.33-.04-.2,.2-.25,.42Z"/><path class="d" d="M5.26,17.49c-.04-.17-.06-.3-.07-.42,.02,.2,.06,.37,.07,.42Z"/><path class="d" d="M5.63,19.83l.04,.04-.1-.09,.07,.06s-.01-.01,0,0Z"/><path class="d" d="M5.15,16.53v.11c.03,.17,.02,.27,.03,.43,0-.14-.01-.32-.03-.54Z"/><path class="d" d="M2.34,16.13s.04,0,.06,.01c-.04-.05-.05-.04-.06-.01Z"/><path class="d" d="M5.49,17.43s-.03,0-.1,.04c.03-.02,.09-.04,.1-.04Z"/><path class="d" d="M5.04,18.35c-.08,.02-.01,0,0,0h0Z"/><path class="d" d="M5.26,18.23l.2-.07-.2,.07Z"/><path class="d" d="M4.95,18.87h0c-.09,0-.07,0,0,0Z"/><path class="d" d="M4.92,18.38l.1-.03-.1,.03Z"/><path class="d" d="M4.94,18.38l-.06,.02s0,0,.06-.02Z"/><path class="d" d="M5.14,18.33l-.12,.02h.02l.11-.02Z"/><path class="d" d="M6.16,21.2l-.02-.04c-.05,.19-.02,.16,.02,.04Z"/><path class="d" d="M8.84,18.63h0Z"/><path class="d" d="M9.06,18.98c-.46-.29-.39-.32-.25-.36l-1.21-.34c.49,.22,.98,.46,1.46,.7Z"/><path class="d" d="M3.8,15.62c-.12-.08-.25-.16-.38-.24-.04-.7,.29-.62-.18-1,.27,.62,.08,.76-.11,.91-.19,.15-.37,.33,.01,.89l-.29-.14s0-.08,.05-.1c-.64-.34,.42,.91,.05,.98-.16,0-.37-.07-.42-.25,0,.14,.01,.31,.03,.46-.08,.05-.25-.12-.16-.17-.08,.16-.16,.3-.23,.46l-.03-.03,.41,.65c-.23,.02-.1-.12-.26-.18,.05,.14,.1,.27,.16,.4-.38-.02-.58-.4-.42-.58-.67-.2-.64-.06-.55,.11,.08,.2,.22,.44-.27,.78-.02-.15-.04-.31-.05-.47-.82,.08-.7,.48-1.16,1.29,.12-.1,.43-.49,.77-.66,.34-.16,.68-.15,.8,.1-.12,.13-.18,.36,.11,.63-.48,.03-.37,.34-.21,.69l-.62,.15c.33,.42,.63,.25,.98,.34,.13,.37-.22,.69-.48,1.04,.2,.33,.27,.09,.38-.13,.11-.23,.27-.42,.54-.19,.09,.29,.21,.38,.4,.42,.19,.04,.41,.01,.68-.05,.15,.32-.24,.32-.24,.52,.17-.1,.33-.22,.48-.34,.05,.04-.03,.17-.07,.24,.28-.1,.28-.57,.6-.63,.14-.32,.17-.04,.34,.23,.15,.28,.46,.53,.62,.1,.12,.17-.02,.4,.03,.64,.55-.59,.49-.46,.6-1.24,.13,.1,.3,.19,.44,.27-.38-.34-.4-.97-.56-1.43-.16-.18-.28-.34-.34-.41-.02-.12-.04-.24-.08-.35,.07,.08,.19,.26,.32,.5l-.06-.14c.18,.15,.39,.47,.54,.8-.1-.09-.2-.18-.29-.28,.17,.35,.32,.76,.52,1.08-.02-.08-.01-.15,0-.2,.04,.1,.07,.19,.12,.24,.05,.05,0-.09-.04-.25,.15,.18,.31,.37,.47,.54l-.15-.24c.2,.03,.41,.06,.63,.07-.23-.76-.88-1.61-.94-2.01,.37,.38,.66,.54,1.15,.92-.58-.33,.04,.41-.24,.5,.13-.04,.33,.18,.38,.28-.04-.24-.11-.47-.19-.69,.39,.33,.35,.18,.58,.22-.84-.55-.37-.62-.56-.9,.29,.18,.55,.39,.39,.5,.74,.25-.84-.85-.21-.65-.01,.04-.07,.03,.07,.13-.21-.24,.11-.31,.34-.12v.04c.24-.18,.38-.77-.41-1.11,.1,.04,.94,.42,1.09,.5-.81-.53-1.66-1-2.54-1.37,.68,.27,2.4,.61,2.71,.98,.12-.04,.27-.09,.07-.33-.12,.04-1.05-.17-1.1-.25,.83,.04,.45,0,1.18-.09-.17,.05-1.27-.26-1.22-.36,.17,.05,1.12,.15,1.23,.23-.29-.17-.59-.3-.9-.41l-.88-1.06-.06,.18c.09-.19,.14-.94,.09-1.27,0,.22-.28-.05-.39,.06,.05,.09,.09,.17,.13,.27-.39-.18-.36,1.57-.58,1.53,0-.23-.04-1.44-.27-1.55,0,.29,0,1,.07,1.67,.07,.68,.22,1.32,.31,1.53l-.13-.3c.03,.11,.1,.25,.14,.33-.2-.34-.49-.99-.6-1.63-.13-.65-.09-1.32-.02-1.69-.22-.22-.13-.37-.4-.27-.2-.27,.04-.5,.13-.54-.26,0-.53,0-.83,.06,.28,.6-.27,.88,.06,1.35,.09-.32,.22-.64,.4-.95,.12,.31,.17,.8,.2,1.2,.02,.4,.03,.71-.12,.74-.23-.16-.61-1.03-.73-1.23,.06,.24-.12,.63-.25,.54-.03-.14-.05-.27-.06-.41-.2,0-.15,.25-.11,.46,.03,.21,.06,.37-.29,.29-.1,.05-.92-.2-.6,.04,.77,.22,2.67,1.65,3.15,1.97-.02-.01-.18-.11-.39-.19-.21-.08-.47-.14-.66-.19-.29-.08-.62-.23-.92-.41-.3-.18-.58-.38-.84-.43,.16,.08,.34,.25,.39,.3-.18,.03-.52-.25-.51-.02,.63,.25-.18,.36,.52,.27,.13,.22-.18,.13-.2,.34,.44,.05,1.45,.43,1.63,.51-.17-.02-.4-.03-.5-.02-.03,.09-.1,.16-.17,.23h0l.22,.23c.1,.1,.21,.21,.36,.21,.03,.16,.19,.34,.16,.64,.04-.13,.05-.36,.13-.39,.29,.55-.2,.12,.05,.8-.04-.39,.19-.58,.26-.87-.22-.56-.29-.04-.41,.22-.05-.42-.05-.86-.06-1.23,0-.19,0-.36-.04-.51l-.04-.21s-.06-.18-.02-.08l.06,.16s.04,.07,.05,.11c.02,.05,.03,.07,.02,.04,.01,.01,.01,0,0-.02,.03,.04,.03,.05,.04,.06,.02,.03,.04,.05,.06,.06,.03,.02,0,0,.02,.02,0,0,.03,.02-.02,0-.03,0-.02,0-.02,0,.17,.06,.32,.11,.45,.15,.09,.08-.02,.09-.13,.05-.1-.04-.2-.12-.21-.11,.07,.06,.14,.1,.22,.13,.15,.12,.16,.29,.03,.2,.18,.17,.33,.07,.42-.1,.1-.17,.11-.37,.3-.56-.18-.04-.39-.06-.59,.02,.03,.02,.06,.03,.09,.05-.42,.1-.61,.03-.79,.12-.31,.02-.75,.22-.53,.1l.55-.28c-.16,.09-.32,.19-.14,.13-.13,.04,.06-.06,.17-.15,.11-.09,.15-.17-.2,.02-.11,.09-.23,.17-.35,.25-.29,.11-.83,.48-.68,.36-.24,.19-.22,.17-.21,.16l.08-.06s.04-.03,.15-.1l.13-.08,.07-.04c-.13,.07-.03,.02-.04,.02l.05-.02s.06-.03,.1-.05c.07-.04,.14-.07,.25-.1-.01,0-.07,.03,.1-.04h.04v-.02h0s0,0,0,0l-.08,.03c.08-.04,.37-.1,.44-.1,.09,0-.04,0,.01,0h.12s.17,0,.02,0c.04,0,.09,0,.14,.02,.04,0,.1,.04,.07,.02,.02,.01-.06-.05-.02-.02-.05-.05-.05-.06-.13-.17h0c-.12-.22-.31-.79-.32-1.52,0-.1,0,.01,0,.01v.07s-.02,.04-.03-.02v-.07h0l2.36,2.52h.31s-.03,0,0,0h.02l-.26-.03c-.22-.03-.73-.15-.85-.23h0l-.13-.07-.09-.06h0c-.06-.04-.04-.05,0,.02l-.02-.03s.14,.27,.19,.55l.02,.17v-.08l.02,.42v.03c0,.23,0-.21,0-.56l.03-.29c-.02,.77,.08-.26,.04,.57,.02-.15,.04-.23,.07-.32l-1.07-1.97c-.1,0-.2,0-.3-.01-.03,0-.14-.01-.1,0h.08c.13,.04,.29,.07,.55,.12-.11-.02-.16-.02-.17-.03-.1,0-.21,.02,.02,.11l-.6-.14c.26,.08,.52,.19,.77,.31-.38-.05-.58-.11-1.02-.3,.65,.34,.24,.16,.85,.55l-.36-.16s.46,.33,.14,.22c-.71-.24-.35,.44-1.04,.19,.94,.69-.46-.26,.24,.32-.22-.17-.35-.25-.51-.43,.15,.23-.35-.26,.15,.31l-.38-.42s.16,.17,.05,.05c.03,.03-.04-.05-.09-.09,.15,.15,.21,.25,.25,.3,.18,.24,.41,.56,.63,.86-.26-.28-.2-.26,.03,.21-.15-.22-.27-.46-.31-.55,0,.01-.04-.07-.01,0,.03,.09,.06,.12,.09,.18,.05,.11,.07,.23,.07,.23,0,0,.02,.05,.02,.06,0,.04,0,.07,0,.1,0-.01,0-.02,0-.03h0s0-.02,0,.02l-.02,.12c-.01,.05-.02,.05-.01,.03,0-.04,.03-.16,.01-.12l.03-.07c.09-.24,.09-.19,.06-.14-.02,.06-.07,.07,.1-.2l-.28,.39c-.31,.41-.26,.26-.14,.07,.05-.09,.18-.22,.21-.24-.03,.04-.08,.07-.12,.1l.03-.02-.09,.07c-.08,.06-.03,.01,.04-.04l-.1,.05s-.02,.02-.04,.03c0,0,.01,0,.02,0-.06,.02-.06,.02-.03,.01h.04s.26,.02,.5,.16c-.05-.02-.11-.05,.02,0,.1,.04,.19,.12,.3,.2,.06,.04,.12,.08,.17,.12,.02,.01,.06,.05,.05,.04l-.17-.15,.15,.14c-.16-.14-.2-.29-.46-.66,.53,.63,.44,.47,.37,.24-.07-.21-.1-.46,.24,.22,.02-.04,.03-.08,.05-.11l.06,.15c.08,.07-.03-.28-.1-.63,.04,.1,.07,.24,.09,.32,.16,.27,0,.25,.07-.54,0,.15,0,.4,0,.31,0-.04-.01-.17,.04-.34,.02-.07,.01-.1,.04-.16,.01-.03,.03-.06,.04-.08h0s.04-.05-.01,0c-.05,.05-.11,.08-.15,.09h0c-.4,.18-.79,.35-1.18,.52h-.03l-.04,.03s0,0,.03,0l.72-.21c.14-.03,.29-.06,.44-.06,.12-.13,.77-.14,1.05-.26,.13,.09-.49,.28-.6,.22l.09-.02c-.88,.16-.53,.1-.45,.13,.29,0,.3,.12,.16-.04-.14-.14-.3-.5-.38-.9l.13,.55-.05-.03c-.04-.17-.1-.57-.08-.53-.07-.41,.03,.34,.03,.51-.09-.29-.06-.85-.09-.87,0,.02,0,.04,0,.05v.09c.02,.3,.03,.61-.02,.58-.04-.15-.01-.45-.02-.48,0-.05,0-.08-.01-.02l-.05-.07-.03,.58c-.07,.28-.1-.04-.12,.61,.05-1-.33-.44-.27-.76-.2,.37-.28,.33-.28,.26-.06,.11-.38,.67-.41,.56,.38-.53,.48-.71,.5-.72-.11,.12-.21,.24-.28,.29,.07-.06-.09,.06-.15,.11-.09,.06-.17,.08-.1,.05l-.06,.03s-.04,.01-.06,.02h0s.07,0,.11,.02c.05,.02,.21,.06,.28,.13,.13,.07,.3,.18,.41,.3l-.02-.02-.16-.13c.12,.09,.23,.18,.34,.28l.15,.14,.09,.09s.04,.05,.03,.03l-.08-.09-.19-.21c-.11-.12-.16-.19,.06,.03-.1-.11-.26-.27-.27-.33,.34,.21,.4,.06,.56-.11,.14-.17,.34-.34,.7-.05l-1.74-.52c.32-.4,.68-.72,.84-.82-.24,.18-.06,.03,.08-.05-.07,.04,0,0-.01,0,.1-.05,.13-.04,.1-.04-.07-.02-.09,.04-1.15-.43h-.02l-.38-.18h0l.03,.02,.05,.02,.07,.04s.07,.04,.08,.08c.02,.06,0,.15-.04,.24-.02,.09-.04,.19,.26,.29l-.09-.14c.68,.34,1.64,.31,2.5,.76-.19-.09-.21-.12-.12-.18,.08-.04,.31-.18,.45-.53,.07-.18,.1-.37,.08-.58,0-.17-.06-.35-.12-.45-.13-.23-.33-.28-.62-.15,.06-.21,.28-.16,.39-.36-.19,.1-.32,.15-.41,.14l-1.49-.24c-.02,.07-.08,.06-.18,0l-.03-.1c-.31,.24-.62-.06-1.19-.06l.26,.4c-.12-.01-.21-.12-.32-.2,.26,.68,.28-.12,.57,.63-.6-.77-.6,.34-1.36-.43-.17,.12,.38,.4,.22,.51l-.23-.2,.21,.32c-.14,.03-.45-.17-.63-.35,.05,0,.04-.13,.06-.18-.42-.08-.37,.52-.52,.55,.12-.06,.23-.09,.33-.1-.06,.16-.2,.4-.31,.58-.12,.21-.27,.5-.35,.81-.21,.67,0,1.59,.52,1.92l.17-.16c.34,.2,.36,.34,.37,.48,0,.13,.03,.37,.31,.46l-.05,.03c.23-.1,.4-.1,.49-.02-.26,.15-.06,.56-.36,.71,.36-.04,.43-.11,.53-.21,.09-.11,.21-.25,.48-.58l-.09,.36c.21-.28,.28-.44,.47-.47-.25,.25-.06,.58-.37,.91,.09,.46,.33,.31,.49,.19,.17-.13,.27-.22,.28,.39,.35-.98-.26-.63-.12-.83,0-.34,.29-.72,.37-.61,.09,.03,.03,1.34,.43,1.33-.04,0-.04,.07-.08,.07,.14,.27,.27-.35,.47,.07,.05-.62,.25,.02,.19-.78-.1,.08-.2,.14-.31,.21,.2-.22,.21-1.14,.54-.75,.01,.16-.03,.39-.07,.51,.13,.22,.14-.18,.29,.02,.15,.79-.4,.27-.56,.88,.15,.33,.38-.63,.38,.24,.01-.55,.1-.53,.25-.5,.14,.03,.33,.09,.35-.37l.14,.45c.03-.09,.06-.35,.16-.38,.03,.21,.04,.43,.05,.65,.06-.31,.23-.25,.47-.22,.24,.03,.5,.08,.59-.18-.36,.27-.46,.14-.55-.01-.08-.17-.16-.39-.37-.47,.16-.46,.41-.29,.78-.14,.35,.16,.85,.29,1.16-.42-.05,.23-.65,.44-.65,.07,.23-.13,.54-.34,.84-.41,.14-.48-.01-.47-.18-.42-.17,.05-.38,.12-.46-.08,.65-.09-.13-.43-.27-.7l.48,.05c.34-.73-.98-.21-.64-.74,.23,.03,.46,.1,.68,.17-.06-.1-.13-.22-.2-.28l.55-.02c-.46-.25-.37-.35-.3-.66-.31,.15-.85,.22-.92,.06,.22-.22,.46-.09,.29-.33,.3-.06,.69-.11,.31,.16,.15-.04,.31-.03,.46-.07,.13-.13,.11-.25,.05-.34-.06-.09-.15-.14-.22-.27,.03,.09,.05,.19-.02,.23-.29-.11-.66-.29-.97-.34,.08-.2,.24-.22,.42-.22-.15-.11-.37-.06-.58-.2,.31-.23,.62-.55,1.02-.32-.29-.17-.67-.29-1-.37,.07-.17-.16-.68,.02-.73-.19-.24-.6-.21-.97-.14-.4,.05-.62,.22-.88,.04-.03,.07-.09,.14-.2,.19-.22-.05-.39-.18-.61-.22-.22-.05-.41,0-.54,.31-.13-.21-.26-.42-.41-.62-.27,.24,.52,.77,.14,1.16-.21,.32-.31-.52-.49-.67-.06,.4,.03,1.15-.48,.78,.02-.16,.14-.11,.19-.19Zm-2.23,3.19c-.08-.12-.33-.42-.03-.43,.5,.27,.22,.26,.03,.43Zm4.79,1.83c.07,.15-.03,.13-.18,.02,.01-.06,.06-.08,.18-.02Zm-.76-2.31h0s.03,.01,0,0Zm-.11-.02s-.02,0,0,0l.08,.02h-.07Zm0-.32v.13c-.02,.14-.01,.01,0-.13Z"/><path class="d" d="M6.33,21.48c-.06-.06-.11-.14-.16-.21,.02,.08,.06,.17,.16,.21Z"/><path class="d" d="M6.19,14.88s.01,0,.02,0c.01-.03,.02-.06,.02-.09l-.04,.08Z"/><path class="d" d="M3.34,17.51c.09-.04,.19-.04,.28-.02-.11-.05-.21-.07-.28,.02Z"/><path class="d" d="M4.29,18.66s.1-.05,.15-.08l-.13,.07s.03-.02-.01,0Z"/><path class="d" d="M5.54,16.92s-.03-.02-.08,.02l-.14,.18c.05,.02,.21-.08,.22-.2Z"/><path class="d" d="M4.91,18.26c.34-.22,.2-.18,.12-.16,0,0,0,0,0,0-.46,.33-.3,.23-.12,.16Z"/><path class="d" d="M5.01,18.1s-.04,0-.03-.02c-.18,.14-.03,.04,.03,.02Z"/><path class="d" d="M5.26,18.31h-.06c-.06,0,.33,0,.06,0Z"/><polygon class="d" points="6 17.49 5.6 17.79 5.96 17.6 6 17.49"/><path class="d" d="M5.89,18.1s.08-.08,.1-.13c-.08,.03-.13,.04-.17,.04,.01,.06-.08,.13,.07,.09Z"/><path class="d" d="M5.83,18.01s-.02-.05-.1-.03c.01,.01,.04,.03,.1,.03Z"/><polygon class="d" points="6.21 17.55 6.14 17.63 6.15 17.72 6.21 17.55"/><path class="d" d="M5.63,18.57c0,.05-.02,.1-.04,.16,.04,.17,.1,.26,.12,.18-.01-.12,0-.19-.08-.34Z"/><path class="d" d="M6.78,19.42c-.13-.02-.21-.1-.35-.2l.41,.46c-.02-.09-.04-.18-.07-.27Z"/><path class="d" d="M6.21,19.97c.06,.16-.19,.58,.12,.44-.03-.16,.16-.42-.12-.44Z"/><polygon class="d" points="5.01 17.95 5 17.99 5.91 18.46 5.01 17.95"/><path class="d" d="M6.55,14.61c-.34-.22-.04,.63-.33,.35-.04,.24,.24,.23,.18,.44,.15-.27,.25-.12,.15-.79Z"/><path class="d" d="M6.4,15.41s-.05,.09-.07,.16c.04-.07,.06-.12,.07-.16Z"/><polygon class="d" points="3.28 16.97 3.03 17.05 3.38 17.06 3.28 16.97"/><path class="d" d="M3.93,17.46l-.63-.14,.56,.24s-.07-.11,.07-.09Z"/><path class="d" d="M.32,20.06h.16c.15-.1,.14-.21,.15-.44-.11,.14-.22,.28-.31,.44Z"/><polygon class="d" points="2.28 16.04 2.23 16.07 2.69 16.44 2.28 16.04"/><path class="d" d="M3.98,14.19c-.11,.01-.18,.18-.29,.2,.18-.19,.55,.49,.29-.2Z"/></g><g><path class="d" d="M44.98,18.01c0,.56,.39,.38,.47,.48-.03-.55-.23-.66-.34-.62-.11,.03-.19,.17-.13,.15Z"/><path class="d" d="M42.41,16.53l.06-.16c-.08,.12-.16,.25-.23,.38l.17-.22Z"/><path class="d" d="M41.65,16.4c0,.72,.25-.09,.36,.18v.16l.15-.56c-.2,.06-.43,.42-.51,.21Z"/><path class="d" d="M41.4,14.83c0,.28-.1,.23,.09,.09v-.07s-.05,0-.09-.02Z"/><path class="d" d="M41.47,14.85c.08-.01-.04-.24,0,0h0Z"/><path class="d" d="M41.11,14.99l.11-.24c-.01-.16-.1-.21-.06-.32-.11,.13-.09,.3-.05,.57Z"/><path class="d" d="M41,15.51l.05-.1c0-.07-.02-.09-.05,.1Z"/><path class="d" d="M41.17,15.19l-.11,.22c0,.12,0,.35,.05-.08-.02,.21,.01,0,.06-.14Z"/><path class="d" d="M41.22,15.3c.04,.16,.11,.26,0,.5,.19-.09,.19-.59,0-.5Z"/><path class="d" d="M41.55,17.13l.04,.21,.08-.23c-.04,.12-.11-.21-.13,.02Z"/><path class="d" d="M40.54,14.61c0,.15,.02,.41,.03,.6l.07-.17c-.03-.1-.1-.2-.1-.43Z"/><path class="d" d="M40.57,15.21l-.1,.26c.09,.03,.11-.09,.1-.26Z"/><polygon class="d" points="40.96 16.3 41.14 15.76 40.93 16.31 40.96 16.3"/><polygon class="d" points="40.16 14.58 40.22 14.23 40.12 14.76 40.16 14.58"/><path class="d" d="M39.91,14.65c.04-.29-.06-.49-.02-.67-.07,.05-.12,.3-.17,.53,.05-.13,.11-.09,.19,.14Z"/><path class="d" d="M39.64,14.83c.03-.07,.05-.2,.08-.33-.03,.07-.06,.16-.08,.33Z"/><path class="d" d="M40.3,15.39c0-.09-.02-.33-.07-.43l.04,.43h.04Z"/><path class="d" d="M40.27,15.4h0s-.07-.03-.08-.04l.08,.04Z"/><path class="d" d="M40.31,15.39h0s0,.05,0,0Z"/><path class="d" d="M40.71,15.91c-.06,.24-.18,.49-.08,.86,.05-.29-.01-.5,.08-.86Z"/><path class="d" d="M40.35,15.92l.1,.1c0-.11-.02-.28,.01-.4l-.11,.3Z"/><polygon class="d" points="40.3 16.06 40.35 15.92 40.32 15.89 40.3 16.06"/><path class="d" d="M39.82,15.23c-.04,.19-.09,.2-.14,.23,.06,.08,.12,.13,.17,.13,0-.13,.03-.38-.03-.36Z"/><path class="d" d="M40.04,15.35v.02s0,.05,0-.02Z"/><path class="d" d="M39.16,15.47v0h0Z"/><path class="d" d="M39.86,15.67c.04,.08,.07-.02,.09-.15-.03,.04-.07,.07-.1,.08,0,.06,0,.1,.01,.08Z"/><path class="d" d="M39.5,15.03c.02,.09,.05,.16,.08,.23-.02-.14-.07-.35-.08-.23Z"/><path class="d" d="M40.01,15.25v-.02c0-.09,0-.05,0,.02Z"/><path class="d" d="M40.01,15.25c-.02,.06-.04,.17-.06,.26,.03-.03,.05-.08,.07-.14l-.02-.12Z"/><path class="d" d="M39.09,18.22c0-.4,.09-.77,.19-.34,.08-.3,0-1.6-.11-2.33,0,.17,0,.33-.08,.57,.04,.22,.22,.5,.15,.86-.12,.21-.11-.14-.17-.35,.07,.49-.14,.72-.09,1.45l.1-.26c0,.11-.03,.29,0,.4Z"/><path class="d" d="M39.36,15.58l.04-.05c-.05-.07-.08-.23-.15-.53-.06,.19-.07,.34-.07,.47l.2,.05v.06Z"/><path class="d" d="M39.58,15.53c-.03,.43-.12,.62-.05,1.08,.11-.03,.07-.36,.14-.55-.19,.11,.05-.24-.09-.48,.04-.07,.07-.1,.1-.11-.04-.05-.07-.12-.1-.2v.03h0c0,.06,.01,.09,0,.06h0v.17c-.06-.09-.02-.11,0-.16v-.06h0l-.19,.23c.04,.06,.09,.05,.18,0Z"/><path class="d" d="M40.52,17.69s0-.07,0-.1c-.01,.05-.02,.09,0,.1Z"/><path class="d" d="M40.45,17.43c.01-.06,.03-.23,.07-.19,.04,.13,0,.21,0,.35,.03-.11,.1-.31,.02-.52v.06c-.09-.15-.18-.69-.16-.75,.02,.39,.04,.66,.08,1.05Z"/><path class="d" d="M40.02,16.58l-.15,.21,.08,.37v-.22c.08,.09,.06-.19,.07-.36Z"/><polygon class="d" points="39.14 15.26 39.15 14.8 39.07 15.45 39.14 15.26"/><polygon class="d" points="38.93 15.32 38.93 14.92 38.88 15.16 38.93 15.32"/><path class="d" d="M27.9,20.52l-.05,.11s.04-.07,.05-.11Z"/><path class="d" d="M28.22,20.57l.02-.19c-.02,.11-.03,.18-.02,.19Z"/><path class="d" d="M34.07,15.65c-.09-.36-.2-.93-.16-.49l.05,.43c.04-.08,.08-.04,.11,.06Z"/><path class="d" d="M30.99,18.39l.02,.13,.05-.41-.07,.28Z"/><path class="d" d="M30.91,20.19l-.08-.28c.02,.1,.04,.19,.08,.28Z"/><path class="d" d="M26.11,20.84l-.09,.44c.08,0,.06-.22,.09-.44Z"/><path class="d" d="M36.88,15.57c-.07-.17-.12-.23-.16-.25,.08,.24,.16,.61,.16,.25Z"/><path class="d" d="M28.35,15.94c-.03,.08-.05,.16-.06,.26,.03-.07,.05-.15,.06-.26Z"/><path class="d" d="M36.57,15.33l.04,.1c.04-.08,.07-.14,.13-.11-.06-.18-.13-.29-.16,.01Z"/><path class="d" d="M20.09,20.16v-.05c-.01,.06,0,.06,0,.05Z"/><path class="d" d="M17.38,19.48c-.13-.08-.31-.24-.44-.41-.08-.11-.16-.23-.22-.36,.02,.07,.05,.16,.12,.26,.04,.06,.24,.32,.53,.51Z"/><path class="d" d="M38.11,15.16s0-.05,0,0h0Z"/><path class="d" d="M38.39,16.86s-.01,.11,0,.21c0-.1,0-.17,0-.21Z"/><path class="d" d="M36.32,18.05h0c.02,.08,.01,.07,0,0Z"/><path class="d" d="M38.18,15.35c-.02-.05-.04-.1-.06-.13,.01,.03,.03,.07,.06,.13Z"/><path class="d" d="M38.16,15.15l.04,.04c0-.07,0-.12-.04-.04Z"/><path class="d" d="M38.05,15.19s.05,.01,.07,.04c0-.03-.01-.05-.01-.07-.01,0-.03,.02-.06,.03Z"/><path class="d" d="M23.34,19.1v-.04c-.06,.18-.04,.15,0,.04Z"/><path class="d" d="M33.32,20.22v-.02h0v.02Z"/><path class="d" d="M33.2,20.56c.03-.54,.07-.48,.12-.37l-.14-1.24v1.61Z"/><path class="d" d="M27.12,20.59l.07,.4c-.18,.63-.25,.4-.2,.96,.12-1.35,.42-.11,.54-1.46l.05,.29s-.03,.06-.05,.05c.09,.66,.17-.97,.33-.77,.05,.11,.08,.31,.03,.47l.16-.33s.01,.26-.03,.24l.22-.09v.04c.04-.21,.13-.53,.17-.67,.04,.2-.04,.14-.03,.31l.14-.32c.02,.35-.09,.69-.17,.63,.02,1.36,.12-.33,.3,.47l-.12,.16c.02,.77,.13,.5,.22,.99-.02-.25-.18-1.22-.03-1.55,.03,.1,.07,.16,.16-.11-.03,.48,.04,.37,.13,.35l-.04,.64c.1-.18,.11-.51,.18-.79,.1,.07,.09,.56,.09,.98,.16,.11-.07-.8,.13-.91,.12,.25,.23,0,.41-.38,.08,.22-.03,.39,0,.57l.11-.51s0,.17,0,.25c.08-.2,.03-.64,.15-.81,.05-.7,.19,1.04,.35,.24,.03,.18-.03,.39-.03,.64,.2-.52,.17-.38,.34-1.08l.12,.42c-.09-.48,.05-1.05,.16-1.51l-.07-.53,.17-.34c.02,.11,0,.32-.03,.59l.03-.15c.06,.24,.02,.61-.03,.96l-.05-.4c-.05,.39-.09,.82-.09,1.19,.01-.07,.04-.14,.06-.17-.01,.11-.02,.2-.02,.26,0,.07,.03-.07,.06-.24l.03,.71v-.28l.24,.45c.16-.72,.32-1.77,.56-2.07-.04,.52,.01,.85,.03,1.47-.08-.65-.24,.29-.37,.15,.07,.07,.05,.36,.04,.47,.08-.2,.19-.4,.28-.6,0,.51,.07,.38,.14,.58-.09-1,.16-.67,.24-.99,.02,.34,.02,.68-.11,.61,.17,.75,.11-1.18,.27-.55-.03,.01-.05-.04-.05,.13,.05-.3,.22-.08,.2,.22h-.03c.2,.12,.57-.02,.54-.87,0,.11,.04,1.02,.05,1.2l.13-2.88c.02,.73,.26,2.46,.13,2.88,.05,.1,.11,.22,.19-.05-.04-.1-.15-1.05-.11-1.12,.17,.8,.11,.43,.3,1.11-.06-.15-.09-1.3-.02-1.27,0,.17,.09,1.13,.07,1.25l.09-1.13c-.03,.21,.06,.95,.12,1.27-.03-.22,.15,0,.19-.11l-.09-.25c.21,.15,.08-1.59,.28-1.55,0,.23,.05,1.43,.16,1.56,0-.58,0-2.78,.14-3.23l.06,.33,.11-.38c-.02,.87-.12,2.71-.19,3.42,.09,.25,.05,.39,.16,.35,.06,.3-.03,.47-.06,.49l.27,.18c-.06-.67,.15-.69,.1-1.24l-.23,.72c-.06-.67,.02-1.92,.21-1.81,.07,.26,.05,1.2,.07,1.42,0-.23,.14-.45,.17-.29l-.05,.36c.12,.25,.1-.9,.27-.27,.04,.04,.19,.85,.16,.46-.12-.76-.3-3.13-.3-3.7,.02,.05,.27,.72,.35,1.09,.11,.6,0,1.44,.09,1.95-.01-.18,.01-.41,.02-.49,.05,.15,.02,.57,.11,.48-.03-.68,.2,.04,0-.58,.08-.2,.11,.13,.22,.1-.06-.44,0-1.5,.08-1.7,0,.17,.04,.4,.06,.5,.2,.05,.32,.35,.5,.35,.03,.16,.12,.36,.11,.65,.02-.12,.03-.35,.08-.37,.14,.58-.12,.1,0,.8-.02-.4,.11-.55,.17-.81-.06-.61-.19-.11-.25,.15-.05-.84,.03-1.73,.2-2.13,.14-.22,.1,.54,.12,.42,.29,.13,.16-1.48,.43-.89,.12,.53,.06,1.07,.1,1.45-.11,.21-.21-.33-.29-.3l.12,.25c-.03,.18-.1,.32-.16,.17,.1,.48,.48,.07,.72,.5,.03-.18,.09-.37,.05-.59l-.07,.08c-.08-.43,.1-.61,0-.8,.08-.31,.16-.79,.31-.55l.05,.61c0-.18-.1-.36-.13-.17,.04-.27,.23,.82,.26,.02l-.11-.42c.08-.31,.18-.97,.3-.78-.07-.6-.02,.07-.14-.64,.1,.88-.31-.03-.16,.9-.12-.82-.16-.34-.31-1.04,.01,.2,.06,.38-.05,.29v.18h-.02s0,.05,0,.02c.03,.09,.05,.19,.06,.31-.03,.47-.19,.46-.23,.7-.06-.09,.01-.23-.03-.45l-.06,.36c-.03-.45-.19-.74-.07-1.01h-.13c-.09-.26-.19-.36-.25-.16-.06-.09-.12,.5-.09,.15l-.18,.29v-.11c-.2-.05-.36,.77-.63-.03-.06,.12-.11,.26-.23,.14l-.05-.39c-.07,.14-.27-.37-.28,.03-.16-1.04-.42-.2-.57-.38l.03,.51c-.1-.02-.19,.13-.3,.34l.04,.45c-.08,.37-.29-.3-.46-.24,0-.17,.04-.13,.08-.03-.27-1-.37,.77-.6,.04-.03,.17-.07,.11-.11,0,0,0,0,0,0-.02,0,0-.01,0-.02,0l-.08-.23c.03,.11,.05,.2,.07,.24-.03,.01-.08,.07-.13,.19l-.06-.48s0,0-.01,.01c-.06-.17-.02,.23,.03,.59-.02,.08-.04,.18-.05,.29-.1-.77-.12,.27-.23-.55,0,.41-.24,.32-.2,1.17,0-.11-.03-.16,0-.17-.06-.09-.13-.19-.16,.06l-.07-.61-.07,.83c-.1-.37-.15-.58-.11-1.06-.13,.74-.13,.28-.23,1.01l-.02-.4c-.05,.02-.1,.55-.16,.23-.17-.74-.62-.06-.92-.75,.09,1.16-.14-.52-.12,.38-.02-.28-.05-.43-.02-.67-.1,.27-.21-.44-.31,.32-.02-.28,.04-.4,.02-.57-.01,.06-.05,.24-.06,.07-.01-.16,.02-.23,.05-.35-.15,.04-.18,.89-.2,1.69-.08-.38-.12-.33-.18,.2-.02-.26-.06-.53,.04-.63-.06-.04-.33-.39-.35,.25-.01-.16-.08-.05-.09,.02-.13-.04-.13-.1-.26-.04l.03,.11c-.08,.77-.11,.17-.21,.26v-.08c-.2-.56-.11,.26-.3-.38v.48c-.08,1.03-.18-.62-.33-.23l.03,.28c-.09,.35-.13-1.41-.19-1.54-.01-.09,.03-.14,.06-.21-.15-.62-.06,.63-.21,.76,0-.34,.08-.86,0-.93-.03-.28-.34,1.08-.43,.42,.01,.26,.02,.52-.06,.72-.11,.09-.2-1-.35-.19,0-.07,0-.14,0-.21-.09,.21-.28,.33-.36,.78,.05-1.66-.54,.77-.43-.76l-.25,.06,.02-.15c-.14-.11-.23,.25-.31,.61-.03-.11,.01-.25,.02-.33-.2-.33-.23-.26-.48,.48l.02-.5c-.08,.28-.26-.8-.53-.24,0-.06,.02-.15,.04-.22-.3,.56-.49-1.42-.73,.37l-.2,.43c.2,.16-.09,.78-.03,1.08-.09,.1-.17-.56-.06-.64v.09c.12-.94-.23-.35-.17-.99-.43,.01-.8-.54-1.2-.6v.73l-.14-.05c-.03-.17-.01-.57,.09-.54-.03-.42-.19,.33-.2,.49-.18-.31,.13-.85,.07-.87l-.09,.05v.09c-.07,.29-.1,.61-.22,.57-.07-.15-.01-.45-.04-.48,0-.05,0-.08-.05-.02l-.18-.07,.04,.58c-.09,.28-.16-.04-.12,.62-.06-1.02-.64-.4-.7-.71-.13,.42-.24,.4-.37,.35,.03,.12,.03,.77-.08,.69,.09-1.34-.19-.59-.27-1.55,.07,.64-.34,.15-.23,1.06-.1-.11,0-.5-.07-.82-.24,.51-.52-.34-.82-.17,0,.18,.05,.44-.01,.71l-.16-.88c-.06,.09-.04,1.01-.16,.41,.02,.15,.04,.37,0,.43-.57-.79-1.06,.53-1.69-.54l-.75-1.27-1.09,3.64c-.05,.16-.14,.24-.15,.55,.19-.54,.29-.26,.44,.05-.02-.25,.4-.17,.59-.32,.01,.15,0,.26,.11,.49,.07,.12,.15,.23,.25,.33,.13,.12,.29,.22,.46,.3,.71,.26,.97,.18,1.11,.29-.03-.16-.01-.26-.05-.29-.13-.46-.22-.76-.31-1.05l-.04-.18c-.01-.13,0-.08,0-.08,0-.01,0-.02,0,0,0-.02,0,0,0,0,0,0,0,0,0,0h0s0-.09,0-.14c-.04-.45-.32-.86-.43-1.33-.01,.11-.01,.17-.03,.21-.01,.02,0,.02-.01,.02h-.02l.07,.22h0v.03c.2,.59,.17,.67,.16,.68-.06,0,.35-.25,1.04-.33l-1.06,1.61v-.11c.06,.19,0,.31,.04,.53,0-.41,.05-.5,.16-.32v.1c.26-.11,.39,.28,.7,.54l-.04-.47c.07,.06,.09,.21,.12,.33,.05-.72-.18-.04-.15-.83,.12,.96,.46,0,.54,1.09,.1,0-.04-.55,.06-.54l.03,.3,.02-.38c.07,.06,.1,.43,.11,.68-.02-.03-.04,.07-.06,.09,.09,.35,.23-.12,.26,0l-.1-.18c.27-.28,.59,.11,.87-.49l-.02-.22c.21-.41,.16,.25,.39,.06v.05c.04-.22,.11-.33,.17-.3-.07,.26,.09,.51,0,.8,.24-.43,.12-.34,.3-1.17l.02,.37c.06-.33,.08-.51,.2-.6-.11,.31,.05,.57-.08,.98,.2,.82,.39-.8,.44,.39,.16-1.02-.18-.58-.1-.8-.04-.34,.13-.76,.2-.65,.08,.03,.06,1.32,.25,1.31-.02,0-.02,.07-.04,.07,.06,.27,.16-.35,.22,.08,.09-.62,.11,.04,.18-.75l-.19,.17c.11-.2,.27-1.12,.4-.66-.02,.16-.09,.36-.13,.48,.03,.24,.1-.15,.14,.09-.07,.79-.23,.16-.37,.75,.03,.34,.24-.56,.13,.29,.15-1.08,.18,.15,.37-.67l-.04,.47c.03-.07,.08-.29,.12-.28l-.11,.61c.14-.52,.17,.47,.29,.19-.21,0,0-.57-.07-.93,.31-.62,.06,1.25,.37,1.04-.04,.06-.13-.3-.05-.51,.05,.1,.11,.29,.12,.54,.2-.08,0-.49,.11-.77,.02,.58,.11-.23,.21-.41l-.04,.48c.2,.33,.14-1,.31-.61l-.14,.66,.12-.16-.07,.55c.15-.4,.17-.29,.27-.13,0-.34,.09-.87,.19-.88,.04,.29-.08,.45,.07,.4-.06,.3-.12,.67-.15,.23l-.07,.45c.05,.33,.18,.09,.23,.09-.02-.02-.04-.05-.05-.12l.26-.65c.02,.18-.02,.33-.06,.47,.05-.05,.09-.27,.16-.3-.05,.39-.08,.79-.18,.97l.23-.42c0,.17,.06,.48,.02,.62,.09,.24,.33-.74,.45-.42,.01-.08,.03-.15,.07-.2,.13,.1,.21,.59,.42,.07l.04,.71c.14-.15-.05-.89,.18-1.14,.17-.21,0,.6,.05,.8,.1-.35,.29-1.06,.38-.47-.06,.13-.08,.02-.13,.07Zm1.61-.2c-.04,.1-.12,.41-.12,.12,.07-.55,.08-.28,.12-.12Zm2.48-1.07c-.02,.16-.06,.08-.1-.1,.03-.04,.06-.02,.1,.1Zm6.45-3.75v.02c-.08-.18-.05-.11,0-.02Zm.15,.2c.01-.07,0-.13,0-.2,0,.12-.04,.13-.07,.1,.02,.13,.04,.21,.08,.1Zm-14.72,.06l.02,.13c-.07,.14-.05,.01-.02-.13Z"/><path class="d" d="M30.92,19.98c0-.08,0-.17,0-.26-.01,.08-.02,.17,0,.26Z"/><polygon class="d" points="26.12 20.76 26.12 20.75 26.11 20.84 26.12 20.76"/><path class="d" d="M35.9,19.99c-.03-.07-.05-.15-.07-.24,0,.12,.03,.22,.07,.24Z"/><path class="d" d="M38.55,14.92l-.09,.13s.06,.08,.09,.15c0-.11-.03-.27,0-.28Z"/><path class="d" d="M39.43,17.88c.01-.06,.03,0,.04-.07v-.22c-.06,.02-.1,.2-.04,.29Z"/><path class="d" d="M38.69,16.52c.02,.41,.07,.27,.14,.19,0,0,0,0-.01,0,0-.57-.06-.38-.12-.19Z"/><path class="d" d="M38.84,16.7s.04-.03,.06-.01c0-.23-.03-.05-.06,.01Z"/><path class="d" d="M37.98,15.5c.04,.1,0-.52,.02-.35,0-.52-.17,.63-.02,.35Z"/><polygon class="d" points="38.79 17.86 38.75 17.36 38.73 17.76 38.79 17.86"/><path class="d" d="M38.28,17.51l.11,.13c0-.08,0-.13,.02-.17-.06-.01-.13-.11-.13,.04Z"/><path class="d" d="M38.41,17.47s.06,0,.08-.09c-.02,0-.05,.02-.08,.09Z"/><polygon class="d" points="38.66 18.01 38.63 17.91 38.55 17.87 38.66 18.01"/><path class="d" d="M37.2,17.47l-.1,.15c0,.17,.03,.28,.07,.2,.02-.12,.06-.19,.03-.35Z"/><path class="d" d="M37.6,18.82c-.03-.1-.04-.21-.07-.38l.03,.62,.04-.24Z"/><path class="d" d="M37.3,18.98c0,.17-.13,.5,0,.46,0-.17,.1-.32,0-.46Z"/><polygon class="d" points="35.62 18.3 35.64 18.29 35.57 17.28 35.62 18.3"/><path class="d" d="M34.35,20.84c.15,.23-.02-.63,.12-.33,.01-.24-.11-.24-.1-.45-.06,.26-.11,.12-.03,.78Z"/><path class="d" d="M34.38,20.05l.03-.16c-.02,.07-.02,.11-.03,.16Z"/><path class="d" d="M18.84,18.24s0-.07,0-.06c0,0,0,0,0,.02v.04Z"/><path class="d" d="M18.82,18.22l-.02,.03s-.03,.05-.05,.07c.02-.02,.06-.08,.07-.09Z"/><path class="d" d="M28.89,21.71l.02-.16c0-.17-.02-.18-.06-.21l.05,.37Z"/><polygon class="d" points="27.75 21.15 27.77 21.16 27.77 20.57 27.75 21.15"/><path class="d" d="M26.72,21.82s.09-.1,.13-.07c-.09,.1-.08-.66-.13,.07Z"/></g><g><path class="d" d="M6.88,33.35s-.07-.37-.09-.45c0,.09,.11,.55,.09,.45Z"/><polygon class="d" points="6.75 34.33 6.74 34.16 6.74 34.58 6.75 34.33"/><path class="d" d="M6.55,34.33c-.05,.72,.08-.12,.11,.14v-.41c0,.09-.11,.49-.11,.28Z"/><path class="d" d="M6.51,34.31s-.03,.13,.04-.14v.03l-.04,.11Z"/><path class="d" d="M6.54,34.19c.03-.12-.02,.08,0,0h0Z"/><path class="d" d="M6.43,34.63l.03-.1s-.03,.11-.02,.08c-.04,.1-.03,.08,0,.02Z"/><path class="d" d="M6.39,34.72l.02-.05-.02,.05Z"/><path class="d" d="M6.45,34.56s-.02,.07-.04,.11c0-.01,0,0,.02-.05,0,0,0-.01,.02-.06Z"/><path class="d" d="M6.46,34.5c0-.06,.02-.13,0-.03,.02-.1,.06-.2,.05-.18,0,0-.05,.13-.05,.21Z"/><path class="d" d="M6.47,35.06v.21l.06-.24c-.03,.12-.04-.2-.06,.02Z"/><path class="d" d="M6.18,35.04s.02-.02,.02-.02l.03-.03s-.05,.05-.05,.05Z"/><path class="d" d="M6.2,35.02s-.02,.02-.02,.02c-.01,0,.03-.02,.02-.02Z"/><path class="d" d="M6.38,34.74c.03-.06,.05-.12,.07-.18-.02,.07-.05,.15-.09,.22l.02-.03Z"/><path class="d" d="M6.2,35.04h-.03s.03,0,.05,0h-.02Z"/><path class="d" d="M6.31,35.02s.05,0,.01,0c.06-.01,.11,0,.16,0-.05,0-.1,0-.17,0Z"/><path class="d" d="M6.55,35.02h0Z"/><polygon class="d" points="6.18 35.05 6.17 35.05 6.17 35.05 6.18 35.05"/><path class="d" d="M6.17,35.05h0s.02,0,.02,0c0,0-.03,.02-.02,0Z"/><path class="d" d="M6.18,35.05h0Z"/><path class="d" d="M6.27,34.94s-.08,.09-.02,.03l.02-.03Z"/><polygon class="d" points="6.18 35.04 6.18 35.04 6.18 35.04 6.18 35.04"/><polygon class="d" points="6.18 35.05 6.18 35.04 6.18 35.05 6.18 35.05"/><path class="d" d="M6.4,35.01s.08,0,.13,0c-.05,0-.1-.01-.15,0,0,0-.03,0,.03,0Z"/><path class="d" d="M6.26,35.02h0Z"/><polygon class="d" points="7.07 35.18 7.06 35.17 7.06 35.17 7.07 35.18"/><path class="d" d="M6.37,35.01s-.07,0-.07,0c0,0,.05,0,.08,0,0,0,0,0,0,0Z"/><path class="d" d="M6.7,35.05h0Z"/><path class="d" d="M6.27,35.02h0s0,0,0,0Z"/><path class="d" d="M6.27,35.02h0Z"/><path class="d" d="M5.33,34.25c.34,.2,.65,.41,.22,.31,.12,.09,.49,.23,.92,.39l.59,.22,.1,.05c-.15-.09-.47-.18-.78-.33-.16-.13,.15,.02,.34,.1-.45-.2-.61-.4-1.23-.76,.06,.07,.12,.14,.18,.21-.1-.05-.24-.17-.35-.19Z"/><path class="d" d="M6.87,35.1l-.04-.02,.14,.06,.09,.03c-.08-.03-.14-.05-.21-.08h.01Z"/><path class="d" d="M6.62,35.04s.15,.03,.08,.01c-.13-.02-.11,0-.16-.03,.18,.03-.07,0,.08,.01-.05,0-.07-.01-.1-.02,.03,0,.05,.02,.09,.02h0s-.01,0,0,0h.01c.06,0,.01,0-.01,0h0c.07,0,.15,.02,.21,.05-.04-.01-.1-.03-.2-.04Z"/><path class="d" d="M5.78,35.42l.07-.07s-.07,.05-.07,.07Z"/><path class="d" d="M5.96,35.22c.05-.03,.18-.14,.15-.11-.08,.09-.15,.14-.25,.24,.09-.05,.27-.24,.34-.32h0s0,.02,0,.02h0s.01-.01-.01,0c-.07,.05-.14,.11-.21,.17Z"/><path class="d" d="M6.27,35.02s.04,0,.11,0l-.23,.03,.16-.02h-.03Z"/><polygon class="d" points="7.09 35.18 7.07 35.17 7.16 35.22 7.09 35.18"/><path class="d" d="M7.29,35.29h0s.03,.02,.05,.03c-.01,0-.03-.02-.04-.03Z"/><path class="d" d="M3.86,33.57l-.02-.14c0,.05,0,.1,.02,.14Z"/><path class="d" d="M3.46,34l.15,.13c-.07-.09-.13-.14-.15-.13Z"/><path class="d" d="M4.97,34c-.35-.11-.89-.32-.47-.15l.4,.15c-.07-.04-.02-.03,.07,0Z"/><path class="d" d="M5.6,36.86l.07,.12-.13-.39,.06,.28Z"/><path class="d" d="M6.22,38.55l-.21-.22c.06,.08,.12,.16,.21,.22Z"/><path class="d" d="M6.26,31.82v-.45c-.13,.03-.03,.24,0,.45Z"/><path class="d" d="M7.85,35.51l.11,.23c-.09-.23-.25-.56-.11-.23Z"/><path class="d" d="M6.93,36.6h0Z"/><path class="d" d="M7.97,35.74l-.04-.1c.02,.07,.03,.12,.02,.1,.07,.17,.11,.28,.01,0Z"/><path class="d" d="M3.35,32.41s.04,0,.06,0c-.05-.04-.06-.03-.06,0Z"/><path class="d" d="M7.05,34.91s-.01,.03-.02,.04c.01,.03,.02,.03,.02-.04Z"/><path class="d" d="M7.85,35.72s0,0,0,0h0Z"/><path class="d" d="M6.71,34.67l-.15-.15,.15,.15Z"/><path class="d" d="M7.5,33.15h0c.08-.03,.07-.02,0,0Z"/><path class="d" d="M7.82,35.69l.03,.03-.03-.03Z"/><path class="d" d="M7.82,35.7l-.02-.02s0,0,.02,.02Z"/><path class="d" d="M7.87,35.75l-.03-.03h0l.02,.03Z"/><path class="d" d="M6.34,37.26l-.03-.04c-.09,.18-.05,.15,.03,.04Z"/><path class="d" d="M8.59,36.75v-.02h-.03l.03,.02Z"/><path class="d" d="M8.74,37.09c-.39-.38-.32-.38-.18-.37l-1.07-.66c.42,.33,.84,.67,1.25,1.02Z"/><path class="d" d="M4.86,32.67c-.11-.09-.23-.17-.35-.25-.12-.67,.18-.58-.27-.96,.3,.61,.15,.73,0,.86-.15,.14-.3,.29,.11,.84-.09-.05-.18-.1-.27-.15,.04-.01,0-.08,.03-.09-.61-.34,.48,.88,.16,.91-.14,0-.33-.09-.4-.25,.02,.14,.05,.27,.09,.4-.06,.03-.23-.13-.17-.17-.06,.11-.1,.23-.14,.35l-.03-.03c.14,.17,.35,.44,.44,.56-.21-.04-.1-.11-.25-.19,.06,.11,.12,.22,.18,.32-.34-.11-.56-.43-.43-.52-1.25-.57,.2,.31-.69,.29l-.05-.27c-.75-.24-.59,.06-1.14,.14,.27,0,1.31,.02,1.52,.38-.12,.01-.2,.08,.01,.28-.45-.18-.39-.02-.4,.13l-.61-.21c.12,.23,.44,.3,.7,.47-.11,.15-.6,.08-1.01,.05-.15,.28,.81-.04,.87,.31-.28,.19-.04,.4,.34,.64-.22,.14-.39-.03-.58,.01,.17,.05,.34,.09,.51,.13-.01,.03-.17,.02-.25,.02,.2,.1,.64,0,.82,.13,.47,0-.15,.14-.35,.31l2.06,1.56c.08,.09,.16,.09,.17-.18,.08,.17,.06,.39,.12,.63,.15-.57,.16-.42,.14-1.16,.09,.12,.19,.23,.29,.34-.27-.41-.31-1-.41-1.46l-.25-.47c0-.12-.02-.24-.03-.35,.05,.09,.14,.3,.22,.55l-.04-.15c.13,.2,.27,.54,.38,.89l-.21-.34c.12,.37,.23,.79,.37,1.13-.01-.07-.01-.14,0-.18,.03,.1,.05,.19,.08,.25,.03,.06,0-.08-.03-.24l.33,.64-.1-.26c.15,.09,.3,.18,.47,.27-.12-.74-.57-1.73-.58-2.07,.27,.45,.5,.7,.86,1.19-.45-.49-.04,.36-.26,.35,.11,.01,.25,.27,.28,.37-.01-.23-.04-.45-.07-.67,.29,.42,.28,.27,.47,.39-.65-.76-.24-.66-.36-.97,.23,.25,.43,.52,.27,.56,.62,.46-.61-1.01-.09-.63-.02,.03-.06,0,.04,.14-.15-.27,.14-.22,.32,0l-.02,.03c.26-.07,.46-.52-.21-1.04,.09,.06,.81,.64,.93,.75-.68-.69-1.4-1.32-2.16-1.9,.59,.43,2.13,1.26,2.37,1.64,.12,.01,.26,.02,.1-.22-.11-.02-.94-.48-.98-.55,.75,.32,.41,.16,1.09,.36-.16-.03-1.13-.64-1.07-.68,.15,.09,1,.52,1.09,.61-.29-.24-.6-.47-.91-.69,.16,.13,.85,.43,1.16,.52-.21-.07,.1-.17,.02-.27l-.28-.02c.26-.17-1.38-.81-1.27-.93,.21,.09,1.33,.53,1.51,.45-.52-.25-2.58-1.02-3.01-1.17l.33,.06c-.12-.05-.23-.1-.35-.14,.85,.16,2.58,.79,3.21,1.18,.28-.02,.38,.08,.39-.07,.31,.02,.43,.21,.43,.26l.29-.33c-.66-.13-.6-.42-1.16-.5,.21,.16,.41,.33,.6,.51-.65-.17-1.8-.63-1.67-.76,.27,0,1.18,.22,1.4,.26-.22-.07-.4-.29-.24-.29l.34,.15c.27-.12-.86-.31-.21-.42,.05-.05,.87-.15,.48-.17-.77,.09-3.14-.02-3.72-.05,.06,0,.74-.1,1.11-.17,.6-.1,1.44,.04,1.95-.04-.18,0-.41-.04-.49-.05,.15-.06,.57,0,.48-.13-.68,.03,.04-.25-.58,0-.2-.09,.13-.13,.08-.27-.43,.1-1.5,.14-1.69,.14,.17-.03,.39-.1,.49-.13h0v-.05l-.08-.02c-.16-.03-.34-.28-.5-.24-.07-.15-.22-.3-.29-.59,.02,.12,.08,.35,.03,.39-.34-.5,.09-.14-.26-.76,.14,.37,.05,.57,.09,.83,.28,.54,.2,.04,.2-.23,.3,.79,.52,1.66,.63,2.04,.03,.21-.28-.47-.24-.36-.23-.03,.67,1.32,.27,.85-.34-.41-.63-.86-.86-1.17-.04-.22,.31,.21,.34,.16l-.2-.18c-.08-.16-.09-.32,.02-.2-.32-.38-.37,.12-.8-.08,.09,.16,.19,.33,.35,.47v-.09c.31,.29,.33,.5,.51,.61,.17,.26,.51,.61,.3,.47l-.48-.39c.14,.11,.3,.21,.18,.07,.2,.18-.72-.45-.1,.07,.12,.07,.24,.15,.35,.23,.11,.11,.3,.26,.44,.37l.08,.06-.04-.02-.08-.05c.09,.06,0,0,.1,.06-.03-.02,.03,.02,.09,.06,.02,.02,.21,.18-.2-.15l.33,.26,.08,.07s-.02-.02,.03,.03h0s-.03-.02,0,0l-.22-.21c-.33-.33-.3-.35-.44-.54,.08,.06,.15,.18,.3,.34l-.22-.29c.3,.34,.49,.56,.65,.77h.01l.09,.14v.02s.06,.06,0-.02c.05,.08-.26-.42-.07-.12-.05-.08-.09-.17-.13-.25l.05,.1c.02,.06-.23-.71,.1,.03-.03-.11-.06-.24,0-.13l.11,.37c-.02-.07,.02,.04,.03,.1l-2.94-2.28-.06,.02s-.22,.03-.32,.03h0s-.05,0,.07,0c-.02,0,.11,0,.32,.04l.45,.03c.37,.06-.33,.05-.28,.09-.17-.03-.12-.03-.02-.02-.5-.06-.32-.03-.12,.05,.2,.07,.45,.19,.08,.1,.15,.06,.09,.06-.02,.03,0,0,0,0-.02-.01,0,0,0,0,0,0l-.23-.06,.23,.07s.05,.05,.15,.1l-.45-.17h.01c-.17-.05,.21,.1,.55,.23l.26,.13c-.72-.29,.21,.16-.55-.16,.36,.18,.24,.21,.97,.63-.1-.05-.15-.07-.15-.09-.1-.02-.2-.04,0,.1l-.53-.3c.23,.16,.45,.32,.67,.49-.34-.16-.52-.28-.9-.56,.56,.46,.2,.19,.73,.69l-.31-.24s.38,.39,.11,.2c-.59-.44-.3,.16-.82-.32,.71,.93-.34-.4,.18,.34-.16-.22-.25-.35-.38-.55,.11,.25-.24-.36,.11,.31l-.27-.5c.03,.05,.11,.21,.03,.07l-.1-.19,.18,.38c.13,.29,.3,.67,.46,1.03-.19-.32-.17-.28,0,.22-.11-.24-.21-.49-.22-.59-.04-.03-.2-.33-.04,.28-.05-.16-.04-.04-.03,.03-.04-.02-.06-.05-.08-.04l1.57,1.19s0-.01-.03-.03l-.1,.02c-.77,.05-.17-.04-.27-.08h.08c.55-.1-.26-.07,.37-.12l-.48-.03c-.51-.04-.36-.07-.12-.08,.24,0,.55,.03,.35-.04l-.27-.03c-.17-.05,.18-.01,.58,.08l.49,.13h-.02s0,0,.02,0l-.12-.04,.07,.02h0l-.03-.02h0l-.23-.15c-.05-.05,.22,.14,.25,.16h.01s.08,.08-.11-.09l.14,.12c-.13-.11-.23-.25-.5-.6,.54,.62,.41,.47,.31,.28-.11-.2-.17-.42,.2,.24,0-.03,0-.06,0-.09l.06,.14c.06,.09-.07-.26-.17-.61,.05,.09,.09,.23,.11,.31,.17,.27,.11,.22,.03-.54l.11,.48c-.01-.29,.22,.75,.22,.17v.22c.01-.13,.04-.14,.06-.09l-1.94-2.55c-.22,.05-1.06-.23,.24,.34,.13,.08,.25,.17,.38,.26,.17-.07,.71,.34,1,.41,.07,.11-.55-.08-.61-.19l.09,.03c-.84-.41-.37-.02-.92-.35,0,.02-.04,.03-.08,.03,0,0-.03,0-.03,0,.05,.05,.09,.09,.12,.1,.06,.04,.13,.08,.18,.13,.11,.09,.22,.27,.27,.37,.04,.04,.07,.1,.08,.17v-.03s0,.1,0,.06c0-.01,0,0,0,0v-.04s0,.01,0,0h0s0,.03,.02-.07l.02-.05,.02-.03s.05-.07,.08-.1l-.03,.03s.08-.12,.04-.04c.03-.06,.13-.19,.25-.25,.09-.09,.18-.13,.2-.14h.01l-.06,.02-.09,.04c-.05,.02-.09,.03-.11,.03-.04,0-.03-.01-.01-.03-.11,.04-.72,.26-.67,.17,.63-.18,.77-.22,.87-.25,.04-.01,.11-.03,.16-.03h-.02c-.33,.01-.1,0-.58,.02,.05-.02,.18-.01,.33-.01h.18s-.07,0-.12-.01c-.04-.01-.03,0-.07-.02-.02,0,.04,.02-.04-.02h.03l.03,.04h-.02s.27,.3,.13,.09c.03-.07,.12-.13,.39,.65-.1-.33-.09-.36-.08-.38-.03-.08-.1-.42-.15-.66,.09,.21,.16,.42,.23,.64-.09-.66,.09-.06,.03-.69l-.02,.12c-.02-.75-.29-1.63-.44-2.58,0,.43-.11,.13-.26-.12-.14-.25-.32-.44-.27,.17-.1-.18-.04-.31-.12-.52,.05,.4,0,.52-.18,.39l-.02-.1c-.17,.12-.33,.1-.52,.05-.19-.06-.43-.12-.76-.05l.3,.36c-.13,.01-.24-.09-.36-.15,.33,.65,.29-.17,.65,.56-.32-.36-.5-.24-.66-.13-.17,.1-.31,.26-.78-.05-.14,.17,.46,.3,.33,.45l-.27-.13,.28,.26c-.12,.06-.48-.07-.69-.2,.05-.01,0-.12,0-.17-.43-.02-.19,.55-.31,.56l.26-.12c0,.34-.16,.64-.22,.96-.04,.31-.02,.65,.29,.88l.22-.04c.44,.3-.22,.29,.02,.65h-.05c.23,.03,.37,.08,.37,.18-.28-.02-.43,.33-.74,.3,.56,.24,.4,.1,1.24-.04l-.31,.21c.34-.08,.5-.16,.65-.09-.34,.05-.42,.4-.86,.48-.22,.41,.04,.45,.28,.46,.23,.01,.37,0,.07,.52,.83-.63,.09-.71,.33-.78,.2-.28,.65-.43,.65-.3,.03,.04-.16,.33-.26,.64-.1,.31-.11,.69,.15,.79-.05-.03-.08,.04-.13,.01,.12,.34,.45-.16,.66,.29,.25-.59,.4,.08,.47-.71-.15,.06-.32,.1-.49,.13,.16-.07,.34-.34,.46-.53,.13-.21,.2-.29,.38-.12,.01,.16-.04,.4-.12,.51,.16,.23,.18-.19,.35,.01,.09,.38-.05,.48-.25,.53-.21,.03-.45,.02-.68,.3,.2,.37,.72-.55,.56,.31,.12-.55,.24-.53,.42-.51,.17,.02,.43,.04,.43-.42l.17,.44c.04-.1,.06-.35,.16-.4,.04,.21,.07,.42,.09,.64,.07-.32,.25-.3,.43-.26,.19,.04,.41,.08,.43-.12-.44,.39-.46-.36-.83-.5,.02-.42,.26-.23,.59-.04,.16,.09,.34,.19,.51,.21,.16,.02,.34-.05,.36-.19,.03,.09-.43,.08-.5-.18,.15-.03,.36-.02,.6,.07,.12-.36-.43-.24-.58-.53,.54,.23-.11-.27-.2-.47l.41,.25c.45-.17-.82-.57-.37-.63,.19,.12,.38,.26,.55,.4-.02-.08-.05-.14-.09-.21l.48,.26c-.31-.32-.2-.3,0-.38-.33-.1-.8-.36-.78-.46,.3,.03,.41,.21,.41,.03,.27,.14,.61,.32,.16,.23,.14,.07,.27,.15,.41,.22,.34,.03,.16-.21,.18-.27-.03,.02-.06,.04-.13,.03-.18-.16-.36-.31-.54-.46,.19,.02,.31,.09,.44,.16-.02-.04-.11-.1-.18-.16l-2.11-2.76s-.04,.08-.07,.1c0-.3,0-.61,.05-.83l2.83,3.71c.05,.03,.1,.07,.13,.11l-.07-.09-2.88-3.78-.21,.35c-.03-.17-.19-.46-.16-.6-.21-.22-.33,.81-.59,.54,0,.08,0,.15-.04,.22-.21-.04-.55-.46-.64,.14-.12-.21-.25-.41-.39-.61-.14,.23,.5,.75,.29,1.13-.12,.3-.32-.52-.48-.66,.01,.38,.19,1.1-.29,.72,0-.15,.1-.09,.14-.17Zm-1.66,2.18c-.07-.09-.3-.33-.02-.24,.46,.31,.21,.22,.02,.24Zm2.99,2.76c.05,.15-.03,.1-.14-.04,.01-.05,.05-.05,.14,.04Zm1.54-2.08v-.02c.1,.15,.06,.09,0,.02Zm-.14-.15l.12,.16c-.08-.1-.08-.11-.05-.08-.08-.1-.13-.17-.07-.08Zm-1.38-.23v.02s0-.03,0-.02Z"/><path class="d" d="M6.15,38.35c-.04-.07-.08-.15-.11-.24,.02,.08,.05,.17,.11,.24Z"/><polygon class="d" points="6.26 31.9 6.27 31.91 6.26 31.82 6.26 31.9"/><path class="d" d="M9.47,33.51c-.07,.04-.15,.07-.24,.09,.12,0,.22-.02,.24-.09Z"/><path class="d" d="M7.6,35.5s.04,.04,.06,.05c-.03-.02-.04-.03-.06-.05,0,0,.01,.01,0,0Z"/><path class="d" d="M5.5,34.68c.05,.03,0,.02,.05,.05l.22,.06s-.17-.13-.27-.11Z"/><path class="d" d="M6.88,34.98c-.33-.24-.23-.13-.18-.08,0,0,0,0,0,0,.47,.31,.32,.21,.18,.08Z"/><path class="d" d="M6.71,34.91s.02,.03,0,.02c.19,.12,.04,.02,0-.02Z"/><path class="d" d="M7.74,35.6s.05,.06,.13,.15c.05,.05,.01,.01,.02,.02,0,0,.01,.01,.02,.02-.11-.13-.26-.31-.17-.2Z"/><polygon class="d" points="5.78 34.22 6.2 34.5 5.88 34.24 5.78 34.22"/><path class="d" d="M6.3,34.17l-.15-.04c.06,.06,.09,.1,.11,.13,.04-.02,.14,.02,.04-.09Z"/><path class="d" d="M6.26,34.26s-.03,.03,.02,.09c0-.01,0-.04-.02-.09Z"/><path class="d" d="M5.72,34.04l.1,.04s.04-.01,.07-.02c-.06-.01-.11-.02-.16-.02Z"/><path class="d" d="M6.96,33.82v-.16c-.06-.16-.12-.24-.12-.17,.03,.12,.04,.19,.12,.33Z"/><path class="d" d="M6.04,32.77c.08,.07,.14,.17,.24,.3l-.32-.53,.08,.23Z"/><path class="d" d="M6.27,32.47c-.07-.16-.05-.52-.18-.42,.06,.16,.02,.34,.18,.42Z"/><polygon class="d" points="7.77 33.75 7.77 33.73 6.75 33.74 7.77 33.75"/><path class="d" d="M9.8,35.89c.29-.09-.57-.26-.23-.31-.21-.12-.28,.04-.46-.07,.21,.18,.05,.19,.69,.38Z"/><path class="d" d="M9.11,35.51s-.07-.06-.13-.1c.05,.05,.09,.08,.13,.1Z"/><polygon class="d" points="7.23 35.43 7.27 35.64 7.22 35.3 7.23 35.43"/><path class="d" d="M7.2,34.67l.06,.64-.03-.59s-.01,.09-.03-.05Z"/><path class="d" d="M1.81,34.8l.14,.06c.17,.03,.2,0,.25-.08h-.39Z"/><polygon class="d" points="3.56 32.98 3.52 32.99 3.98 33.38 3.56 32.98"/><path class="d" d="M4.8,31.3c-.08,0-.12,.17-.2,.18,.12-.17,.5,.49,.2-.18Z"/></g><g><path class="d" d="M54.28,33.07c.16,.15,.34-.23,.42-.27-.39-.15-.46,.38-.42,.27Z"/><path class="d" d="M52.29,33.4l.04-.17c-.08,.13-.13,.27-.2,.4l.16-.23Z"/><path class="d" d="M51.38,33.33c.05,.72,.32-.1,.47,.17v.16l.14-.57c-.23,.07-.48,.44-.61,.23Z"/><path class="d" d="M50.96,31.77c.02,.28-.11,.24,.11,.09l-.02-.07s-.05,0-.09-.02Z"/><path class="d" d="M51.05,31.79c.1-.02-.06-.23,0,0h0Z"/><path class="d" d="M50.61,31.94l.13-.25c-.02-.16-.13-.2-.09-.32-.13,.14-.1,.3-.03,.57Z"/><path class="d" d="M50.49,32.46l.06-.1c-.01-.07-.03-.09-.06,.1Z"/><path class="d" d="M50.69,32.13l-.13,.22c.02,.12,.02,.35,.06-.08-.01,.21,.01,0,.07-.14Z"/><path class="d" d="M50.76,32.24c.07,.16,.15,.26,.03,.5,.23-.09,.21-.6-.03-.5Z"/><path class="d" d="M51.3,34.06l.08,.21,.09-.24c-.04,.12-.16-.2-.16,.02Z"/><path class="d" d="M49.87,31.57c0,.15,.04,.4,.05,.6l.08-.18c-.04-.1-.13-.2-.14-.42Z"/><path class="d" d="M49.92,32.17l-.13,.26c.11,.03,.13-.09,.13-.26Z"/><polygon class="d" points="50.47 33.25 50.68 32.71 50.42 33.26 50.47 33.25"/><polygon class="d" points="49.37 31.56 49.44 31.2 49.32 31.74 49.37 31.56"/><path class="d" d="M49.05,31.62c.05-.29-.08-.49-.03-.67-.09,.05-.16,.31-.22,.53,.07-.13,.15-.1,.25,.14Z"/><path class="d" d="M48.7,31.81c.03-.07,.07-.2,.1-.33-.04,.07-.07,.17-.1,.33Z"/><path class="d" d="M49.57,32.36c-.01-.09-.03-.33-.11-.43l.06,.43h.05Z"/><path class="d" d="M49.53,32.37h0l-.11-.04,.11,.04Z"/><path class="d" d="M49.59,32.36h-.01s0,.05,.01,0Z"/><path class="d" d="M50.13,32.86c-.08,.24-.23,.5-.08,.86,.05-.29-.04-.5,.08-.86Z"/><path class="d" d="M49.65,32.89l.14,.1c0-.11-.03-.28,0-.4l-.14,.3Z"/><polygon class="d" points="49.59 33.03 49.65 32.89 49.6 32.86 49.59 33.03"/><path class="d" d="M48.94,32.21c-.05,.19-.12,.2-.19,.23,.08,.08,.16,.13,.23,.12,0-.13,.04-.38-.04-.36Z"/><path class="d" d="M49.22,32.32v.02s0,.05,0-.02Z"/><path class="d" d="M48.06,32.45v0h0Z"/><path class="d" d="M49,32.65c.06,.08,.09-.02,.12-.16-.04,.04-.09,.07-.14,.08,0,.06,0,.1,.01,.08Z"/><path class="d" d="M48.51,32.02c.03,.09,.07,.16,.1,.23-.03-.13-.09-.34-.1-.23Z"/><path class="d" d="M49.19,32.23v-.02c-.01-.09,0-.05,0,.02Z"/><path class="d" d="M49.19,32.23c-.03,.06-.05,.17-.07,.26,.03-.03,.07-.08,.09-.14l-.02-.12Z"/><path class="d" d="M47.92,35.2c0-.4,.14-.77,.28-.34,.12-.3,0-1.6-.12-2.33,0,.17,0,.33-.12,.57,.05,.22,.29,.5,.19,.86-.17,.21-.14-.14-.23-.34,.08,.49-.2,.72-.15,1.45l.14-.26c0,.11-.05,.29,0,.4Z"/><path class="d" d="M48.32,32.57l.05-.05c-.06-.07-.11-.22-.2-.53-.08,.2-.1,.34-.1,.47l.26,.05-.02,.06Z"/><path class="d" d="M48.61,32.51c-.03,.43-.16,.62-.07,1.08,.16-.03,.1-.36,.19-.55-.25,.11,.07-.24-.12-.48,.05-.07,.09-.1,.13-.12-.05-.05-.09-.12-.13-.19v.03h0c.01,.06,.02,.09,0,.06,0,0,0,0,0,0v.16c-.08-.09-.02-.11,0-.16v-.06h0l-.25,.24c.05,.06,.12,.05,.24,0Z"/><path class="d" d="M49.92,34.65s0-.07,0-.1c-.02,.05-.02,.09,0,.1Z"/><path class="d" d="M49.82,34.39c.02-.06,.03-.23,.09-.19,.05,.13,0,.21,0,.35,.03-.11,.12-.31,0-.52l-.02,.06c-.1-.15-.24-.68-.22-.74,.03,.39,.06,.66,.13,1.04Z"/><path class="d" d="M49.21,33.56l-.21,.22,.11,.37v-.22c.11,.09,.08-.19,.09-.36Z"/><polygon class="d" points="48.04 32.24 48.05 31.79 47.95 32.43 48.04 32.24"/><polygon class="d" points="47.77 32.3 47.77 31.91 47.7 32.15 47.77 32.3"/><path class="d" d="M32.54,36.6l-.06,.11s.05-.07,.06-.11Z"/><path class="d" d="M32.99,36.62v-.2c-.01,.11-.02,.19,0,.2Z"/><path class="d" d="M41.37,31.96c-.06-.38-.12-.96-.14-.51v.43c.06-.07,.11-.02,.14,.08Z"/><path class="d" d="M36.61,34.31l.02,.13,.07-.41-.09,.28Z"/><path class="d" d="M36.51,36.1l-.11-.28c.02,.1,.06,.19,.11,.28Z"/><path class="d" d="M30.05,37.05l-.08,.44c.12,0,.07-.22,.08-.44Z"/><path class="d" d="M45.28,32.44c-.06-.18-.11-.25-.17-.28,.07,.26,.11,.64,.17,.28Z"/><path class="d" d="M32.68,31.99c-.04,.08-.05,.17-.05,.26,.04-.07,.06-.16,.05-.26Z"/><path class="d" d="M44.89,32.14l.03,.11c.06-.07,.13-.12,.19-.08-.05-.19-.12-.31-.22-.02Z"/><path class="d" d="M20.65,35.56s0-.03,0-.06c-.02,.06-.01,.06,0,.06Z"/><path class="d" d="M20.04,30.57s.05,0,.08,.01c0-.03-.01-.04-.08-.01Z"/><path class="d" d="M46.71,32.13c.05-.03,0-.05,0,0h0Z"/><path class="d" d="M47,33.84s-.02,.11-.02,.21c0-.1,.01-.17,.02-.21Z"/><path class="d" d="M44.05,34.77h0c0,.08,0,.07,0,0Z"/><path class="d" d="M46.79,32.33c-.02-.05-.04-.1-.07-.13,.01,.03,.03,.08,.07,.13Z"/><path class="d" d="M46.78,32.12l.05,.04c0-.07,0-.12-.05-.04Z"/><path class="d" d="M46.63,32.15s.06,.01,.09,.04c-.01-.03-.02-.05-.01-.07-.02,0-.04,.02-.08,.02Z"/><path class="d" d="M25.89,35.33v-.04c-.09,.17-.06,.15,0,.04Z"/><path class="d" d="M39.55,36.35v0Z"/><path class="d" d="M39.33,36.66c.12-.53,.16-.46,.22-.35v-1.25l-.22,1.6Z"/><path class="d" d="M31.46,36.73l.15,.39c-.18,.64-.31,.42-.17,.97,.02-1.36,.58-.14,.59-1.5l.1,.29s-.03,.07-.06,.05c.19,.65,.14-.98,.38-.79,.09,.1,.15,.3,.09,.46l.19-.34c.05,.03,.04,.26-.01,.24l.29-.11v.04c.04-.21,.13-.54,.17-.68,.07,.19-.04,.14-.01,.31l.16-.33c.07,.35-.06,.69-.17,.64,.16,1.35,.13-.34,.46,.45l-.15,.17c.1,.77,.22,.49,.39,.97-.04-.25-.35-1.21-.18-1.55,.05,.1,.11,.15,.2-.12,0,.48,.09,.36,.21,.33v.64c.12-.19,.11-.51,.17-.8,.14,.06,.17,.56,.2,.97,.22,.1-.16-.79,.1-.92,.18,.24,.3-.02,.51-.4,.12,.22-.02,.39,.03,.57l.11-.51s.02,.17,.01,.25c.09-.2,0-.64,.15-.81,.04-.71,.3,1.03,.48,.23,.04,.18-.02,.39-.01,.64,.25-.52,.21-.38,.42-1.08l.17,.42c-.12-.48,.05-1.05,.2-1.51-.04-.23-.08-.44-.1-.53l.24-.34c.03,.11,0,.32-.05,.59l.05-.15c.08,.24,.03,.61-.04,.96l-.08-.4c-.06,.39-.12,.82-.12,1.19,.02-.07,.05-.14,.08-.17-.02,.11-.03,.2-.02,.26,0,.07,.03-.07,.07-.24l.04,.71,.02-.28,.28,.45c.23-.71,.44-1.76,.8-2.04-.1,.52-.05,.85-.08,1.47-.07-.66-.27,.27-.44,.13,.09,.07,.06,.37,.03,.47l.33-.59c-.02,.51,.05,.38,.12,.59-.02-1,.26-.66,.4-.96,0,.34-.05,.68-.2,.59,.14,.76,.27-1.17,.41-.52-.04,0-.06-.05-.08,.12,.1-.29,.31-.05,.24,.24h-.04c.24,.14,.76,.05,.85-.79,0,.11-.09,1.02-.12,1.19l.63-2.83c-.09,.73-.05,2.47-.28,2.87,.05,.11,.12,.23,.26-.02-.03-.11-.03-1.06,.03-1.12,.1,.82,.08,.44,.22,1.15-.05-.16,.1-1.3,.19-1.26-.03,.17-.07,1.13-.12,1.25l.32-1.1c-.08,.2-.08,.95-.05,1.27,0-.22,.21,.04,.28-.07l-.08-.27c.26,.19,.39-1.56,.66-1.48-.05,.23-.2,1.42-.07,1.57,.11-.57,.51-2.74,.79-3.16l.02,.33,.22-.36c-.19,.85-.67,2.64-.9,3.34,.08,.27,0,.39,.15,.37,.03,.31-.12,.46-.17,.47l.33,.23c.04-.67,.33-.65,.36-1.21l-.44,.66c.04-.67,.39-1.88,.63-1.74,.04,.27-.15,1.19-.17,1.41,.05-.23,.28-.42,.29-.25l-.14,.35c.12,.26,.31-.87,.42-.21,.05,.05,.09,.88,.14,.48-.02-.77,.18-3.14,.29-3.71,.02,.05,.24,.76,.27,1.14,.04,.61-.28,1.41-.25,1.94,.02-.18,.1-.4,.12-.47,.05,.16-.08,.56,.06,.49,.09-.68,.27,.08,.12-.57,.15-.18,.13,.15,.28,.14,0-.44,.28-1.48,.43-1.66-.02,.17-.02,.4-.01,.5,.26,.09,.38,.41,.63,.44,0,.17,.11,.38,.03,.66,.05-.12,.1-.34,.18-.35,.09,.6-.18,.07-.14,.79,.05-.39,.25-.52,.4-.76,.01-.61-.25-.14-.39,.09,.07-.84,.39-1.69,.63-2.07,.19-.2,.04,.55,.08,.43,.37,.16,.35-1.46,.63-.85,.12,.54,0,1.07,.02,1.46-.17,.2-.25-.35-.36-.33l.13,.26c-.06,.18-.18,.31-.23,.15,.09,.49,.66,.11,.96,.55,.05-.18,.14-.37,.1-.58l-.1,.08c-.09-.43,.17-.6,.05-.8,.13-.31,.26-.78,.44-.54l.04,.61c0-.18-.12-.36-.17-.18,.07-.27,.29,.83,.36,.02l-.13-.42c.12-.31,.26-.96,.43-.77-.08-.6-.04,.07-.16-.64,.11,.88-.4-.03-.23,.89-.13-.82-.21-.34-.36-1.04,0,.2,.06,.39-.07,.29l-.03,.18v0s0,.04,0,0c.03,.09,.06,.19,.07,.31-.06,.46-.27,.45-.33,.69-.08-.1,.03-.23-.01-.45l-.1,.36c-.01-.45-.19-.75-.02-1.01l-.15-.02c-.09-.25-.21-.35-.28-.17-.06-.1-.18,.49-.11,.14l-.23,.27v-.11c-.09-.04-.18,.14-.3,.23-.15,.08-.29,.06-.4-.36-.1,.1-.2,.23-.34,.09v-.39c-.12,.12-.29-.42-.38-.02-.02-1.05-.53-.28-.72-.48l-.06,.5c-.14-.04-.28,.09-.47,.28l-.03,.45c-.18,.35-.35-.35-.59-.33,.03-.17,.09-.12,.12-.01-.19-1.03-.66,.68-.85-.07-.08,.16-.12,.1-.15-.02,0,0,.01,0,.02-.02,0,0-.02,0-.03,0l-.07-.25c.02,.11,.04,.2,.06,.25-.05,0-.13,.05-.21,.16v-.48s0,0-.01,.01c-.06-.18-.08,.22-.07,.59-.04,.08-.08,.17-.12,.28,0-.78-.21,.25-.23-.59-.08,.4-.39,.28-.49,1.12,0-.11-.01-.16,.03-.17-.07-.1-.15-.2-.24,.03v-.61l-.23,.81c-.08-.38-.12-.6,.02-1.06-.31,.71-.23,.26-.49,.96l.03-.39c-.08,.01-.24,.53-.26,.2-.14-.76-.87-.15-1.3-.86,.05,1.17-.19-.53-.24,.37-.02-.28-.08-.43,0-.67-.24,.26-.34-.45-.53,.31-.02-.28,.06-.4,.04-.57-.02,.06-.08,.24-.1,.07-.02-.16,.04-.23,.08-.35-.24,.04-.29,.89-.32,1.69-.11-.38-.17-.33-.27,.19-.04-.26-.1-.54,.05-.63-.08-.04-.51-.39-.52,.25-.02-.16-.12-.05-.14,.03-.19-.04-.2-.1-.39-.04l.05,.1c-.07,.77-.15,.17-.3,.27v-.08c-.33-.55-.14,.27-.47-.37l.02,.48c-.02,1.03-.3-.61-.48-.21l.07,.27c-.1,.35-.3-1.4-.41-1.53-.02-.09,.03-.14,.07-.21-.28-.61-.03,.63-.23,.78-.04-.34,.04-.86-.1-.92-.07-.27-.38,1.1-.57,.46,.04,.26,.09,.52,0,.72-.14,.09-.4-.98-.52-.16-.02-.07-.03-.14-.03-.2-.11,.21-.35,.35-.42,.8-.11-1.66-.68,.81-.68-.72l-.33,.08v-.16c-.2-.1-.28,.26-.36,.63-.05-.1-.01-.25,0-.33-.31-.31-.34-.24-.61,.51l-.02-.5c-.08,.29-.43-.79-.75-.21,0-.06,.01-.15,.04-.22-.36,.58-.76-1.4-.95,.4l-.24,.44c.29,.15-.08,.78,.03,1.09-.12,.1-.28-.56-.13-.64l.02,.09c.09-.94-.35-.35-.31-.99-.57,0-1.09-.53-1.6-.63v.73l-.18-.06c-.03-.17-.01-.58,.11-.53-.03-.42-.25,.33-.27,.48-.23-.32,.18-.84,.1-.86l-.11,.05,.02,.09c-.11,.29-.15,.6-.31,.55-.08-.15,0-.45-.04-.48,0-.05,0-.08-.06-.03l-.22-.09,.02,.59c-.13,.27-.21-.06-.18,.61-.04-1.02-.81-.46-.86-.79-.2,.39-.34,.36-.5,.28,.02,.13-.06,.77-.2,.67,.29-1.31-.17-.62-.11-1.59-.02,.65-.43,.07-.45,.99-.1-.13,.09-.49,.07-.82-.39,.44-.54-.45-.89-.38-.05,.17-.07,.44-.21,.67l.07-.9c-.09,.06-.35,.95-.29,.34-.03,.15-.07,.37-.13,.41-.21-.49-.54-.46-.89-.5-.34-.04-.63-.24-.48-1.05-.1,.33-.17,.34-.22,.31-.01,.09-.22,.37-.34,.58,.04-.24,.1-.47,.16-.7-.41,.52-.23-.1-.63,.39l.14-.05c-.55,.53-.85,1.43-1.39,2.22,.32-.3,.23,.03,.2,.33-.03,.31,0,.59,.43,.12-.04,.2-.2,.24-.28,.45,.27-.32,.39-.36,.45-.12l-.06,.08c.47,.13,.47,.59,.88,1.03l.14-.45c.08,.1,.05,.25,.06,.38,.38-.62-.28-.15,.12-.85-.21,.95,.7,.29,.45,1.34,.16,.05,.12-.54,.28-.48l-.05,.3,.15-.35c.08,.09,.03,.46-.04,.7-.02-.04-.1,.05-.13,.06,.04,.38,.43,0,.45,.13l-.11-.22c.52-.12,.97,.36,1.52-.13v-.23c.41-.33,.22,.3,.6,.17l-.02,.05c.11-.21,.22-.3,.31-.26-.13,.24,.08,.53-.08,.8,.42-.38,.23-.31,.58-1.1v.38c.12-.32,.15-.49,.33-.56-.18,.3,.03,.57-.19,.97,.25,.85,.64-.74,.65,.45,.29-1-.24-.6-.12-.81-.03-.34,.23-.74,.33-.63,.11,.04,.04,1.33,.33,1.34-.03,0-.04,.07-.07,.06,.08,.27,.25-.33,.34,.1,.13-.61,.17,.05,.27-.73l-.28,.16c.17-.19,.39-1.1,.59-.63-.03,.16-.12,.36-.18,.47,.05,.24,.15-.14,.2,.1-.09,.79-.33,.14-.55,.73,.05,.34,.36-.54,.2,.3,.21-1.08,.28,.16,.54-.65l-.05,.47c.04-.07,.12-.29,.17-.27l-.15,.6c.2-.51,.27,.48,.45,.21-.32,0-.03-.57-.14-.93,.43-.61,.14,1.25,.6,1.05-.06,.06-.21-.3-.1-.51,.08,.1,.18,.29,.22,.54,.3-.08-.02-.49,.12-.77,.07,.58,.16-.23,.29-.4l-.02,.48c.31,.32,.13-1,.41-.61l-.15,.66,.16-.17-.06,.55c.19-.4,.23-.29,.39-.13-.03-.34,.05-.87,.2-.88,.09,.29-.07,.46,.14,.4-.06,.3-.12,.68-.19,.23l-.07,.46c.1,.33,.27,.09,.34,.08-.03-.02-.06-.05-.08-.12l.32-.66c.04,.18,0,.33-.04,.47,.06-.05,.11-.27,.2-.31-.03,.39-.04,.8-.17,.98l.3-.43c.01,.17,.14,.47,.1,.61,.16,.23,.4-.75,.61-.44,.01-.08,.03-.15,.08-.2,.19,.09,.36,.57,.6,.04l.13,.7c.18-.16-.17-.89,.13-1.15,.21-.22,.08,.6,.15,.8,.11-.35,.29-1.07,.48-.5-.06,.13-.11,.03-.17,.08Zm2.19-.33c-.04,.1-.12,.41-.16,.13,.04-.55,.08-.29,.16-.13Zm3.25-1.16c-.03,.16-.08,.08-.13-.11,.04-.04,.08-.02,.13,.11Zm9.22-2.72v.02c-.09-.19-.06-.11,0-.02Zm.18,.21c.02-.07,.02-.13,.01-.2-.01,.12-.05,.13-.1,.1,.01,.13,.03,.21,.09,.11Zm-20.7-.69l.02,.13c-.1,.13-.06,0-.02-.13Z"/><path class="d" d="M36.53,35.89c-.01-.08-.01-.17-.01-.26-.02,.08-.02,.17,.01,.26Z"/><polygon class="d" points="30.07 36.97 30.06 36.97 30.05 37.05 30.07 36.97"/><path class="d" d="M43.1,36.59c-.03-.07-.05-.16-.05-.26-.01,.12,0,.22,.05,.26Z"/><path class="d" d="M47.27,31.9l-.12,.13c.06-.02,.08,.08,.11,.16,0-.11-.03-.28,0-.28Z"/><path class="d" d="M48.41,34.87c.02-.06,.04,0,.06-.07v-.22c-.09,.02-.14,.2-.06,.29Z"/><path class="d" d="M47.42,33.5c.02,.41,.09,.27,.18,.19,0,0-.01,0-.02,0,.01-.57-.07-.38-.16-.19Z"/><path class="d" d="M47.61,33.68s.05-.03,.08-.01c0-.23-.03-.05-.08,.01Z"/><path class="d" d="M46.53,32.46c.04,.1,.02-.52,.05-.35,.04-.52-.26,.63-.05,.35Z"/><polygon class="d" points="47.51 34.84 47.47 34.34 47.43 34.74 47.51 34.84"/><path class="d" d="M46.82,34.48l.14,.14c0-.08,.01-.13,.03-.17-.09-.02-.18-.11-.18,.03Z"/><path class="d" d="M46.99,34.45s.09,0,.11-.08c-.02,0-.08,.02-.11,.08Z"/><polygon class="d" points="47.32 34.99 47.28 34.89 47.18 34.85 47.32 34.99"/><path class="d" d="M45.35,34.36l-.16,.13c-.03,.17,0,.28,.06,.21,.05-.12,.1-.18,.09-.35Z"/><path class="d" d="M45.75,35.75c-.04-.11-.04-.22-.06-.38l-.03,.62,.08-.24Z"/><path class="d" d="M45.26,35.87c-.03,.17-.3,.47-.07,.45,.03-.17,.22-.3,.07-.45Z"/><polygon class="d" points="43.02 34.87 43.06 34.87 43.15 33.85 43.02 34.87"/><path class="d" d="M40.82,37.13c.16,.26,.09-.62,.23-.31,.06-.24-.11-.26-.05-.46-.13,.24-.17,.1-.17,.77Z"/><path class="d" d="M41,36.36s.04-.09,.07-.15c-.04,.06-.05,.11-.07,.15Z"/><polygon class="d" points="20.12 29.96 20.19 29.75 20.03 30.05 20.12 29.96"/><path class="d" d="M19.54,30.48l.39-.52-.41,.43s.1-.04,.02,.09Z"/><path class="d" d="M33.99,37.71v-.16c-.01-.17-.04-.18-.09-.21l.09,.36Z"/><polygon class="d" points="32.39 37.23 32.42 37.25 32.37 36.66 32.39 37.23"/><path class="d" d="M31.04,37.98c.06,.02,.12-.11,.18-.08-.12,.11-.19-.65-.18,.08Z"/></g></g></g></g></svg>