<?xml version="1.0" encoding="UTF-8"?><svg xmlns="http://www.w3.org/2000/svg" viewBox="0 0 72.05 37.67"><g id="a"/><g id="b"><g id="c"><g><g><path d="M66.48,2.17c.09,.05,.11-.37,.13-.45-.18,.08-.14,.56-.13,.45Z"/><polygon points="64.76 2.95 64.81 2.78 64.52 3.17 64.76 2.95"/><path d="M63.25,2.78c.07,.73,.56-.06,.8,.22l.03,.17,.18-.56c-.34,.06-.8,.39-1.01,.17Z"/><path d="M62.59,1.16c.02,.28-.2,.22,.18,.11-.02-.03-.02-.05-.03-.07-.03,0-.08,0-.15-.03Z"/><path d="M62.74,1.2c.16,0-.08-.24,0,0h0Z"/><path d="M61.99,1.29l.23-.23c-.03-.17-.21-.22-.13-.33-.23,.12-.2,.28-.1,.56Z"/><path d="M61.74,1.79l.12-.1c-.01-.07-.04-.1-.12,.1Z"/><path d="M62.11,1.49l-.25,.2c.02,.12,0,.35,.11-.07-.04,.21,.03,.01,.14-.13Z"/><path d="M62.23,1.61c.1,.16,.25,.27,.01,.5,.41-.06,.4-.57-.01-.5Z"/><path d="M63.1,3.51l.14,.22,.16-.22c-.08,.11-.28-.22-.3,0Z"/><path d="M60.7,.81c-.03,.15,.04,.41,.04,.6l.17-.16c-.07-.11-.22-.22-.21-.44Z"/><path d="M60.74,1.41l-.26,.24c.21,.05,.25-.07,.26-.24Z"/><polygon points="61.63 2.58 62.06 2.06 61.56 2.58 61.63 2.58"/><polygon points="59.81 .72 59.97 .38 59.69 .89 59.81 .72"/><path d="M59.21,.73c.12-.28-.1-.5,.02-.67-.17,.04-.32,.28-.46,.49,.14-.11,.28-.07,.44,.18Z"/><path d="M58.54,.85c.07-.06,.15-.18,.23-.31-.08,.06-.15,.15-.23,.31Z"/><path d="M60.09,1.55c-.01-.09-.03-.34-.15-.45l.06,.43h.09Z"/><path d="M60,1.55h0l-.2-.05s.08,.02,.2,.05Z"/><path d="M60.11,1.55h-.02s0,.05,.02,0Z"/><path d="M61.05,2.14c-.16,.23-.46,.46-.22,.84,.12-.28-.02-.5,.22-.84Z"/><path d="M60.18,2.09l.24,.12c0-.11-.03-.28,.05-.39l-.29,.27Z"/><polygon points="60.05 2.22 60.18 2.09 60.09 2.05 60.05 2.22"/><path d="M58.93,1.29c-.12,.18-.24,.18-.37,.2,.14,.1,.28,.15,.42,.16,.03-.13,.11-.37-.04-.36Z"/><path d="M59.45,1.45l-.03,.02s.02,.05,.03-.02Z"/><path d="M57.26,1.4l.02,.08v-.07h-.02Z"/><path d="M58.99,1.73c.1,.09,.17,0,.24-.13-.08,.04-.17,.06-.26,.05-.01,.06-.02,.1,.02,.08Z"/><path d="M58.16,1.03c.05,.09,.11,.17,.17,.25-.04-.14-.14-.36-.17-.25Z"/><path d="M59.4,1.35s.01-.01,.02-.02c-.03-.09-.03-.05-.02,.02Z"/><path d="M59.4,1.35c-.06,.06-.11,.16-.16,.25,.07-.03,.13-.07,.19-.13-.01-.03-.02-.08-.03-.12Z"/><path d="M56.67,4.11c.05-.39,.35-.74,.56-.3,.26-.28,.2-1.59,.04-2.33-.02,.17-.03,.33-.29,.55,.07,.22,.51,.54,.27,.88-.34,.18-.25-.16-.4-.38,.1,.5-.46,.69-.44,1.42l.3-.24c0,.11-.12,.29-.05,.39Z"/><path d="M57.73,1.55l.1-.04c-.11-.08-.18-.24-.31-.56-.18,.18-.23,.33-.25,.46l.49,.09-.04,.06Z"/><path d="M58.29,1.53c-.11,.42-.37,.59-.25,1.07,.3-.01,.23-.35,.42-.52-.48,.07,.15-.23-.17-.5,.1-.07,.19-.08,.27-.09-.08-.06-.16-.13-.23-.22v.03h.01c.02,.06,.02,.09,0,.06,0,0-.01,0-.01,0,0,.06-.02,.11-.03,.16-.13-.1-.01-.11,.03-.16v-.06h0l-.5,.2c.1,.07,.22,.06,.45,.03Z"/><path d="M60.5,3.89s0-.07,0-.1c-.04,.05-.05,.09,0,.1Z"/><path d="M60.33,3.61c.04-.06,.08-.23,.19-.17,.09,.14-.02,.21-.03,.35,.08-.11,.26-.29,.07-.51l-.04,.06c-.18-.16-.38-.72-.34-.78,.02,.39,.05,.67,.14,1.06Z"/><path d="M59.29,2.68l-.41,.18,.17,.39v-.22c.23,.11,.2-.17,.24-.34Z"/><polygon points="57.22 1.18 57.31 .73 57.03 1.35 57.22 1.18"/><polygon points="56.7 1.2 56.75 .81 56.6 1.03 56.7 1.2"/><path d="M27.7,5.81l-.11,.12c.05-.04,.09-.08,.11-.12Z"/><path d="M28.53,5.8v-.2c-.02,.11-.03,.19,0,.2Z"/><path d="M43.99,.71c-.16-.37-.35-.95-.33-.5l.05,.43c.12-.08,.21-.03,.29,.07Z"/><path d="M35.32,3.3l.05,.13,.11-.42c-.05,.09-.1,.18-.16,.29Z"/><path d="M35.23,5.1l-.23-.28c.05,.1,.12,.19,.23,.28Z"/><path d="M23.19,6.5l-.11,.45c.21-.02,.1-.23,.11-.45Z"/><path d="M51.39,1.06c-.14-.18-.25-.25-.36-.28,.17,.26,.29,.64,.36,.28Z"/><path d="M27.83,1.19c-.07,.08-.09,.17-.09,.27,.07-.08,.11-.16,.09-.27Z"/><path d="M50.61,.76s.05,.07,.07,.11c.11-.07,.22-.12,.35-.09-.12-.19-.27-.31-.43-.02Z"/><path d="M6.75,7.62s-.03-.03-.04-.05c0,.06,.02,.06,.04,.05Z"/><path d="M1.39,3.9s.12-.04,.19-.06c-.04-.02-.1-.01-.19,.06Z"/><path d="M54.63,.87c.11-.02,.02-.05,0,0h0Z"/><path d="M55.06,2.62s-.05,.11-.06,.21c.02-.1,.03-.17,.06-.21Z"/><path d="M49.42,3.41h0c.03,.08,.02,.07,0,0Z"/><path d="M54.79,1.08c-.04-.06-.08-.1-.13-.14,.02,.04,.06,.08,.13,.14Z"/><path d="M54.78,.87l.09,.05c.02-.07,0-.12-.09-.05Z"/><path d="M54.48,.89c.06,0,.12,.02,.18,.06-.02-.03-.03-.06-.02-.07-.03,0-.08,.01-.15,.01Z"/><path d="M15.43,5.55l-.03-.04c-.09,.19-.05,.16,.03,.04Z"/><path d="M41.1,5.18s0-.02,.01-.02l-.02-.02v.04Z"/><path d="M40.71,5.51c.17-.54,.26-.47,.39-.36l-.12-1.25-.26,1.61Z"/><path d="M25.72,6.02l.29,.38c-.3,.66-.54,.45-.26,.98-.03-1.36,1.04-.19,1.02-1.54l.19,.28c-.05-.01-.06,.07-.11,.06,.38,.63,.21-.99,.67-.82,.16,.1,.28,.29,.18,.45l.33-.35c.1,.02,.09,.26-.01,.24l.53-.13v.04c.06-.22,.22-.55,.3-.7,.14,.19-.06,.15-.02,.31l.28-.34c.13,.35-.1,.7-.3,.66,.33,1.34,.23-.35,.86,.42l-.27,.18c.21,.76,.41,.48,.74,.95-.08-.25-.67-1.19-.36-1.54,.09,.1,.21,.14,.38-.13,.02,.48,.18,.36,.39,.32v.64c.23-.19,.2-.52,.32-.81,.26,.06,.32,.55,.4,.96,.41,.09-.31-.79,.17-.92,.35,.23,.57-.03,.97-.43,.24,.21-.03,.39,.06,.57l.2-.52c.05,.01,.04,.17,.03,.25,.17-.2,0-.64,.27-.82,.06-.71,.6,1.01,.92,.21,.09,.18-.03,.39,0,.64,.46-.53,.4-.39,.77-1.1l.34,.41c-.25-.48,.05-1.05,.32-1.52-.09-.23-.17-.43-.22-.53l.43-.35c.05,.1,.01,.32-.05,.59l.08-.15c.16,.23,.08,.6-.02,.96l-.16-.39c-.1,.39-.2,.82-.17,1.2,.03-.07,.08-.14,.14-.18-.03,.11-.04,.2-.03,.26,.02,.07,.06-.07,.13-.24l.11,.71,.02-.28,.57,.44c.4-.72,.74-1.79,1.39-2.09-.16,.52-.03,.85-.03,1.47-.18-.65-.5,.29-.83,.16,.18,.07,.14,.36,.1,.47l.59-.61c0,.51,.13,.38,.29,.59-.13-1,.44-.67,.68-.97,.02,.34-.04,.68-.34,.6,.33,.75,.42-1.18,.74-.54-.07,0-.11-.04-.14,.13,.17-.3,.58-.06,.49,.23h-.07c.48,.13,1.46,.01,1.54-.84,0,.11-.07,1.03-.1,1.2l.87-2.86c-.08,.73,.2,2.47-.2,2.88,.11,.1,.25,.23,.5-.03-.08-.1-.19-1.06-.08-1.12,.29,.82,.2,.44,.55,1.14-.12-.16,.02-1.3,.21-1.26-.03,.17,0,1.13-.06,1.25l.47-1.12c-.12,.2-.03,.95,.07,1.27-.04-.22,.4,.03,.52-.08l-.19-.26c.52,.18,.54-1.57,1.05-1.51-.07,.23-.18,1.43,.08,1.57,.13-.57,.58-2.76,1.06-3.2l.08,.33,.36-.37c-.24,.86-.89,2.68-1.24,3.38,.19,.26,.05,.39,.34,.36,.1,.31-.17,.47-.25,.48l.67,.21c-.02-.67,.53-.67,.52-1.23l-.75,.69c-.02-.67,.47-1.9,.95-1.77,.12,.27-.12,1.19-.12,1.42,.07-.23,.47-.43,.51-.26l-.21,.35c.26,.26,.46-.88,.76-.23,.11,.05,.3,.88,.34,.48-.16-.77-.13-3.15,.01-3.72,.04,.05,.57,.75,.68,1.13,.16,.61-.32,1.42-.18,1.95,.01-.18,.12-.41,.16-.48,.11,.16-.07,.57,.19,.49,.06-.68,.51,.07,.14-.57,.25-.19,.26,.15,.55,.13-.08-.44,.32-1.49,.57-1.68-.02,.17,.03,.4,.05,.5,.51,.08,.77,.4,1.24,.43,.04,.17,.26,.38,.15,.67,.07-.12,.15-.34,.29-.35,.26,.6-.33,.08-.15,.79,.04-.39,.4-.53,.62-.76-.04-.61-.48-.14-.7,.1,.04-.84,.44-1.71,.96-2.07,.41-.19,.15,.55,.22,.44,.74,.18,.71-1.44,1.3-.8,.22,.55-.05,1.07-.01,1.46-.33,.19-.48-.36-.7-.35l.26,.27c-.11,.17-.33,.3-.44,.14,.18,.49,1.25,.15,1.79,.63,.11-.17,.3-.35,.23-.57l-.19,.06c-.14-.44,.38-.58,.16-.79,.26-.29,.56-.75,.89-.48l.03,.62c0-.18-.2-.38-.31-.2,.16-.26,.47,.86,.68,.07l-.21-.44c.26-.29,.61-.92,.9-.71-.1-.61-.07,.06-.25-.66,.13,.89-.78-.09-.54,.86-.17-.84-.36-.37-.61-1.09,0,.2,.08,.39-.17,.28-.02,.06-.05,.13-.07,.17l-.02-.02v.02s0,.04,.02,0c.06,.09,.1,.2,.11,.32-.16,.46-.56,.41-.71,.64-.15-.1,.08-.23,0-.45l-.23,.35c0-.45-.36-.76,.01-1.01l-.32-.04c-.18-.26-.43-.37-.61-.19-.15-.1-.41,.48-.26,.13l-.52,.25v-.11c-.5-.08-1.06,.69-1.6-.15-.17,.1-.35,.24-.63,.09l-.04-.39c-.22,.13-.64-.41-.74,0-.2-1.05-1.04-.26-1.42-.46l-.03,.51c-.26-.04-.52,.1-.85,.29v.45c-.28,.36-.7-.34-1.15-.31,.03-.17,.15-.12,.22-.02-.51-1.03-1.13,.72-1.6-.03-.12,.16-.21,.1-.29,0,.01,0,.02,0,.03-.02-.01,0-.03,0-.05,0-.05-.08-.1-.17-.16-.24,.05,.11,.09,.2,.14,.24-.09,0-.23,.06-.37,.17l-.05-.48s-.02,0-.03,.01c-.13-.18-.11,.23-.05,.59-.07,.08-.13,.17-.19,.29-.1-.78-.36,.26-.5-.58-.1,.4-.69,.29-.77,1.14,0-.11-.04-.16,.03-.17-.15-.1-.3-.2-.44,.04l-.06-.61-.34,.82c-.2-.37-.28-.59-.08-1.06-.49,.72-.4,.27-.81,.99l.02-.4c-.15,.02-.38,.55-.47,.22-.33-.75-1.63-.1-2.48-.8,.17,1.16-.4-.52-.42,.39-.05-.27-.17-.43-.04-.67-.43,.28-.66-.43-.95,.34-.05-.28,.09-.41,.04-.57-.03,.06-.13,.24-.18,.08-.05-.16,.06-.23,.13-.35-.44,.05-.47,.9-.5,1.7-.23-.37-.34-.32-.49,.21-.08-.26-.22-.53,.06-.63-.15-.04-.95-.37-.95,.27-.05-.16-.22-.04-.26,.03-.35-.03-.38-.09-.72-.02l.1,.1c-.12,.77-.28,.18-.55,.28v-.08c-.64-.54-.26,.28-.89-.34l.05,.48c-.03,1.03-.57-.59-.91-.19l.14,.27c-.18,.36-.59-1.39-.8-1.51-.05-.09,.06-.15,.12-.21-.54-.59-.05,.63-.43,.79-.08-.34,.06-.86-.2-.92-.14-.27-.71,1.12-1.09,.49,.09,.26,.18,.51,0,.72-.27,.11-.78-.95-.99-.12-.04-.07-.05-.14-.06-.2-.2,.22-.66,.38-.77,.84-.27-1.65-1.26,.86-1.33-.66l-.64,.11v-.16c-.41-.08-.53,.3-.66,.67-.1-.1-.04-.24-.04-.32-.62-.27-.68-.2-1.13,.59l-.08-.49c-.12,.3-.92-.72-1.47-.11,0-.06,0-.15,.05-.23-.62,.62-1.68-1.27-1.8,.55l-.4,.48c.57,.1-.03,.79,.23,1.07-.21,.12-.61-.5-.35-.61l.05,.09c.03-.95-.73-.28-.76-.92-1.11,.13-2.24-.31-3.28-.25l.18,.72h-.37c-.11-.17-.18-.57,.08-.56-.17-.4-.4,.39-.4,.54-.53-.25,.12-.87-.03-.87l-.21,.07,.06,.08c-.14,.31-.13,.63-.45,.62-.21-.13-.14-.44-.22-.46,0-.05-.03-.07-.12-.01l-.46-.02,.24,.56c-.18,.3-.43,0-.16,.64-.4-.98-1.74-.2-1.96-.49-.24,.45-.52,.47-.87,.46,.1,.11,.22,.75-.09,.7-.03-1.34-.61-.52-.95-1.45,.28,.61-.83,.25-.4,1.11-.26-.08-.07-.5-.29-.79-.54,.57-1.35-.19-2.06,.07,0,.18,.16,.43,.04,.71l-.49-.83c-.14,.1-.01,1.02-.35,.45,.06,.14,.14,.36,.05,.42-1.54-.68-2.84,1.06-4.51-.34,.24,.31,.12,.36-.03,.4,.11,.07,.06,.43,.11,.66l-.7-.57c-.02,.67-.65,.13-.62,.77l.18-.14c-.15,.77,.59,1.59,.69,2.55,.17-.88,.92,1.14,1.22-.12,.13,.18-.05,.32,.04,.53,.06-.42,.19-.53,.48-.38l-.02,.1c.73-.2,1.1,.15,1.97,.32l-.12-.46c.19,.04,.24,.18,.34,.29,.12-.74-.51,.02-.42-.79,.36,.93,1.27-.14,1.56,.93,.28-.03-.15-.53,.13-.56l.11,.29,.02-.39c.19,.04,.32,.4,.36,.65-.05-.02-.12,.08-.16,.11,.28,.32,.65-.2,.74-.09l-.29-.15c.72-.37,1.68-.09,2.35-.76l-.08-.22c.51-.47,.47,.2,1.06-.06l-.02,.06c.1-.23,.25-.36,.42-.36-.13,.28,.34,.48,.17,.78,.56-.51,.26-.38,.58-1.25l.13,.36c.1-.35,.1-.53,.39-.65-.22,.34,.25,.54,.01,.99,.72,.74,.87-.9,1.28,.25,.2-1.05-.61-.52-.47-.75-.17-.32,.17-.79,.38-.7,.21,0,.47,1.28,.99,1.21-.05,0-.05,.08-.1,.08,.22,.24,.35-.39,.62,.01,.08-.63,.31,0,.28-.78l-.46,.23c.25-.23,.42-1.18,.9-.77-.02,.16-.13,.38-.21,.51,.15,.22,.24-.18,.39,.05,.03,.79-.56,.22-.79,.85,.17,.32,.49-.62,.42,.25,.11-1.11,.52,.09,.8-.77l.02,.48c.05-.08,.14-.31,.25-.31l-.13,.63c.24-.55,.58,.41,.83,.11-.57,.06-.17-.56-.44-.89,.65-.69,.5,1.21,1.27,.92-.1,.07-.42-.25-.27-.49,.16,.09,.37,.25,.48,.49,.51-.14-.12-.48,.08-.79,.22,.56,.24-.25,.45-.46l.04,.48c.61,.26,.08-1.01,.64-.68l-.18,.68,.27-.19-.02,.55c.27-.43,.37-.33,.68-.2-.09-.33-.02-.88,.24-.91,.2,.27-.07,.47,.3,.37-.06,.31-.13,.69-.32,.26,0,.16-.06,.31-.07,.46,.22,.31,.49,.04,.62,.03-.05-.01-.12-.04-.15-.1l.49-.7c.1,.18,.04,.32-.02,.47,.11-.06,.17-.28,.32-.34-.02,.39,.02,.8-.19,1l.48-.47c.05,.17,.29,.45,.24,.6,.3,.21,.65-.8,1.04-.52,.01-.08,.05-.15,.13-.21,.36,.07,.7,.53,1.09-.03l.28,.69c.32-.18-.37-.86,.16-1.16,.38-.25,.18,.59,.32,.78,.17-.36,.47-1.1,.86-.54-.11,.14-.21,.04-.32,.1Zm4.05-.49c-.08,.1-.22,.42-.29,.14,.07-.56,.15-.29,.29-.14Zm6.17-1.31c-.06,.16-.15,.08-.25-.1,.07-.04,.16-.02,.25,.1ZM53.41,1.2v.02c-.18-.2-.12-.12,0-.02Zm.36,.23c.04-.07,.04-.13,.03-.2-.03,.12-.12,.12-.21,.09,.02,.13,.06,.22,.18,.11ZM13.98,2.42l.08,.12c-.15,.15-.12,.02-.08-.12Z"/><path d="M35.24,4.89c-.02-.08-.03-.17-.04-.26-.03,.08-.03,.18,.04,.26Z"/><path d="M23.21,6.42s0,0-.01,0c0,.03,0,.06,0,.09l.02-.08Z"/><path d="M47.89,5.27c-.07-.07-.11-.16-.14-.25,0,.12,.02,.22,.14,.25Z"/><path d="M55.78,.73l-.25,.11c.12-.02,.15,.09,.2,.17,0-.11-.03-.28,.04-.28Z"/><path d="M57.63,3.84c.04-.06,.07,0,.11-.06v-.22c-.14,0-.26,.18-.11,.28Z"/><path d="M55.9,2.34c0,.41,.15,.28,.32,.21-.01,0-.02,0-.03,0,.09-.56-.1-.39-.29-.21Z"/><path d="M56.26,2.55c.05-.02,.11-.02,.15,0,.03-.23-.06-.05-.15,0Z"/><path d="M54.25,1.18c.07,.11,.08-.51,.11-.35,.12-.51-.56,.59-.11,.35Z"/><polygon points="55.95 3.69 55.92 3.18 55.8 3.58 55.95 3.69"/><path d="M54.67,3.23l.26,.16c0-.08,.04-.13,.08-.17-.16-.03-.33-.14-.34,.01Z"/><path d="M55,3.22c.08,.02,.17,.01,.22-.07-.05,0-.15,.01-.22,.07Z"/><polygon points="55.58 3.81 55.51 3.7 55.32 3.66 55.58 3.81"/><path d="M51.83,2.99l-.29,.13c-.04,.17,.04,.28,.15,.22,.07-.12,.18-.18,.15-.35Z"/><path d="M52.64,4.4c-.07-.11-.07-.22-.11-.39l-.04,.62,.15-.23Z"/><path d="M51.79,4.51c-.04,.17-.44,.47-.07,.45,.04-.17,.33-.3,.07-.45Z"/><polygon points="47.5 3.55 47.57 3.55 47.59 2.53 47.5 3.55"/><path d="M43.64,5.9c.33,.25,.09-.63,.39-.32,.08-.24-.25-.25-.16-.46-.21,.25-.31,.11-.23,.78Z"/><path d="M43.87,5.12s.07-.09,.11-.15c-.06,.06-.09,.11-.11,.15Z"/><polygon points=".51 3.47 .26 3.29 .45 3.61 .51 3.47"/><path d="M.19,4.27L.05,3.64l-.05,.6s.13-.1,.19,.04Z"/><path d="M30.42,6.82v-.16c-.03-.17-.08-.18-.18-.2l.18,.36Z"/><polygon points="27.46 6.45 27.51 6.47 27.39 5.88 27.46 6.45"/><path d="M25.03,7.32c.1,.02,.21-.12,.32-.1-.21,.12-.38-.63-.32,.1Z"/></g><g><path d="M71.79,18.22c.1,.03,.04-.38,.05-.46-.16,.1-.04,.57-.05,.46Z"/><polygon points="70.18 19.24 70.21 19.07 69.97 19.5 70.18 19.24"/><path d="M68.62,19.26c.15,.71,.57-.12,.85,.13l.05,.16,.12-.58c-.33,.09-.77,.48-1.01,.28Z"/><path d="M67.8,17.71c.05,.28-.18,.24,.19,.09-.02-.03-.02-.05-.03-.07-.03,0-.08,0-.16-.02Z"/><path d="M67.96,17.73c.16-.02-.1-.24,0,0h0Z"/><path d="M67.21,17.87l.22-.24c-.04-.16-.23-.21-.16-.32-.22,.13-.18,.3-.06,.57Z"/><path d="M66.99,18.39l.11-.1c-.02-.07-.05-.09-.11,.1Z"/><path d="M67.35,18.07l-.24,.22c.03,.12,.03,.35,.11-.08-.02,.21,.03,0,.13-.14Z"/><path d="M67.48,18.18c.12,.16,.27,.26,.05,.5,.41-.09,.36-.59-.05-.5Z"/><path d="M68.54,20l.17,.21,.14-.24c-.07,.12-.32-.19-.31,.03Z"/><path d="M65.89,17.47c-.02,.15,.06,.41,.07,.6l.16-.17c-.08-.11-.23-.21-.23-.43Z"/><path d="M65.95,18.07l-.25,.25c.21,.04,.26-.08,.25-.25Z"/><polygon points="66.94 19.18 67.34 18.64 66.86 19.19 66.94 19.18"/><polygon points="64.99 17.41 65.14 17.07 64.87 17.59 64.99 17.41"/><path d="M64.38,17.44c.12-.28-.11-.5,0-.67-.17,.04-.32,.28-.46,.5,.14-.12,.28-.08,.45,.17Z"/><path d="M63.7,17.58c.07-.07,.15-.19,.23-.31-.07,.06-.15,.16-.23,.31Z"/><path d="M65.3,18.23c-.01-.09-.04-.33-.17-.44l.07,.43h.09Z"/><path d="M65.21,18.23h0c-.1-.03-.17-.04-.2-.05,.03,0,.09,.02,.2,.05Z"/><path d="M65.33,18.23h-.02s.01,.05,.02,0Z"/><path d="M66.32,18.78c-.15,.23-.45,.48-.18,.85,.11-.29-.05-.5,.18-.85Z"/><path d="M65.42,18.77l.25,.11c0-.11-.04-.28,.03-.4l-.29,.29Z"/><polygon points="65.29 18.9 65.42 18.77 65.33 18.73 65.29 18.9"/><path d="M64.11,18.01c-.12,.18-.24,.19-.38,.21,.14,.09,.29,.15,.43,.16,.03-.13,.1-.37-.05-.36Z"/><path d="M64.64,18.16l-.03,.02s.02,.05,.03-.02Z"/><path d="M62.39,18.13l.02,.08v-.07h-.02Z"/><path d="M64.18,18.45c.11,.09,.18-.01,.25-.14-.08,.04-.17,.06-.27,.06-.01,.06-.02,.1,.02,.08Z"/><path d="M63.32,17.76c.05,.09,.11,.17,.17,.25-.05-.14-.15-.36-.17-.25Z"/><path d="M64.59,18.06s.01-.01,.02-.02c-.03-.09-.03-.05-.02,.02Z"/><path d="M64.59,18.06c-.06,.06-.11,.16-.16,.25,.07-.03,.13-.07,.19-.13-.01-.03-.02-.08-.03-.12Z"/><path d="M61.78,20.83c.05-.39,.37-.74,.59-.29,.27-.28,.2-1.59,.04-2.33-.02,.17-.03,.33-.3,.54,.07,.22,.53,.55,.29,.89-.35,.18-.27-.16-.41-.38,.1,.5-.49,.68-.47,1.41l.32-.23c0,.11-.13,.28-.05,.39Z"/><path d="M62.89,18.28l.11-.04c-.11-.08-.19-.24-.32-.56-.19,.18-.23,.32-.25,.45l.51,.09-.04,.06Z"/><path d="M63.46,18.27c-.11,.43-.37,.59-.25,1.07,.31-.01,.24-.35,.43-.52-.5,.08,.16-.23-.18-.5,.1-.07,.19-.08,.27-.1-.09-.06-.17-.13-.24-.21v.03h.01c.02,.06,.02,.09,0,.06,0,0-.01,0-.01,0,0,.06-.02,.11-.03,.16-.14-.1-.02-.11,.03-.16v-.06h0l-.51,.2c.1,.07,.23,.06,.46,.03Z"/><path d="M65.84,20.55s-.01-.07-.01-.1c-.03,.05-.05,.09,.01,.1Z"/><path d="M65.64,20.28c.04-.06,.08-.23,.19-.18,.1,.13,0,.21,0,.35,.08-.11,.26-.3,.04-.52l-.04,.06c-.2-.16-.43-.7-.39-.76,.04,.39,.08,.67,.2,1.05Z"/><path d="M64.52,19.39l-.43,.19,.19,.39v-.22c.23,.1,.2-.18,.23-.35Z"/><polygon points="62.36 17.91 62.45 17.46 62.17 18.08 62.36 17.91"/><polygon points="61.83 17.92 61.88 17.53 61.72 17.76 61.83 17.92"/><path d="M30.93,20.46l-.12,.11c.06-.03,.1-.07,.12-.11Z"/><path d="M31.81,20.51l.03-.19c-.04,.11-.06,.18-.03,.19Z"/><path d="M48.57,16.58c-.14-.39-.29-.98-.31-.53v.44c.15-.06,.24,0,.31,.1Z"/><path d="M39.18,18.49l.05,.13,.14-.41c-.06,.09-.12,.18-.19,.27Z"/><path d="M38.96,20.28l-.22-.29c.05,.1,.12,.2,.22,.29Z"/><path d="M26.1,20.85l-.14,.44c.22,0,.13-.22,.14-.44Z"/><path d="M56.33,17.55c-.13-.19-.25-.27-.35-.3,.16,.27,.27,.66,.35,.3Z"/><path d="M31.39,15.87c-.08,.08-.11,.16-.11,.26,.08-.07,.13-.15,.11-.26Z"/><path d="M55.54,17.21s.05,.07,.07,.11c.12-.06,.24-.11,.37-.06-.12-.2-.26-.33-.44-.05Z"/><path d="M8.66,21.11s-.03-.03-.04-.05c0,.06,.02,.06,.04,.05Z"/><path d="M3.15,17.23s.13-.04,.21-.06c-.04-.03-.1-.02-.21,.06Z"/><path d="M59.7,17.55c.12-.02,.02-.05,0,0h0Z"/><path d="M60.09,19.31s-.05,.11-.06,.21c.02-.1,.04-.17,.06-.21Z"/><path d="M54.09,19.76h0c.02,.09,.02,.07,0,0Z"/><path d="M59.85,17.76c-.04-.06-.08-.11-.13-.14,.02,.04,.06,.08,.13,.14Z"/><path d="M59.85,17.55l.1,.05c.02-.07,.01-.12-.1-.05Z"/><path d="M59.54,17.56c.07,0,.12,.03,.18,.06-.02-.03-.03-.06-.02-.07-.03,0-.08,0-.16,0Z"/><path d="M17.96,19.43l-.03-.04c-.11,.18-.06,.15,.03,.04Z"/><path d="M45.15,20.78s0-.02,.01-.02l-.02-.02v.04Z"/><path d="M44.72,21.07c.22-.52,.31-.45,.43-.33l-.03-1.26-.4,1.58Z"/><path d="M28.81,20.54l.28,.39c-.36,.64-.61,.41-.34,.96,.06-1.36,1.12-.12,1.19-1.47l.18,.29c-.05-.01-.06,.07-.12,.05,.36,.66,.3-.98,.77-.77,.16,.11,.28,.31,.16,.47l.38-.33c.11,.03,.07,.26-.03,.24l.57-.09v.04c.08-.21,.27-.53,.37-.67,.14,.2-.08,.14-.04,.31l.32-.32c.12,.36-.15,.69-.37,.63,.25,1.36,.27-.33,.88,.48l-.3,.16c.17,.78,.41,.5,.72,.99-.07-.25-.63-1.23-.28-1.56,.09,.11,.22,.16,.41-.11-.01,.48,.17,.37,.39,.35l-.04,.64c.25-.18,.24-.5,.39-.78,.27,.07,.31,.57,.35,.99,.43,.12-.27-.81,.25-.91,.35,.26,.61,0,1.06-.36,.24,.23-.06,.39,.02,.58l.24-.5c.05,.01,.03,.17,.02,.25,.2-.19,.04-.64,.35-.8,.11-.7,.56,1.06,.97,.27,.08,.19-.06,.39-.04,.64,.53-.5,.45-.36,.89-1.05l.33,.44c-.24-.49,.12-1.04,.43-1.5-.08-.24-.15-.44-.2-.54l.48-.32c.05,.11,0,.32-.1,.59l.09-.15c.15,.24,.05,.61-.09,.96-.05-.13-.1-.27-.15-.4-.13,.38-.26,.81-.25,1.18,.03-.07,.09-.13,.16-.17-.03,.1-.06,.2-.05,.26,.01,.07,.07-.07,.15-.23l.07,.72,.04-.28,.58,.48c.47-.69,.9-1.73,1.6-1.99-.2,.51-.08,.85-.12,1.47-.15-.66-.55,.25-.9,.1,.18,.08,.13,.37,.07,.47l.67-.56c-.04,.51,.11,.39,.27,.6-.07-1.01,.51-.64,.78-.93,0,.34-.09,.68-.39,.57,.3,.77,.51-1.15,.81-.48-.08,0-.11-.05-.16,.12,.2-.29,.62-.02,.49,.26h-.08c.49,.15,1.53,.12,1.68-.72,0,.11-.15,1.02-.19,1.19l1.15-2.78c-.14,.72,.01,2.48-.44,2.86,.11,.11,.25,.25,.52,.01-.07-.11-.11-1.07,0-1.13,.24,.84,.18,.45,.49,1.18-.11-.17,.13-1.3,.33-1.24-.05,.17-.09,1.13-.17,1.24l.59-1.07c-.14,.19-.11,.95-.04,1.27-.03-.22,.42,.06,.56-.04l-.18-.28c.53,.22,.7-1.52,1.24-1.4-.09,.22-.31,1.41-.05,1.57,.18-.56,.85-2.7,1.39-3.08l.06,.34,.41-.33c-.33,.84-1.17,2.58-1.6,3.25,.18,.28,.02,.39,.33,.39,.08,.32-.22,.45-.31,.46l.69,.27c.04-.67,.62-.61,.65-1.17l-.85,.61c.04-.67,.66-1.85,1.15-1.67,.1,.28-.23,1.18-.24,1.4,.09-.22,.53-.39,.56-.22l-.25,.33c.25,.28,.56-.84,.83-.16,.11,.06,.25,.9,.32,.51-.11-.78,.12-3.15,.31-3.7,.04,.06,.54,.8,.63,1.19,.13,.62-.45,1.39-.34,1.92,.03-.18,.16-.39,.21-.46,.11,.17-.11,.56,.16,.51,.12-.67,.54,.12,.19-.56,.28-.16,.26,.17,.58,.18-.05-.45,.45-1.46,.73-1.62-.03,.17,0,.4,.02,.51,.53,.12,.79,.46,1.29,.52,.03,.17,.25,.39,.11,.67,.09-.11,.18-.33,.33-.33,.24,.62-.36,.05-.2,.78,.06-.39,.46-.5,.71-.72,0-.62-.5-.17-.75,.05,.09-.84,.57-1.68,1.14-2.01,.44-.16,.12,.56,.21,.45,.77,.23,.82-1.4,1.4-.73,.2,.56-.1,1.07-.08,1.46-.36,.17-.49-.39-.72-.39l.26,.28c-.13,.17-.37,.28-.47,.11,.17,.5,1.31,.23,1.88,.73,.13-.17,.33-.34,.26-.56l-.2,.06c-.13-.45,.42-.56,.19-.79,.28-.28,.61-.73,.95-.45v.62c.02-.18-.19-.39-.31-.21,.17-.26,.48,.88,.71,.09l-.22-.45c.28-.28,.65-.91,.95-.69-.09-.61-.08,.06-.24-.66,.12,.9-.8-.1-.57,.84-.16-.84-.37-.38-.61-1.11,0,.2,.07,.39-.18,.27-.02,.06-.05,.13-.07,.17l-.02-.02v.03s0,.04,.02,0c.05,.09,.1,.2,.11,.32-.17,.45-.6,.4-.76,.62-.15-.11,.09-.22,.02-.45l-.25,.34c.02-.45-.35-.79,.05-1.01l-.33-.05c-.17-.27-.43-.4-.62-.23-.15-.11-.45,.45-.28,.12l-.55,.22v-.11c-.51-.11-1.14,.62-1.65-.25-.19,.09-.38,.21-.66,.05v-.39c-.25,.11-.65-.46-.79-.07-.12-1.07-1.07-.35-1.45-.58l-.07,.5c-.27-.06-.55,.05-.91,.22l-.03,.45c-.33,.33-.72-.4-1.19-.41,.05-.17,.16-.11,.24,0-.45-1.07-1.25,.6-1.68-.18-.14,.15-.23,.08-.31-.04,.01,0,.02,0,.03-.02-.01,0-.03,0-.05-.01-.05-.08-.1-.18-.15-.26,.04,.11,.08,.21,.12,.25-.1,0-.25,.04-.41,.14v-.49s-.03,0-.05,.01c-.12-.19-.14,.22-.1,.58-.08,.07-.16,.16-.22,.27-.04-.79-.41,.22-.48-.62-.14,.39-.76,.23-.92,1.07,0-.11-.03-.17,.05-.17-.15-.11-.31-.22-.47,0v-.62l-.44,.79c-.18-.39-.25-.61,0-1.06-.58,.68-.44,.24-.94,.92l.05-.39c-.16,0-.45,.51-.52,.18-.29-.78-1.74-.22-2.6-.97,.11,1.17-.39-.54-.47,.36-.04-.28-.15-.44,0-.67-.47,.25-.67-.47-1.02,.27-.04-.28,.12-.4,.08-.56-.04,.06-.16,.23-.2,.07-.04-.17,.08-.23,.16-.34-.47,.02-.56,.87-.63,1.66-.22-.39-.34-.34-.53,.17-.07-.26-.19-.54,.1-.62-.16-.05-.98-.43-1.03,.21-.04-.16-.23-.06-.27,.01-.36-.05-.39-.11-.76-.07l.1,.11c-.18,.76-.31,.16-.6,.24v-.08c-.63-.58-.29,.26-.92-.4l.02,.48c-.1,1.03-.56-.63-.95-.25l.13,.28c-.22,.35-.53-1.43-.74-1.56-.04-.09,.08-.14,.14-.21-.53-.63-.09,.63-.51,.76-.06-.34,.13-.86-.15-.93-.13-.28-.83,1.07-1.19,.41,.08,.26,.15,.53-.05,.72-.29,.08-.76-1.01-1.04-.19-.04-.07-.05-.14-.05-.21-.23,.21-.73,.34-.88,.78-.17-1.66-1.4,.77-1.36-.75l-.69,.07,.02-.16c-.44-.11-.6,.26-.75,.62-.1-.11-.02-.25-.02-.33-.64-.31-.7-.26-1.24,.51l-.05-.5c-.15,.29-.92-.78-1.55-.2,0-.06,.02-.15,.07-.22-.7,.57-1.7-1.36-1.95,.44l-.46,.45c.6,.14-.08,.78,.17,1.08-.23,.11-.62-.54-.33-.63l.05,.09c.1-.94-.75-.33-.74-.97-1.18,.07-2.35-.43-3.47-.43l.15,.73-.39-.03c-.11-.17-.16-.57,.12-.55-.16-.41-.45,.36-.46,.52-.55-.28,.18-.86,.02-.87l-.22,.06,.05,.08c-.17,.3-.18,.62-.51,.6-.22-.14-.12-.45-.21-.47,0-.05-.03-.07-.13-.02l-.49-.04,.22,.57c-.2,.29-.46-.01-.21,.63-.37-.99-1.84-.29-2.05-.58-.28,.44-.58,.45-.95,.42,.1,.11,.19,.76-.13,.7,.04-1.34-.62-.55-.93-1.5,.27,.62-.9,.22-.48,1.1-.27-.09-.05-.5-.27-.8-.6,.56-1.42-.25-2.2,0,0,.18,.15,.43,0,.71l-.48-.84c-.15,.1-.06,1.02-.39,.44,.05,.14,.13,.36,.03,.43-1.61-.74-3.06,.97-4.77-.48,.25,.32,.11,.37-.05,.39,.11,.07,.04,.43,.09,.67l-.72-.59c-.05,.67-.69,.12-.69,.75l.19-.13c-.19,.77,.56,1.61,.62,2.57,.21-.88,.93,1.17,1.3-.09,.13,.18-.06,.32,.02,.53,.08-.42,.23-.52,.53-.37l-.02,.1c.78-.17,1.16,.2,2.07,.38l-.11-.47c.2,.05,.25,.19,.35,.3,.16-.74-.54,0-.41-.8,.34,.93,1.35-.1,1.61,.98,.29-.02-.13-.54,.16-.56l.1,.29,.04-.39c.2,.05,.32,.41,.35,.66-.05-.03-.13,.08-.18,.11,.28,.33,.69-.18,.79-.07l-.3-.16c.78-.34,1.78-.01,2.52-.67l-.07-.22c.57-.45,.49,.21,1.13-.02l-.02,.05c.12-.23,.28-.35,.46-.34-.15,.27,.34,.49,.14,.79,.62-.48,.3-.37,.68-1.22l.12,.36c.13-.34,.13-.52,.45-.63-.25,.33,.24,.55-.04,.99,.72,.78,.98-.86,1.34,.31,.27-1.04-.62-.54-.45-.77-.16-.33,.23-.78,.45-.68,.22,.01,.43,1.3,.97,1.25-.05,0-.06,.08-.11,.07,.21,.25,.39-.37,.66,.05,.12-.62,.33,.03,.34-.77l-.5,.2c.28-.22,.52-1.15,1-.72-.03,.16-.17,.37-.26,.49,.15,.23,.26-.16,.41,.07-.02,.79-.61,.19-.89,.8,.16,.33,.56-.59,.43,.27,.19-1.1,.54,.12,.89-.72v.48c.05-.08,.16-.3,.27-.3l-.18,.62c.29-.53,.59,.44,.87,.15-.6,.03-.15-.57-.41-.91,.73-.65,.46,1.23,1.28,.99-.11,.07-.43-.28-.26-.5,.16,.09,.37,.27,.47,.52,.55-.11-.09-.49,.14-.78,.2,.57,.27-.24,.51-.43v.48c.64,.3,.16-1.01,.73-.64l-.23,.67,.29-.18-.05,.55c.32-.41,.42-.31,.73-.15-.08-.34,.03-.88,.31-.89,.19,.29-.1,.46,.29,.39-.09,.3-.18,.68-.36,.24-.02,.16-.09,.3-.1,.46,.21,.33,.51,.07,.66,.07-.06-.02-.12-.04-.15-.11l.57-.67c.09,.18,.02,.33-.05,.47,.12-.05,.2-.28,.37-.32-.04,.39-.03,.8-.27,.98l.54-.43c.04,.17,.28,.47,.21,.61,.3,.23,.74-.76,1.14-.45,.02-.08,.06-.15,.15-.2,.38,.09,.7,.57,1.16,.04l.24,.71c.35-.16-.33-.89,.25-1.15,.42-.22,.15,.6,.29,.8,.21-.35,.58-1.07,.95-.49-.13,.13-.22,.03-.34,.08Zm4.33-.21c-.09,.1-.26,.41-.32,.12,.11-.55,.18-.28,.32-.12Zm6.63-.89c-.07,.16-.16,.07-.26-.12,.08-.04,.17-.01,.26,.12Zm18.65-1.63v.02c-.18-.21-.12-.13,0-.02Zm.36,.25c.05-.06,.05-.13,.04-.2-.04,.12-.13,.12-.22,.07,.01,.13,.06,.22,.18,.12Zm-42.17-1.84l.08,.12c-.17,.15-.12,.02-.08-.12Z"/><path d="M38.99,20.07c-.02-.08-.02-.17-.02-.26-.04,.08-.04,.17,.02,.26Z"/><path d="M26.13,20.77s0,0-.01,0c0,.03-.01,.06-.01,.09l.03-.08Z"/><path d="M52.33,21.48c-.07-.08-.11-.17-.13-.26-.02,.12,0,.22,.13,.26Z"/><path d="M60.89,17.44l-.26,.1c.12-.01,.15,.1,.21,.18,0-.11-.03-.28,.05-.28Z"/><path d="M62.8,20.58c.04-.06,.08,0,.12-.06v-.22c-.15,0-.27,.18-.12,.28Z"/><path d="M60.98,19.05c-.01,.41,.15,.28,.33,.22-.01,0-.02,0-.03,0,.1-.56-.1-.39-.3-.22Z"/><path d="M61.35,19.26c.05-.01,.11-.02,.16,0,.04-.23-.06-.05-.16,0Z"/><path d="M59.29,17.84c.07,.11,.1-.51,.13-.34,.14-.51-.6,.57-.13,.34Z"/><polygon points="61.01 20.4 60.99 19.89 60.86 20.29 61.01 20.4"/><path d="M59.66,19.91l.27,.16c0-.08,.04-.13,.09-.16-.17-.03-.35-.15-.36,0Z"/><path d="M60.02,19.91c.09,.02,.17,.02,.23-.06-.05,0-.15,0-.23,.06Z"/><polygon points="60.61 20.52 60.54 20.4 60.35 20.35 60.61 20.52"/><path d="M56.68,19.51l-.32,.11c-.05,.17,.02,.28,.14,.23,.09-.11,.21-.16,.18-.33Z"/><path d="M57.46,20.97c-.07-.11-.07-.22-.1-.39l-.07,.62,.17-.22Z"/><path d="M56.55,21.02c-.05,.17-.5,.44-.1,.45,.05-.17,.37-.28,.1-.45Z"/><polygon points="52.05 19.73 52.13 19.73 52.23 18.72 52.05 19.73"/><path d="M47.77,21.72c.33,.28,.15-.62,.44-.28,.11-.23-.24-.27-.13-.47-.24,.23-.34,.08-.31,.75Z"/><path d="M48.08,20.96s.08-.08,.13-.14c-.07,.06-.1,.1-.13,.14Z"/><polygon points="2.23 16.77 1.97 16.58 2.16 16.91 2.23 16.77"/><path d="M1.86,17.57l-.13-.64-.08,.6s.15-.1,.2,.04Z"/><path d="M33.74,21.66l.02-.16c-.03-.17-.08-.18-.19-.21l.17,.37Z"/><polygon points="30.62 21.09 30.68 21.1 30.59 20.51 30.62 21.09"/><path d="M27.99,21.79c.11,.03,.23-.1,.34-.08-.23,.1-.36-.66-.34,.08Z"/></g><g><path d="M68.35,30.92c.1,.02-.02-.38-.02-.46-.13,.12,.05,.57,.02,.46Z"/><polygon points="67.04 32.11 67.04 31.94 66.89 32.39 67.04 32.11"/><path d="M65.64,32.36c.25,.68,.49-.2,.78,0l.07,.15v-.59c-.27,.14-.61,.59-.85,.43Z"/><path d="M64.67,30.96c.08,.27-.12,.26,.18,.06-.02-.03-.03-.04-.04-.06-.03,0-.07,.02-.14,0Z"/><path d="M64.81,30.95c.14-.05-.13-.21,0,0h0Z"/><path d="M64.16,31.2l.16-.27c-.06-.16-.24-.17-.19-.3-.18,.16-.12,.31,.03,.57Z"/><path d="M64.04,31.74l.09-.12c-.03-.07-.06-.09-.09,.12Z"/><path d="M64.31,31.38l-.18,.24c.04,.11,.08,.34,.09-.09,.01,.21,.03,0,.1-.15Z"/><path d="M64.45,31.47c.13,.14,.29,.22,.13,.49,.36-.14,.23-.63-.13-.49Z"/><path d="M65.68,33.1l.18,.18,.09-.26c-.05,.13-.32-.14-.27,.08Z"/><path d="M62.91,30.97c0,.15,.11,.39,.15,.59l.12-.19c-.09-.09-.24-.17-.27-.4Z"/><path d="M63.06,31.56l-.18,.28c.2,0,.22-.12,.18-.28Z"/><polygon points="64.11 32.53 64.4 31.94 64.05 32.54 64.11 32.53"/><polygon points="62.09 31.05 62.18 30.68 62.02 31.24 62.09 31.05"/><path d="M61.56,31.17c.06-.3-.17-.48-.09-.67-.14,.07-.24,.33-.33,.57,.11-.14,.24-.12,.43,.1Z"/><path d="M60.98,31.43c.05-.08,.1-.21,.16-.35-.06,.07-.11,.18-.16,.35Z"/><path d="M62.5,31.81c-.03-.09-.09-.32-.22-.41l.13,.41h.09Z"/><path d="M62.42,31.83h0c-.09-.01-.16-.02-.19-.02l.19,.02Z"/><path d="M62.52,31.81h-.02s.02,.05,.02,0Z"/><path d="M63.49,32.21c-.1,.25-.33,.54-.03,.87,.06-.3-.12-.49,.03-.87Z"/><path d="M62.69,32.33l.24,.07c-.02-.11-.08-.27-.03-.4l-.21,.33Z"/><polygon points="62.59 32.48 62.69 32.33 62.6 32.3 62.59 32.48"/><path d="M61.4,31.78c-.08,.2-.19,.23-.31,.27,.14,.07,.28,.1,.41,.08,0-.14,.04-.38-.1-.35Z"/><path d="M61.9,31.84l-.02,.03s.03,.04,.02-.03Z"/><path d="M59.89,32.13l.03,.08v-.07h-.03Z"/><path d="M61.53,32.2c.11,.07,.16-.04,.2-.18-.07,.05-.14,.09-.23,.1,0,.06,0,.1,.03,.08Z"/><path d="M60.66,31.65c.06,.09,.12,.16,.19,.22-.06-.13-.18-.33-.19-.22Z"/><path d="M61.84,31.75s0-.02,.01-.02c-.04-.09-.03-.04-.01,.02Z"/><path d="M61.84,31.75c-.04,.07-.07,.18-.1,.27,.06-.04,.11-.09,.15-.16-.02-.03-.03-.07-.05-.11Z"/><path d="M59.71,34.89c0-.4,.23-.78,.49-.37,.21-.31-.05-1.6-.3-2.31,0,.17,.02,.33-.19,.58,.1,.21,.55,.47,.38,.84-.29,.22-.26-.12-.43-.32,.16,.48-.34,.74-.22,1.46l.26-.27c.01,.11-.07,.3,.01,.4Z"/><path d="M60.35,32.22l.09-.06c-.11-.06-.2-.21-.37-.51-.14,.2-.16,.35-.16,.48l.47,.02-.03,.06Z"/><path d="M60.86,32.13c-.04,.43-.25,.63-.07,1.09,.28-.05,.16-.37,.31-.57-.44,.14,.11-.25-.24-.47,.08-.08,.16-.11,.23-.13-.08-.04-.17-.1-.25-.18v.03h.01c.02,.06,.03,.09,0,.06,0,0,0,0,0,0,0,.06,0,.11,0,.16-.14-.08-.03-.11,0-.16v-.06h0l-.42,.26c.1,.05,.22,.03,.42-.03Z"/><path d="M63.34,34.03s-.02-.07-.03-.1c-.02,.06-.03,.09,.03,.1Z"/><path d="M63.12,33.79c.03-.06,.03-.24,.15-.21,.11,.12,.02,.21,.05,.34,.05-.12,.19-.33-.04-.52l-.02,.06c-.2-.13-.49-.63-.47-.7,.1,.38,.17,.65,.34,1.01Z"/><path d="M61.97,33.08l-.35,.25,.23,.35-.03-.22c.22,.06,.15-.21,.16-.38Z"/><polygon points="59.83 31.92 59.84 31.46 59.68 32.11 59.83 31.92"/><polygon points="59.35 32 59.34 31.61 59.23 31.85 59.35 32"/><path d="M31.35,35.96l-.12,.1c.06-.03,.09-.07,.12-.1Z"/><path d="M32.15,36.05l.03-.19c-.05,.1-.07,.18-.03,.19Z"/><path d="M47.42,32.15c-.15-.38-.3-.96-.3-.51l.03,.44c.12-.07,.2-.02,.27,.07Z"/><path d="M38.98,34.26l.04,.14c.05-.15,.1-.28,.14-.41l-.18,.27Z"/><path d="M38.73,36.04l-.2-.29c.04,.1,.1,.2,.2,.29Z"/><path d="M26.9,36.1l-.16,.43c.2,.01,.13-.22,.16-.43Z"/><path d="M54.41,32.37c-.14-.17-.25-.24-.35-.25,.17,.25,.31,.62,.35,.25Z"/><path d="M32.01,31.4c-.07,.07-.11,.16-.12,.26,.08-.07,.12-.15,.12-.26Z"/><path d="M53.66,32.12s.05,.06,.07,.1c.1-.08,.2-.14,.32-.11-.12-.18-.26-.29-.4,.01Z"/><path d="M11.09,35.35s-.03-.03-.04-.05c0,.06,.01,.06,.04,.05Z"/><path d="M6.13,31.28s.12-.04,.19-.05c-.04-.03-.1-.02-.19,.05Z"/><path d="M57.41,31.94c.1-.04,.01-.05,0,0h0Z"/><path d="M57.99,33.62c-.02,.05-.03,.11-.03,.21,0-.1,.01-.17,.03-.21Z"/><path d="M52.63,34.82h0c.03,.08,.03,.07,0,0Z"/><path d="M57.57,32.13c-.04-.05-.09-.09-.14-.12,.02,.03,.06,.07,.14,.12Z"/><path d="M57.54,31.92l.09,.04c0-.07,0-.12-.09-.04Z"/><path d="M57.27,31.97c.06-.01,.11,0,.17,.03-.02-.03-.03-.05-.03-.07-.03,0-.07,.02-.14,.03Z"/><path d="M19.58,34.2l-.02-.04c-.11,.18-.06,.15,.02,.04Z"/><path d="M44.48,36.53s0-.02,.01-.02v.02Z"/><path d="M44.08,36.83c.19-.53,.28-.46,.4-.34l-.06-1.26-.34,1.59Z"/><path d="M29.4,35.94l.24,.41c-.37,.62-.58,.38-.37,.94,.14-1.35,1.04-.06,1.17-1.41l.15,.3s-.06,.06-.11,.04c.29,.67,.33-.96,.75-.73,.14,.12,.24,.32,.12,.47l.36-.31c.1,.03,.05,.27-.04,.23l.53-.07v.04c.08-.21,.28-.52,.37-.66,.12,.2-.08,.14-.06,.31l.31-.31c.09,.36-.17,.68-.37,.62,.16,1.37,.26-.32,.78,.51l-.28,.15c.12,.78,.35,.52,.62,1.02-.05-.26-.52-1.25-.18-1.57,.08,.11,.19,.17,.38-.09-.04,.48,.14,.38,.35,.36l-.06,.64c.24-.17,.24-.49,.4-.77,.24,.08,.26,.58,.28,1,.39,.13-.21-.81,.27-.9,.31,.27,.56,.03,.99-.32,.21,.24-.07,.39,0,.58l.24-.49s.02,.17,0,.25c.19-.18,.06-.64,.35-.79,.13-.7,.48,1.07,.88,.3,.07,.19-.07,.39-.06,.64,.5-.49,.42-.35,.86-1.03l.29,.44c-.2-.5,.14-1.04,.44-1.49-.07-.24-.12-.45-.17-.54l.45-.31c.04,.11-.01,.32-.1,.59l.09-.15c.13,.25,.03,.61-.1,.96-.04-.13-.08-.27-.12-.4-.13,.38-.26,.8-.27,1.18,.03-.07,.09-.13,.15-.16-.03,.1-.06,.2-.05,.26,0,.07,.06-.07,.14-.23l.05,.72,.04-.28,.52,.48c.45-.69,.86-1.72,1.51-1.97-.19,.51-.09,.85-.14,1.47-.13-.67-.51,.24-.82,.09,.17,.08,.11,.37,.06,.47l.62-.55c-.05,.5,.1,.39,.24,.61-.05-1.01,.48-.64,.74-.93,0,.34-.09,.68-.37,.58,.27,.77,.49-1.15,.76-.49-.07,0-.11-.05-.14,.12,.18-.29,.57-.03,.46,.26h-.07c.46,.15,1.43,.09,1.55-.75,0,.11-.12,1.02-.16,1.19l.99-2.81c-.11,.73,.08,2.48-.33,2.87,.11,.11,.24,.24,.49,0-.07-.11-.14-1.07-.03-1.13,.24,.83,.18,.45,.5,1.15-.11-.16,.08-1.3,.26-1.26-.04,.17-.04,1.13-.11,1.25l.5-1.11c-.12,.2-.06,.95,.02,1.27-.04-.22,.39,.04,.52-.07l-.18-.27c.5,.19,.57-1.56,1.07-1.48-.07,.23-.21,1.42,.05,1.57,.14-.57,.62-2.75,1.07-3.17l.07,.33,.35-.36c-.23,.86-.89,2.66-1.24,3.35,.18,.27,.04,.39,.33,.37,.09,.31-.17,.46-.26,.48l.66,.23c0-.67,.53-.65,.52-1.21l-.75,.67c0-.67,.48-1.89,.94-1.75,.11,.27-.12,1.19-.12,1.42,.07-.23,.46-.43,.5-.27l-.21,.36c.26,.26,.45-.89,.76-.24,.11,.04,.31,.87,.34,.47-.17-.77-.15-3.14-.03-3.72,.04,.05,.55,.74,.67,1.12,.17,.6-.29,1.43-.14,1.95,0-.18,.11-.41,.15-.48,.11,.16-.05,.57,.2,.49,.05-.68,.51,.06,.12-.57,.24-.19,.26,.14,.54,.12-.09-.44,.26-1.5,.5-1.69-.01,.17,.04,.4,.07,.5,.49,.07,.76,.38,1.22,.37,.04,.16,.27,.36,.18,.65,.07-.12,.12-.35,.27-.37,.29,.58-.32,.1-.1,.8,.01-.4,.37-.55,.56-.81-.07-.61-.47-.11-.67,.15,0-.84,.33-1.74,.8-2.14,.37-.22,.18,.54,.24,.42,.72,.13,.57-1.49,1.17-.89,.25,.53,.05,1.07,.11,1.46-.3,.21-.49-.33-.7-.3l.27,.25c-.09,.18-.3,.32-.42,.17,.21,.48,1.22,.07,1.79,.5,.09-.19,.25-.38,.16-.59l-.17,.09c-.18-.42,.3-.62,.07-.81,.22-.32,.45-.82,.79-.59l.1,.61c-.02-.18-.23-.35-.32-.16,.12-.28,.55,.8,.65-.02l-.25-.41c.22-.32,.46-.99,.76-.82-.17-.6-.06,.07-.31-.62,.23,.87-.73,.01-.39,.92-.25-.81-.38-.32-.69-1.01,.02,.2,.12,.38-.13,.3,0,.06-.03,.14-.04,.18h0s0,.05,0,.02c.06,.08,.11,.19,.14,.3-.1,.47-.48,.49-.6,.73-.15-.09,.05-.23-.04-.45l-.18,.36c-.04-.45-.41-.74-.08-1.01h-.3c-.19-.26-.43-.36-.58-.16-.14-.09-.35,.5-.23,.15l-.47,.29v-.11c-.47-.05-.96,.77-1.51-.03-.16,.11-.32,.27-.58,.13l-.05-.39c-.2,.13-.61-.4-.7,0-.21-1.05-.98-.24-1.34-.43l-.02,.51c-.25-.03-.48,.11-.79,.31v.45c-.26,.36-.66-.32-1.08-.29,.03-.17,.14-.12,.21-.01-.47-1.03-1.08,.69-1.51-.06-.12,.16-.2,.1-.27-.02,.01,0,.02,0,.03-.02-.01,0-.03,0-.05,0-.05-.08-.1-.17-.15-.24,.04,.11,.09,.2,.12,.25-.09,0-.22,.06-.36,.16l-.04-.48s-.02,0-.03,.01c-.12-.18-.11,.22-.06,.59-.07,.08-.13,.17-.18,.28-.07-.78-.35,.25-.46-.59-.11,.4-.67,.28-.78,1.12,0-.11-.04-.17,.04-.17-.14-.1-.28-.2-.42,.03l-.03-.61-.36,.8c-.17-.38-.24-.61-.03-1.06-.5,.7-.39,.25-.82,.94l.04-.39c-.14,0-.4,.52-.46,.19-.27-.77-1.55-.19-2.32-.94,.08,1.17-.34-.55-.43,.35-.03-.28-.13-.44,.02-.67-.43,.24-.59-.48-.93,.26-.03-.28,.12-.4,.09-.56-.04,.06-.15,.23-.18,.06-.03-.17,.08-.23,.15-.34-.42,.02-.53,.86-.61,1.65-.19-.39-.3-.35-.49,.16-.06-.27-.16-.55,.11-.62-.15-.05-.87-.45-.94,.19-.03-.17-.2-.06-.25,0-.33-.06-.35-.12-.68-.09l.08,.11c-.19,.76-.28,.15-.55,.22v-.08c-.55-.6-.27,.25-.81-.43v.48c-.14,1.02-.48-.65-.86-.28l.1,.28c-.22,.34-.42-1.44-.6-1.58-.03-.09,.08-.14,.14-.2-.45-.64-.11,.62-.49,.74-.04-.34,.15-.85-.09-.93-.1-.28-.8,1.04-1.1,.37,.05,.27,.11,.53-.08,.71-.27,.07-.64-1.04-.94-.24-.03-.07-.04-.14-.03-.21-.22,.2-.68,.3-.84,.74-.06-1.67-1.31,.71-1.19-.81l-.63,.03,.03-.15c-.39-.13-.56,.23-.72,.58-.08-.11,0-.25,0-.33-.56-.35-.62-.29-1.16,.44l-.02-.5c-.15,.28-.79-.83-1.4-.29,0-.06,.03-.15,.08-.22-.67,.53-1.46-1.47-1.8,.32l-.45,.42c.54,.17-.12,.78,.08,1.09-.22,.09-.53-.57-.26-.65l.04,.09c.15-.93-.66-.37-.61-1.01-1.08,0-2.11-.59-3.13-.65l.09,.73-.35-.05c-.09-.17-.11-.58,.15-.54-.12-.42-.44,.33-.45,.49-.49-.31,.22-.85,.07-.87l-.21,.05,.04,.09c-.18,.29-.2,.61-.5,.56-.19-.15-.09-.45-.16-.48,0-.05-.02-.08-.12-.02l-.45-.08,.17,.58c-.2,.28-.42-.04-.23,.62-.28-1.02-1.66-.41-1.84-.71-.28,.42-.55,.41-.89,.36,.08,.12,.13,.77-.16,.69,.11-1.34-.53-.58-.78-1.54,.22,.64-.84,.16-.49,1.07-.25-.11-.02-.5-.21-.82-.57,.51-1.29-.32-2.02-.11,0,.18,.12,.44-.02,.71l-.41-.86c-.14,.09-.09,1.02-.38,.42,.04,.15,.11,.37,.01,.43-.72-.4-1.44-.21-2.16-.08-.72,.14-1.44,.19-2.24-.55,.23,.32,.1,.37-.05,.39,.1,.07,.04,.43,.08,.67l-.66-.61c-.04,.67-.64,.1-.64,.73l.18-.13c-.17,.76,.52,1.62,.58,2.58,.2-.87,.84,1.19,1.17-.06,.12,.19-.06,.31,.01,.53,.08-.42,.21-.52,.48-.35l-.02,.1c.71-.15,1.04,.2,1.85,.44l-.09-.47c.18,.06,.22,.2,.31,.32,.16-.72-.49-.02-.35-.82,.28,.95,1.23-.03,1.43,1.06,.26,0-.1-.54,.16-.55l.08,.29,.05-.38c.18,.06,.28,.42,.29,.67-.04-.03-.12,.07-.16,.1,.24,.34,.63-.14,.71-.03l-.26-.17c.71-.31,1.6,.05,2.3-.54l-.06-.22c.54-.41,.43,.25,1.02,.05l-.02,.05c.12-.22,.28-.34,.44-.31-.15,.26,.28,.51,.08,.8,.58-.44,.29-.35,.68-1.18l.09,.37c.13-.34,.15-.51,.45-.61-.25,.32,.18,.56-.1,.99,.6,.8,.94-.8,1.2,.39,.31-1.02-.53-.59-.36-.8-.13-.34,.25-.76,.45-.65,.2,.03,.31,1.32,.81,1.32-.05,0-.05,.07-.1,.07,.18,.27,.38-.34,.59,.09,.15-.62,.3,.04,.36-.75l-.46,.17c.26-.2,.54-1.12,.96-.66-.04,.16-.17,.36-.27,.48,.12,.24,.25-.15,.37,.1-.07,.79-.56,.16-.86,.75,.12,.34,.54-.56,.38,.3,.24-1.08,.48,.15,.85-.67l-.04,.47c.06-.07,.18-.29,.27-.28l-.2,.61c.29-.52,.51,.47,.78,.2-.55-.01-.1-.58-.32-.94,.71-.6,.34,1.26,1.1,1.07-.11,.06-.37-.3-.2-.52,.14,.11,.32,.3,.4,.55,.51-.07-.05-.49,.17-.77,.14,.59,.26-.22,.49-.4l-.02,.48c.56,.34,.2-1,.7-.6l-.25,.66,.28-.16-.09,.55c.31-.39,.4-.28,.68-.11-.05-.34,.09-.87,.34-.87,.16,.3-.12,.45,.24,.4-.1,.3-.21,.67-.34,.22-.03,.16-.1,.3-.12,.45,.17,.34,.46,.1,.59,.1-.05-.02-.11-.05-.13-.12l.56-.63c.07,.19,0,.33-.08,.47,.11-.04,.2-.26,.35-.29-.06,.39-.08,.79-.31,.96l.52-.4c.02,.17,.23,.48,.15,.62,.26,.25,.73-.71,1.07-.39,.02-.07,.07-.14,.15-.2,.34,.11,.61,.61,1.05,.1l.18,.72c.33-.14-.25-.9,.3-1.13,.39-.2,.1,.61,.21,.81,.21-.34,.59-1.03,.9-.44-.12,.12-.21,.01-.32,.06Zm3.98-.01c-.08,.09-.26,.39-.3,.11,.13-.54,.18-.28,.3-.11Zm6.12-.71c-.07,.16-.15,.07-.24-.12,.08-.03,.16-.01,.24,.12Zm16.8-2.86v.02c-.18-.18-.12-.11,0-.02Zm.36,.2c.03-.07,.03-.13,.01-.2-.02,.12-.1,.13-.19,.1,.03,.13,.08,.21,.18,.1Zm-38.1-1.65l.07,.13c-.16,.13-.11,.01-.07-.13Z"/><path d="M38.76,35.83c-.02-.08-.02-.17-.01-.26-.04,.08-.04,.17,.01,.26Z"/><path d="M26.93,36.02s0,0-.01,0c0,.03-.01,.06-.02,.09l.03-.08Z"/><path d="M51.19,36.71c-.07-.07-.11-.16-.14-.25,0,.12,.03,.22,.14,.25Z"/><path d="M58.45,31.65l-.21,.14c.11-.03,.15,.07,.21,.14-.01-.11-.06-.27,0-.28Z"/><path d="M60.6,34.5c.03-.06,.07-.01,.1-.07l-.03-.22c-.14,.02-.22,.21-.07,.3Z"/><path d="M58.75,33.24c.04,.4,.18,.26,.33,.17,0,0-.02,0-.03,0,0-.57-.14-.37-.3-.17Z"/><path d="M59.11,33.4s.1-.04,.14-.02c0-.23-.06-.04-.14,.02Z"/><path d="M57.09,32.29c.08,.1,.02-.52,.07-.36,.06-.52-.47,.64-.07,.36Z"/><polygon points="58.96 34.57 58.87 34.07 58.81 34.48 58.96 34.57"/><path d="M57.68,34.28l.26,.12c0-.08,.02-.14,.06-.18-.16,0-.33-.09-.32,.05Z"/><path d="M58,34.23c.08,0,.16-.01,.2-.1-.04,0-.14,.03-.2,.1Z"/><polygon points="58.62 34.74 58.54 34.64 58.36 34.61 58.62 34.74"/><path d="M54.94,34.26l-.28,.15c-.03,.17,.05,.28,.15,.2,.06-.12,.17-.19,.12-.35Z"/><path d="M55.82,35.62c-.08-.1-.09-.21-.13-.38v.62l.13-.24Z"/><path d="M55,35.78c-.02,.17-.4,.5-.04,.46,.03-.17,.3-.32,.04-.46Z"/><polygon points="50.77 35 50.85 34.99 50.85 33.98 50.77 35"/><path d="M46.97,37.33c.33,.26,.1-.62,.4-.31,.09-.24-.24-.26-.15-.46-.21,.25-.31,.1-.25,.77Z"/><path d="M47.21,36.56s.07-.09,.11-.15c-.06,.06-.09,.11-.11,.15Z"/><polygon points="5.28 30.8 5.04 30.61 5.22 30.94 5.28 30.8"/><path d="M4.95,31.59l-.12-.64-.07,.59s.13-.1,.19,.05Z"/><path d="M33.86,37.28l.03-.15c-.02-.17-.07-.19-.17-.22l.14,.38Z"/><polygon points="31.03 36.58 31.08 36.59 31.03 36 31.03 36.58"/><path d="M28.57,37.14c.1,.03,.22-.09,.32-.06-.22,.09-.29-.67-.32,.06Z"/></g></g></g></g></svg>