<?xml version="1.0" encoding="UTF-8"?><svg xmlns="http://www.w3.org/2000/svg" viewBox="0 0 37.88 31.34"><g id="a"/><g id="b"><g id="c"><g><path d="M23.18,12.74s.02,0,.02,0c0,.11-.03,.3-.03,.4-.01,.23,0,.34,0,.4v.16c-.04-.85,.12-1.58,.06-1.29-.01,.06-.04,.11-.05,.17-.01,.12,0,.21,0,.16Z"/><path d="M19.77,13.13c.06,.02,.12,.03,.17,.04-.09-.01-.11-.06-.18-.14,0-.08-.07-.2,0-.33-.09,.21-.04,.37,.02,.43Z"/><path d="M15.69,14.86c.11,.22,.27,.44,.53,.5,.24,.06,.53,.01,.71-.23,.3-.38,.43-1.12,.72-1.69l.21-.16c-.14-.23-.29-.45-.46-.64-.05,.66-.23,1.62-.48,2.09-.08,.21-.35,.49-.62,.46-.26,.02-.52-.12-.62-.34Z"/><path d="M15.7,13.1c.07-.03,.17-.06,.19-.06,.02,0-.1,0-.34,.15,0-.01,0-.02,0-.02,.03-.02,.08-.05,.16-.07Z"/><path d="M15.55,13.17c-.15,.12-.04-.03,0,0h0Z"/><path d="M15.77,13.29c.05-.27,.08-.54,.03-.67-.14-.03-.45,.52-.46,.26-.23,.71-.05,.7,.43,.41Z"/><path d="M15.8,14.23l.15-.43c-.1,.03-.18,.12-.15,.43Z"/><path d="M16.15,12.92c-.02,.25-.11,.57-.21,.88,.16-.04,.38,.05,.14-.41,.15,.17,.08-.11,.06-.47Z"/><path d="M16.35,12.7h.01l.25,.05,.47,.07c.14,.01,.28,.02,.42,.03h.33c.3-.02-2.6,.14-1.37,.07h0c.01,.05,.02,.1,.04,.13,.02,.03,.01-.01,.02-.02,.01-.03,.02-.05,.03-.06,.02-.03,.05-.04,.12-.03,.03,0,.07,.02,.11,.06,.03,.04,.03,0,.03-.06v-.02h0v-.02h0c-.22,.01,1.92-.11,1.01-.06h-.15c-.1,.01-.2,0-.31,0,.11,.01,.21,.02,.31,.01h.15c.89-.06-1.2,.06-.99,.05h0v.07s-.08-.09-.14-.1c-.1-.04-.2-.01-.28,0-.15,.03-.23,.07-.27,.08-.03,.01,0,0,.07,.01,.04,0,.09,.03,.12,.1v.03s.01,.02,0-.04c0-.04-.01-.07-.01-.11h0c.67-.04-1.49,.08,1.49-.09h-.26c-.17,0-.42,0-.65-.05-.13-.02-.26-.04-.39-.06l-.18-.04h0Z"/><path d="M15.79,15.02c.04,.27,.16,.56,.41,.73,.15,.06,.34,.02,.49-.04-.11,.04-.51,0-.72-.26-.21-.24-.21-.52-.18-.43Z"/><path d="M13.12,14.52c-.07,.15,.05,.42,.07,.62,.14-.05,.26-.09,.38-.16-.19-.08-.49-.24-.45-.47Z"/><path d="M13.19,15.14c-.2,.05-.44,.09-.68,.07,.57,.24,.7,.08,.68-.07Z"/><path d="M16.35,14.82c.18-.55,.34-1.19,.34-1.69-.03,.58-.29,1.37-.51,1.93l.17-.23Z"/><path d="M12,13.65c.13,0,.25-.01,.36-.05-.17,.05-.37,.05-.57-.01,.07,.03,.13,.05,.2,.06Z"/><path d="M12.02,13.12c.23,.19,.46,.22,.58,.36-.02-.02-.09-.06-.11-.17,0-.03-.02-.05-.02-.08l.06-.13c.04-.09,.07-.19,.14-.28-.09,.07-.13,.14-.21,.19-.09,.06-.12,.08-.15,.09-.07,.03-.14,0-.3,.01Z"/><path d="M13.15,12.3c-.17,.12-.33,.3-.47,.53,.08-.07,.16-.17,.24-.26,.08-.07,.16-.16,.23-.28Z"/><path d="M11.61,14.49c.02-.05,.05-.13,.07-.24,.04-.1,.06-.19,.06-.3-.11,.11-.19,.22-.27,.36,.02,.04,.08,.11,.14,.18Z"/><path d="M11.46,14.32h0c-.12-.17-.16-.31-.18-.36,.02,.04,.04,.17,.17,.36Z"/><path d="M11.65,14.54l-.04-.05s-.01,.07,.04,.05Z"/><path d="M14.32,15.74c-.19,.17-.53,.37-.73,.5-.19,.14-.24,.32,.36,.45,.19-.17,.1-.29,.08-.42-.03-.13,0-.27,.3-.53Z"/><path d="M11.56,15.17c.2,.21,.44,.38,.69,.54,.02-.11-.03-.31,.21-.34-.29-.02-.61-.07-.9-.2Z"/><path d="M11.15,14.98c.13,.07,.27,.14,.41,.19-.08-.07-.14-.16-.21-.24-.07,.02-.13,.04-.19,.05Z"/><path d="M11.81,12.51c0-.25,.48-.57,.91-.74-.52,.09-1.09,.39-1.27,.57,.06,.13,.16,.36,.36,.17Z"/><path d="M11.2,13.28l-.02-.05s-.06,.04,.02,.05Z"/><polygon points="16.46 12.62 16.48 12.52 16.41 12.56 16.46 12.62"/><path d="M11.35,12.33c-.25,.13-.25,.34-.19,.51,.04-.17,.13-.35,.29-.49-.03-.06-.05-.09-.1-.02Z"/><path d="M14.14,11.9c-.15-.1-.35-.11-.56-.17,.2,.13,.52,.25,.56,.17Z"/><path d="M11.31,13.18v.03c.12-.04,.07-.04,0-.03Z"/><path d="M11.31,13.18c-.04-.11-.11-.22-.15-.35-.03,.14-.03,.28,.03,.39,.03-.02,.08-.04,.13-.04Z"/><path d="M19.7,12.88c-.22,.01-.52-.33-.85-.77-.19-.21-.35-.48-.53-.75-.2-.25-.36-.56-.54-.86-.62-.3-.91-.02-1.05,.44-.14,.47-.17,1.06-.25,1.58,.14-.07,.3-.27,.99,.44,0-.18-.14-.75-.34-1.13-.15-.42-.3-.72,.18-.53,.28,.26,.49,.43,.6,.61,.1,.18,.14,.31,.16,.42,.04,.22-.01,.38,0,.75,.1-.37,.48-.04,.82,.44,.15,.24,.35,.51,.49,.7,.14,.19,.29,.3,.47,.19-.03-.27-.14-.52-.24-.77-.1-.25-.17-.5-.33-.72,.1-.07,.48,.42,.41-.03Z"/><path d="M15.31,11.58c-.1-.03-.21-.02-.31-.04,.08,.04,.15,.08,.22,.13,.06,.06,.11,.14,.16,.21,.1,.16,.2,.3,.25,.58,.24,.06,.42,.09,.52,.12,.12,.02,.2,0,.26-.03-.32-.46-.77-.72-1.22-.95,.04-.01,.08-.02,.12-.02Z"/><path d="M13.59,11.46c.09-.21,.37-.45,.56-.59,.19-.14,.31-.29,0-.55-.63,.06-.84,.2-.97,.31-.13,.15-.18,.32-.5,.52,.45-.19,.65-.25,.71-.21,.06,.02-.01,.06-.1,.12-.08,.07-.18,.18-.17,.24,0,.08,.13,.05,.43,.11-.15,.03-.3,.1-.44,.18-.14,.07-.28,.12-.41,.17,.31-.01,.62-.14,.87-.05l-.04-.02h0c-.07-.05-.1-.08-.02-.06,0,0,.02,0,.03-.01,0-.06,.02-.11,.04-.17,.46,.03,.08,.11-.04,.17,0,.02,0,.04,0,.06h0c.24-.03,.5-.19,.73-.16,.12,0,.24-.02,.37-.04,.12,0,.24,.04,.36,.04-.14-.07-.3-.16-.53-.15-.11,0-.24-.02-.38-.03l-.5,.1Z"/><path d="M12.71,17.57c-.07-.05-.06-.08-.06-.11-.17,.02-.24,.05,.06,.11Z"/><path d="M11.8,17.04c.19,0,.37-.08,.89,.07,.45,.22-.03,.2-.04,.35,.39-.03,1.19-.19,.21-.49l-.17,.03c-.43-.16-.85-.51-1.07-.82-.23-.32-.3-.57-.23-.55-.04,.44-.03,.81,.41,1.42Z"/><path d="M9.98,12.88c.05-.5,.27-.98,.61-1.39-.29,.1-.59,.24-.85,.44l.22,.07c-.29,.39-.28,.61-.23,.7,.06,.1,.17,.1,.25,.18Z"/><path d="M16.4,12.86c-.16,.05-.31,.11-.46,.17,.33-.01,.57,.11,.92,.21l-.46-.38Z"/><path d="M17.07,14.31l-.4,.02c.13,.1,.2,.22,.28,.34,.05-.11,.12-.23,.13-.35Z"/><path d="M13.43,30.21c-.24-.04-.49-.07-.73-.11,.34,.08,.57,.1,.73,.11Z"/><path d="M18.6,31.14l.14-.19c-.25,.1-.35,.17-.14,.19Z"/><path d="M16.82,20.44c-.33-.17-.65-.46-.88-.63-.23-.15-.38-.24-.39,0,.04,.16,.08,.32,.12,.47,.49,0,.85,.1,1.15,.17Z"/><path d="M26.86,4.84c-.06-.08-.12-.16-.19-.24-.27,.03-.52,.05-.75,.1,.29,.02,.6,.09,.93,.14Z"/><path d="M28.29,3.55c.35,.28,.68,.6,1.01,.9-.21-.23-.52-.54-1.01-.9Z"/><path d="M3.43,6.34c.1-.34,.2-.7,.34-1.04-1.06,1.17-.41,.81-.34,1.04Z"/><path d="M7.24,7.33c.44-.29,.77-.46,1.05-.65-.28,.09-.62,.12-.82,.24-.2,.12-.32,.25-.23,.42Z"/><path d="M16.35,26.21c-.35,0-.52,.06-.53,.16,.37,0,.58-.04,.53-.16Z"/><path d="M9.64,6.06c-.1-.01-.22-.03-.31-.01-.17,.11-.33,.22-.52,.31-.16,.12-.32,.23-.52,.32,.48-.07,.91-.19,1.35-.62Z"/><path d="M23.53,16.37c-.03,.08-.04,.18-.07,.25,.06,.03,.07-.08,.07-.25Z"/><path d="M10.57,15.21c-.09,.14-.24,.35-.32,.54,.07-.08,.14-.23,.32-.54Z"/><path d="M12.88,16.92c.41,.11,.08-.02,0,0h0Z"/><path d="M14.84,18.86c-.1,.07-.17,.14-.18,.24,.04-.11,.1-.19,.18-.24Z"/><path d="M14.84,3.41h.05c-.16-.11-.13-.09-.05,0Z"/><path d="M13.44,17.27c-.14-.08-.3-.14-.49-.25,.08,.07,.22,.16,.49,.25Z"/><path d="M13.4,17.06c.13,.04,.23,.07,.33,.11,.06-.06,.03-.12-.33-.11Z"/><path d="M12.3,16.75c.24,.09,.45,.16,.65,.27-.07-.06-.1-.09-.07-.1-.12-.04-.29-.07-.58-.17Z"/><path d="M19.09,28.72s-.1,.01-.15,.01c-.58,.41-.31,.28,.15-.01Z"/><path d="M2.78,15.09s.04,.04,.05,.06l-.03-.1-.02,.04Z"/><path d="M1.59,12.78c.4,.48,.64,.84,.83,1.19,.18,.35,.25,.7,.39,1.08,.25-.42,.53-.83,.83-1.23-.34-.14-.69-.29-1.04-.45-.33-.17-.66-.37-1-.59Z"/><path d="M3.29,22.83c.24,.55,.45,1.13,.74,1.67-1.85-1.3-2.47-3.02-2.02-1.14,.66-.25,1.65,1.21,2.9,2.48,1.26,1.25,2.73,2.24,3.2,1.76,.26,.29,.54,.57,.81,.86-.27-.19-.36-.15-.63-.34,.78,.89,1.29,.9,1.87,.85,.59-.04,1.22-.09,2.48,.49,.87,.43,1.49,.78,.8,.75l1.1,.15,1.1,.06c.61,.15,.43,.36-.2,.2,.55,.11,1.1,.17,1.66,.21,.55,.06,1.11,.08,1.67,.07l-.03,.04c.24-.1,.63-.21,1.02-.35,.38-.14,.77-.28,1.02-.37,.84,.15-.4,.17-.18,.32,.6-.12,1.18-.32,1.76-.52,.39,.12,.23,.32-.19,.5-.21,.09-.49,.18-.79,.25-.31,.05-.64,.08-.96,.08,.9,.65,1.32,.5,1.93,.25,.63-.25,1.44-.57,3.37-.78-.55,.26-1.11,.47-1.68,.65,.33,.12,.66,.17,1.01,.18,.34-.01,.7-.08,1.08-.16,.78-.14,1.6-.47,2.69-.7-.29,0-1.39,.17-2.16,.14-.79-.06-1.23-.26-.33-.74,.55-.12,1.31-.36,2.13-1.1,.23,.42,1.13-.17,2.22-.94l.28,.58c1.09-1.02,.81-1.19,1.26-1.97,1.26-.98,1.79-.95,2.39-.93,.95-.99,.47-.77,.05-.61-.44,.15-.82,.23,.12-.99,.78-.77,1.31-1.58,1.71-2.52,.41-.93,.66-2.02,.79-3.39,.46-1.57,.34,.36,.61-.19-.11-.53-.16-1.03-.34-1.52,.01-.35,.17-.24,.25-.18-.1-.63-.26-.64-.42-.75-.15-.1-.3-.29-.54-1.18-.36-.19-.31-1.1-.53-2.28-.23-1.14-.84-2.51-1.85-3.05-.21-.52,.47-.06,.55-.34-1.17-.99-1.73-1.29-2.21-1.6-.49-.28-.97-.49-2.09-.89-.46-.47-.9-.99-1.41-1.43,.97,1.16-.89,.63-2.45,.39,.32,.42,.6,.78,.78,1.01-.75-.28-1.5-.54-2.27-.74-.22-.21,.08-.32,.56-.41-.17-.02-.34-.03-.47-.03-.69-.55-.16-.72,.58-.8,.23,.23,.44,.48,.64,.73,.71-.08,1.43-.2,1.5-.58-.18-.01-.5-.1-.83-.22,.19-.02,.33-.06,.29-.15-.05-.1-.35-.09-.79-.13-.07-.31-.15-.59-.24-.89l-.25,.2c-.97-.59-1.98-1.12-3.02-1.6-1.27,0-2.47,.15-3.79,.33-1.32,.16-2.76,.36-4.56,.5,.9-.52,.2-.85,.24-1.48,1.02,.67,2.98-.19,4.94,.33-1.01-.23-.74-.49-.46-.55-1.21,0-2.42,.06-3.61,.23,.1-.49-.74-.44-1.71-.58,.38,.5-.29,.66-1.21,.83-.46,.1-.99,.16-1.49,.29-.5,.13-.96,.27-1.3,.42-.18-.29,.09-.76,1.9-.97-1.05-.24-1.67,.22-2.2,.67-.27,.24-.52,.49-.83,.67-.32,.17-.68,.3-1.19,.36,.4-.18,.64-.24,.75-.44-.43,.32-1.24,.66-1.88,.94-.63,.3-1.14,.45-.95,.17l.4-.24c-.34,.18-.73,.38-1.11,.7-.39,.29-.8,.61-1.16,1.04-.78,.77-1.35,1.88-1.68,2.92-.27,1.06-.3,2.06-.15,2.77,.13,.72,.38,1.15,.61,1.22-.1,.05-1.08-.25-1.27-.45,1.14,1.88,2.7,3.04,4.26,3.86-.42,0-.81,.56-1.26,.93-.44,.35-1.04,.54-1.78-.52,.12,.35,.24,.76,.5,1.19,.24,.45,.6,.95,1.15,1.47-.21-.47,.18-1.56,.6-1.09,.16,.94,.28,1.25,.44,1.58,.15,.34,.35,.7,.89,1.74-.38-.63,.97-.84,1.73-.13-.24,.01-.67,.92-1.06,.73,.95,.36,1.92,.63,2.87,.8-.67-.21-.65,.72-.26,1.35-.07-.17,.47,.15,1.12,.54,.68,.36,1.49,.76,1.9,.82-.37-.21-.72-.45-1.05-.71,.71,.4,1.35,.49,1.86,.54,.54,0,.97-.1,1.39-.21,.86-.3,1.61-.54,3.06-.68-.29,.25-.88,1.56,.92,1.45,.17-.19,.44-.51,.74-.89,.3-.39,.6-.92,.91-1.41,.58-1.11,.95-2.19,1.55-3.24l.55-.11c.25-.56,.55-1.07,.7-1.63,.08,.34,.07,.81,.02,1.39-.03,.59-.19,1.23-.39,1.92-.17,.7-.53,1.37-.91,2.02-.43,.6-.9,1.18-1.39,1.54,.68-.14,.82-.1,1-.15,.18-.05,.46-.13,1.3-.75,.37-.11,.25,.17-.09,.51-.35,.32-.89,.7-1.17,.86,1.58-.73,2.89-1.89,3.89-2.92-.31-.13,.12-.91,.49-1.71,.39-.78,.64-1.67,.36-1.7-.51,1.59-1.41,2.9-2.34,4.2-.3-.17-.15-1.01,.25-2.01,.2-.51,.41-1.12,.71-1.7,.21-.65,.57-1.24,.81-1.92,.26-.29,.49-.08,.68,.25,.19,.33,.33,.77,.44,.78-.04-.26,.2-1,.3-1.76,.05-.38,.11-.76,.17-1.05,.02-.3,.05-.53,.1-.6,.12,.49,.15,.97,.15,1.47,.17-.45,.23-.89,.18-1.32-.05-.43-.08-.83-.23-1.23-.23-.81-.48-1.57-.56-2.71-.13-.35-.11-.99-.24-1.48-.1-.51-.23-.94-.43-.88,0,1.54-2.11,2.62-2.89,2.42-.01-.05-.06-.25-.14-.53-.11-.27-.24-.64-.4-1.03-.34-.76-.83-1.56-.97-1.94-.19-.55,.33-.6,.87-.57,.54,.02,1.13,.11,.95-.41-.16,.1-.77-.15-1-.26-.46-.55,.6-.26-.69-1.15-.3,.2-.94-.23-1.31-.5-.39-.23-.44-.35,.38,.57-.66-.33-.99-.53-1.33-.79-.34-.27-.72-.52-1.52-.87,.31,.6-1.97,.79-3.28,.7,.12-.15-.13-.44-.25-.57-1.38-.33-2.47-.51-3.56-.54-1.08-.04-2.2,.03-3.48,.59-.31-.12-1.62,.49-1.26-.09-.33,.31-.5,.75-1.16,1.36-.79,.48-.5,.06-.11-.38,.41-.4,.9-.87,.12-.68,.08,.2-.35,.68-.73,1.37-.22,.32-.38,.71-.54,1.09-.18,.36-.27,.74-.32,1.06,.18-.03,.33-.22,.49-.48,.19-.25,.37-.58,.55-.96,.23-.34,.46-.73,.71-1.08,.28-.32,.53-.66,.77-.89,.23,.33,.03,1.03-.26,1.84-.29,.83-.53,1.88-.66,3.05-.13,.95-.22,1.08-.37,1.08-.15,0-.3-.2-.24-.03-.02,.21-.03,.42-.04,.6l.11,.53c.05,.32,.2,.59,.33,.81,.24,.45,.58,.7,.86,.94,.59,.46,1.05,.81,1.78,2.12,.44,1.25-.74,.78-.84,1.23-1.35-1.17-1.42-2.3-1.88-3.3l.18,.7,.27,.68c-.45-.35-1.15-1.37-1.15-2.04-.1,.61,.57,2.3,1.91,3.81,1.31,1.54,3.16,2.88,4.58,3.72,.6,.1,1.6,.17,1.22-.17-.31-.09-.65-.13-.95-.27-.32-.4,.16-.31,.57-.29,.43,.01,.78,.03,.27-.24,.63,.07,1.28,.02,1.91-.04,.3-.08,.64-.04,.93-.14,.15-.03,.31-.06,.47-.07,.16-.02,.3-.09,.47-.11,.15,.16,.32,.32,.51,.47-.06-.07-.33-.07-.61,0-.27,.1-.63,.07-.83,.22,.15-.09,.37-.11,.64-.1,.25-.05,.55-.07,.88-.11,.3-.11,.61-.25,.85-.42,.24-.17,.34-.45,.33-.7l-.51,.22-.57,.11c.18-.21,.37-.41,.45-.69,.11-.25,.23-.48,.25-.75,.02-.12,.06-.24,.1-.35,0-.13,.01-.24,.04-.35,.08-.21,.05-.46,.16-.68-.34,.18-.33,.21-.33,.29,.02,.08-.05,.2-.47,.3,.24-.02,.32,.07,.32,.25,0,.09-.08,.17-.13,.28-.07,.09-.09,.23-.22,.31-.33,.39-.91,.68-.16,.77-.6-.11-.89,0-1.18,0-.07,0-.14,.03-.21,.03-.08-.02-.17-.03-.26-.05-.09-.02-.18-.05-.27-.08-.1-.05-.21-.14-.32-.23,.01,.19,.34,.42-.51,.25-.05,.05-.16,.1-.23,.14l-.06-.03,.05,.03s-.05,.03,.02,.01c.21,.13,.39,.29,.44,.38-.12,.14-.34,.14-.59,.18-.13,.01-.26,.02-.4,.02-.14-.02-.29-.05-.44-.08-.61-.07-1.2-.36-1.56-.37-.58-.46,.37-.05,.13-.44l-1.02-.19c.14-.45-1.06-1.71,.4-.96-.38-.29-.77-.57-1.11-.91-.25-.36-.5-.8-.81-1.16-.26-.39-.58-.72-.82-.95-.28-.56-1.16-1.15-.63-.82l-.28-.43-.2-.42c-.17-.29-.2-.55-.31-.84l.11-.02c-.01-.2,.03-.36,0-.55,0-.2,.07-.49,.09-.74,0-.27,.1-.49,.15-.74,.04-.26,.15-.47,.25-.69,.4-.87,1.27-1.55,2.43-1.53,.57-.28,1.25-.64,2.51-.51l.24,.4c.96-.16,2.77,.76,3.27,.55,.36,.63,1.43,1.09,2.54,1.64,1.12,.54,2.25,1.23,2.75,1.86l.4-.32c.77,.83,1.51,1.57,2.14,2.68l.39-.22c.18,.24,.28,.57,.35,.92,0,.36,.05,.75-.07,1.15-.04,.4-.25,.79-.37,1.2-.23,.39-.35,.81-.61,1.22-.04-.1,0-.24,.09-.39,.06-.16,.16-.32,.27-.45-.83,.79-1.27,1.8-2.04,2.88-.18,.27-.35,.56-.53,.74-.19,.2-.35,.45-.58,.58-.41,.34-.91,.51-1.4,.5-.4,.27-.77,.31-1.11,.21,.04,0,.08-.02,.11-.04-.05,0-.12,0-.19,.02-.21-.04-.43-.13-.66-.22,.19,.11,.4,.22,.56,.23-.37,.03-.93,.1-1.54,.1l-.16-.51s-.08,0-.13,0c-.5-.32-.51,.1-.28,.54-.32,0-.63,.03-.88,.07-.12-.47-.53-.51-.96-.65-.43-.13-.9-.29-.99-.84-.29,.08-1.04-.28-1.78-.67-.75-.39-1.48-.83-1.92-.65,.06-.1-.06-.27,.23-.02-.5-.61-.94-1.23-1.57-1.62l.28-.63c-.53-.28-1.1-.56-1.61-.92-.21-1.09-.12-1.51,.7-.89-.85-.84-1.05-1.28-1.27-1.65-.17-.39-.37-.7-.86-1.64l.41,.05c-.08-.62-.56-1.79-.07-2.11,.53-.61,1.17-2.14,3.17-3.18,.44-.3,1.04-.47,1.57-.71,.59-.15,1.17-.37,1.77-.46,1.18-.25,2.41-.23,3.46-.09-.43-.55,.07-.48,.7-.28,.62,.17,1.34,.41,1.47-.02,.23,.3,.8,.51,.09,.68,2.2-.03,3.11,.9,4.75,.59,.16,.33-.56,.26-.39,.48,.18,0,.73-.05,.89,.19,.16,.22-.37,.12-.73,.15,2.07,.6,2.58-.03,3.05-.71,.94,.79,1.44,1.02,2.45,.95,.23,.45,.67,.99-.6,.39,.34,.2,1.36,.87,2.24,1.52,.89,.65,1.7,1.25,1.93,1.05,.06,.29,.77,.77,.95,.89,.28,.34,.49,.59,.67,.82,.17,.23,.27,.42,.4,.61l.4,.6c.12,.24,.26,.51,.46,.86l-.11-.44c.49,.12,.71,.43,.78,.86,.04,.21,.08,.45,.13,.72,0,.27,.03,.56,.11,.89l-.08-.03c-.17,1.51-.28,1.79-.24,2.12,.02,.16,0,.32-.11,.61-.05,.15-.13,.32-.23,.54-.12,.22-.3,.47-.51,.78l.5,.04c.44,.34-.03,.95-.7,1.6-.7,.63-1.58,1.28-2.1,2.05l.67-.29c-.23,.48-.97,.79-1.78,.91-.78,.17-1.62,.15-2.03,.39-.22,.04,.18-.31,.37-.53-1.15,.48-1.16,.59-1.02,.82,.12,.2,.4,.49-.4,1.01-.46-.14-.04-.95-1.14-.44-.34-.02-.97,.63-1.89,1.13-.44,.29-.97,.47-1.48,.64-.51,.13-1.03,.15-1.46,.05,.39,.2,.82,.42-.05,.72-.34,.04-.75,.01-1.18-.04-.43-.07-.88-.2-1.32-.29-.88-.23-1.7-.41-2.39-.15-.15-.1-.2-.18-.19-.25-1.06,0-3.29-.69-4.05-.67-.07-.93-1.48-1.57-2.75-2.41-.31-.22-.62-.42-.89-.63-.25-.23-.48-.45-.65-.65-.36-.4-.42-.78-.12-.99-.65-.82-1.17-1.68-1.58-2.62h.18c-.17-.43-.25-.82-.4-1.14-.11-.32-.2-.59-.32-.82-.23-.46-.4-.79-.64-1.12,.08-.46,.23-.13,.32-.1,.11-1.42,.35-2.12,.44-2.82,.13-.69,.11-1.36,.44-2.59l.55,.07c.01-.09,.07-.2,.15-.33,.1-.12,.24-.25,.41-.41,.16-.16,.34-.32,.58-.46,.24-.14,.45-.34,.74-.47,1.07-.62,2.45-1.1,3.74-1.63-.02,.06-.06,.16-.25,.28,1.43-.67,3.39-.24,4.83,.34,1.48,.56,2.52,1.25,3.5,.81,.67,.25,1.33,.57,1.96,.98-1-.99-.85-1.05-.45-1.03,.39,.03,.99,.22,.59-.3,.26,.16,.49,.43,.7,.69,.2,.26,.37,.53,.44,.75,.16,.44,.08,.63-.41,.12-.02-.08-.05-.15-.08-.23-.52,.14,.05,.83,.54,1.61,.12,.2,.24,.39,.36,.58,.09,.2,.18,.39,.24,.55,.13,.33,.16,.57,0,.62,1.2,2.34,.88,5.07-.23,7.4-1.11,2.33-2.98,4.26-5,5.34,.28,.14,.56,.25,.85,.35-.24,.17-.51,.29-.77,.41-.26,.13-.52,.26-.79,.34-.49-.01-.72-.31,.34-.73-.35-.02-.76,.17-1.09,.48-.35,.24-.64,.56-.65,.64-1.2,.02-.96-.24-.58-.46,.39-.2,.9-.52,.58-.44-.28,.11-.57,.13-.86,.2l.21,.06c-.34,.21-.54,.36-.83,.47-.29,.13-.67,.18-1.39,.08-.88-.32-.37-.53-.71-.63,.01-.05-.09-.11-.51-.17-.66-.21-1.29-.53-1.9-.86l.52,.9c-1.02-.15-1.84-1.06-1.25,.06-.46-.8-2.15-2.07-3.43-3.66-1.33-1.56-2.07-3.36-2.04-3.82-.76-1.13-.96-2.6-.37-4-.12,.15-.36,.25-.5,.14-.07-.06-.11-.16-.1-.35,0-.19,.08-.44,.28-.76,.23,.28,.46,.28,.68,.15,.23-.12,.47-.36,.76-.62,.55-.53,1.49-1.02,2.16-.85-.27-.02-.23-.17,0-.35,.24-.15,.68-.43,1.08-.57,.78-.33,1.69-.54,.79-.85,1.24-.08,.16,.48,1.09,.67,1.38-.39,3.09-.18,4.63,.36,.76,.3,1.51,.65,2.12,1.09,.61,.44,1.11,.91,1.48,1.39,.17-.04,.13-.6,.68-.21-.03,.31-.01,.57-.13,.84l-.12,.37c-.04,.12-.12,.27-.17,.39,.12,.52,1.09,.54,.35,1.71,.18-.15,.42-.39,.42,.08-.47,1.68-1.18,3.37-2.2,4.66-1.03,1.3-2.25,2.07-3.67,1.8-1.41-.2-2.75-1.38-3.4-2.91-.69-1.49-.62-3.39,.21-4.36-.26,.25-.39,.29-.4,.19,0-.09,.04-.39,.14-.58-.22,.22-.39-.18-.63-.24,.52-.6,1.33-1.02,2.05-1.13,.01-.37,.63-.61,.98-.56,.17,.03,.26,.06,.36,.1,.11,.02,.23,.06,.39,.02-.07-.07-.13-.13-.2-.15-.06-.04-.13-.07-.2-.07,.22-.12,.37-.2,.44-.43,.06-.2,0-.52-.24-.81-.45-.64-1.56-.93-1.53-1.41-.93,.62-2.12,.83-3.38,1.74-.61,.42-1.22,1.14-1.52,1.94-.31,.77-.36,1.64-.09,2.43-.24,.69-.27-.61-.51-.26,.36,.86,.41,1.77,.73,3.49-.05-.05-.11-.1-.16-.16,.8,2.34,1.84,3.84,3.33,5.15,.77,.63,1.7,1.17,2.88,1.51,1.14,.34,2.72,.36,4.28-.27-.22-.08-.43-.16-.63-.25,.66-.2,1.02-.38,1.32-.49,.31-.11,.54-.18,.81-.34,.18-.38,.08-.42-.14-.3-.21,.13-.59,.38-1,.6-.39,.25-.88,.38-1.14,.44-.28,.04-.36-.04-.12-.34,.23,.03,.56,.02,.92-.09,.33-.13,.77-.29,1.14-.56,.8-.51,1.51-1.32,2.11-2.14,1.16-1.67,1.73-3.46,2.4-3.83,.43-1.77-.63,.38-.25-1.37l.37-.42c-.1-.17-.2-.33-.32-.5,.19-1.15,.48-1.82,.75-1.88-.03,.31,.09,.9,.09,1.22,.19-.83,.21-2.02-.27-3.26-.41-1.19-1.11-2.01-1.27-2.28,.41,.59,.67,1.3,.89,1.98-.61-1.44-1.68-2.67-2.87-3.53-1.2-.86-2.5-1.46-3.81-1.82-2.61-.73-5.27-.78-7.56-.05,.13,.05,.26,.09,.39,.15-.43,.13-.8,.25-1.11,.34-.32,.12-.59,.22-.84,.29-.46,.18-.8,.3-1.16,.41-.69,.29-1.58,.47-3.01,2.04l.07-.15c-.45,.75-1,1.74-1.43,2.79,.06-.55-.23-.13-.51,.28-.29,.41-.49,.83-.45,.06-.1,.56-.13,1.02-.14,1.38,.01,.36,.03,.65,.05,.87,.04,.44,.14,.65,.2,.81,.15,.32,.31,.51,.97,1.64l-.21,.65c.26,.38,.49,.53,.7,.83,.21,.3,.46,.71,.92,1.49-.49-.58-.48-.27-.49,.05,0,.3-.03,.64-.62-.06,.57,2.03,1.75,3.12,2.69,3.88,.97,.77,1.72,1.27,2.13,2.29,1.07,.11,.4-.48-.3-1.11-.73-.61-1.48-1.34-1.05-1.06-.19-.41,.22-.29,.75,.03,.54,.31,1.25,.77,1.71,1.14,.48,.36,.74,.89,1.27,1.54,.53,.63,1.38,1.4,3.03,1.8-.33-.07-.36-.02-.69-.11,1.19,.6,2.47,.22,4.05,.57,.43-.31,.93-.4,1.35-.46,.42-.08,.76-.22,.78-.62-.95,.34-1.97,.46-2.98,.52,.87-.09,1.68-.43,2.54-.83,.87-.39,1.78-.84,3.05-1.28-.11,.22-.71,.82-1.21,1.12,.44-.02,.76-.26,1.1-.47,.34-.2,.65-.44,1.07-.58,.06,.2-.1,.43-.4,.7-.32,.23-.77,.5-1.29,.75-1.07,.46-2.39,.82-3.34,1.19,.24,.05,.6,.02,.97-.06,.37-.11,.75-.26,1.07-.38,.63-.27,1.03-.46,.71,.12,.51-.74,1.25-1.06,2.13-1.48,.84-.44,1.8-1.01,2.31-2.09l.22,.45c.23-.29,.57-.99,1.01-1.46-.1,.43-.23,.86-.36,1.3,.46-.86,1.12-1.45,1.75-2.1,.63-.64,1.25-1.33,1.51-2.22-.86,1.7-1.17,1.75-1.28,1.61-.12-.15-.14-.54-.72,0,.49-1,.8-1.62,1.1-2.06,.31-.43,.59-.68,.89-.95,.31-.27,.62-.56,.92-1.14,.31-.56,.6-1.42,.69-2.8,.03,.78-.75,2.65-.73,1.5,.17-.47,.28-1.05,.44-1.58,.12-.54,.23-1.05,.36-1.38-.16-1.87-.37-1.69-.41-1.27-.11,.42-.23,1.07-.43,.34,.42-1.28-.49-1.75-1.2-3.02l.44-.19c-.29-.95-.62-1.41-.84-1.67-.23-.26-.39-.29-.55-.31-.16-.02-.31-.03-.52-.22-.21-.19-.46-.57-.94-1.25,.48,.21,.96,.44,1.42,.74-.38-.49-.83-.9-1.27-1.32l.66-.07c-.4-.33-.75-.57-1.05-.8-.29-.23-.55-.44-.8-.64-.25-.2-.5-.42-.77-.66-.29-.23-.61-.48-.99-.78,.19,.54-.65,.55-2.13-.12-.46-.35-.27-.4-.24-.46,.03-.04-.08-.19-1.23-.52,.3-.06,.63-.14,.99-.08,.35,.07,.74,.25,1.12,.66,.16-.09,.61-.01,.79-.1-.48-.47-1.24-.81-1.96-1.07-.74-.23-1.44-.38-1.89-.46,.34,.09,.74,.22,.91,.36-1.21-.13-2.42-.13-3.59,.04-.54-.2-.1-.33,.35-.45-.73,.02-1.23,.19-2.27,.31,.12-.2,.16-.4,.36-.59,.2-.18,.57-.37,1.36-.42-1.19,.07-2.36,.34-3.48,.68-.25-.14-1.88-.01-1.47-.27-.5,.07-1.03,.32-1.58,.58-.54,.27-1.08,.7-1.62,1.08-1.04,.89-2.04,1.87-3,2.84-.02,.17-.19,.4-.45,.91-.37,.51-.75,1-1.05,1.53-.34,.52-.59,1.07-.82,1.66-.25,.58-.36,1.21-.48,1.87-.04,.66-.1,1.36,.06,2.09l-.35,.84-.27,.87c.2,1.17,.36,.55,.55,.15,.1-.2,.2-.34,.33-.21,.13,.13,.23,.54,.5,1.4,.37,1.22,.38,1.46,.18,1.56-.18,.1-.48,0-.43,.48,.17,.29,.45,.6,.72,.96,.26,.36,.56,.74,.89,1.13,.3,.4,.61,.83,.93,1.27,.31,.44,.56,.95,.85,1.46-.62-.48-.84-1.07-1.31-1.61Zm22.97,6.89c-.43,.24-1.29,.89-1.73,.68,.41-.66,.86-.57,1.73-.68ZM24.07,2.66c.37-.03,.85,.19,1.32,.61-.41-.14-.86-.31-1.32-.61ZM8.35,14.35s-.03-.01-.04-.01c-.22-.35-.26-.48-.24-.45,.01,.04,.12,.22,.28,.46Zm1.09,1.34c.18,.06,.21,0,.19-.1-.17,.02-.46-.24-.77-.55,0,.17,.12,.39,.57,.65Zm3.35,10.29c.09,.08,.19,.15,.29,.2-.77-.05-.53-.13-.29-.2Z"/><path d="M28.11,3.69c.08,.13,.07,.23,.05,.32,.2,.01,.25-.07-.05-.32Z"/><path d="M3.38,6.53l.06-.06c0-.06,0-.09,0-.12l-.05,.19Z"/><path d="M23.33,5.47c.31,.37,.45,.62,.51,.8,.1-.07,.01-.29-.51-.8Z"/><path d="M16,16.33c-.11,.18-.33,.3-.49,.49,.26-.22,.45-.18,.63-.22-.09-.08-.26-.12-.14-.26Z"/><path d="M15.86,9.35c-.2,0-.39-.11-.59-.1v.23c.74,.19,1.35,.24,.59-.13Z"/><path d="M17.64,16.88c.18,.09,.33-.03,.49-.24,.14-.22,.18-.57,.27-.9,0,.04-.01,.08-.03,.12-.24-.17-.38-.07-.46,.13-.05,.1-.05,.25-.09,.4-.06,.14-.11,.31-.17,.49Z"/><path d="M18.41,15.58c0-.22,.06-.43,.07-.65-.21-.08-.06,.25-.07,.65Z"/><path d="M11.37,16.66c.26,.24,.43-.38,.52-.15,.28-.17-.28-.21-.7-.27-.43-.04-.72,.04,.18,.42Z"/><path d="M19.13,17.04c-.21,.02-.41,.02-.61,.02,.03,.2,.06,.41,.07,.63l.53-.65Z"/><path d="M13.07,19.4c.22,.06,.45,.15,.68,.18l.7,.09c-.02-.1,.16-.1,.36-.18-.42,.02-.86-.04-1.19-.06-.33-.07-.55-.1-.55-.02Z"/><path d="M14.8,19.48c.42-.08,.85-.09,1.03-.29-.2,.13-.7,.16-1.03,.29Z"/><path d="M17.98,18.7c-.12,.09-.27,.13-.41,.18-.3,.17-.59,.37-.9,.51,.44-.2,.9-.42,1.31-.69Z"/><path d="M4.6,8.65c.03-.52,.22-.98,.35-1.48-.1-.22-.35,.13-.5,.7-.04,.39-.05,.97,.15,.77Z"/><path d="M3.93,13.6c-.11-.47-.02-.55,.03-.84l-.6,.18,.57,.66Z"/><path d="M3.09,8.47c-.21-.19,.33-2.72-.37-.43,.12,.24-.12,2.02,.37,.43Z"/><path d="M24,8.56c-.08-.11-.19-.2-.28-.31l-.73,.71c.33-.14,.68-.28,1.01-.4Z"/><path d="M14.87,25.46c1.17,.31,1.35,.13,1.47-.02,.13-.16,.2-.26,1.29-.14,.28-.16-.18-.14-.61-.22-.43-.06-.85-.13-.57-.23-1.39,.16-2.11-.16-1.58,.61Z"/><path d="M16.45,24.85c.22-.03,.46-.08,.7-.14-.39,.06-.59,.1-.7,.14Z"/><path d="M12.53,14.69c0-.08,.09-.28,.07-.25,0,0,.03-.05,.02-.04-.03,.04-.05,.07-.08,.1,.02-.01,.09-.12,.08-.09-.02,.03-.02,.05-.02,.06-.02,.04-.07,.2-.07,.23Z"/><path d="M13.15,14.42c-.18,.13-.36,.24-.55,.33,.2,.06,.43,.14,.66,.25-.08-.16-.18-.47-.11-.58Z"/><path d="M30.35,29.16v-.19c-.26-.02-.55,.15-1.15,.44,.38-.07,.78-.14,1.15-.25Z"/><polygon points="11.55 30.21 11.86 30.34 11.51 29.57 11.55 30.21"/><path d="M0,18.56c.2,.71,.54,1.51,.84,2.18-.39-.7-.38-1.38-.43-1.78-.04-.41-.07-.58-.41-.4Z"/></g></g></g></svg>