<?xml version="1.0" encoding="UTF-8"?><svg xmlns="http://www.w3.org/2000/svg" viewBox="0 0 217.01 109.75"><g id="a"/><g id="b"><g id="c"><g><g><path d="M201.32,109.2c-.18,.51,.27,.45,.32,.56,.17-.95-.44-.55-.32-.56Z"/><polygon points="199.71 102.61 199.91 102.65 199.22 101.97 199.71 102.61"/><path d="M197.54,97.62c-.4,.77,.97,1.69,1.13,2.69l-.09,.21,.7,.18c-.54-1.07-1.54-2.27-1.74-3.08Z"/><path d="M197.54,94.36c-.16,.29-.51-.43,.25,.63,0-.07,0-.1,0-.14-.06-.1-.14-.24-.26-.49Z"/><path d="M197.79,94.85c.29,.49,.02-.44,0,0h0Z"/><path d="M196.34,92.65l.59,.52c.06-.22-.24-.81-.02-.66-.51-.59-.57-.37-.58,.14Z"/><path d="M195.53,92.31l.29,.28c.02-.09,0-.19-.29-.28Z"/><path d="M196.43,93.18l-.61-.59c-.04,.15-.24,.28,.26,.28-.22,.05,.04,.08,.35,.31Z"/><path d="M196.57,93.63c.08,.44,.26,.96-.33,.43,.79,1.19,1.13,.76,.33-.43Z"/><path d="M196.76,97.72l.06,.59,.43,.32c-.21-.16-.31-1.04-.49-.9Z"/><path d="M194.2,88.52c-.15,.04-.2,.43-.34,.58l.44,.37c-.06-.29-.27-.79-.1-.95Z"/><path d="M193.86,89.1l-.66-.54c.37,.63,.55,.67,.66,.54Z"/><polygon points="194.78 92.61 195.94 93.48 194.64 92.39 194.78 92.61"/><polygon points="192.5 85.91 193.05 86.09 192.15 85.71 192.5 85.91"/><path d="M191.29,84.24c.43,.12,.14-.66,.49-.47-.36-.43-.83-.68-1.26-.9,.36,.3,.61,.72,.76,1.37Z"/><path d="M189.86,82.47c.18,.15,.42,.27,.67,.4-.19-.16-.4-.3-.67-.4Z"/><path d="M192.5,87.36c.04-.1,.17-.34,0-.77l-.18,.5,.17,.27Z"/><path d="M192.33,87.11v-.02c-.18-.29-.3-.5-.36-.59,.05,.08,.15,.26,.36,.6Z"/><path d="M192.55,87.43l-.04-.07s-.02,.07,.04,.07Z"/><path d="M193.99,90.59c-.46-.28-1.21-.97-1,.03,.43,.13,.31-.45,1-.03Z"/><path d="M192.32,88.05l.39,.77c.09-.08,.14-.3,.37-.16l-.76-.61Z"/><polygon points="191.97 87.78 192.32 88.05 192.17 87.77 191.97 87.78"/><path d="M190.35,83.9c-.36-.2-.6-.52-.89-.88,.21,.45,.46,.89,.73,1.28,.15-.02,.47,.02,.16-.41Z"/><path d="M191.28,85.47l-.07-.05c0,.06,.01,.1,.07,.05Z"/><polygon points="186.89 79.32 186.87 79.42 186.94 79.39 186.89 79.32"/><path d="M190.18,84.42c.14,.35,.35,.47,.58,.57-.19-.2-.38-.43-.56-.68-.07,0-.1,.03-.02,.11Z"/><path d="M188.98,81.56c.04,.21,.1,.43,.17,.66,0-.23-.04-.67-.17-.66Z"/><path d="M191.25,85.25s.03,.02,.05,.03c0-.15-.02-.11-.05-.03Z"/><path d="M191.25,85.25c-.16-.12-.33-.19-.49-.26,.15,.17,.31,.31,.46,.43,0-.05,.01-.12,.03-.17Z"/><path d="M183.86,79.81c.36-.18,1.23,.38,1.36,1.31,.71,.5,1.47-.69,1.65-1.7-.16,.08-.29,.17-.98-.38,0,.36,.68,1.82-.02,1.45-.82-.79-.42-.83-.57-1.39-.13,.66-1.42-.73-1.86-.1l.78,.64c-.08,.08-.43-.1-.36,.18Z"/><path d="M187.77,80.77l.24,.26c-.17-.37-.21-.69-.25-1.3-.49-.37-.68-.38-.81-.34l.94,1.45-.12-.06Z"/><path d="M188.91,82.32c-.51,.02-1.14-.56-1.23,.12,.61,.82,.7,.38,1.2,.78-1.01-1.28,.46,.25,0-.86,.24,.22,.42,.45,.59,.66-.12-.27-.23-.54-.31-.81v.05h0c0,.1-.02,.13-.04,.05,0,0-.02-.02-.03-.02-.06,.02-.12,.03-.18,.03-.2-.45,.05-.12,.18-.03,.02,0,.04,0,.06-.02h0l-1.14-1.24c.15,.32,.41,.68,.9,1.29Z"/><path d="M191.74,90.38c0-.06,.03-.08,.06-.1-.1-.06-.15-.07-.06,.1Z"/><path d="M191.59,89.67c.12,.07,.31,.06,.49,.41,.08,.35-.17,.11-.28,.2,.22,.13,.71,.52,.48-.21l-.11-.07c-.23-.64-.26-1.65-.14-1.58-.22,.38-.35,.67-.43,1.25Z"/><path d="M190.15,86.01l-.95-1.01,.09,.79,.16-.16c.37,.69,.5,.4,.7,.38Z"/><polygon points="186.97 79.06 187.45 78.95 186.46 78.67 186.97 79.06"/><polygon points="185.87 77.64 186.23 77.46 185.76 77.21 185.87 77.64"/><path d="M99.46,35.07c-.13,.03-.26,.07-.39,.12,.18-.04,.3-.08,.39-.12Z"/><path d="M102.29,35.13l.07-.19c-.13,.11-.19,.18-.07,.19Z"/><path d="M154.32,46.51c-.3-.64-.56-1.49-.74-1.07l-.08,.47c.39,.16,.64,.38,.82,.61Z"/><path d="M125.84,36.32c.04,.05,.09,.11,.13,.17,.18-.1,.34-.2,.49-.28-.19,.03-.4,.07-.62,.11Z"/><path d="M124.96,37.94l-.66-.46c.14,.14,.35,.29,.66,.46Z"/><path d="M84.14,37.01l-.37,.51c.7-.13,.35-.29,.37-.51Z"/><path d="M174.01,63.45c-.22-.5-.46-.84-.7-1.11,.26,.62,.32,1.23,.7,1.11Z"/><path d="M100.58,30.48c-.25,.08-.36,.16-.35,.26,.26-.07,.41-.15,.35-.26Z"/><path d="M172.27,61.27c.03,.1,.08,.18,.12,.27,.31,.22,.62,.45,.92,.8-.18-.46-.47-.92-1.04-1.07Z"/><path d="M34.84,62.02s-.08,.04-.13,.05c.03,.05,.07,.01,.13-.05Z"/><path d="M20.46,71.62c.08-.15,.25-.36,.41-.57-.1,.08-.23,.25-.41,.57Z"/><path d="M181.62,71.74c.26,.28,.08,.02,0,0h0Z"/><path d="M181.42,74.26c-.09-.03-.18-.04-.26,.01,.1-.04,.19-.04,.26-.01Z"/><path d="M167.68,60.51l-.02-.02c.02,.14,.02,.11,.02,.02Z"/><path d="M181.82,72.32c-.05-.15-.12-.3-.2-.46,.02,.08,.08,.23,.2,.46Z"/><path d="M181.93,72.13c.07,.11,.12,.2,.18,.29,.09,0,.1-.07-.18-.29Z"/><path d="M181.27,71.34c.14,.17,.25,.34,.35,.51-.02-.08-.02-.12,0-.11l-.35-.4Z"/><path d="M58.89,43.75s-.06,0-.09,0c-.26,.33-.12,.23,.09,0Z"/><path d="M143.56,45.43s.03,0,.05,0l-.04-.04v.04Z"/><path d="M142.24,45.1c.76-.25,1-.01,1.33,.29l.19-1.32c-.5,.33-1.01,.68-1.51,1.03Z"/><path d="M92.69,35.53l.95,.31c-1.06,.73-1.87,.58-.97,1.05,0-.68,.89-.79,1.78-.9,.89-.12,1.78-.15,1.81-.84l.62,.26c-.17,0-.2,.07-.37,.07,1.2,.61,.84-1.01,2.39-.88,.54,.08,.91,.3,.55,.45l1.19-.32c.35,.03,.26,.27-.08,.24l1.82-.09v.04c.25-.21,.85-.53,1.14-.67,.46,.2-.24,.14-.12,.31,.34-.11,.68-.19,1.02-.28,.39,.38-.45,.65-1.15,.59,.89,1.38,.85-.3,2.83,.6l-.95,.12c.56,.81,1.31,.57,2.33,1.11-.22-.26-2.04-1.33-.93-1.61,.3,.12,.7,.19,1.31-.04-.03,.47,.55,.42,1.26,.47l-.11,.63c.78-.1,.76-.43,1.24-.67,.86,.16,.97,.67,1.12,1.1,1.36,.25-.85-.89,.79-.83,1.11,.4,1.94,.28,3.37,.12,.76,.34-.2,.36,.05,.59l.79-.39c.17,.04,.09,.18,.05,.26,.63-.1,.16-.63,1.13-.61,.39-.64,1.72,1.41,3.03,.86,.24,.24-.22,.35-.19,.61,1.7-.18,1.43-.04,2.89-.41l.99,.69c-.69-.67,.49-.96,1.54-1.17-.23-.3-.42-.56-.57-.7,.52,.02,1.05,.03,1.56,.08,.15,.16-.06,.32-.37,.5,.11-.02,.22-.04,.31-.06,.45,.39,.08,.66-.39,.89l-.41-.54c-.47,.28-.92,.61-.94,.99,.11-.05,.31-.06,.52-.04-.12,.08-.21,.15-.18,.23,.03,.08,.22-.03,.5-.11l.13,.79,.16-.25,1.73,1c.77-.14,1.53-.37,2.38-.51,.84-.11,1.77-.13,2.87,.12-.7,.3-.41,.76-.65,1.33-.35-.82-1.7-.34-2.74-.83,.55,.25,.32,.5,.15,.54l2.11,.14c-.22,.46,.28,.51,.7,.88-.03-1.06,1.68-.14,2.55-.06-.08,.34-.38,.56-1.3,.12,.76,1.1,1.78-.54,2.56,.48-.23-.09-.34-.19-.49-.07,.65-.05,1.87,.72,1.44,.86l-.23-.09c.37,.19,.84,.4,1.35,.61,.5,.23,1.04,.46,1.55,.63,1.02,.36,1.95,.53,2.25,.21-.03,.11-.65,.83-.82,.94,1.31-.45,2.62-.84,3.95-1.2-.57,.52-.51,2.53-1.9,2.25,.3,.28,.66,.61,1.51,.78-.18-.22-.09-1.25,.27-1.13,.5,1.19,.41,.72,1.16,1.91-.28-.32,.68-1.12,1.22-.77-.17,.1-.52,1.01-.77,.99l1.92-.16c-.44-.03-.54,.79-.41,1.24-.03-.27,1.16,.7,1.57,.84-.14-.2-.28-.38-.43-.57,1.41,1.08,2.33-.39,3.81,.63-.31,.08-1.24,.9-.57,1.51,.65-.25,3.07-1.24,4.66-.66l.05,.45,1.21,.44c-.57,.12-1.55,.21-2.56,.29-1.01,.09-2.04,.14-2.71,.1,.39,.59-.07,.43,.76,.97,.11,.45-.71,.07-.96-.08,.59,.5,1.18,.98,1.76,1.48,.31-.61,1.81,.52,2.08,.02-.82-.31-1.61-.65-2.43-.94,.31-.62,2.3-.69,3.56,.42,.17,.47-.98,.76-1.09,.96,.31-.06,1.51,.59,1.52,.83l-.77-.15c.55,.77,1.72,.24,2.17,1.43,.27,.27,.32,1.38,.62,1.12,.03-.99,1.43-2.89,2.14-3.06,.07,.13,1.08,1.9,1.16,2.47,.08,.87-1.66,.46-1.59,1.2,.14-.12,.55-.07,.71-.03,.2,.38-.5,.32,.21,.82,.57-.42,1.27,1.24,.69-.15,.76,.43,.57,.72,1.33,1.37,.06-.54,1.7-.5,2.45-.02-.16,.09-.17,.39-.18,.53,1.22,1.28,1.69,2.15,2.82,3.35-.01,.22,.39,.93-.05,.89,.25,.09,.57,.08,.93,.43,.24,1.11-.85-.75-.85,.28,.34-.23,1.29,.57,1.96,.94,.3-.58-1.03-1.32-1.72-1.65,.61-.59,2.13-.29,3.58,.74,1.09,.88,0,.81,.25,.9,1.6,2.03,2.57,.69,3.52,2.72,.14,1.01-.79,.72-.97,1.12-.87-.73-.86-1.52-1.37-2.08l.42,.87c-.37-.15-.96-.62-1.11-1.03,.05,.43,.75,1.26,1.55,2.22,.78,.97,1.67,2.05,2.12,2.97,.36,.16,.88,.52,.87,.16l-.45-.45c-.02-.73,1.2,.55,.87-.2,.76,.48,1.74,.92,2.28,2.02l-.35,.55c.13-.13-.18-.85-.54-.99,.53,.22,.45,1.96,1.42,1.9l-.17-.92c.75,.49,1.93,.94,2.4,1.92,.2-.75-.19-.16-.08-1.19-.31,1.05-1.62-2.2-1.72-.8,.18-1.12-.53-1.29-.61-2.51-.14,.15-.08,.52-.56-.24-.07,0-.19-.02-.26-.04l-.03-.06v.05s-.04-.01,.02,.02c.06,.22,.09,.42,.04,.55-.64-.06-1.51-1.18-2-1.41-.26-.47,.32,.02,.3-.33l-.74-.32c.3-.34-.33-1.56,.68-.76l-.71-.88c-.23-.67-.74-1.45-1.26-1.75-.28-.47-1.26-.69-.69-.57l-1.37-1.15,.07-.09c-1.15-1.33-2.96-2.16-3.78-4.14-.5-.34-1-.7-1.62-1.47l.14-.41c-.64-.43-1.36-1.88-1.88-1.81,.11-1.31-2.55-2.69-3.47-3.68l-.37,.35c-.68-.62-1.43-1.1-2.46-1.66l-.23,.39c-1-.32-1.75-1.85-3.03-2.74,.19-.07,.48,.2,.64,.45-.44-.96-1.33-1.42-2.23-1.81-.92-.38-1.82-.7-2.3-1.49-.44-.11-.65-.33-.84-.58,.03,.02,.07,.03,.1,.04-.03-.03-.09-.06-.14-.1-.11-.17-.22-.34-.36-.52,.09,.19,.18,.35,.28,.47-.28-.17-.72-.39-1.19-.56l.09-.52-.1-.05c-.3-.41-.44-.01-.43,.43-.25-.06-.48-.1-.69-.1,.1-.88-1.2-.44-1.22-1.42-.49,.18-2.23-.99-2.88-.36,.04-.1-.06-.22,.17-.1-.42-.34-.84-.67-1.38-.69l.09-.64-1.41,.17c-.44-.66-.61-1,.23-1.08-1.83-.17-1.34-.42-2.96-.4l.24-.32c-.47-.21-1.44-.09-1.58-.51-.36-.58-1.63-1.25-3.15-1.89-1.52-.66-3.24-1.41-4.53-2.22,.14,1.29-1.12-.96-1.54-.16-.07-.32-.41-.61,.12-.67-1.51-.28-2.04-1.15-3.27-.74-.08-.32,.43-.29,.33-.49-.14,.02-.53,.08-.64-.12-.1-.2,.28-.15,.55-.2-1.51-.42-1.9,.35-2.23,1.08-.64-.6-1.03-.65-1.72-.28-.19-.32-.56-.7,.39-.55-.51-.17-3.11-1.2-3.31-.59-.13-.2-.72-.24-.87-.19-1.17-.28-1.27-.36-2.44-.54l.3,.17c-.61,.66-1-.03-1.95-.13l.04-.07c-2.06-.92-.97,.11-3.01-.86l.04,.49c-.35,1-1.79-.93-3.11-.65l.42,.32c-.71,.28-1.74-1.6-2.43-1.8-.14-.11,.25-.12,.47-.16-1.76-.8-.3,.6-1.66,.6-.22-.36,.4-.84-.52-.96-.45-.3-2.72,.94-3.93,.22,.27,.28,.52,.55-.11,.71-.95,.07-2.59-1.02-3.46-.21-.12-.07-.17-.14-.17-.21-.74,.18-2.39,.39-2.81,.85-.36-.82-1.5-.57-2.54-.32-1.04,.29-1.98,.61-2.03-.15l-2.25,.27,.04-.16c-1.45,.04-1.92,.51-2.37,.92-.34-.06-.12-.23-.1-.32-2.13-.03-2.35,.04-3.95,1.12l-.27-.46c-.41,.37-3.16-.25-5.06,.82,0-.06,.03-.16,.17-.27-2.13,1.02-5.79,.09-6.12,2.03-.45,.27-.89,.59-1.33,.88,1.92-.48-.05,.84,.81,.87-.7,.34-2.06,.1-1.19-.28l.17,.04c.05-1.01-2.43,.45-2.59-.18-3.66,1.35-7.4,2.29-10.73,3.88l.7,.47-1.16,.52c-.38,0-.66-.32,.18-.69-.62-.16-1.22,.98-1.17,1.14-1.74,.52,.24-1.07-.26-.84l-.65,.38h.19c-.41,.53-.3,.85-1.28,1.34-.68,.2-.53-.23-.78-.12-.02-.05-.12-.02-.38,.18l-1.45,.72,.85,.19c-.49,.59-1.34,.7-.37,.91-1.45-.34-5.32,2.76-6.01,2.91-.59,.91-1.42,1.43-2.45,2.09,.31-.08,.83,.34-.05,.9-.47-1.32-1.88,.66-3.15,.4,.5,.03-.08,.5-.59,.98-.5,.49-.93,.98-.18,.96-.75,.46-.35-.36-1.07-.19-.65,.87-1.61,1.51-2.62,2.2-.99,.71-2.07,1.43-2.98,2.36,.09,.16,.59,.07,.36,.63-.54,.08-1.06,.19-1.59,.29-.31,.42,.36,1.06-.73,1.27,.2,.01,.49,.04,.29,.32-1.06,.72-2.03,1.56-2.9,2.52-.87,.95-1.75,1.9-2.56,2.91-.82,1.01-1.65,2-2.57,2.92-.89,.95-1.84,1.84-2.96,2.61,.7-.34,.44,.05,.12,.47,.28-.22,.34,.27,.57,.36-.63,.42-1.22,.87-1.81,1.33,.31,.71-1.31,1.9-.92,2.45l.3-.62c.09,1.16,2.08-.06,2.78,.62-.06-.65,.58-1,1.22-1.43,.66-.42,1.34-.9,1.36-1.91,.37-.16,.05,.43,.35,.42-.07-.57,.17-1.02,.88-1.62v.15c.76-1.05,1.46-1.66,2.17-2.32,.73-.64,1.47-1.31,2.57-2.25l-.49-.17c.47-.41,.67-.4,.96-.53-.04-1.01-1.22,1.24-1.36,.23,1.27,.06,3.01-3.2,4.22-2.77,.69-.66-.59-.2,.1-.85l.39,.04-.09-.44c.49-.39,.97-.34,1.16-.17-.13,.08-.26,.35-.36,.48,.81-.31,1.55-1.66,1.85-1.75l-.8,.47c.87-.97,1.97-1.89,3.03-2.85,1.08-.94,2.16-1.84,2.95-2.88l-.29-.06c1.24-1.54,1.37-.74,2.94-2.16l-.03,.09c.21-.43,.6-.86,1.08-1.18-.28,.52,1.11-.16,.7,.47,1.47-1.52,.65-.85,1.33-2.31l.47,.13c.21-.54,.14-.71,.97-1.38-.55,.75,.86,.1,.29,.99,2.29-.49,2.38-2.41,3.84-1.92,.35-1.41-1.93,.5-1.55,.02-.58-.04,.33-1.09,.98-1.37,.62-.36,1.71,.55,3.24-.32-.16,.08-.13,.15-.29,.23,.7-.09,.97-.93,1.88-.95,.12-.76,.96-.43,.72-1.2-.46,.3-.93,.57-1.37,.9,.71-.63,1.1-1.81,2.67-2.09-.04,.2-.36,.58-.58,.83,.5,.01,.71-.52,1.22-.5,.22,.77-1.71,1.02-2.32,1.99,.58,.09,1.42-1.33,1.35-.34,.16-1.29,1.61-.64,2.34-1.91l.13,.46c.14-.14,.41-.5,.74-.63l-.33,.81c.67-.86,1.89-.32,2.62-.94-1.77,.78-.62-.35-1.51-.35,1.97-1.52,1.73,.55,4.13-.6-.31,.19-1.37,.22-.92-.19,.51-.09,1.21-.16,1.59-.04,1.62-.72-.42-.36,.18-.9,.77,.33,.73-.54,1.41-.98l.17,.45c2.03-.34,.19-1.12,2.05-1.34l-.53,.88,.85-.46-.02,.58c.86-.7,1.19-.73,2.21-.85-.32-.26-.12-.87,.75-1.13,.67,.11-.21,.53,1,.13-.2,.37-.4,.82-1.05,.54-.01,.17-.19,.37-.2,.53,.72,.14,1.61-.37,2.05-.49-.17,.03-.38,.06-.51,.02l1.61-1.13c.33,.11,.14,.3-.05,.49,.35-.14,.55-.41,1.08-.57-.05,.41,.08,.8-.63,1.15l1.6-.81c.15,.14,.98,.26,.79,.45,.49,0,1.03-.32,1.61-.63,.59-.29,1.22-.58,1.88-.54,.05-.09,.17-.18,.43-.29,.6-.06,1.19-.02,1.78-.06,.6-.02,1.21-.11,1.89-.47l.89,.59c1.09-.3-1.2-.74,.62-1.24,1.29-.39,.56,.53,1.04,.67,.61-.41,1.7-1.22,2.95-.75-.39,.17-.71,.09-1.08,.17Zm13.84-.43c-.28,.08-.83,.36-1.01,.07,.34-.53,.56-.25,1.01-.07Zm21.04,2.71c-.24,.09-.51-.08-.8-.36,.26,.04,.53,.14,.8,.36Zm51.09,30.93h-.04c-.26-.61-.17-.39,.04,0Zm.67,1.13c.13,.06,.18,0,.2-.08-.15,0-.34-.21-.53-.49-.04,.15,0,.34,.33,.56ZM53.81,42.72h.28c-.43,.39-.35,.2-.28,0Z"/><path d="M125.07,37.76c-.05-.1-.05-.19-.04-.28-.12,.05-.15,.14,.04,.28Z"/><path d="M84.21,36.91h-.04s-.02,.07-.03,.1l.07-.1Z"/><path d="M162.68,58.5c-.15-.22-.2-.38-.21-.51-.09,.08-.06,.23,.21,.51Z"/><path d="M184.22,74.74l-.6-.59c.26,.31,.26,.48,.33,.69,.08-.08,.11-.31,.28-.11Z"/><path d="M186.01,82.28c.12,.06,.15,.2,.27,.27l.17-.15c-.3-.41-.65-.6-.43-.11Z"/><path d="M183.41,76.32c-.29,.3,.14,.62,.54,1.04-.02-.03-.04-.05-.06-.08,.56-.2,.04-.58-.48-.96Z"/><path d="M184.04,77.46c.12,.13,.23,.27,.32,.43,.22-.08-.09-.2-.32-.43Z"/><path d="M180.57,70.97c.09,.28,.51-.19,.48,.03,.6-.09-1.66-1.03-.48-.03Z"/><polygon points="182.62 77.49 182.9 77.03 182.38 77.02 182.62 77.49"/><path d="M180.15,73.69l.46,.8c.06-.06,.17,0,.29,.09-.34-.45-.64-1-.75-.89Z"/><path d="M180.9,74.58c.17,.24,.36,.45,.52,.53-.1-.13-.33-.38-.52-.53Z"/><polygon points="181.74 76.59 181.66 76.31 181.3 75.77 181.74 76.59"/><path d="M173.85,66.1l-.78-.64c-.19,.04-.09,.31,.21,.54,.25,.1,.55,.32,.57,.1Z"/><path d="M174.83,69.27c-.1-.27-.03-.36,0-.58l-.49,.39,.49,.19Z"/><path d="M172.8,67.2c-.2,.04-1.33-.72-.46,.17,.19-.04,.97,.59,.46-.17Z"/><polygon points="162.64 56.22 162.84 56.38 163.47 55.58 162.64 56.22"/><path d="M150.73,50.37c.83,.83,.57-.38,1.28,.44,.36-.05-.58-.67-.23-.69-.73-.17-.95-.49-1.05,.25Z"/><path d="M151.78,50.12c.12,.03,.24,.05,.39,.06-.21-.06-.31-.07-.39-.06Z"/><polygon points="18.36 73.6 17.73 74.11 18.31 73.9 18.36 73.6"/><path d="M18.11,75.24l-.64-.22,.21,.71c.08-.16,.23-.47,.43-.49Z"/><path d="M108.46,36.56l.07-.15c-.1-.18-.27-.21-.61-.27l.54,.42Z"/><polygon points="98.54 35.73 98.71 35.73 98.37 35.16 98.54 35.73"/><path d="M90.26,37.02c.34-.03,.72-.2,1.06-.2-.73,.16-1.24-.51-1.06,.2Z"/></g><g><path d="M53.67,22.72s.35-.14,.42-.17c-.1,0-.52,.22-.42,.17Z"/><polygon points="52.61 22.65 52.77 22.59 52.36 22.69 52.61 22.65"/><path d="M52.44,22.22c-.65,.3,.17,.11-.03,.29l-.15,.07,.55-.18c-.12-.06-.53-.04-.37-.18Z"/><path d="M53.79,21.45c-.26,.11-.24,.04-.06,.08l.06-.03s-.01-.02,0-.05Z"/><path d="M53.79,21.5s.21-.11,0,0h0Z"/><path d="M53.57,21.35l.25-.03c.15-.07,.17-.13,.29-.15-.15-.01-.3,.05-.54,.18Z"/><path d="M53.06,21.47h.11c.06-.03,.08-.05-.11,0Z"/><path d="M53.4,21.45h-.23c-.11,.06-.32,.14,.09,.01-.2,.07,0,.01,.14-.01Z"/><path d="M53.31,21.53c-.13,.09-.21,.16-.46,.19,.13,.08,.6-.11,.46-.19Z"/><path d="M51.74,22.46l-.18,.12,.24-.05c-.12,.02,.14-.16-.06-.08Z"/><path d="M53.8,20.87c-.15,.05-.38,.15-.56,.22h.18c.09-.07,.17-.14,.38-.22Z"/><path d="M53.24,21.08l-.27,.02c0,.07,.11,.04,.27-.02Z"/><polygon points="52.31 21.73 52.87 21.65 52.3 21.71 52.31 21.73"/><polygon points="53.74 20.62 54.08 20.55 53.56 20.65 53.74 20.62"/><path d="M53.62,20.48c.29-.06,.46-.18,.64-.21-.06-.03-.32,.01-.54,.04,.13,0,.11,.04-.1,.17Z"/><path d="M53.39,20.35c.07,0,.2-.02,.33-.04-.07,0-.17,.01-.33,.04Z"/><path d="M53.01,20.97c.09-.03,.31-.12,.39-.19l-.4,.16v.03Z"/><path d="M52.99,20.94h.01s0-.06,0-.07l-.02,.07Z"/><path d="M53.01,20.97h0s-.05,.01,0,0Z"/><path d="M52.62,21.42c-.24,.04-.51,.04-.83,.24,.29-.07,.47-.18,.83-.24Z"/><path d="M52.51,21.17l-.07,.1c.11-.04,.26-.1,.38-.12l-.31,.02Z"/><polygon points="52.37 21.18 52.51 21.17 52.54 21.14 52.37 21.18"/><path d="M53.05,20.59c-.19,.03-.21,0-.25-.03-.07,.07-.1,.12-.08,.16,.13-.03,.37-.09,.34-.13Z"/><path d="M52.98,20.77h-.03s-.04,.02,.03,0Z"/><path d="M52.69,20.17l-.07,.03,.07-.02h0Z"/><path d="M52.64,20.74c-.07,.06,.04,.04,.17,.02-.05,0-.08-.03-.1-.05-.06,.02-.1,.03-.07,.03Z"/><path d="M53.17,20.3c-.08,.04-.15,.08-.21,.12,.13-.06,.32-.15,.21-.12Z"/><path d="M53.07,20.73h.02c.08-.04,.04-.02-.02,0Z"/><path d="M53.07,20.73c-.06,0-.17,.02-.26,.04,.04,0,.09,.01,.15,0l.11-.05Z"/><path d="M50.02,20.8c.38-.1,.76-.11,.37,.08,.31,0,1.54-.42,2.23-.69-.17,.05-.32,.09-.57,.08-.2,.08-.44,.31-.8,.34-.22-.04,.11-.12,.3-.23-.46,.18-.73,.07-1.42,.28l.27,.02c-.11,.03-.29,.05-.38,.1Z"/><path d="M52.61,20.35l.06,.02c.06-.05,.2-.12,.49-.25-.2,0-.34,.04-.47,.07v.16h-.07Z"/><path d="M52.71,20.5c-.42,.1-.62,.08-1.05,.26,.05,.08,.36-.04,.56-.04-.14-.11,.24-.03,.45-.2,.08,0,.11,.03,.13,.04,.04-.04,.1-.08,.17-.13h-.03s-.08,.05-.05,.03c0,0,0,0,0,0l-.16,.04c.07-.07,.11-.04,.16-.04l.06-.02h0l-.27-.08s-.03,.08,.04,.13Z"/><path d="M50.89,21.88s.06-.03,.09-.04c-.05,0-.09,.02-.09,.04Z"/><path d="M51.11,21.73c.06,0,.23-.05,.2,0-.11,.07-.2,.07-.33,.11,.12-.02,.32-.03,.49-.16h-.06c.12-.1,.6-.34,.66-.35-.36,.14-.62,.24-.97,.4Z"/><path d="M51.8,21.13l-.24-.06-.33,.17,.21-.07c-.06,.1,.2,0,.36-.05Z"/><polygon points="52.89 20.1 53.33 19.98 52.69 20.09 52.89 20.1"/><polygon points="52.79 19.96 53.18 19.86 52.94 19.88 52.79 19.96"/><path d="M46.12,11.53h-.12s.08,0,.12,0Z"/><path d="M46.15,11.81l.19-.03c-.11,0-.19,.02-.19,.03Z"/><path d="M51.88,16.05c.35-.12,.91-.29,.47-.2l-.42,.09c.08,.02,.04,.06-.05,.1Z"/><path d="M48.83,13.65l-.13,.04c.15-.01,.29-.02,.42-.03-.09,0-.19,0-.29,0Z"/><path d="M47.05,13.92l.26-.12c-.09,.03-.18,.07-.26,.12Z"/><path d="M45.37,10.2l-.44,.06c.02,.06,.23-.02,.44-.06Z"/><path d="M52.24,18.4c.15-.08,.22-.13,.23-.17-.23,.11-.58,.23-.23,.17Z"/><path d="M50.66,10.75c-.08,0-.17,0-.27,.02,.08,.01,.16,0,.27-.02Z"/><path d="M52.43,18.1l-.09,.05c.08,.02,.14,.04,.13,.08,.17-.08,.27-.15-.03-.13Z"/><path d="M44.12,5.36l.04-.03c-.05,.03-.05,.03-.04,.03Z"/><path d="M47.12,1.8s.05,.03,.07,.05c.02-.03,0-.05-.07-.05Z"/><path d="M52.81,19.3s.05,0,0,0h0Z"/><path d="M51.19,19.89s-.11,.02-.21,.04c.1-.02,.17-.04,.21-.04Z"/><path d="M49.72,18.33h0c-.08,.02-.07,.02,0,0Z"/><path d="M52.63,19.4s.09-.05,.11-.07c-.03,.01-.07,.04-.11,.07Z"/><path d="M52.83,19.34l-.03,.04c.07-.01,.11-.03,.03-.04Z"/><path d="M52.77,19.26s0,.04-.03,.06c.03-.01,.05-.02,.06-.02,0,0-.02-.02-.03-.04Z"/><path d="M46.2,7.44l.04-.02c-.18,.02-.15,.03-.04,.02Z"/><path d="M47.27,15.91h0Z"/><path d="M46.93,15.83c.54-.04,.48,0,.38,.07l1.22-.26-1.6,.19Z"/><path d="M45.87,10.92l-.36,.17c-.65,.03-.45-.09-.97,.1,1.33-.27,.2,.3,1.54,.04l-.27,.11s-.07,0-.06-.02c-.61,.24,.98-.11,.82,.07-.09,.07-.28,.14-.44,.14l.35,.05s-.25,.08-.23,.04l.14,.15h-.04c.21-.01,.55-.02,.69-.02-.18,.08-.15,0-.31,.05l.34,.03c-.34,.11-.69,.09-.65,.01-1.31,.34,.35,.02-.39,.36l-.19-.06c-.75,.2-.46,.22-.91,.41,.24-.07,1.15-.43,1.5-.39-.1,.05-.14,.1,.14,.1-.47,.09-.35,.12-.31,.19l-.63,.11c.2,.04,.51-.03,.81-.03-.05,.09-.53,.2-.94,.3-.08,.15,.76-.23,.91-.1-.22,.15,.05,.18,.45,.25-.2,.12-.39,.06-.56,.12l.51-.02s-.16,.04-.24,.05c.21,.02,.63-.11,.82-.05,.7-.1-.98,.37-.17,.34-.17,.06-.39,.05-.63,.11,.54,.07,.4,.07,1.12,.08l-.39,.18c.46-.16,1.04-.16,1.51-.15l.51-.16,.36,.09c-.1,.04-.32,.06-.59,.08h.16c-.22,.09-.59,.13-.95,.15,.12-.04,.25-.08,.38-.12-.39,.03-.82,.07-1.19,.14,.07,0,.14,0,.18,.02-.11,0-.2,.02-.26,.03-.07,.02,.08,0,.24,0l-.7,.16,.28-.04-.41,.27c.73,.01,1.79-.05,2.12,.12-.52,.03-.84,.13-1.45,.24,.64-.17-.3-.12-.19-.25-.06,.07-.35,.11-.46,.11l.62,.1c-.5,.08-.37,.11-.56,.19,.98-.21,.68,.04,1,.07-.33,.06-.67,.1-.61-.01-.72,.24,1.18-.06,.57,.16-.01-.02,.04-.04-.13-.03,.3,0,.1,.18-.2,.2v-.02c-.1,.18,.07,.49,.91,.37-.11,.02-1.01,.15-1.18,.18l2.87-.21c-.72,.1-2.42,.5-2.85,.44-.1,.06-.21,.13,.06,.16,.1-.04,1.03-.25,1.1-.22-.78,.24-.42,.14-1.08,.39,.15-.07,1.28-.22,1.26-.16-.17,.02-1.11,.2-1.23,.2l1.14-.04c-.21,0-.94,.16-1.25,.25,.21-.06,0,.14,.12,.16l.24-.11c-.13,.21,1.59-.11,1.56,.07-.23,.02-1.42,.21-1.54,.32,.57-.06,2.76-.33,3.22-.26l-.32,.09,.39,.05c-.86,.09-2.69,.22-3.41,.24-.24,.11-.38,.09-.33,.18-.3,.09-.47,.03-.49,0l-.15,.27c.66-.14,.7,.05,1.24-.06l-.73-.12c.66-.13,1.9-.21,1.81-.03-.25,.09-1.18,.19-1.4,.24,.23-.02,.47,.07,.31,.12h-.37c-.23,.14,.91-.02,.3,.21-.03,.05-.83,.28-.43,.21,.74-.21,3.07-.68,3.64-.76-.05,.02-.68,.33-1.04,.45-.58,.18-1.42,.19-1.92,.35,.18-.03,.41-.04,.48-.04-.15,.07-.56,.1-.46,.17,.67-.12-.02,.19,.57-.07,.21,.04-.12,.12-.07,.21,.42-.12,1.49-.22,1.69-.18-.17,.03-.39,.1-.49,.13-.03,.18-.31,.34-.28,.5-.16,.05-.33,.17-.63,.2,.12,0,.35-.03,.38,.01-.55,.23-.12-.09-.79,.14,.39-.08,.56,0,.82,.02,.59-.16,.08-.19-.18-.2,.82-.18,1.71-.26,2.13-.19,.23,.08-.52,.18-.4,.17-.09,.27,1.48-.14,.93,.2-.5,.21-1.04,.26-1.41,.37-.22-.06,.29-.24,.26-.31l-.23,.15c-.18,0-.33-.03-.19-.1-.45,.18,0,.43-.38,.73,.18-.01,.38,0,.58-.08l-.09-.04c.41-.16,.61-.04,.79-.16,.32,0,.8-.04,.6,.13l-.59,.18c.17-.05,.33-.16,.14-.15,.27-.03-.76,.38,.03,.22l.39-.19c.32,0,.97-.09,.81,.06,.57-.2-.07,0,.59-.26-.83,.29-.03-.24-.9,.09,.78-.28,.3-.21,.96-.47-.19,.05-.37,.13-.29,.03-.06,0-.13,.02-.18,.03h0s-.04,0,0,0c-.08,.04-.18,.08-.29,.12-.46,.08-.48-.05-.72-.03,.08-.07,.23-.04,.43-.12l-.36,.02c.43-.12,.69-.3,.98-.26v-.1c.23-.12,.31-.22,.11-.22,.08-.07-.51,0-.16-.04l-.31-.09,.11-.03c.02-.16-.8-.15-.05-.5-.12-.03-.27-.05-.16-.17l.38-.1c-.15-.04,.34-.28-.06-.23,1.01-.29,.16-.37,.31-.53l-.5,.1c.01-.09-.15-.14-.37-.2l-.44,.09c-.38-.02,.27-.29,.19-.42,.17-.02,.13,.02,.04,.07,.96-.36-.79-.22-.09-.51-.17,0-.12-.05-.01-.09,0,0,.01,0,.02,0,0,0,0-.01,0-.02l.22-.1c-.1,.04-.19,.07-.23,.09-.01-.03-.08-.06-.2-.09l.47-.11s0,0-.02,0c.17-.08-.23,0-.58,.09-.08,0-.18-.01-.3,0,.76-.17-.28-.07,.53-.27-.4,.04-.34-.17-1.18-.04,.11-.02,.16-.04,.17-.02,.09-.07,.17-.13-.07-.14l.6-.13-.83,.03c.36-.13,.56-.2,1.04-.21-.74-.03-.29-.08-1.02-.09l.39-.06s-.56-.03-.24-.12c.72-.24,0-.56,.65-.95-1.14,.25,.49-.22-.4-.08,.27-.06,.42-.13,.66-.12-.29-.1,.39-.29-.37-.26,.27-.06,.4-.04,.56-.08-.06,0-.24,0-.08-.05,.16-.04,.23-.02,.35-.02-.07-.14-.91,0-1.7,.12,.36-.14,.3-.17-.22-.13,.25-.07,.51-.16,.62-.09,.03-.06,.32-.38-.31-.27,.16-.04,.03-.08-.04-.08,.02-.12,.07-.14,0-.24l-.1,.05c-.77,.09-.19-.06-.29-.14h.08c.51-.32-.28-.05,.31-.37l-.47,.1c-1.02,.17,.57-.29,.15-.34l-.26,.09c-.36,0,1.35-.44,1.46-.53,.09-.03,.15,0,.21,0,.57-.29-.62,.09-.79-.01,.33-.09,.85-.13,.9-.23,.26-.1-1.13-.05-.51-.29-.25,.08-.5,.15-.71,.13-.11-.07,.92-.44,.09-.37,.07-.03,.13-.04,.2-.06-.22-.03-.39-.16-.84-.12,1.61-.4-.88-.27,.62-.58l-.12-.2,.15-.03c.07-.16-.3-.13-.67-.1,.09-.05,.24-.06,.32-.08,.25-.27,.18-.28-.6-.28l.48-.13c-.29,.02,.69-.47,.08-.54,.05-.01,.15-.03,.22-.03-.62-.08,1.21-.89-.57-.52l-.47-.04c-.08,.22-.77,.17-1.03,.33-.12-.04,.47-.33,.59-.26l-.08,.04c.92-.21,.26-.32,.88-.49-.16-.37,.26-.88,.17-1.26l-.68,.26v-.14c.15-.08,.53-.22,.53-.12,.38-.17-.38-.04-.53,0,.22-.27,.83-.2,.83-.25l-.08-.06-.08,.04c-.3,.03-.61,.13-.61,.01,.12-.11,.42-.18,.43-.21,.05-.02,.07-.03,0-.05v-.18l-.52,.25c-.29,.02-.02-.16-.61,.13,.92-.44,.15-.7,.41-.87-.43,.05-.46-.04-.46-.18-.1,.07-.7,.33-.66,.2,1.26-.46,.47-.4,1.32-.85-.56,.32-.27-.23-1.05,.24,.07-.13,.46-.2,.72-.39-.55,0,.12-.59-.17-.77-.16,.07-.38,.23-.64,.29l.72-.52c-.1-.01-.93,.41-.43,.04-.13,.08-.32,.2-.38,.19,.26-.43-.02-.6-.22-.8-.22-.2-.35-.43,.18-1.1-.25,.25-.3,.22-.34,.18-.05,.08-.37,.23-.56,.37l.43-.56c-.57,.33-.17-.19-.71,.15h.13c-.66,.34-1.3,1.04-2.11,1.55,.76-.39-.93,.88,.16,.34-.15,.13-.28,.14-.45,.27,.37-.19,.46-.19,.35-.03l-.09,.05c.2,.14-.08,.42-.21,.77l.41-.24c-.03,.08-.16,.16-.25,.24,.66-.29-.03-.16,.69-.49-.81,.53,.17,.36-.79,.91,.03,.07,.48-.27,.51-.19l-.25,.15,.35-.15c-.03,.08-.35,.27-.58,.38,.02-.02-.08,0-.1,0-.28,.21,.19,.12,.1,.19l.13-.15c.36,.07,.11,.48,.75,.45l.2-.1c.45,0-.17,.22,.08,.33h-.05c.22-.04,.34-.03,.34,.03-.26,.05-.44,.27-.73,.32,.48,0,.36-.05,1.18-.23l-.34,.16c.33-.08,.5-.14,.62-.08-.33,.04-.51,.25-.93,.32-.7,.47,.87,0-.22,.49,1-.25,.48-.36,.7-.38,.3-.16,.75-.18,.67-.08,0,.07-1.2,.54-1.13,.68,0-.02-.07,0-.08,0-.23,.14,.37,0,0,.2,.6-.15,0,.1,.75-.13l-.22-.09c.22,.01,1.13-.19,.75,.08-.16,.04-.37,.06-.49,.07-.21,.11,.17,.03-.04,.14-.76,.23-.22-.12-.83-.02-.3,.14,.6-.02-.23,.2,1.06-.27-.08,.19,.75,.04l-.46,.13c.08,0,.3-.04,.3,0l-.6,.12c.53-.07-.39,.3-.1,.29-.06-.17,.54-.2,.85-.37,.67,.04-1.16,.48-.87,.64-.07-.01,.24-.2,.47-.21-.08,.07-.24,.18-.47,.28,.14,.13,.46-.16,.76-.17-.54,.21,.25,.01,.45,.04l-.47,.13c-.25,.26,.98-.22,.67,.05l-.67,.1,.19,.04-.54,.12c.42-.01,.33,.04,.2,.17,.32-.11,.85-.21,.89-.13-.26,.13-.45,.08-.36,.18-.3,.05-.67,.11-.25-.05-.15,.03-.3,.06-.45,.08-.3,.14-.04,.17-.02,.21,.01-.02,.03-.05,.1-.07h.69c-.17,.08-.32,.09-.46,.1,.06,.02,.28,0,.33,.03-.38,.08-.78,.18-.97,.15l.46,.05c-.16,.05-.44,.19-.58,.2-.2,.14,.79,.04,.52,.23,.08-.01,.15-.02,.21,0-.06,.13-.51,.33,.05,.35l-.67,.22c.18,.07,.84-.29,1.14-.17,.24,.08-.58,.17-.76,.26,.36-.01,1.09-.05,.55,.18-.14-.01-.04-.06-.1-.09Zm.57,1.25c-.1,0-.42,0-.14-.07,.55-.07,.29,0,.14,.07Zm1.51,1.84c-.16,0-.09-.04,.09-.1,.04,.02,.03,.05-.09,.1Zm4.39,5.02h-.02c.17-.1,.1-.06,.02,0Zm-.18,.16c.07,0,.13-.02,.2-.04-.12,.02-.13,0-.11-.04-.12,.04-.2,.07-.09,.08Zm-3.01-13.14l-.11,.06c-.15-.01-.03-.04,.11-.06Z"/><path d="M47.26,13.89l.26-.06c-.08,0-.17,.02-.26,.06Z"/><polygon points="45.45 10.19 45.45 10.18 45.37 10.2 45.45 10.19"/><path d="M47.76,18.22c.06-.04,.15-.07,.23-.1-.12,.02-.21,.05-.23,.1Z"/><path d="M53.11,19.57l-.14-.04s-.07,.07-.14,.1c.11-.03,.26-.09,.28-.07Z"/><path d="M50.41,21.02c.06,0,.01,.02,.07,.02l.21-.07s-.21-.03-.29,.05Z"/><path d="M51.58,20.06c-.39,.11-.24,.12-.16,.15,0,0,0,0,0,0,.55-.14,.36-.14,.16-.15Z"/><path d="M51.44,20.22s.04,.02,.02,.04c.22-.06,.04-.03-.02-.04Z"/><path d="M52.46,19.27c-.1,.05,.51-.11,.35-.06,.51-.1-.64,0-.35,.06Z"/><polygon points="50.3 20.46 50.78 20.3 50.38 20.38 50.3 20.46"/><path d="M50.54,19.94l-.11,.12c.08-.02,.13-.02,.17-.02,0-.06,.08-.14-.06-.1Z"/><path d="M50.6,20.04s.02,.05,.1,.05c0-.01-.03-.04-.1-.05Z"/><polygon points="50.13 20.38 50.22 20.32 50.24 20.25 50.13 20.38"/><path d="M50.41,19l-.16-.06c-.17,.03-.27,.08-.19,.1,.12,0,.19,.02,.35-.04Z"/><path d="M49.15,19.6c.1-.05,.2-.08,.36-.13l-.6,.14h.24Z"/><path d="M48.94,19.35c-.17,.03-.52-.03-.45,.08,.17-.03,.33,.04,.45-.08Z"/><polygon points="49.4 17.73 49.41 17.75 50.41 17.55 49.4 17.73"/><path d="M46.76,16.9c-.22,.16,.62-.09,.34,.07,.24-.02,.23-.13,.44-.14-.26-.02-.13-.09-.78,.07Z"/><path d="M47.54,16.83h.16c-.07,0-.12,0-.16,0Z"/><polygon points="47.41 1.23 47.54 1.04 47.28 1.28 47.41 1.23"/><path d="M46.7,1.52l.52-.39-.51,.29s.1,0-.01,.09Z"/><path d="M45.19,12.61l.15-.02c.16-.04,.17-.06,.19-.1l-.35,.12Z"/><polygon points="45.48 11.57 45.47 11.59 46.04 11.44 45.48 11.57"/><path d="M44.59,10.95s.12,.05,.1,.08c-.12-.05,.61-.25-.1-.08Z"/></g><g><path d="M14.69,41.51s.18-.34,.22-.4c-.07,.07-.26,.5-.22,.4Z"/><polygon points="13.92 42.17 14.01 42.02 13.75 42.36 13.92 42.17"/><path d="M13.59,41.97c-.34,.63,.18-.03,.11,.22l-.07,.15,.31-.48c-.11,.04-.4,.32-.35,.12Z"/><path d="M14.25,40.57c-.14,.24-.16,.18-.01,.09l.03-.06s-.02,0-.02-.03Z"/><path d="M14.27,40.6s.11-.21,0,0h0Z"/><path d="M14.05,40.65l.17-.18c.08-.14,.07-.2,.15-.29-.11,.09-.19,.23-.32,.47Z"/><path d="M13.73,41.06l.08-.07c.03-.06,.04-.08-.08,.07Z"/><path d="M13.97,40.83l-.16,.15c-.06,.1-.18,.29,.06-.05-.12,.17,0,.01,.1-.1Z"/><path d="M13.93,40.94c-.06,.15-.09,.25-.26,.43,.13-.03,.39-.46,.26-.43Z"/><path d="M13.19,42.6l-.07,.2,.16-.19c-.08,.09,.03-.21-.08-.01Z"/><path d="M14.03,40.18c-.08,.13-.22,.34-.33,.5l.13-.12c.05-.1,.07-.19,.2-.38Z"/><path d="M13.7,40.68l-.19,.18c.02,.05,.1-.04,.19-.18Z"/><polygon points="13.28 41.71 13.66 41.31 13.26 41.71 13.28 41.71"/><polygon points="13.89 40.06 14.12 39.79 13.77 40.19 13.89 40.06"/><path d="M13.75,40.04c.19-.22,.28-.41,.4-.54-.06,.02-.23,.21-.39,.37,.1-.08,.1-.04-.01,.17Z"/><path d="M13.53,40.1c.05-.05,.14-.14,.24-.23-.05,.04-.12,.11-.24,.23Z"/><path d="M13.48,40.75c.05-.08,.18-.28,.22-.37l-.23,.36v.02Z"/><path d="M13.46,40.74h0s-.02-.05-.02-.06l.02,.06Z"/><path d="M13.48,40.76h0s-.03,.04,0,0Z"/><path d="M13.38,41.31c-.16,.18-.37,.35-.52,.69,.19-.23,.27-.42,.52-.69Z"/><path d="M13.19,41.2v.11c.06-.09,.14-.23,.22-.32l-.22,.21Z"/><polygon points="13.09 41.3 13.19 41.2 13.2 41.16 13.09 41.3"/><path d="M13.36,40.47c-.13,.13-.16,.13-.21,.14-.03,.08-.02,.14,0,.16,.09-.1,.24-.29,.21-.29Z"/><path d="M13.38,40.63l-.02,.02s-.02,.04,.02-.02Z"/><path d="M12.92,40.41l-.05,.06,.05-.06h0Z"/><path d="M13.11,40.83c-.03,.08,.05,0,.14-.09-.04,.02-.07,.03-.09,.03-.04,.05-.06,.08-.04,.07Z"/><path d="M13.34,40.21l-.11,.21c.07-.11,.19-.3,.11-.21Z"/><path d="M13.43,40.55h.01c.05-.09,.02-.05-.01,0Z"/><path d="M13.43,40.55s-.12,.12-.18,.19c.03-.02,.07-.05,.12-.09l.06-.1Z"/><path d="M11.08,42.44c.26-.3,.55-.53,.33-.16,.24-.18,1.03-1.22,1.46-1.82-.11,.13-.21,.26-.41,.4-.12,.18-.22,.48-.49,.72-.2,.1,.04-.16,.14-.34-.29,.4-.55,.48-1,1.04l.23-.14c-.07,.09-.21,.21-.26,.3Z"/><path d="M12.93,40.57l.05-.02c.02-.07,.11-.21,.28-.47-.15,.12-.25,.23-.34,.33l.05,.12-.04,.04Z"/><path d="M13.06,40.62c-.28,.33-.44,.43-.7,.82,.08,.03,.26-.25,.42-.37-.16,.02,.17-.17,.26-.41,.06-.04,.09-.05,.12-.05,.02-.05,.04-.11,.08-.19v.02h-.02s-.05,.08-.03,.05h0l-.1,.13c.03-.09,.07-.09,.1-.12l.04-.05h0l-.23,.11c-.02,.06,.01,.07,.08,.07Z"/><path d="M12.27,42.71l.05-.08s-.06,.07-.05,.08Z"/><path d="M12.38,42.47s.15-.18,.15-.13c-.05,.12-.12,.17-.2,.29,.08-.08,.23-.22,.3-.42l-.04,.04c.04-.15,.3-.63,.34-.67-.21,.32-.36,.56-.56,.89Z"/><path d="M12.63,41.62l-.21,.11-.18,.33,.13-.18c0,.1,.15-.12,.26-.26Z"/><polygon points="13.05 40.24 13.35 39.89 12.9 40.35 13.05 40.24"/><polygon points="12.92 40.2 13.18 39.9 13 40.06 12.92 40.2"/><path d="M4.07,37.04l-.11,.04s.07-.02,.11-.04Z"/><path d="M4.19,37.25l.16-.11c-.09,.05-.16,.1-.16,.11Z"/><path d="M10.73,37.94c.26-.27,.68-.66,.33-.38l-.33,.28c.08-.02,.06,.03,0,.1Z"/><path d="M7.21,37.54l-.1,.09c.13-.08,.25-.15,.36-.21l-.26,.13Z"/><path d="M5.73,38.55l.19-.22c-.07,.07-.14,.14-.19,.22Z"/><path d="M2.95,36.28l-.38,.24s.2-.11,.38-.24Z"/><path d="M11.89,39.44c.1-.14,.13-.21,.13-.24-.15,.2-.39,.49-.13,.24Z"/><path d="M7.88,34.45c-.08,.03-.15,.07-.23,.13,.07-.03,.15-.06,.23-.13Z"/><path d="M11.94,39.12l-.06,.08c.07-.03,.13-.05,.13-.01,.11-.15,.17-.25-.07-.07Z"/><path d="M.41,32.92l.03-.05s-.04,.05-.03,.05Z"/><path d="M1.95,28.6s.05,0,.07,.01c0-.03-.01-.04-.07-.01Z"/><path d="M12.68,39.74s.04-.03,0,0h0Z"/><path d="M11.62,41.09s-.08,.08-.15,.15c.07-.08,.12-.12,.15-.15Z"/><path d="M9.76,40.74h0c-.06,.06-.05,.05,0,0Z"/><path d="M12.58,39.91s.05-.09,.06-.12c-.02,.03-.04,.07-.06,.12Z"/><path d="M12.71,39.76v.05c.04-.05,.07-.09,0-.05Z"/><path d="M12.64,39.74s.01,.03,0,.06c.02-.02,.03-.04,.04-.05-.01,0-.02,0-.04,0Z"/><path d="M2.84,33.7l.03-.03c-.16,.1-.13,.09-.03,.03Z"/><path d="M6.67,40.05h.02v-.02l-.02,.02Z"/><path d="M6.34,40.15c.46-.28,.43-.22,.36-.12l.98-.78-1.33,.91Z"/><path d="M3.64,36.65l-.27,.29c-.57,.3-.43,.12-.84,.5,1.11-.79,.28,.16,1.39-.62l-.2,.21s-.06,.03-.06,0c-.47,.46,.84-.51,.76-.29-.06,.1-.2,.24-.35,.3l.33-.11s-.2,.17-.2,.13l.18,.06-.03,.02c.19-.11,.48-.26,.61-.32-.14,.14-.13,.07-.26,.17l.32-.12c-.27,.23-.59,.37-.58,.29-1.06,.84,.32-.14-.23,.46l-.19,.03c-.6,.49-.34,.38-.68,.73,.19-.16,.88-.85,1.21-.97-.07,.08-.09,.14,.16,.02-.39,.28-.27,.25-.21,.28l-.53,.36c.19-.05,.45-.24,.71-.38,0,.1-.41,.39-.74,.65-.02,.16,.6-.52,.78-.48-.14,.22,.11,.13,.49,0-.14,.18-.33,.22-.46,.34l.45-.24s-.13,.11-.2,.15c.19-.07,.53-.36,.71-.4,.59-.39-.75,.73-.03,.35-.13,.12-.33,.22-.53,.36,.51-.19,.38-.12,1.02-.44l-.29,.32c.35-.34,.87-.59,1.29-.8,.17-.16,.33-.29,.4-.36l.35-.1c-.08,.07-.26,.19-.49,.33l.14-.07c-.17,.17-.48,.37-.79,.55,.09-.09,.2-.18,.3-.27-.33,.2-.7,.42-1,.65,.06-.04,.13-.06,.17-.07-.09,.05-.17,.1-.22,.14-.05,.04,.07-.03,.22-.11l-.56,.44,.23-.16-.27,.4c.65-.32,1.57-.85,1.92-.87-.45,.27-.7,.49-1.2,.85,.5-.43-.31,.04-.26-.12-.03,.08-.27,.25-.36,.29l.59-.2c-.41,.29-.29,.25-.43,.41,.79-.61,.62-.28,.91-.41-.27,.2-.56,.39-.54,.27-.55,.52,1.03-.59,.57-.14-.02-.01,.02-.05-.13,.04,.27-.14,.15,.1-.1,.25h-.02c0,.17,.26,.35,.95-.15-.09,.06-.83,.6-.97,.7l2.44-1.52c-.6,.42-1.93,1.54-2.33,1.69-.06,.09-.13,.2,.12,.1,.07-.08,.81-.69,.88-.7-.6,.56-.31,.31-.79,.82,.1-.12,1.04-.79,1.04-.72-.14,.1-.89,.69-1,.75l.98-.58c-.18,.1-.76,.58-.99,.8,.16-.15,.06,.11,.17,.07l.17-.21c-.03,.23,1.34-.86,1.39-.7-.19,.13-1.15,.85-1.21,1.01,.47-.33,2.26-1.61,2.68-1.79l-.24,.23,.35-.16c-.7,.51-2.23,1.52-2.85,1.88-.17,.21-.29,.26-.21,.31-.22,.22-.4,.26-.43,.25l-.02,.29c.52-.43,.62-.3,1.05-.66l-.68,.26c.52-.43,1.56-1.1,1.56-.92-.18,.2-.94,.74-1.11,.89,.19-.13,.43-.17,.32-.06l-.32,.18c-.14,.23,.77-.47,.35,.02-.01,.05-.59,.64-.28,.39,.54-.54,2.34-2.09,2.8-2.44-.03,.04-.45,.6-.71,.88-.42,.44-1.13,.88-1.49,1.25,.14-.12,.33-.24,.39-.28-.09,.13-.44,.36-.32,.37,.52-.44,.06,.16,.46-.35,.2-.07-.05,.15,.03,.2,.31-.31,1.17-.94,1.36-1.02-.13,.11-.29,.28-.36,.35,.05,.15-.12,.42-.02,.53-.11,.12-.21,.31-.44,.49,.1-.07,.28-.21,.33-.19-.36,.47-.14,0-.6,.53,.29-.27,.48-.29,.7-.42,.42-.44-.02-.18-.24-.06,.61-.58,1.32-1.12,1.7-1.3,.22-.07-.36,.42-.26,.34,.04,.25,1.16-.93,.84-.38-.33,.43-.74,.77-1,1.06-.21,.08,.14-.34,.08-.37l-.13,.24c-.15,.11-.28,.16-.2,.02-.3,.38,.19,.33,0,.76,.15-.11,.31-.22,.44-.39l-.09,.02c.26-.35,.48-.38,.57-.57,.26-.18,.63-.49,.53-.25l-.4,.47c.12-.14,.2-.31,.05-.19,.21-.18-.44,.71,.12,.14l.23-.36c.25-.19,.74-.63,.66-.44,.37-.48-.06,.04,.37-.53-.54,.69-.11-.15-.67,.59,.51-.65,.16-.32,.58-.89-.13,.15-.24,.3-.22,.19l-.13,.12h0s-.03,.03,0,.01c-.05,.07-.11,.16-.18,.25-.34,.32-.4,.25-.6,.4,.04-.1,.17-.16,.3-.33l-.28,.22c.3-.33,.44-.61,.69-.74l-.04-.07c.14-.21,.17-.33,.01-.22,.04-.09-.41,.29-.14,.06l-.28,.11,.08-.08c-.04-.12-.72,.33-.23-.32-.11,.05-.24,.11-.2-.02l.28-.27c-.14,.05,.18-.38-.13-.13,.74-.74,0-.35,.08-.54l-.39,.33c-.02-.07-.17-.02-.38,.05l-.34,.29c-.33,.18,.12-.35,.01-.4,.14-.1,.12-.05,.05,.03,.7-.75-.75,.23-.26-.33-.15,.08-.12,.02-.04-.06,0,0,.01,0,.02,0,0,0,0-.01,0-.01l.16-.18c-.08,.08-.14,.14-.17,.18-.02-.01-.09,0-.2,.03l.37-.31s0,0-.02,0c.12-.14-.2,.12-.47,.36-.07,.03-.16,.08-.26,.14,.59-.5-.27,.08,.36-.46-.33,.23-.35,.04-1.04,.54,.09-.07,.12-.11,.14-.1,.05-.09,.1-.18-.11-.07l.48-.39-.71,.42c.26-.27,.42-.42,.83-.66-.66,.33-.28,.08-.93,.42l.32-.23s-.5,.24-.25,.02c.55-.52-.19-.43,.24-1.03-.92,.72,.36-.4-.38,.12,.22-.17,.32-.29,.54-.4-.29,.06,.25-.4-.42-.03,.22-.17,.34-.21,.47-.32-.05,.03-.22,.11-.09,0,.13-.11,.2-.12,.31-.17-.11-.07-.81,.41-1.46,.86,.27-.27,.21-.27-.24,0,.2-.17,.4-.36,.52-.35,0-.06,.16-.44-.37-.07,.12-.1,0-.08-.06-.04-.03-.1,.02-.14-.09-.19l-.07,.08c-.65,.41-.19,.03-.31,.02l.07-.04c.35-.47-.26,.09,.15-.42l-.39,.28c-.85,.58,.41-.48,.02-.34l-.2,.19c-.32,.16,1.06-.94,1.13-1.06,.07-.06,.13-.07,.19-.09,.41-.47-.53,.35-.71,.34,.27-.21,.72-.47,.73-.57,.2-.19-1.02,.46-.55,0-.2,.17-.4,.34-.59,.41-.12-.01,.68-.75-.03-.33,.05-.05,.11-.09,.16-.13-.21,.07-.4,.04-.79,.27,1.31-1.01-.88,.16,.37-.73l-.18-.11,.13-.09c.01-.16-.31,.02-.63,.2,.07-.08,.19-.15,.26-.2,.14-.33,.08-.3-.62,.03l.39-.31c-.25,.14,.47-.68-.1-.47,.05-.03,.12-.09,.19-.12-.58,.2,.8-1.23-.68-.18l-.43,.17c0,.22-.63,.46-.82,.7-.12,.02,.32-.47,.45-.46l-.06,.07c.76-.56,.13-.37,.63-.77-.25-.23-.04-.83-.24-1.1l-.53,.51-.04-.11c.11-.13,.4-.41,.44-.32,.28-.3-.35,.13-.47,.23,.12-.31,.68-.52,.66-.56h-.09l-.05,.05c-.26,.16-.5,.36-.54,.27,.07-.14,.32-.32,.32-.36,.04-.03,.05-.06,0-.04l-.05-.15-.39,.43c-.25,.14-.07-.12-.51,.37,.68-.75-.09-.64,.09-.89-.37,.23-.42,.16-.46,.05-.07,.1-.52,.57-.52,.45,.97-.93,.29-.53,.91-1.28-.4,.51-.3-.08-.85,.65,.02-.13,.34-.37,.52-.64-.48,.24-.08-.54-.39-.57-.12,.13-.26,.36-.47,.52l.48-.75c-.09,.03-.69,.75-.36,.22-.09,.12-.22,.3-.28,.33,.1-.48-.2-.5-.44-.58-.25-.08-.43-.21-.18-1.02-.14,.32-.19,.32-.24,.3-.02,.09-.24,.36-.37,.56l.2-.67c-.39,.53-.21-.09-.56,.44l.11-.06c-.46,.59-.8,1.46-1.33,2.26,.53-.66-.54,1.16,.24,.22-.09,.18-.19,.24-.31,.43,.26-.32,.34-.37,.29-.18l-.06,.08c.21,.03,.05,.39,.04,.73l.28-.38c0,.08-.09,.2-.15,.31,.48-.53-.07-.11,.45-.71-.55,.8,.25,.23-.42,1.1,.05,.05,.33-.44,.38-.39l-.18,.24,.26-.28c0,.08-.23,.38-.39,.57,.01-.03-.07,.03-.09,.04-.18,.3,.2,.01,.14,.11l.07-.18c.33-.09,.24,.34,.78,.04l.14-.17c.39-.19-.09,.26,.16,.24l-.04,.03c.18-.14,.29-.18,.3-.14-.21,.16-.31,.41-.55,.58,.43-.2,.3-.19,.97-.7l-.25,.28c.27-.21,.4-.33,.53-.33-.28,.17-.37,.43-.73,.66-.47,.67,.77-.37-.05,.49,.81-.64,.32-.5,.51-.61,.22-.26,.61-.47,.57-.36,.02,.06-.9,.96-.8,1.05,0-.01-.06,.04-.07,.02-.16,.21,.33-.16,.05,.17,.49-.38,.03,.08,.63-.43l-.22,.02c.2-.08,.95-.64,.69-.25-.13,.1-.31,.21-.42,.27-.15,.18,.16-.05,0,.13-.61,.51-.23,0-.74,.34-.23,.25,.53-.27-.14,.26,.86-.67-.02,.19,.68-.29l-.37,.3c.07-.04,.26-.16,.27-.13l-.5,.36c.45-.29-.26,.4,0,.27-.11-.11,.42-.39,.64-.67,.61-.26-.89,.88-.58,.9-.07,.02,.15-.26,.35-.37-.05,.09-.16,.25-.34,.43,.16,.04,.37-.32,.63-.46-.42,.4,.23-.09,.41-.16l-.38,.3c-.14,.32,.81-.59,.61-.25l-.56,.37,.18-.05-.44,.33c.37-.19,.3-.1,.23,.05,.26-.22,.7-.53,.75-.48-.2,.21-.38,.26-.26,.3-.25,.17-.57,.38-.24,.07-.13,.09-.25,.17-.38,.26-.23,.24,.02,.14,.05,.17,0-.02,.02-.05,.07-.1l.62-.29c-.13,.13-.26,.2-.38,.27,.06,0,.25-.13,.31-.11-.32,.23-.64,.48-.82,.54l.43-.15c-.13,.11-.33,.34-.46,.41-.14,.2,.72-.31,.54-.04,.06-.04,.13-.08,.19-.09-.01,.13-.35,.48,.15,.26l-.53,.47c.18-.02,.66-.59,.97-.63,.25-.04-.46,.39-.6,.53,.32-.16,.96-.51,.55-.09-.13,.05-.06-.03-.12-.03Zm.92,.76c-.1,.04-.38,.18-.15,0,.47-.3,.26-.13,.15,0Zm1.99,.81c-.14,.08-.09,.01,.04-.12,.04,0,.04,.03-.04,.12Zm5.64,1.6l-.02,.02c.1-.17,.06-.1,.02-.02Zm-.08,.22c.05-.04,.1-.09,.14-.14-.09,.08-.11,.07-.1,.03-.08,.1-.13,.17-.04,.11Zm-7.07-8.74l-.08,.1c-.14,.05-.03-.02,.08-.1Z"/><path d="M5.9,38.44c.06-.05,.14-.1,.21-.16-.07,.04-.15,.09-.21,.16Z"/><polygon points="3.02 36.24 3.02 36.23 2.95 36.28 3.02 36.24"/><path d="M8.04,41.67c.04-.06,.09-.13,.16-.2-.09,.08-.16,.15-.16,.2Z"/><path d="M13.02,39.75l-.12,.06s-.03,.08-.07,.15c.07-.09,.17-.21,.19-.21Z"/><path d="M11.5,42.37s.02,0,.07-.03l.14-.18s-.18,.11-.2,.21Z"/><path d="M12.01,40.99c-.26,.31-.14,.23-.06,.2,0,0,0,0,0,0,.38-.42,.22-.31,.07-.2Z"/><path d="M11.96,41.19s.04,0,.04,.02c.15-.17,.02-.05-.04-.02Z"/><path d="M12.39,39.93c-.06,.09,.36-.37,.26-.24,.37-.36-.52,.37-.26,.24Z"/><polygon points="11.16 42.02 11.47 41.63 11.19 41.92 11.16 42.02"/><path d="M11.12,41.5l-.04,.15c.06-.06,.1-.09,.13-.11-.02-.04,0-.15-.09-.04Z"/><path d="M11.21,41.54s.04,.03,.1-.02c-.01,0-.05-.01-.1,.02Z"/><polygon points="10.98 42.06 11.03 41.97 11.01 41.91 10.98 42.06"/><path d="M10.62,40.87l-.16,.04c-.13,.11-.19,.2-.12,.18,.1-.07,.17-.09,.28-.22Z"/><path d="M9.82,42.02c.06-.09,.13-.17,.24-.3l-.44,.44,.2-.14Z"/><path d="M9.54,41.94c-.13,.12-.45,.25-.34,.31,.13-.11,.29-.15,.34-.31Z"/><polygon points="9.24 40.45 9.26 40.47 10.03 39.8 9.24 40.45"/><path d="M6.62,41.1c-.12,.24,.51-.37,.33-.11,.2-.13,.15-.22,.32-.33-.24,.11-.15,0-.65,.43Z"/><path d="M7.27,40.67l.14-.07c-.06,.03-.1,.05-.14,.07Z"/><polygon points="2.02 27.98 2.07 27.76 1.93 28.08 2.02 27.98"/><path d="M1.5,28.54l.33-.56-.35,.47s.09-.04,.02,.09Z"/><path d="M3.6,38.31l.13-.09c.13-.1,.13-.12,.14-.16l-.27,.25Z"/><polygon points="3.51 37.34 3.51 37.36 3.97 37 3.51 37.34"/><path d="M2.5,37.22s.12-.01,.12,.02c-.12,.01,.47-.46-.12-.02Z"/></g><g><path d="M101.76,15.03s.34-.18,.41-.21c-.08,.03-.5,.26-.41,.21Z"/><polygon points="100.82 15.27 100.98 15.21 100.58 15.33 100.82 15.27"/><path d="M100.75,15.05c-.67,.24,.14,.05-.09,.17l-.15,.06,.54-.18c-.1,0-.48,.05-.31-.05Z"/><path d="M102.2,14.51c-.27,.08-.23,.05-.08,.04l.07-.02s0,0,.01-.02Z"/><path d="M102.19,14.53s.22-.07,0,0h0Z"/><path d="M102.02,14.49l.25-.04c.16-.05,.19-.07,.31-.09-.14,.02-.29,.06-.55,.13Z"/><path d="M101.51,14.6h.11c.07-.03,.09-.04-.11,0Z"/><path d="M101.83,14.56l-.22,.03c-.11,.03-.34,.09,.08,0-.21,.05,0,0,.14-.02Z"/><path d="M101.73,14.6c-.15,.05-.24,.1-.48,.14,.11,.03,.59-.12,.48-.14Z"/><path d="M100.04,15.26l-.19,.09,.24-.05c-.12,.02,.17-.11-.05-.04Z"/><path d="M102.35,14.28c-.15,.03-.4,.08-.59,.13h.17c.1-.04,.19-.08,.41-.13Z"/><path d="M101.76,14.41l-.26,.02s.1,.02,.26-.02Z"/><polygon points="100.74 14.78 101.28 14.7 100.73 14.77 100.74 14.78"/><polygon points="102.35 14.17 102.7 14.13 102.17 14.19 102.35 14.17"/><path d="M102.28,14.12c.29-.04,.49-.07,.66-.1-.05,0-.31,.01-.53,.02,.13,0,.1,.02-.14,.07Z"/><path d="M102.09,14.05c.07,0,.2,0,.33-.01h-.33Z"/><path d="M101.57,14.35c.09-.02,.33-.06,.42-.1l-.42,.08h0Z"/><path d="M101.56,14.34h.01s.01-.03,.02-.03l-.03,.03Z"/><path d="M101.56,14.36h0s-.05,0,0,0Z"/><path d="M101.09,14.6c-.24,.03-.5,.03-.85,.15,.29-.04,.49-.11,.85-.15Z"/><path d="M101.04,14.47l-.09,.06c.11-.02,.27-.06,.39-.07h-.3Z"/><polygon points="100.9 14.47 101.04 14.47 101.07 14.44 100.9 14.47"/><path d="M101.7,14.16c-.19,0-.2,0-.23-.03-.08,.03-.13,.06-.12,.08,.13-.01,.37-.04,.35-.06Z"/><path d="M101.59,14.25h-.02s-.05,.01,.02,0Z"/><path d="M101.44,13.93h0Z"/><path d="M101.26,14.24c-.08,.03,.03,.02,.16,.01-.04,0-.07-.01-.08-.03-.06,0-.1,.01-.08,.01Z"/><path d="M101.88,14.02l-.23,.05c.13-.02,.34-.06,.23-.05Z"/><path d="M101.68,14.23h.02c.09-.02,.05-.01-.02,0Z"/><path d="M101.68,14.23c-.06,0-.17,.01-.26,.02,.03,0,.08,0,.15,0l.12-.02Z"/><path d="M98.7,14.05c.4-.02,.77,.01,.35,.1,.3,.03,1.59-.13,2.32-.22-.17,.01-.33,.03-.57,0-.21,.03-.49,.14-.85,.13-.21-.05,.13-.07,.34-.11-.49,.07-.72-.04-1.45,.02l.26,.05c-.11,0-.29,0-.4,.02Z"/><path d="M101.33,14.02h.05c.07-.01,.22-.04,.53-.09-.2,0-.34,0-.47,0l-.05,.09h-.06Z"/><path d="M101.39,14.1c-.43,.04-.62,0-1.08,.09,.04,.05,.36,0,.55,.01-.11-.07,.24,0,.48-.09,.07,0,.1,.02,.12,.03,.05-.02,.11-.04,.19-.06h-.03c-.05,.01-.09,.02-.05,.01h0c-.06,0-.11,0-.16,.01,.09-.03,.11-.02,.16-.01h.07l-.24-.06c-.06,.02-.04,.04,0,.07Z"/><path d="M99.32,14.88l.1-.02c-.05,0-.09,0-.1,.02Z"/><path d="M99.57,14.79c.06,0,.23-.03,.19,0-.12,.05-.2,.04-.34,.07,.11,0,.31-.01,.51-.09h-.06c.14-.06,.66-.21,.72-.21-.38,.08-.65,.14-1.02,.24Z"/><path d="M100.37,14.43l-.22-.05-.36,.09,.22-.03c-.08,.06,.19,0,.36-.01Z"/><polygon points="101.66 13.9 102.11 13.87 101.47 13.89 101.66 13.9"/><polygon points="101.59 13.83 101.99 13.8 101.75 13.8 101.59 13.83"/><path d="M97.61,6.82l-.1-.05s.07,.04,.1,.05Z"/><path d="M97.54,7.01l.19,.05c-.1-.03-.18-.05-.19-.05Z"/><path d="M101.69,11.4c.37,.02,.94,.06,.5,0l-.43-.05c.07,.04,.02,.05-.07,.05Z"/><path d="M99.47,9.06h-.13c.14,.02,.28,.06,.4,.09-.08-.03-.18-.06-.27-.09Z"/><path d="M97.71,8.68h.29c-.1,0-.19,0-.29,0Z"/><path d="M97.38,5.69l-.43-.12s.21,.07,.43,.12Z"/><path d="M101.43,12.87c.17-.02,.24-.04,.26-.06-.25,.02-.62,.03-.26,.06Z"/><path d="M102.09,7.86c-.07-.03-.16-.06-.25-.08,.07,.03,.15,.06,.25,.08Z"/><path d="M101.7,12.74h-.1c.07,.03,.13,.06,.1,.08,.19-.02,.3-.04,0-.08Z"/><path d="M98.21,2.5h.05c-.06,0-.06,0-.05,0Z"/><path d="M102.24,.64s.04,.03,.06,.05c.02-.02,.01-.04-.06-.05Z"/><path d="M101.77,13.47s.05,0,0,0h0Z"/><path d="M100.06,13.6s-.11,0-.21,0h.21Z"/><path d="M99.02,12.33h0c-.09,0-.07,0,0,0Z"/><path d="M101.57,13.5c.05,0,.1-.02,.13-.03-.03,0-.08,.01-.13,.03Z"/><path d="M101.78,13.49l-.04,.02c.07,0,.12,0,.04-.02Z"/><path d="M101.75,13.44s-.01,.02-.05,.03c.03,0,.05,0,.07,0,0,0-.02-.01-.02-.03Z"/><path d="M99.2,4.29h.04c-.17-.05-.15-.04-.04,0Z"/><path d="M97.34,10.08h0Z"/><path d="M97.03,9.94c.53,.13,.46,.14,.34,.15l1.24,.17-1.58-.32Z"/><path d="M97.58,6.33l-.39-.02c-.61-.21-.38-.22-.93-.27,1.33,.29,.08,.27,1.41,.56l-.29-.02s-.06-.03-.05-.04c-.65-.06,.95,.27,.74,.33-.11,.01-.31,0-.46-.06l.31,.15s-.26-.04-.23-.06l.08,.15h-.04c.2,.06,.52,.17,.65,.21-.2,0-.14-.05-.3-.07l.31,.14c-.35-.05-.67-.17-.61-.21-1.34-.22,.32,.13-.48,.1l-.15-.1c-.76-.12-.5,0-.99-.04,.25,.03,1.22,.1,1.53,.25-.1,0-.16,.02,.1,.11-.47-.1-.36-.04-.35,.02l-.63-.14c.17,.09,.49,.16,.76,.25-.07,.05-.56-.04-.97-.11-.12,.08,.79,.1,.89,.24-.26,.03-.01,.14,.34,.31-.23,.01-.38-.09-.56-.11l.49,.15s-.17-.03-.24-.04c.19,.08,.63,.13,.78,.23,.69,.16-1.04-.07-.27,.17-.18-.02-.38-.09-.63-.13,.49,.22,.35,.17,1.03,.4h-.43c.48,.03,1.03,.22,1.47,.37l.53,.05,.32,.17c-.11,0-.32-.06-.58-.13l.15,.05c-.24-.01-.6-.1-.94-.19,.13,.01,.26,.03,.39,.04-.38-.1-.79-.21-1.16-.27,.07,.02,.13,.05,.16,.07-.1-.03-.19-.05-.26-.06-.07,0,.07,.03,.23,.08l-.7-.11,.28,.06-.46,.05c.69,.23,1.71,.51,1.97,.72-.51-.13-.84-.16-1.45-.28,.65,.08-.25-.17-.1-.23-.08,.03-.36-.04-.46-.07l.56,.25c-.5-.1-.38-.04-.59-.04,.99,.15,.64,.23,.93,.34-.33-.06-.67-.13-.57-.19-.76-.06,1.14,.31,.5,.27,0-.02,.05-.02-.12-.06,.29,.09,.04,.15-.25,.08v-.02c-.14,.09-.07,.35,.76,.51-.11-.02-1.01-.19-1.18-.22l2.79,.67c-.72-.14-2.45-.34-2.84-.5-.11,.01-.23,.03,.01,.13,.11,0,1.05,.12,1.11,.16-.81-.06-.44-.02-1.14-.04,.16,0,1.29,.2,1.24,.24-.17-.03-1.12-.17-1.23-.2l1.09,.28c-.2-.06-.94-.15-1.26-.17,.22,.02-.03,.1,.07,.14h.26c-.19,.09,1.55,.34,1.47,.45-.23-.05-1.41-.23-1.56-.19,.57,.11,2.73,.5,3.15,.65l-.33-.02,.36,.12c-.86-.15-2.65-.52-3.34-.7-.27,.01-.39-.04-.37,.04-.31-.01-.46-.1-.47-.13l-.22,.15c.67,.08,.65,.22,1.21,.28l-.67-.27c.67,.08,1.88,.35,1.75,.45-.27,0-1.19-.16-1.41-.19,.23,.04,.43,.17,.26,.16l-.35-.09c-.26,.04,.87,.21,.23,.22-.05,.02-.87,0-.48,.04,.77,.03,3.13,.27,3.7,.36-.05,0-.74,.05-1.12,.05-.6-.01-1.42-.2-1.94-.22,.18,.02,.41,.07,.48,.08-.16,.01-.57-.07-.49,0,.68,.07-.07,.13,.57,.08,.19,.08-.15,.05-.12,.13,.44,.01,1.49,.19,1.68,.26-.17-.02-.4-.02-.5-.02-.07,.11-.38,.16-.4,.27-.17,0-.37,.05-.66,0,.12,.02,.35,.05,.36,.09-.59,.04-.09-.09-.8-.07,.4,.02,.54,.12,.79,.18,.61,0,.12-.11-.12-.18,.84,.04,1.72,.17,2.11,.29,.21,.09-.55,.02-.43,.04-.15,.16,1.47,.17,.86,.28-.54,.05-1.07,0-1.46,0-.2-.08,.34-.11,.32-.16l-.25,.06c-.18-.03-.31-.08-.16-.1-.48,.04-.1,.29-.54,.43,.18,.02,.37,.06,.58,.04l-.07-.04c.43-.04,.6,.07,.8,.01,.31,.05,.79,.09,.55,.16l-.61,.03c.18,0,.36-.06,.18-.07,.27,.02-.82,.14-.02,.14l.42-.07c.31,.04,.96,.06,.77,.12,.6-.06-.07-.01,.64-.08-.88,.08,.03-.13-.89-.04,.82-.07,.35-.08,1.04-.15-.2,0-.39,.03-.29-.02h-.19s-.04,0,0,0c-.09,.01-.19,.02-.31,.03-.47-.01-.45-.09-.69-.12,.1-.03,.23,.01,.45,0l-.36-.04c.45,0,.75-.08,1.01-.01l.02-.06c.25-.03,.35-.08,.16-.11,.1-.02-.5-.08-.15-.05l-.28-.1h.11c.06-.09-.73-.23,.08-.3-.11-.04-.25-.08-.12-.13l.39,.02c-.13-.05,.4-.1,0-.14,1.05,.04,.24-.18,.43-.24l-.5-.05s-.1-.11-.3-.2l-.45-.04c-.36-.1,.33-.11,.3-.21,.17,.03,.12,.04,.02,.05,1.02,.02-.7-.32,.04-.33-.16-.05-.1-.06,.01-.06,0,0,0,0,.02,0,0,0,0,0,0,0h.24c-.11,0-.2,0-.24,0,0-.02-.06-.06-.16-.1l.48,.06h-.01c.18-.01-.22-.06-.58-.1-.08-.03-.17-.05-.28-.08,.77,.09-.25-.12,.58-.03-.4-.08-.28-.19-1.12-.34,.11,.02,.16,.02,.17,.03,.1-.02,.2-.04-.03-.1l.61,.08-.8-.2c.38,.01,.59,.03,1.05,.15-.7-.22-.26-.13-.95-.34l.39,.07s-.52-.18-.2-.14c.75,.06,.17-.34,.89-.4-1.15-.18,.53,.01-.36-.16,.27,.04,.43,.04,.66,.12-.25-.14,.46-.06-.28-.27,.27,.04,.39,.1,.56,.12-.06-.02-.23-.08-.07-.05,.16,.02,.22,.06,.34,.1-.03-.1-.86-.28-1.64-.44,.38,.02,.33-.01-.17-.15,.26,.03,.53,.06,.61,.14,.04-.03,.42-.13-.21-.26,.16,.02,.06-.04-.01-.06,.05-.07,.11-.06,.07-.15h-.11c-.75-.18-.16-.1-.23-.18l.08,.02c.57-.03-.25-.11,.4-.12l-.47-.09c-1.01-.22,.62,0,.25-.16l-.27-.03c-.34-.12,1.4,.17,1.53,.15,.09,0,.14,.04,.2,.07,.62,.01-.61-.14-.74-.26,.33,.05,.84,.2,.91,.15,.27,.03-1.04-.4-.39-.34-.26-.04-.52-.07-.7-.16-.08-.08,1,.04,.21-.19,.07,0,.14,.02,.2,.03-.2-.09-.31-.23-.74-.35,1.63,.3-.72-.46,.77-.14l-.05-.16,.15,.04c.12-.07-.23-.18-.58-.29,.11,0,.24,.05,.32,.06,.33-.07,.27-.1-.45-.37l.49,.09c-.28-.09,.8-.04,.27-.3,.05,.01,.15,.03,.21,.06-.54-.27,1.42-.1-.33-.51l-.42-.19c-.16,.1-.76-.17-1.07-.18-.09-.07,.56-.03,.64,.05h-.09c.92,.2,.36-.11,.99,.02,0-.27,.57-.44,.65-.69l-.73-.09,.06-.08c.17,0,.57,.06,.53,.12,.41,.03-.32-.17-.48-.19,.31-.08,.83,.19,.86,.15l-.05-.06h-.09c-.29-.09-.6-.15-.55-.22,.15-.03,.45,.04,.48,.03,.05,0,.08,0,.03-.03l.08-.11-.58-.04c-.27-.09,.04-.1-.61-.15,1.01,.07,.42-.37,.73-.38-.41-.12-.4-.19-.34-.28-.12,.01-.77-.04-.68-.11,1.33,.16,.59-.08,1.56-.07-.64,0-.14-.25-1.05-.22,.11-.06,.5,.03,.82,0-.5-.19,.36-.36,.18-.6-.18,0-.45,.03-.71-.01l.88-.12c-.09-.05-1.02-.02-.41-.12-.15,.02-.37,.04-.43,.01,.42-.23,.23-.48,.1-.72-.12-.22-.18-.55,.47-1.04-.29,.19-.34,.15-.37,.11-.06,.06-.41,.15-.63,.24,.18-.14,.36-.28,.53-.43-.63,.23-.15-.18-.74,.07h.13c-.72,.26-1.46,.78-2.34,1.14,.82-.27-1.12,.56,.04,.19-.18,.08-.3,.09-.5,.17,.39-.12,.49-.12,.31-.05l-.1,.03c.11,.02-.28,.14-.54,.25l.47-.07c-.06,.03-.21,.05-.32,.07,.72-.06,.03-.06,.82-.14-.95,.13,0,.2-1.09,.29,0,.03,.55-.04,.54,0l-.3,.02h.38c-.06,.03-.43,.05-.68,.05,.03,0-.07-.01-.09-.02-.34,.03,.12,.09,0,.1l.18-.04c.28,.12-.11,.25,.47,.43h.22c.4,.15-.25,.07-.07,.21h-.05c.22,.04,.33,.08,.3,.11-.26-.06-.51,0-.8-.06,.43,.17,.34,.09,1.16,.27l-.37-.02c.33,.07,.51,.09,.59,.17-.31-.09-.57-.03-.98-.14-.82,.03,.78,.31-.4,.21,1.01,.21,.58-.04,.79,.03,.34,.01,.75,.16,.64,.19-.03,.04-1.31-.11-1.31,0,0-.01-.07-.02-.06-.03-.27,0,.34,.14-.09,.12,.61,.13-.05,.06,.73,.2l-.16-.13c.2,.09,1.1,.3,.64,.32-.16-.03-.36-.1-.47-.14-.23-.01,.14,.08-.1,.07-.78-.14-.15-.15-.74-.31-.33-.03,.55,.21-.29,.04,1.07,.22-.15,.08,.66,.3l-.47-.09c.07,.02,.29,.09,.27,.11l-.6-.15c.51,.15-.47,.04-.2,.14,0-.12,.57,.07,.92,.08,.6,.27-1.24-.13-1.04,.07-.06-.03,.3-.03,.51,.04-.1,.01-.29,.02-.54,0,.08,.13,.48,.07,.76,.18-.57-.07,.22,.1,.39,.19l-.47-.09c-.33,.07,.98,.23,.59,.27l-.65-.18,.16,.09-.54-.12c.39,.14,.28,.15,.12,.18,.34,.05,.86,.18,.86,.24-.29-.02-.44-.11-.39-.02-.29-.08-.66-.17-.22-.12-.15-.04-.29-.07-.44-.11-.33-.02-.09,.09-.1,.12,.02,0,.05-.02,.12-.01l.63,.25c-.18-.02-.32-.06-.46-.1,.05,.03,.26,.1,.29,.14-.38-.09-.78-.17-.95-.25l.4,.2c-.17-.03-.47-.04-.61-.08-.24,.02,.71,.31,.4,.33,.07,.02,.14,.04,.19,.07-.1,.06-.59,.03-.08,.24l-.7-.09c.14,.11,.88,.11,1.11,.29,.2,.14-.59-.09-.79-.1,.34,.12,1.03,.35,.45,.31-.12-.05-.02-.05-.06-.09Zm.1,1c-.09-.04-.39-.14-.11-.09,.54,.14,.27,.1,.11,.09Zm.84,1.68c-.15-.04-.07-.05,.11-.04,.04,.02,.01,.04-.11,.04Zm2.85,4.23h-.02c.19-.03,.11-.02,.02,0Zm-.21,.07c.07,0,.13,0,.2,0-.12,0-.13-.02-.1-.04-.13,0-.21,.01-.11,.03Zm1.28-8.79h-.13c-.13-.06,0-.03,.13,0Z"/><path d="M97.91,8.73l.26,.04c-.08-.02-.17-.04-.26-.04Z"/><polygon points="97.46 5.71 97.46 5.71 97.38 5.69 97.46 5.71"/><path d="M97.16,11.8c.07-.01,.16-.02,.25-.01-.12-.01-.22-.01-.25,.01Z"/><path d="M102,13.65l-.13-.03s-.08,.03-.16,.04c.11,0,.28-.02,.28,0Z"/><path d="M99.05,14.25c.06,0,0,.02,.07,.02l.22-.02s-.2-.04-.29,0Z"/><path d="M100.4,13.76c-.41,.02-.27,.05-.19,.08,0,0,0,0,0,0,.57-.02,.38-.05,.19-.07Z"/><path d="M100.22,13.84s.03,.02,.01,.03c.23-.01,.05-.02-.01-.03Z"/><path d="M101.44,13.41c-.1,.02,.52,0,.35,.01,.52,.01-.62-.09-.35-.01Z"/><polygon points="99.06 13.85 99.56 13.82 99.16 13.81 99.06 13.85"/><path d="M99.42,13.54l-.14,.06c.08,0,.13,0,.17,.01,.02-.04,.11-.08-.04-.07Z"/><path d="M99.45,13.62s0,.04,.08,.04c0-.01-.02-.03-.08-.04Z"/><polygon points="98.91 13.78 99.01 13.75 99.05 13.71 98.91 13.78"/><path d="M99.52,12.91l-.14-.07c-.17-.01-.28,0-.21,.03,.12,.02,.18,.05,.35,.04Z"/><path d="M98.14,13.07c.1-.02,.22-.02,.38-.02l-.62-.02,.24,.04Z"/><path d="M98,12.86c-.17-.01-.49-.13-.45-.03,.17,.01,.31,.09,.45,.03Z"/><polygon points="98.86 11.86 98.87 11.88 99.88 11.98 98.86 11.86"/><path d="M96.56,10.62c-.25,.05,.62,.11,.31,.14,.24,.05,.25-.03,.46,.02-.24-.09-.1-.09-.76-.16Z"/><path d="M97.32,10.79s.09,.03,.15,.05c-.06-.02-.11-.04-.15-.05Z"/><polygon points="102.62 .16 102.77 0 102.49 .19 102.62 .16"/><path d="M101.86,.35l.58-.3-.55,.22s.1,0-.03,.08Z"/><path d="M96.38,7.21l.15,.04c.17,.03,.18,.02,.21,0l-.36-.04Z"/><polygon points="97 6.62 96.99 6.63 97.56 6.73 97 6.62"/><path d="M96.39,5.9s.09,.07,.06,.09c-.09-.07,.65,.06-.06-.09Z"/></g><g><path d="M162.5,31.97s.37,.11,.44,.13c-.08-.05-.54-.16-.44-.13Z"/><polygon points="161.66 31.48 161.82 31.53 161.43 31.38 161.66 31.48"/><path d="M161.73,31.26c-.68-.2,.08,.12-.17,.08l-.16-.04,.54,.19c-.07-.07-.42-.25-.22-.22Z"/><path d="M163.23,31.65c-.26-.08-.22-.1-.09,0l.07,.02s0-.01,.02-.01Z"/><path d="M163.21,31.66s.22,.06,0,0h0Z"/><path d="M163.09,31.52l.22,.11c.16,.05,.2,.04,.31,.09-.12-.07-.27-.12-.53-.19Z"/><path d="M162.61,31.32l.09,.05c.07,.02,.09,.02-.09-.05Z"/><path d="M162.9,31.47l-.2-.1c-.11-.03-.33-.11,.07,.04-.2-.07,0,0,.13,.06Z"/><path d="M162.79,31.45c-.15-.04-.25-.05-.48-.16,.07,.09,.55,.24,.48,.16Z"/><path d="M161.03,31.02l-.21-.04,.22,.1c-.11-.05,.2,.01-.01-.05Z"/><path d="M163.5,31.48c-.14-.05-.38-.13-.57-.2l.16,.08c.1,.03,.2,.04,.41,.12Z"/><path d="M162.93,31.28l-.23-.12s.08,.06,.23,.12Z"/><polygon points="161.86 31.05 162.36 31.28 161.86 31.04 161.86 31.05"/><polygon points="163.56 31.37 163.88 31.52 163.39 31.3 163.56 31.37"/><path d="M163.53,31.28c.27,.12,.46,.16,.63,.24-.04-.04-.27-.15-.47-.24,.11,.06,.07,.07-.16,0Z"/><path d="M163.39,31.13c.06,.03,.18,.09,.3,.15-.06-.03-.15-.08-.3-.15Z"/><path d="M162.79,31.13c.09,.03,.31,.11,.41,.13l-.4-.14h-.01Z"/><path d="M162.79,31.12h.01s.03-.01,.03-.01h-.05Z"/><path d="M162.79,31.14h0s-.05-.02,0,0Z"/><path d="M162.26,31.09c-.22-.1-.44-.23-.8-.31,.27,.11,.47,.16,.8,.31Z"/><path d="M162.28,30.96h-.1c.11,.04,.26,.09,.37,.14l-.27-.14Z"/><polygon points="162.16 30.9 162.28 30.96 162.32 30.96 162.16 30.9"/><path d="M163,31.04c-.17-.08-.18-.1-.2-.13-.08-.01-.13,0-.14,.01,.12,.05,.35,.15,.34,.12Z"/><path d="M162.86,31.06h-.02s-.05-.03,.02,0Z"/><path d="M162.87,30.73l-.07-.03,.07,.03h0Z"/><path d="M162.58,30.89c-.08-.02,.01,.03,.13,.09-.04-.03-.06-.05-.06-.06-.06-.02-.09-.04-.08-.03Z"/><path d="M163.22,31.01c-.09-.02-.16-.04-.23-.06,.13,.04,.33,.11,.23,.06Z"/><path d="M162.95,31.09h.02c.09,.04,.05,.02-.02,0Z"/><path d="M162.95,31.09l-.24-.11s.07,.05,.12,.07l.11,.04Z"/><path d="M160.37,29.62c.36,.16,.68,.34,.28,.22,.26,.15,1.48,.62,2.16,.87-.16-.07-.31-.13-.51-.25-.2-.07-.5-.12-.82-.28-.17-.13,.15,.01,.35,.07-.46-.17-.64-.34-1.31-.61l.22,.14c-.1-.04-.26-.13-.36-.16Z"/><path d="M162.74,30.75l.04,.03c.07,.01,.22,.06,.52,.16-.17-.1-.3-.16-.42-.21l-.08,.05-.05-.03Z"/><path d="M162.75,30.85c-.4-.17-.55-.27-.99-.43,0,.05,.32,.16,.48,.26-.07-.11,.21,.11,.46,.15,.06,.04,.08,.06,.09,.08,.05,0,.12,.02,.2,.04h-.03c-.05-.03-.08-.04-.05-.03h0l-.15-.07c.09,.01,.11,.04,.15,.06l.06,.02h0l-.19-.15c-.06,0-.06,.01-.02,.06Z"/><path d="M160.6,30.42l.09,.03s-.08-.04-.09-.03Z"/><path d="M160.86,30.48c.05,.03,.21,.09,.17,.09-.13-.03-.19-.07-.33-.12,.1,.05,.28,.14,.49,.18l-.05-.03c.15,.02,.67,.17,.72,.2-.37-.13-.63-.22-.99-.33Z"/><path d="M161.71,30.61l-.18-.14-.36-.1,.21,.08c-.09,0,.17,.09,.32,.16Z"/><polygon points="163.08 30.81 163.49 30.99 162.91 30.71 163.08 30.81"/><polygon points="163.05 30.72 163.42 30.87 163.21 30.76 163.05 30.72"/><path d="M160.95,24.17l-.09-.07s.06,.05,.09,.07Z"/><path d="M160.86,24.28l.17,.1c-.09-.06-.16-.1-.17-.1Z"/><path d="M163.86,28.95c.34,.15,.86,.39,.46,.19l-.39-.2c.06,.05,.01,.04-.08,.01Z"/><path d="M162.29,26.43s-.08-.04-.12-.06c.13,.08,.24,.15,.35,.22-.07-.05-.15-.11-.23-.16Z"/><path d="M160.74,25.53l.26,.1c-.09-.04-.18-.08-.26-.1Z"/><path d="M160.91,23.29l-.38-.23s.19,.12,.38,.23Z"/><path d="M163.23,29.93c.16,.05,.23,.07,.26,.06-.24-.08-.58-.23-.26-.06Z"/><path d="M164.95,26.45c-.06-.05-.14-.1-.22-.14,.06,.05,.13,.09,.22,.14Z"/><path d="M163.52,29.94l-.1-.03c.06,.05,.1,.09,.07,.09,.18,.06,.29,.09,.03-.06Z"/><path d="M162.3,21.15h.05c-.05,0-.06,0-.05,0Z"/><path d="M166.71,21.81s.02,.03,.02,.05c.03,0,.03,0-.02-.05Z"/><path d="M163.34,30.52s.04,.02,0,0h0Z"/><path d="M161.74,29.9s-.1-.05-.19-.09l.19,.09Z"/><path d="M161.17,28.59h0c-.08-.03-.06-.03,0,0Z"/><path d="M163.16,30.46c.05,.02,.09,.03,.13,.03l-.13-.03Z"/><path d="M163.34,30.54h-.04c.07,.03,.11,.04,.04,0Z"/><path d="M163.33,30.49s-.02,.01-.05,0l.06,.02s0-.02-.01-.03Z"/><path d="M162.82,22.87h.04c-.16-.08-.13-.06-.04,0Z"/><path d="M160.13,26.38h.02v.02l-.02-.02Z"/><path d="M159.88,26.17c.46,.29,.39,.27,.28,.23l1.11,.58-1.39-.82Z"/><path d="M161.01,23.81l-.36-.15c-.54-.36-.32-.28-.83-.51,1.19,.66,.04,.22,1.22,.88l-.26-.11s-.05-.04-.04-.04c-.6-.26,.84,.51,.63,.48-.1-.03-.29-.11-.42-.2l.27,.21s-.24-.12-.2-.12l.05,.13-.03-.02c.18,.12,.45,.3,.57,.38-.18-.07-.12-.08-.27-.16l.26,.2c-.32-.15-.6-.36-.53-.36-1.21-.62,.28,.2-.46-.1l-.13-.12c-.69-.35-.46-.18-.91-.37,.23,.11,1.11,.5,1.38,.71-.1-.04-.15-.04,.07,.12-.42-.24-.33-.15-.33-.11l-.56-.31c.14,.12,.43,.28,.67,.44-.08,0-.51-.23-.88-.42-.12,.01,.72,.35,.78,.48-.24-.07-.03,.09,.27,.34-.21-.07-.34-.2-.5-.28l.43,.28s-.15-.08-.22-.12c.16,.12,.56,.32,.68,.44,.61,.36-.95-.42-.28,.03-.17-.08-.34-.2-.56-.32,.42,.33,.3,.25,.88,.66l-.39-.16c.44,.2,.91,.52,1.29,.79l.48,.23,.26,.23c-.1-.04-.28-.16-.51-.3l.13,.09c-.22-.09-.53-.29-.84-.48,.11,.05,.24,.11,.36,.17-.33-.21-.7-.43-1.02-.61,.06,.04,.11,.08,.14,.11-.09-.05-.17-.1-.23-.13-.06-.03,.06,.05,.2,.14l-.63-.33,.24,.14-.44-.13c.59,.41,1.48,.98,1.68,1.23-.44-.28-.74-.42-1.28-.73,.59,.29-.2-.21-.06-.2-.08,0-.33-.16-.42-.21l.47,.38c-.44-.25-.34-.17-.54-.24,.88,.47,.54,.39,.79,.58-.3-.16-.59-.34-.49-.34-.69-.32,.99,.64,.4,.38,0-.02,.05,0-.1-.08,.25,.17,0,.12-.24-.04h0c-.15,0-.13,.21,.61,.63-.1-.05-.89-.51-1.04-.59l2.44,1.51c-.63-.36-2.19-1.15-2.51-1.41-.1-.03-.22-.07-.01,.09,.1,.04,.94,.48,.99,.53-.74-.34-.4-.18-1.04-.45,.15,.06,1.14,.63,1.09,.64-.15-.09-.99-.54-1.09-.61l.95,.61c-.17-.11-.84-.46-1.12-.59,.2,.1-.05,.05,.04,.13l.25,.09c-.19,0,1.35,.83,1.26,.88-.2-.12-1.25-.7-1.4-.72,.5,.29,2.4,1.38,2.76,1.66l-.3-.14,.3,.23c-.75-.43-2.31-1.38-2.91-1.77-.25-.09-.35-.17-.35-.11-.28-.13-.4-.24-.41-.27l-.24,.02c.6,.31,.55,.4,1.05,.65l-.55-.44c.6,.31,1.65,.96,1.51,.98-.25-.1-1.05-.57-1.25-.67,.2,.12,.35,.28,.2,.21l-.3-.2c-.25-.07,.75,.48,.16,.24-.05,0-.8-.34-.45-.16,.7,.32,2.81,1.4,3.31,1.68-.05-.02-.7-.25-1.04-.4-.55-.24-1.26-.69-1.73-.9,.16,.08,.36,.2,.42,.24-.15-.05-.5-.27-.45-.19,.6,.31-.09,.06,.5,.28,.15,.13-.15-.02-.14,.04,.4,.18,1.32,.71,1.48,.83-.16-.07-.36-.17-.46-.21-.09,.05-.39-.04-.44,.03-.15-.06-.35-.11-.61-.26,.1,.06,.31,.17,.31,.21-.55-.21-.06-.09-.71-.36,.36,.17,.46,.3,.67,.44,.56,.25,.14-.03-.06-.17,.76,.37,1.53,.81,1.85,1.05,.16,.15-.51-.21-.4-.15-.19,.05,1.29,.71,.7,.55-.51-.19-.97-.44-1.33-.6-.16-.14,.35,.07,.34,.02l-.25-.07c-.15-.09-.26-.18-.11-.13-.45-.17-.18,.16-.62,.06,.16,.09,.32,.19,.52,.27l-.06-.06c.41,.15,.53,.3,.73,.34,.26,.16,.68,.39,.44,.34l-.57-.24c.16,.07,.35,.11,.18,.02,.24,.13-.79-.25-.07,.09l.4,.13c.27,.16,.85,.46,.65,.42,.57,.22-.06-.04,.6,.21-.82-.32,.08-.09-.79-.42,.77,.3,.34,.09,1,.33-.19-.08-.36-.14-.25-.14l-.16-.08h0s-.03-.02,0,0c-.08-.03-.18-.07-.29-.11-.42-.21-.38-.26-.59-.38,.1,.02,.21,.1,.41,.18l-.31-.18c.41,.18,.71,.25,.92,.41l.04-.04c.24,.08,.35,.09,.19-.01,.1,.02-.43-.26-.12-.09l-.22-.19,.1,.05c.08-.04-.6-.46,.16-.19-.09-.07-.21-.16-.07-.14l.35,.16c-.11-.09,.39,.08,.04-.11,.95,.43,.28-.04,.47,0l-.45-.23s-.07-.12-.23-.26l-.4-.2c-.31-.21,.33,.04,.33-.04,.15,.08,.1,.08,0,.04,.94,.4-.57-.5,.12-.23-.13-.09-.08-.08,.03-.04,0,0,0,0,.02,.02,0,0,0,0,0,0,.07,.03,.16,.06,.22,.09-.1-.04-.18-.08-.22-.09,0-.02-.04-.06-.13-.14l.43,.22h0c.17,.05-.19-.13-.52-.3l-.24-.16c.69,.35-.2-.18,.54,.2-.35-.21-.22-.24-.96-.66,.1,.05,.15,.07,.15,.09,.1,.02,.19,.05,0-.09l.54,.28-.7-.44c.34,.15,.54,.24,.94,.5-.6-.42-.21-.19-.8-.59l.35,.19s-.45-.32-.15-.17c.69,.32,.22-.19,.9,.03-1.03-.55,.49,.2-.3-.25,.24,.13,.39,.19,.59,.32-.2-.2,.44,.12-.2-.3,.25,.13,.34,.21,.49,.29-.05-.03-.2-.14-.05-.06,.15,.07,.2,.12,.3,.19,0-.09-.74-.51-1.43-.91,.35,.15,.31,.11-.13-.17,.23,.12,.48,.23,.54,.32,.05,0,.41,.05-.14-.27,.15,.07,.06,0,0-.05,.06-.03,.11,0,.09-.09l-.1-.04c-.66-.4-.13-.13-.18-.21l.07,.04c.54,.18-.21-.17,.4,.05l-.42-.23c-.89-.51,.58,.22,.26-.03l-.25-.11c-.29-.2,1.27,.6,1.4,.64,.08,.04,.12,.08,.17,.12,.57,.22-.54-.32-.64-.45,.3,.16,.74,.44,.82,.43,.25,.11-.9-.65-.3-.39-.23-.11-.47-.23-.63-.35-.06-.09,.93,.37,.23-.07l.18,.09c-.17-.14-.25-.28-.63-.51,1.47,.77-.6-.59,.74,.15l-.02-.14,.14,.08c.12-.02-.19-.21-.5-.41,.1,.03,.22,.11,.29,.15,.32,.05,.27,.01-.36-.43l.44,.23c-.24-.16,.76,.23,.3-.14,.05,.03,.13,.07,.19,.11-.46-.37,1.35,.37-.23-.49l-.36-.27c-.17,.03-.69-.37-.98-.47-.08-.08,.53,.16,.59,.24l-.08-.03c.83,.44,.35,.04,.92,.33,.05-.2,.61-.15,.73-.31l-.67-.3,.07-.04c.16,.06,.53,.22,.48,.26,.39,.15-.28-.22-.42-.29,.31,.04,.76,.4,.78,.38l-.03-.06-.08-.03c-.26-.16-.54-.29-.48-.33,.15,.03,.42,.17,.45,.17,.05,.02,.07,.03,.03-.01l.09-.05-.54-.21c-.24-.15,.06-.06-.55-.3,.94,.37,.46-.14,.76-.04-.36-.22-.34-.26-.27-.3-.12-.03-.72-.28-.62-.3,1.22,.55,.57,.14,1.48,.47-.61-.21-.08-.21-.95-.5,.12,0,.46,.19,.77,.28-.43-.3,.4-.11,.29-.31-.16-.07-.42-.14-.66-.26l.85,.25c-.07-.06-.94-.38-.35-.22-.14-.05-.35-.11-.4-.15,.91,.03-.48-.74,1.14-.51-.34-.07-.36-.1-.36-.13-.08,0-.41-.13-.64-.2l.67,.09c-.63-.22,0-.13-.61-.33l.1,.07c-.7-.26-1.61-.42-2.52-.71,.8,.3-1.24-.27-.1,.17-.19-.04-.29-.11-.5-.17,.39,.14,.46,.19,.27,.17l-.1-.04c.06,.14-.34,.06-.63,.09l.45,.15c-.07,0-.21-.04-.33-.07,.66,.27,.07-.06,.8,.23-.92-.29-.09,.18-1.12-.17-.02,.04,.52,.18,.5,.22l-.28-.09,.35,.15c-.07,0-.42-.11-.66-.2,.03,0-.06-.04-.08-.06-.34-.09,.08,.13-.03,.1l.18,.03c.22,.21-.19,.19,.32,.52l.21,.08c.35,.24-.25-.03-.12,.13l-.05-.02c.2,.1,.29,.17,.26,.19-.23-.13-.49-.16-.74-.3,.37,.26,.3,.18,1.04,.57l-.35-.14c.3,.16,.46,.23,.53,.31-.27-.17-.53-.2-.9-.41-.78-.24,.69,.48-.41,.03,.91,.47,.56,.16,.75,.27,.32,.12,.68,.35,.57,.34-.04,.02-1.22-.5-1.24-.41,0,0-.06-.04-.05-.04-.25-.08,.3,.2-.11,.06,.55,.28-.05,.03,.66,.37l-.13-.15c.17,.13,.99,.56,.55,.44-.14-.07-.32-.18-.42-.25-.22-.08,.12,.1-.1,.02-.71-.35-.12-.16-.64-.46-.31-.12,.48,.32-.28-.07,.97,.5-.16,.01,.57,.42l-.43-.21c.06,.04,.26,.15,.24,.16l-.54-.29c.45,.27-.45-.12-.21,.04,.02-.09,.52,.23,.85,.35,.52,.38-1.14-.49-.99-.28-.05-.04,.28,.07,.47,.19-.1-.02-.28-.08-.5-.17,.05,.12,.44,.21,.69,.37-.53-.23,.19,.14,.34,.26l-.43-.22c-.32-.05,.89,.48,.51,.39l-.58-.34,.13,.12-.48-.26c.34,.23,.24,.19,.08,.17,.31,.15,.78,.41,.77,.45-.27-.11-.4-.23-.37-.14-.26-.15-.59-.34-.19-.16-.14-.08-.26-.15-.4-.22-.31-.12-.1,.03-.11,.05,.02,0,.05,0,.11,.03l.55,.39c-.17-.07-.29-.15-.41-.22,.04,.04,.23,.15,.25,.2-.34-.19-.7-.37-.85-.49l.35,.28c-.15-.07-.43-.18-.56-.26-.23-.07,.62,.46,.32,.37,.07,.04,.13,.08,.17,.12-.11,0-.55-.17-.11,.14l-.64-.3c.12,.12,.8,.38,.99,.58,.17,.16-.54-.27-.72-.34,.3,.2,.9,.59,.37,.37-.11-.08,0-.04-.04-.09Zm-.06,.75c-.08-.06-.34-.24-.09-.11,.48,.28,.24,.16,.09,.11Zm.49,1.5c-.13-.09-.06-.06,.11,.01,.03,.03,0,.03-.11-.01Zm1.63,4.13h-.02c.18,.04,.11,.02,.02,0Zm-.21-.04c.06,.03,.12,.06,.18,.09-.11-.05-.11-.07-.07-.07-.12-.05-.2-.08-.11-.02Zm3-6.09l-.12-.04c-.11-.09,0-.03,.12,.04Z"/><path d="M160.92,25.64c.07,.04,.15,.08,.23,.12-.07-.04-.15-.09-.23-.12Z"/><polygon points="160.98 23.33 160.98 23.33 160.91 23.29 160.98 23.33"/><path d="M159.59,27.5c.07,.02,.15,.05,.23,.09-.1-.05-.2-.09-.23-.09Z"/><path d="M163.48,30.75l-.1-.08s-.08-.01-.16-.03c.1,.04,.26,.1,.26,.12Z"/><path d="M160.6,29.89c.05,.03,0,.01,.05,.04l.21,.08s-.16-.11-.26-.12Z"/><path d="M162,30.15c-.37-.16-.26-.08-.2-.03,0,0,0,0,0,0,.52,.23,.36,.13,.2,.03Z"/><path d="M161.81,30.13s.02,.03,0,.03c.21,.09,.05,0,0-.03Z"/><path d="M163.06,30.33c-.1-.03,.47,.22,.32,.16,.47,.22-.54-.33-.32-.16Z"/><polygon points="160.76 29.64 161.22 29.83 160.86 29.66 160.76 29.64"/><path d="M161.18,29.58h-.14c.08,.02,.12,.04,.15,.06,.03-.02,.13,0,0-.06Z"/><path d="M161.19,29.65s0,.03,.06,.07c0,0-.01-.03-.06-.07Z"/><polygon points="160.64 29.53 160.75 29.55 160.79 29.54 160.64 29.53"/><path d="M161.47,29.19l-.11-.11c-.15-.08-.25-.11-.2-.07,.1,.06,.16,.11,.31,.17Z"/><path d="M160.16,28.75c.1,.03,.2,.08,.36,.14l-.56-.26,.21,.12Z"/><path d="M160.1,28.55c-.15-.08-.41-.28-.41-.2,.15,.08,.26,.19,.41,.2Z"/><polygon points="161.14 28.2 161.14 28.22 162.05 28.68 161.14 28.2"/><path d="M159.3,26.46c-.24-.06,.55,.31,.25,.22,.21,.13,.24,.08,.42,.19-.21-.15-.07-.1-.67-.4Z"/><path d="M159.97,26.87l.13,.09-.13-.09Z"/><polygon points="167.28 21.82 167.49 21.84 167.16 21.77 167.28 21.82"/><path d="M166.58,21.52l.62,.18-.56-.19s.07,.05-.07,.02Z"/><path d="M159.76,24.01l.13,.08c.15,.08,.17,.08,.2,.07l-.33-.15Z"/><polygon points="160.42 23.82 160.4 23.82 160.93 24.09 160.42 23.82"/><path d="M159.96,23.1s.08,.08,.05,.08c-.08-.08,.6,.26-.05-.08Z"/></g><g><path d="M201.62,65.26s.35,.16,.41,.19c-.07-.07-.51-.23-.41-.19Z"/><polygon points="200.93 64.51 201.08 64.59 200.73 64.36 200.93 64.51"/><path d="M201.11,64.16c-.65-.29,.04,.18-.22,.13l-.15-.06,.5,.28c-.05-.11-.34-.39-.13-.35Z"/><path d="M202.56,64.71c-.25-.12-.19-.15-.09,0l.07,.03s0-.02,.03-.02Z"/><path d="M202.53,64.73s.21,.09,0,0h0Z"/><path d="M202.46,64.51l.2,.16c.15,.07,.2,.05,.29,.13-.09-.1-.24-.18-.49-.29Z"/><path d="M202.03,64.21l.08,.07c.06,.03,.09,.04-.08-.07Z"/><path d="M202.27,64.44l-.17-.15c-.1-.05-.31-.17,.06,.06-.18-.11-.01,0,.11,.1Z"/><path d="M202.17,64.41c-.15-.05-.25-.06-.44-.23,.04,.14,.49,.36,.44,.23Z"/><path d="M200.46,63.8l-.21-.06,.2,.14c-.1-.07,.21,.01,0-.09Z"/><path d="M202.93,64.46c-.13-.08-.35-.2-.52-.3l.13,.12c.1,.04,.2,.06,.39,.18Z"/><path d="M202.41,64.17l-.19-.18c-.05,.02,.05,.1,.19,.18Z"/><polygon points="201.35 63.81 201.78 64.16 201.35 63.79 201.35 63.81"/><polygon points="203.05 64.32 203.33 64.54 202.91 64.21 203.05 64.32"/><path d="M203.06,64.19c.23,.18,.42,.26,.56,.37-.03-.05-.22-.22-.39-.37,.09,.09,.05,.1-.17,0Z"/><path d="M202.99,63.96c.05,.05,.14,.14,.24,.23-.05-.05-.12-.12-.24-.23Z"/><path d="M202.33,63.95c.08,.05,.29,.17,.39,.2l-.37-.22h-.02Z"/><path d="M202.34,63.93h.01s.04-.01,.04-.02l-.06,.02Z"/><path d="M202.33,63.95h0s-.05-.03,0,0Z"/><path d="M201.77,63.88c-.19-.15-.36-.35-.71-.48,.24,.17,.44,.25,.71,.48Z"/><path d="M201.86,63.69h-.12c.1,.06,.24,.14,.33,.21l-.22-.21Z"/><polygon points="201.77 63.59 201.86 63.69 201.91 63.69 201.77 63.59"/><path d="M202.61,63.81c-.14-.13-.14-.16-.15-.2-.09-.02-.14-.02-.16,.01,.11,.08,.3,.23,.3,.19Z"/><path d="M202.45,63.85l-.02-.02s-.04-.02,.02,.02Z"/><path d="M202.64,63.37l-.06-.04,.06,.05h0Z"/><path d="M202.24,63.58c-.08-.03,0,.05,.1,.13-.03-.04-.04-.07-.03-.09-.05-.04-.08-.06-.07-.04Z"/><path d="M202.87,63.78c-.08-.04-.15-.07-.21-.1,.12,.07,.3,.17,.21,.1Z"/><path d="M202.53,63.89h.01c.08,.06,.04,.03-.01,0Z"/><path d="M202.53,63.89s-.13-.11-.2-.17c.02,.03,.05,.07,.1,.11l.1,.06Z"/><path d="M200.54,61.61c.31,.25,.54,.54,.16,.33,.19,.23,1.26,.98,1.87,1.39-.14-.11-.26-.2-.41-.39-.18-.12-.49-.2-.74-.46-.1-.19,.16,.03,.35,.13-.41-.28-.49-.53-1.07-.97l.14,.22c-.09-.07-.21-.2-.31-.25Z"/><path d="M202.47,63.38l.03,.05c.07,.02,.21,.1,.48,.26-.13-.14-.24-.24-.34-.32-.04,.02-.08,.03-.12,.05l-.04-.04Z"/><path d="M202.44,63.52c-.34-.27-.46-.43-.85-.67-.02,.08,.26,.26,.39,.4-.02-.16,.18,.17,.42,.24,.05,.06,.06,.09,.06,.12,.05,.01,.12,.04,.19,.07h-.02v-.02c-.05-.03-.08-.05-.05-.03h0s-.09-.08-.13-.11c.09,.02,.09,.06,.13,.1l.05,.04h0l-.13-.23c-.06-.02-.07,.02-.05,.09Z"/><path d="M200.3,62.86l.09,.05s-.07-.06-.09-.05Z"/><path d="M200.55,62.95s.19,.14,.13,.14c-.13-.04-.18-.11-.3-.18,.09,.08,.23,.22,.44,.28l-.04-.04c.16,.03,.65,.26,.69,.3-.34-.2-.58-.33-.92-.5Z"/><path d="M201.43,63.15l-.12-.21-.34-.16,.19,.12c-.11,0,.13,.15,.27,.25Z"/><polygon points="202.81 63.49 203.17 63.78 202.69 63.35 202.81 63.49"/><polygon points="202.85 63.37 203.15 63.62 202.99 63.45 202.85 63.37"/><path d="M207.82,55.3v-.12s0,.08,0,.12Z"/><path d="M207.55,55.34l.04,.19c-.01-.11-.03-.19-.04-.19Z"/><path d="M205,61.5c.22,.3,.54,.78,.32,.39l-.22-.37c.01,.08-.03,.05-.09-.02Z"/><path d="M206.1,58.17l-.06-.12c.04,.14,.07,.28,.11,.4l-.05-.28Z"/><path d="M205.54,56.46l.16,.24c-.05-.09-.1-.17-.16-.24Z"/><path d="M209.18,54.53l-.04-.44c-.07,.02,0,.23,.04,.44Z"/><path d="M203.55,62.4c.14,.1,.2,.14,.23,.14-.19-.16-.47-.41-.23-.14Z"/><path d="M208.81,59.8c0-.08-.01-.17-.04-.26,0,.08,0,.16,.04,.26Z"/><path d="M203.85,62.48l-.08-.07c.03,.07,.05,.13,.01,.13,.14,.12,.24,.19,.07-.06Z"/><path d="M214.26,54.01l.02,.05c0-.06-.01-.06-.02-.05Z"/><path d="M216.52,58.03s-.03,.03-.05,.04c.02,.03,.04,.02,.05-.04Z"/><path d="M203.29,63.15s.03,.03,0,0h0Z"/><path d="M201.92,62.11s-.08-.08-.15-.15c.08,.07,.12,.12,.15,.15Z"/><path d="M202.34,60.21h0c-.06-.06-.05-.05,0,0Z"/><path d="M203.12,63.05s.09,.05,.12,.06c-.03-.02-.07-.04-.12-.06Z"/><path d="M203.27,63.18h-.04c.05,.04,.09,.07,.04,0Z"/><path d="M203.29,63.11s-.03,.01-.06,0c.02,.02,.04,.03,.05,.04,0-.01,0-.02,0-.04Z"/><path d="M211.82,55.6v.04c.02-.18,0-.15,0-.04Z"/><path d="M203.62,57.12v.02h.02l-.02-.02Z"/><path d="M203.61,56.77c.18,.51,.12,.46,.03,.38l.59,1.11-.62-1.49Z"/><path d="M208.43,55.03l-.17-.36c-.03-.65,.09-.45-.11-.97,.28,1.33-.32,.22-.03,1.54l-.12-.26s0-.07,.02-.06c-.26-.61,.14,.98-.05,.82-.07-.09-.15-.27-.16-.44l-.03,.35s-.09-.25-.05-.23l-.14,.15v-.04c.02,.21,.04,.55,.05,.69-.09-.18-.01-.14-.07-.31v.34c-.14-.33-.14-.68-.07-.65-.42-1.29,0,.35-.38-.37l.05-.19c-.25-.73-.25-.45-.48-.88,.09,.23,.52,1.12,.5,1.47-.05-.09-.11-.13-.09,.15-.13-.47-.15-.34-.21-.29l-.16-.62c-.03,.2,.07,.51,.1,.8-.1-.04-.25-.51-.39-.9-.16-.06,.31,.74,.19,.9-.18-.2-.18,.07-.2,.48-.14-.19-.1-.38-.18-.55l.08,.51s-.06-.16-.08-.23c0,.21,.18,.61,.15,.8,.19,.68-.49-.93-.36-.13-.08-.16-.11-.38-.19-.61,.01,.55-.01,.41,.09,1.12l-.24-.36c.23,.43,.32,1,.4,1.47,.1,.21,.19,.39,.24,.48v.37c-.06-.09-.12-.3-.19-.56l.03,.15c-.12-.21-.23-.56-.31-.91l.18,.36c-.1-.38-.21-.79-.34-1.15,.02,.07,.02,.14,.01,.18-.03-.1-.05-.19-.08-.25-.03-.06,0,.08,.04,.24l-.27-.66,.09,.27-.33-.35c.12,.72,.39,1.75,.31,2.09-.15-.5-.3-.8-.53-1.37,.29,.59,.05-.32,.21-.23-.08-.04-.17-.32-.2-.43l.03,.63c-.18-.47-.18-.34-.31-.52,.41,.91,.11,.67,.15,.99-.13-.31-.25-.63-.12-.6-.39-.65,.32,1.15-.02,.6,.02-.02,.05,.02,0-.14,.07,.3-.15,.14-.24-.15l.02-.02c-.2-.04-.46,.2-.11,.98-.04-.1-.41-.94-.48-1.1,.32,.9,.65,1.8,.99,2.69-.3-.67-1.16-2.19-1.22-2.61-.08-.08-.18-.16-.14,.1,.07,.08,.53,.92,.53,.99-.45-.69-.25-.36-.68-.92,.11,.12,.59,1.16,.52,1.16-.07-.16-.53-1-.56-1.12l.39,1.07c-.06-.2-.44-.84-.63-1.11,.12,.19-.13,.05-.12,.17l.19,.19c-.24-.06,.62,1.47,.46,1.49-.1-.21-.67-1.26-.83-1.34,.25,.52,1.26,2.47,1.4,2.9l-.2-.27,.12,.36c-.42-.76-1.22-2.4-1.47-3.07-.19-.19-.22-.32-.29-.25-.19-.24-.19-.43-.17-.46l-.33-.04c.36,.56,.19,.67,.51,1.14l-.14-.73c.36,.57,.87,1.69,.69,1.68-.18-.2-.63-1.02-.75-1.21,.11,.21,.11,.46,0,.34l-.14-.34c-.22-.15,.37,.83-.09,.37-.06-.01-.6-.64-.37-.31,.5,.59,1.86,2.53,2.16,3.02-.04-.04-.55-.51-.81-.79-.4-.45-.77-1.21-1.12-1.6,.11,.15,.21,.35,.24,.42-.13-.1-.32-.47-.35-.35,.4,.56-.18,.06,.31,.49,.05,.2-.16-.06-.22,.02,.29,.33,.85,1.23,.92,1.42-.1-.14-.26-.3-.33-.38-.16,.05-.42-.13-.53-.03-.12-.12-.31-.22-.48-.46,.06,.11,.2,.29,.18,.34-.46-.38,.02-.14-.5-.62,.26,.3,.27,.5,.39,.72,.43,.44,.19-.02,.08-.25,.56,.63,1.06,1.37,1.23,1.74,.07,.22-.41-.37-.34-.27-.26,.04,.91,1.17,.36,.84-.43-.33-.77-.75-1.06-1.01-.07-.21,.35,.14,.38,.09l-.24-.13c-.1-.15-.15-.29-.02-.2-.39-.3-.35,.18-.78,.02,.11,.15,.22,.31,.39,.44l-.02-.09c.35,.26,.38,.48,.57,.57,.18,.26,.5,.63,.26,.53l-.48-.39c.14,.11,.32,.19,.19,.05,.18,.2-.72-.43-.14,.12l.37,.23c.19,.25,.65,.72,.45,.65,.49,.36-.04-.06,.54,.36-.71-.53,.14-.11-.61-.65,.66,.49,.32,.16,.89,.57-.15-.13-.3-.24-.19-.22l-.12-.13h0s-.03-.03,0-.01c-.07-.05-.16-.11-.25-.18-.33-.33-.25-.4-.41-.59,.09,.04,.16,.17,.33,.3l-.23-.28c.33,.3,.6,.44,.74,.68l.06-.04c.21,.15,.32,.18,.22,.03,.09,.05-.29-.41-.06-.14l-.11-.28,.08,.08c.12-.03-.32-.71,.31-.19-.05-.11-.11-.24,.02-.19l.26,.29c-.05-.14,.35,.21,.12-.11,.69,.79,.32,.05,.5,.15l-.3-.41c.06-.01,.02-.16-.03-.37l-.26-.37c-.15-.35,.32,.16,.38,.06,.09,.15,.04,.13-.03,.05,.64,.78-.15-.76,.33-.2-.06-.15-.01-.12,.06-.03,0,0,0,.01,0,.02,0,0,.01,0,.01,0l.15,.19c-.06-.09-.12-.16-.15-.19,.01-.02,.02-.08,0-.2l.25,.41v-.02c.11,.14-.09-.21-.28-.52-.02-.08-.06-.17-.1-.28,.4,.67-.05-.28,.38,.43-.17-.37,0-.35-.37-1.12,.05,.1,.09,.14,.07,.16,.08,.07,.16,.13,.08-.1l.29,.54-.28-.77c.22,.31,.33,.5,.49,.94-.2-.7-.03-.29-.23-.98l.16,.36s-.13-.54,.03-.25c.39,.65,.45-.1,.92,.47-.47-1.07,.29,.45-.03-.39,.11,.25,.2,.39,.25,.62,.01-.29,.31,.35,.12-.39,.11,.26,.12,.39,.18,.54-.01-.06-.05-.24,.02-.09,.07,.15,.06,.22,.09,.34,.09-.08-.19-.88-.45-1.64,.19,.33,.19,.27,.07-.24,.11,.24,.23,.48,.19,.6,.05,.02,.36,.27,.17-.33,.06,.15,.07,.02,.06-.05,.1,0,.13,.06,.2-.03l-.06-.09c-.2-.75,.03-.19,.07-.3l.02,.08c.33,.48,0-.28,.35,.28l-.15-.46c-.27-.99,.32,.54,.31,.13l-.11-.25c-.04-.36,.53,1.31,.61,1.42,.03,.08,.02,.14,.02,.21,.29,.55-.15-.61-.09-.78,.11,.32,.2,.84,.28,.88,.1,.25-.08-1.11,.18-.51-.09-.25-.17-.5-.17-.7,.06-.11,.44,.91,.31,.09,.03,.07,.05,.13,.06,.2,0-.22,.1-.39,.04-.83,.43,1.6,.19-.87,.52,.62l.16-.12,.03,.15c.14,.08,.1-.29,.07-.66,.05,.1,.06,.24,.07,.32,.23,.27,.23,.2,.23-.58l.11,.48c-.02-.29,.4,.71,.45,.11,0,.06,.02,.15,.02,.22,.08-.61,.71,1.27,.45-.52l.05-.46c-.19-.11-.12-.78-.24-1.06,.05-.12,.27,.51,.2,.61l-.03-.09c.14,.93,.27,.29,.37,.92,.31-.1,.72,.35,1.04,.34l-.16-.72,.11,.02c.06,.16,.13,.56,.05,.54,.11,.4,.07-.36,.05-.52,.2,.27,.08,.85,.13,.86l.05-.06-.03-.08c0-.3-.05-.62,.05-.6,.08,.13,.1,.44,.13,.46,0,.05,.02,.07,.04,.01l.15,.04-.15-.56c.01-.29,.13,0-.04-.63,.26,.98,.57,.27,.68,.57,.02-.43,.1-.44,.21-.4-.05-.11-.17-.75-.07-.69,.19,1.33,.26,.55,.49,1.48-.17-.62,.23-.2-.02-1.08,.09,.09,.09,.49,.2,.8,.09-.54,.46,.26,.65,.05-.03-.17-.11-.43-.11-.7l.27,.84c.03-.09-.14-1.01,.05-.42-.04-.14-.09-.36-.07-.42,.59,.77,.76-.85,1.52,.64-.13-.32-.09-.36-.05-.38-.05-.07-.09-.43-.14-.66l.32,.61c-.1-.65,.19-.08,.08-.71l-.04,.12c-.08-.75-.45-1.6-.63-2.54,.09,.85-.47-1.19-.36,.03-.07-.19-.04-.31-.09-.52,.05,.41,.02,.5-.09,.34v-.1c-.21,.14-.38-.24-.67-.46l.1,.46c-.06-.05-.1-.2-.15-.31,.07,.72,.16,.01,.25,.8-.25-.94-.38,.05-.62-1.02-.08,0,.12,.54,.04,.54l-.07-.29,.05,.38c-.06-.05-.16-.41-.2-.66,.02,.03,.02-.08,.03-.1-.13-.33-.17,.15-.22,.04l.11,.17c-.18,.31-.51-.02-.63,.61l.05,.22c-.1,.44-.18-.22-.33,0v-.05c0,.23-.03,.34-.09,.33,0-.27-.17-.49-.16-.78-.11,.47-.03,.36-.02,1.2l-.09-.36c.01,.34,.04,.51-.04,.62,.02-.33-.15-.55-.14-.98-.33-.77-.15,.86-.44-.3,.08,1.03,.26,.53,.25,.76,.1,.32,.05,.77-.03,.68-.07-.01-.32-1.28-.47-1.23,.02,0,0-.07,.02-.07-.1-.25-.06,.37-.2-.04,.06,.62-.1-.02,.02,.76l.11-.2c-.05,.22,.03,1.14-.18,.72-.02-.16-.01-.37,0-.49-.08-.22-.05,.17-.13-.06-.12-.78,.15-.2,.13-.81-.1-.32-.07,.59-.17-.26,.12,1.09-.18-.11-.15,.73l-.07-.47c0,.08,0,.3-.03,.3l-.05-.62c0,.53-.24-.42-.28-.13,.17-.04,.14,.56,.27,.89-.11,.66-.33-1.2-.54-.94,.02-.07,.17,.26,.16,.48-.06-.09-.16-.26-.23-.5-.15,.13,.11,.48,.09,.78-.16-.56-.04,.25-.08,.44l-.08-.48c-.24-.27,.13,1-.1,.66l-.05-.67-.06,.19-.08-.54c-.02,.42-.07,.32-.19,.18,.08,.33,.15,.86,.07,.89-.11-.27-.05-.46-.15-.37-.03-.3-.07-.68,.06-.25l-.05-.46c-.12-.31-.16-.05-.21-.03,.02,.01,.04,.04,.07,.1l-.04,.69c-.06-.17-.07-.32-.07-.46-.02,.06,0,.28-.05,.33-.06-.39-.14-.78-.1-.98l-.08,.46c-.04-.17-.17-.44-.18-.59-.14-.21-.08,.79-.26,.52,0,.08,.01,.15,0,.21-.13-.06-.33-.51-.35,.04l-.22-.67c-.07,.18,.29,.85,.17,1.14-.08,.24-.17-.58-.26-.76,.01,.36,.06,1.08-.18,.55,0-.14,.06-.04,.09-.1Zm-1.23,.62c0-.1-.03-.42,.06-.15,.11,.54,.02,.29-.06,.15Zm-1.6,1.72c-.04-.16,.02-.09,.11,.07,0,.05-.04,.04-.11-.07Zm-2.43,5.32l-.02-.02c.16,.1,.1,.06,.02,.02Zm-.21-.08c.04,.05,.09,.1,.14,.14-.08-.09-.08-.11-.04-.1-.1-.08-.17-.14-.1-.04Zm9.74-3.85l-.04-.12c.03-.15,.03-.02,.04,.12Z"/><path d="M205.6,56.66l.1,.24c-.02-.08-.05-.17-.1-.24Z"/><polygon points="209.18 54.62 209.19 54.62 209.18 54.53 209.18 54.62"/><path d="M201.57,58.42c.06,.04,.13,.1,.19,.17-.07-.1-.14-.17-.19-.17Z"/><path d="M203.29,63.48l-.06-.12s-.08-.03-.15-.07c.09,.07,.22,.17,.21,.19Z"/><path d="M200.61,62.03s0,.02,.04,.07l.18,.13s-.12-.18-.22-.2Z"/><path d="M202.03,62.49c-.31-.26-.24-.14-.21-.06,0,0,0,0,0,0,.43,.37,.31,.22,.2,.06Z"/><path d="M201.83,62.45s0,.04-.02,.04c.17,.15,.05,.02,.02-.04Z"/><path d="M203.09,62.86c-.09-.06,.37,.36,.25,.26,.37,.37-.38-.52-.25-.26Z"/><polygon points="200.98 61.66 201.38 61.97 201.08 61.69 200.98 61.66"/><path d="M201.51,61.61l-.15-.03c.06,.05,.09,.09,.11,.13,.04-.03,.15,0,.04-.1Z"/><path d="M201.47,61.7s-.03,.04,.02,.1c0-.01,.01-.05-.02-.1Z"/><polygon points="200.94 61.48 201.03 61.53 201.1 61.51 200.94 61.48"/><path d="M202.16,61.09l-.04-.16c-.11-.13-.2-.19-.18-.12,.07,.1,.09,.17,.21,.28Z"/><path d="M201.01,60.28c.09,.06,.17,.14,.3,.24l-.43-.45,.13,.2Z"/><path d="M201.11,59.99c-.11-.13-.23-.46-.3-.35,.11,.13,.13,.3,.3,.35Z"/><polygon points="202.69 59.71 202.68 59.73 203.28 60.55 202.69 59.71"/><path d="M202.49,56.95c-.23-.15,.29,.56,.04,.35,.1,.22,.2,.17,.28,.36-.06-.26,.04-.15-.32-.72Z"/><path d="M202.81,57.67l.05,.15c-.01-.07-.03-.11-.05-.15Z"/><polygon points="216.88 58.52 217 58.71 216.88 58.39 216.88 58.52"/><path d="M216.86,57.76l.15,.63-.08-.58s-.03,.09-.07-.05Z"/><path d="M206.67,54.44l.04,.15c.06,.16,.08,.17,.12,.18l-.15-.34Z"/><polygon points="207.76 54.66 207.74 54.66 207.91 55.22 207.76 54.66"/><path d="M208.41,53.75s-.05,.12-.09,.1c.05-.12,.25,.61,.09-.1Z"/></g></g></g></g></svg>