<?xml version="1.0" encoding="UTF-8"?><svg xmlns="http://www.w3.org/2000/svg" viewBox="0 0 640.04 41.87"><g id="a"/><g id="b"><g id="c"><g><path d="M639.29,38.93c.94,.04,.6-.38,.75-.45-1.58,.08-.71,.56-.75,.45Z"/><polygon points="623.69 39.7 623.97 39.53 621.67 39.9 623.69 39.7"/><path d="M609.11,39.26c1.35,.77,5.29,.08,7.88,.4l.42,.17,1.19-.54c-3.16,.01-7.27,.26-9.49-.03Z"/><path d="M601.4,37.4c.47,.3-1.69,.16,1.81,.17-.17-.04-.22-.06-.32-.09-.31-.01-.75-.03-1.48-.08Z"/><path d="M602.89,37.49c1.53,.05-.99-.28,0,0h0Z"/><path d="M595.8,37.32l2.03-.16c-.41-.18-2.21-.3-1.54-.39-2.08,.04-1.66,.22-.5,.55Z"/><path d="M593.85,37.75l1.05-.05c-.18-.08-.46-.12-1.05,.05Z"/><path d="M597.14,37.58l-2.23,.12c.29,.13,.31,.37,1.02-.03-.19,.2,.26,.02,1.21-.09Z"/><path d="M598.39,37.75c1.13,.21,2.59,.37,.55,.53,3.87,.08,3.32-.45-.55-.53Z"/><path d="M608.34,39.97l1.51,.27,1.32-.19c-.66,.09-2.92-.3-2.83-.08Z"/><path d="M583.23,36.28c-.14,.14,.66,.44,.8,.65l1.5-.09c-.76-.15-2.21-.33-2.3-.56Z"/><path d="M584.03,36.93l-2.25,.13c1.99,.15,2.36,.04,2.25-.13Z"/><polygon points="593.45 38.52 597.15 38.15 592.75 38.49 593.45 38.52"/><polygon points="574.71 35.75 575.99 35.48 573.71 35.87 574.71 35.75"/><path d="M569.04,35.46c.96-.23-1.25-.57-.25-.69-1.54-.05-2.87,.11-4.06,.26,1.26-.04,2.6,.08,4.31,.43Z"/><path d="M562.72,35.23c.63-.03,1.29-.11,2.01-.2-.67,.02-1.33,.08-2.01,.2Z"/><path d="M577.98,36.76c-.17-.1-.49-.36-1.73-.54l.85,.48c.27,.02,.57,.04,.88,.06Z"/><path d="M577.13,36.72l-.03-.02c-.95-.07-1.61-.12-1.9-.14,.24,.02,.82,.07,1.93,.16Z"/><path d="M578.2,36.78h-.22c.08,.03,.13,.05,.22,0Z"/><path d="M587.62,37.83c-1.33,.18-4.08,.26-1.45,.78,.96-.24-.55-.53,1.45-.78Z"/><path d="M579.26,37.37l2.37,.24c-.04-.12-.46-.3,.2-.39l-2.57,.15Z"/><polygon points="578.09 37.44 579.26 37.37 578.38 37.29 578.09 37.44"/><path d="M566.76,35.89c-1.04,.12-2.16,.06-3.43,0,1.35,.17,2.75,.31,4.09,.4,.2-.12,.8-.32-.66-.4Z"/><path d="M571.8,36.34h-.23c.14,.05,.25,.07,.23,0Z"/><path d="M550.87,35.05l.19,.09s.03-.05,.05-.07l-.25-.02Z"/><path d="M567.64,36.39c1.02,.15,1.63,.08,2.22-.01-.77,0-1.58-.03-2.44-.08-.09,.05-.11,.09,.22,.09Z"/><path d="M559.23,35.19c.53,.13,1.12,.24,1.75,.35-.51-.17-1.56-.45-1.75-.35Z"/><path d="M571.23,36.21h.15c-.33-.12-.29-.07-.15,0Z"/><path d="M571.23,36.21c-.53,.03-.95,.11-1.37,.18,.62,0,1.2,0,1.71-.04-.12-.04-.25-.09-.34-.14Z"/><path d="M546.9,37.52c.21-.38,2.92-.56,5.2,.02,2.3-.14,.9-1.54-1.04-2.4-.08,.17-.09,.33-2.46,.4,.81,.27,5.17,.86,3.17,1.09-3.12-.01-2.54-.32-4.03-.63,1.25,.58-4,.44-3.38,1.21l2.74-.06c.04,.12-.96,.23-.21,.38Z"/><path d="M555.53,35.49l.97,.02c-1.1-.14-1.87-.36-3.3-.76-1.62,.08-1.96,.21-2.08,.33l4.75,.38-.33,.04Z"/><path d="M560.83,35.8c-.78,.38-3.11,.4-1.72,.97,2.83,.16,2.01-.23,3.71-.3-4.58-.2,1.33-.15-1.96-.61,.9-.01,1.71,.02,2.48,.05-.82-.11-1.61-.22-2.35-.35l.1,.03h.02c.19,.07,.26,.11,.04,.06-.02,0-.07,0-.1,0-.03,.06-.12,.1-.22,.15-1.32-.18-.2-.13,.22-.15,.02-.02,.05-.04,.06-.06h-.02l-4.59-.08c.96,.13,2.18,.2,4.33,.29Z"/><path d="M583.67,39.39c-.14-.05-.13-.08-.14-.11-.3,.04-.41,.07,.14,.11Z"/><path d="M581.8,39.03c.34-.04,.62-.2,1.7-.09,.93,.18-.02,.21,.03,.35,.66-.08,2.3-.18,.27-.5l-.33,.04c-1.84-.25-4.17-.93-3.85-.97,.51,.42,.97,.72,2.18,1.17Z"/><path d="M571.17,37.54l-3.83-.03,1.92,.5-.08-.23c2.16,.22,1.71-.08,1.99-.24Z"/><polygon points="550.44 34.81 550.98 34.39 548.73 34.87 550.44 34.81"/><polygon points="545.49 34.52 545.7 34.13 544.37 34.28 545.49 34.52"/><path d="M265.32,22.93l-1.13,.04c.53,0,.88-.02,1.13-.04Z"/><path d="M273.44,23.45l.21-.18c-.38,.08-.54,.15-.21,.18Z"/><path d="M423.67,27.26c-1.61-.46-3.41-1.14-3.23-.68l.48,.46c1.15-.01,2.02,.08,2.76,.22Z"/><path d="M340.1,25.08l.47,.16c.41-.13,.79-.24,1.13-.35-.48,.06-1.03,.12-1.6,.19Z"/><path d="M338.84,26.81l-2.14-.41c.48,.13,1.17,.26,2.14,.41Z"/><path d="M220.96,20.66l-1.34,.36c2.05,.12,1.16-.15,1.34-.36Z"/><path d="M494.67,31.36c-1.4-.25-2.52-.38-3.5-.46,1.68,.34,3.03,.79,3.5,.46Z"/><path d="M268.8,18.53c-.69,.04-.99,.11-.97,.21,.71-.03,1.11-.09,.97-.21Z"/><path d="M487.1,30.67c.25,.05,.49,.09,.74,.14,1.03-.01,2.07-.02,3.33,.08-1.24-.26-2.67-.45-4.07-.23Z"/><path d="M60.25,9.43c-.12-.03-.26-.05-.36-.08-.04,.06,.12,.07,.36,.08Z"/><path d="M13.79,1.52c.46,0,1.21,.07,1.92,.12-.34-.06-.92-.1-1.92-.12Z"/><path d="M525.55,32.94c1.05,.04,.17-.04,0,0h0Z"/><path d="M530.55,35c-.23,.03-.4,.08-.43,.18,.09-.1,.24-.15,.43-.18Z"/><path d="M476.47,32.78h-.09c.31,.1,.26,.08,.09,0Z"/><path d="M527.12,33.25c-.39-.08-.84-.16-1.34-.22,.21,.05,.62,.12,1.34,.22Z"/><path d="M526.93,33.03c.36,.04,.65,.07,.92,.11,.14-.06,.02-.12-.92-.11Z"/><path d="M524.09,32.86c.6,.03,1.16,.09,1.7,.16-.2-.04-.29-.07-.23-.08-.31-.02-.74-.04-1.47-.08Z"/><path d="M146.44,14.31l-.22-.06c-1.07,.11-.6,.11,.22,.06Z"/><path d="M396.03,30.21h.12l-.15-.04,.03,.04Z"/><path d="M392.24,30.32c1.64-.45,2.55-.33,3.76-.15l-1.18-1.32-2.58,1.47Z"/><path d="M245.88,21.87l2.63,.55c-3.24,.44-5.54,.08-3.09,.78,.46-1.33,10.32,.49,10.77-.84l1.73,.39c-.5-.04-.59,.03-1.08-.01,3.36,.86,2.59-.83,6.96-.37,1.52,.2,2.57,.46,1.52,.56l3.42-.13c.99,.09,.73,.31-.25,.22l5.2,.21-.04,.04c.75-.17,2.45-.39,3.28-.48,1.31,.27-.67,.1-.34,.29l2.89-.15c1.15,.42-1.25,.62-3.23,.45,2.6,1.52,2.4-.2,8.15,.94h-2.72c1.7,.88,3.84,.73,6.88,1.39-.71-.29-6.07-1.57-2.93-1.73,.87,.15,2.03,.27,3.73,.1-.01,.48,1.64,.46,3.69,.56l-.18,.63c2.23-.05,2.08-.39,3.4-.6,2.47,.21,2.96,.74,3.52,1.19,3.96,.34-2.69-.96,2.01-.8,3.28,.44,5.62,.32,9.59,.17,2.3,.35-.43,.37,.39,.6l2.08-.39c.5,.04,.33,.19,.24,.26,1.74-.1,.18-.63,2.9-.64,.77-.66,5.51,1.35,8.91,.75,.82,.23-.42,.37-.18,.63,4.64-.26,3.97-.15,7.79-.63l3.2,.61c-2.34-.62,.72-1.01,3.39-1.32-.83-.28-1.53-.53-2.01-.65l4.25-.1c.5,.13,.07,.33-.64,.56,.29-.04,.57-.08,.78-.11,1.5,.32,.69,.65-.41,.94-.51-.16-1.01-.32-1.5-.48-1.07,.33-2.07,.7-1.87,1.09,.28-.06,.81-.09,1.4-.09-.28,.09-.46,.17-.34,.24,.14,.08,.59-.04,1.29-.16l.92,.77,.25-.27,5.5,.76c4-.49,7.5-1.35,13.8-1.28-1.59,.43-.38,.83-.5,1.45-1.68-.75-4.88,0-8.13-.32,1.69,.17,1.3,.44,.87,.52l5.84-.26c-.16,.5,1.21,.45,2.72,.75-1.09-1.07,4.37-.42,6.74-.59,.13,.34-.46,.65-3.34,.41,3.14,.94,4.18-.94,7.26-.12-.7-.03-1.08-.11-1.37,.05,1.66-.2,5.67,.26,4.7,.5l-.7-.03c4.66,.38,14.22,.82,14.97,0,.04,.11-.67,.99-.96,1.14l8.5-2.38c-.78,.69,1.94,2.58-1.95,2.78,1.11,.17,2.48,.37,4.84,.24-.75-.15-1.83-1.16-.79-1.17,2.8,.97,1.95,.55,5.42,1.44-1.13-.22,.2-1.29,1.99-1.16-.29,.16,.09,1.14-.58,1.22l4.54-.87c-1.13,.14-.25,.94,.73,1.31-.45-.25,3.87,.24,5.07,.19l-1.88-.37c5.04,.45,5.08-1.3,10.09-.96-.62,.2-1.58,1.34,.96,1.63,1.2-.51,5.33-2.47,9.79-2.67l.83,.38,3.42-.18c-2.17,.75-8.21,2.23-11.5,2.76,1.88,.37,.5,.42,3.34,.55,.98,.36-1.57,.38-2.4,.35l6.58,.57c-.26-.69,5.08-.39,4.86-.96l-7.2,.29c-.25-.69,4.25-1.67,8.91-1.29,1.17,.33-.96,1.14-.87,1.37,.62-.2,4.46-.19,4.88,0l-2,.25c2.59,.4,4.29-.65,7.38,.16,1.08,.1,3.17,1.05,3.38,.66-1.72-.86-1.93-3.25-.72-3.76,.38,.07,5.62,1.05,6.83,1.5,1.74,.7-2.75,1.28-1.26,1.88,.08-.18,1.07-.35,1.48-.4,1.12,.22-.5,.54,1.96,.6,.45-.66,5,.34,1.2-.51,2.42-.06,2.55,.28,5.38,.41-.88-.49,2.62-1.35,5.04-1.41-.15,.17,.38,.42,.63,.54,4.93,.34,7.56,.8,12.16,1.06,.41,.19,2.62,.51,1.66,.75,.67-.08,1.29-.28,2.71-.22,2.71,.74-3.17-.09-1.11,.74,.2-.38,3.7-.34,5.73-.47-.59-.65-4.66-.38-6.7-.25,.04-.84,3.61-1.53,8.44-1.64,3.84,.02,1.63,.64,2.3,.56,7.17,.56,6.21-1.1,12.13-.12,2.33,.69,.04,1.07,.54,1.49-3.13,0-4.76-.64-6.87-.75l2.58,.42c-1,.12-3.09,.12-4.21-.11,1.95,.6,12.12,.86,17.62,1.68,1-.11,2.71-.18,1.92-.45l-1.76-.04c-1.58-.54,3.34-.37,1.13-.73,2.37-.14,5.04-.44,8.33,.03l.58,.66c-.06-.18-2.14-.51-3.08-.39,1.4-.18,5.01,1.18,6.58,.48l-2.29-.59c2.38-.14,5.34-.59,8.26-.19-1.29-.7-.68,.02-2.71-.83,1.74,1.01-7.49-.56-4.66,.57-2.08-.97-3.67-.61-6.42-1.5,.07,.21,.96,.45-1.49,.19-.12,.05-.38,.11-.55,.14l-.17-.03,.13,.03c-.11,.02-.12,.03,.05,.01,.58,.13,1.05,.27,1.23,.39-1.25,.38-5.17,.09-6.51,.25-1.45-.19,.63-.19-.16-.46l-2,.23c-.17-.46-3.83-1-.37-1.04l-3.1-.23c-1.81-.38-4.31-.63-5.87-.54-1.46-.19-3.72,.26-2.43,0l-4.88-.02-.04-.11c-4.8-.34-9.92,.17-15.35-.94-1.62,.02-3.3,.07-5.99-.21l-.5-.42c-2.08,.02-6.2-.74-7.11-.38-2.18-1.17-10.04-.79-13.68-1.18l-.17,.5c-2.51-.17-4.92-.16-8.04-.13l.17,.46c-2.7,.22-6.88-.71-11.13-.9,.3-.15,1.37-.05,2.13,.1-5.02-1.3-10.74,.14-15.3-.86-1.16,.1-1.98,0-2.78-.16,.11,0,.2,0,.29,0-.12,0-.29-.02-.47-.03-.5-.1-1.02-.21-1.58-.33,.47,.14,.93,.25,1.33,.32-.88-.04-2.23-.06-3.55-.02l-.53-.51h-.3c-1.28-.25-1.05,.17-.38,.57-.67,.04-1.28,.1-1.75,.19-1-.84-3.46,.07-4.85-.84-.91,.35-6.62-.07-7.37,.74-.04-.11-.42-.19,.29-.15-1.46-.18-2.92-.36-4.25-.19l-.59-.65-3.25,.64c-1.92-.48-2.72-.75-.76-1.11-4.7,.46-3.8,.06-7.8,.55l.22-.38c-1.42-.07-3.71,.34-4.55-.04-3.13-.93-15.67-.99-23.77-2.16,1.51,1.25-3.75-.74-4.12,.14-.46-.3-1.58-.52-.25-.69-4.17,.03-6.21-.8-9.12-.2-.46-.3,.91-.35,.5-.54-.34,.04-1.33,.16-1.75-.03-.41-.19,.62-.2,1.29-.28-4.24-.2-4.72,.63-5.08,1.4-2.13-.5-3.2-.51-4.78-.08-.73-.3-1.96-.65,.68-.59-1.48-.12-9.03-.91-9.22-.28-.46-.19-2.07-.17-2.46-.12-3.32-.23-3.61-.31-6.88-.44l.9,.16c-1.33,.69-2.72,.01-5.36-.05l.08-.07c-6-.91-2.62,.12-8.54-.87l.3,.5c-.62,1-5.24-.92-8.72-.73l1.23,.35c-1.91,.24-5.19-1.71-7.08-1.96-.41-.11,.66-.1,1.24-.14-4.93-.9-.68,.59-4.39,.51-.66-.38,.93-.81-1.56-1.02-1.22-.35-7.29,.67-10.64-.18,.73,.31,1.46,.61-.27,.7-2.64-.07-7.06-1.42-9.49-.74-.33-.09-.45-.17-.46-.23-2.03,.09-6.56-.04-7.8,.33-1.76-1.77-12.56,.05-12.42-1.48l-6.2-.3,.17-.15c-3.95-.35-5.37-.07-6.79,.21-.91-.16-.23-.26-.15-.34-5.76-.67-6.34-.64-11.24-.18l-.47-.53c-1.33,.21-8.31-1.3-14.01-1.08,.06-.05,.18-.14,.64-.18-6.42,.17-15.18-2.35-17.64-.69l-4.24,.18c5.44,.49-.86,.73,1.36,1.17-2.15-.03-5.5-.9-2.86-.82l.41,.12c1.03-.87-6.74-.78-6.56-1.4-10.72-.66-21.13-1.85-31.16-2.57l1.11,.81-3.5-.28c-.91-.23-1.19-.65,1.3-.46-1.29-.5-4.21,.06-4.29,.22-4.87-.63,1.97-.72,.47-.84l-2.04-.08,.45,.12c-1.67,.19-1.84,.49-4.84,.25-1.89-.27-.94-.52-1.69-.59,0-.05-.24-.09-1.15-.1l-4.41-.36,1.72,.7c-1.97,.15-4.14-.31-2.15,.48-2.92-1.2-16.42-1.49-18.24-1.94-2.77,.23-5.47,.03-8.81-.25,.82,.18,1.28,.86-1.61,.58,1.15-1.26-5.25-.95-7.51-2.07,2.04,.79-8.22-.43-5.01,.71-2.4-.28-.11-.51-1.92-.96-5.77,.1-12.61-1.25-19.71-1.58-.12,.17,1.04,.52-.5,.67l-3.68-1.15c-1.41-.01-1.36,.92-3.87,.12,.35,.17,.87,.44-.07,.42-13.81-1.89-28.41-1.4-42.38-4.12,1.88,.49,.61,.42-.85,.32,.94,.15-.05,.43,.11,.68l-5.85-1.12c-1.13,.58-6.33-.45-6.99,.14l1.88,.03c-2.54,.55,3.35,1.92,2.91,2.85,2.85-.63,7.24,1.82,11.9,.96,.99,.27-.88,.24-.36,.5,1.19-.32,2.59-.3,5.17,.09l-.3,.08c7.28,.47,10.37,1.1,18.53,1.98l-.57-.52c1.75,.19,2.11,.37,2.92,.55,2.07-.57-4.93-.41-3.04-1.06,2.26,1.14,12.39,.94,13.88,2.15,2.7,.21-.75-.61,1.95-.4l.69,.35,.71-.33c1.77,.2,2.63,.63,2.68,.89-.43-.06-1.23-.02-1.69-.03,2.27,.52,6.49,.35,7.27,.52l-2.58-.37c7.4,.26,16.38,1.29,23.55,1.21l-.53-.26c5.47-.02,4.34,.56,10.33,.79l-.22,.04c1.21-.14,2.82-.14,4.45,0-1.53,.16,2.8,.71,.8,.86,5.93-.03,2.94-.14,6.9-.7l.87,.43c1.35-.24,1.48-.41,4.47-.3-2.47,.15,1.87,.7-.91,.93,6.21,1.25,9.36-.17,12.15,1.21,2.95-.83-5.38-.93-3.76-1.05-1.33-.43,2.43-.6,4.39-.37,2,.16,3.31,1.54,8.35,1.86-.5-.04-.54,.04-1.04,0,1.87,.39,3.72-.1,6,.48,1.34-.53,3,.24,3.42-.53l-4.63-.13c2.63-.03,5.15-.79,9.43-.05-.35,.14-1.64,.26-2.53,.32,1.25,.32,2.44,0,3.73,.34-.43,.77-5.62-.21-8.47,.21,1.33,.43,5.34-.21,3.88,.55,2.1-.95,4.95,.47,8.42-.13l-.26,.46c.54-.04,1.68-.19,2.67-.11l-1.84,.5c2.79-.34,5.29,.81,7.96,.7-5.54-.35-1.21-.65-3.53-1.15,6.88-.19,3.85,1.5,11.52,1.77-1.04,0-3.87-.54-2.24-.65,1.45,.19,3.36,.5,4.24,.81,5.08,.23-.75-.54,1.43-.69,1.69,.69,2.51-.07,4.74-.11l-.02,.48c5.76,.69,1.6-.9,6.78-.19l-2.24,.52h2.72l-.59,.52c2.98-.22,3.89-.05,6.77,.28-.65-.38,.43-.85,3-.7,1.73,.4-1.01,.4,2.63,.56-.84,.25-1.76,.57-3.31,.03-.17,.15-.83,.25-1,.4,1.86,.45,4.72,.38,6.04,.46-.5-.05-1.11-.11-1.41-.2l5.3-.33c.82,.23,.15,.34-.51,.44,1.07,.02,1.82-.16,3.39-.1-.43,.37-.36,.78-2.59,.82l5.04-.11c.32,.19,2.54,.63,1.88,.73,2.76,.41,6.86-.32,10.53,.21,.2-.06,.58-.11,1.37-.12,3.46,.3,6.49,.97,10.63,.69l2.29,.85c3.22,.04-3.1-1.08,2.27-1.01,3.8,.01,1.38,.69,2.69,.96,1.91-.24,5.23-.75,8.67,.03-1.16,.06-2.06-.1-3.14-.11Zm39.66,2.09c-.77,.06-2.32,.28-2.87-.04,.91-.5,1.57-.2,2.87,.04Zm60.34,2.38c-.58,.13-1.46,0-2.45-.24,.73,0,1.54,.07,2.45,.24Zm168.11,6.22l-.08,.02c-1.7-.3-1.1-.18,.08-.02Zm3.55,.44c.36-.04,.34-.11,.2-.19-.26,.11-1.06,.06-1.96-.03,.24,.14,.7,.26,1.77,.22ZM135.43,10.31l.68,.17c-1.57,.03-1.13-.06-.68-.17Z"/><path d="M339.01,26.61c-.21-.09-.27-.19-.31-.28-.31,.06-.32,.16,.31,.28Z"/><path d="M221.21,20.6h-.12c-.07,.01-.11,.04-.13,.07l.25-.07Z"/><path d="M462.17,33.89c-.73-.11-1.13-.22-1.4-.33-.05,.12,.28,.23,1.4,.33Z"/><path d="M536.45,33.48l-2.29-.03c1.1,.05,1.49,.19,2.04,.3-.04-.12-.47-.31,.25-.27Z"/><path d="M556.02,37.83c.34-.04,.71,.04,1.04,0l-.08-.23c-1.42-.08-2.42,.03-.96,.23Z"/><path d="M538.45,35.22c.15,.42,1.59,.38,3.19,.42l-.28-.02c.51-.53-1.2-.46-2.91-.4Z"/><path d="M542.01,35.65c.49,.02,1,.04,1.48,.09,.2-.21-.59-.09-1.48-.09Z"/><path d="M522.08,33.04c.75,.15,.51-.49,.93-.29,.88-.46-5.09,.29-.93,.29Z"/><polygon points="539.65 36.65 539.11 36.11 538.19 36.45 539.65 36.65"/><path d="M527.08,35.41l2.54,.31c-.03-.09,.29-.11,.7-.12-1.57-.12-3.28-.34-3.24-.19Z"/><path d="M530.31,35.6c.82,.07,1.6,.11,2.06,.06-.44-.03-1.4-.07-2.06-.06Z"/><polygon points="536.15 36.55 535.41 36.4 533.61 36.23 536.15 36.55"/><path d="M499.66,33.56l-2.79-.02c-.29,.16,.46,.3,1.5,.3,.67-.08,1.71-.09,1.29-.28Z"/><path d="M508,35.43c-.75-.15-.79-.27-1.2-.46l-.12,.61,1.33-.16Z"/><path d="M499.88,35.09c-.29,.16-4.07,.26-.54,.42,.29-.15,3.09-.13,.54-.42Z"/><polygon points="457.96 31.95 458.67 31.98 458.62 30.95 457.96 31.95"/><path d="M420.84,32.3c3.29,.43,.82-.58,3.78-.11,.79-.2-2.42-.39-1.62-.55-2.01,.14-3.04-.06-2.17,.66Z"/><path d="M423.01,31.64c.32-.02,.66-.05,1.03-.1-.58,.03-.85,.06-1.03,.1Z"/><polygon points="6.07 .38 3.97 0 5.31 .45 6.07 .38"/><path d="M1.94,.81L1.5,.13,.18,.62c.48,0,1.41,.02,1.77,.2Z"/><path d="M291.36,25.62l.17-.15c-.32-.19-.81-.23-1.81-.32l1.64,.46Z"/><polygon points="262.61 23.4 263.11 23.45 262.22 22.8 262.61 23.4"/><path d="M238.42,22.67c.98,.09,2.15,.03,3.14,.11-2.16-.03-3.36-.86-3.14-.11Z"/></g></g></g></svg>