<?xml version="1.0" encoding="UTF-8"?><svg xmlns="http://www.w3.org/2000/svg" viewBox="0 0 62.6 54.58"><defs><style>.d{fill:#1d1d1b;}</style></defs><g id="a"/><g id="b"><g id="c"><g><path class="d" d="M29.41,19.71c.18,.17,.33-.23,.39-.28-.35-.14-.45,.37-.39,.28Z"/><polygon class="d" points="24.72 15.9 24.93 15.89 23.96 15.37 24.72 15.9"/><path class="d" d="M17.56,13.63c.05-.07,.08-.15,.1-.24l.48-2.48,1.08,.87c.21,.16,.47,.28,.79,.38,.29,.13,.63,.25,.96,.39,.64,.3,1.29,.69,1.61,1.16l.03,.26c.26,0,.54-.01,.8-.01-.99-.98-2.81-1.95-4.17-2.31l-2.09-.55,.38,2.32c.01,.08,.02,.14,.03,.21Z"/><path class="d" d="M17.4,17.68c.16-.33,.55,.65-.28-.84,0,.09,0,.12,0,.18,.06,.14,.15,.33,.29,.66Z"/><path class="d" d="M17.12,17.02c-.31-.7-.02,.55,0,0h0Z"/><path class="d" d="M18.06,18.6c-.13-.06-.25-.11-.36-.14-.15,.07-.14,.16-.29,.14,.2,.08,.41,.12,.65,0Z"/><path class="d" d="M18.81,18.86l-.21-.16c-.06,.02-.08,.05,.21,.16Z"/><path class="d" d="M18.19,18.44c.12,.07,.26,.16,.4,.27,.11-.03,.36-.05-.17-.13,.25,.02-.02-.05-.23-.13Z"/><path class="d" d="M18.21,18.25c.05-.23-.03-.6,.43-.26-.07-.1-.13-.18-.19-.25-.05-.04-.16-.22-.22-.27-.14-.16-.24-.2-.28-.14-.04,.06-.03,.22,.05,.46,.07,.22,.09,.28,.21,.46Z"/><path class="d" d="M18.37,13.78l.02-.55,.04-1.11,.65,.4,.15,.09c.22-.02,.46-.03,.7-.03-.17,0-.5-.15-.81-.27l-1.15-.47,.2,1.44c.04,.3,.09,.56,.19,.5Z"/><path class="d" d="M18.1,19.36c.29,.19,.71,.42,1.05,.6l-.4-.34c-.13-.02-.23,0-.64-.26Z"/><path class="d" d="M19.15,19.96c.21,.18,.43,.38,.65,.6-.11-.26-.36-.44-.65-.6Z"/><path class="d" d="M19.83,19.06c-.39-.3-.74-.54-1.04-.73,.33,.22,.71,.51,1.15,.88l-.1-.16Z"/><path class="d" d="M18.32,19.86c-.27-.26-.54-.51-.81-.74,.4,.35,.81,.75,1.24,1.19l-.44-.44Z"/><path class="d" d="M18.2,19.97c-.7-.75-.6-.65-1.25-1.34,.1,.11,.5,.58,.75,.95-.11-.2-.05-.13,.5,.39Z"/><path class="d" d="M17.99,20.1c-.03-.1-.14-.29-.29-.52l.29,.52Z"/><path class="d" d="M19.93,21c-.18-.13-.67-.49-.84-.55l.88,.67-.04-.11Z"/><path class="d" d="M20,21.13l-.03-.02c.04,.12,.06,.19,.06,.23l-.04-.21Z"/><path class="d" d="M19.92,20.97v.03c.09,.06,.12,.07,0-.03Z"/><path class="d" d="M20,20.06c.27,.23,.67,.57,.9,.76,.3,.24,.6,.43,.69,.24-.62-.47-.77-.34-1.59-1.01Z"/><path class="d" d="M20.94,21.64c0-.1-.03-.21-.05-.33-.21-.13-.49-.29-.78-.55,.26,.27,.55,.55,.83,.87Z"/><polygon class="d" points="21.34 22.09 20.94 21.64 20.95 21.75 21.34 22.09"/><path class="d" d="M18.99,21.01c.17,.3,0,.25-.14,.22,.31,.24,.62,.43,.84,.52-.19-.25-.54-.68-.7-.73Z"/><path class="d" d="M19.9,21.52l.02,.04c.1,.08,.14,.11-.02-.04Z"/><polygon class="d" points="17 20.33 17.04 20.43 17.04 20.35 17 20.33"/><path class="d" d="M19.87,21.91c.32,.23,.25,.07,.09-.16-.04,.04-.12,.04-.26,0,.09,.11,.15,.19,.18,.17Z"/><path class="d" d="M17.86,20.27c.13,.17,.28,.32,.43,.47-.22-.26-.51-.64-.43-.47Z"/><path class="d" d="M19.62,21.29s-.02-.03-.02-.03c-.24-.21-.14-.11,.02,.03Z"/><path class="d" d="M19.62,21.29c.06,.1,.21,.3,.33,.46,.03-.03,.03-.09-.03-.2l-.3-.26Z"/><path class="d" d="M15.53,22.67c.11-.17,.44-.2,.82-.11,.38,.09,.81,.32,1.29,.8,.42,.04,.33-.45,.11-1.08-.23-.63-.54-1.35-.71-1.85-.01,.19,.04,.4-.48,.4,.06,.16,.34,.43,.59,.72,.24,.28,.47,.58,.21,.65-.93-.23-.77-.54-1.11-.95,.11,.34-.19,.39-.62,.39-.41,.01-1-.05-1.04,.34,.38,.12,.78,.24,1.14,.34,0,.12-.47,.08-.2,.34Z"/><path class="d" d="M17.75,20.83h.12c-.21-.17-.42-.46-.66-.93-.12,.16-.17,.3-.18,.44l.73,.43-.02,.06Z"/><path class="d" d="M18.55,21.16c.36,.66-.05,.67,.68,1.56,.72,.31,.16-.34,.3-.49-.42-.13-.42-.2-.43-.33,0-.12-.09-.33-.49-.66,.07-.05,.16-.04,.25-.02-.19-.15-.38-.31-.56-.49l.04,.05h0c.08,.11,.13,.17,.06,.1,0,0,0,0,0,0,.06,.1,.1,.18,.14,.25-.29-.24-.14-.19-.14-.25l-.06-.1h0c-.12,.02-.27,.04-.46,.04,.18,.16,.39,.24,.67,.32Z"/><path class="d" d="M23.65,22.74s-.1-.03-.15-.06c.16,.16,.25,.25,.15,.06Z"/><path class="d" d="M23.54,23.07c-.18-.19-.55-.49-.66-.77,.06-.16,.37,.23,.62,.38-.35-.38-.98-1.05-.98-.65l.16,.16c.03,.2-.12,.29-.33,.27-.2-.01-.45-.12-.53-.21,.72,.45,1.2,.73,1.71,.82Z"/><path class="d" d="M22.42,24.07c-.2,.02-.42,.03-.67,.01,.4,.32,.82,.64,1.27,.97l-.46-.46c.85,.44,.14-.2-.15-.52Z"/><path class="d" d="M16.94,20.06c.02-.16,.04-.32,.04-.49-.05,.22-.15,.41-.29,.58,.09-.02,.17-.05,.25-.09Z"/><path class="d" d="M16.29,19.78l.21-.33c-.1,.03-.36-.02-.54-.03l.33,.36Z"/><path class="d" d="M41.68,38.08l.45,.18c-.2-.1-.34-.16-.45-.18Z"/><path class="d" d="M37.55,35.07l-.11,.16c.2,0,.3-.04,.11-.16Z"/><path class="d" d="M.04,44.29l-.04,.24c.02,.08,.09,.15,.14,.23,.1,.15,.22,.3,.29,.4,.17,.21,.35,.31,.53,.14l.21-.38c-.31-.07-.58-.17-.81-.29-.1-.06-.24-.11-.27-.17-.03-.06-.04-.12-.05-.18Z"/><path class="d" d="M20.02,50.62c.06-.1,.13-.2,.21-.3-.18-.03-.32-.1-.41-.18,.06,.15,.09,.34,.21,.48Z"/><path class="d" d="M22.41,49.36c-.13,.25-.25,.52-.31,.8,.07-.19,.17-.44,.31-.8Z"/><path class="d" d="M48.92,38.35l-.52-.32c.14,.65,.3,.32,.52,.32Z"/><path class="d" d="M14.54,26.79c.07,.22,.12,.33,.21,.4,.11-.24,.15-.63-.21-.4Z"/><path class="d" d="M38.14,41.19c.14,0,.23-.03,.28-.12-.16-.03-.26,0-.28,.12Z"/><path class="d" d="M15.23,27.47s.04-.06,.07-.09c-.24-.05-.42-.1-.54-.19-.05,.19-.14,.29,.48,.28Z"/><path class="d" d="M34.4,14.54l.06-.21c-.06,.17-.07,.2-.06,.21Z"/><path class="d" d="M29.14,11.67c.08-.31,.24-.75,.39-1.17-.09,.16-.22,.51-.39,1.17Z"/><path class="d" d="M7.53,15.89c.65,.03,.11-.04,0,0h0Z"/><path class="d" d="M9.75,18.15c-.11,.01-.21,.05-.25,.14,.07-.09,.16-.13,.25-.14Z"/><path class="d" d="M20.78,29.31h-.04c.27,0,.22,0,.04,0Z"/><path class="d" d="M8.42,16.21c-.22-.09-.45-.19-.76-.24,.13,.04,.37,.11,.76,.24Z"/><path class="d" d="M8.34,15.99l.51,.14c.09-.05,.04-.12-.51-.14Z"/><path class="d" d="M6.6,15.88c.4-.03,.74,.03,1.06,.09-.12-.04-.17-.07-.14-.08-.19,0-.45-.04-.92,0Z"/><path class="d" d="M55.47,18.16s.06,0,.1,0c.28-.35,.15-.23-.1,0Z"/><path class="d" d="M13.66,39.71s-.03,.02-.05,.03h.07l-.02-.03Z"/><path class="d" d="M15.03,39c-.22,.35-.4,.52-.59,.61-.24,.1-.49,.12-.77,.13l.85,1.07c.24-.62,.35-1.2,.5-1.81Z"/><path class="d" d="M47.88,41.79c-.1-.18-.16-.35-.3-.56,.46-.14,.47-.26,.53-.34,.05-.08,.01-.18,.04-.47-.06,.34-.09,.53-.24,.57-.04,.09-.58-.14-.98-.35-.86-.42-1.74-.95-2.17-.42l-.44-.63c.16,.12,.23,.08,.39,.19-.78-1.3-1.4,.26-2.79-.96-.46-.46-.7-.88-.26-.76l-.68-.29-.98-.52c-.51-.41-.3-.55,.24-.12-.96-.67-1.91-1.34-2.83-1.88l.02-.03c-.42,0-1.2-.13-1.55-.19-.7-.67,.29,.01,.08-.31l-.59-.2c-.19-.04-.42-.21-.53-.03l-.06,.26c-.21,.06-.24-.31-.13-.89,.09-.15,.34-.02,.6,.09,.25,.12,.54,.28,.81,.47-.41-.65-.74-1.02-1-1.24-.26-.2-.51-.35-.7-.27-.1,.44-.21,.97-.41,1.54-.21,.58-.5,1.19-1.04,1.97l.63-2c-.46,.12-.84,.7-1.24,1.45-.4,.76-.83,1.67-1.52,2.74,.23-.23,.95-1.22,1.48-1.69,.54-.49,.88-.48,.62,.63-.29,.45-.65,1.2-.83,2.37-.11-.05-.21-.03-.31,.07-.05,.05-.09,.1-.15,.2-.05,.07-.07,.1-.11,.17-.13,.24-.25,.61-.4,1l-.56-.31c-.2,.88,.14,.96,.17,1.55-.48,.87-1.03,.79-1.5,.79-.81,1.26,1.21-.52,.43,1.09-.86,.95-1.09,1.78-1.83,3.11-.77,.43-.17-.37-.52-.29l-.19,.88c-.14,.12-.2-.04-.23-.12-.36,.55,.38,.51-.32,1.3,.1,.37-.41,.4-.85,.38-.48-.02-.76-.15-1.22,.51-.13-.16,.19-.53,.19-.82-.45,.49-.75,.7-1.01,.9-.29,.19-.54,.49-1.46,.92-.16-.27-.22-.69-.11-1.12-.11,.29-.23,.51-.39,.67-.16,.17-.38,.28-.59,.32-.45,.09-.87-.17-1.09-.53-.35,.54-.45,.95-.53,1.24-.17-.54-.22-1.1-.24-1.69,.15-.29,.36-.18,.56-.03-.03-.09-.05-.19-.09-.26,.38-.76,.76-.55,1.13-.41-.21,.26-.42,.54-.64,.85,.45,.12,1.04-.02,1.55-.46-.11,0-.17-.09-.2-.23,.13,0,.26-.05,.35-.14,.09-.1-.09-.08-.26-.15,.33-.26,.66-.5,.98-.72l-.35,.12c.3-.52,.62-.93,.91-1.26-.61-.47-.72-2.78,.21-5.2,.16,.83,.69,.52,1.23,.83-.91,.34-.7,1.98-1.38,3.1,.35-.57,.56-.33,.57-.12,.16-.81,.35-1.62,.54-2.44,.43,.28,.57-.29,1.06-.77-1.12-.03,.26-1.93,.44-3.06,.34,.07,.54,.49-.11,1.58,.77-.53,.55-1.2,.47-1.88l-.24-1.98-.65,.1c-.63,.1-1.12,.21-1.78,0,.35-.04,.57,.02,.73-.14-.97,.21-2.76,.41-2.41,.03l.33-.08c-2.29,.32-6.02,1.93-6.01,2.78-.05-.1-.09-1.05-.04-1.25-.39,.64-.77,1.28-1.19,1.88l-1.35,1.84c.12-.79-1.53-2.14-.01-2.98-.45,.01-1.31,.12-1.57,.46,.11,.08,.64,.92,.33,1.07-.5-.28-.58-.38-.73-.43-.12-.07-.32-.09-.54-.4,.08,.06-.04,.43-.28,.8-.23,.37-.64,.76-.95,.81,.19-.22,.71-1.35,.93-1.52-.53,.51-1.25,1.06-2.15,1.62,.58-.31,1.01-1.22,1.23-1.61-.18,.28-.74,.07-1.14,.19-.02,.12-.02,.23,0,.34-.42-.08-1.37,.39-2.58,.83-.6,.22-1.24,.43-1.85,.5-.4,.08-.36-.02-.4-.12-.02-.11,.03-.25,.15-.45l.07-.1c.06,0,.18-.03,.34-.08,.54-.16,1.59-.63,2.37-1.07,.36-.2,.65-.39,.81-.55-.53,.14-1.77,.44-2.59,.24-.65-.22-.93-.9-.47-1.85l.73-.35c.22-.46,.5-.95,.81-1.47,.05,.6,.1,1.5,.5,2.06,.4,.58,1.15,.78,1.63,.81,.73-.46,.79-.31,1.05-.68,.61-.21,.66,0,.64,.05,.28-.24,.55-.44,.79-.6-1.01,.07-.37-.61-.94-.83-.15,.49-.17,.86-.05,1.1-.54,.09-1.18,.04-1.37-.33-.21-.35,.06-1.05,.72-1.62,.27-.08,.46,.16,.65,.38,.19,.23,.39,.43,.51,.48-.07-.09,0-.32,.13-.54,.03-.05,.07-.1,.1-.15,.07-.08,.14-.15,.2-.21,.13-.12,.24-.2,.3-.2l-.17,.41c-.06,.14-.12,.28-.1,.35,.04-.01,.05-.01,.09-.05,.05-.04,.1-.08,.14-.13,.08-.09,.16-.19,.22-.29,.13-.2,.22-.43,.34-.65,.22-.44,.51-.87,1.2-1.03,.41-.3,1.41,0,1.25-.37-.9-.32-2.56-2.01-2.44-2.83,.09-.03,.75-.28,1.47-.42,.72-.15,1.49-.21,1.79-.13,.48,.12,.4,.55,.23,1-.12,.44-.22,.86,.15,.97-.03-.09,.02-.22,.09-.36,.06-.13,.24-.28,.31-.35,.31-.05,.33,.1,.41,.19,.08,.09,.21,.11,.92-.19-.22-.65,2.85-.94,.24-.7,1.08-.59,1.5-.36,2.92-.94-.51-.04-.65-.39-.69-.72,0-.33,.01-.68,.25-.88,.26,.09,.89,.1,1.18,.09l.5-.18c.22-.09,.43-.18,.63-.27,0-.13-.2-.3-.28-.44-.2-.31-.41-.57-.65-.82-.22-.27-.46-.52-.76-.76-.28-.26-.6-.51-1.01-.77,.01-.08-.12-.29-.21-.46-.09-.17-.1-.31,.27-.26-.44-.12-.92-.16-1.56-.48-.36-.51,0-.35,.47-.15,.43,.2,.92,.45,.8-.05-.46,.14-2.31-.62-3.37-.8,0,.34,.47,.56,1.1,.79,.63,.21,1.47,.44,2.04,.65-.45,.22-1.27,.21-2.16,.22-.44,0-.86-.01-1.27-.03l-.59-.03c-.2-.02-.34-.02-.62-.09-1.58-.46-.43-.78-.74-.79-1.39-.68-2.15-.65-2.84-.66-.69-.01-1.34-.04-2.36-1.1-.6-1.08,.59-.89,.61-1.35,1.2,.62,1.59,1.39,2.42,1.81-.3-.25-.6-.49-.88-.75,.46,.05,1.31,.34,1.68,.68-.28-.39-1.39-.95-2.58-1.75-1.2-.78-2.36-1.98-2.79-3.07l-.28,.57,.15,.02c.37-.22,1.12-.31,.8-.56-.26,0-.51,.02-.77,.06-.37-.21-.02-.37,.34-.5,.35-.11,.7-.16,.16-.31,1.16-.25,2.64-.35,3.95,.5v.68c.06-.18-.74-.73-1.22-.7,.74-.04,1.75,1.64,2.68,1.25-.23-.28-.48-.57-.73-.85,1.09,.18,2.57,.27,3.55,1.06-.2-.81-.28-.08-.72-1.15,.13,.58-.58,.16-1.27-.21-.7-.38-1.38-.7-.98,.01-.54-1.18-1.37-1.07-2.57-2.19-.02,.22,.42,.51-.86,.07-.07,.04-.24,.09-.34,.11l-.09-.03,.07,.04c-.07,.02-.07,.02,.03,.01,.32,.14,.52,.32,.59,.45-.56,.2-1.94,0-2.93,.25l-2.89,.71,1.65,1.76c.17,.19,.33,.33,.45,.42,.36,.66-.37-.12-.31,.34,.3,.21,.58,.42,.91,.57-.3,.35,.88,2.01-.59,.84l.58,.62,.62,.54c.57,.84,1.62,1.62,2.37,1.83,.58,.46,1.78,.37,1.09,.42,.72,.28,1.43,.48,2.12,.7l-.03,.11c.48,.23,.98,.4,1.48,.56,.1,.03,.3,.1,.33,.1l.17,.02c.11,.02,.24,.04,.36,.07,.47,.11,1.05,.4,.81,.79,.36,.08,.86,.24,.94,.55-.24,.02-.49,.03-.74,.03,.1,.04,.14,.1,.15,.15,0,.05-.22,.05-.32,.08-.32,.04-.53,.06-.22,.18-1-.19-1.13-.21-1.24-.12-.05,.04-.1,.11-.16,.18,0,.02-.16,.1-.23,.13l-.3,.13-.35,.14,.16,.49c-.57,.27-1.11,.6-1.65,1.02-.53,.41-1.11,.98-1.55,1.49l.36,.29c-.34,.53-.97,.98-1.67,1.47l-.54,.38c-.18,.13-.51,.4-.75,.61-.52,.45-1.06,.94-1.52,1.46-.05-.2,.5-.73,.96-1.03-1.66,.97-2.84,2.57-3.5,3.81-.7,1.3-.98,2.24-2.22,3.51-.09,.45-.41,.85-.82,1.34,.03-.05,.05-.09,.05-.12l-.1,.16,.03,.04c-.03,.19-.05,.39-.02,.57,.03-.19,.08-.37,.07-.51,.09,.12,.21,.25,.34,.39,.04,.03,.05,.08,.13,.11l.27,.08c.18,.05,.38,.12,.57,.15l-.24,.41,.16,.04c.43,.34,.71,0,.78-.33,.38,.04,.75,.04,1.08,0-.16,.33,.28,.4,.74,.41,.45,.04,.94,.01,.9,.44,.2-.08,.53-.13,.93-.2,.39-.05,.87-.12,1.37-.24,.99-.21,2.01-.59,2.39-1.1-.03,.12,.15,.13-.23,.22,.72-.04,1.56-.13,2.3-.57,.1,.19,.21,.37,.33,.55,.32-.22,.62-.45,.9-.67,.29-.22,.53-.43,.69-.62,.9,.14,1.27,.27,.62,.93,.85-.61,1.16-.75,1.59-.94,.37-.18,.69-.35,1.39-.97l.05,.4c.59-.22,1.31-1.04,1.76-.86,.52,.1,1.44-.14,2.52-.42,.54-.15,1.12-.28,1.69-.37,.56-.1,1.15-.09,1.32-.01l-1.08-2.28c-.46,.97-1.16,2.07-1.83,2.91,1.35-.07-1.21,1.21-.47,1.75-.34,.06-.7,.44-.66-.19-.14,.44-.31,.8-.48,1.12l-.54,.97c-.17,.3-.36,.73-.5,1.17-.14,.43-.19,.87-.15,1.3-.41,.3-.22-.57-.49-.31-.03,.23-.05,.84-.3,1.13-.26,.29-.14-.37-.11-.82-.46,1.45-.35,2.16-.06,2.43,.29,.28,.72,.2,1.13,.1-.59,1.24-.42,1.77,.11,2.13-.1,.26-.13,.57-.2,.68-.07,.11-.24,.02-.4-.57,.03,.18,.06,.56,.22,.99,.16,.44,.56,.93,1.05,1.16,.97,.5,1.98,.25,2.16-.05,.15,.14,.99-.07,1.21-.24,.82-.18,1.28-.36,1.74-.53,.46-.14,.91-.42,1.73-.85l-.48,.12c.24-.55,.51-.73,.9-.95,.37-.2,.96-.39,1.37-.8l.02,.08c.64-.31,.99-.57,1.2-.76,.22-.19,.31-.31,.39-.44,.15-.27,.35-.46,1.45-1.35l-.47-.18c-.33-.42,.16-.77,.76-1.27,.61-.49,1.35-1.14,1.54-1.92l-.5,.36c.09-.87,2.32-1.46,2.79-2.21,.16-.13,.01,.33-.04,.59,1.46-1.8-.45-.52,.06-2.08,.34,.06,.75,.44,.92,.19,.13,0,.01-.24-.03-.69-.05-.43,0-1.1,.17-1.26,.03-.1,.15,.12,.23,.25-.19-.45-.5-.98-.21-1.05,.27,.12,.69,.73,.96,1.12,.29,.41,.46,.62,.89,.42,.03,.11,0,.18-.02,.24,.07-.02,.4,.17,.66,.3l.9,.45c.61,.29,1.21,.53,1.56,.5-.14,.91,1.13,1.53,2.37,2,.61,.24,1.22,.43,1.64,.65,.38,.21,.76,.5,.6,.85,1.18,.47,2.47,.82,3.66,.72l-.05,.16c1.21,0,1.93-.49,2.33-.95,.19-.25,.32-.47,.39-.72,.08-.23,.13-.45,.14-.69,.31-.37,.26,.04,.3,.13,.25-.32,.36-.68,.51-.98,.1-.32,.15-.63,.21-.91,.1-.56,.22-1.05,.16-1.46-.03-.42-.1-.83-.2-1.28-.12-.42-.34-.83-.59-1.37l.46-.32c-.22-.28-.17-1.3-.45-2.55-.25-1.24-.79-2.71-1.74-3.68,.06,0,.17,0,.34,.14-.98-1.16-1.74-2.76-2.6-4.05-.42-.65-.88-1.2-1.33-1.57-.21-.1-.51-.08-1.04,.03-.39-.17-.84-.37-1.35-.62,.52,.54,.29,.6-.11,.52-.39-.07-1-.3-.83,.05-.39-.29-.68-.68-.68-.88,0-.2,.24-.23,.66,.06v.1c.67,.05,.51-.24,.23-.5l-.28-.26s-.15-.08-.07-.12l.19-.11c.25-.14,.49-.21,.77-.14,.51-.41,1.15-.71,1.78-.9,.7-.2,1.03-.25,2.3-.49,2.12-.39,4.38-.67,6.65-1.47-.26-.16-.51-.34-.76-.51,.51-.14,1.02-.36,1.54-.56,.47-.05,.8,.29-.34,.73,.77,.17,1.74-1.23,1.65-1.38,1.1-.57,1.05-.28,.75,.14-.29,.44-.83,.9-.48,.71,.3-.2,.6-.44,.89-.66l-.26,.07c.48-.61,.42-.97,1.13-1.7l2.59-2.68-3.58-.06c-.12,0-.3-.02-.52-.05-.85-.24-.4-.5-.74-.55,0-.05-.11-.08-.53-.06-.68-.06-1.35-.11-2.02-.12,.27,.19,.53,.38,.79,.59-.88,.27-1.85-.03-.95,.62-.66-.51-2.51-.54-4.24-.36-1.74,.17-3.37,.5-3.78,.41-1.11,.59-2.26,.77-3.68,.95,.37,.06,.69,.67-.55,.79,.12-.7-.46-.75-1.21-.73-.8,.02-1.76,.17-2.23-.25,.46,.25-.44,.45-.72,.49-.13,.02-.06,.07-.16,.13-.07,.07-.21,.13-.24,.4-.21-.35,.31-.38,.41-.75-.06-.02-.12-.07-.18-.15-.06-.06-.12-.16-.17-.27-.03-.06-.06-.08-.08-.18l-.06-.36c-.05-.23-.03-.51-.04-.77,.03-1.09,.25-2.4,.36-3.58,.35-2.51,.79-5.06,.51-6.45-.18,.34-.42,1.46-.74,1.35,.24-1.22,.43-2.27,.6-3.29-.18-.23-.84,1.59-.51-.38-.08,.38-.22,.99-.28,.79,.02-.77-.02-1.4-.1-1.98-.04-.29-.09-.56-.18-.82-.09-.26-.17-.52-.42-.77C37.08,.22,36.72,0,36.29,0c-.42,0-.72,.18-.97,.36-.5,.38-.85,.86-1.19,1.36l-2.03,3.3c-.78,1.17-1.58,2.84-2.6,4.43,.61-.66,.33,.18,.03,1.04,.25-.44,.24,.61,.42,.83-.5,.73-1.03,1.59-1.61,2.6,.15,.59-.13,1.48-.4,2.36-.06,.22-.13,.44-.19,.65-.05,.18-.07,.3-.09,.44-.03,.26-.01,.47,.12,.58l.12-.81c.2,.62,.71,.39,1.27,.04,.57-.35,1.12-.52,1.51-.17-.24-.66,.23-1.08,.59-1.27,.38-.26,.6-.22,.54-1.91,.17,.11,.06,.78,.21,1.05-.1-.98,.03-1.61,.32-1.82v.31c.3-.97,.56-1.41,.77-1.6,.22-.19,.36-.17,.73-.21l.17-1.88c.21-.07,.21,.54,.27,.99,.5-1.61,.21-1.65,0-1.5-.2,.12-.36,.31-.03-1.54-.02,.86,.06,1.13,.31,1.27,.26,.15,.65,.45,.7,.84,.11,.78-.02,1.66-.61,3.63-.01,.24,.14-.24,.29-.73,.15-.49,.31-.99,.28-.67l-.34,1.08,.4-1.02c-.1,.63-.51,1.83-.78,2.52,.04-.15-.06,0-.08,0-.2,.68-.19,.79-.14,.85,.05,.06,.14,.07,.07,.25,.08-.26,.14-.54,.21-.84,.14,.33-.06,1.19-.11,1.92-.03,.37-.02,.74,.11,1.09l.2,.44c.1,.24,.24,.5,.4,.75,.33,.51,.79,1.08,1.51,1.47-.09-.15-.16-.31-.22-.46,.44,.33,.92,.49,1.29,.58,.37,.07,.67,.1,.9,.1,.42,0,.73,.01,1.06,.02,.58,.02,1.16,0,2.32-.29l-.08,.07c.46-.3,1.13-.52,1.82-.61-.6,.36,1.28,.31,.49,.73,2.41-.84,1.17-.55,2.68-1.62l.43,.31c.51-.41,.53-.6,1.77-.86-.98,.45,.87,.45-.22,1.02,2.67,.46,3.79-1.23,5.03-.1,1.15-1.09-2.26-.46-1.61-.7-.59-.29,.94-.85,1.77-.76,.85,0,1.45,1.25,3.42,1.36-.2-.02-.22,.06-.41,.04,.47,.19,.94,.06,1.45,.06l-1.17-3.24c-.15,.16-.34,.31-.62,.37,.03,.74-.8,.53-.54,1.26,.25-.15,.44-.35,.65-.52,.22-.17,.38-.38,.55-.57-.22,.39-.45,.86-.81,1.35-.2,.22-.45,.44-.74,.63-.32,.16-.69,.29-1.14,.35,.08-.19,.47-.59,.73-.83-.54-.03-.81,.51-1.4,.44-.05-.4,.46-.61,1.02-.88,.57-.26,1.2-.62,1.37-1.12-.45-.02-1.28,1.38-1.23,.4-.08,.64-.53,.8-1.05,.91-.53,.12-1.14,.2-1.7,.78l-.04-.48c-.18,.13-.58,.46-.98,.55l.56-.77c-.95,.79-2.24,.06-3.3,.61,2.34-.56,.66,.43,1.71,.54-1.35,.64-1.84,.44-2.4,.2-.28-.11-.57-.25-1.01-.26-.27,.01-.75,.07-1.21,.2-.49,.11-1.01,.34-1.65,.61,.33-.16,1.03-.37,1.51-.42,.49-.05,.73,.03,.26,.3-.96,.24-2.35,.54-3.06,.7-.76,.42-1.04,.65-1.07,.76-.05,.1,.11,.07,.32,.02,.43-.11,1.11-.24,.64,.16-1.41,.23-1.01,.95-1.72,1.73l-.56-.16c-.65,.43-1.01,.8-1.17,1-.08,.11-.11,.19-.12,.25,0,.06,.1,.1,.15,.13,.28,.14,.63,.18,.69,.63,.17,.14,.37,.31,.6,.55l-1.49-.59c-.12-.09-.22-.18-.31-.27v.26l1.29,.84-1.19-.23c1.21,.68,1.85,1.08,2.39,1.51,.53,.43,1.04,.86,1.69,1.6-.02-.25,.25-.3,.64-.19,.2,.06,.43,.16,.67,.31,.24,.13,.55,.4,.7,.55,.27,.71-.59,.03,.44,1.05-.44-.05-.96-.03-1.07-.8-.21,0-.63-.19-.85-.18,.17,.25,.51,.65,.57,.77,.13,.17,.28,.33,.44,.48,.32,.3,.61,.57,.78,.76-.11-.16-.25-.35-.27-.49,.62,.36,1.22,.76,1.82,1.18,.06,.37-.22,.25-.49,.13,.3,.29,.63,.41,1.01,.88-.41,.09-.73,.34-1.35-.23,.47,.43,.96,.86,1.39,1.33-.07,.2,.07,1.05-.18,.91,.12,.49,.57,.93,.96,1.47,.22,.26,.39,.54,.53,.84,.16,.3,.24,.62,.22,.94,.09,.05,.19,.16,.3,.42,.03,.57-.01,1.28-.1,1.52-.06,.43-.06,.45,.15,.92-.24-.04-.49-.14-.72-.31,0,.15,.2,.35,.43,.5,.11,.08,.24,.16,.31,.28,.07,.12,.11,.32-.06,.53-.26,.29-.44,.08-.52-.14-.09-.23-.18-.51-.29-.62,0,.42-.59,1.1-1.3,.09,.1,.01,.23,.06,.28,.07,.05,.01,.1,.03,.14,.05,.09,.05,.17,.09,.24,.09Zm-14.95-4.26c.11-.54,.32-1.87,.64-1.91,.12,1.16-.19,1.22-.64,1.91Zm-11.19,10.54c.13,.13-.05,.38-.37,.78,.02-.21,.13-.48,.37-.78ZM7.75,23.31s.03,0,.05,0c.6,.64,.39,.41-.05,0Zm-1.29-1.29c-.18-.07-.22-.01-.21,.09,.18,0,.5,.25,.83,.58-.02-.18-.14-.4-.63-.67Zm51.1-6.63l.31,.15c-.72,.09-.51-.02-.31-.15Z"/><path class="d" d="M22.13,49.52c-.11,.13-.23,.24-.35,.34,.11,0,.24-.1,.35-.34Z"/><path class="d" d="M49.02,38.41v-.04s-.07-.02-.1-.02l.1,.06Z"/><path class="d" d="M15.86,33.12c-.47,.12-.56,.07-.71,.04,.02,.06,.07,.09,.16,.1,.05,0,.1,0,.18-.02,.07-.02,.23-.07,.38-.12Z"/><path class="d" d="M13.01,17.48l-1.03-.37c.49,.21,.61,.39,.81,.57,.03-.11-.08-.35,.22-.2Z"/><path class="d" d="M19.16,24.12c.09-.02,.27,.13,.36,.1l-.18-.34c-.49-.22-.79-.17-.17,.24Z"/><path class="d" d="M13.1,19.35c-.12,.39,.49,.57,1.12,.85-.04-.02-.07-.04-.11-.06,.46-.39-.27-.6-1.02-.79Z"/><path class="d" d="M14.37,20.27c.19,.09,.39,.19,.55,.31,.18-.16-.2-.17-.55-.31Z"/><path class="d" d="M4.67,20.39c-.15-.4-.58,.08-.58-.21-.36-.06,.19,.46,.62,.73,.43,.27,.73,.32-.04-.51Z"/><polygon class="d" points="12.95 20.79 12.98 20.23 12.44 20.4 12.95 20.79"/><path class="d" d="M8.07,18.34c.37,.11,.72,.26,1.06,.42,0-.09,.16-.09,.34-.07-.64-.26-1.39-.5-1.39-.35Z"/><path class="d" d="M9.46,18.69c.34,.12,.65,.25,.88,.25-.19-.06-.58-.22-.88-.25Z"/><path class="d" d="M11.57,20.21l-.24-.24c-.23-.12-.45-.25-.68-.36,.31,.19,.62,.4,.92,.6Z"/><path class="d" d="M14.3,24.59l1.09,.32c.21-.09-.02-.31-.45-.43-.3,0-.74-.12-.64,.11Z"/><path class="d" d="M11.63,21.86c.23,.23,.2,.34,.28,.57l.3-.54-.59-.03Z"/><path class="d" d="M14.79,23.15s.18-.03,.33-.02c.14,0,.33,.02,.51,.05,.16,.02,.26,.02,.2-.04-.04-.05-.34-.2-.66-.32-.18,.11-1.33-.23-.38,.33Z"/><path class="d" d="M13.45,32.41c.08-.05,.17-.11,.25-.15l-.53-.87c.08,.34,.18,.69,.28,1.03Z"/><path class="d" d="M9.49,39.76c.08-.22-.32-.03-.64,.12-.33,.17-.64,.3-.17-.08-.45,.12-.78,.65-1.19,.78,.02,.02,.15,0,.24-.01l.24-.02c.14,0,.25-.04,.37-.08,.24-.08,.5-.26,1.15-.7Z"/><path class="d" d="M7.49,40.58c-.06-.01-.13-.02-.24-.02,.08,.05,.16,.04,.24,.02Z"/><path class="d" d="M27.06,16.12c-.1,.2-.23,.49-.31,.64l-.24,.42c.17-.18,.33-.29,.51-.51l.03-.54Z"/><path class="d" d="M27.21,18.27l-.68,.03,.41,.7c.03-.21,.09-.62,.27-.73Z"/><path class="d" d="M30.37,40.35l.12,.12c.1-.03,.18-.09,.25-.19,.04-.05,.07-.11,.11-.18,.04-.07,.06-.11,.16-.34-.17,.25-.23,.23-.34,.34l-.3,.24Z"/><polygon class="d" points="42.95 38.21 42.79 38.08 42.76 38.78 42.95 38.21"/><path class="d" d="M48.21,40.54s.02,.12-.01,.09c-.04-.1,.45,.7,.01-.09Z"/></g></g></g></svg>