<?xml version="1.0" encoding="UTF-8"?><svg xmlns="http://www.w3.org/2000/svg" viewBox="0 0 911.91 243.49"><g id="a"/><g id="b"><g id="c"><g><path d="M51.29,16.45c3.21-.25,1.98-.58,2.46-.69-2.57,.31-3.28,.49-3.19,.61,.07,.11,.81,.14,.73,.09Z"/><polygon points="90.14 19.88 89.19 20.11 97.1 19.14 90.14 19.88"/><path d="M140.44,15.96c-4.81-.34-18.2,1.6-27.19,2.06l-1.49-.04-4,.9c10.89-.95,24.99-2.5,32.67-2.91Z"/><path d="M167.34,15.52c-1.67-.16,5.78-.64-6.25,.34,.61,0,.78,0,1.14,0,1.08-.07,2.58-.17,5.11-.33Z"/><path d="M162.23,15.86c-5.29,.38,3.48,0,0,0h0Z"/><path d="M186.64,14.27c-2.32,.2-4.64,.35-6.95,.59,1.46,.05,7.66-.16,5.37,.05,7.14-.46,5.66-.55,1.59-.64Z"/><path d="M193.23,13.45l-3.61,.27c.64,.04,1.59,.02,3.61-.27Z"/><path d="M181.97,14.29l7.65-.57c-1.01-.07-1.13-.3-3.51,.24,.62-.24-.89,.03-4.14,.33Z"/><path d="M177.63,14.43c-3.92,.07-8.98,.27-1.99-.38-6.67,.42-9.5,.78-9,.88,.5,.08,4.33-.06,10.99-.49Z"/><path d="M142.95,15.01l-5.25,.21-4.5,.6c2.25-.3,10.09-.62,9.75-.81Z"/><path d="M230.01,13.96c.44-.15-2.33-.43-2.85-.63l-5.14,.11c2.64,.14,7.65,.29,7.99,.52Z"/><path d="M227.17,13.33l3.85-.08h3.85c-3.43-.17-5.47-.14-6.59-.11-1.12,.03-1.33,.1-1.11,.19Z"/><path d="M194.44,12.61l-12.64,1.11c5.02-.39,10.05-.87,15.08-1.19l-2.44,.08Z"/><polygon points="259.43 15.23 255.03 15.37 262.86 15.22 259.43 15.23"/><path d="M279.01,16.11c-3.26,.14,4.42,.7,.99,.72,5.32,.2,9.87,.16,13.97,.12-4.35-.07-8.98-.32-14.96-.84Z"/><path d="M300.85,16.93c-2.17-.03-4.43,0-6.88,.02,2.31,.04,4.59,.04,6.88-.02Z"/><path d="M247.98,13.86c.59,.12,1.73,.42,6.06,.74l-3.02-.58c-.93-.05-1.98-.1-3.04-.16Z"/><path d="M250.91,14l.11,.02c3.3,.18,5.58,.3,6.56,.35-.84-.05-2.85-.16-6.67-.37Z"/><path d="M247.21,13.82c.28,.01,.49,.03,.77,.04-.29-.06-.47-.08-.77-.04Z"/><path d="M214.66,12.57c1.13-.06,2.57-.14,3.95-.22,1.38-.06,2.7-.1,3.59-.16,1.79-.12,1.87-.27-2.71-.51-3.25,.3,1.98,.47-4.84,.89Z"/><path d="M243.47,13.1l-8.17-.4c.16,.12,1.63,.34-.62,.37l8.79,.03Z"/><polygon points="247.49 13.16 243.47 13.1 246.51 13.28 247.49 13.16"/><path d="M286.8,15.9c3.55-.02,7.43,.14,11.82,.31-4.69-.3-9.54-.56-14.15-.78-.66,.1-2.69,.25,2.34,.47Z"/><path d="M269.36,14.95c.24,0,.56,0,.79,.01-.48-.06-.87-.09-.79-.01Z"/><path d="M341.76,18c-.24-.04-.45-.07-.69-.1-.06,.02-.09,.05-.16,.07l.85,.04Z"/><path d="M283.68,15.31c-3.53-.25-5.64-.24-7.66-.21,2.64,.08,5.44,.18,8.44,.32,.3-.05,.35-.08-.78-.12Z"/><path d="M312.89,17.26c-1.83-.17-3.92-.33-6.1-.5,1.79,.21,5.45,.58,6.1,.5Z"/><path d="M271.34,15.14c-.18,0-.34,0-.53,0,1.15,.15,1.01,.1,.53,0Z"/><path d="M271.34,15.14c1.82,.03,3.25,0,4.69-.04-2.15-.07-4.14-.12-5.87-.14,.44,.05,.87,.12,1.18,.18Z"/><path d="M354.93,15.74c-.64,.38-9.93,.4-17.92-.33-7.89-.02-2.79,1.5,4.06,2.48,.25-.16,.26-.32,8.38-.25-2.83-.32-17.98-1.19-11.12-1.29,10.75,.2,8.8,.48,14.02,.87-4.42-.65,13.7-.24,11.38-1.05l-9.43-.07c-.17-.12,3.25-.18,.64-.37Z"/><path d="M325.61,17.24l-3.34-.09c3.8,.22,6.52,.49,11.53,1,5.56,.02,6.72-.08,7.11-.2l-16.44-.71h1.14Z"/><path d="M307.28,16.52c2.63-.32,10.65-.16,5.76-.83-9.8-.39-6.88,.07-12.74,0,15.81,.59-4.55,.04,6.86,.79-3.11-.06-5.9-.17-8.54-.27,2.84,.2,5.58,.38,8.17,.56-.14-.02-.24-.03-.36-.04h-.06c-.68-.09-.9-.13-.14-.07,.05,0,.24,0,.33,0,.11-.06,.4-.09,.72-.13,4.57,.29,.72,.14-.72,.13-.05,.02-.18,.03-.19,.06h.06l15.85,.45c-3.35-.19-7.55-.37-14.99-.64Z"/><path d="M227.95,10.85c.49,.04,.47,.07,.5,.11,1.02-.04,1.41-.07-.5-.11Z"/><path d="M234.45,11.27c-1.15,.03-2.11,.11-5.85,.04-3.24-.17,.02-.21-.15-.35-2.26,.09-7.89,.21-.83,.51l1.12-.04c3.18,.07,6.81,.45,9.51,.69,2.69,.26,4.45,.47,3.89,.48-1.84-.46-3.46-.79-7.69-1.33Z"/><path d="M271.32,13.81l13.19,.41-6.7-.69,.33,.24c-7.49-.44-5.89-.09-6.83,.04Z"/><polygon points="343.26 18.27 341.49 18.66 349.14 18.3 343.26 18.27"/><polygon points="360.4 18.83 359.76 19.21 364.29 19.13 360.4 18.83"/><path d="M693.12,241.07l-3.88,.09c1.84-.03,3.02-.06,3.88-.09Z"/><path d="M721.19,241.21l.69-.19c-1.3,.1-1.83,.17-.69,.19Z"/><path d="M781.01,6.83c5.63,.48,11.9,1.26,11.23,.78l-1.72-.48c-3.94-.04-6.95-.16-9.52-.3Z"/><path d="M889.05,175.84c.09-.53,.19-1.08,.28-1.63-.02-1.38-.04-2.68-.06-3.84-.07,1.64-.14,3.51-.22,5.47Z"/><path d="M890.47,179.96c-.34,2.45-.59,4.92-.88,7.38,.24-1.66,.45-4.03,.88-7.38Z"/><path d="M539.8,236.49l-4.54,.22c7.07,.34,3.97-.04,4.54-.22Z"/><path d="M536.18,19.55c4.88-.12,8.77-.28,12.18-.47-5.89,.1-10.64,.01-12.18,.47Z"/><path d="M704.18,236.52c-2.37,.07-3.38,.15-3.31,.25,2.44-.06,3.82-.14,3.31-.25Z"/><path d="M562.42,18.12c-.86,.03-1.7,.05-2.58,.08-3.56,.31-7.13,.67-11.48,.88,4.35-.06,9.32-.34,14.06-.97Z"/><path d="M8.64,207.57c-.03-.41-.09-.9-.11-1.27-.08-.12-.01,.45,.11,1.27Z"/><path d="M3.38,45.79c.08,1.58,.2,4.15,.36,6.58-.07-1.18-.17-3.17-.36-6.58Z"/><path d="M429.41,20.85c-3.64-.03-.58,.04,0,0h0Z"/><path d="M411.75,18.78c.77-.03,1.36-.08,1.46-.18-.3,.1-.81,.15-1.46,.18Z"/><path d="M598.33,12.53l.31-.03c-1.08,0-.9,0-.31,.03Z"/><path d="M423.94,20.55c1.36,.08,2.94,.16,4.65,.22-.75-.03-2.17-.1-4.65-.22Z"/><path d="M424.67,20.77c-1.25-.04-2.24-.08-3.18-.11-.46,.06-.05,.12,3.18,.11Z"/><path d="M434.48,20.9c-2.08-.03-4.02-.08-5.89-.14,.71,.04,1.01,.07,.82,.08,1.07,.01,2.57,.03,5.07,.06Z"/><path d="M281.96,227.8c-.24-.02-.52-.04-.78-.06-3.67,.09-2.06,.1,.78,.06Z"/><path d="M875.58,8.38c-.17,0-.26,0-.42,0,.17,.01,.39,.03,.54,.04l-.12-.04Z"/><path d="M888.78,9.17c-5.69-.14-8.84-.37-13.07-.74l4.25,1.52c2.91-.33,5.84-.61,8.82-.78Z"/><path d="M625.86,239.83l9.16,.69c-11.1,.28-19.11-.2-10.51,.63,.67-.67,9.59-.38,18.51-.17,8.92,.19,17.84,.38,18.49-.29l6.05,.38c-1.73-.04-2.01,.04-3.73,0,11.76,.81,8.76-.79,23.92-.47,5.28,.13,8.97,.34,5.37,.49l11.78-.28c3.42,.03,2.58,.27-.82,.23l17.93-.04-.13,.04c2.56-.2,8.36-.48,11.19-.58,4.55,.24-2.29,.12-1.12,.3l9.94-.21c4.04,.41-4.19,.63-11.05,.51,9.26,1.46,8.24-.27,28.25,.84l-9.38,.02c6.03,.87,13.35,.71,23.95,1.38-2.51-.3-21.21-1.58-10.42-1.74,3.04,.16,7.04,.27,12.86,.11,.05,.48,5.73,.47,12.83,.57l-.5,.63c7.69-.04,7.09-.38,11.61-.59,8.57,.21,10.34,.73,12.35,1.18,13.72,.31-9.46-.93,6.78-.82,11.41,.39,19.43,.21,33.09-.13,7.99,.21-1.4,.39,1.47,.57l7.09-.52c1.73,0,1.17,.17,.89,.25,5.97-.22,.49-.64,9.87-.88,.63-.18,2.15-.21,4.26-.19,2.2,.05,5.01,.11,8.12,.18,1.07,.01,2.16,.03,3.28,.04h1.07s.05,0,.05-.05v-2.2c0-1.93,0-3.9,0-5.86-.01-1.61-.05-3.22-.11-4.78-.03-1.57-.07-3.09-.16-4.53,.2-2.85,.38,1.38,.64,.51-.25-7.92-.18-11.32-.21-14.37-.02-1.52-.04-2.96-.06-4.83,0-1.87,0-4.18,.01-7.44,.31-3.69,.75-7.38,1.16-11.06-.55,4.05-.76,3.47-.82,.73-.03-1.37-.01-3.28,.02-5.43,.08-2.14,.17-4.51,.26-6.8-.49,2.87-.94,5.32-1.17,6.97,.33-4.86,.64-9.73,1.03-14.59,.29-1.75,.35-.26,.36,2.15,.05-1,.1-1.94,.14-2.68,.8-5.17,.87-2.44,.83,1.32-.33,1.75-.6,3.5-.9,5.2,.05,3.63,.17,7.02,.61,6.31,.01-.95,.12-2.77,.27-4.78,.02,.95,.06,1.56,.16,1.13,.11-.49,.11-2.01,.17-4.41,.34-1.08,.67-2.15,1.04-3.23l-.2-.83,1.25-9.46,1.37-9.44c1.01-13.63,1.6-25.56,4.62-47.07-.3,5.4,.67,1.27,1.24,1.66-1.55,5.75-2.29,16.65-3.96,27.76,.89-5.8,1-4.48,.9-2.99,.73-6.64,1.54-13.28,2.34-19.92,.43,.52,1.02-4.15,2.03-9.3-1.6,3.76,1.66-14.88,2.63-22.99,.41-.45,.45,1.54-1.19,11.37,2.46-10.74,1.06-14.21,3.34-24.78-.36,2.41-.62,3.69-.6,4.67,.3-2.83,1.01-7.67,1.65-11.4l.45-2.53c.13-.72,.27-1.31,.38-1.76,.23-.89,.35-1.12,.27-.32-.16,.79-.28,1.53-.4,2.32,.63-3.83,1.91-8.83,2.86-14.2,.48-2.69,.91-5.48,1.16-8.31,.24-2.82,.32-5.69-.09-8.51-.22-1.41-.58-2.82-1.26-4.16-.34-.65-.8-1.34-1.29-1.83-.48-.54-1-.96-1.52-1.37-2.12-1.54-4.25-2.33-6.07-2.91-3.67-1.11-6.22-1.33-6.85-1.27-.15-.15,2.31-.58,3.35-.49-4.95-.73-9.82-.83-14.66-.79-4.84,.05-9.65,.31-14.47,.57,2.58-.61-7.1-2.81,6.33-2.58-1.93-.16-4.08-.31-6.76-.44-2.68-.16-5.88-.18-9.78-.54,2.5,.44,6.31,1.59,2.77,1.42-9.63-1.86-6.71-1.27-18.73-3.14,3.91,.52-.56,1.24-6.75,.67,.98-.09-.42-1.17,1.86-1.1l-7.77-.07-7.77,.02c3.87,.07,.75-.92-2.7-1.44,1.59,.29-13.38-.79-17.52-.79l6.55,.55c-8.74-.48-13.07-.22-17.38,.06-4.31,.29-8.6,.58-17.26,.41,2.1-.2,5.21-1.35-3.61-1.63-4.05,.53-17.92,2.53-33.22,3.04l-2.94-.3c-3.91,.18-7.82,.26-11.73,.53,3.64-.57,10.59-1.23,18.05-1.97,7.46-.65,15.41-1.24,21.03-1.54-6.54-.31-1.82-.41-11.61-.43-3.46-.32,5.34-.45,8.22-.44-7.61-.1-15.19-.27-22.82-.23,.51,.33-3.86,.54-8.24,.73-4.38,.2-8.78,.52-8.34,.77l6.19-.35,6.2-.23c4.13-.14,8.28-.33,12.4-.43,.5,.33-3.08,.79-8.81,1.24-2.86,.22-6.26,.4-9.95,.56-3.69,.21-7.67,.38-11.71,.46-4.12-.15,3.04-1.28,2.69-1.5-1.05,.16-4.88,.33-8.64,.56-3.75,.23-7.43,.4-8.18,.36l6.84-.66c-4.5,.07-8.17,.46-12.05,.81-3.88,.39-7.99,.77-13.41,.76-3.73,.16-11.18-.11-11.8,.32,6.13,.34,7.46,2.63,3.47,3.48-.65,.02-5.54,.17-10.81,.33-5.26,.19-10.89,.36-13.03,.34-6.17-.12,9.07-2.15,3.82-2.25-.21,.2-3.57,.69-4.98,.87-3.92,.16,1.57-.71-6.9,.09-1.36,.8-17.25,1.39-3.96,.91-8.28,.89-8.82,.61-18.56,1.48,3.14,.17-8.61,2.25-16.9,3.17,.47-.22-1.41-.28-2.32-.3-8.5,.68-15.04,1.16-21.43,1.56-6.39,.43-12.64,.84-20.58,1.37-1.47-.04-9.14,.26-5.9-.25-2.27,.26-4.35,.61-9.25,.92-9.5-.02,10.9-.75,3.64-1.02-.3,.22-3.45,.54-7.4,.9-3.95,.36-8.7,.64-12.18,.94,1.09,.26,5.12,.1,9.75-.2,4.63-.35,9.85-.85,13.33-1.18,.09,.82-12.01,2.54-28.63,3.63-13.22,.62-5.75-.37-8.04-.18-3.1,.08-5.76,.16-8.08,.26-2.32,.06-4.29,.13-6.03,.21-3.47,.16-5.98,.36-8.37,.54-4.76,.34-9,.57-19.31,.24-8.18-.59-.36-1.07-2.18-1.47,5.38-.05,9.51,.02,13.21,.14,3.7,.11,6.96,.26,10.61,.19-3-.04-5.99-.12-8.98-.22,3.42-.14,10.61-.37,14.52-.26-6.85-.23-41.93-.05-61.06-.83-3.4,.13-9.28,.22-6.5,.48l6.06,.02c5.56,.52-11.41,.42-3.75,.74-8.13,.17-17.25,.48-28.69-.06l-2.13-.67c.24,.18,7.47,.55,10.69,.44-4.78,.16-17.52-1.25-22.76-.61l8.01,.65c-8.17,.09-18.27,.45-28.4-.07,4.59,.75,2.34,0,9.52,.94-6.22-1.05,25.94,.78,15.93-.43,7.37,1.01,12.79,.69,22.44,1.59-.3-.21-3.42-.46,5.1-.18,.39-.05,1.29-.11,1.87-.14,.26,.01,.35,.02,.57,.03-.17-.01-.3-.02-.47-.03,.37-.02,.4-.03-.17-.01-2.03-.13-3.67-.27-4.33-.4,4.24-.36,17.77-.13,22.36-.3,5.05,.16-2.12,.2,.64,.46l6.85-.28c.67,.46,13.42,.9,1.51,1.03l10.72,.12c6.31,.3,14.99,.45,20.34,.25,5.05,.14,12.78-.56,8.37-.16,5.61-.18,11.23-.26,16.84-.53l.16,.11c16.62-.31,34.12-2.1,53.1-2.61,5.57-.49,11.31-1.08,20.63-1.69l1.85,.24c7.13-.73,21.48-1.42,24.51-2.1,7.8,.37,34.64-2.81,47.2-3.57l.43-.54c8.63-.71,16.9-1.38,27.61-2.26l-.69-.41c4.61-.43,10.56-.79,17.19-.92,3.31-.09,6.79-.18,10.36-.28,3.57-.06,7.22-.12,10.88-.24-.99,.2-4.7,.26-7.33,.23,4.38,.14,8.87,.07,13.39-.04,4.52-.05,9.08-.19,13.59-.34,9.03-.23,17.88-.42,25.81,.03,3.96-.12,6.83-.02,9.6,.14-.37,0-.7,0-.98,0,.41,0,1.01,.02,1.62,.03,1.74,.11,3.54,.22,5.49,.34-1.65-.15-3.24-.27-4.62-.33,3.05,.02,7.68,.06,12.22,.1l1.92,.54c.37,0,.66,0,1.05,.02,4.44,.31,3.58-.11,1.22-.56,2.28,0,4.38-.02,6.01-.08,3.58,.9,11.9,.23,16.78,1.34,1.54-.11,7.23,.14,12.84,.42,5.61,.28,11.14,.58,12.38,.28,.14,.12,1.47,.3-.97,.08,5.03,.55,10.04,1.16,14.57,1.45l2.06,.86,2.77,.12c.96,.04,1.91,.06,2.85,.05,1.87,0,3.73-.06,5.58-.11,6.7,.68,9.45,1.04,2.78,1.19,8.04,0,11.27,.22,14.2,.42,1.46,.12,2.85,.22,4.71,.41,1.86,.19,4.2,.41,7.51,1l-.73,.24c2.32,.51,5.35,1.23,7.83,2.44,1.24,.6,2.3,1.34,3.04,2.12,.75,.75,1.07,1.55,1.23,2.2,.34,1.15,.59,2.87,.61,5.05,.02,2.18-.17,4.8-.58,7.73-.4,2.93-.99,6.18-1.71,9.64-.69,3.47-1.63,7.15-2.21,11.14-2.36,15.51-5.22,33.12-7.71,46.97,1.98-5.22-2.52,12.85-1.76,14.09-.51,1.58-1.25,5.44-.81,.89-1.85,14.25-3.5,21.32-4.02,31.26-.48,1.6-.02-3.11-.37-1.67-.08,1.15-.32,4.57-.66,6.03-.34,1.43,.02-2.12,.18-4.4-1.76,14.6-.96,16.19-.31,17.33-.6,3.68-.96,6.44-1.15,8.97-.2,2.52-.27,4.8-.26,7.5-.45,2.56-1.1,6.85-.42-2.26-.07,.64-.16,1.61-.29,2.81-.1,1.21-.22,2.65-.36,4.24-.25,3.18-.62,6.94-.79,10.58-.19,3.63-.4,7.12-.44,9.73-.03,2.62,.01,4.36,.17,4.5-.21,1.6-.3,7.18-.19,8.53-.04,5.77-.16,8.9-.06,12.02,.03,1.53,.06,3.06,.1,4.89,.02,.6,.03,1.26,.05,1.99,.18,.54-.39,.36-.77,.4-.41,0-.84,.02-1.3,.03l2.15,.07c-.57,.2-1.4,.32-2.34,.39-.28,.01-.57,.03-.87,.04-.32,0-.65,.02-.98,.03-.67,0-1.36,.01-2.09,.02-2.93,.01-6.43-.09-10.98,0l.26-.08c-20.86-.48-9.01,.34-29.59-.38l1.12,.49c-1.93,1.02-18.23-.75-30.18-.57l4.31,.34c-6.53,.26-18.22-1.7-24.77-1.95-1.43-.12,2.26-.1,4.25-.13-17.14-.92-2.23,.59-15.02,.5-2.35-.38,3.05-.81-5.55-1.03-4.28-.35-24.99,.65-36.73-.13,2.59,.29,5.15,.58-.79,.71-9.1-.04-24.63-1.17-32.85-.36-1.16-.08-1.59-.15-1.64-.21-3.48,.06-9.13,.15-14.43,.24-5.3,.12-10.27,.13-12.36,.33-6.39-1.65-43.25-.14-43.06-1.74-7.13-.2-14.26-.4-21.39-.67l.56-.13c-13.66-.62-18.51-.47-23.33-.32-3.15-.24-.84-.28-.58-.35-19.96-1.17-21.94-1.23-38.72-1.25l-1.72-.58c-4.55,.08-28.83-2.18-48.46-2.51,.19-.05,.61-.12,2.16-.12-22.06-.47-52.74-3.66-60.89-2.07l-14.57-.03c18.83,.75-2.83,.69,4.91,1.24-7.41-.15-19.13-1.05-10.03-.93l1.42,.13c3.37-.85-23.4-.94-22.88-1.51-4.64-.08-9.26-.16-13.86-.23-4.61-.05-9.2-.1-13.77-.15-9.14-.11-18.21-.22-27.21-.33-8.99-.14-17.91-.38-26.75-.57-8.84-.23-17.6-.46-26.28-.69l3.98,.83-12.11-.34c-3.17-.25-4.25-.68,4.38-.44-4.53-.53-14.49,0-14.74,.15-16.91-.7,6.63-.69,1.44-.84l-7.05-.11,1.59,.12c-5.72,.17-6.23,.46-16.61,.19-6.57-.28-3.36-.52-5.95-.6,0-.03-.21-.05-.81-.07-.61-.02-1.6-.03-3.16-.04-5.09-.13-10.17-.26-15.26-.33l6.1,.66c-6.77,.19-14.35-.23-7.32,.52-2.58-.29-7.43-.5-13.35-.67-5.92-.12-12.92-.16-19.79-.2-13.75,.12-26.99,.24-30.17,.27-4.74,.33-9.44,.56-14.41,.73-4.97,.22-10.2,.45-16,.71,2.89-.01,4.64,.56-5.35,.94,.89-.37,.2-.55-1.48-.6-1.68-.02-4.33,.11-7.35,.27-3.02,.15-6.41,.33-9.55,.49-1.57,.07-3.08,.11-4.45,.14-1.37,.06-2.6,.08-3.62,.06,3.63-.03-3.45,.69-10.02,1.4-3.28,.36-6.44,.68-8.05,.98-1.61,.3-1.7,.44,1.14,.33-8.3,.93-.56-.44-6.89,.05-4.92,.77-10.1,1.43-15.48,2.18-5.36,.87-10.92,1.72-16.63,2.59-2.86,.39-5.73,.97-8.64,1.53-2.9,.56-5.84,1.13-8.79,1.7-1.23,.24-2.46,.48-3.7,.72l-.51,.1-.25,.05c-.05,.03-.06-.02-.08-.07l-.05-.12-.4-.97-.76-1.84c-.28-.69-.6-1.35-.8-2.07-.46-1.42-.92-2.84-1.38-4.26-.28-.31,.68,3.61-1.13-1.24l-1.06-6.31c-.3-2.11-.48-4.24-.72-6.35-.25-1.17-.44-2.02-.61-2.78-.19-.75-.36-1.42-.56-2.19-.36-1.56-.76-3.63-.8-8.04-.04,1.25-.1,3.11-.44-.09-1.63-23.84-.16-48.34-.55-73.07l-.15-4.65-.08-2.32-.14-2.34c-.22-3.11-.5-6.2-.86-9.28-.69-6.16-1.53-12.27-2.33-18.38-1.6-12.2-3.07-24.38-3.57-36.48,.21,6.56-.24,2.21-.57-2.79,.14,3.26-.44-.04-.63,.61-.23-6.77-.21-13.55,.33-20.24-.28-1.85,.05-7.26,.92-12.36,.42-2.55,.99-5.02,1.5-6.96,.49-1.95,.96-3.36,.95-3.92l-.94,3.01-.76,3.07c.36-2.08,.26-2.44-.12-1.83-.19,.31-.45,.87-.75,1.58-.29,.71-.56,1.6-.88,2.53-1.24,3.75-2.19,8.57-2.6,7.89C.67,30.64,.07,37,.01,44.18c-.09,7.18,.31,15.14,1.78,22.95,.18,3.5-.62-2.94-.65-1.05,.83,3.96,1.47,8.76,2.49,17.68l-.24-.99c1.73,12.49,3.01,21.39,3.84,30.67,.86,9.23,.69,18.94,.38,33.07l.5-2.09c-.15,6.07-.31,7.35-.48,10.19,.62,6.98,.29-17.07,.99-10.7-.52,4.02-.74,14.73-.82,25.15-.05,5.21,0,10.34,0,14.51,.05,4.18-.03,7.4-.19,8.78,.52,9.41,.38-2.79,.92,6.61l-.08,2.52,.59,2.34c.19,3.08,.48,5.4,.52,6.99,.07,1.59,.02,2.45-.08,2.58-.16-1.5-.62-4.24-.84-5.85,.18,2.01,.42,4.43,.78,6.96,.46,2.52,.89,5.18,1.45,7.64,.63,2.46,1.19,4.76,1.7,6.6,.6,1.82,1.05,3.21,1.24,3.89-.43-1.48-.89-2.95-1.29-4.43l-.98-4.49c.4,1.58,.8,3.18,1.21,4.8,.52,1.6,1.04,3.21,1.57,4.84,.47,1.65,1.21,3.24,1.88,4.86,.51,1.21,1.02,2.43,1.53,3.65l.39,.93c.01,.12,.11,.06,.19,.05l.25-.05,.49-.1,1.99-.41c3.61-.74,7.26-1.48,10.93-2.23,1.71-.35,3.43-.7,5.14-1.05,1.72-.35,3.43-.72,5.16-.97,3.46-.57,6.91-1.14,10.32-1.71,1.71-.29,3.41-.57,5.1-.85,1.69-.29,3.37-.59,5.05-.79,6.71-.9,13.19-1.84,19.27-2.74-.63-.02-1.25,0-1.88,0,9.32-1.2,13.08-1.43,17.06-1.75,1.99-.13,4.04-.33,6.88-.5,2.84-.17,6.47-.41,11.61-.82l-.74,.1c4.1-.51,9.6-1.04,15.25-1.22-5.19,.5,9.82,.06,3.01,.66,10.17-.69,12.68-.9,14.33-1.06,1.65-.18,2.43-.38,9.16-.97l3.12,.29c4.58-.44,4.96-.7,15.28-.87-8.46,.4,6.59,.5-2.88,1.01,5.41,.15,10.13,.16,14.31,.1,4.18-.06,7.83-.12,11.12-.17,6.57-.12,11.68-.25,16.64,.43,4.98-.44,.29-.66-4.94-.76-5.23-.06-11.01-.02-8.22-.12-4.66-.33,8.21-.79,15.01-.55,6.92,.13,11.74,1.42,29.14,1.79-1.73-.04-1.85,.03-3.58,0,6.51,.39,12.77-.1,20.75,.53,4.49-.51,10.37,.29,11.68-.47l-15.97-.2c9.06,.01,17.57-.71,32.47,.1-1.17,.13-5.61,.23-8.66,.28,4.36,.34,8.4,.05,12.92,.4-1.31,.76-19.41-.31-29.12,.07,4.67,.45,18.36-.13,13.46,.61,7.03-.92,17.15,.57,28.96-.02l-.79,.46c1.87-.03,5.74-.17,9.17-.09l-6.23,.48c9.56-.29,18.41,.77,27.58,.64-19.19-.28-4.3-.64-12.41-1.11,11.83-.12,15.23,.22,18.99,.59,3.75,.38,7.88,.82,21.11,.78-3.57,.05-13.46-.36-7.84-.55,5.04,.13,11.68,.35,14.77,.61,17.52,0-2.69-.5,4.77-.75,5.96,.59,8.61-.12,16.29-.2l.05,.48c9.98,.31,11.31,.1,12.39-.11,1.08-.22,1.91-.43,10.9-.01l-7.62,.48,9.38,.07-1.95,.5c10.2-.17,13.38,.09,23.36,.56-2.31-.41,1.33-.86,10.18-.53,6.02,.52-3.39,.33,9.14,.75-2.84,.19-5.96,.45-11.39-.21-.56,.13-2.8,.2-3.38,.34,6.48,.57,16.32,.71,20.85,.88-1.75-.09-3.83-.19-4.9-.3l18.2,.09c2.85,.31,.58,.35-1.68,.4,3.68,.11,6.24,0,11.65,.19-1.42,.33-1.1,.75-8.77,.6l17.33,.34c1.15,.22,8.86,.88,6.61,.92,9.58,.67,23.58,.37,36.29,1.28,.66-.04,2-.05,4.7,.02,11.96,.66,22.53,1.64,36.74,1.73l8.02,1.05c11.12,.32-10.86-1.35,7.65-.82,13.11,.28,4.87,.79,9.45,1.16,3.27-.06,7.74-.14,12.89-.11,5.16,.01,11,.17,17.01,.65-3.99,0-7.11-.2-10.84-.27Zm137.1,1.71c-2.66,.05-7.95,.28-9.89-.04,3.03-.5,5.37-.2,9.89,.04Zm129.14-85.66c-.09,1.98-.5,5-1.05,8.4,.24-2.49,.53-5.3,1.05-8.4ZM469.3,20.91c.11,0,.19-.01,.28-.02,5.93,.22,3.83,.14-.28,.02Zm-12.31-.29c-1.24,.05-1.15,.12-.63,.19,.86-.11,3.63-.1,6.77-.05-.87-.13-2.46-.23-6.14-.15ZM243.2,223.65l2.39,.18c-5.41,.03-3.89-.07-2.39-.18Z"/><path d="M890.32,179.41c-.15,.74-.26,.94-.37,1.11-.02,1.04,.08,1.07,.37-1.11Z"/><path d="M540.64,236.45l-.42-.03c-.23,.02-.35,.04-.42,.07l.84-.04Z"/><path d="M647.06,6.45c2.53-.13,3.95-.15,4.89-.13,.13-.13-1.03-.14-4.89,.13Z"/><path d="M391.74,20.21l7.89,.08c-3.81-.07-5.17-.21-7.1-.34,.17,.12,1.67,.32-.79,.26Z"/><path d="M323.46,14.85c-1.15,.01-2.44-.09-3.58-.08l.31,.24c4.9,.18,8.34,.14,3.27-.16Z"/><path d="M384.49,18.4c-.61-.42-5.56-.43-11.08-.53,.33,.01,.65,.02,.98,.03-1.64,.51,4.24,.53,10.1,.5Z"/><path d="M372.13,17.84c-1.7-.03-3.44-.08-5.1-.15-.65,.21,2.07,.11,5.1,.15Z"/><path d="M441.37,20.71c-2.62-.15-1.65,.49-3.13,.3-2.93,.49,17.47-.4,3.13-.3Z"/><polygon points="380.06 16.94 382.03 17.5 385.13 17.18 380.06 16.94"/><path d="M423.63,18.38l-8.82-.32c.13,.09-.99,.11-2.37,.12,5.43,.13,11.39,.35,11.18,.2Z"/><path d="M412.45,18.19c-2.83-.07-5.52-.13-7.1-.09,1.53,.03,4.83,.1,7.1,.09Z"/><polygon points="392.12 17.13 394.73 17.31 400.95 17.5 392.12 17.13"/><path d="M518.47,18.46l9.61-.57c.97-.22-1.65-.2-5.23,.03-2.3,.24-5.86,.43-4.38,.54Z"/><path d="M489.34,17.7c2.6,.07,2.78,.18,4.24,.33l.29-.62-4.53,.29Z"/><path d="M517.37,16.97c.95-.15,13.92-1.12,1.75-.51-.97,.2-10.59,.63-1.75,.51Z"/><polygon points="662.03 6.99 659.59 7.18 660.02 8.17 662.03 6.99"/><path d="M789.89,1.86c-11.42-.54-2.73,.55-13.05,.02-2.69,.18,8.43,.42,5.68,.57,6.9-.1,10.52,.17,7.37-.59Z"/><path d="M782.52,2.45c-1.11,.02-2.28,.05-3.52,.08,2-.02,2.94-.05,3.52-.08Z"/><path d="M5.38,19.51l.83-3.44,1.02-3.36c-.27,.7-.5,1.43-.76,2.14-.26,.71-.5,1.44-.7,2.18l-.39,2.49Z"/><path d="M8.6,6.34l1.32-1.18c.4-1.36,1.04-2.57,1.58-3.89-.4,.68-1,1.67-1.57,2.62-.5,1-1,1.94-1.34,2.45Z"/><path d="M783.31,243.21l.56-.15c-1.13-.19-2.85-.23-6.29-.32l5.73,.47Z"/><polygon points="683.86 241.66 685.58 241.69 682.38 241.08 683.86 241.66"/><path d="M600.27,240.15c3.41,.16,7.42,.18,10.84,.34-7.44-.18-11.73-1.1-10.84-.34Z"/></g></g></g></svg>